<?xml version="1.0" encoding="utf-8"?>
<!-- Generator: Adobe Illustrator 23.0.3, SVG Export Plug-In . SVG Version: 6.00 Build 0)  -->
<svg version="1.1" id="Layer_1" xmlns:serif="http://www.serif.com/"
	 xmlns="http://www.w3.org/2000/svg" xmlns:xlink="http://www.w3.org/1999/xlink" x="0px" y="0px" viewBox="0 0 1280 1024"
	 style="enable-background:new 0 0 1280 1024;" xml:space="preserve">
<style type="text/css">
	.st0{fill:#999999;}
</style>
<g transform="matrix(1,0,0,1,-212.5,-2400)">
	<g transform="matrix(4.16667,0,0,4.16667,0,0)">
		<g transform="matrix(0.24,0,0,0.24,0,0)">
			<path class="st0" d="M884.8,3378.8c-4.5,17,5.5,34.4,22.5,39c17,4.6,34.5-5.5,39-22.5l30.2-112.7l-61.5-16.5L884.8,3378.8z
				 M531.5,3387.1c0,17.6,14.2,31.8,31.8,31.8s31.8-14.3,31.8-31.8v-116.8h-63.7V3387.1z M1004,3180l-16.5,61.5l20.5,5.5
				c56.6,15.2,114.8-18.4,130-75l16.5-61.5l-20.5-5.5C1077.4,3089.8,1019.2,3123.4,1004,3180z M595.2,3164.2v63.7h21.2
				c58.6,0,106.1-47.5,106.1-106.1v-63.7h-21.2C642.8,3058.1,595.2,3105.5,595.2,3164.2z M531.5,3164.2
				c0-58.6-47.5-106.1-106.1-106.1h-21.2v63.7c0,58.6,47.5,106.1,106.1,106.1h21.2V3164.2z M926.1,3225.1l16.5-61.5
				c15.2-56.6-18.4-114.8-75-130l-20.5-5.5l-16.5,61.5c-15.2,56.7,18.4,114.8,75,130L926.1,3225.1z M1053.5,2995.5L1037,3057
				l20.5,5.5c56.6,15.2,114.8-18.4,130-75.1l16.5-61.5l-20.5-5.5C1126.9,2905.3,1068.7,2938.9,1053.5,2995.5z M955,3035l20.5,5.5
				L992,2979c15.2-56.7-18.4-114.8-75-130l-20.5-5.5l-16.5,61.5C864.8,2961.6,898.4,3019.9,955,3035z M595.2,2973.1v63.7h21.2
				c58.6,0,106.1-47.5,106.1-106.1V2867h-21.2C642.8,2867,595.2,2914.5,595.2,2973.1z M510.3,3036.8h21.2v-63.7
				c0-58.6-47.5-106.1-106.1-106.1h-21.2v63.7C404.2,2989.3,451.7,3036.8,510.3,3036.8z M1102.9,2810.9l-16.5,61.5l20.5,5.5
				c56.6,15.2,114.8-18.4,130-75.1l16.5-61.5l-20.5-5.5C1176.3,2720.7,1118.1,2754.3,1102.9,2810.9z M1004.4,2850.5l20.5,5.5
				l16.5-61.5c15.2-56.7-18.4-114.8-75.1-130l-20.5-5.5l-16.5,61.5C914.2,2777.1,947.8,2835.3,1004.4,2850.5z M510.3,2845.8h21.2
				v-63.7c0-58.6-47.5-106.1-106.1-106.1h-21.2v63.7C404.2,2798.3,451.7,2845.8,510.3,2845.8z M595.2,2782.1v63.7h21.2
				c58.6,0,106.1-47.5,106.1-106.1V2676h-21.2C642.8,2676,595.2,2723.5,595.2,2782.1z M1094.1,2720.7c17,4.5,34.4-5.6,39-22.5
				l60.5-225.6c4.5-17-5.5-34.4-22.5-39c-17-4.5-34.5,5.6-39,22.5l-60.5,225.5C1067.1,2698.7,1077.2,2716.1,1094.1,2720.7z
				 M563.4,2697.2c17.6,0,31.8-14.3,31.8-31.8v-233.5c0-17.6-14.2-31.8-31.8-31.8s-31.8,14.3-31.8,31.8v233.5
				C531.5,2682.9,545.8,2697.2,563.4,2697.2z M1272.1,2548.6c-17-4.5-34.4,5.5-39,22.5l-22,82c-4.6,17,5.5,34.4,22.5,39
				c17,4.6,34.5-5.5,39-22.5l22-82C1299.2,2570.6,1289.1,2553.1,1272.1,2548.6z M436,2633.5c17.6,0,31.8-14.3,31.8-31.8v-84.9
				c0-17.6-14.2-31.8-31.8-31.8c-17.6,0-31.8,14.3-31.8,31.8v84.9C404.2,2619.2,418.4,2633.5,436,2633.5z M690.7,2484.9
				c-17.6,0-31.8,14.3-31.8,31.8v84.9c0,17.6,14.2,31.8,31.8,31.8s31.8-14.3,31.8-31.8v-84.9
				C722.6,2499.2,708.3,2484.9,690.7,2484.9z M987.6,2626.2c17,4.6,34.5-5.5,39-22.5l22-82c4.5-17-5.5-34.4-22.5-39
				c-17-4.6-34.4,5.5-39,22.5l-22,82C960.5,2604.2,970.6,2621.7,987.6,2626.2z"/>
		</g>
	</g>
</g>
</svg>
