<?xml version="1.0" encoding="utf-8"?>
<!-- Generator: Adobe Illustrator 24.1.0, SVG Export Plug-In . SVG Version: 6.00 Build 0)  -->
<svg version="1.1" id="Layer_1" xmlns:serif="http://www.serif.com/"
	 xmlns="http://www.w3.org/2000/svg" xmlns:xlink="http://www.w3.org/1999/xlink" x="0px" y="0px" viewBox="0 0 149.7 209.1"
	 style="enable-background:new 0 0 149.7 209.1;" xml:space="preserve">
<style type="text/css">
	.st0{clip-path:url(#SVGID_2_);}
	.st1{clip-path:url(#SVGID_4_);}
	.st2{fill:#1A1A1A;}
	.st3{font-family:'IdealSans-ExtraLight';}
	.st4{font-size:11.5177px;}
	.st5{font-family:'IdealSans-Light';}
	.st6{font-size:6.3987px;}
	.st7{fill-rule:evenodd;clip-rule:evenodd;fill:#1A1A1A;}
	.st8{font-family:'IdealSans-Semibold';}
	.st9{fill:none;stroke:#1A1A1A;stroke-width:0.16;stroke-miterlimit:2.5595;}
	.st10{fill:#F8F166;}
	.st11{fill:#E9522B;}
	.st12{fill:#00B6C9;}
</style>
<g>
	<defs>
		<rect id="SVGID_1_" x="-22.7" y="-19.9" width="192" height="511.9"/>
	</defs>
	<clipPath id="SVGID_2_">
		<use xlink:href="#SVGID_1_"  style="overflow:visible;"/>
	</clipPath>
	<g class="st0">
		<g>
			<defs>
				<rect id="SVGID_3_" x="-22.7" y="-19.9" width="192" height="511.9"/>
			</defs>
			<clipPath id="SVGID_4_">
				<use xlink:href="#SVGID_3_"  style="overflow:visible;"/>
			</clipPath>
			<g class="st1">
				<g id="Layer-1" serif:id="Layer 1">
				</g>
			</g>
		</g>
	</g>
</g>
<g id="Layer-11" serif:id="Layer 1">
	<g transform="matrix(2.08333,0,0,2.08333,61.4583,478.168)">
		<text transform="matrix(0.48 0 0 0.48 -12.9348 -162.7888)" class="st2 st3 st4">B</text>
		<text transform="matrix(0.48 0 0 0.48 -9.7338 -162.7888)" class="st2 st3 st4">y</text>
		<text transform="matrix(0.48 0 0 0.48 -7.2571 -162.7888)" class="st2 st3 st4"> </text>
		<text transform="matrix(0.48 0 0 0.48 -6.1623 -162.7888)" class="st2 st3 st4">P</text>
		<text transform="matrix(0.48 0 0 0.48 -3.2711 -162.7888)" class="st2 st3 st4">r</text>
		<text transform="matrix(0.48 0 0 0.48 -1.585 -162.7888)" class="st2 st3 st4">o</text>
		<text transform="matrix(0.48 0 0 0.48 1.4448 -162.7888)" class="st2 st3 st4">d</text>
		<text transform="matrix(0.48 0 0 0.48 4.4136 -162.7888)" class="st2 st3 st4">uct T</text>
		<text transform="matrix(0.48 0 0 0.48 15.7471 -162.7888)" class="st2 st3 st4">y</text>
		<text transform="matrix(0.48 0 0 0.48 18.2235 -162.7888)" class="st2 st3 st4">p</text>
		<text transform="matrix(0.48 0 0 0.48 21.1982 -162.7888)" class="st2 st3 st4">e</text>
		<text transform="matrix(0.48 0 0 0.48 -29.5 -154.5847)" class="st2 st5 st6">Loan</text>
		<path class="st7" d="M32.2-154.6h0.2c0-0.1,0-0.3,0-0.4v-0.2l0.3,0c0-0.1,0-0.1,0-0.2c-0.1,0-0.2,0-0.3,0v-1c0-0.1,0-0.3,0-0.4
			l-0.1,0l-0.2,0.3l-0.9,1.2l0.1,0.1c0.2,0,0.5,0,0.8,0h0.2v0.1C32.2-154.9,32.2-154.7,32.2-154.6z M32.2-156.4v1h-0.8L32.2-156.4z"
			/>
		<path class="st7" d="M33.2-154.8c0.2-0.2,0.4-0.4,0.6-0.5c0.3-0.3,0.5-0.5,0.5-0.8c0-0.4-0.3-0.6-0.6-0.6c-0.2,0-0.5,0.1-0.7,0.3
			l0.1,0.2c0.2-0.2,0.4-0.3,0.6-0.3c0.3,0,0.4,0.2,0.4,0.4c0,0.3-0.3,0.7-1.1,1.4l0,0.2c0.2,0,0.4,0,0.7,0c0.3,0,0.5,0,0.7,0
			c0-0.1,0-0.1,0-0.2C34-154.8,33.6-154.8,33.2-154.8z"/>
		<path class="st7" d="M35.4-156.7c-0.5,0-0.7,0.5-0.7,1.1c0,0.6,0.2,1.1,0.7,1.1c0.5,0,0.7-0.5,0.7-1.1
			C36.1-156.3,35.9-156.7,35.4-156.7z M35.4-154.7c-0.3,0-0.5-0.4-0.5-0.9c0-0.5,0.2-0.9,0.5-0.9c0.3,0,0.5,0.4,0.5,0.9
			C35.9-155.1,35.7-154.7,35.4-154.7z"/>
		<path class="st7" d="M36.8-154.7c0-0.1-0.1-0.2-0.2-0.2c-0.1,0-0.2,0.1-0.2,0.2c0,0.1,0.1,0.2,0.2,0.2
			C36.7-154.5,36.8-154.6,36.8-154.7z"/>
		<path class="st7" d="M38-156.7c-0.5,0-0.7,0.5-0.7,1.1c0,0.6,0.2,1.1,0.7,1.1c0.5,0,0.7-0.5,0.7-1.1
			C38.7-156.3,38.4-156.7,38-156.7z M37.9-154.7c-0.3,0-0.5-0.4-0.5-0.9c0-0.5,0.2-0.9,0.5-0.9s0.5,0.4,0.5,0.9
			C38.5-155.1,38.3-154.7,37.9-154.7z"/>
		<path class="st7" d="M39.7-156.7c-0.5,0-0.7,0.5-0.7,1.1c0,0.6,0.2,1.1,0.7,1.1c0.5,0,0.7-0.5,0.7-1.1
			C40.4-156.3,40.2-156.7,39.7-156.7z M39.7-154.7c-0.3,0-0.5-0.4-0.5-0.9c0-0.5,0.2-0.9,0.5-0.9s0.5,0.4,0.5,0.9
			C40.2-155.1,40-154.7,39.7-154.7z"/>
		<text transform="matrix(0.48 0 0 0.48 -29.5 -148.4417)" class="st2 st5 st6">Gr</text>
		<text transform="matrix(0.48 0 0 0.48 -26.2596 -148.4417)" class="st2 st5 st6">a</text>
		<text transform="matrix(0.48 0 0 0.48 -24.7853 -148.4417)" class="st2 st5 st6">n</text>
		<text transform="matrix(0.48 0 0 0.48 -23.1178 -148.4417)" class="st2 st5 st6">t for I</text>
		<text transform="matrix(0.48 0 0 0.48 -16.2869 -148.4417)" class="st2 st5 st6">n</text>
		<text transform="matrix(0.48 0 0 0.48 -14.6191 -148.4417)" class="st2 st5 st6">vestment</text>
		<path class="st7" d="M34.7-148.9c0,0.3,0.3,0.6,0.7,0.6c0.4,0,0.7-0.3,0.7-0.6c0-0.3-0.2-0.4-0.5-0.6c0.3-0.1,0.4-0.3,0.4-0.5
			c0-0.3-0.3-0.5-0.6-0.5c-0.4,0-0.7,0.2-0.7,0.6c0,0.3,0.2,0.4,0.4,0.5C34.9-149.4,34.7-149.2,34.7-148.9z M35.9-149
			c0,0.2-0.2,0.4-0.5,0.4c-0.3,0-0.5-0.2-0.5-0.4c0-0.2,0.2-0.4,0.5-0.5C35.7-149.3,35.9-149.2,35.9-149z M34.9-150.1
			c0-0.2,0.2-0.4,0.4-0.4c0.2,0,0.4,0.1,0.4,0.4c0,0.2-0.2,0.3-0.4,0.4C35.1-149.7,34.9-149.9,34.9-150.1z"/>
		<path class="st7" d="M36.8-148.6c0-0.1-0.1-0.2-0.2-0.2c-0.1,0-0.2,0.1-0.2,0.2c0,0.1,0.1,0.2,0.2,0.2
			C36.7-148.4,36.8-148.5,36.8-148.6z"/>
		<path class="st7" d="M37.3-148.5c0.2,0.1,0.3,0.1,0.5,0.1c0.5,0,0.8-0.3,0.8-0.7c0-0.4-0.3-0.6-0.9-0.6c-0.1,0-0.1,0-0.2,0l0-0.7
			H38c0.2,0,0.4,0,0.6,0c0-0.1,0-0.2,0-0.2c-0.2,0-0.3,0-0.6,0c-0.3,0-0.4,0-0.6,0l0,0c0,0.1,0,0.2,0,0.3l0,0.3c0,0.1,0,0.2,0,0.3
			l0,0c0.1,0,0.2,0,0.3,0c0.5,0,0.7,0.2,0.7,0.4c0,0.2-0.2,0.4-0.6,0.4c-0.2,0-0.4,0-0.6-0.1C37.2-148.7,37.3-148.5,37.3-148.5z"/>
		<path class="st7" d="M39.7-150.6c-0.5,0-0.7,0.5-0.7,1.1c0,0.6,0.2,1.1,0.7,1.1c0.5,0,0.7-0.5,0.7-1.1
			C40.4-150.1,40.2-150.6,39.7-150.6z M39.7-148.6c-0.3,0-0.5-0.4-0.5-0.9c0-0.5,0.2-0.9,0.5-0.9s0.5,0.4,0.5,0.9
			C40.2-149,40-148.6,39.7-148.6z"/>
		<text transform="matrix(0.48 0 0 0.48 -29.5 -142.299)" class="st2 st5 st6">Gr</text>
		<text transform="matrix(0.48 0 0 0.48 -26.2596 -142.299)" class="st2 st5 st6">a</text>
		<text transform="matrix(0.48 0 0 0.48 -24.7853 -142.299)" class="st2 st5 st6">n</text>
		<text transform="matrix(0.48 0 0 0.48 -23.1178 -142.299)" class="st2 st5 st6">t for T</text>
		<text transform="matrix(0.48 0 0 0.48 -15.5744 -142.299)" class="st2 st5 st6">e</text>
		<text transform="matrix(0.48 0 0 0.48 -14.0388 -142.299)" class="st2 st5 st6">c</text>
		<text transform="matrix(0.48 0 0 0.48 -12.5676 -142.299)" class="st2 st5 st6">hnical Assistance</text>
		<path class="st7" d="M34.4-142.5c-0.1,0-0.3,0-0.4,0h-0.2v-1.6c0-0.1,0-0.3,0-0.4l0,0l-0.2,0.1c-0.1,0-0.4,0.1-0.6,0.2l0,0.2
			l0.5-0.2v1.3c0,0.1,0,0.3,0,0.4h-0.2c-0.1,0-0.2,0-0.4,0c0,0.1,0,0.1,0,0.2c0.2,0,0.3,0,0.5,0h0.3c0.2,0,0.4,0,0.6,0
			C34.4-142.4,34.4-142.4,34.4-142.5L34.4-142.5z"/>
		<path class="st7" d="M34.7-142.3c0.2,0.1,0.4,0.1,0.5,0.1c0.5,0,0.8-0.3,0.8-0.6c0-0.3-0.2-0.5-0.7-0.5c0.4-0.1,0.6-0.3,0.6-0.6
			c0-0.3-0.3-0.5-0.7-0.5c-0.2,0-0.5,0.1-0.7,0.2l0.1,0.2c0.2-0.1,0.4-0.2,0.6-0.2c0.3,0,0.4,0.1,0.4,0.3c0,0.2-0.2,0.4-0.8,0.5
			l0,0.2c0.5,0,0.8,0.2,0.8,0.4c0,0.2-0.2,0.4-0.6,0.4c-0.2,0-0.4,0-0.6-0.1C34.6-142.6,34.7-142.3,34.7-142.3z"/>
		<path class="st7" d="M36.8-142.4c0-0.1-0.1-0.2-0.2-0.2c-0.1,0-0.2,0.1-0.2,0.2c0,0.1,0.1,0.2,0.2,0.2
			C36.7-142.3,36.8-142.3,36.8-142.4z"/>
		<path class="st7" d="M38.5-144.3l0-0.2c-0.8,0.1-1.2,0.7-1.2,1.4c0,0.5,0.3,0.8,0.7,0.8c0.4,0,0.7-0.3,0.7-0.7
			c0-0.4-0.3-0.7-0.7-0.7c-0.2,0-0.4,0.1-0.6,0.3C37.6-143.8,37.9-144.2,38.5-144.3z M38.5-143c0,0.3-0.2,0.5-0.5,0.5
			c-0.3,0-0.5-0.2-0.5-0.5c0-0.3,0.2-0.5,0.5-0.5C38.3-143.4,38.5-143.2,38.5-143z"/>
		<path class="st7" d="M39-142.3c0.2,0.1,0.3,0.1,0.5,0.1c0.5,0,0.8-0.3,0.8-0.7c0-0.4-0.3-0.6-0.9-0.6c-0.1,0-0.1,0-0.2,0l0-0.7
			h0.4c0.2,0,0.4,0,0.6,0c0-0.1,0-0.2,0-0.2c-0.2,0-0.3,0-0.6,0c-0.3,0-0.4,0-0.6,0l0,0c0,0.1,0,0.2,0,0.3l0,0.3c0,0.1,0,0.2,0,0.3
			l0,0c0.1,0,0.2,0,0.3,0c0.5,0,0.7,0.2,0.7,0.4c0,0.2-0.2,0.4-0.6,0.4c-0.2,0-0.4,0-0.6-0.1C39-142.6,39-142.3,39-142.3z"/>
		<text transform="matrix(0.48 0 0 0.48 -29.5 -136.1316)" class="st2 st8 st6">T</text>
		<text transform="matrix(0.48 0 0 0.48 -27.7586 -136.1316)" class="st2 st8 st6">o</text>
		<text transform="matrix(0.48 0 0 0.48 -26.0385 -136.1316)" class="st2 st8 st6">t</text>
		<text transform="matrix(0.48 0 0 0.48 -24.8439 -136.1316)" class="st2 st8 st6">al</text>
		<path class="st7" d="M32-136.1h0.5c0-0.1,0-0.2,0-0.3v-0.2l0.2,0c0-0.2,0-0.2,0-0.4c-0.1,0-0.1,0-0.2,0v-0.9c0-0.1,0-0.3,0-0.4
			l-0.4,0c0,0-0.1,0.2-0.2,0.3l-0.8,1l0,0.3c0.2,0,0.5,0,0.7,0H32v0.1C32-136.4,32-136.2,32-136.1z M31.5-137l0.5-0.7l0,0.7
			C31.9-137,31.6-137,31.5-137z"/>
		<path class="st7" d="M33.7-136.1h0.5c0-0.1,0-0.2,0-0.3v-0.2l0.2,0c0-0.2,0-0.2,0-0.4c-0.1,0-0.1,0-0.2,0v-0.9c0-0.1,0-0.3,0-0.4
			l-0.4,0c0,0-0.1,0.2-0.2,0.3l-0.8,1l0,0.3c0.2,0,0.5,0,0.7,0h0.2v0.1C33.8-136.4,33.8-136.2,33.7-136.1z M33.3-137l0.5-0.7l0,0.7
			C33.6-137,33.3-137,33.3-137z"/>
		<path class="st7" d="M35.2-136.5c0.1-0.1,0.3-0.3,0.4-0.4c0.2-0.3,0.4-0.5,0.4-0.8c0-0.4-0.3-0.6-0.7-0.6c-0.3,0-0.5,0.1-0.7,0.2
			l0.1,0.4c0.2-0.1,0.4-0.2,0.5-0.2c0.2,0,0.3,0.1,0.3,0.3c0,0.3-0.3,0.6-1,1.1l0,0.3c0.2,0,0.5,0,0.7,0c0.3,0,0.5,0,0.7,0
			c0-0.2,0-0.3,0-0.4C35.9-136.5,35.5-136.5,35.2-136.5z"/>
		<path class="st7" d="M36.9-136.3c0-0.2-0.1-0.3-0.3-0.3c-0.2,0-0.3,0.1-0.3,0.3c0,0.1,0.1,0.3,0.3,0.3
			C36.8-136.1,36.9-136.2,36.9-136.3z"/>
		<path class="st7" d="M38.7-136.5c-0.1,0-0.3,0-0.4,0h-0.1v-1.3c0-0.1,0-0.3,0-0.4l-0.2,0l-0.2,0.1c-0.1,0-0.4,0.1-0.6,0.2l0.1,0.4
			l0.4-0.1v1c0,0.1,0,0.1,0,0.2h-0.1c-0.1,0-0.3,0-0.4,0c0,0.1,0,0.3,0,0.4c0.2,0,0.3,0,0.4,0h0.4c0.2,0,0.4,0,0.6,0
			C38.7-136.2,38.7-136.5,38.7-136.5z"/>
		<path class="st7" d="M39-136.2c0.2,0.1,0.4,0.1,0.6,0.1c0.5,0,0.8-0.3,0.8-0.7c0-0.4-0.3-0.6-0.8-0.7c0,0-0.1,0-0.1,0l0-0.4h0.3
			c0.3,0,0.3,0,0.5,0c0-0.1,0-0.3,0-0.4c-0.3,0-0.3,0-0.6,0c-0.3,0-0.4,0-0.6,0l0,0v0.4l0,0.4c0,0.1,0,0.2,0,0.3l0,0
			c0.1,0,0.2,0,0.3,0c0.4,0,0.6,0.1,0.6,0.3c0,0.2-0.2,0.3-0.4,0.3c-0.2,0-0.4,0-0.6-0.1C38.9-136.6,39-136.2,39-136.2z"/>
		<path class="st9" d="M-31.3-158.6h73.7 M-31.3-152.5h73.7 M-31.3-146.4h73.7 M-31.3-140.2h73.7 M-31.3-134.1h73.7"/>
	</g>
	<path class="st10" d="M62.4,1.9c3.6-0.7,7.2-1.1,10.9-1.1v14.1c-2.7,0-5.5,0.3-8.1,0.8L62.4,1.9z"/>
	<path class="st11" d="M55.8,3.6c2.2-0.7,4.4-1.3,6.6-1.7l2.7,13.8c-1.7,0.3-3.3,0.8-4.9,1.3L55.8,3.6z"/>
	<path class="st12" d="M73.3,0.9c29.4,0,53.8,22.6,56.2,51.9c2.3,29.3-18.3,55.4-47.3,60.1c-29,4.6-56.7-13.9-63.6-42.5
		c-6.9-28.6,9.4-57.6,37.3-66.7L60.2,17c-21,6.8-33.1,28.6-28,50c5.2,21.4,25.9,35.3,47.7,31.8c21.8-3.5,37.2-23.1,35.5-45
		c-1.7-22-20.1-38.9-42.1-38.9C73.3,14.9,73.3,0.9,73.3,0.9z"/>
</g>
</svg>
