<?xml version="1.0" encoding="utf-8"?>
<!-- Generator: Adobe Illustrator 24.1.0, SVG Export Plug-In . SVG Version: 6.00 Build 0)  -->
<svg version="1.1" id="Layer_1" xmlns:serif="http://www.serif.com/"
	 xmlns="http://www.w3.org/2000/svg" xmlns:xlink="http://www.w3.org/1999/xlink" x="0px" y="0px" viewBox="0 0 149.7 344"
	 style="enable-background:new 0 0 149.7 344;" xml:space="preserve">
<style type="text/css">
	.st0{clip-path:url(#SVGID_2_);}
	.st1{clip-path:url(#SVGID_4_);}
	.st2{fill:#1A1A1A;}
	.st3{font-family:'IdealSans-ExtraLight';}
	.st4{font-size:11.5177px;}
	.st5{font-family:'IdealSans-Light';}
	.st6{font-size:6.3987px;}
	.st7{fill-rule:evenodd;clip-rule:evenodd;fill:#1A1A1A;}
	.st8{font-family:'IdealSans-Semibold';}
	.st9{fill:none;stroke:#1A1A1A;stroke-width:0.16;stroke-miterlimit:2.5595;}
	.st10{fill:#909090;}
	.st11{fill:#808080;}
	.st12{fill:#707070;}
	.st13{fill:#606060;}
	.st14{fill:#505050;}
	.st15{fill:#404040;}
	.st16{fill:#303030;}
	.st17{fill:#202020;}
	.st18{fill:#F8947B;}
	.st19{fill:#F0704F;}
	.st20{fill:#E9522B;}
</style>
<g>
	<defs>
		<rect id="SVGID_1_" x="-22.7" y="-22" width="192" height="511.9"/>
	</defs>
	<clipPath id="SVGID_2_">
		<use xlink:href="#SVGID_1_"  style="overflow:visible;"/>
	</clipPath>
	<g class="st0">
		<g>
			<defs>
				<rect id="SVGID_3_" x="-22.7" y="-22" width="192" height="511.9"/>
			</defs>
			<clipPath id="SVGID_4_">
				<use xlink:href="#SVGID_3_"  style="overflow:visible;"/>
			</clipPath>
			<g class="st1">
				<g id="Layer-1" serif:id="Layer 1">
				</g>
			</g>
		</g>
	</g>
</g>
<g id="Layer-11" serif:id="Layer 1">
	<g transform="matrix(2.08333,0,0,2.08333,61.4583,478.168)">
		<text transform="matrix(0.48 0 0 0.48 -5.8473 -163.7757)" class="st2 st3 st4">B</text>
		<text transform="matrix(0.48 0 0 0.48 -2.6462 -163.7757)" class="st2 st3 st4">y</text>
		<text transform="matrix(0.48 0 0 0.48 -0.1694 -163.7757)" class="st2 st3 st4"> </text>
		<text transform="matrix(0.48 0 0 0.48 0.9252 -163.7757)" class="st2 st3 st4">Sour</text>
		<text transform="matrix(0.48 0 0 0.48 11.4791 -163.7757)" class="st2 st3 st4">c</text>
		<text transform="matrix(0.48 0 0 0.48 14.1107 -163.7757)" class="st2 st3 st4">e</text>
		<text transform="matrix(0.48 0 0 0.48 -29.5 -155.5716)" class="st2 st5 st6">Eur</text>
		<text transform="matrix(0.48 0 0 0.48 -25.1847 -155.5716)" class="st2 st5 st6">o</text>
		<text transform="matrix(0.48 0 0 0.48 -23.5169 -155.5716)" class="st2 st5 st6">p</text>
		<text transform="matrix(0.48 0 0 0.48 -21.8463 -155.5716)" class="st2 st5 st6">ean Bank for R</text>
		<text transform="matrix(0.48 0 0 0.48 -3.3533 -155.5716)" class="st2 st5 st6">e</text>
		<text transform="matrix(0.48 0 0 0.48 -1.8175 -155.5716)" class="st2 st5 st6">c</text>
		<text transform="matrix(0.48 0 0 0.48 -0.3465 -155.5716)" class="st2 st5 st6">onstruction and</text>
		<text transform="matrix(0.48 0 0 0.48 -29.5 -151.8858)" class="st2 st5 st6">Dev</text>
		<text transform="matrix(0.48 0 0 0.48 -24.3063 -151.8858)" class="st2 st5 st6">e</text>
		<text transform="matrix(0.48 0 0 0.48 -22.7706 -151.8858)" class="st2 st5 st6">l</text>
		<text transform="matrix(0.48 0 0 0.48 -22.0764 -151.8858)" class="st2 st5 st6">opment</text>
		<path class="st7" d="M31.2-155.6c0.2,0.1,0.4,0.1,0.5,0.1c0.5,0,0.8-0.3,0.8-0.6c0-0.3-0.2-0.5-0.7-0.5c0.4-0.1,0.6-0.3,0.6-0.6
			c0-0.3-0.3-0.5-0.7-0.5c-0.2,0-0.5,0.1-0.7,0.2l0.1,0.2c0.2-0.1,0.4-0.2,0.6-0.2c0.3,0,0.4,0.1,0.4,0.3c0,0.2-0.2,0.4-0.8,0.5
			l0,0.2c0.5,0,0.8,0.2,0.8,0.4c0,0.2-0.2,0.4-0.6,0.4c-0.2,0-0.4,0-0.6-0.1L31.2-155.6z"/>
		<path class="st7" d="M33.7-157.7c-0.5,0-0.7,0.5-0.7,1.1c0,0.6,0.2,1.1,0.7,1.1c0.5,0,0.7-0.5,0.7-1.1
			C34.4-157.3,34.1-157.7,33.7-157.7z M33.6-155.7c-0.3,0-0.5-0.4-0.5-0.9c0-0.5,0.2-0.9,0.5-0.9c0.3,0,0.5,0.4,0.5,0.9
			C34.2-156.1,34-155.7,33.6-155.7z"/>
		<path class="st7" d="M35.4-157.7c-0.5,0-0.7,0.5-0.7,1.1c0,0.6,0.2,1.1,0.7,1.1c0.5,0,0.7-0.5,0.7-1.1
			C36.1-157.3,35.9-157.7,35.4-157.7z M35.4-155.7c-0.3,0-0.5-0.4-0.5-0.9c0-0.5,0.2-0.9,0.5-0.9c0.3,0,0.5,0.4,0.5,0.9
			C35.9-156.1,35.7-155.7,35.4-155.7z"/>
		<path class="st7" d="M36.8-155.7c0-0.1-0.1-0.2-0.2-0.2c-0.1,0-0.2,0.1-0.2,0.2c0,0.1,0.1,0.2,0.2,0.2
			C36.7-155.5,36.8-155.6,36.8-155.7z"/>
		<path class="st7" d="M38-157.7c-0.5,0-0.7,0.5-0.7,1.1c0,0.6,0.2,1.1,0.7,1.1c0.5,0,0.7-0.5,0.7-1.1
			C38.7-157.3,38.4-157.7,38-157.7z M37.9-155.7c-0.3,0-0.5-0.4-0.5-0.9c0-0.5,0.2-0.9,0.5-0.9s0.5,0.4,0.5,0.9
			C38.5-156.1,38.3-155.7,37.9-155.7z"/>
		<path class="st7" d="M39.7-157.7c-0.5,0-0.7,0.5-0.7,1.1c0,0.6,0.2,1.1,0.7,1.1c0.5,0,0.7-0.5,0.7-1.1
			C40.4-157.3,40.2-157.7,39.7-157.7z M39.7-155.7c-0.3,0-0.5-0.4-0.5-0.9c0-0.5,0.2-0.9,0.5-0.9s0.5,0.4,0.5,0.9
			C40.2-156.1,40-155.7,39.7-155.7z"/>
		<text transform="matrix(0.48 0 0 0.48 -29.5 -145.7429)" class="st2 st5 st6">R</text>
		<text transform="matrix(0.48 0 0 0.48 -27.6386 -145.7429)" class="st2 st5 st6">e</text>
		<text transform="matrix(0.48 0 0 0.48 -26.103 -145.7429)" class="st2 st5 st6">p</text>
		<text transform="matrix(0.48 0 0 0.48 -24.4324 -145.7429)" class="st2 st5 st6">ublic of K</text>
		<text transform="matrix(0.48 0 0 0.48 -12.4722 -145.7429)" class="st2 st5 st6">o</text>
		<text transform="matrix(0.48 0 0 0.48 -10.8044 -145.7429)" class="st2 st5 st6">r</text>
		<text transform="matrix(0.48 0 0 0.48 -9.8308 -145.7429)" class="st2 st5 st6">e</text>
		<text transform="matrix(0.48 0 0 0.48 -8.2952 -145.7429)" class="st2 st5 st6">a</text>
		<path class="st7" d="M32.9-146.2c0,0.3,0.3,0.6,0.7,0.6c0.4,0,0.7-0.3,0.7-0.6c0-0.3-0.2-0.4-0.5-0.6c0.3-0.1,0.4-0.3,0.4-0.5
			c0-0.3-0.3-0.5-0.6-0.5c-0.4,0-0.7,0.2-0.7,0.6c0,0.3,0.2,0.4,0.4,0.5C33.1-146.7,32.9-146.5,32.9-146.2z M34.1-146.3
			c0,0.2-0.2,0.4-0.5,0.4c-0.3,0-0.5-0.2-0.5-0.4c0-0.2,0.2-0.4,0.5-0.5C34-146.6,34.1-146.5,34.1-146.3z M33.2-147.4
			c0-0.2,0.2-0.4,0.4-0.4c0.2,0,0.4,0.1,0.4,0.4c0,0.2-0.2,0.3-0.4,0.4C33.4-147,33.2-147.2,33.2-147.4z"/>
		<path class="st7" d="M36.1-145.9c-0.1,0-0.3,0-0.4,0h-0.2v-1.6c0-0.1,0-0.3,0-0.4l0,0l-0.2,0.1c-0.1,0-0.4,0.1-0.6,0.2l0,0.2
			l0.5-0.2v1.3c0,0.1,0,0.3,0,0.4h-0.2c-0.1,0-0.2,0-0.4,0c0,0.1,0,0.1,0,0.2c0.2,0,0.3,0,0.5,0h0.3c0.2,0,0.4,0,0.6,0
			C36.1-145.8,36.1-145.9,36.1-145.9L36.1-145.9z"/>
		<path class="st7" d="M36.8-145.9c0-0.1-0.1-0.2-0.2-0.2c-0.1,0-0.2,0.1-0.2,0.2c0,0.1,0.1,0.2,0.2,0.2
			C36.7-145.7,36.8-145.8,36.8-145.9z"/>
		<path class="st7" d="M38.2-145.7h0.2c0-0.1,0-0.3,0-0.4v-0.2l0.3,0c0-0.1,0-0.1,0-0.2c-0.1,0-0.2,0-0.3,0v-1c0-0.1,0-0.3,0-0.4
			l-0.1,0l-0.2,0.3l-0.9,1.2l0.1,0.1c0.2,0,0.5,0,0.8,0h0.2v0.1C38.2-146.1,38.2-145.9,38.2-145.7z M38.2-147.5v1h-0.8L38.2-147.5z"
			/>
		<path class="st7" d="M39-145.8c0.2,0.1,0.3,0.1,0.5,0.1c0.5,0,0.8-0.3,0.8-0.7c0-0.4-0.3-0.6-0.9-0.6c-0.1,0-0.1,0-0.2,0l0-0.7
			h0.4c0.2,0,0.4,0,0.6,0c0-0.1,0-0.2,0-0.2c-0.2,0-0.3,0-0.6,0c-0.3,0-0.4,0-0.6,0l0,0c0,0.1,0,0.2,0,0.3l0,0.3c0,0.1,0,0.2,0,0.3
			l0,0c0.1,0,0.2,0,0.3,0c0.5,0,0.7,0.2,0.7,0.4c0,0.2-0.2,0.4-0.6,0.4c-0.2,0-0.4,0-0.6-0.1C39-146,39-145.8,39-145.8z"/>
		<text transform="matrix(0.48 0 0 0.48 -29.5 -139.6004)" class="st2 st5 st6">OPEC F</text>
		<text transform="matrix(0.48 0 0 0.48 -19.4259 -139.6004)" class="st2 st5 st6">u</text>
		<text transform="matrix(0.48 0 0 0.48 -17.755 -139.6004)" class="st2 st5 st6">n</text>
		<text transform="matrix(0.48 0 0 0.48 -16.0872 -139.6004)" class="st2 st5 st6">d for International</text>
		<text transform="matrix(0.48 0 0 0.48 -29.5 -135.9146)" class="st2 st5 st6">Dev</text>
		<text transform="matrix(0.48 0 0 0.48 -24.3063 -135.9146)" class="st2 st5 st6">e</text>
		<text transform="matrix(0.48 0 0 0.48 -22.7706 -135.9146)" class="st2 st5 st6">l</text>
		<text transform="matrix(0.48 0 0 0.48 -22.0764 -135.9146)" class="st2 st5 st6">opment</text>
		<path class="st7" d="M33.9-139.6h0.2c0-0.1,0-0.3,0-0.4v-0.2l0.3,0c0-0.1,0-0.1,0-0.2c-0.1,0-0.2,0-0.3,0v-1c0-0.1,0-0.3,0-0.4
			l-0.1,0l-0.2,0.3l-0.9,1.2l0.1,0.1c0.2,0,0.5,0,0.8,0h0.2v0.1C33.9-139.9,33.9-139.7,33.9-139.6z M33.9-141.4v1h-0.8L33.9-141.4z"
			/>
		<path class="st7" d="M35.4-141.8c-0.5,0-0.7,0.5-0.7,1.1c0,0.6,0.2,1.1,0.7,1.1c0.5,0,0.7-0.5,0.7-1.1
			C36.1-141.3,35.9-141.8,35.4-141.8z M35.4-139.7c-0.3,0-0.5-0.4-0.5-0.9c0-0.5,0.2-0.9,0.5-0.9c0.3,0,0.5,0.4,0.5,0.9
			C35.9-140.2,35.7-139.7,35.4-139.7z"/>
		<path class="st7" d="M36.8-139.7c0-0.1-0.1-0.2-0.2-0.2c-0.1,0-0.2,0.1-0.2,0.2c0,0.1,0.1,0.2,0.2,0.2
			C36.7-139.6,36.8-139.6,36.8-139.7z"/>
		<path class="st7" d="M38-141.8c-0.5,0-0.7,0.5-0.7,1.1c0,0.6,0.2,1.1,0.7,1.1c0.5,0,0.7-0.5,0.7-1.1
			C38.7-141.3,38.4-141.8,38-141.8z M37.9-139.7c-0.3,0-0.5-0.4-0.5-0.9c0-0.5,0.2-0.9,0.5-0.9s0.5,0.4,0.5,0.9
			C38.5-140.2,38.3-139.7,37.9-139.7z"/>
		<path class="st7" d="M39.7-141.8c-0.5,0-0.7,0.5-0.7,1.1c0,0.6,0.2,1.1,0.7,1.1c0.5,0,0.7-0.5,0.7-1.1
			C40.4-141.3,40.2-141.8,39.7-141.8z M39.7-139.7c-0.3,0-0.5-0.4-0.5-0.9c0-0.5,0.2-0.9,0.5-0.9s0.5,0.4,0.5,0.9
			C40.2-140.2,40-139.7,39.7-139.7z"/>
		<text transform="matrix(0.48 0 0 0.48 -29.5 -129.7718)" class="st5 st6">Others</text>
		<text transform="matrix(0.48 0 0 0.48 -25.8142 -123.6291)" class="st2 st5 st6">J</text>
		<text transform="matrix(0.48 0 0 0.48 -24.6133 -123.6291)" class="st2 st5 st6">a</text>
		<text transform="matrix(0.48 0 0 0.48 -23.1391 -123.6291)" class="st2 st5 st6">p</text>
		<text transform="matrix(0.48 0 0 0.48 -21.4685 -123.6291)" class="st2 st5 st6">an</text>
		<path class="st7" d="M34.6-125.7c0,0.1,0,0.2,0,0.2c0.2,0,0.4,0,0.7,0c0.2,0,0.4,0,0.5,0l-0.7,1.3c-0.1,0.2-0.2,0.4-0.3,0.5l0.2,0
			c0-0.1,0.1-0.3,0.2-0.4l0.7-1.3c0.1-0.1,0.1-0.3,0.2-0.3l-0.1-0.1c-0.2,0-0.5,0-0.7,0C35.1-125.7,34.9-125.7,34.6-125.7z"/>
		<path class="st7" d="M36.8-123.7c0-0.1-0.1-0.2-0.2-0.2c-0.1,0-0.2,0.1-0.2,0.2c0,0.1,0.1,0.2,0.2,0.2
			C36.7-123.6,36.8-123.7,36.8-123.7z"/>
		<path class="st7" d="M37.5-123.8c0.2-0.2,0.4-0.4,0.6-0.5c0.3-0.3,0.5-0.5,0.5-0.8c0-0.4-0.3-0.6-0.6-0.6c-0.2,0-0.5,0.1-0.7,0.3
			l0.1,0.2c0.2-0.2,0.4-0.3,0.6-0.3c0.3,0,0.4,0.2,0.4,0.4c0,0.3-0.3,0.7-1.1,1.4l0,0.2c0.2,0,0.4,0,0.7,0c0.3,0,0.5,0,0.7,0
			c0-0.1,0-0.1,0-0.2C38.3-123.8,37.9-123.8,37.5-123.8z"/>
		<path class="st7" d="M39.7-125.8c-0.5,0-0.7,0.5-0.7,1.1c0,0.6,0.2,1.1,0.7,1.1c0.5,0,0.7-0.5,0.7-1.1
			C40.4-125.3,40.2-125.8,39.7-125.8z M39.7-123.8c-0.3,0-0.5-0.4-0.5-0.9c0-0.5,0.2-0.9,0.5-0.9s0.5,0.4,0.5,0.9
			C40.2-124.2,40-123.8,39.7-123.8z"/>
		<text transform="matrix(0.48 0 0 0.48 -25.8142 -117.4863)" class="st2 st5 st6">H</text>
		<text transform="matrix(0.48 0 0 0.48 -23.4892 -117.4863)" class="st2 st5 st6">i</text>
		<text transform="matrix(0.48 0 0 0.48 -22.7953 -117.4863)" class="st2 st5 st6">g</text>
		<text transform="matrix(0.48 0 0 0.48 -21.3578 -117.4863)" class="st2 st5 st6">h Lev</text>
		<text transform="matrix(0.48 0 0 0.48 -14.4963 -117.4863)" class="st2 st5 st6">e</text>
		<text transform="matrix(0.48 0 0 0.48 -12.9606 -117.4863)" class="st2 st5 st6">l</text>
		<text transform="matrix(0.48 0 0 0.48 -12.2664 -117.4863)" class="st2 st5 st6"> T</text>
		<text transform="matrix(0.48 0 0 0.48 -10.0213 -117.4863)" class="st2 st5 st6">e</text>
		<text transform="matrix(0.48 0 0 0.48 -8.4855 -117.4863)" class="st2 st5 st6">c</text>
		<text transform="matrix(0.48 0 0 0.48 -7.0145 -117.4863)" class="st2 st5 st6">hnology F</text>
		<text transform="matrix(0.48 0 0 0.48 5.2958 -117.4863)" class="st2 st5 st6">u</text>
		<text transform="matrix(0.48 0 0 0.48 6.9664 -117.4863)" class="st2 st5 st6">n</text>
		<text transform="matrix(0.48 0 0 0.48 8.6342 -117.4863)" class="st2 st5 st6">d</text>
		<path class="st7" d="M34.7-117.5c0.2,0.1,0.4,0.1,0.5,0.1c0.5,0,0.8-0.3,0.8-0.6c0-0.3-0.2-0.5-0.7-0.5c0.4-0.1,0.6-0.3,0.6-0.6
			c0-0.3-0.3-0.5-0.7-0.5c-0.2,0-0.5,0.1-0.7,0.2l0.1,0.2c0.2-0.1,0.4-0.2,0.6-0.2c0.3,0,0.4,0.1,0.4,0.3c0,0.2-0.2,0.4-0.8,0.5
			l0,0.2c0.5,0,0.8,0.2,0.8,0.4c0,0.2-0.2,0.4-0.6,0.4c-0.2,0-0.4,0-0.6-0.1C34.6-117.7,34.7-117.5,34.7-117.5z"/>
		<path class="st7" d="M36.8-117.6c0-0.1-0.1-0.2-0.2-0.2c-0.1,0-0.2,0.1-0.2,0.2c0,0.1,0.1,0.2,0.2,0.2
			C36.7-117.4,36.8-117.5,36.8-117.6z"/>
		<path class="st7" d="M38-119.6c-0.5,0-0.7,0.5-0.7,1.1c0,0.6,0.2,1.1,0.7,1.1c0.5,0,0.7-0.5,0.7-1.1
			C38.7-119.2,38.4-119.6,38-119.6z M37.9-117.6c-0.3,0-0.5-0.4-0.5-0.9c0-0.5,0.2-0.9,0.5-0.9s0.5,0.4,0.5,0.9
			C38.5-118,38.3-117.6,37.9-117.6z"/>
		<path class="st7" d="M39.7-119.6c-0.5,0-0.7,0.5-0.7,1.1c0,0.6,0.2,1.1,0.7,1.1c0.5,0,0.7-0.5,0.7-1.1
			C40.4-119.2,40.2-119.6,39.7-119.6z M39.7-117.6c-0.3,0-0.5-0.4-0.5-0.9c0-0.5,0.2-0.9,0.5-0.9s0.5,0.4,0.5,0.9
			C40.2-118,40-117.6,39.7-117.6z"/>
		<path class="st7" d="M-16.7-112.8c0.1-0.2,0.2-0.6,0.2-0.8l-0.3,0c0,0.2,0,0.6-0.1,0.8C-16.8-112.8-16.7-112.8-16.7-112.8z"/>
		<text transform="matrix(0.48 0 0 0.48 -25.8142 -111.3441)" class="st2 st5 st6">P</text>
		<text transform="matrix(0.48 0 0 0.48 -24.1774 -111.3441)" class="st2 st5 st6">e</text>
		<text transform="matrix(0.48 0 0 0.48 -22.6417 -111.3441)" class="st2 st5 st6">o</text>
		<text transform="matrix(0.48 0 0 0.48 -20.9739 -111.3441)" class="st2 st5 st6">ple</text>
		<text transform="matrix(0.48 0 0 0.48 -16.2133 -111.3441)" class="st2 st5 st6">s</text>
		<text transform="matrix(0.48 0 0 0.48 -14.9664 -111.3441)" class="st2 st5 st6"> R</text>
		<text transform="matrix(0.48 0 0 0.48 -12.4694 -111.3441)" class="st2 st5 st6">e</text>
		<text transform="matrix(0.48 0 0 0.48 -10.9335 -111.3441)" class="st2 st5 st6">p</text>
		<text transform="matrix(0.48 0 0 0.48 -9.2627 -111.3441)" class="st2 st5 st6">ublic of China</text>
		<path class="st7" d="M35-111.5c0.2-0.2,0.4-0.4,0.6-0.5c0.3-0.3,0.5-0.6,0.5-0.8c0-0.4-0.3-0.6-0.6-0.6c-0.2,0-0.5,0.1-0.7,0.3
			l0.1,0.2c0.2-0.2,0.4-0.3,0.6-0.3c0.3,0,0.4,0.2,0.4,0.4c0,0.3-0.3,0.7-1.1,1.4l0,0.2c0.2,0,0.4,0,0.7,0c0.3,0,0.5,0,0.7,0
			c0-0.1,0-0.1,0-0.2C35.7-111.5,35.3-111.5,35-111.5z"/>
		<path class="st7" d="M36.8-111.5c0-0.1-0.1-0.2-0.2-0.2c-0.1,0-0.2,0.1-0.2,0.2c0,0.1,0.1,0.2,0.2,0.2
			C36.7-111.3,36.8-111.4,36.8-111.5z"/>
		<path class="st7" d="M38.5-113.3l0-0.2c-0.8,0.1-1.2,0.7-1.2,1.4c0,0.5,0.3,0.8,0.7,0.8c0.4,0,0.7-0.3,0.7-0.7
			c0-0.4-0.3-0.7-0.7-0.7c-0.2,0-0.4,0.1-0.6,0.3C37.6-112.8,37.9-113.2,38.5-113.3z M38.5-112c0,0.3-0.2,0.5-0.5,0.5
			c-0.3,0-0.5-0.2-0.5-0.5c0-0.3,0.2-0.5,0.5-0.5C38.3-112.5,38.5-112.3,38.5-112z"/>
		<path class="st7" d="M39.7-113.5c-0.5,0-0.7,0.5-0.7,1.1c0,0.6,0.2,1.1,0.7,1.1c0.5,0,0.7-0.5,0.7-1.1
			C40.4-113,40.2-113.5,39.7-113.5z M39.7-111.5c-0.3,0-0.5-0.4-0.5-0.9c0-0.5,0.2-0.9,0.5-0.9s0.5,0.4,0.5,0.9
			C40.2-111.9,40-111.5,39.7-111.5z"/>
		<text transform="matrix(0.48 0 0 0.48 -25.8142 -105.2011)" class="st2 st5 st6">U</text>
		<text transform="matrix(0.48 0 0 0.48 -23.5816 -105.2011)" class="st2 st5 st6">n</text>
		<text transform="matrix(0.48 0 0 0.48 -21.9138 -105.2011)" class="st2 st5 st6">i</text>
		<text transform="matrix(0.48 0 0 0.48 -21.2196 -105.2011)" class="st2 st5 st6">ted Kingdom</text>
		<path class="st7" d="M35-105.4c0.2-0.2,0.4-0.4,0.6-0.5c0.3-0.3,0.5-0.6,0.5-0.8c0-0.4-0.3-0.6-0.6-0.6c-0.2,0-0.5,0.1-0.7,0.3
			l0.1,0.2c0.2-0.2,0.4-0.3,0.6-0.3c0.3,0,0.4,0.2,0.4,0.4c0,0.3-0.3,0.7-1.1,1.4l0,0.2c0.2,0,0.4,0,0.7,0c0.3,0,0.5,0,0.7,0
			c0-0.1,0-0.1,0-0.2C35.7-105.4,35.3-105.4,35-105.4z"/>
		<path class="st7" d="M36.8-105.3c0-0.1-0.1-0.2-0.2-0.2c-0.1,0-0.2,0.1-0.2,0.2c0,0.1,0.1,0.2,0.2,0.2
			C36.7-105.2,36.8-105.2,36.8-105.3z"/>
		<path class="st7" d="M37.3-105.2c0.2,0.1,0.3,0.1,0.5,0.1c0.5,0,0.8-0.3,0.8-0.7c0-0.4-0.3-0.6-0.9-0.6c-0.1,0-0.1,0-0.2,0l0-0.7
			H38c0.2,0,0.4,0,0.6,0c0-0.1,0-0.2,0-0.2c-0.2,0-0.3,0-0.6,0c-0.3,0-0.4,0-0.6,0l0,0c0,0.1,0,0.2,0,0.3l0,0.3c0,0.1,0,0.2,0,0.3
			l0,0c0.1,0,0.2,0,0.3,0c0.5,0,0.7,0.2,0.7,0.4c0,0.2-0.2,0.4-0.6,0.4c-0.2,0-0.4,0-0.6-0.1C37.2-105.5,37.3-105.2,37.3-105.2z"/>
		<path class="st7" d="M39.7-107.4c-0.5,0-0.7,0.5-0.7,1.1c0,0.6,0.2,1.1,0.7,1.1c0.5,0,0.7-0.5,0.7-1.1
			C40.4-106.9,40.2-107.4,39.7-107.4z M39.7-105.3c-0.3,0-0.5-0.4-0.5-0.9c0-0.5,0.2-0.9,0.5-0.9s0.5,0.4,0.5,0.9
			C40.2-105.8,40-105.3,39.7-105.3z"/>
		<text transform="matrix(0.48 0 0 0.48 -25.8142 -99.0581)" class="st2 st5 st6">U</text>
		<text transform="matrix(0.48 0 0 0.48 -23.5816 -99.0581)" class="st2 st5 st6">r</text>
		<text transform="matrix(0.48 0 0 0.48 -22.571 -99.0581)" class="st2 st5 st6">b</text>
		<text transform="matrix(0.48 0 0 0.48 -20.9003 -99.0581)" class="st2 st5 st6">an Climate Change R</text>
		<text transform="matrix(0.48 0 0 0.48 5.9192 -99.0581)" class="st2 st5 st6">e</text>
		<text transform="matrix(0.48 0 0 0.48 7.4549 -99.0581)" class="st2 st5 st6">s</text>
		<text transform="matrix(0.48 0 0 0.48 8.7017 -99.0581)" class="st2 st5 st6">ilience</text>
		<text transform="matrix(0.48 0 0 0.48 -25.8142 -95.3728)" class="st2 st5 st6">T</text>
		<text transform="matrix(0.48 0 0 0.48 -24.1741 -95.3728)" class="st2 st5 st6">r</text>
		<text transform="matrix(0.48 0 0 0.48 -23.1639 -95.3728)" class="st2 st5 st6">u</text>
		<text transform="matrix(0.48 0 0 0.48 -21.4928 -95.3728)" class="st2 st5 st6">st F</text>
		<text transform="matrix(0.48 0 0 0.48 -17.0917 -95.3728)" class="st2 st5 st6">u</text>
		<text transform="matrix(0.48 0 0 0.48 -15.4206 -95.3728)" class="st2 st5 st6">n</text>
		<text transform="matrix(0.48 0 0 0.48 -13.7531 -95.3728)" class="st2 st5 st6">d</text>
		<path class="st7" d="M35-99.3c0.2-0.2,0.4-0.4,0.6-0.5c0.3-0.3,0.5-0.5,0.5-0.8c0-0.4-0.3-0.6-0.6-0.6c-0.2,0-0.5,0.1-0.7,0.3
			l0.1,0.2c0.2-0.2,0.4-0.3,0.6-0.3c0.3,0,0.4,0.2,0.4,0.4c0,0.3-0.3,0.7-1.1,1.4l0,0.2c0.2,0,0.4,0,0.7,0c0.3,0,0.5,0,0.7,0
			c0-0.1,0-0.1,0-0.2C35.7-99.3,35.3-99.3,35-99.3z"/>
		<path class="st7" d="M36.8-99.2c0-0.1-0.1-0.2-0.2-0.2c-0.1,0-0.2,0.1-0.2,0.2c0,0.1,0.1,0.2,0.2,0.2C36.7-99,36.8-99.1,36.8-99.2
			z"/>
		<path class="st7" d="M38-101.2c-0.5,0-0.7,0.5-0.7,1.1c0,0.6,0.2,1.1,0.7,1.1c0.5,0,0.7-0.5,0.7-1.1
			C38.7-100.7,38.4-101.2,38-101.2z M37.9-99.2c-0.3,0-0.5-0.4-0.5-0.9c0-0.5,0.2-0.9,0.5-0.9s0.5,0.4,0.5,0.9
			C38.5-99.6,38.3-99.2,37.9-99.2z"/>
		<path class="st7" d="M39.7-101.2c-0.5,0-0.7,0.5-0.7,1.1c0,0.6,0.2,1.1,0.7,1.1c0.5,0,0.7-0.5,0.7-1.1
			C40.4-100.7,40.2-101.2,39.7-101.2z M39.7-99.2c-0.3,0-0.5-0.4-0.5-0.9c0-0.5,0.2-0.9,0.5-0.9s0.5,0.4,0.5,0.9
			C40.2-99.6,40-99.2,39.7-99.2z"/>
		<text transform="matrix(0.48 0 0 0.48 -25.8142 -89.2298)" class="st2 st5 st6">S</text>
		<text transform="matrix(0.48 0 0 0.48 -24.2542 -89.2298)" class="st2 st5 st6">w</text>
		<text transform="matrix(0.48 0 0 0.48 -22.1102 -89.2298)" class="st2 st5 st6">i</text>
		<text transform="matrix(0.48 0 0 0.48 -21.4162 -89.2298)" class="st2 st5 st6">tzerland</text>
		<path class="st7" d="M36.1-89.4c-0.1,0-0.3,0-0.4,0h-0.2V-91c0-0.1,0-0.3,0-0.4l0,0l-0.2,0.1c-0.1,0-0.4,0.1-0.6,0.2l0,0.2
			l0.5-0.2v1.3c0,0.1,0,0.3,0,0.4h-0.2c-0.1,0-0.2,0-0.4,0c0,0.1,0,0.1,0,0.2c0.2,0,0.3,0,0.5,0h0.3c0.2,0,0.4,0,0.6,0
			C36.1-89.3,36.1-89.4,36.1-89.4L36.1-89.4z"/>
		<path class="st7" d="M36.8-89.3c0-0.1-0.1-0.2-0.2-0.2c-0.1,0-0.2,0.1-0.2,0.2c0,0.1,0.1,0.2,0.2,0.2
			C36.7-89.2,36.8-89.3,36.8-89.3z"/>
		<path class="st7" d="M37.4-89.3l0,0.2c0.8-0.1,1.2-0.7,1.2-1.4c0-0.5-0.3-0.8-0.7-0.8c-0.4,0-0.7,0.3-0.7,0.7
			c0,0.4,0.3,0.7,0.7,0.7c0.2,0,0.4-0.1,0.6-0.3C38.3-89.8,38-89.5,37.4-89.3L37.4-89.3z M37.4-90.7c0-0.3,0.2-0.5,0.5-0.5
			c0.3,0,0.5,0.2,0.5,0.5c0,0.3-0.2,0.5-0.5,0.5C37.6-90.2,37.4-90.4,37.4-90.7L37.4-90.7z"/>
		<path class="st7" d="M39-89.3c0.2,0.1,0.3,0.1,0.5,0.1c0.5,0,0.8-0.3,0.8-0.7c0-0.4-0.3-0.6-0.9-0.6c-0.1,0-0.1,0-0.2,0l0-0.7h0.4
			c0.2,0,0.4,0,0.6,0c0-0.1,0-0.2,0-0.2c-0.2,0-0.3,0-0.6,0c-0.3,0-0.4,0-0.6,0l0,0c0,0.1,0,0.2,0,0.3l0,0.3c0,0.1,0,0.2,0,0.3l0,0
			c0.1,0,0.2,0,0.3,0c0.5,0,0.7,0.2,0.7,0.4c0,0.2-0.2,0.4-0.6,0.4c-0.2,0-0.4,0-0.6-0.1L39-89.3L39-89.3z"/>
		<text transform="matrix(0.48 0 0 0.48 -25.8142 -83.0868)" class="st2 st5 st6">Clean Ener</text>
		<text transform="matrix(0.48 0 0 0.48 -11.8673 -83.0868)" class="st2 st5 st6">g</text>
		<text transform="matrix(0.48 0 0 0.48 -10.4298 -83.0868)" class="st2 st5 st6">y F</text>
		<text transform="matrix(0.48 0 0 0.48 -6.9069 -83.0868)" class="st2 st5 st6">u</text>
		<text transform="matrix(0.48 0 0 0.48 -5.2361 -83.0868)" class="st2 st5 st6">n</text>
		<text transform="matrix(0.48 0 0 0.48 -3.5683 -83.0868)" class="st2 st5 st6">d</text>
		<path class="st7" d="M36.1-83.3c-0.1,0-0.3,0-0.4,0h-0.2v-1.6c0-0.1,0-0.3,0-0.4l0,0l-0.2,0.1c-0.1,0-0.4,0.1-0.6,0.2l0,0.2
			l0.5-0.2v1.3c0,0.1,0,0.3,0,0.4h-0.2c-0.1,0-0.2,0-0.4,0c0,0.1,0,0.1,0,0.2c0.2,0,0.3,0,0.5,0h0.3c0.2,0,0.4,0,0.6,0
			C36.1-83.2,36.1-83.2,36.1-83.3L36.1-83.3z"/>
		<path class="st7" d="M36.8-83.2c0-0.1-0.1-0.2-0.2-0.2c-0.1,0-0.2,0.1-0.2,0.2c0,0.1,0.1,0.2,0.2,0.2C36.7-83,36.8-83.1,36.8-83.2
			z"/>
		<path class="st7" d="M37.5-83.3c0.2-0.2,0.4-0.4,0.6-0.5c0.3-0.3,0.5-0.5,0.5-0.8c0-0.4-0.3-0.6-0.6-0.6c-0.2,0-0.5,0.1-0.7,0.3
			l0.1,0.2c0.2-0.2,0.4-0.3,0.6-0.3c0.3,0,0.4,0.2,0.4,0.4c0,0.3-0.3,0.7-1.1,1.4l0,0.2c0.2,0,0.4,0,0.7,0c0.3,0,0.5,0,0.7,0
			c0-0.1,0-0.1,0-0.2C38.3-83.3,37.9-83.3,37.5-83.3L37.5-83.3z"/>
		<path class="st7" d="M39-83.1c0.2,0.1,0.3,0.1,0.5,0.1c0.5,0,0.8-0.3,0.8-0.7c0-0.4-0.3-0.6-0.9-0.6c-0.1,0-0.1,0-0.2,0l0-0.7h0.4
			c0.2,0,0.4,0,0.6,0c0-0.1,0-0.2,0-0.2c-0.2,0-0.3,0-0.6,0c-0.3,0-0.4,0-0.6,0l0,0c0,0.1,0,0.2,0,0.3l0,0.3c0,0.1,0,0.2,0,0.3l0,0
			c0.1,0,0.2,0,0.3,0c0.5,0,0.7,0.2,0.7,0.4c0,0.2-0.2,0.4-0.6,0.4c-0.2,0-0.4,0-0.6-0.1L39-83.1L39-83.1z"/>
		<text transform="matrix(0.48 0 0 0.48 -25.8142 -76.9443)" class="st2 st5 st6">F</text>
		<text transform="matrix(0.48 0 0 0.48 -24.3278 -76.9443)" class="st2 st5 st6">r</text>
		<text transform="matrix(0.48 0 0 0.48 -23.3573 -76.9443)" class="st2 st5 st6">a</text>
		<text transform="matrix(0.48 0 0 0.48 -21.8828 -76.9443)" class="st2 st5 st6">n</text>
		<text transform="matrix(0.48 0 0 0.48 -20.2153 -76.9443)" class="st2 st5 st6">ce</text>
		<path class="st7" d="M35.4-79.1c-0.5,0-0.7,0.5-0.7,1.1c0,0.6,0.2,1.1,0.7,1.1c0.5,0,0.7-0.5,0.7-1.1
			C36.1-78.6,35.9-79.1,35.4-79.1L35.4-79.1z M35.4-77.1c-0.3,0-0.5-0.4-0.5-0.9c0-0.5,0.2-0.9,0.5-0.9c0.3,0,0.5,0.4,0.5,0.9
			C35.9-77.5,35.7-77.1,35.4-77.1z"/>
		<path class="st7" d="M36.8-77.1c0-0.1-0.1-0.2-0.2-0.2c-0.1,0-0.2,0.1-0.2,0.2c0,0.1,0.1,0.2,0.2,0.2C36.7-76.9,36.8-77,36.8-77.1
			L36.8-77.1z"/>
		<path class="st7" d="M37.5-77.1c0.2-0.2,0.4-0.4,0.6-0.5c0.3-0.3,0.5-0.5,0.5-0.8c0-0.4-0.3-0.6-0.6-0.6c-0.2,0-0.5,0.1-0.7,0.3
			l0.1,0.2c0.2-0.2,0.4-0.3,0.6-0.3c0.3,0,0.4,0.2,0.4,0.4c0,0.3-0.3,0.7-1.1,1.4l0,0.2c0.2,0,0.4,0,0.7,0c0.3,0,0.5,0,0.7,0
			c0-0.1,0-0.1,0-0.2C38.3-77.1,37.9-77.1,37.5-77.1z"/>
		<path class="st7" d="M39.7-79.1c-0.5,0-0.7,0.5-0.7,1.1c0,0.6,0.2,1.1,0.7,1.1c0.5,0,0.7-0.5,0.7-1.1
			C40.4-78.6,40.2-79.1,39.7-79.1L39.7-79.1z M39.7-77.1c-0.3,0-0.5-0.4-0.5-0.9c0-0.5,0.2-0.9,0.5-0.9s0.5,0.4,0.5,0.9
			C40.2-77.5,40-77.1,39.7-77.1z"/>
		<text transform="matrix(0.48 0 0 0.48 -29.5 -70.777)" class="st2 st8 st6">T</text>
		<text transform="matrix(0.48 0 0 0.48 -27.7586 -70.777)" class="st2 st8 st6">o</text>
		<text transform="matrix(0.48 0 0 0.48 -26.0385 -70.777)" class="st2 st8 st6">t</text>
		<text transform="matrix(0.48 0 0 0.48 -24.8439 -70.777)" class="st2 st8 st6">al</text>
		<path class="st7" d="M32-70.8h0.5c0-0.1,0-0.2,0-0.3v-0.2l0.2,0c0-0.2,0-0.2,0-0.4c-0.1,0-0.1,0-0.2,0v-0.9c0-0.1,0-0.3,0-0.4
			l-0.4,0c0,0-0.1,0.2-0.2,0.3l-0.8,1l0,0.3c0.2,0,0.5,0,0.7,0H32v0.1C32-71.1,32-70.9,32-70.8z M31.5-71.6l0.5-0.7l0,0.7
			C31.9-71.6,31.6-71.6,31.5-71.6z"/>
		<path class="st7" d="M33.7-70.8h0.5c0-0.1,0-0.2,0-0.3v-0.2l0.2,0c0-0.2,0-0.2,0-0.4c-0.1,0-0.1,0-0.2,0v-0.9c0-0.1,0-0.3,0-0.4
			l-0.4,0c0,0-0.1,0.2-0.2,0.3l-0.8,1l0,0.3c0.2,0,0.5,0,0.7,0h0.2v0.1C33.8-71.1,33.8-70.9,33.7-70.8z M33.3-71.6l0.5-0.7l0,0.7
			C33.6-71.6,33.3-71.6,33.3-71.6z"/>
		<path class="st7" d="M35.2-71.2c0.1-0.1,0.3-0.3,0.4-0.4c0.2-0.3,0.4-0.5,0.4-0.8c0-0.4-0.3-0.6-0.7-0.6c-0.3,0-0.5,0.1-0.7,0.2
			l0.1,0.4c0.2-0.1,0.4-0.2,0.5-0.2c0.2,0,0.3,0.1,0.3,0.3c0,0.3-0.3,0.6-1,1.1l0,0.3c0.2,0,0.5,0,0.7,0c0.3,0,0.5,0,0.7,0
			c0-0.2,0-0.3,0-0.4C35.9-71.2,35.5-71.2,35.2-71.2z"/>
		<path class="st7" d="M36.9-71c0-0.2-0.1-0.3-0.3-0.3c-0.2,0-0.3,0.1-0.3,0.3c0,0.1,0.1,0.3,0.3,0.3C36.8-70.7,36.9-70.8,36.9-71
			L36.9-71z"/>
		<path class="st7" d="M38.7-71.2c-0.1,0-0.3,0-0.4,0h-0.1v-1.3c0-0.1,0-0.3,0-0.4l-0.2,0l-0.2,0.1c-0.1,0-0.4,0.1-0.6,0.2l0.1,0.4
			l0.4-0.1v1c0,0.1,0,0.1,0,0.2h-0.1c-0.1,0-0.3,0-0.4,0c0,0.1,0,0.3,0,0.4c0.2,0,0.3,0,0.4,0h0.4c0.2,0,0.4,0,0.6,0
			C38.7-70.8,38.7-71.1,38.7-71.2L38.7-71.2z"/>
		<path class="st7" d="M39-70.8c0.2,0.1,0.4,0.1,0.6,0.1c0.5,0,0.8-0.3,0.8-0.7c0-0.4-0.3-0.6-0.8-0.7c0,0-0.1,0-0.1,0l0-0.4h0.3
			c0.3,0,0.3,0,0.5,0c0-0.1,0-0.3,0-0.4c-0.3,0-0.3,0-0.6,0c-0.3,0-0.4,0-0.6,0l0,0v0.4l0,0.4c0,0.1,0,0.2,0,0.3l0,0
			c0.1,0,0.2,0,0.3,0c0.4,0,0.6,0.1,0.6,0.3c0,0.2-0.2,0.3-0.4,0.3c-0.2,0-0.4,0-0.6-0.1C38.9-71.2,39-70.8,39-70.8z"/>
		<path class="st9" d="M-31.3-159.6h73.7 M-31.3-149.8h73.7 M-31.3-143.7h73.7 M-31.3-133.8h73.7 M-31.3-127.7h73.7 M-31.3-121.5
			h73.7 M-31.3-115.4h73.7 M-31.3-109.3h73.7 M-31.3-103.1h73.7 M-31.3-93.3h73.7 M-31.3-87.1h73.7 M-31.3-81h73.7 M-31.3-74.9h73.7
			 M-31.3-68.7h73.7"/>
	</g>
	<path class="st10" d="M73.1-1c0.1,0,0.1,0,0.2,0v14c0,0-0.1,0-0.1,0C73.1,13,73.1-1,73.1-1z"/>
	<path class="st11" d="M72.1-1c0.3,0,0.7,0,1,0l0,14c-0.2,0-0.5,0-0.7,0C72.4,13,72.1-1,72.1-1z"/>
	<path class="st12" d="M70.6-1c0.5,0,1,0,1.6-0.1l0.3,14c-0.4,0-0.8,0-1.2,0C71.2,13.1,70.6-1,70.6-1z"/>
	<path class="st13" d="M69-0.9c0.5,0,1.1-0.1,1.6-0.1l0.7,14c-0.4,0-0.8,0-1.2,0.1L69-0.9z"/>
	<path class="st14" d="M67-0.7c0.7-0.1,1.3-0.1,2-0.2l1.1,14c-0.5,0-1,0.1-1.5,0.1C68.5,13.3,67-0.7,67-0.7z"/>
	<path class="st15" d="M64.9-0.4c0.7-0.1,1.4-0.2,2.1-0.3l1.6,14c-0.5,0.1-1,0.1-1.5,0.2C67,13.5,64.9-0.4,64.9-0.4z"/>
	<path class="st16" d="M62.6,0c0.8-0.2,1.6-0.3,2.4-0.4L67,13.5c-0.6,0.1-1.2,0.2-1.8,0.3C65.2,13.8,62.6,0,62.6,0z"/>
	<path class="st17" d="M57,1.4c1.8-0.6,3.7-1,5.6-1.4l2.7,13.8c-1.4,0.3-2.8,0.6-4.2,1L57,1.4z"/>
	<path class="st18" d="M30.6,18.6c7-8.1,16.1-14.1,26.4-17.2l4.1,13.4c-7.7,2.3-14.6,6.8-19.8,12.9C41.3,27.7,30.6,18.6,30.6,18.6z"
		/>
	<path class="st19" d="M22.7,79.5c-9.7-20.1-6.6-44,7.9-60.9l10.7,9.1c-10.9,12.7-13.2,30.6-5.9,45.7L22.7,79.5z"/>
	<path class="st20" d="M73.3-1c27.8,0,51.4,20.3,55.5,47.8c4.1,27.5-12.4,53.8-39,62c-26.5,8.2-55.1-4.2-67.2-29.3l12.6-6.1
		c9,18.8,30.5,28.1,50.4,22c19.9-6.1,32.3-25.9,29.2-46.5C111.8,28.2,94.1,13,73.3,13C73.3,13,73.3-1,73.3-1z"/>
</g>
</svg>
