<?xml version="1.0" encoding="utf-8"?>
<!-- Generator: Adobe Illustrator 24.1.0, SVG Export Plug-In . SVG Version: 6.00 Build 0)  -->
<svg version="1.1" id="Layer_1" xmlns:serif="http://www.serif.com/"
	 xmlns="http://www.w3.org/2000/svg" xmlns:xlink="http://www.w3.org/1999/xlink" x="0px" y="0px" viewBox="0 0 150.3 286"
	 style="enable-background:new 0 0 150.3 286;" xml:space="preserve">
<style type="text/css">
	.st0{clip-path:url(#SVGID_2_);}
	.st1{clip-path:url(#SVGID_4_);}
	.st2{fill:#1A1A1A;}
	.st3{font-family:'IdealSans-ExtraLight';}
	.st4{font-size:11.5177px;}
	.st5{font-family:'IdealSans-Light';}
	.st6{font-size:6.3987px;}
	.st7{fill-rule:evenodd;clip-rule:evenodd;fill:#1A1A1A;}
	.st8{font-family:'IdealSans-Semibold';}
	.st9{fill:none;stroke:#1A1A1A;stroke-width:0.16;stroke-miterlimit:2.5595;}
	.st10{fill:#505050;}
	.st11{fill:#404040;}
	.st12{fill:#303030;}
	.st13{fill:#202020;}
	.st14{fill:#BFE48E;}
	.st15{fill:#A1D35F;}
	.st16{fill:#8CC63F;}
</style>
<g>
	<defs>
		<rect id="SVGID_1_" x="-22.7" y="-20" width="192" height="511.9"/>
	</defs>
	<clipPath id="SVGID_2_">
		<use xlink:href="#SVGID_1_"  style="overflow:visible;"/>
	</clipPath>
	<g class="st0">
		<g>
			<defs>
				<rect id="SVGID_3_" x="-22.7" y="-20" width="192" height="511.9"/>
			</defs>
			<clipPath id="SVGID_4_">
				<use xlink:href="#SVGID_3_"  style="overflow:visible;"/>
			</clipPath>
			<g class="st1">
				<g id="Layer-1" serif:id="Layer 1">
				</g>
			</g>
		</g>
	</g>
</g>
<g id="Layer-11" serif:id="Layer 1">
	<g transform="matrix(2.08333,0,0,2.08333,61.4583,478.168)">
		<text transform="matrix(0.48 0 0 0.48 -5.2862 -162.8214)" class="st2 st3 st4">B</text>
		<text transform="matrix(0.48 0 0 0.48 -2.0851 -162.8214)" class="st2 st3 st4">y</text>
		<text transform="matrix(0.48 0 0 0.48 0.3917 -162.8214)" class="st2 st3 st4"> </text>
		<text transform="matrix(0.48 0 0 0.48 1.4863 -162.8214)" class="st2 st3 st4">Sector</text>
		<text transform="matrix(0.48 0 0 0.48 -29.5 -154.6173)" class="st2 st5 st6">Energy</text>
		<path class="st7" d="M31.2-154.7c0.2,0.1,0.4,0.1,0.5,0.1c0.5,0,0.8-0.3,0.8-0.6c0-0.3-0.2-0.5-0.7-0.5c0.4-0.1,0.6-0.3,0.6-0.6
			c0-0.3-0.3-0.5-0.7-0.5c-0.2,0-0.5,0.1-0.7,0.2l0.1,0.2c0.2-0.1,0.4-0.2,0.6-0.2c0.3,0,0.4,0.1,0.4,0.3c0,0.2-0.2,0.4-0.8,0.5
			l0,0.2c0.5,0,0.8,0.2,0.8,0.4c0,0.2-0.2,0.4-0.6,0.4c-0.2,0-0.4,0-0.6-0.1L31.2-154.7z"/>
		<path class="st7" d="M33.2-154.8c0.2-0.2,0.4-0.4,0.6-0.5c0.3-0.3,0.5-0.5,0.5-0.8c0-0.4-0.3-0.6-0.6-0.6c-0.2,0-0.5,0.1-0.7,0.3
			l0.1,0.2c0.2-0.2,0.4-0.3,0.6-0.3c0.3,0,0.4,0.2,0.4,0.4c0,0.3-0.3,0.7-1.1,1.4l0,0.2c0.2,0,0.4,0,0.7,0c0.3,0,0.5,0,0.7,0
			c0-0.1,0-0.1,0-0.2C34-154.8,33.6-154.8,33.2-154.8z"/>
		<path class="st7" d="M35.6-154.6h0.2c0-0.1,0-0.3,0-0.4v-0.2l0.3,0c0-0.1,0-0.1,0-0.2c-0.1,0-0.2,0-0.3,0v-1c0-0.1,0-0.3,0-0.4
			l-0.1,0l-0.2,0.3l-0.9,1.2l0.1,0.1c0.2,0,0.5,0,0.8,0h0.2v0.1C35.6-155,35.6-154.7,35.6-154.6z M35.6-156.4v1h-0.8L35.6-156.4z"/>
		<path class="st7" d="M36.8-154.7c0-0.1-0.1-0.2-0.2-0.2c-0.1,0-0.2,0.1-0.2,0.2c0,0.1,0.1,0.2,0.2,0.2
			C36.7-154.6,36.8-154.6,36.8-154.7z"/>
		<path class="st7" d="M38.7-154.8c-0.1,0-0.3,0-0.4,0h-0.2v-1.6c0-0.1,0-0.3,0-0.4l0,0l-0.2,0.1c-0.1,0-0.4,0.1-0.6,0.2l0,0.2
			l0.5-0.2v1.3c0,0.1,0,0.3,0,0.4h-0.2c-0.1,0-0.2,0-0.4,0c0,0.1,0,0.1,0,0.2c0.2,0,0.3,0,0.5,0h0.3c0.2,0,0.4,0,0.6,0
			C38.7-154.7,38.7-154.8,38.7-154.8L38.7-154.8z"/>
		<path class="st7" d="M39.7-156.8c-0.5,0-0.7,0.5-0.7,1.1c0,0.6,0.2,1.1,0.7,1.1c0.5,0,0.7-0.5,0.7-1.1
			C40.4-156.3,40.2-156.8,39.7-156.8z M39.7-154.8c-0.3,0-0.5-0.4-0.5-0.9c0-0.5,0.2-0.9,0.5-0.9s0.5,0.4,0.5,0.9
			C40.2-155.2,40-154.8,39.7-154.8z"/>
		<text transform="matrix(0.48 0 0 0.48 -29.5 -148.4744)" class="st2 st5 st6">T</text>
		<text transform="matrix(0.48 0 0 0.48 -27.8599 -148.4744)" class="st2 st5 st6">r</text>
		<text transform="matrix(0.48 0 0 0.48 -26.8893 -148.4744)" class="st2 st5 st6">a</text>
		<text transform="matrix(0.48 0 0 0.48 -25.4151 -148.4744)" class="st2 st5 st6">n</text>
		<text transform="matrix(0.48 0 0 0.48 -23.7473 -148.4744)" class="st2 st5 st6">sport</text>
		<path class="st7" d="M32.7-148.7c-0.1,0-0.3,0-0.4,0h-0.2v-1.6c0-0.1,0-0.3,0-0.4l0,0l-0.2,0.1c-0.1,0-0.4,0.1-0.6,0.2l0,0.2
			l0.5-0.2v1.3c0,0.1,0,0.3,0,0.4h-0.2c-0.1,0-0.2,0-0.4,0c0,0.1,0,0.1,0,0.2c0.2,0,0.3,0,0.5,0h0.3c0.2,0,0.4,0,0.6,0
			C32.7-148.5,32.7-148.6,32.7-148.7L32.7-148.7z"/>
		<path class="st7" d="M33.7-150.6c-0.5,0-0.7,0.5-0.7,1.1c0,0.6,0.2,1.1,0.7,1.1c0.5,0,0.7-0.5,0.7-1.1
			C34.4-150.2,34.1-150.6,33.7-150.6z M33.6-148.6c-0.3,0-0.5-0.4-0.5-0.9c0-0.5,0.2-0.9,0.5-0.9c0.3,0,0.5,0.4,0.5,0.9
			C34.2-149,34-148.6,33.6-148.6z"/>
		<path class="st7" d="M36.1-148.7c-0.1,0-0.3,0-0.4,0h-0.2v-1.6c0-0.1,0-0.3,0-0.4l0,0l-0.2,0.1c-0.1,0-0.4,0.1-0.6,0.2l0,0.2
			l0.5-0.2v1.3c0,0.1,0,0.3,0,0.4h-0.2c-0.1,0-0.2,0-0.4,0c0,0.1,0,0.1,0,0.2c0.2,0,0.3,0,0.5,0h0.3c0.2,0,0.4,0,0.6,0
			C36.1-148.5,36.1-148.6,36.1-148.7L36.1-148.7z"/>
		<path class="st7" d="M36.8-148.6c0-0.1-0.1-0.2-0.2-0.2c-0.1,0-0.2,0.1-0.2,0.2c0,0.1,0.1,0.2,0.2,0.2
			C36.7-148.4,36.8-148.5,36.8-148.6z"/>
		<path class="st7" d="M38-150.6c-0.5,0-0.7,0.5-0.7,1.1c0,0.6,0.2,1.1,0.7,1.1c0.5,0,0.7-0.5,0.7-1.1
			C38.7-150.2,38.4-150.6,38-150.6z M37.9-148.6c-0.3,0-0.5-0.4-0.5-0.9c0-0.5,0.2-0.9,0.5-0.9s0.5,0.4,0.5,0.9
			C38.5-149,38.3-148.6,37.9-148.6z"/>
		<path class="st7" d="M39.7-150.6c-0.5,0-0.7,0.5-0.7,1.1c0,0.6,0.2,1.1,0.7,1.1c0.5,0,0.7-0.5,0.7-1.1
			C40.4-150.2,40.2-150.6,39.7-150.6z M39.7-148.6c-0.3,0-0.5-0.4-0.5-0.9c0-0.5,0.2-0.9,0.5-0.9s0.5,0.4,0.5,0.9
			C40.2-149,40-148.6,39.7-148.6z"/>
		<path class="st7" d="M-14.9-141.8c0.3-0.2,0.4-0.4,0.4-0.6c0-0.2-0.1-0.3-0.2-0.3c-0.1,0-0.2,0.1-0.2,0.2l0,0
			c0.1,0,0.1,0.1,0.1,0.2c0,0.1-0.1,0.2-0.2,0.3l0,0C-15-141.9-14.9-141.8-14.9-141.8z"/>
		<path class="st7" d="M10.1-141.8c0.3-0.2,0.4-0.4,0.4-0.6c0-0.2-0.1-0.3-0.2-0.3c-0.1,0-0.2,0.1-0.2,0.2l0,0
			c0.1,0,0.1,0.1,0.1,0.2c0,0.1-0.1,0.2-0.2,0.3l0,0C10-141.9,10.1-141.8,10.1-141.8z"/>
		<text transform="matrix(0.48 0 0 0.48 -29.5 -142.3316)" class="st2 st5 st6">Agricultur</text>
		<text transform="matrix(0.48 0 0 0.48 -16.7045 -142.3316)" class="st2 st5 st6">e</text>
		<text transform="matrix(0.48 0 0 0.48 -14.309 -142.3316)" class="st2 st5 st6"> </text>
		<text transform="matrix(0.48 0 0 0.48 -13.6731 -142.3316)" class="st2 st5 st6">N</text>
		<text transform="matrix(0.48 0 0 0.48 -11.2898 -142.3316)" class="st2 st5 st6">a</text>
		<text transform="matrix(0.48 0 0 0.48 -9.8155 -142.3316)" class="st2 st5 st6">tural Resources</text>
		<text transform="matrix(0.48 0 0 0.48 10.7169 -142.3316)" class="st2 st5 st6"> </text>
		<text transform="matrix(0.48 0 0 0.48 11.3525 -142.3316)" class="st2 st5 st6">and</text>
		<text transform="matrix(0.48 0 0 0.48 -29.5 -138.6461)" class="st2 st5 st6">R</text>
		<text transform="matrix(0.48 0 0 0.48 -27.6234 -138.6461)" class="st2 st5 st6">u</text>
		<text transform="matrix(0.48 0 0 0.48 -25.9525 -138.6461)" class="st2 st5 st6">r</text>
		<text transform="matrix(0.48 0 0 0.48 -24.982 -138.6461)" class="st2 st5 st6">a</text>
		<text transform="matrix(0.48 0 0 0.48 -23.5078 -138.6461)" class="st2 st5 st6">l</text>
		<text transform="matrix(0.48 0 0 0.48 -22.8138 -138.6461)" class="st2 st5 st6"> Dev</text>
		<text transform="matrix(0.48 0 0 0.48 -16.9842 -138.6461)" class="st2 st5 st6">e</text>
		<text transform="matrix(0.48 0 0 0.48 -15.4483 -138.6461)" class="st2 st5 st6">l</text>
		<text transform="matrix(0.48 0 0 0.48 -14.7543 -138.6461)" class="st2 st5 st6">opment</text>
		<path class="st7" d="M34.6-144.4c0,0.1,0,0.2,0,0.2c0.2,0,0.4,0,0.7,0c0.2,0,0.4,0,0.5,0l-0.7,1.3c-0.1,0.2-0.2,0.4-0.3,0.5l0.2,0
			c0-0.1,0.1-0.3,0.2-0.4l0.7-1.3c0.1-0.1,0.1-0.3,0.2-0.3l-0.1-0.1c-0.2,0-0.5,0-0.7,0C35.1-144.4,34.9-144.4,34.6-144.4z"/>
		<path class="st7" d="M36.8-142.5c0-0.1-0.1-0.2-0.2-0.2c-0.1,0-0.2,0.1-0.2,0.2c0,0.1,0.1,0.2,0.2,0.2
			C36.7-142.3,36.8-142.4,36.8-142.5z"/>
		<path class="st7" d="M37.5-142.5c0.2-0.2,0.4-0.4,0.6-0.5c0.3-0.3,0.5-0.5,0.5-0.8c0-0.4-0.3-0.6-0.6-0.6c-0.2,0-0.5,0.1-0.7,0.3
			l0.1,0.2c0.2-0.2,0.4-0.3,0.6-0.3c0.3,0,0.4,0.2,0.4,0.4c0,0.3-0.3,0.7-1.1,1.4l0,0.2c0.2,0,0.4,0,0.7,0c0.3,0,0.5,0,0.7,0
			c0-0.1,0-0.1,0-0.2C38.3-142.5,37.9-142.5,37.5-142.5z"/>
		<path class="st7" d="M39.7-144.5c-0.5,0-0.7,0.5-0.7,1.1c0,0.6,0.2,1.1,0.7,1.1c0.5,0,0.7-0.5,0.7-1.1
			C40.4-144,40.2-144.5,39.7-144.5z M39.7-142.5c-0.3,0-0.5-0.4-0.5-0.9c0-0.5,0.2-0.9,0.5-0.9s0.5,0.4,0.5,0.9
			C40.2-142.9,40-142.5,39.7-142.5z"/>
		<text transform="matrix(0.48 0 0 0.48 -29.5 -132.5031)" class="st5 st6">Others</text>
		<text transform="matrix(0.48 0 0 0.48 -25.8142 -126.3606)" class="st2 st5 st6">W</text>
		<text transform="matrix(0.48 0 0 0.48 -22.9333 -126.3606)" class="st2 st5 st6">a</text>
		<text transform="matrix(0.48 0 0 0.48 -21.4652 -126.3606)" class="st2 st5 st6">t</text>
		<text transform="matrix(0.48 0 0 0.48 -20.4271 -126.3606)" class="st2 st5 st6">er and Other U</text>
		<text transform="matrix(0.48 0 0 0.48 -1.1758 -126.3606)" class="st2 st5 st6">r</text>
		<text transform="matrix(0.48 0 0 0.48 -0.1651 -126.3606)" class="st2 st5 st6">b</text>
		<text transform="matrix(0.48 0 0 0.48 1.5055 -126.3606)" class="st2 st5 st6">an</text>
		<text transform="matrix(0.48 0 0 0.48 -25.8142 -122.6748)" class="st2 st5 st6">Infr</text>
		<text transform="matrix(0.48 0 0 0.48 -21.3119 -122.6748)" class="st2 st5 st6">a</text>
		<text transform="matrix(0.48 0 0 0.48 -19.8374 -122.6748)" class="st2 st5 st6">s</text>
		<text transform="matrix(0.48 0 0 0.48 -18.5906 -122.6748)" class="st2 st5 st6">tructur</text>
		<text transform="matrix(0.48 0 0 0.48 -9.7173 -122.6748)" class="st2 st5 st6">e</text>
		<text transform="matrix(0.48 0 0 0.48 -8.1817 -122.6748)" class="st2 st5 st6"> </text>
		<text transform="matrix(0.48 0 0 0.48 -7.5459 -122.6748)" class="st2 st5 st6">and Services</text>
		<path class="st7" d="M35.6-126.4h0.2c0-0.1,0-0.3,0-0.4v-0.2l0.3,0c0-0.1,0-0.1,0-0.2c-0.1,0-0.2,0-0.3,0v-1c0-0.1,0-0.3,0-0.4
			l-0.1,0l-0.2,0.3l-0.9,1.2l0.1,0.1c0.2,0,0.5,0,0.8,0h0.2v0.1C35.6-126.7,35.6-126.5,35.6-126.4z M35.6-128.1v1h-0.8L35.6-128.1z"
			/>
		<path class="st7" d="M36.8-126.5c0-0.1-0.1-0.2-0.2-0.2c-0.1,0-0.2,0.1-0.2,0.2c0,0.1,0.1,0.2,0.2,0.2
			C36.7-126.3,36.8-126.4,36.8-126.5z"/>
		<path class="st7" d="M37.4-126.5l0,0.2c0.8-0.1,1.2-0.7,1.2-1.4c0-0.5-0.3-0.8-0.7-0.8c-0.4,0-0.7,0.3-0.7,0.7
			c0,0.4,0.3,0.7,0.7,0.7c0.2,0,0.4-0.1,0.6-0.3C38.3-127,38-126.6,37.4-126.5z M37.4-127.8c0-0.3,0.2-0.5,0.5-0.5
			c0.3,0,0.5,0.2,0.5,0.5c0,0.3-0.2,0.5-0.5,0.5C37.6-127.3,37.4-127.5,37.4-127.8z"/>
		<path class="st7" d="M39-126.4c0.2,0.1,0.3,0.1,0.5,0.1c0.5,0,0.8-0.3,0.8-0.7c0-0.4-0.3-0.6-0.9-0.6c-0.1,0-0.1,0-0.2,0l0-0.7
			h0.4c0.2,0,0.4,0,0.6,0c0-0.1,0-0.2,0-0.2c-0.2,0-0.3,0-0.6,0c-0.3,0-0.4,0-0.6,0l0,0c0,0.1,0,0.2,0,0.3l0,0.3c0,0.1,0,0.2,0,0.3
			l0,0c0.1,0,0.2,0,0.3,0c0.5,0,0.7,0.2,0.7,0.4c0,0.2-0.2,0.4-0.6,0.4c-0.2,0-0.4,0-0.6-0.1C39-126.6,39-126.4,39-126.4z"/>
		<text transform="matrix(0.48 0 0 0.48 -25.8142 -116.5321)" class="st2 st5 st6">F</text>
		<text transform="matrix(0.48 0 0 0.48 -24.2725 -116.5321)" class="st2 st5 st6">i</text>
		<text transform="matrix(0.48 0 0 0.48 -23.5783 -116.5321)" class="st2 st5 st6">n</text>
		<text transform="matrix(0.48 0 0 0.48 -21.9105 -116.5321)" class="st2 st5 st6">ance</text>
		<path class="st7" d="M35-116.7c0.2-0.2,0.4-0.4,0.6-0.5c0.3-0.3,0.5-0.6,0.5-0.8c0-0.4-0.3-0.6-0.6-0.6c-0.2,0-0.5,0.1-0.7,0.3
			l0.1,0.2c0.2-0.2,0.4-0.3,0.6-0.3c0.3,0,0.4,0.2,0.4,0.4c0,0.3-0.3,0.7-1.1,1.4l0,0.2c0.2,0,0.4,0,0.7,0c0.3,0,0.5,0,0.7,0
			c0-0.1,0-0.1,0-0.2C35.7-116.7,35.3-116.7,35-116.7z"/>
		<path class="st7" d="M36.8-116.7c0-0.1-0.1-0.2-0.2-0.2c-0.1,0-0.2,0.1-0.2,0.2c0,0.1,0.1,0.2,0.2,0.2
			C36.7-116.5,36.8-116.6,36.8-116.7z"/>
		<path class="st7" d="M38.2-116.5h0.2c0-0.1,0-0.3,0-0.4v-0.2l0.3,0c0-0.1,0-0.1,0-0.2c-0.1,0-0.2,0-0.3,0v-1c0-0.1,0-0.3,0-0.4
			l-0.1,0l-0.2,0.3l-0.9,1.2l0.1,0.1c0.2,0,0.5,0,0.8,0h0.2v0.1C38.2-116.9,38.2-116.6,38.2-116.5z M38.2-118.3v1h-0.8L38.2-118.3z"
			/>
		<path class="st7" d="M39-116.6c0.2,0.1,0.3,0.1,0.5,0.1c0.5,0,0.8-0.3,0.8-0.7c0-0.4-0.3-0.6-0.9-0.6c-0.1,0-0.1,0-0.2,0l0-0.7
			h0.4c0.2,0,0.4,0,0.6,0c0-0.1,0-0.2,0-0.2c-0.2,0-0.3,0-0.6,0c-0.3,0-0.4,0-0.6,0l0,0c0,0.1,0,0.2,0,0.3l0,0.3c0,0.1,0,0.2,0,0.3
			l0,0c0.1,0,0.2,0,0.3,0c0.5,0,0.7,0.2,0.7,0.4c0,0.2-0.2,0.4-0.6,0.4c-0.2,0-0.4,0-0.6-0.1C39-116.8,39-116.6,39-116.6z"/>
		<text transform="matrix(0.48 0 0 0.48 -25.8142 -110.3898)" class="st2 st5 st6">Public Sector Management</text>
		<path class="st7" d="M36.1-110.6c-0.1,0-0.3,0-0.4,0h-0.2v-1.6c0-0.1,0-0.3,0-0.4l0,0l-0.2,0.1c-0.1,0-0.4,0.1-0.6,0.2l0,0.2
			l0.5-0.2v1.3c0,0.1,0,0.3,0,0.4h-0.2c-0.1,0-0.2,0-0.4,0c0,0.1,0,0.1,0,0.2c0.2,0,0.3,0,0.5,0h0.3c0.2,0,0.4,0,0.6,0
			C36.1-110.5,36.1-110.5,36.1-110.6L36.1-110.6z"/>
		<path class="st7" d="M36.8-110.5c0-0.1-0.1-0.2-0.2-0.2c-0.1,0-0.2,0.1-0.2,0.2c0,0.1,0.1,0.2,0.2,0.2
			C36.7-110.3,36.8-110.4,36.8-110.5z"/>
		<path class="st7" d="M37.5-110.6c0.2-0.2,0.4-0.4,0.6-0.5c0.3-0.3,0.5-0.6,0.5-0.8c0-0.4-0.3-0.6-0.6-0.6c-0.2,0-0.5,0.1-0.7,0.3
			l0.1,0.2c0.2-0.2,0.4-0.3,0.6-0.3c0.3,0,0.4,0.2,0.4,0.4c0,0.3-0.3,0.7-1.1,1.4l0,0.2c0.2,0,0.4,0,0.7,0c0.3,0,0.5,0,0.7,0
			c0-0.1,0-0.1,0-0.2C38.3-110.6,37.9-110.6,37.5-110.6z"/>
		<path class="st7" d="M39-110.4c0.2,0.1,0.3,0.1,0.5,0.1c0.5,0,0.8-0.3,0.8-0.7c0-0.4-0.3-0.6-0.9-0.6c-0.1,0-0.1,0-0.2,0l0-0.7
			h0.4c0.2,0,0.4,0,0.6,0c0-0.1,0-0.2,0-0.2c-0.2,0-0.3,0-0.6,0c-0.3,0-0.4,0-0.6,0l0,0c0,0.1,0,0.2,0,0.3l0,0.3c0,0.1,0,0.2,0,0.3
			l0,0c0.1,0,0.2,0,0.3,0c0.5,0,0.7,0.2,0.7,0.4c0,0.2-0.2,0.4-0.6,0.4c-0.2,0-0.4,0-0.6-0.1C39-110.6,39-110.4,39-110.4z"/>
		<text transform="matrix(0.48 0 0 0.48 -25.8142 -104.2468)" class="st2 st5 st6">Health</text>
		<path class="st7" d="M36.1-104.4c-0.1,0-0.3,0-0.4,0h-0.2v-1.6c0-0.1,0-0.3,0-0.4l0,0l-0.2,0.1c-0.1,0-0.4,0.1-0.6,0.2l0,0.2
			l0.5-0.2v1.3c0,0.1,0,0.3,0,0.4h-0.2c-0.1,0-0.2,0-0.4,0c0,0.1,0,0.1,0,0.2c0.2,0,0.3,0,0.5,0h0.3c0.2,0,0.4,0,0.6,0
			C36.1-104.3,36.1-104.4,36.1-104.4L36.1-104.4z"/>
		<path class="st7" d="M36.8-104.4c0-0.1-0.1-0.2-0.2-0.2c-0.1,0-0.2,0.1-0.2,0.2c0,0.1,0.1,0.2,0.2,0.2
			C36.7-104.2,36.8-104.3,36.8-104.4z"/>
		<path class="st7" d="M37.5-104.4c0.2-0.2,0.4-0.4,0.6-0.5c0.3-0.3,0.5-0.6,0.5-0.8c0-0.4-0.3-0.6-0.6-0.6c-0.2,0-0.5,0.1-0.7,0.3
			l0.1,0.2c0.2-0.2,0.4-0.3,0.6-0.3c0.3,0,0.4,0.2,0.4,0.4c0,0.3-0.3,0.7-1.1,1.4l0,0.2c0.2,0,0.4,0,0.7,0c0.3,0,0.5,0,0.7,0
			c0-0.1,0-0.1,0-0.2C38.3-104.4,37.9-104.4,37.5-104.4z"/>
		<path class="st7" d="M39.7-106.4c-0.5,0-0.7,0.5-0.7,1.1c0,0.6,0.2,1.1,0.7,1.1c0.5,0,0.7-0.5,0.7-1.1
			C40.4-105.9,40.2-106.4,39.7-106.4z M39.7-104.4c-0.3,0-0.5-0.4-0.5-0.9c0-0.5,0.2-0.9,0.5-0.9s0.5,0.4,0.5,0.9
			C40.2-104.8,40-104.4,39.7-104.4z"/>
		<text transform="matrix(0.48 0 0 0.48 -29.5 -98.0794)" class="st2 st8 st6">T</text>
		<text transform="matrix(0.48 0 0 0.48 -27.7586 -98.0794)" class="st2 st8 st6">o</text>
		<text transform="matrix(0.48 0 0 0.48 -26.0385 -98.0794)" class="st2 st8 st6">t</text>
		<text transform="matrix(0.48 0 0 0.48 -24.8439 -98.0794)" class="st2 st8 st6">al</text>
		<path class="st7" d="M32-98.1h0.5c0-0.1,0-0.2,0-0.3v-0.2l0.2,0c0-0.2,0-0.2,0-0.4c-0.1,0-0.1,0-0.2,0v-0.9c0-0.1,0-0.3,0-0.4
			l-0.4,0c0,0-0.1,0.2-0.2,0.3l-0.8,1l0,0.3c0.2,0,0.5,0,0.7,0H32v0.1C32-98.4,32-98.2,32-98.1L32-98.1z M31.5-98.9l0.5-0.7l0,0.7
			C31.9-98.9,31.6-98.9,31.5-98.9z"/>
		<path class="st7" d="M33.7-98.1h0.5c0-0.1,0-0.2,0-0.3v-0.2l0.2,0c0-0.2,0-0.2,0-0.4c-0.1,0-0.1,0-0.2,0v-0.9c0-0.1,0-0.3,0-0.4
			l-0.4,0c0,0-0.1,0.2-0.2,0.3l-0.8,1l0,0.3c0.2,0,0.5,0,0.7,0h0.2v0.1C33.8-98.4,33.8-98.2,33.7-98.1L33.7-98.1z M33.3-98.9
			l0.5-0.7l0,0.7C33.6-98.9,33.3-98.9,33.3-98.9z"/>
		<path class="st7" d="M35.2-98.5c0.1-0.1,0.3-0.3,0.4-0.4c0.2-0.3,0.4-0.5,0.4-0.8c0-0.4-0.3-0.6-0.7-0.6c-0.3,0-0.5,0.1-0.7,0.2
			l0.1,0.4c0.2-0.1,0.4-0.2,0.5-0.2c0.2,0,0.3,0.1,0.3,0.3c0,0.3-0.3,0.6-1,1.1l0,0.3c0.2,0,0.5,0,0.7,0c0.3,0,0.5,0,0.7,0
			c0-0.2,0-0.3,0-0.4C35.9-98.5,35.5-98.5,35.2-98.5z"/>
		<path class="st7" d="M36.9-98.3c0-0.2-0.1-0.3-0.3-0.3c-0.2,0-0.3,0.1-0.3,0.3c0,0.1,0.1,0.3,0.3,0.3C36.8-98,36.9-98.1,36.9-98.3
			z"/>
		<path class="st7" d="M38.7-98.5c-0.1,0-0.3,0-0.4,0h-0.1v-1.3c0-0.1,0-0.3,0-0.4l-0.2,0l-0.2,0.1c-0.1,0-0.4,0.1-0.6,0.2l0.1,0.4
			l0.4-0.1v1c0,0.1,0,0.1,0,0.2h-0.1c-0.1,0-0.3,0-0.4,0c0,0.1,0,0.3,0,0.4c0.2,0,0.3,0,0.4,0h0.4c0.2,0,0.4,0,0.6,0
			C38.7-98.1,38.7-98.4,38.7-98.5z"/>
		<path class="st7" d="M39-98.1c0.2,0.1,0.4,0.1,0.6,0.1c0.5,0,0.8-0.3,0.8-0.7c0-0.4-0.3-0.6-0.8-0.7c0,0-0.1,0-0.1,0l0-0.4h0.3
			c0.3,0,0.3,0,0.5,0c0-0.1,0-0.3,0-0.4c-0.3,0-0.3,0-0.6,0c-0.3,0-0.4,0-0.6,0l0,0v0.4l0,0.4c0,0.1,0,0.2,0,0.3l0,0
			c0.1,0,0.2,0,0.3,0c0.4,0,0.6,0.1,0.6,0.3c0,0.2-0.2,0.3-0.4,0.3c-0.2,0-0.4,0-0.6-0.1L39-98.1L39-98.1z"/>
		<path class="st9" d="M-31.3-158.7h73.7 M-31.3-152.5h73.7 M-31.3-146.4h73.7 M-31.3-136.6h73.7 M-31.3-130.4h73.7 M-31.3-120.6
			h73.7 M-31.3-114.4h73.7 M-31.3-108.3h73.7 M-31.3-102.2h73.7 M-31.3-96h73.7"/>
	</g>
	<path class="st10" d="M72.3-0.5c0.3,0,0.6,0,1,0v14.2c-0.2,0-0.5,0-0.7,0L72.3-0.5z"/>
	<path class="st11" d="M71.3-0.5c0.3,0,0.7,0,1,0l0.2,14.2c-0.3,0-0.5,0-0.8,0C71.8,13.7,71.3-0.5,71.3-0.5z"/>
	<path class="st12" d="M69.3-0.4c0.7,0,1.3-0.1,2-0.1l0.5,14.2c-0.5,0-1,0-1.5,0.1L69.3-0.4z"/>
	<path class="st13" d="M65.3,0c1.3-0.2,2.6-0.3,4-0.4l1,14.2c-1,0.1-2,0.2-3,0.3C67.3,14.1,65.3,0,65.3,0z"/>
	<path class="st14" d="M59.6,1.1c1.9-0.5,3.8-0.8,5.7-1.1l2,14.1c-1.4,0.2-2.9,0.5-4.3,0.8L59.6,1.1z"/>
	<path class="st15" d="M16.7,62.4C13.6,34.1,32,7.9,59.6,1.1L63,14.9c-20.7,5.1-34.5,24.8-32.2,46L16.7,62.4z"/>
	<path class="st16" d="M73.3-0.6c30.6,0,55.8,24.3,56.9,54.9c1.1,30.6-22.3,56.6-52.8,58.8c-30.6,2.2-57.4-20.2-60.6-50.7l14.1-1.5
		c2.4,22.9,22.6,39.7,45.5,38c22.9-1.6,40.4-21.1,39.6-44.1c-0.8-23-19.7-41.2-42.7-41.2C73.3,13.7,73.3-0.6,73.3-0.6z"/>
</g>
</svg>
