<?xml version="1.0" encoding="utf-8"?>
<!-- Generator: Adobe Illustrator 24.1.0, SVG Export Plug-In . SVG Version: 6.00 Build 0)  -->
<svg version="1.1" id="Layer_1" xmlns:serif="http://www.serif.com/"
	 xmlns="http://www.w3.org/2000/svg" xmlns:xlink="http://www.w3.org/1999/xlink" x="0px" y="0px" viewBox="0 0 153.6 258.6"
	 style="enable-background:new 0 0 153.6 258.6;" xml:space="preserve">
<style type="text/css">
	.st0{clip-path:url(#SVGID_2_);}
	.st1{clip-path:url(#SVGID_4_);}
	.st2{fill:#1A1A1A;}
	.st3{font-family:'IdealSans-ExtraLight';}
	.st4{font-size:11.5177px;}
	.st5{font-family:'IdealSans-Light';}
	.st6{font-size:6.3987px;}
	.st7{fill-rule:evenodd;clip-rule:evenodd;fill:#1A1A1A;}
	.st8{font-family:'IdealSans-Semibold';}
	.st9{fill:none;stroke:#1A1A1A;stroke-width:0.16;stroke-miterlimit:2.5595;}
	.st10{fill:#404040;}
	.st11{fill:#303030;}
	.st12{fill:#202020;}
	.st13{fill:#009CE4;}
	.st14{fill:#008FD1;}
	.st15{fill:#007DB7;}
</style>
<g>
	<defs>
		<rect id="SVGID_1_" x="-18.9" y="-19.4" width="192" height="511.9"/>
	</defs>
	<clipPath id="SVGID_2_">
		<use xlink:href="#SVGID_1_"  style="overflow:visible;"/>
	</clipPath>
	<g class="st0">
		<g>
			<defs>
				<rect id="SVGID_3_" x="-18.9" y="-19.4" width="192" height="511.9"/>
			</defs>
			<clipPath id="SVGID_4_">
				<use xlink:href="#SVGID_3_"  style="overflow:visible;"/>
			</clipPath>
			<g class="st1">
				<g id="Layer-1" serif:id="Layer 1">
				</g>
			</g>
		</g>
	</g>
</g>
<g id="Layer-11" serif:id="Layer 1">
	<g transform="matrix(2.08333,0,0,2.08333,61.4583,478.168)">
		<text transform="matrix(0.48 0 0 0.48 -2.4428 -162.5543)" class="st2 st3 st4">B</text>
		<text transform="matrix(0.48 0 0 0.48 0.7583 -162.5543)" class="st2 st3 st4">y</text>
		<text transform="matrix(0.48 0 0 0.48 3.235 -162.5543)" class="st2 st3 st4"> </text>
		<text transform="matrix(0.48 0 0 0.48 4.3298 -162.5543)" class="st2 st3 st4">DMC</text>
		<text transform="matrix(0.48 0 0 0.48 -27.6573 -154.3502)" class="st2 st5 st6">U</text>
		<text transform="matrix(0.48 0 0 0.48 -25.4369 -154.3502)" class="st2 st5 st6">z</text>
		<text transform="matrix(0.48 0 0 0.48 -24.0606 -154.3502)" class="st2 st5 st6">b</text>
		<text transform="matrix(0.48 0 0 0.48 -22.39 -154.3502)" class="st2 st5 st6">ekistan</text>
		<path class="st7" d="M33.4-154.5c0.2-0.2,0.4-0.4,0.6-0.5c0.3-0.3,0.5-0.5,0.5-0.8c0-0.4-0.3-0.6-0.6-0.6c-0.2,0-0.5,0.1-0.7,0.3
			l0.1,0.2c0.2-0.2,0.4-0.3,0.6-0.3c0.3,0,0.4,0.2,0.4,0.4c0,0.3-0.3,0.7-1.1,1.4l0,0.2c0.2,0,0.4,0,0.7,0c0.3,0,0.5,0,0.7,0
			c0-0.1,0-0.1,0-0.2C34.1-154.5,33.7-154.5,33.4-154.5z"/>
		<path class="st7" d="M35.7-154.4H36c0-0.1,0-0.3,0-0.4v-0.2l0.3,0c0-0.1,0-0.1,0-0.2c-0.1,0-0.2,0-0.3,0v-1c0-0.1,0-0.3,0-0.4
			l-0.1,0l-0.2,0.3l-0.9,1.2l0.1,0.1c0.2,0,0.5,0,0.8,0h0.2v0.1C35.7-154.7,35.7-154.5,35.7-154.4z M35.7-156.1v1H35L35.7-156.1z"/>
		<path class="st7" d="M36.5-154.4c0.2,0.1,0.4,0.1,0.5,0.1c0.5,0,0.8-0.3,0.8-0.6c0-0.3-0.2-0.5-0.7-0.5c0.4-0.1,0.6-0.3,0.6-0.6
			c0-0.3-0.3-0.5-0.7-0.5c-0.2,0-0.5,0.1-0.7,0.2l0.1,0.2c0.2-0.1,0.4-0.2,0.6-0.2c0.3,0,0.4,0.1,0.4,0.3c0,0.2-0.2,0.4-0.8,0.5
			l0,0.2c0.5,0,0.8,0.2,0.8,0.4c0,0.2-0.2,0.4-0.6,0.4c-0.2,0-0.4,0-0.6-0.1L36.5-154.4z"/>
		<path class="st7" d="M38.7-154.5c0-0.1-0.1-0.2-0.2-0.2c-0.1,0-0.2,0.1-0.2,0.2c0,0.1,0.1,0.2,0.2,0.2
			C38.6-154.3,38.7-154.4,38.7-154.5z"/>
		<path class="st7" d="M39.4-154.5c0.2-0.2,0.4-0.4,0.6-0.5c0.3-0.3,0.5-0.5,0.5-0.8c0-0.4-0.3-0.6-0.6-0.6c-0.2,0-0.5,0.1-0.7,0.3
			l0.1,0.2c0.2-0.2,0.4-0.3,0.6-0.3c0.3,0,0.4,0.2,0.4,0.4c0,0.3-0.3,0.7-1.1,1.4l0,0.2c0.2,0,0.4,0,0.7,0c0.3,0,0.5,0,0.7,0
			c0-0.1,0-0.1,0-0.2C40.2-154.5,39.7-154.5,39.4-154.5z"/>
		<path class="st7" d="M41.5-156.5c-0.5,0-0.7,0.5-0.7,1.1c0,0.6,0.2,1.1,0.7,1.1c0.5,0,0.7-0.5,0.7-1.1
			C42.2-156,42-156.5,41.5-156.5z M41.5-154.5c-0.3,0-0.5-0.4-0.5-0.9c0-0.5,0.2-0.9,0.5-0.9s0.5,0.4,0.5,0.9
			C42-154.9,41.8-154.5,41.5-154.5z"/>
		<text transform="matrix(0.48 0 0 0.48 -27.6573 -148.2072)" class="st2 st5 st6">P</text>
		<text transform="matrix(0.48 0 0 0.48 -26.0294 -148.2072)" class="st2 st5 st6">a</text>
		<text transform="matrix(0.48 0 0 0.48 -24.5551 -148.2072)" class="st2 st5 st6">k</text>
		<text transform="matrix(0.48 0 0 0.48 -23.1393 -148.2072)" class="st2 st5 st6">istan</text>
		<path class="st7" d="M34.9-148.3l0,0.2c0.8-0.1,1.2-0.7,1.2-1.4c0-0.5-0.3-0.8-0.7-0.8c-0.4,0-0.7,0.3-0.7,0.7
			c0,0.4,0.3,0.7,0.7,0.7c0.2,0,0.4-0.1,0.6-0.3C35.9-148.8,35.5-148.4,34.9-148.3z M35-149.6c0-0.3,0.2-0.5,0.5-0.5
			c0.3,0,0.5,0.2,0.5,0.5c0,0.3-0.2,0.5-0.5,0.5C35.2-149.2,35-149.4,35-149.6z"/>
		<path class="st7" d="M36.8-148.4c0.2-0.2,0.4-0.4,0.6-0.5c0.3-0.3,0.5-0.5,0.5-0.8c0-0.4-0.3-0.6-0.6-0.6c-0.2,0-0.5,0.1-0.7,0.3
			l0.1,0.2c0.2-0.2,0.4-0.3,0.6-0.3c0.3,0,0.4,0.2,0.4,0.4c0,0.3-0.3,0.7-1.1,1.4l0,0.2c0.2,0,0.4,0,0.7,0c0.3,0,0.5,0,0.7,0
			c0-0.1,0-0.1,0-0.2C37.6-148.4,37.2-148.4,36.8-148.4z"/>
		<path class="st7" d="M38.7-148.3c0-0.1-0.1-0.2-0.2-0.2c-0.1,0-0.2,0.1-0.2,0.2c0,0.1,0.1,0.2,0.2,0.2
			C38.6-148.2,38.7-148.2,38.7-148.3z"/>
		<path class="st7" d="M39.1-148.3c0.2,0.1,0.4,0.1,0.5,0.1c0.5,0,0.8-0.3,0.8-0.6c0-0.3-0.2-0.5-0.7-0.5c0.4-0.1,0.6-0.3,0.6-0.6
			c0-0.3-0.3-0.5-0.7-0.5c-0.2,0-0.5,0.1-0.7,0.2l0.1,0.2c0.2-0.1,0.4-0.2,0.6-0.2c0.3,0,0.4,0.1,0.4,0.3c0,0.2-0.2,0.4-0.8,0.5
			l0,0.2c0.5,0,0.8,0.2,0.8,0.4c0,0.2-0.2,0.4-0.6,0.4c-0.2,0-0.4,0-0.6-0.1C39.1-148.5,39.1-148.3,39.1-148.3z"/>
		<path class="st7" d="M40.8-148.2c0.2,0.1,0.3,0.1,0.5,0.1c0.5,0,0.8-0.3,0.8-0.7c0-0.4-0.3-0.6-0.9-0.6c-0.1,0-0.1,0-0.2,0l0-0.7
			h0.4c0.2,0,0.4,0,0.6,0c0-0.1,0-0.2,0-0.2c-0.2,0-0.3,0-0.6,0c-0.3,0-0.4,0-0.6,0l0,0c0,0.1,0,0.2,0,0.3l0,0.3c0,0.1,0,0.2,0,0.3
			l0,0c0.1,0,0.2,0,0.3,0c0.5,0,0.7,0.2,0.7,0.4c0,0.2-0.2,0.4-0.6,0.4c-0.2,0-0.4,0-0.6-0.1C40.8-148.5,40.8-148.2,40.8-148.2z"/>
		<text transform="matrix(0.48 0 0 0.48 -27.6573 -142.0645)" class="st2 st5 st6">Georgia</text>
		<path class="st7" d="M36.1-144l0-0.2c-0.8,0.1-1.2,0.7-1.2,1.4c0,0.5,0.3,0.8,0.7,0.8c0.4,0,0.7-0.3,0.7-0.7
			c0-0.4-0.3-0.7-0.7-0.7c-0.2,0-0.4,0.1-0.6,0.3C35.1-143.6,35.4-143.9,36.1-144z M36-142.7c0,0.3-0.2,0.5-0.5,0.5
			c-0.3,0-0.5-0.2-0.5-0.5c0-0.3,0.2-0.5,0.5-0.5C35.8-143.2,36-143,36-142.7z"/>
		<path class="st7" d="M37.2-144.2c-0.5,0-0.7,0.5-0.7,1.1c0,0.6,0.2,1.1,0.7,1.1c0.5,0,0.7-0.5,0.7-1.1
			C37.9-143.7,37.7-144.2,37.2-144.2z M37.2-142.2c-0.3,0-0.5-0.4-0.5-0.9c0-0.5,0.2-0.9,0.5-0.9s0.5,0.4,0.5,0.9
			C37.7-142.6,37.5-142.2,37.2-142.2z"/>
		<path class="st7" d="M38.7-142.2c0-0.1-0.1-0.2-0.2-0.2c-0.1,0-0.2,0.1-0.2,0.2c0,0.1,0.1,0.2,0.2,0.2
			C38.6-142,38.7-142.1,38.7-142.2z"/>
		<path class="st7" d="M39.8-144.2c-0.5,0-0.7,0.5-0.7,1.1c0,0.6,0.2,1.1,0.7,1.1c0.5,0,0.7-0.5,0.7-1.1
			C40.5-143.7,40.3-144.2,39.8-144.2z M39.8-142.2c-0.3,0-0.5-0.4-0.5-0.9c0-0.5,0.2-0.9,0.5-0.9s0.5,0.4,0.5,0.9
			C40.3-142.6,40.1-142.2,39.8-142.2z"/>
		<path class="st7" d="M41.5-144.2c-0.5,0-0.7,0.5-0.7,1.1c0,0.6,0.2,1.1,0.7,1.1c0.5,0,0.7-0.5,0.7-1.1
			C42.2-143.7,42-144.2,41.5-144.2z M41.5-142.2c-0.3,0-0.5-0.4-0.5-0.9c0-0.5,0.2-0.9,0.5-0.9s0.5,0.4,0.5,0.9
			C42-142.6,41.8-142.2,41.5-142.2z"/>
		<text transform="matrix(0.48 0 0 0.48 -27.6573 -135.9217)" class="st5 st6">Others</text>
		<text transform="matrix(0.48 0 0 0.48 -23.9715 -129.779)" class="st2 st5 st6">T</text>
		<text transform="matrix(0.48 0 0 0.48 -22.3562 -129.779)" class="st2 st5 st6">a</text>
		<text transform="matrix(0.48 0 0 0.48 -20.882 -129.779)" class="st2 st5 st6">j</text>
		<text transform="matrix(0.48 0 0 0.48 -20.1878 -129.779)" class="st2 st5 st6">ikistan</text>
		<path class="st7" d="M35.7-129.8H36c0-0.1,0-0.3,0-0.4v-0.2l0.3,0c0-0.1,0-0.1,0-0.2c-0.1,0-0.2,0-0.3,0v-1c0-0.1,0-0.3,0-0.4
			l-0.1,0l-0.2,0.3l-0.9,1.2l0.1,0.1c0.2,0,0.5,0,0.8,0h0.2v0.1C35.7-130.1,35.7-129.9,35.7-129.8z M35.7-131.6v1H35L35.7-131.6z"/>
		<path class="st7" d="M37.2-131.9c-0.5,0-0.7,0.5-0.7,1.1c0,0.6,0.2,1.1,0.7,1.1c0.5,0,0.7-0.5,0.7-1.1
			C37.9-131.5,37.7-131.9,37.2-131.9z M37.2-129.9c-0.3,0-0.5-0.4-0.5-0.9c0-0.5,0.2-0.9,0.5-0.9s0.5,0.4,0.5,0.9
			C37.7-130.3,37.5-129.9,37.2-129.9z"/>
		<path class="st7" d="M38.7-129.9c0-0.1-0.1-0.2-0.2-0.2c-0.1,0-0.2,0.1-0.2,0.2c0,0.1,0.1,0.2,0.2,0.2
			C38.6-129.7,38.7-129.8,38.7-129.9z"/>
		<path class="st7" d="M39.8-131.9c-0.5,0-0.7,0.5-0.7,1.1c0,0.6,0.2,1.1,0.7,1.1c0.5,0,0.7-0.5,0.7-1.1
			C40.5-131.5,40.3-131.9,39.8-131.9z M39.8-129.9c-0.3,0-0.5-0.4-0.5-0.9c0-0.5,0.2-0.9,0.5-0.9s0.5,0.4,0.5,0.9
			C40.3-130.3,40.1-129.9,39.8-129.9z"/>
		<path class="st7" d="M41.5-131.9c-0.5,0-0.7,0.5-0.7,1.1c0,0.6,0.2,1.1,0.7,1.1c0.5,0,0.7-0.5,0.7-1.1
			C42.2-131.5,42-131.9,41.5-131.9z M41.5-129.9c-0.3,0-0.5-0.4-0.5-0.9c0-0.5,0.2-0.9,0.5-0.9s0.5,0.4,0.5,0.9
			C42-130.3,41.8-129.9,41.5-129.9z"/>
		<text transform="matrix(0.48 0 0 0.48 -23.9715 -123.6362)" class="st2 st5 st6">R</text>
		<text transform="matrix(0.48 0 0 0.48 -22.1104 -123.6362)" class="st2 st5 st6">e</text>
		<text transform="matrix(0.48 0 0 0.48 -20.5839 -123.6362)" class="st2 st5 st6">g</text>
		<text transform="matrix(0.48 0 0 0.48 -19.1467 -123.6362)" class="st2 st5 st6">ional</text>
		<path class="st7" d="M37.8-125.6l0-0.2c-0.8,0.1-1.2,0.7-1.2,1.4c0,0.5,0.3,0.8,0.7,0.8c0.4,0,0.7-0.3,0.7-0.7
			c0-0.4-0.3-0.7-0.7-0.7c-0.2,0-0.4,0.1-0.6,0.3C36.8-125.1,37.2-125.5,37.8-125.6z M37.7-124.3c0,0.3-0.2,0.5-0.5,0.5
			c-0.3,0-0.5-0.2-0.5-0.5c0-0.3,0.2-0.5,0.5-0.5C37.5-124.8,37.7-124.6,37.7-124.3z"/>
		<path class="st7" d="M38.7-123.8c0-0.1-0.1-0.2-0.2-0.2c-0.1,0-0.2,0.1-0.2,0.2c0,0.1,0.1,0.2,0.2,0.2
			C38.6-123.6,38.7-123.7,38.7-123.8z"/>
		<path class="st7" d="M40.5-123.8c-0.1,0-0.3,0-0.4,0H40v-1.6c0-0.1,0-0.3,0-0.4l0,0l-0.2,0.1c-0.1,0-0.4,0.1-0.6,0.2l0,0.2
			l0.5-0.2v1.3c0,0.1,0,0.3,0,0.4h-0.2c-0.1,0-0.2,0-0.4,0c0,0.1,0,0.1,0,0.2c0.2,0,0.3,0,0.5,0H40c0.2,0,0.4,0,0.6,0
			C40.5-123.7,40.5-123.8,40.5-123.8L40.5-123.8z"/>
		<path class="st7" d="M41.5-125.8c-0.5,0-0.7,0.5-0.7,1.1c0,0.6,0.2,1.1,0.7,1.1c0.5,0,0.7-0.5,0.7-1.1
			C42.2-125.3,42-125.8,41.5-125.8z M41.5-123.8c-0.3,0-0.5-0.4-0.5-0.9c0-0.5,0.2-0.9,0.5-0.9s0.5,0.4,0.5,0.9
			C42-124.2,41.8-123.8,41.5-123.8z"/>
		<text transform="matrix(0.48 0 0 0.48 -23.9715 -117.4937)" class="st2 st5 st6">Azerbaijan</text>
		<path class="st7" d="M37.2-119.7c-0.5,0-0.7,0.5-0.7,1.1c0,0.6,0.2,1.1,0.7,1.1c0.5,0,0.7-0.5,0.7-1.1
			C37.9-119.2,37.7-119.7,37.2-119.7z M37.2-117.6c-0.3,0-0.5-0.4-0.5-0.9c0-0.5,0.2-0.9,0.5-0.9s0.5,0.4,0.5,0.9
			C37.7-118,37.5-117.6,37.2-117.6z"/>
		<path class="st7" d="M38.7-117.6c0-0.1-0.1-0.2-0.2-0.2c-0.1,0-0.2,0.1-0.2,0.2c0,0.1,0.1,0.2,0.2,0.2
			C38.6-117.4,38.7-117.5,38.7-117.6z"/>
		<path class="st7" d="M39.1-117.5c0.2,0.1,0.3,0.1,0.5,0.1c0.5,0,0.8-0.3,0.8-0.7c0-0.4-0.3-0.6-0.9-0.6c-0.1,0-0.1,0-0.2,0l0-0.7
			h0.4c0.2,0,0.4,0,0.6,0c0-0.1,0-0.2,0-0.2c-0.2,0-0.3,0-0.6,0c-0.3,0-0.4,0-0.6,0l0,0c0,0.1,0,0.2,0,0.3l0,0.3c0,0.1,0,0.2,0,0.3
			l0,0c0.1,0,0.2,0,0.3,0c0.5,0,0.7,0.2,0.7,0.4c0,0.2-0.2,0.4-0.6,0.4c-0.2,0-0.4,0-0.6-0.1C39.1-117.7,39.1-117.5,39.1-117.5z"/>
		<path class="st7" d="M41.5-119.7c-0.5,0-0.7,0.5-0.7,1.1c0,0.6,0.2,1.1,0.7,1.1c0.5,0,0.7-0.5,0.7-1.1
			C42.2-119.2,42-119.7,41.5-119.7z M41.5-117.6c-0.3,0-0.5-0.4-0.5-0.9c0-0.5,0.2-0.9,0.5-0.9s0.5,0.4,0.5,0.9
			C42-118,41.8-117.6,41.5-117.6z"/>
		<text transform="matrix(0.48 0 0 0.48 -27.6573 -111.3264)" class="st2 st8 st6">T</text>
		<text transform="matrix(0.48 0 0 0.48 -25.9159 -111.3264)" class="st2 st8 st6">o</text>
		<text transform="matrix(0.48 0 0 0.48 -24.1958 -111.3264)" class="st2 st8 st6">t</text>
		<text transform="matrix(0.48 0 0 0.48 -23.0012 -111.3264)" class="st2 st8 st6">al</text>
		<path class="st7" d="M33.9-111.3h0.5c0-0.1,0-0.2,0-0.3v-0.2l0.2,0c0-0.2,0-0.2,0-0.4c-0.1,0-0.1,0-0.2,0v-0.9c0-0.1,0-0.3,0-0.4
			l-0.4,0c0,0-0.1,0.2-0.2,0.3l-0.8,1l0,0.3c0.2,0,0.5,0,0.7,0h0.2v0.1C33.9-111.6,33.9-111.4,33.9-111.3L33.9-111.3z M33.4-112.2
			l0.5-0.7l0,0.7C33.7-112.2,33.4-112.2,33.4-112.2z"/>
		<path class="st7" d="M35.6-111.3h0.5c0-0.1,0-0.2,0-0.3v-0.2l0.2,0c0-0.2,0-0.2,0-0.4c-0.1,0-0.1,0-0.2,0v-0.9c0-0.1,0-0.3,0-0.4
			l-0.4,0c0,0-0.1,0.2-0.2,0.3l-0.8,1l0,0.3c0.2,0,0.5,0,0.7,0h0.2v0.1C35.6-111.6,35.6-111.4,35.6-111.3L35.6-111.3z M35.1-112.2
			l0.5-0.7l0,0.7C35.5-112.2,35.1-112.2,35.1-112.2z"/>
		<path class="st7" d="M37.1-111.7c0.1-0.1,0.3-0.3,0.4-0.4c0.2-0.3,0.4-0.5,0.4-0.8c0-0.4-0.3-0.6-0.7-0.6c-0.3,0-0.5,0.1-0.7,0.2
			l0.1,0.4c0.2-0.1,0.4-0.2,0.5-0.2c0.2,0,0.3,0.1,0.3,0.3c0,0.3-0.3,0.6-1,1.1l0,0.3c0.2,0,0.5,0,0.7,0c0.3,0,0.5,0,0.7,0
			c0-0.2,0-0.3,0-0.4C37.7-111.7,37.4-111.7,37.1-111.7z"/>
		<path class="st7" d="M38.8-111.5c0-0.2-0.1-0.3-0.3-0.3c-0.2,0-0.3,0.1-0.3,0.3c0,0.1,0.1,0.3,0.3,0.3
			C38.7-111.3,38.8-111.4,38.8-111.5z"/>
		<path class="st7" d="M40.5-111.7c-0.1,0-0.3,0-0.4,0h-0.1v-1.3c0-0.1,0-0.3,0-0.4l-0.2,0l-0.2,0.1c-0.1,0-0.4,0.1-0.6,0.2l0.1,0.4
			l0.4-0.1v1c0,0.1,0,0.1,0,0.2h-0.1c-0.1,0-0.3,0-0.4,0c0,0.1,0,0.3,0,0.4c0.2,0,0.3,0,0.4,0H40c0.2,0,0.4,0,0.6,0
			C40.5-111.4,40.5-111.7,40.5-111.7z"/>
		<path class="st7" d="M40.8-111.4c0.2,0.1,0.4,0.1,0.6,0.1c0.5,0,0.8-0.3,0.8-0.7c0-0.4-0.3-0.6-0.8-0.7c0,0-0.1,0-0.1,0l0-0.4h0.3
			c0.3,0,0.3,0,0.5,0c0-0.1,0-0.3,0-0.4c-0.3,0-0.3,0-0.6,0c-0.3,0-0.4,0-0.6,0l0,0v0.4l0,0.4c0,0.1,0,0.2,0,0.3l0,0
			c0.1,0,0.2,0,0.3,0c0.4,0,0.6,0.1,0.6,0.3c0,0.2-0.2,0.3-0.4,0.3c-0.2,0-0.4,0-0.6-0.1L40.8-111.4L40.8-111.4z"/>
		<path class="st9" d="M-29.5-158.4h73.7 M-29.5-152.3h73.7 M-29.5-146.1h73.7 M-29.5-140h73.7 M-29.5-133.8h73.7 M-29.5-127.7h73.7
			 M-29.5-121.5h73.7 M-29.5-115.4h73.7 M-29.5-109.3h73.7"/>
	</g>
	<path class="st10" d="M76.7,0c0.1,0,0.3,0,0.4,0v14.2c-0.1,0-0.2,0-0.3,0C76.8,14.2,76.7,0,76.7,0z"/>
	<path class="st11" d="M71.8,0.3C73.4,0.1,75.1,0,76.7,0l0.1,14.2c-1.2,0-2.5,0.1-3.7,0.2C73.1,14.4,71.8,0.3,71.8,0.3z"/>
	<path class="st12" d="M42.1,12C50.7,5.4,61,1.3,71.8,0.3l1.3,14.2c-8.1,0.8-15.8,3.8-22.2,8.8C50.9,23.3,42.1,12,42.1,12z"/>
	<path class="st13" d="M20.3,53.7c0.9-16.4,8.9-31.6,21.8-41.7l8.7,11.2c-9.7,7.6-15.7,19-16.4,31.3C34.5,54.5,20.3,53.7,20.3,53.7z
		"/>
	<path class="st14" d="M59.5,111c-24.6-8-40.7-31.5-39.2-57.3l14.2,0.8c-1.1,19.3,11,37,29.4,43C63.9,97.5,59.5,111,59.5,111z"/>
	<path class="st15" d="M77.1,0c22.5,0,42.9,13.2,52,33.8c9.1,20.5,5.3,44.5-9.7,61.2s-38.5,23-59.9,16l4.4-13.5
		c16,5.2,33.6,0.5,44.9-12C120.1,73,123,55,116.1,39.6c-6.9-15.4-22.1-25.3-39-25.3C77.1,14.2,77.1,0,77.1,0z"/>
</g>
</svg>
