<?xml version="1.0" encoding="utf-8"?>
<!-- Generator: Adobe Illustrator 24.1.0, SVG Export Plug-In . SVG Version: 6.00 Build 0)  -->
<svg version="1.1" id="Layer_1" xmlns:serif="http://www.serif.com/"
	 xmlns="http://www.w3.org/2000/svg" xmlns:xlink="http://www.w3.org/1999/xlink" x="0px" y="0px" viewBox="0 0 153.6 382.6"
	 style="enable-background:new 0 0 153.6 382.6;" xml:space="preserve">
<style type="text/css">
	.st0{clip-path:url(#SVGID_2_);}
	.st1{clip-path:url(#SVGID_4_);}
	.st2{fill:#1A1A1A;}
	.st3{font-family:'IdealSans-ExtraLight';}
	.st4{font-size:11.5177px;}
	.st5{font-family:'IdealSans-Light';}
	.st6{font-size:6.3987px;}
	.st7{fill-rule:evenodd;clip-rule:evenodd;fill:#1A1A1A;}
	.st8{font-family:'IdealSans-Semibold';}
	.st9{fill:none;stroke:#1A1A1A;stroke-width:0.16;stroke-miterlimit:2.5595;}
	.st10{fill:#E9522B;}
	.st11{fill:#C0C0C0;}
	.st12{fill:#B0B0B0;}
	.st13{fill:#A0A0A0;}
	.st14{fill:#909090;}
	.st15{fill:#808080;}
	.st16{fill:#707070;}
	.st17{fill:#606060;}
	.st18{fill:#505050;}
	.st19{fill:#404040;}
	.st20{fill:#303030;}
	.st21{fill:#202020;}
	.st22{fill:#F8947B;}
	.st23{fill:#F0704F;}
</style>
<g>
	<defs>
		<rect id="SVGID_1_" x="-18.9" y="-19.4" width="192" height="511.9"/>
	</defs>
	<clipPath id="SVGID_2_">
		<use xlink:href="#SVGID_1_"  style="overflow:visible;"/>
	</clipPath>
	<g class="st0">
		<g>
			<defs>
				<rect id="SVGID_3_" x="-18.9" y="-19.4" width="192" height="511.9"/>
			</defs>
			<clipPath id="SVGID_4_">
				<use xlink:href="#SVGID_3_"  style="overflow:visible;"/>
			</clipPath>
			<g class="st1">
				<g id="Layer-1" serif:id="Layer 1">
				</g>
			</g>
		</g>
	</g>
</g>
<g id="Layer-11" serif:id="Layer 1">
	<g transform="matrix(2.08333,0,0,2.08333,61.4583,478.168)">
		<text transform="matrix(0.48 0 0 0.48 -4.0046 -162.5543)" class="st2 st3 st4">B</text>
		<text transform="matrix(0.48 0 0 0.48 -0.8035 -162.5543)" class="st2 st3 st4">y</text>
		<text transform="matrix(0.48 0 0 0.48 1.6733 -162.5543)" class="st2 st3 st4"> </text>
		<text transform="matrix(0.48 0 0 0.48 2.7679 -162.5543)" class="st2 st3 st4">Sour</text>
		<text transform="matrix(0.48 0 0 0.48 13.3218 -162.5543)" class="st2 st3 st4">c</text>
		<text transform="matrix(0.48 0 0 0.48 15.9534 -162.5543)" class="st2 st3 st4">e</text>
		<text transform="matrix(0.48 0 0 0.48 -27.6573 -154.3502)" class="st2 st5 st6">Germany</text>
		<path class="st7" d="M34.5-154.6c-0.1,0-0.3,0-0.4,0h-0.2v-1.6c0-0.1,0-0.3,0-0.4l0,0l-0.2,0.1c-0.1,0-0.4,0.1-0.6,0.2l0,0.2
			l0.5-0.2v1.3c0,0.1,0,0.3,0,0.4h-0.2c-0.1,0-0.2,0-0.4,0c0,0.1,0,0.1,0,0.2c0.2,0,0.3,0,0.5,0H34c0.2,0,0.4,0,0.6,0
			C34.5-154.4,34.5-154.5,34.5-154.6L34.5-154.6z"/>
		<path class="st7" d="M36.2-154.6c-0.1,0-0.3,0-0.4,0h-0.2v-1.6c0-0.1,0-0.3,0-0.4l0,0l-0.2,0.1c-0.1,0-0.4,0.1-0.6,0.2l0,0.2
			l0.5-0.2v1.3c0,0.1,0,0.3,0,0.4h-0.2c-0.1,0-0.2,0-0.4,0c0,0.1,0,0.1,0,0.2c0.2,0,0.3,0,0.5,0h0.3c0.2,0,0.4,0,0.6,0
			C36.2-154.4,36.2-154.5,36.2-154.6L36.2-154.6z"/>
		<path class="st7" d="M36.5-154.4c0.2,0.1,0.4,0.1,0.5,0.1c0.5,0,0.8-0.3,0.8-0.6c0-0.3-0.2-0.5-0.7-0.5c0.4-0.1,0.6-0.3,0.6-0.6
			c0-0.3-0.3-0.5-0.7-0.5c-0.2,0-0.5,0.1-0.7,0.2l0.1,0.2c0.2-0.1,0.4-0.2,0.6-0.2c0.3,0,0.4,0.1,0.4,0.3c0,0.2-0.2,0.4-0.8,0.5
			l0,0.2c0.5,0,0.8,0.2,0.8,0.4c0,0.2-0.2,0.4-0.6,0.4c-0.2,0-0.4,0-0.6-0.1L36.5-154.4z"/>
		<path class="st7" d="M38.7-154.5c0-0.1-0.1-0.2-0.2-0.2c-0.1,0-0.2,0.1-0.2,0.2c0,0.1,0.1,0.2,0.2,0.2
			C38.6-154.3,38.7-154.4,38.7-154.5z"/>
		<path class="st7" d="M40.4-156.3l0-0.2c-0.8,0.1-1.2,0.7-1.2,1.4c0,0.5,0.3,0.8,0.7,0.8c0.4,0,0.7-0.3,0.7-0.7
			c0-0.4-0.3-0.7-0.7-0.7c-0.2,0-0.4,0.1-0.6,0.3C39.4-155.9,39.7-156.2,40.4-156.3z M40.3-155c0,0.3-0.2,0.5-0.5,0.5
			c-0.3,0-0.5-0.2-0.5-0.5c0-0.3,0.2-0.5,0.5-0.5C40.1-155.5,40.3-155.3,40.3-155z"/>
		<path class="st7" d="M40.9-154.5l0,0.2c0.8-0.1,1.2-0.7,1.2-1.4c0-0.5-0.3-0.8-0.7-0.8c-0.4,0-0.7,0.3-0.7,0.7
			c0,0.4,0.3,0.7,0.7,0.7c0.2,0,0.4-0.1,0.6-0.3C41.9-154.9,41.6-154.6,40.9-154.5z M41-155.8c0-0.3,0.2-0.5,0.5-0.5
			c0.3,0,0.5,0.2,0.5,0.5c0,0.3-0.2,0.5-0.5,0.5C41.2-155.3,41-155.5,41-155.8z"/>
		<text transform="matrix(0.48 0 0 0.48 -27.6573 -148.2072)" class="st2 st5 st6">Gr</text>
		<text transform="matrix(0.48 0 0 0.48 -24.414 -148.2072)" class="st2 st5 st6">e</text>
		<text transform="matrix(0.48 0 0 0.48 -22.8784 -148.2072)" class="st2 st5 st6">e</text>
		<text transform="matrix(0.48 0 0 0.48 -21.3426 -148.2072)" class="st2 st5 st6">n Climate F</text>
		<text transform="matrix(0.48 0 0 0.48 -6.8825 -148.2072)" class="st2 st5 st6">u</text>
		<text transform="matrix(0.48 0 0 0.48 -5.2117 -148.2072)" class="st2 st5 st6">n</text>
		<text transform="matrix(0.48 0 0 0.48 -3.5438 -148.2072)" class="st2 st5 st6">d</text>
		<path class="st7" d="M34.9-148.3l0,0.2c0.8-0.1,1.2-0.7,1.2-1.4c0-0.5-0.3-0.8-0.7-0.8c-0.4,0-0.7,0.3-0.7,0.7
			c0,0.4,0.3,0.7,0.7,0.7c0.2,0,0.4-0.1,0.6-0.3C35.9-148.8,35.5-148.4,34.9-148.3z M35-149.6c0-0.3,0.2-0.5,0.5-0.5
			c0.3,0,0.5,0.2,0.5,0.5c0,0.3-0.2,0.5-0.5,0.5C35.2-149.2,35-149.4,35-149.6z"/>
		<path class="st7" d="M36.5-148.2c0.2,0.1,0.3,0.1,0.5,0.1c0.5,0,0.8-0.3,0.8-0.7c0-0.4-0.3-0.6-0.9-0.6c-0.1,0-0.1,0-0.2,0l0-0.7
			h0.4c0.2,0,0.4,0,0.6,0c0-0.1,0-0.2,0-0.2c-0.2,0-0.3,0-0.6,0c-0.3,0-0.4,0-0.6,0l0,0c0,0.1,0,0.2,0,0.3l0,0.3c0,0.1,0,0.2,0,0.3
			l0,0c0.1,0,0.2,0,0.3,0c0.5,0,0.7,0.2,0.7,0.4c0,0.2-0.2,0.4-0.6,0.4c-0.2,0-0.4,0-0.6-0.1C36.5-148.5,36.5-148.2,36.5-148.2z"/>
		<path class="st7" d="M38.7-148.3c0-0.1-0.1-0.2-0.2-0.2c-0.1,0-0.2,0.1-0.2,0.2c0,0.1,0.1,0.2,0.2,0.2
			C38.6-148.2,38.7-148.2,38.7-148.3z"/>
		<path class="st7" d="M39.8-150.4c-0.5,0-0.7,0.5-0.7,1.1c0,0.6,0.2,1.1,0.7,1.1c0.5,0,0.7-0.5,0.7-1.1
			C40.5-149.9,40.3-150.4,39.8-150.4z M39.8-148.3c-0.3,0-0.5-0.4-0.5-0.9c0-0.5,0.2-0.9,0.5-0.9s0.5,0.4,0.5,0.9
			C40.3-148.8,40.1-148.3,39.8-148.3z"/>
		<path class="st7" d="M41.5-150.4c-0.5,0-0.7,0.5-0.7,1.1c0,0.6,0.2,1.1,0.7,1.1c0.5,0,0.7-0.5,0.7-1.1
			C42.2-149.9,42-150.4,41.5-150.4z M41.5-148.3c-0.3,0-0.5-0.4-0.5-0.9c0-0.5,0.2-0.9,0.5-0.9s0.5,0.4,0.5,0.9
			C42-148.8,41.8-148.3,41.5-148.3z"/>
		<text transform="matrix(0.48 0 0 0.48 -27.6573 -142.0645)" class="st2 st5 st6">F</text>
		<text transform="matrix(0.48 0 0 0.48 -26.1709 -142.0645)" class="st2 st5 st6">r</text>
		<text transform="matrix(0.48 0 0 0.48 -25.2001 -142.0645)" class="st2 st5 st6">a</text>
		<text transform="matrix(0.48 0 0 0.48 -23.7259 -142.0645)" class="st2 st5 st6">n</text>
		<text transform="matrix(0.48 0 0 0.48 -22.0581 -142.0645)" class="st2 st5 st6">ce</text>
		<path class="st7" d="M34.8-142.6c0,0.3,0.3,0.6,0.7,0.6c0.4,0,0.7-0.3,0.7-0.6c0-0.3-0.2-0.4-0.5-0.6c0.3-0.1,0.4-0.3,0.4-0.5
			c0-0.3-0.3-0.5-0.6-0.5c-0.4,0-0.7,0.2-0.7,0.6c0,0.3,0.2,0.4,0.4,0.5C35-143,34.8-142.9,34.8-142.6z M36-142.6
			c0,0.2-0.2,0.4-0.5,0.4c-0.3,0-0.5-0.2-0.5-0.4c0-0.2,0.2-0.4,0.5-0.5C35.8-143,36-142.8,36-142.6z M35.1-143.7
			c0-0.2,0.2-0.4,0.4-0.4c0.2,0,0.4,0.1,0.4,0.4c0,0.2-0.2,0.3-0.4,0.4C35.2-143.3,35.1-143.5,35.1-143.7z"/>
		<path class="st7" d="M37.5-142.1h0.2c0-0.1,0-0.3,0-0.4v-0.2l0.3,0c0-0.1,0-0.1,0-0.2c-0.1,0-0.2,0-0.3,0v-1c0-0.1,0-0.3,0-0.4
			l-0.1,0l-0.2,0.3l-0.9,1.2l0.1,0.1c0.2,0,0.5,0,0.8,0h0.2v0.1C37.5-142.4,37.5-142.2,37.5-142.1z M37.5-143.8v1h-0.8L37.5-143.8z"
			/>
		<path class="st7" d="M38.7-142.2c0-0.1-0.1-0.2-0.2-0.2c-0.1,0-0.2,0.1-0.2,0.2c0,0.1,0.1,0.2,0.2,0.2
			C38.6-142,38.7-142.1,38.7-142.2z"/>
		<path class="st7" d="M39.1-142.1c0.2,0.1,0.3,0.1,0.5,0.1c0.5,0,0.8-0.3,0.8-0.7c0-0.4-0.3-0.6-0.9-0.6c-0.1,0-0.1,0-0.2,0l0-0.7
			h0.4c0.2,0,0.4,0,0.6,0c0-0.1,0-0.2,0-0.2c-0.2,0-0.3,0-0.6,0c-0.3,0-0.4,0-0.6,0l0,0c0,0.1,0,0.2,0,0.3l0,0.3c0,0.1,0,0.2,0,0.3
			l0,0c0.1,0,0.2,0,0.3,0c0.5,0,0.7,0.2,0.7,0.4c0,0.2-0.2,0.4-0.6,0.4c-0.2,0-0.4,0-0.6-0.1C39.1-142.3,39.1-142.1,39.1-142.1z"/>
		<path class="st7" d="M40.8-142.1c0.2,0.1,0.4,0.1,0.5,0.1c0.5,0,0.8-0.3,0.8-0.6c0-0.3-0.2-0.5-0.7-0.5c0.4-0.1,0.6-0.3,0.6-0.6
			c0-0.3-0.3-0.5-0.7-0.5c-0.2,0-0.5,0.1-0.7,0.2l0.1,0.2c0.2-0.1,0.4-0.2,0.6-0.2c0.3,0,0.4,0.1,0.4,0.3c0,0.2-0.2,0.4-0.8,0.5
			l0,0.2c0.5,0,0.8,0.2,0.8,0.4c0,0.2-0.2,0.4-0.6,0.4c-0.2,0-0.4,0-0.6-0.1C40.8-142.3,40.8-142.1,40.8-142.1z"/>
		<text transform="matrix(0.48 0 0 0.48 -27.6573 -135.9217)" class="st5 st6">Others</text>
		<text transform="matrix(0.48 0 0 0.48 -23.9715 -129.779)" class="st2 st5 st6">R</text>
		<text transform="matrix(0.48 0 0 0.48 -22.1104 -129.779)" class="st2 st5 st6">e</text>
		<text transform="matrix(0.48 0 0 0.48 -20.5747 -129.779)" class="st2 st5 st6">p</text>
		<text transform="matrix(0.48 0 0 0.48 -18.9039 -129.779)" class="st2 st5 st6">ublic of K</text>
		<text transform="matrix(0.48 0 0 0.48 -6.9439 -129.779)" class="st2 st5 st6">o</text>
		<text transform="matrix(0.48 0 0 0.48 -5.2761 -129.779)" class="st2 st5 st6">r</text>
		<text transform="matrix(0.48 0 0 0.48 -4.3025 -129.779)" class="st2 st5 st6">e</text>
		<text transform="matrix(0.48 0 0 0.48 -2.7667 -129.779)" class="st2 st5 st6">a</text>
		<path class="st7" d="M36.1-131.8l0-0.2c-0.8,0.1-1.2,0.7-1.2,1.4c0,0.5,0.3,0.8,0.7,0.8c0.4,0,0.7-0.3,0.7-0.7
			c0-0.4-0.3-0.7-0.7-0.7c-0.2,0-0.4,0.1-0.6,0.3C35.1-131.3,35.4-131.6,36.1-131.8z M36-130.4c0,0.3-0.2,0.5-0.5,0.5
			c-0.3,0-0.5-0.2-0.5-0.5c0-0.3,0.2-0.5,0.5-0.5C35.8-130.9,36-130.7,36-130.4z"/>
		<path class="st7" d="M37.9-130c-0.1,0-0.3,0-0.4,0h-0.2v-1.6c0-0.1,0-0.3,0-0.4l0,0l-0.2,0.1c-0.1,0-0.4,0.1-0.6,0.2l0,0.2
			l0.5-0.2v1.3c0,0.1,0,0.3,0,0.4h-0.2c-0.1,0-0.2,0-0.4,0c0,0.1,0,0.1,0,0.2c0.2,0,0.3,0,0.5,0h0.3c0.2,0,0.4,0,0.6,0
			C37.9-129.8,37.9-129.9,37.9-130L37.9-130z"/>
		<path class="st7" d="M38.7-129.9c0-0.1-0.1-0.2-0.2-0.2c-0.1,0-0.2,0.1-0.2,0.2c0,0.1,0.1,0.2,0.2,0.2
			C38.6-129.7,38.7-129.8,38.7-129.9z"/>
		<path class="st7" d="M39.8-131.9c-0.5,0-0.7,0.5-0.7,1.1c0,0.6,0.2,1.1,0.7,1.1c0.5,0,0.7-0.5,0.7-1.1
			C40.5-131.5,40.3-131.9,39.8-131.9z M39.8-129.9c-0.3,0-0.5-0.4-0.5-0.9c0-0.5,0.2-0.9,0.5-0.9s0.5,0.4,0.5,0.9
			C40.3-130.3,40.1-129.9,39.8-129.9z"/>
		<path class="st7" d="M41.5-131.9c-0.5,0-0.7,0.5-0.7,1.1c0,0.6,0.2,1.1,0.7,1.1c0.5,0,0.7-0.5,0.7-1.1
			C42.2-131.5,42-131.9,41.5-131.9z M41.5-129.9c-0.3,0-0.5-0.4-0.5-0.9c0-0.5,0.2-0.9,0.5-0.9s0.5,0.4,0.5,0.9
			C42-130.3,41.8-129.9,41.5-129.9z"/>
		<text transform="matrix(0.48 0 0 0.48 -23.9715 -123.6363)" class="st2 st5 st6">J</text>
		<text transform="matrix(0.48 0 0 0.48 -22.7706 -123.6363)" class="st2 st5 st6">a</text>
		<text transform="matrix(0.48 0 0 0.48 -21.2964 -123.6363)" class="st2 st5 st6">p</text>
		<text transform="matrix(0.48 0 0 0.48 -19.6258 -123.6363)" class="st2 st5 st6">an</text>
		<path class="st7" d="M36.6-123.8l0,0.2c0.8-0.1,1.2-0.7,1.2-1.4c0-0.5-0.3-0.8-0.7-0.8c-0.4,0-0.7,0.3-0.7,0.7
			c0,0.4,0.3,0.7,0.7,0.7c0.2,0,0.4-0.1,0.6-0.3C37.6-124.2,37.3-123.9,36.6-123.8z M36.7-125.1c0-0.3,0.2-0.5,0.5-0.5
			c0.3,0,0.5,0.2,0.5,0.5c0,0.3-0.2,0.5-0.5,0.5C36.9-124.6,36.7-124.8,36.7-125.1z"/>
		<path class="st7" d="M38.7-123.8c0-0.1-0.1-0.2-0.2-0.2c-0.1,0-0.2,0.1-0.2,0.2c0,0.1,0.1,0.2,0.2,0.2
			C38.6-123.6,38.7-123.7,38.7-123.8z"/>
		<path class="st7" d="M39.4-123.8c0.2-0.2,0.4-0.4,0.6-0.5c0.3-0.3,0.5-0.6,0.5-0.8c0-0.4-0.3-0.6-0.6-0.6c-0.2,0-0.5,0.1-0.7,0.3
			l0.1,0.2c0.2-0.2,0.4-0.3,0.6-0.3c0.3,0,0.4,0.2,0.4,0.4c0,0.3-0.3,0.7-1.1,1.4l0,0.2c0.2,0,0.4,0,0.7,0c0.3,0,0.5,0,0.7,0
			c0-0.1,0-0.1,0-0.2C40.2-123.8,39.7-123.8,39.4-123.8z"/>
		<path class="st7" d="M40.8-123.7c0.2,0.1,0.4,0.1,0.5,0.1c0.5,0,0.8-0.3,0.8-0.6c0-0.3-0.2-0.5-0.7-0.5c0.4-0.1,0.6-0.3,0.6-0.6
			c0-0.3-0.3-0.5-0.7-0.5c-0.2,0-0.5,0.1-0.7,0.2l0.1,0.2c0.2-0.1,0.4-0.2,0.6-0.2c0.3,0,0.4,0.1,0.4,0.3c0,0.2-0.2,0.4-0.8,0.5
			l0,0.2c0.5,0,0.8,0.2,0.8,0.4c0,0.2-0.2,0.4-0.6,0.4c-0.2,0-0.4,0-0.6-0.1C40.8-123.9,40.8-123.7,40.8-123.7z"/>
		<text transform="matrix(0.48 0 0 0.48 -23.9715 -117.4937)" class="st2 st5 st6">Carbon Captur</text>
		<text transform="matrix(0.48 0 0 0.48 -4.846 -117.4937)" class="st2 st5 st6">e</text>
		<text transform="matrix(0.48 0 0 0.48 -3.3104 -117.4937)" class="st2 st5 st6"> </text>
		<text transform="matrix(0.48 0 0 0.48 -2.6748 -117.4937)" class="st2 st5 st6">and Stor</text>
		<text transform="matrix(0.48 0 0 0.48 8.0198 -117.4937)" class="st2 st5 st6">a</text>
		<text transform="matrix(0.48 0 0 0.48 9.494 -117.4937)" class="st2 st5 st6">g</text>
		<text transform="matrix(0.48 0 0 0.48 10.9316 -117.4937)" class="st2 st5 st6">e F</text>
		<text transform="matrix(0.48 0 0 0.48 14.5837 -117.4937)" class="st2 st5 st6">u</text>
		<text transform="matrix(0.48 0 0 0.48 16.2543 -117.4937)" class="st2 st5 st6">n</text>
		<text transform="matrix(0.48 0 0 0.48 17.9221 -117.4937)" class="st2 st5 st6">d</text>
		<path class="st7" d="M37.5-117.5h0.2c0-0.1,0-0.3,0-0.4v-0.2l0.3,0c0-0.1,0-0.1,0-0.2c-0.1,0-0.2,0-0.3,0v-1c0-0.1,0-0.3,0-0.4
			l-0.1,0l-0.2,0.3l-0.9,1.2l0.1,0.1c0.2,0,0.5,0,0.8,0h0.2v0.1C37.5-117.8,37.5-117.6,37.5-117.5z M37.5-119.3v1h-0.8L37.5-119.3z"
			/>
		<path class="st7" d="M38.7-117.6c0-0.1-0.1-0.2-0.2-0.2c-0.1,0-0.2,0.1-0.2,0.2c0,0.1,0.1,0.2,0.2,0.2
			C38.6-117.4,38.7-117.5,38.7-117.6z"/>
		<path class="st7" d="M39.1-117.5c0.2,0.1,0.4,0.1,0.5,0.1c0.5,0,0.8-0.3,0.8-0.6c0-0.3-0.2-0.5-0.7-0.5c0.4-0.1,0.6-0.3,0.6-0.6
			c0-0.3-0.3-0.5-0.7-0.5c-0.2,0-0.5,0.1-0.7,0.2l0.1,0.2c0.2-0.1,0.4-0.2,0.6-0.2c0.3,0,0.4,0.1,0.4,0.3c0,0.2-0.2,0.4-0.8,0.5
			l0,0.2c0.5,0,0.8,0.2,0.8,0.4c0,0.2-0.2,0.4-0.6,0.4c-0.2,0-0.4,0-0.6-0.1C39.1-117.8,39.1-117.5,39.1-117.5z"/>
		<path class="st7" d="M41.5-119.7c-0.5,0-0.7,0.5-0.7,1.1c0,0.6,0.2,1.1,0.7,1.1c0.5,0,0.7-0.5,0.7-1.1
			C42.2-119.2,42-119.7,41.5-119.7z M41.5-117.6c-0.3,0-0.5-0.4-0.5-0.9c0-0.5,0.2-0.9,0.5-0.9s0.5,0.4,0.5,0.9
			C42-118,41.8-117.6,41.5-117.6z"/>
		<text transform="matrix(0.48 0 0 0.48 -23.9715 -111.3508)" class="st2 st5 st6">H</text>
		<text transform="matrix(0.48 0 0 0.48 -21.6465 -111.3508)" class="st2 st5 st6">i</text>
		<text transform="matrix(0.48 0 0 0.48 -20.9525 -111.3508)" class="st2 st5 st6">g</text>
		<text transform="matrix(0.48 0 0 0.48 -19.5151 -111.3508)" class="st2 st5 st6">h Lev</text>
		<text transform="matrix(0.48 0 0 0.48 -12.6536 -111.3508)" class="st2 st5 st6">e</text>
		<text transform="matrix(0.48 0 0 0.48 -11.1179 -111.3508)" class="st2 st5 st6">l</text>
		<text transform="matrix(0.48 0 0 0.48 -10.4237 -111.3508)" class="st2 st5 st6"> T</text>
		<text transform="matrix(0.48 0 0 0.48 -8.1786 -111.3508)" class="st2 st5 st6">e</text>
		<text transform="matrix(0.48 0 0 0.48 -6.6428 -111.3508)" class="st2 st5 st6">c</text>
		<text transform="matrix(0.48 0 0 0.48 -5.1718 -111.3508)" class="st2 st5 st6">hnology F</text>
		<text transform="matrix(0.48 0 0 0.48 7.1385 -111.3508)" class="st2 st5 st6">u</text>
		<text transform="matrix(0.48 0 0 0.48 8.8091 -111.3508)" class="st2 st5 st6">n</text>
		<text transform="matrix(0.48 0 0 0.48 10.477 -111.3508)" class="st2 st5 st6">d</text>
		<path class="st7" d="M36.8-111.5c0.2-0.2,0.4-0.4,0.6-0.5c0.3-0.3,0.5-0.6,0.5-0.8c0-0.4-0.3-0.6-0.6-0.6c-0.2,0-0.5,0.1-0.7,0.3
			l0.1,0.2c0.2-0.2,0.4-0.3,0.6-0.3c0.3,0,0.4,0.2,0.4,0.4c0,0.3-0.3,0.7-1.1,1.4l0,0.2c0.2,0,0.4,0,0.7,0c0.3,0,0.5,0,0.7,0
			c0-0.1,0-0.1,0-0.2C37.6-111.5,37.2-111.5,36.8-111.5z"/>
		<path class="st7" d="M38.7-111.5c0-0.1-0.1-0.2-0.2-0.2c-0.1,0-0.2,0.1-0.2,0.2c0,0.1,0.1,0.2,0.2,0.2
			C38.6-111.3,38.7-111.4,38.7-111.5z"/>
		<path class="st7" d="M39.1-111.4c0.2,0.1,0.3,0.1,0.5,0.1c0.5,0,0.8-0.3,0.8-0.7c0-0.4-0.3-0.6-0.9-0.6c-0.1,0-0.1,0-0.2,0l0-0.7
			h0.4c0.2,0,0.4,0,0.6,0c0-0.1,0-0.2,0-0.2c-0.2,0-0.3,0-0.6,0c-0.3,0-0.4,0-0.6,0l0,0c0,0.1,0,0.2,0,0.3l0,0.3c0,0.1,0,0.2,0,0.3
			l0,0c0.1,0,0.2,0,0.3,0c0.5,0,0.7,0.2,0.7,0.4c0,0.2-0.2,0.4-0.6,0.4c-0.2,0-0.4,0-0.6-0.1C39.1-111.6,39.1-111.4,39.1-111.4z"/>
		<path class="st7" d="M41.5-113.5c-0.5,0-0.7,0.5-0.7,1.1c0,0.6,0.2,1.1,0.7,1.1c0.5,0,0.7-0.5,0.7-1.1
			C42.2-113,42-113.5,41.5-113.5z M41.5-111.5c-0.3,0-0.5-0.4-0.5-0.9c0-0.5,0.2-0.9,0.5-0.9s0.5,0.4,0.5,0.9
			C42-111.9,41.8-111.5,41.5-111.5z"/>
		<path class="st7" d="M-14.8-106.7c0.1-0.2,0.2-0.6,0.2-0.8l-0.3,0c0,0.2,0,0.6-0.1,0.8C-15-106.7-14.8-106.7-14.8-106.7z"/>
		<text transform="matrix(0.48 0 0 0.48 -23.9715 -105.2083)" class="st2 st5 st6">P</text>
		<text transform="matrix(0.48 0 0 0.48 -22.3347 -105.2083)" class="st2 st5 st6">e</text>
		<text transform="matrix(0.48 0 0 0.48 -20.799 -105.2083)" class="st2 st5 st6">o</text>
		<text transform="matrix(0.48 0 0 0.48 -19.1312 -105.2083)" class="st2 st5 st6">ple</text>
		<text transform="matrix(0.48 0 0 0.48 -14.3706 -105.2083)" class="st2 st5 st6">s</text>
		<text transform="matrix(0.48 0 0 0.48 -13.1237 -105.2083)" class="st2 st5 st6"> R</text>
		<text transform="matrix(0.48 0 0 0.48 -10.6267 -105.2083)" class="st2 st5 st6">e</text>
		<text transform="matrix(0.48 0 0 0.48 -9.0908 -105.2083)" class="st2 st5 st6">p</text>
		<text transform="matrix(0.48 0 0 0.48 -7.42 -105.2083)" class="st2 st5 st6">ublic of China</text>
		<path class="st7" d="M37.9-105.4c-0.1,0-0.3,0-0.4,0h-0.2v-1.6c0-0.1,0-0.3,0-0.4l0,0l-0.2,0.1c-0.1,0-0.4,0.1-0.6,0.2l0,0.2
			l0.5-0.2v1.3c0,0.1,0,0.3,0,0.4h-0.2c-0.1,0-0.2,0-0.4,0c0,0.1,0,0.1,0,0.2c0.2,0,0.3,0,0.5,0h0.3c0.2,0,0.4,0,0.6,0
			C37.9-105.3,37.9-105.3,37.9-105.4L37.9-105.4z"/>
		<path class="st7" d="M38.7-105.3c0-0.1-0.1-0.2-0.2-0.2c-0.1,0-0.2,0.1-0.2,0.2c0,0.1,0.1,0.2,0.2,0.2
			C38.6-105.2,38.7-105.2,38.7-105.3z"/>
		<path class="st7" d="M39.1-105.2c0.2,0.1,0.3,0.1,0.5,0.1c0.5,0,0.8-0.3,0.8-0.7c0-0.4-0.3-0.6-0.9-0.6c-0.1,0-0.1,0-0.2,0l0-0.7
			h0.4c0.2,0,0.4,0,0.6,0c0-0.1,0-0.2,0-0.2c-0.2,0-0.3,0-0.6,0c-0.3,0-0.4,0-0.6,0l0,0c0,0.1,0,0.2,0,0.3l0,0.3c0,0.1,0,0.2,0,0.3
			l0,0c0.1,0,0.2,0,0.3,0c0.5,0,0.7,0.2,0.7,0.4c0,0.2-0.2,0.4-0.6,0.4c-0.2,0-0.4,0-0.6-0.1C39.1-105.5,39.1-105.2,39.1-105.2z"/>
		<path class="st7" d="M40.8-105.3c0.2,0.1,0.4,0.1,0.5,0.1c0.5,0,0.8-0.3,0.8-0.6c0-0.3-0.2-0.5-0.7-0.5c0.4-0.1,0.6-0.3,0.6-0.6
			c0-0.3-0.3-0.5-0.7-0.5c-0.2,0-0.5,0.1-0.7,0.2l0.1,0.2c0.2-0.1,0.4-0.2,0.6-0.2c0.3,0,0.4,0.1,0.4,0.3c0,0.2-0.2,0.4-0.8,0.5
			l0,0.2c0.5,0,0.8,0.2,0.8,0.4c0,0.2-0.2,0.4-0.6,0.4c-0.2,0-0.4,0-0.6-0.1C40.8-105.5,40.8-105.3,40.8-105.3z"/>
		<text transform="matrix(0.48 0 0 0.48 -23.9715 -99.0653)" class="st2 st5 st6">Clean Ener</text>
		<text transform="matrix(0.48 0 0 0.48 -10.0246 -99.0653)" class="st2 st5 st6">g</text>
		<text transform="matrix(0.48 0 0 0.48 -8.5871 -99.0653)" class="st2 st5 st6">y F</text>
		<text transform="matrix(0.48 0 0 0.48 -5.0642 -99.0653)" class="st2 st5 st6">u</text>
		<text transform="matrix(0.48 0 0 0.48 -3.3934 -99.0653)" class="st2 st5 st6">n</text>
		<text transform="matrix(0.48 0 0 0.48 -1.7256 -99.0653)" class="st2 st5 st6">d</text>
		<path class="st7" d="M37.9-99.3c-0.1,0-0.3,0-0.4,0h-0.2v-1.6c0-0.1,0-0.3,0-0.4l0,0l-0.2,0.1c-0.1,0-0.4,0.1-0.6,0.2l0,0.2
			l0.5-0.2v1.3c0,0.1,0,0.3,0,0.4h-0.2c-0.1,0-0.2,0-0.4,0c0,0.1,0,0.1,0,0.2c0.2,0,0.3,0,0.5,0h0.3c0.2,0,0.4,0,0.6,0
			C37.9-99.1,37.9-99.2,37.9-99.3L37.9-99.3z"/>
		<path class="st7" d="M38.7-99.2c0-0.1-0.1-0.2-0.2-0.2c-0.1,0-0.2,0.1-0.2,0.2c0,0.1,0.1,0.2,0.2,0.2C38.6-99,38.7-99.1,38.7-99.2
			z"/>
		<path class="st7" d="M39.4-99.3c0.2-0.2,0.4-0.4,0.6-0.5c0.3-0.3,0.5-0.5,0.5-0.8c0-0.4-0.3-0.6-0.6-0.6c-0.2,0-0.5,0.1-0.7,0.3
			l0.1,0.2c0.2-0.2,0.4-0.3,0.6-0.3c0.3,0,0.4,0.2,0.4,0.4c0,0.3-0.3,0.7-1.1,1.4l0,0.2c0.2,0,0.4,0,0.7,0c0.3,0,0.5,0,0.7,0
			c0-0.1,0-0.1,0-0.2C40.2-99.3,39.7-99.3,39.4-99.3z"/>
		<path class="st7" d="M40.8-99.1C41-99,41.2-99,41.4-99c0.5,0,0.8-0.3,0.8-0.7c0-0.4-0.3-0.6-0.9-0.6c-0.1,0-0.1,0-0.2,0l0-0.7h0.4
			c0.2,0,0.4,0,0.6,0c0-0.1,0-0.2,0-0.2c-0.2,0-0.3,0-0.6,0c-0.3,0-0.4,0-0.6,0l0,0c0,0.1,0,0.2,0,0.3l0,0.3c0,0.1,0,0.2,0,0.3l0,0
			c0.1,0,0.2,0,0.3,0c0.5,0,0.7,0.2,0.7,0.4c0,0.2-0.2,0.4-0.6,0.4c-0.2,0-0.4,0-0.6-0.1C40.8-99.3,40.8-99.1,40.8-99.1z"/>
		<text transform="matrix(0.48 0 0 0.48 -23.9715 -92.9228)" class="st2 st5 st6">Sanitation F</text>
		<text transform="matrix(0.48 0 0 0.48 -8.7896 -92.9228)" class="st2 st5 st6">i</text>
		<text transform="matrix(0.48 0 0 0.48 -8.0957 -92.9228)" class="st2 st5 st6">n</text>
		<text transform="matrix(0.48 0 0 0.48 -6.4281 -92.9228)" class="st2 st5 st6">ancing P</text>
		<text transform="matrix(0.48 0 0 0.48 4.2482 -92.9228)" class="st2 st5 st6">a</text>
		<text transform="matrix(0.48 0 0 0.48 5.7224 -92.9228)" class="st2 st5 st6">r</text>
		<text transform="matrix(0.48 0 0 0.48 6.733 -92.9228)" class="st2 st5 st6">tnership</text>
		<text transform="matrix(0.48 0 0 0.48 -23.9715 -89.237)" class="st2 st5 st6">T</text>
		<text transform="matrix(0.48 0 0 0.48 -22.3314 -89.237)" class="st2 st5 st6">r</text>
		<text transform="matrix(0.48 0 0 0.48 -21.3212 -89.237)" class="st2 st5 st6">u</text>
		<text transform="matrix(0.48 0 0 0.48 -19.6501 -89.237)" class="st2 st5 st6">st F</text>
		<text transform="matrix(0.48 0 0 0.48 -15.249 -89.237)" class="st2 st5 st6">u</text>
		<text transform="matrix(0.48 0 0 0.48 -13.5779 -89.237)" class="st2 st5 st6">n</text>
		<text transform="matrix(0.48 0 0 0.48 -11.9103 -89.237)" class="st2 st5 st6">d</text>
		<path class="st7" d="M37.9-93.1c-0.1,0-0.3,0-0.4,0h-0.2v-1.6c0-0.1,0-0.3,0-0.4l0,0L37.2-95c-0.1,0-0.4,0.1-0.6,0.2l0,0.2
			l0.5-0.2v1.3c0,0.1,0,0.3,0,0.4h-0.2c-0.1,0-0.2,0-0.4,0c0,0.1,0,0.1,0,0.2c0.2,0,0.3,0,0.5,0h0.3c0.2,0,0.4,0,0.6,0
			C37.9-93,37.9-93.1,37.9-93.1L37.9-93.1z"/>
		<path class="st7" d="M38.7-93c0-0.1-0.1-0.2-0.2-0.2c-0.1,0-0.2,0.1-0.2,0.2c0,0.1,0.1,0.2,0.2,0.2C38.6-92.9,38.7-93,38.7-93z"/>
		<path class="st7" d="M39.8-95.1c-0.5,0-0.7,0.5-0.7,1.1c0,0.6,0.2,1.1,0.7,1.1c0.5,0,0.7-0.5,0.7-1.1
			C40.5-94.6,40.3-95.1,39.8-95.1z M39.8-93.1c-0.3,0-0.5-0.4-0.5-0.9c0-0.5,0.2-0.9,0.5-0.9s0.5,0.4,0.5,0.9
			C40.3-93.5,40.1-93.1,39.8-93.1z"/>
		<path class="st7" d="M41.5-95.1c-0.5,0-0.7,0.5-0.7,1.1c0,0.6,0.2,1.1,0.7,1.1c0.5,0,0.7-0.5,0.7-1.1C42.2-94.6,42-95.1,41.5-95.1
			z M41.5-93.1c-0.3,0-0.5-0.4-0.5-0.9c0-0.5,0.2-0.9,0.5-0.9S42-94.5,42-94C42-93.5,41.8-93.1,41.5-93.1z"/>
		<text transform="matrix(0.48 0 0 0.48 -23.9715 -83.0945)" class="st2 st5 st6">U</text>
		<text transform="matrix(0.48 0 0 0.48 -21.7389 -83.0945)" class="st2 st5 st6">n</text>
		<text transform="matrix(0.48 0 0 0.48 -20.0711 -83.0945)" class="st2 st5 st6">i</text>
		<text transform="matrix(0.48 0 0 0.48 -19.3768 -83.0945)" class="st2 st5 st6">ted Kingdom</text>
		<path class="st7" d="M37.2-85.3c-0.5,0-0.7,0.5-0.7,1.1c0,0.6,0.2,1.1,0.7,1.1c0.5,0,0.7-0.5,0.7-1.1
			C37.9-84.8,37.7-85.3,37.2-85.3L37.2-85.3z M37.2-83.2c-0.3,0-0.5-0.4-0.5-0.9c0-0.5,0.2-0.9,0.5-0.9s0.5,0.4,0.5,0.9
			C37.7-83.7,37.5-83.2,37.2-83.2z"/>
		<path class="st7" d="M38.7-83.2c0-0.1-0.1-0.2-0.2-0.2c-0.1,0-0.2,0.1-0.2,0.2c0,0.1,0.1,0.2,0.2,0.2C38.6-83,38.7-83.1,38.7-83.2
			L38.7-83.2z"/>
		<path class="st7" d="M39.1-85.2c0,0.1,0,0.2,0,0.2c0.2,0,0.4,0,0.7,0c0.2,0,0.4,0,0.5,0l-0.7,1.3c-0.1,0.2-0.2,0.4-0.3,0.5l0.2,0
			c0-0.1,0.1-0.3,0.2-0.4l0.7-1.3c0.1-0.1,0.1-0.3,0.2-0.3l-0.1-0.1c-0.2,0-0.5,0-0.7,0C39.5-85.2,39.3-85.2,39.1-85.2z"/>
		<path class="st7" d="M41.5-85.3c-0.5,0-0.7,0.5-0.7,1.1c0,0.6,0.2,1.1,0.7,1.1c0.5,0,0.7-0.5,0.7-1.1C42.2-84.8,42-85.3,41.5-85.3
			L41.5-85.3z M41.5-83.2c-0.3,0-0.5-0.4-0.5-0.9c0-0.5,0.2-0.9,0.5-0.9s0.5,0.4,0.5,0.9C42-83.7,41.8-83.2,41.5-83.2z"/>
		<text transform="matrix(0.48 0 0 0.48 -23.9715 -76.9515)" class="st2 st5 st6">Clean T</text>
		<text transform="matrix(0.48 0 0 0.48 -14.2693 -76.9515)" class="st2 st5 st6">e</text>
		<text transform="matrix(0.48 0 0 0.48 -12.7335 -76.9515)" class="st2 st5 st6">c</text>
		<text transform="matrix(0.48 0 0 0.48 -11.2623 -76.9515)" class="st2 st5 st6">hnology F</text>
		<text transform="matrix(0.48 0 0 0.48 1.0478 -76.9515)" class="st2 st5 st6">u</text>
		<text transform="matrix(0.48 0 0 0.48 2.7187 -76.9515)" class="st2 st5 st6">n</text>
		<text transform="matrix(0.48 0 0 0.48 4.3865 -76.9515)" class="st2 st5 st6">d</text>
		<path class="st7" d="M37.2-79.1c-0.5,0-0.7,0.5-0.7,1.1c0,0.6,0.2,1.1,0.7,1.1c0.5,0,0.7-0.5,0.7-1.1
			C37.9-78.6,37.7-79.1,37.2-79.1L37.2-79.1z M37.2-77.1c-0.3,0-0.5-0.4-0.5-0.9c0-0.5,0.2-0.9,0.5-0.9s0.5,0.4,0.5,0.9
			C37.7-77.5,37.5-77.1,37.2-77.1z"/>
		<path class="st7" d="M38.7-77.1c0-0.1-0.1-0.2-0.2-0.2c-0.1,0-0.2,0.1-0.2,0.2c0,0.1,0.1,0.2,0.2,0.2C38.6-76.9,38.7-77,38.7-77.1
			L38.7-77.1z"/>
		<path class="st7" d="M39.1-79.1c0,0.1,0,0.2,0,0.2c0.2,0,0.4,0,0.7,0c0.2,0,0.4,0,0.5,0l-0.7,1.3c-0.1,0.2-0.2,0.4-0.3,0.5l0.2,0
			c0-0.1,0.1-0.3,0.2-0.4l0.7-1.3c0.1-0.1,0.1-0.3,0.2-0.3l-0.1-0.1c-0.2,0-0.5,0-0.7,0C39.5-79,39.3-79.1,39.1-79.1z"/>
		<path class="st7" d="M41.5-79.1c-0.5,0-0.7,0.5-0.7,1.1c0,0.6,0.2,1.1,0.7,1.1c0.5,0,0.7-0.5,0.7-1.1C42.2-78.6,42-79.1,41.5-79.1
			L41.5-79.1z M41.5-77.1c-0.3,0-0.5-0.4-0.5-0.9c0-0.5,0.2-0.9,0.5-0.9S42-78.6,42-78C42-77.5,41.8-77.1,41.5-77.1z"/>
		<text transform="matrix(0.48 0 0 0.48 -23.9715 -70.8085)" class="st2 st5 st6">U</text>
		<text transform="matrix(0.48 0 0 0.48 -21.7389 -70.8085)" class="st2 st5 st6">r</text>
		<text transform="matrix(0.48 0 0 0.48 -20.7283 -70.8085)" class="st2 st5 st6">b</text>
		<text transform="matrix(0.48 0 0 0.48 -19.0576 -70.8085)" class="st2 st5 st6">an Envir</text>
		<text transform="matrix(0.48 0 0 0.48 -8.8421 -70.8085)" class="st2 st5 st6">o</text>
		<text transform="matrix(0.48 0 0 0.48 -7.1743 -70.8085)" class="st2 st5 st6">n</text>
		<text transform="matrix(0.48 0 0 0.48 -5.5065 -70.8085)" class="st2 st5 st6">mental</text>
		<text transform="matrix(0.48 0 0 0.48 -23.9715 -67.1232)" class="st2 st5 st6">Infr</text>
		<text transform="matrix(0.48 0 0 0.48 -19.4692 -67.1232)" class="st2 st5 st6">a</text>
		<text transform="matrix(0.48 0 0 0.48 -17.9947 -67.1232)" class="st2 st5 st6">s</text>
		<text transform="matrix(0.48 0 0 0.48 -16.7479 -67.1232)" class="st2 st5 st6">tr</text>
		<text transform="matrix(0.48 0 0 0.48 -14.6992 -67.1232)" class="st2 st5 st6">uctur</text>
		<text transform="matrix(0.48 0 0 0.48 -7.8746 -67.1232)" class="st2 st5 st6">e</text>
		<text transform="matrix(0.48 0 0 0.48 -6.339 -67.1232)" class="st2 st5 st6"> </text>
		<text transform="matrix(0.48 0 0 0.48 -5.7029 -67.1232)" class="st2 st5 st6">F</text>
		<text transform="matrix(0.48 0 0 0.48 -4.2226 -67.1232)" class="st2 st5 st6">u</text>
		<text transform="matrix(0.48 0 0 0.48 -2.552 -67.1232)" class="st2 st5 st6">n</text>
		<text transform="matrix(0.48 0 0 0.48 -0.8842 -67.1232)" class="st2 st5 st6">d</text>
		<path class="st7" d="M37.2-73c-0.5,0-0.7,0.5-0.7,1.1c0,0.6,0.2,1.1,0.7,1.1c0.5,0,0.7-0.5,0.7-1.1C37.9-72.5,37.7-73,37.2-73
			L37.2-73z M37.2-70.9c-0.3,0-0.5-0.4-0.5-0.9c0-0.5,0.2-0.9,0.5-0.9s0.5,0.4,0.5,0.9C37.7-71.4,37.5-70.9,37.2-70.9z"/>
		<path class="st7" d="M38.7-70.9c0-0.1-0.1-0.2-0.2-0.2c-0.1,0-0.2,0.1-0.2,0.2c0,0.1,0.1,0.2,0.2,0.2
			C38.6-70.8,38.7-70.8,38.7-70.9L38.7-70.9z"/>
		<path class="st7" d="M40-70.8h0.2c0-0.1,0-0.3,0-0.4v-0.2l0.3,0c0-0.1,0-0.1,0-0.2c-0.1,0-0.2,0-0.3,0v-1c0-0.1,0-0.3,0-0.4
			l-0.1,0l-0.2,0.3L39-71.5l0.1,0.1c0.2,0,0.5,0,0.8,0H40v0.1C40-71.2,40-70.9,40-70.8L40-70.8z M40-72.6v1h-0.8L40-72.6z"/>
		<path class="st7" d="M41.5-73c-0.5,0-0.7,0.5-0.7,1.1c0,0.6,0.2,1.1,0.7,1.1c0.5,0,0.7-0.5,0.7-1.1C42.2-72.5,42-73,41.5-73
			L41.5-73z M41.5-70.9c-0.3,0-0.5-0.4-0.5-0.9c0-0.5,0.2-0.9,0.5-0.9s0.5,0.4,0.5,0.9C42-71.4,41.8-70.9,41.5-70.9z"/>
		<text transform="matrix(0.48 0 0 0.48 -23.9715 -60.9807)" class="st2 st5 st6">W</text>
		<text transform="matrix(0.48 0 0 0.48 -21.0906 -60.9807)" class="st2 st5 st6">a</text>
		<text transform="matrix(0.48 0 0 0.48 -19.6225 -60.9807)" class="st2 st5 st6">t</text>
		<text transform="matrix(0.48 0 0 0.48 -18.5844 -60.9807)" class="st2 st5 st6">er F</text>
		<text transform="matrix(0.48 0 0 0.48 -13.8667 -60.9807)" class="st2 st5 st6">i</text>
		<text transform="matrix(0.48 0 0 0.48 -13.1727 -60.9807)" class="st2 st5 st6">n</text>
		<text transform="matrix(0.48 0 0 0.48 -11.5049 -60.9807)" class="st2 st5 st6">ancing P</text>
		<text transform="matrix(0.48 0 0 0.48 -0.8288 -60.9807)" class="st2 st5 st6">a</text>
		<text transform="matrix(0.48 0 0 0.48 0.6454 -60.9807)" class="st2 st5 st6">r</text>
		<text transform="matrix(0.48 0 0 0.48 1.656 -60.9807)" class="st2 st5 st6">tnership F</text>
		<text transform="matrix(0.48 0 0 0.48 14.2612 -60.9807)" class="st2 st5 st6">a</text>
		<text transform="matrix(0.48 0 0 0.48 15.7349 -60.9807)" class="st2 st5 st6">c</text>
		<text transform="matrix(0.48 0 0 0.48 17.2063 -60.9807)" class="st2 st5 st6">ility</text>
		<text transform="matrix(0.48 0 0 0.48 -23.9715 -57.2949)" class="st2 st5 st6">(</text>
		<text transform="matrix(0.48 0 0 0.48 -22.8015 -57.2949)" class="st2 st5 st6">M</text>
		<text transform="matrix(0.48 0 0 0.48 -20.0893 -57.2949)" class="st2 st5 st6">u</text>
		<text transform="matrix(0.48 0 0 0.48 -18.4187 -57.2949)" class="st2 st5 st6">l</text>
		<text transform="matrix(0.48 0 0 0.48 -17.7245 -57.2949)" class="st2 st5 st6">ti-Donor T</text>
		<text transform="matrix(0.48 0 0 0.48 -4.1797 -57.2949)" class="st2 st5 st6">r</text>
		<text transform="matrix(0.48 0 0 0.48 -3.1693 -57.2949)" class="st2 st5 st6">u</text>
		<text transform="matrix(0.48 0 0 0.48 -1.4982 -57.2949)" class="st2 st5 st6">st F</text>
		<text transform="matrix(0.48 0 0 0.48 2.9029 -57.2949)" class="st2 st5 st6">u</text>
		<text transform="matrix(0.48 0 0 0.48 4.5737 -57.2949)" class="st2 st5 st6">n</text>
		<text transform="matrix(0.48 0 0 0.48 6.2416 -57.2949)" class="st2 st5 st6">d</text>
		<text transform="matrix(0.48 0 0 0.48 7.9738 -57.2949)" class="st2 st5 st6">)</text>
		<path class="st7" d="M37.2-63.1c-0.5,0-0.7,0.5-0.7,1.1c0,0.6,0.2,1.1,0.7,1.1c0.5,0,0.7-0.5,0.7-1.1
			C37.9-62.7,37.7-63.1,37.2-63.1L37.2-63.1z M37.2-61.1c-0.3,0-0.5-0.4-0.5-0.9c0-0.5,0.2-0.9,0.5-0.9s0.5,0.4,0.5,0.9
			C37.7-61.5,37.5-61.1,37.2-61.1z"/>
		<path class="st7" d="M38.7-61.1c0-0.1-0.1-0.2-0.2-0.2c-0.1,0-0.2,0.1-0.2,0.2c0,0.1,0.1,0.2,0.2,0.2C38.6-60.9,38.7-61,38.7-61.1
			L38.7-61.1z"/>
		<path class="st7" d="M39.1-61c0.2,0.1,0.4,0.1,0.5,0.1c0.5,0,0.8-0.3,0.8-0.6c0-0.3-0.2-0.5-0.7-0.5c0.4-0.1,0.6-0.3,0.6-0.6
			c0-0.3-0.3-0.5-0.7-0.5c-0.2,0-0.5,0.1-0.7,0.2l0.1,0.2c0.2-0.1,0.4-0.2,0.6-0.2c0.3,0,0.4,0.1,0.4,0.3c0,0.2-0.2,0.4-0.8,0.5
			l0,0.2c0.5,0,0.8,0.2,0.8,0.4c0,0.2-0.2,0.4-0.6,0.4c-0.2,0-0.4,0-0.6-0.1L39.1-61L39.1-61z"/>
		<path class="st7" d="M41.5-63.1c-0.5,0-0.7,0.5-0.7,1.1c0,0.6,0.2,1.1,0.7,1.1c0.5,0,0.7-0.5,0.7-1.1C42.2-62.7,42-63.1,41.5-63.1
			L41.5-63.1z M41.5-61.1c-0.3,0-0.5-0.4-0.5-0.9c0-0.5,0.2-0.9,0.5-0.9S42-62.6,42-62C42-61.5,41.8-61.1,41.5-61.1z"/>
		<text transform="matrix(0.48 0 0 0.48 -27.6573 -51.1275)" class="st2 st8 st6">T</text>
		<text transform="matrix(0.48 0 0 0.48 -25.9159 -51.1275)" class="st2 st8 st6">o</text>
		<text transform="matrix(0.48 0 0 0.48 -24.1958 -51.1275)" class="st2 st8 st6">t</text>
		<text transform="matrix(0.48 0 0 0.48 -23.0012 -51.1275)" class="st2 st8 st6">al</text>
		<path class="st7" d="M33.1-51.2c0.2,0.1,0.4,0.1,0.5,0.1c0.5,0,0.9-0.2,0.9-0.6c0-0.2-0.2-0.4-0.6-0.5c0.3-0.1,0.5-0.3,0.5-0.5
			c0-0.3-0.3-0.5-0.7-0.5c-0.2,0-0.5,0.1-0.7,0.2l0.1,0.4c0.2-0.1,0.4-0.2,0.5-0.2c0.2,0,0.3,0.1,0.3,0.2c0,0.2-0.2,0.3-0.7,0.4
			l0,0.3c0.4,0,0.7,0.1,0.7,0.3c0,0.2-0.2,0.2-0.5,0.2c-0.2,0-0.4,0-0.5-0.1L33.1-51.2z"/>
		<path class="st7" d="M34.8-53.2c0,0.1,0,0.3,0,0.4c0.2,0,0.4,0,0.6,0h0.4l-0.6,1.1c-0.1,0.2-0.2,0.4-0.3,0.5l0.5,0.1
			c0-0.1,0.1-0.3,0.2-0.4l0.5-1.1c0-0.1,0.1-0.3,0.2-0.4l-0.1-0.2c-0.2,0-0.4,0-0.7,0C35.2-53.2,35-53.2,34.8-53.2z"/>
		<path class="st7" d="M37.8-52.9l-0.1-0.4c-0.8,0.1-1.3,0.6-1.3,1.3c0,0.6,0.3,0.9,0.8,0.9c0.5,0,0.8-0.3,0.8-0.8
			c0-0.4-0.3-0.7-0.6-0.7c-0.2,0-0.3,0.1-0.4,0.2C37-52.6,37.3-52.9,37.8-52.9L37.8-52.9z M37.5-51.8c0,0.2-0.1,0.4-0.3,0.4
			c-0.2,0-0.3-0.1-0.3-0.4c0-0.2,0.1-0.4,0.3-0.4C37.4-52.2,37.5-52.1,37.5-51.8L37.5-51.8z"/>
		<path class="st7" d="M38.8-51.3c0-0.2-0.1-0.3-0.3-0.3c-0.2,0-0.3,0.1-0.3,0.3c0,0.1,0.1,0.3,0.3,0.3
			C38.7-51.1,38.8-51.2,38.8-51.3L38.8-51.3z"/>
		<path class="st7" d="M40.5-51.5c-0.1,0-0.3,0-0.4,0h-0.1v-1.3c0-0.1,0-0.3,0-0.4l-0.2,0l-0.2,0.1c-0.1,0-0.4,0.1-0.6,0.2l0.1,0.4
			l0.4-0.1v1c0,0.1,0,0.1,0,0.2h-0.1c-0.1,0-0.3,0-0.4,0c0,0.1,0,0.3,0,0.4c0.2,0,0.3,0,0.4,0H40c0.2,0,0.4,0,0.6,0
			C40.5-51.2,40.5-51.5,40.5-51.5L40.5-51.5z"/>
		<path class="st7" d="M41.4-51.5c0.1-0.1,0.3-0.3,0.4-0.4c0.2-0.3,0.4-0.5,0.4-0.8c0-0.4-0.3-0.6-0.7-0.6c-0.3,0-0.5,0.1-0.7,0.2
			l0.1,0.4c0.2-0.1,0.4-0.2,0.5-0.2c0.2,0,0.3,0.1,0.3,0.3c0,0.3-0.3,0.6-1,1.1l0,0.3c0.2,0,0.5,0,0.7,0c0.3,0,0.5,0,0.7,0
			c0-0.2,0-0.3,0-0.4C42-51.5,41.7-51.5,41.4-51.5L41.4-51.5z"/>
		<path class="st9" d="M-29.5-158.4h73.7 M-29.5-152.3h73.7 M-29.5-146.1h73.7 M-29.5-140h73.7 M-29.5-133.8h73.7 M-29.5-127.7h73.7
			 M-29.5-121.5h73.7 M-29.5-115.4h73.7 M-29.5-109.3h73.7 M-29.5-103.1h73.7 M-29.5-97h73.7 M-29.5-87.1h73.7 M-29.5-81h73.7
			 M-29.5-74.9h73.7 M-29.5-65h73.7 M-29.5-55.2h73.7 M-29.5-49.1h73.7"/>
	</g>
	<path class="st10" d="M77.1,0c18.4,0,35.6,8.9,46.3,23.8c10.7,14.9,13.5,34.1,7.6,51.5l-13.5-4.6c4.4-13,2.3-27.4-5.7-38.6
		S90.9,14.2,77.1,14.2C77.1,14.2,77.1,0,77.1,0z"/>
	<path class="st11" d="M76.8,0c0.1,0,0.2,0,0.3,0v14.2c-0.1,0-0.1,0-0.2,0C76.9,14.2,76.8,0,76.8,0z"/>
	<path class="st12" d="M76.4,0c0.1,0,0.3,0,0.4,0l0.1,14.2c-0.1,0-0.2,0-0.3,0C76.6,14.2,76.4,0,76.4,0z"/>
	<path class="st13" d="M75.8,0c0.2,0,0.4,0,0.7,0l0.2,14.2c-0.2,0-0.3,0-0.5,0C76.1,14.2,75.8,0,75.8,0z"/>
	<path class="st14" d="M75.1,0c0.2,0,0.4,0,0.7,0l0.3,14.2c-0.2,0-0.3,0-0.5,0L75.1,0z"/>
	<path class="st15" d="M74.2,0.1c0.3,0,0.6,0,0.9,0l0.5,14.2c-0.2,0-0.5,0-0.7,0C74.9,14.3,74.2,0.1,74.2,0.1z"/>
	<path class="st16" d="M73,0.2c0.4,0,0.8-0.1,1.2-0.1l0.7,14.2c-0.3,0-0.6,0-0.9,0.1C74,14.3,73,0.2,73,0.2z"/>
	<path class="st17" d="M71.5,0.3c0.5,0,1-0.1,1.4-0.1l1,14.2c-0.4,0-0.7,0.1-1.1,0.1C72.9,14.4,71.5,0.3,71.5,0.3z"/>
	<path class="st18" d="M69.2,0.6c0.8-0.1,1.6-0.2,2.4-0.3l1.4,14.2c-0.6,0.1-1.2,0.1-1.8,0.2L69.2,0.6z"/>
	<path class="st19" d="M65.1,1.3c1.3-0.3,2.7-0.5,4-0.7l2,14.1c-1,0.1-2,0.3-3,0.5L65.1,1.3z"/>
	<path class="st20" d="M56.7,3.8c2.7-1,5.5-1.9,8.4-2.5l3,13.9c-2.1,0.5-4.3,1.1-6.3,1.9C61.8,17.1,56.7,3.8,56.7,3.8z"/>
	<path class="st21" d="M21.2,46.4C24.8,27,38.3,10.8,56.7,3.8l5.1,13.3C48,22.4,37.9,34.5,35.2,49L21.2,46.4z"/>
	<path class="st22" d="M57.9,110.5C31.6,101,16,73.9,21.2,46.4l14,2.6c-3.9,20.6,7.8,41,27.5,48.1C62.7,97.1,57.9,110.5,57.9,110.5z
		"/>
	<path class="st23" d="M131,75.3c-4.9,14.4-15.4,26.3-29.2,32.9c-13.7,6.6-29.6,7.4-43.9,2.3l4.8-13.4c10.8,3.9,22.6,3.2,32.9-1.7
		c10.3-5,18.2-13.9,21.9-24.7C117.5,70.7,131,75.3,131,75.3z"/>
</g>
</svg>
