<?xml version="1.0" encoding="utf-8"?>
<!-- Generator: Adobe Illustrator 24.1.0, SVG Export Plug-In . SVG Version: 6.00 Build 0)  -->
<svg version="1.1" id="Layer_1" xmlns:serif="http://www.serif.com/"
	 xmlns="http://www.w3.org/2000/svg" xmlns:xlink="http://www.w3.org/1999/xlink" x="0px" y="0px" viewBox="0 0 153.6 205.7"
	 style="enable-background:new 0 0 153.6 205.7;" xml:space="preserve">
<style type="text/css">
	.st0{clip-path:url(#SVGID_2_);}
	.st1{clip-path:url(#SVGID_4_);}
	.st2{fill:#1A1A1A;}
	.st3{font-family:'IdealSans-ExtraLight';}
	.st4{font-size:11.5177px;}
	.st5{fill-rule:evenodd;clip-rule:evenodd;fill:#1A1A1A;}
	.st6{font-family:'IdealSans-Light';}
	.st7{font-size:6.3987px;}
	.st8{font-family:'IdealSans-Semibold';}
	.st9{fill:none;stroke:#1A1A1A;stroke-width:0.16;stroke-miterlimit:2.5595;}
	.st10{fill:#009CE4;}
	.st11{fill:#008FD1;}
	.st12{fill:#007DB7;}
</style>
<g>
	<defs>
		<rect id="SVGID_1_" x="-18.9" y="-19.4" width="192" height="511.9"/>
	</defs>
	<clipPath id="SVGID_2_">
		<use xlink:href="#SVGID_1_"  style="overflow:visible;"/>
	</clipPath>
	<g class="st0">
		<g>
			<defs>
				<rect id="SVGID_3_" x="-18.9" y="-19.4" width="192" height="511.9"/>
			</defs>
			<clipPath id="SVGID_4_">
				<use xlink:href="#SVGID_3_"  style="overflow:visible;"/>
			</clipPath>
			<g class="st1">
				<g id="Layer-1" serif:id="Layer 1">
				</g>
			</g>
		</g>
	</g>
</g>
<g id="Layer-11" serif:id="Layer 1">
	<g transform="matrix(2.08333,0,0,2.08333,61.4583,478.168)">
		<text transform="matrix(0.48 0 0 0.48 -2.4428 -162.5543)" class="st2 st3 st4">B</text>
		<text transform="matrix(0.48 0 0 0.48 0.7583 -162.5543)" class="st2 st3 st4">y</text>
		<text transform="matrix(0.48 0 0 0.48 3.235 -162.5543)" class="st2 st3 st4"> </text>
		<text transform="matrix(0.48 0 0 0.48 4.3298 -162.5543)" class="st2 st3 st4">DMC</text>
		<path class="st5" d="M-18.5-155.8c0.1-0.2,0.2-0.6,0.2-0.8l-0.3,0c0,0.2,0,0.6-0.1,0.8C-18.6-155.8-18.5-155.8-18.5-155.8z"/>
		<text transform="matrix(0.48 0 0 0.48 -27.6573 -154.3502)" class="st2 st6 st7">P</text>
		<text transform="matrix(0.48 0 0 0.48 -26.0204 -154.3502)" class="st2 st6 st7">e</text>
		<text transform="matrix(0.48 0 0 0.48 -24.4846 -154.3502)" class="st2 st6 st7">o</text>
		<text transform="matrix(0.48 0 0 0.48 -22.817 -154.3502)" class="st2 st6 st7">ple</text>
		<text transform="matrix(0.48 0 0 0.48 -18.0561 -154.3502)" class="st2 st6 st7">s</text>
		<text transform="matrix(0.48 0 0 0.48 -16.8093 -154.3502)" class="st2 st6 st7"> R</text>
		<text transform="matrix(0.48 0 0 0.48 -14.312 -154.3502)" class="st2 st6 st7">e</text>
		<text transform="matrix(0.48 0 0 0.48 -12.7764 -154.3502)" class="st2 st6 st7">p</text>
		<text transform="matrix(0.48 0 0 0.48 -11.1057 -154.3502)" class="st2 st6 st7">ublic of China</text>
		<path class="st5" d="M33.4-154.5c0.2-0.2,0.4-0.4,0.6-0.5c0.3-0.3,0.5-0.5,0.5-0.8c0-0.4-0.3-0.6-0.6-0.6c-0.2,0-0.5,0.1-0.7,0.3
			l0.1,0.2c0.2-0.2,0.4-0.3,0.6-0.3c0.3,0,0.4,0.2,0.4,0.4c0,0.3-0.3,0.7-1.1,1.4l0,0.2c0.2,0,0.4,0,0.7,0c0.3,0,0.5,0,0.7,0
			c0-0.1,0-0.1,0-0.2C34.1-154.5,33.7-154.5,33.4-154.5z"/>
		<path class="st5" d="M35.5-156.5c-0.5,0-0.7,0.5-0.7,1.1c0,0.6,0.2,1.1,0.7,1.1c0.5,0,0.7-0.5,0.7-1.1
			C36.2-156,36-156.5,35.5-156.5z M35.5-154.5c-0.3,0-0.5-0.4-0.5-0.9c0-0.5,0.2-0.9,0.5-0.9s0.5,0.4,0.5,0.9
			C36-154.9,35.8-154.5,35.5-154.5z"/>
		<path class="st5" d="M36.5-154.4c0.2,0.1,0.3,0.1,0.5,0.1c0.5,0,0.8-0.3,0.8-0.7c0-0.4-0.3-0.6-0.9-0.6c-0.1,0-0.1,0-0.2,0l0-0.7
			h0.4c0.2,0,0.4,0,0.6,0c0-0.1,0-0.2,0-0.2c-0.2,0-0.3,0-0.6,0c-0.3,0-0.4,0-0.6,0l0,0c0,0.1,0,0.2,0,0.3l0,0.3c0,0.1,0,0.2,0,0.3
			l0,0c0.1,0,0.2,0,0.3,0c0.5,0,0.7,0.2,0.7,0.4c0,0.2-0.2,0.4-0.6,0.4c-0.2,0-0.4,0-0.6-0.1C36.5-154.6,36.5-154.4,36.5-154.4z"/>
		<path class="st5" d="M38.7-154.5c0-0.1-0.1-0.2-0.2-0.2c-0.1,0-0.2,0.1-0.2,0.2c0,0.1,0.1,0.2,0.2,0.2
			C38.6-154.3,38.7-154.4,38.7-154.5z"/>
		<path class="st5" d="M39.2-154.5l0,0.2c0.8-0.1,1.2-0.7,1.2-1.4c0-0.5-0.3-0.8-0.7-0.8c-0.4,0-0.7,0.3-0.7,0.7
			c0,0.4,0.3,0.7,0.7,0.7c0.2,0,0.4-0.1,0.6-0.3C40.2-154.9,39.8-154.6,39.2-154.5z M39.3-155.8c0-0.3,0.2-0.5,0.5-0.5
			c0.3,0,0.5,0.2,0.5,0.5c0,0.3-0.2,0.5-0.5,0.5C39.5-155.3,39.3-155.5,39.3-155.8z"/>
		<path class="st5" d="M40.8-156.5c0,0.1,0,0.2,0,0.2c0.2,0,0.4,0,0.7,0c0.2,0,0.4,0,0.5,0l-0.7,1.3c-0.1,0.2-0.2,0.4-0.3,0.5l0.2,0
			c0-0.1,0.1-0.3,0.2-0.4l0.7-1.3c0.1-0.1,0.1-0.3,0.2-0.3l-0.1-0.1c-0.2,0-0.5,0-0.7,0C41.2-156.4,41-156.5,40.8-156.5z"/>
		<text transform="matrix(0.48 0 0 0.48 -27.6573 -148.2072)" class="st2 st6 st7">Monglolia</text>
		<path class="st5" d="M34.5-148.4c-0.1,0-0.3,0-0.4,0h-0.2v-1.6c0-0.1,0-0.3,0-0.4l0,0l-0.2,0.1c-0.1,0-0.4,0.1-0.6,0.2l0,0.2
			l0.5-0.2v1.3c0,0.1,0,0.3,0,0.4h-0.2c-0.1,0-0.2,0-0.4,0c0,0.1,0,0.1,0,0.2c0.2,0,0.3,0,0.5,0H34c0.2,0,0.4,0,0.6,0
			C34.5-148.3,34.5-148.3,34.5-148.4L34.5-148.4z"/>
		<path class="st5" d="M36.1-150.2l0-0.2c-0.8,0.1-1.2,0.7-1.2,1.4c0,0.5,0.3,0.8,0.7,0.8c0.4,0,0.7-0.3,0.7-0.7
			c0-0.4-0.3-0.7-0.7-0.7c-0.2,0-0.4,0.1-0.6,0.3C35.1-149.7,35.4-150.1,36.1-150.2z M36-148.9c0,0.3-0.2,0.5-0.5,0.5
			c-0.3,0-0.5-0.2-0.5-0.5c0-0.3,0.2-0.5,0.5-0.5C35.8-149.3,36-149.1,36-148.9z"/>
		<path class="st5" d="M36.5-150.3c0,0.1,0,0.2,0,0.2c0.2,0,0.4,0,0.7,0c0.2,0,0.4,0,0.5,0l-0.7,1.3c-0.1,0.2-0.2,0.4-0.3,0.5l0.2,0
			c0-0.1,0.1-0.3,0.2-0.4l0.7-1.3c0.1-0.1,0.1-0.3,0.2-0.3l-0.1-0.1c-0.2,0-0.5,0-0.7,0C36.9-150.3,36.7-150.3,36.5-150.3z"/>
		<path class="st5" d="M38.7-148.3c0-0.1-0.1-0.2-0.2-0.2c-0.1,0-0.2,0.1-0.2,0.2c0,0.1,0.1,0.2,0.2,0.2
			C38.6-148.2,38.7-148.2,38.7-148.3z"/>
		<path class="st5" d="M39.4-148.4c0.2-0.2,0.4-0.4,0.6-0.5c0.3-0.3,0.5-0.5,0.5-0.8c0-0.4-0.3-0.6-0.6-0.6c-0.2,0-0.5,0.1-0.7,0.3
			l0.1,0.2c0.2-0.2,0.4-0.3,0.6-0.3c0.3,0,0.4,0.2,0.4,0.4c0,0.3-0.3,0.7-1.1,1.4l0,0.2c0.2,0,0.4,0,0.7,0c0.3,0,0.5,0,0.7,0
			c0-0.1,0-0.1,0-0.2C40.2-148.4,39.7-148.4,39.4-148.4z"/>
		<path class="st5" d="M40.8-148.3c0.2,0.1,0.4,0.1,0.5,0.1c0.5,0,0.8-0.3,0.8-0.6c0-0.3-0.2-0.5-0.7-0.5c0.4-0.1,0.6-0.3,0.6-0.6
			c0-0.3-0.3-0.5-0.7-0.5c-0.2,0-0.5,0.1-0.7,0.2l0.1,0.2c0.2-0.1,0.4-0.2,0.6-0.2c0.3,0,0.4,0.1,0.4,0.3c0,0.2-0.2,0.4-0.8,0.5
			l0,0.2c0.5,0,0.8,0.2,0.8,0.4c0,0.2-0.2,0.4-0.6,0.4c-0.2,0-0.4,0-0.6-0.1C40.8-148.5,40.8-148.3,40.8-148.3z"/>
		<text transform="matrix(0.48 0 0 0.48 -27.6573 -142.0645)" class="st2 st6 st7">R</text>
		<text transform="matrix(0.48 0 0 0.48 -25.7959 -142.0645)" class="st2 st6 st7">e</text>
		<text transform="matrix(0.48 0 0 0.48 -24.2697 -142.0645)" class="st2 st6 st7">g</text>
		<text transform="matrix(0.48 0 0 0.48 -22.8322 -142.0645)" class="st2 st6 st7">ional</text>
		<path class="st5" d="M36.8-142.3c0.2-0.2,0.4-0.4,0.6-0.5c0.3-0.3,0.5-0.5,0.5-0.8c0-0.4-0.3-0.6-0.6-0.6c-0.2,0-0.5,0.1-0.7,0.3
			l0.1,0.2c0.2-0.2,0.4-0.3,0.6-0.3c0.3,0,0.4,0.2,0.4,0.4c0,0.3-0.3,0.7-1.1,1.4l0,0.2c0.2,0,0.4,0,0.7,0c0.3,0,0.5,0,0.7,0
			c0-0.1,0-0.1,0-0.2C37.6-142.3,37.2-142.3,36.8-142.3z"/>
		<path class="st5" d="M38.7-142.2c0-0.1-0.1-0.2-0.2-0.2c-0.1,0-0.2,0.1-0.2,0.2c0,0.1,0.1,0.2,0.2,0.2
			C38.6-142,38.7-142.1,38.7-142.2z"/>
		<path class="st5" d="M39.2-142.2l0,0.2c0.8-0.1,1.2-0.7,1.2-1.4c0-0.5-0.3-0.8-0.7-0.8c-0.4,0-0.7,0.3-0.7,0.7
			c0,0.4,0.3,0.7,0.7,0.7c0.2,0,0.4-0.1,0.6-0.3C40.2-142.7,39.8-142.3,39.2-142.2z M39.3-143.5c0-0.3,0.2-0.5,0.5-0.5
			c0.3,0,0.5,0.2,0.5,0.5c0,0.3-0.2,0.5-0.5,0.5C39.5-143,39.3-143.2,39.3-143.5z"/>
		<path class="st5" d="M40.8-142.1c0.2,0.1,0.4,0.1,0.5,0.1c0.5,0,0.8-0.3,0.8-0.6c0-0.3-0.2-0.5-0.7-0.5c0.4-0.1,0.6-0.3,0.6-0.6
			c0-0.3-0.3-0.5-0.7-0.5c-0.2,0-0.5,0.1-0.7,0.2l0.1,0.2c0.2-0.1,0.4-0.2,0.6-0.2c0.3,0,0.4,0.1,0.4,0.3c0,0.2-0.2,0.4-0.8,0.5
			l0,0.2c0.5,0,0.8,0.2,0.8,0.4c0,0.2-0.2,0.4-0.6,0.4c-0.2,0-0.4,0-0.6-0.1C40.8-142.3,40.8-142.1,40.8-142.1z"/>
		<text transform="matrix(0.48 0 0 0.48 -27.6573 -135.8971)" class="st2 st8 st7">T</text>
		<text transform="matrix(0.48 0 0 0.48 -25.9159 -135.8971)" class="st2 st8 st7">o</text>
		<text transform="matrix(0.48 0 0 0.48 -24.1958 -135.8971)" class="st2 st8 st7">t</text>
		<text transform="matrix(0.48 0 0 0.48 -23.0012 -135.8971)" class="st2 st8 st7">al</text>
		<path class="st5" d="M33.1-135.9c0.2,0.1,0.4,0.1,0.5,0.1c0.5,0,0.9-0.2,0.9-0.6c0-0.2-0.2-0.4-0.6-0.5c0.3-0.1,0.5-0.3,0.5-0.6
			c0-0.3-0.3-0.5-0.7-0.5c-0.2,0-0.5,0.1-0.7,0.2l0.1,0.3c0.2-0.1,0.4-0.2,0.5-0.2c0.2,0,0.3,0.1,0.3,0.2c0,0.2-0.2,0.3-0.7,0.4
			l0,0.3c0.4,0,0.7,0.1,0.7,0.3c0,0.2-0.2,0.2-0.5,0.2c-0.2,0-0.4,0-0.5-0.1L33.1-135.9z"/>
		<path class="st5" d="M34.8-138c0,0.1,0,0.3,0,0.4c0.2,0,0.4,0,0.6,0h0.4l-0.6,1.1c-0.1,0.2-0.2,0.4-0.3,0.5l0.5,0.1
			c0-0.1,0.1-0.3,0.2-0.4l0.5-1.1c0-0.1,0.1-0.3,0.2-0.4l-0.1-0.2c-0.2,0-0.4,0-0.7,0C35.2-138,35-138,34.8-138z"/>
		<path class="st5" d="M37.8-137.7l-0.1-0.4c-0.8,0.1-1.3,0.6-1.3,1.3c0,0.6,0.3,0.9,0.8,0.9c0.5,0,0.8-0.3,0.8-0.8
			c0-0.4-0.3-0.7-0.6-0.7c-0.2,0-0.3,0.1-0.4,0.2C37-137.4,37.3-137.6,37.8-137.7z M37.5-136.6c0,0.2-0.1,0.4-0.3,0.4
			c-0.2,0-0.3-0.1-0.3-0.4c0-0.2,0.1-0.4,0.3-0.4C37.4-136.9,37.5-136.8,37.5-136.6z"/>
		<path class="st5" d="M38.8-136.1c0-0.2-0.1-0.3-0.3-0.3c-0.2,0-0.3,0.1-0.3,0.3c0,0.1,0.1,0.3,0.3,0.3
			C38.7-135.8,38.8-136,38.8-136.1z"/>
		<path class="st5" d="M40.5-136.3c-0.1,0-0.3,0-0.4,0h-0.1v-1.3c0-0.1,0-0.3,0-0.4l-0.2,0l-0.2,0.1c-0.1,0-0.4,0.1-0.6,0.2l0.1,0.4
			l0.4-0.1v1c0,0.1,0,0.1,0,0.2h-0.1c-0.1,0-0.3,0-0.4,0c0,0.1,0,0.3,0,0.4c0.2,0,0.3,0,0.4,0H40c0.2,0,0.4,0,0.6,0
			C40.5-135.9,40.5-136.2,40.5-136.3z"/>
		<path class="st5" d="M41.4-136.3c0.1-0.1,0.3-0.3,0.4-0.4c0.2-0.3,0.4-0.5,0.4-0.8c0-0.4-0.3-0.6-0.7-0.6c-0.3,0-0.5,0.1-0.7,0.2
			l0.1,0.4c0.2-0.1,0.4-0.2,0.5-0.2c0.2,0,0.3,0.1,0.3,0.3c0,0.3-0.3,0.6-1,1.1l0,0.3c0.2,0,0.5,0,0.7,0c0.3,0,0.5,0,0.7,0
			c0-0.2,0-0.3,0-0.4C42-136.3,41.7-136.3,41.4-136.3z"/>
		<path class="st9" d="M-29.5-158.4h73.7 M-29.5-152.3h73.7 M-29.5-146.1h73.7 M-29.5-140h73.7 M-29.5-133.8h73.7"/>
	</g>
	<path class="st10" d="M74.3,0.1C75.3,0,76.2,0,77.1,0v14.2c-0.7,0-1.4,0-2.1,0.1C75,14.3,74.3,0.1,74.3,0.1z"/>
	<path class="st11" d="M60.3,111.3c-26.4-8.1-43.1-34.1-39.7-61.5C24.1,22.4,46.7,1.4,74.3,0.1L75,14.3c-20.7,1-37.7,16.7-40.3,37.3
		s10,40,29.8,46.1L60.3,111.3z"/>
	<path class="st12" d="M77.1,0c22.4,0,42.7,13.1,51.9,33.5c9.2,20.4,5.6,44.3-9.2,61.1c-14.8,16.8-38.1,23.3-59.5,16.7l4.2-13.6
		c16,4.9,33.5,0,44.6-12.5c11.1-12.6,13.8-30.5,6.9-45.8c-6.9-15.3-22.1-25.1-38.9-25.1L77.1,0L77.1,0z"/>
</g>
</svg>
