<?xml version="1.0" encoding="utf-8"?>
<!-- Generator: Adobe Illustrator 24.1.0, SVG Export Plug-In . SVG Version: 6.00 Build 0)  -->
<svg version="1.1" id="Layer_1" xmlns:serif="http://www.serif.com/"
	 xmlns="http://www.w3.org/2000/svg" xmlns:xlink="http://www.w3.org/1999/xlink" x="0px" y="0px" viewBox="0 0 149.7 332.4"
	 style="enable-background:new 0 0 149.7 332.4;" xml:space="preserve">
<style type="text/css">
	.st0{clip-path:url(#SVGID_2_);}
	.st1{clip-path:url(#SVGID_4_);}
	.st2{fill:#1A1A1A;}
	.st3{font-family:'IdealSans-ExtraLight';}
	.st4{font-size:11.5177px;}
	.st5{font-family:'IdealSans-Light';}
	.st6{font-size:6.3987px;}
	.st7{fill-rule:evenodd;clip-rule:evenodd;fill:#1A1A1A;}
	.st8{font-family:'IdealSans-Semibold';}
	.st9{fill:none;stroke:#1A1A1A;stroke-width:0.16;stroke-miterlimit:2.5595;}
	.st10{fill:#808080;}
	.st11{fill:#707070;}
	.st12{fill:#606060;}
	.st13{fill:#505050;}
	.st14{fill:#404040;}
	.st15{fill:#303030;}
	.st16{fill:#202020;}
	.st17{fill:#BFE48E;}
	.st18{fill:#A1D35F;}
	.st19{fill:#8CC63F;}
</style>
<g>
	<defs>
		<rect id="SVGID_1_" x="-22.7" y="-18.3" width="192" height="511.9"/>
	</defs>
	<clipPath id="SVGID_2_">
		<use xlink:href="#SVGID_1_"  style="overflow:visible;"/>
	</clipPath>
	<g class="st0">
		<g>
			<defs>
				<rect id="SVGID_3_" x="-22.7" y="-18.3" width="192" height="511.9"/>
			</defs>
			<clipPath id="SVGID_4_">
				<use xlink:href="#SVGID_3_"  style="overflow:visible;"/>
			</clipPath>
			<g class="st1">
				<g id="Layer-1" serif:id="Layer 1">
				</g>
			</g>
		</g>
	</g>
</g>
<g id="Layer-11" serif:id="Layer 1">
	<g transform="matrix(2.08333,0,0,2.08333,61.4583,478.168)">
		<text transform="matrix(0.48 0 0 0.48 -5.2862 -162.0132)" class="st2 st3 st4">B</text>
		<text transform="matrix(0.48 0 0 0.48 -2.0851 -162.0132)" class="st2 st3 st4">y</text>
		<text transform="matrix(0.48 0 0 0.48 0.3917 -162.0132)" class="st2 st3 st4"> </text>
		<text transform="matrix(0.48 0 0 0.48 1.4863 -162.0132)" class="st2 st3 st4">Sector</text>
		<text transform="matrix(0.48 0 0 0.48 -29.5 -153.8091)" class="st2 st5 st6">F</text>
		<text transform="matrix(0.48 0 0 0.48 -27.9583 -153.8091)" class="st2 st5 st6">i</text>
		<text transform="matrix(0.48 0 0 0.48 -27.2641 -153.8091)" class="st2 st5 st6">n</text>
		<text transform="matrix(0.48 0 0 0.48 -25.5963 -153.8091)" class="st2 st5 st6">ance</text>
		<path class="st7" d="M32.7-154c-0.1,0-0.3,0-0.4,0h-0.2v-1.6c0-0.1,0-0.3,0-0.4l0,0l-0.2,0.1c-0.1,0-0.4,0.1-0.6,0.2l0,0.2
			l0.5-0.2v1.3c0,0.1,0,0.3,0,0.4h-0.2c-0.1,0-0.2,0-0.4,0c0,0.1,0,0.1,0,0.2c0.2,0,0.3,0,0.5,0h0.3c0.2,0,0.4,0,0.6,0
			C32.7-153.9,32.7-154,32.7-154L32.7-154z"/>
		<path class="st7" d="M33.1-153.9l0,0.2c0.8-0.1,1.2-0.7,1.2-1.4c0-0.5-0.3-0.8-0.7-0.8c-0.4,0-0.7,0.3-0.7,0.7
			c0,0.4,0.3,0.7,0.7,0.7c0.2,0,0.4-0.1,0.6-0.3C34-154.4,33.7-154,33.1-153.9z M33.1-155.2c0-0.3,0.2-0.5,0.5-0.5
			c0.3,0,0.5,0.2,0.5,0.5c0,0.3-0.2,0.5-0.5,0.5C33.3-154.8,33.1-155,33.1-155.2z"/>
		<path class="st7" d="M34.7-154.3c0,0.3,0.3,0.6,0.7,0.6c0.4,0,0.7-0.3,0.7-0.6c0-0.3-0.2-0.4-0.5-0.6c0.3-0.1,0.4-0.3,0.4-0.5
			c0-0.3-0.3-0.5-0.6-0.5c-0.4,0-0.7,0.2-0.7,0.6c0,0.3,0.2,0.4,0.4,0.5C34.9-154.8,34.7-154.6,34.7-154.3z M35.9-154.3
			c0,0.2-0.2,0.4-0.5,0.4c-0.3,0-0.5-0.2-0.5-0.4c0-0.2,0.2-0.4,0.5-0.5C35.7-154.7,35.9-154.6,35.9-154.3z M34.9-155.4
			c0-0.2,0.2-0.4,0.4-0.4c0.2,0,0.4,0.1,0.4,0.4c0,0.2-0.2,0.3-0.4,0.4C35.1-155.1,34.9-155.2,34.9-155.4z"/>
		<path class="st7" d="M36.8-153.9c0-0.1-0.1-0.2-0.2-0.2c-0.1,0-0.2,0.1-0.2,0.2c0,0.1,0.1,0.2,0.2,0.2
			C36.7-153.8,36.8-153.8,36.8-153.9z"/>
		<path class="st7" d="M37.5-154c0.2-0.2,0.4-0.4,0.6-0.5c0.3-0.3,0.5-0.5,0.5-0.8c0-0.4-0.3-0.6-0.6-0.6c-0.2,0-0.5,0.1-0.7,0.3
			l0.1,0.2c0.2-0.2,0.4-0.3,0.6-0.3c0.3,0,0.4,0.2,0.4,0.4c0,0.3-0.3,0.7-1.1,1.4l0,0.2c0.2,0,0.4,0,0.7,0c0.3,0,0.5,0,0.7,0
			c0-0.1,0-0.1,0-0.2C38.3-154,37.9-154,37.5-154z"/>
		<path class="st7" d="M39.3-154c0.2-0.2,0.4-0.4,0.6-0.5c0.3-0.3,0.5-0.5,0.5-0.8c0-0.4-0.3-0.6-0.6-0.6c-0.2,0-0.5,0.1-0.7,0.3
			l0.1,0.2c0.2-0.2,0.4-0.3,0.6-0.3c0.3,0,0.4,0.2,0.4,0.4c0,0.3-0.3,0.7-1.1,1.4l0,0.2c0.2,0,0.4,0,0.7,0c0.3,0,0.5,0,0.7,0
			c0-0.1,0-0.1,0-0.2C40-154,39.6-154,39.3-154z"/>
		<text transform="matrix(0.48 0 0 0.48 -29.5 -147.6662)" class="st2 st5 st6">W</text>
		<text transform="matrix(0.48 0 0 0.48 -26.6191 -147.6662)" class="st2 st5 st6">a</text>
		<text transform="matrix(0.48 0 0 0.48 -25.151 -147.6662)" class="st2 st5 st6">t</text>
		<text transform="matrix(0.48 0 0 0.48 -24.1127 -147.6662)" class="st2 st5 st6">er and Other U</text>
		<text transform="matrix(0.48 0 0 0.48 -4.8616 -147.6662)" class="st2 st5 st6">r</text>
		<text transform="matrix(0.48 0 0 0.48 -3.8509 -147.6662)" class="st2 st5 st6">b</text>
		<text transform="matrix(0.48 0 0 0.48 -2.1801 -147.6662)" class="st2 st5 st6">an Infr</text>
		<text transform="matrix(0.48 0 0 0.48 6.1006 -147.6662)" class="st2 st5 st6">a</text>
		<text transform="matrix(0.48 0 0 0.48 7.5744 -147.6662)" class="st2 st5 st6">s</text>
		<text transform="matrix(0.48 0 0 0.48 8.8217 -147.6662)" class="st2 st5 st6">tructur</text>
		<text transform="matrix(0.48 0 0 0.48 17.6947 -147.6662)" class="st2 st5 st6">e</text>
		<text transform="matrix(0.48 0 0 0.48 -29.5 -143.9804)" class="st2 st5 st6">and Services</text>
		<path class="st7" d="M33.1-147.8l0,0.2c0.8-0.1,1.2-0.7,1.2-1.4c0-0.5-0.3-0.8-0.7-0.8c-0.4,0-0.7,0.3-0.7,0.7
			c0,0.4,0.3,0.7,0.7,0.7c0.2,0,0.4-0.1,0.6-0.3C34-148.3,33.7-147.9,33.1-147.8z M33.1-149.1c0-0.3,0.2-0.5,0.5-0.5
			c0.3,0,0.5,0.2,0.5,0.5c0,0.3-0.2,0.5-0.5,0.5C33.3-148.6,33.1-148.8,33.1-149.1z"/>
		<path class="st7" d="M34.6-149.8c0,0.1,0,0.2,0,0.2c0.2,0,0.4,0,0.7,0c0.2,0,0.4,0,0.5,0l-0.7,1.3c-0.1,0.2-0.2,0.4-0.3,0.5l0.2,0
			c0-0.1,0.1-0.3,0.2-0.4l0.7-1.3c0.1-0.1,0.1-0.3,0.2-0.3l-0.1-0.1c-0.2,0-0.5,0-0.7,0C35.1-149.8,34.9-149.8,34.6-149.8z"/>
		<path class="st7" d="M36.8-147.8c0-0.1-0.1-0.2-0.2-0.2c-0.1,0-0.2,0.1-0.2,0.2c0,0.1,0.1,0.2,0.2,0.2
			C36.7-147.6,36.8-147.7,36.8-147.8z"/>
		<path class="st7" d="M37.3-147.7c0.2,0.1,0.4,0.1,0.5,0.1c0.5,0,0.8-0.3,0.8-0.6c0-0.3-0.2-0.5-0.7-0.5c0.4-0.1,0.6-0.3,0.6-0.6
			c0-0.3-0.3-0.5-0.7-0.5c-0.2,0-0.5,0.1-0.7,0.2l0.1,0.2c0.2-0.1,0.4-0.2,0.6-0.2c0.3,0,0.4,0.1,0.4,0.3c0,0.2-0.2,0.4-0.8,0.5
			l0,0.2c0.5,0,0.8,0.2,0.8,0.4c0,0.2-0.2,0.4-0.6,0.4c-0.2,0-0.4,0-0.6-0.1C37.2-147.9,37.3-147.7,37.3-147.7z"/>
		<path class="st7" d="M39.7-149.8c-0.5,0-0.7,0.5-0.7,1.1c0,0.6,0.2,1.1,0.7,1.1c0.5,0,0.7-0.5,0.7-1.1
			C40.4-149.3,40.2-149.8,39.7-149.8z M39.7-147.8c-0.3,0-0.5-0.4-0.5-0.9c0-0.5,0.2-0.9,0.5-0.9s0.5,0.4,0.5,0.9
			C40.2-148.2,40-147.8,39.7-147.8z"/>
		<text transform="matrix(0.48 0 0 0.48 -29.5 -137.8379)" class="st2 st5 st6">Public Sector Management</text>
		<path class="st7" d="M34.2-139.8l0-0.2c-0.8,0.1-1.2,0.7-1.2,1.4c0,0.5,0.3,0.8,0.7,0.8c0.4,0,0.7-0.3,0.7-0.7
			c0-0.4-0.3-0.7-0.7-0.7c-0.2,0-0.4,0.1-0.6,0.3C33.3-139.3,33.6-139.7,34.2-139.8z M34.2-138.5c0,0.3-0.2,0.5-0.5,0.5
			c-0.3,0-0.5-0.2-0.5-0.5c0-0.3,0.2-0.5,0.5-0.5C34-139,34.2-138.8,34.2-138.5z"/>
		<path class="st7" d="M36.1-138c-0.1,0-0.3,0-0.4,0h-0.2v-1.6c0-0.1,0-0.3,0-0.4l0,0l-0.2,0.1c-0.1,0-0.4,0.1-0.6,0.2l0,0.2
			l0.5-0.2v1.3c0,0.1,0,0.3,0,0.4h-0.2c-0.1,0-0.2,0-0.4,0c0,0.1,0,0.1,0,0.2c0.2,0,0.3,0,0.5,0h0.3c0.2,0,0.4,0,0.6,0
			C36.1-137.9,36.1-138,36.1-138L36.1-138z"/>
		<path class="st7" d="M36.8-138c0-0.1-0.1-0.2-0.2-0.2c-0.1,0-0.2,0.1-0.2,0.2c0,0.1,0.1,0.2,0.2,0.2
			C36.7-137.8,36.8-137.9,36.8-138z"/>
		<path class="st7" d="M38-140c-0.5,0-0.7,0.5-0.7,1.1c0,0.6,0.2,1.1,0.7,1.1c0.5,0,0.7-0.5,0.7-1.1C38.7-139.5,38.4-140,38-140z
			 M37.9-138c-0.3,0-0.5-0.4-0.5-0.9c0-0.5,0.2-0.9,0.5-0.9s0.5,0.4,0.5,0.9C38.5-138.4,38.3-138,37.9-138z"/>
		<path class="st7" d="M39.7-140c-0.5,0-0.7,0.5-0.7,1.1c0,0.6,0.2,1.1,0.7,1.1c0.5,0,0.7-0.5,0.7-1.1C40.4-139.5,40.2-140,39.7-140
			z M39.7-138c-0.3,0-0.5-0.4-0.5-0.9c0-0.5,0.2-0.9,0.5-0.9s0.5,0.4,0.5,0.9C40.2-138.4,40-138,39.7-138z"/>
		<text transform="matrix(0.48 0 0 0.48 -29.5 -131.6949)" class="st5 st6">Others</text>
		<text transform="matrix(0.48 0 0 0.48 -25.8142 -125.5524)" class="st2 st5 st6">Ener</text>
		<text transform="matrix(0.48 0 0 0.48 -19.9605 -125.5524)" class="st2 st5 st6">g</text>
		<text transform="matrix(0.48 0 0 0.48 -18.5228 -125.5524)" class="st2 st5 st6">y</text>
		<path class="st7" d="M34.6-127.7c0,0.1,0,0.2,0,0.2c0.2,0,0.4,0,0.7,0c0.2,0,0.4,0,0.5,0l-0.7,1.3c-0.1,0.2-0.2,0.4-0.3,0.5l0.2,0
			c0-0.1,0.1-0.3,0.2-0.4l0.7-1.3c0.1-0.1,0.1-0.3,0.2-0.3l-0.1-0.1c-0.2,0-0.5,0-0.7,0C35.1-127.7,34.9-127.7,34.6-127.7z"/>
		<path class="st7" d="M36.8-125.7c0-0.1-0.1-0.2-0.2-0.2c-0.1,0-0.2,0.1-0.2,0.2c0,0.1,0.1,0.2,0.2,0.2
			C36.7-125.5,36.8-125.6,36.8-125.7z"/>
		<path class="st7" d="M37.5-125.7c0.2-0.2,0.4-0.4,0.6-0.5c0.3-0.3,0.5-0.5,0.5-0.8c0-0.4-0.3-0.6-0.6-0.6c-0.2,0-0.5,0.1-0.7,0.3
			l0.1,0.2c0.2-0.2,0.4-0.3,0.6-0.3c0.3,0,0.4,0.2,0.4,0.4c0,0.3-0.3,0.7-1.1,1.4l0,0.2c0.2,0,0.4,0,0.7,0c0.3,0,0.5,0,0.7,0
			c0-0.1,0-0.1,0-0.2C38.3-125.7,37.9-125.7,37.5-125.7z"/>
		<path class="st7" d="M39-125.6c0.2,0.1,0.3,0.1,0.5,0.1c0.5,0,0.8-0.3,0.8-0.7c0-0.4-0.3-0.6-0.9-0.6c-0.1,0-0.1,0-0.2,0l0-0.7
			h0.4c0.2,0,0.4,0,0.6,0c0-0.1,0-0.2,0-0.2c-0.2,0-0.3,0-0.6,0c-0.3,0-0.4,0-0.6,0l0,0c0,0.1,0,0.2,0,0.3l0,0.3c0,0.1,0,0.2,0,0.3
			l0,0c0.1,0,0.2,0,0.3,0c0.5,0,0.7,0.2,0.7,0.4c0,0.2-0.2,0.4-0.6,0.4c-0.2,0-0.4,0-0.6-0.1C39-125.8,39-125.6,39-125.6z"/>
		<text transform="matrix(0.48 0 0 0.48 -25.8142 -119.4094)" class="st2 st5 st6">Information and Communication</text>
		<text transform="matrix(0.48 0 0 0.48 -25.8142 -115.7239)" class="st2 st5 st6">T</text>
		<text transform="matrix(0.48 0 0 0.48 -24.205 -115.7239)" class="st2 st5 st6">e</text>
		<text transform="matrix(0.48 0 0 0.48 -22.6694 -115.7239)" class="st2 st5 st6">c</text>
		<text transform="matrix(0.48 0 0 0.48 -21.198 -115.7239)" class="st2 st5 st6">hnology</text>
		<path class="st7" d="M34.7-119.5c0.2,0.1,0.4,0.1,0.5,0.1c0.5,0,0.8-0.3,0.8-0.6c0-0.3-0.2-0.5-0.7-0.5c0.4-0.1,0.6-0.3,0.6-0.6
			c0-0.3-0.3-0.5-0.7-0.5c-0.2,0-0.5,0.1-0.7,0.2l0.1,0.2c0.2-0.1,0.4-0.2,0.6-0.2c0.3,0,0.4,0.1,0.4,0.3c0,0.2-0.2,0.4-0.8,0.5
			l0,0.2c0.5,0,0.8,0.2,0.8,0.4c0,0.2-0.2,0.4-0.6,0.4c-0.2,0-0.4,0-0.6-0.1C34.6-119.7,34.7-119.5,34.7-119.5z"/>
		<path class="st7" d="M36.8-119.5c0-0.1-0.1-0.2-0.2-0.2c-0.1,0-0.2,0.1-0.2,0.2c0,0.1,0.1,0.2,0.2,0.2
			C36.7-119.4,36.8-119.4,36.8-119.5z"/>
		<path class="st7" d="M38.2-119.4h0.2c0-0.1,0-0.3,0-0.4v-0.2l0.3,0c0-0.1,0-0.1,0-0.2c-0.1,0-0.2,0-0.3,0v-1c0-0.1,0-0.3,0-0.4
			l-0.1,0l-0.2,0.3l-0.9,1.2l0.1,0.1c0.2,0,0.5,0,0.8,0h0.2v0.1C38.2-119.8,38.2-119.5,38.2-119.4z M38.2-121.2v1h-0.8L38.2-121.2z"
			/>
		<path class="st7" d="M39-119.9c0,0.3,0.3,0.6,0.7,0.6c0.4,0,0.7-0.3,0.7-0.6c0-0.3-0.2-0.4-0.5-0.6c0.3-0.1,0.4-0.3,0.4-0.5
			c0-0.3-0.3-0.5-0.6-0.5c-0.4,0-0.7,0.2-0.7,0.6c0,0.3,0.2,0.4,0.4,0.5C39.2-120.4,39-120.2,39-119.9z M40.2-119.9
			c0,0.2-0.2,0.4-0.5,0.4c-0.3,0-0.5-0.2-0.5-0.4c0-0.2,0.2-0.4,0.5-0.5C40-120.3,40.2-120.2,40.2-119.9z M39.2-121
			c0-0.2,0.2-0.4,0.4-0.4c0.2,0,0.4,0.1,0.4,0.4c0,0.2-0.2,0.3-0.4,0.4C39.4-120.7,39.2-120.8,39.2-121z"/>
		<text transform="matrix(0.48 0 0 0.48 -25.8142 -109.5816)" class="st2 st5 st6">Health</text>
		<path class="st7" d="M35-109.8c0.2-0.2,0.4-0.4,0.6-0.5c0.3-0.3,0.5-0.6,0.5-0.8c0-0.4-0.3-0.6-0.6-0.6c-0.2,0-0.5,0.1-0.7,0.3
			l0.1,0.2c0.2-0.2,0.4-0.3,0.6-0.3c0.3,0,0.4,0.2,0.4,0.4c0,0.3-0.3,0.7-1.1,1.4l0,0.2c0.2,0,0.4,0,0.7,0c0.3,0,0.5,0,0.7,0
			c0-0.1,0-0.1,0-0.2C35.7-109.8,35.3-109.8,35-109.8z"/>
		<path class="st7" d="M36.8-109.7c0-0.1-0.1-0.2-0.2-0.2c-0.1,0-0.2,0.1-0.2,0.2c0,0.1,0.1,0.2,0.2,0.2
			C36.7-109.5,36.8-109.6,36.8-109.7z"/>
		<path class="st7" d="M37.2-110.1c0,0.3,0.3,0.6,0.7,0.6c0.4,0,0.7-0.3,0.7-0.6c0-0.3-0.2-0.4-0.5-0.6c0.3-0.1,0.4-0.3,0.4-0.5
			c0-0.3-0.3-0.5-0.6-0.5c-0.4,0-0.7,0.2-0.7,0.6c0,0.3,0.2,0.4,0.4,0.5C37.4-110.6,37.2-110.4,37.2-110.1z M38.4-110.1
			c0,0.2-0.2,0.4-0.5,0.4c-0.3,0-0.5-0.2-0.5-0.4c0-0.2,0.2-0.4,0.5-0.5C38.3-110.5,38.4-110.3,38.4-110.1z M37.5-111.2
			c0-0.2,0.2-0.4,0.4-0.4c0.2,0,0.4,0.1,0.4,0.4c0,0.2-0.2,0.3-0.4,0.4C37.7-110.9,37.5-111,37.5-111.2z"/>
		<path class="st7" d="M39.7-111.7c-0.5,0-0.7,0.5-0.7,1.1c0,0.6,0.2,1.1,0.7,1.1c0.5,0,0.7-0.5,0.7-1.1
			C40.4-111.3,40.2-111.7,39.7-111.7z M39.7-109.7c-0.3,0-0.5-0.4-0.5-0.9c0-0.5,0.2-0.9,0.5-0.9s0.5,0.4,0.5,0.9
			C40.2-110.1,40-109.7,39.7-109.7z"/>
		<path class="st7" d="M-11.2-102.9c0.3-0.2,0.4-0.4,0.4-0.6c0-0.2-0.1-0.3-0.2-0.3c-0.1,0-0.2,0.1-0.2,0.2l0,0
			c0.1,0,0.1,0.1,0.1,0.2c0,0.1-0.1,0.2-0.2,0.3l0,0L-11.2-102.9z"/>
		<path class="st7" d="M13.8-102.9c0.3-0.2,0.4-0.4,0.4-0.6c0-0.2-0.1-0.3-0.2-0.3c-0.1,0-0.2,0.1-0.2,0.2l0,0
			c0.1,0,0.1,0.1,0.1,0.2c0,0.1-0.1,0.2-0.2,0.3l0,0L13.8-102.9z"/>
		<text transform="matrix(0.48 0 0 0.48 -25.8142 -103.4386)" class="st2 st5 st6">Agricultur</text>
		<text transform="matrix(0.48 0 0 0.48 -13.019 -103.4386)" class="st2 st5 st6">e</text>
		<text transform="matrix(0.48 0 0 0.48 -10.6234 -103.4386)" class="st2 st5 st6"> </text>
		<text transform="matrix(0.48 0 0 0.48 -9.9876 -103.4386)" class="st2 st5 st6">Natur</text>
		<text transform="matrix(0.48 0 0 0.48 -2.4564 -103.4386)" class="st2 st5 st6">a</text>
		<text transform="matrix(0.48 0 0 0.48 -0.9822 -103.4386)" class="st2 st5 st6">l</text>
		<text transform="matrix(0.48 0 0 0.48 -0.288 -103.4386)" class="st2 st5 st6"> R</text>
		<text transform="matrix(0.48 0 0 0.48 2.2091 -103.4386)" class="st2 st5 st6">e</text>
		<text transform="matrix(0.48 0 0 0.48 3.7447 -103.4386)" class="st2 st5 st6">s</text>
		<text transform="matrix(0.48 0 0 0.48 4.9916 -103.4386)" class="st2 st5 st6">our</text>
		<text transform="matrix(0.48 0 0 0.48 9.3041 -103.4386)" class="st2 st5 st6">c</text>
		<text transform="matrix(0.48 0 0 0.48 10.775 -103.4386)" class="st2 st5 st6">es</text>
		<text transform="matrix(0.48 0 0 0.48 14.4022 -103.4386)" class="st2 st5 st6"> </text>
		<text transform="matrix(0.48 0 0 0.48 15.0379 -103.4386)" class="st2 st5 st6">and</text>
		<text transform="matrix(0.48 0 0 0.48 -25.8142 -99.7528)" class="st2 st5 st6">R</text>
		<text transform="matrix(0.48 0 0 0.48 -23.9378 -99.7528)" class="st2 st5 st6">u</text>
		<text transform="matrix(0.48 0 0 0.48 -22.267 -99.7528)" class="st2 st5 st6">r</text>
		<text transform="matrix(0.48 0 0 0.48 -21.2964 -99.7528)" class="st2 st5 st6">a</text>
		<text transform="matrix(0.48 0 0 0.48 -19.8222 -99.7528)" class="st2 st5 st6">l</text>
		<text transform="matrix(0.48 0 0 0.48 -19.128 -99.7528)" class="st2 st5 st6"> Dev</text>
		<text transform="matrix(0.48 0 0 0.48 -13.2986 -99.7528)" class="st2 st5 st6">e</text>
		<text transform="matrix(0.48 0 0 0.48 -11.7627 -99.7528)" class="st2 st5 st6">l</text>
		<text transform="matrix(0.48 0 0 0.48 -11.0688 -99.7528)" class="st2 st5 st6">opment</text>
		<path class="st7" d="M35-103.6c0.2-0.2,0.4-0.4,0.6-0.5c0.3-0.3,0.5-0.6,0.5-0.8c0-0.4-0.3-0.6-0.6-0.6c-0.2,0-0.5,0.1-0.7,0.3
			l0.1,0.2c0.2-0.2,0.4-0.3,0.6-0.3c0.3,0,0.4,0.2,0.4,0.4c0,0.3-0.3,0.7-1.1,1.4l0,0.2c0.2,0,0.4,0,0.7,0c0.3,0,0.5,0,0.7,0
			c0-0.1,0-0.1,0-0.2C35.7-103.6,35.3-103.6,35-103.6z"/>
		<path class="st7" d="M36.8-103.6c0-0.1-0.1-0.2-0.2-0.2c-0.1,0-0.2,0.1-0.2,0.2c0,0.1,0.1,0.2,0.2,0.2
			C36.7-103.4,36.8-103.5,36.8-103.6z"/>
		<path class="st7" d="M38.2-103.4h0.2c0-0.1,0-0.3,0-0.4v-0.2l0.3,0c0-0.1,0-0.1,0-0.2c-0.1,0-0.2,0-0.3,0v-1c0-0.1,0-0.3,0-0.4
			l-0.1,0l-0.2,0.3l-0.9,1.2l0.1,0.1c0.2,0,0.5,0,0.8,0h0.2v0.1C38.2-103.8,38.2-103.5,38.2-103.4z M38.2-105.2v1h-0.8L38.2-105.2z"
			/>
		<path class="st7" d="M39-103.9c0,0.3,0.3,0.6,0.7,0.6c0.4,0,0.7-0.3,0.7-0.6c0-0.3-0.2-0.4-0.5-0.6c0.3-0.1,0.4-0.3,0.4-0.5
			c0-0.3-0.3-0.5-0.6-0.5c-0.4,0-0.7,0.2-0.7,0.6c0,0.3,0.2,0.4,0.4,0.5C39.2-104.4,39-104.2,39-103.9z M40.2-104
			c0,0.2-0.2,0.4-0.5,0.4c-0.3,0-0.5-0.2-0.5-0.4c0-0.2,0.2-0.4,0.5-0.5C40-104.3,40.2-104.2,40.2-104z M39.2-105.1
			c0-0.2,0.2-0.4,0.4-0.4c0.2,0,0.4,0.1,0.4,0.4c0,0.2-0.2,0.3-0.4,0.4C39.4-104.7,39.2-104.9,39.2-105.1z"/>
		<text transform="matrix(0.48 0 0 0.48 -25.8142 -93.6103)" class="st2 st5 st6">Industry and T</text>
		<text transform="matrix(0.48 0 0 0.48 -7.4814 -93.6103)" class="st2 st5 st6">r</text>
		<text transform="matrix(0.48 0 0 0.48 -6.5106 -93.6103)" class="st2 st5 st6">a</text>
		<text transform="matrix(0.48 0 0 0.48 -5.0364 -93.6103)" class="st2 st5 st6">d</text>
		<text transform="matrix(0.48 0 0 0.48 -3.3658 -93.6103)" class="st2 st5 st6">e</text>
		<path class="st7" d="M35-93.8c0.2-0.2,0.4-0.4,0.6-0.5c0.3-0.3,0.5-0.5,0.5-0.8c0-0.4-0.3-0.6-0.6-0.6c-0.2,0-0.5,0.1-0.7,0.3
			l0.1,0.2c0.2-0.2,0.4-0.3,0.6-0.3c0.3,0,0.4,0.2,0.4,0.4c0,0.3-0.3,0.7-1.1,1.4l0,0.2c0.2,0,0.4,0,0.7,0c0.3,0,0.5,0,0.7,0
			c0-0.1,0-0.1,0-0.2C35.7-93.8,35.3-93.8,35-93.8z"/>
		<path class="st7" d="M36.8-93.7c0-0.1-0.1-0.2-0.2-0.2c-0.1,0-0.2,0.1-0.2,0.2c0,0.1,0.1,0.2,0.2,0.2
			C36.7-93.6,36.8-93.6,36.8-93.7z"/>
		<path class="st7" d="M38-95.8c-0.5,0-0.7,0.5-0.7,1.1c0,0.6,0.2,1.1,0.7,1.1c0.5,0,0.7-0.5,0.7-1.1C38.7-95.3,38.4-95.8,38-95.8z
			 M37.9-93.7c-0.3,0-0.5-0.4-0.5-0.9c0-0.5,0.2-0.9,0.5-0.9s0.5,0.4,0.5,0.9C38.5-94.2,38.3-93.7,37.9-93.7z"/>
		<path class="st7" d="M39.7-95.8c-0.5,0-0.7,0.5-0.7,1.1c0,0.6,0.2,1.1,0.7,1.1c0.5,0,0.7-0.5,0.7-1.1
			C40.4-95.3,40.2-95.8,39.7-95.8z M39.7-93.7c-0.3,0-0.5-0.4-0.5-0.9c0-0.5,0.2-0.9,0.5-0.9s0.5,0.4,0.5,0.9
			C40.2-94.2,40-93.7,39.7-93.7z"/>
		<text transform="matrix(0.48 0 0 0.48 -25.8142 -87.4673)" class="st2 st5 st6">T</text>
		<text transform="matrix(0.48 0 0 0.48 -24.1741 -87.4673)" class="st2 st5 st6">r</text>
		<text transform="matrix(0.48 0 0 0.48 -23.2038 -87.4673)" class="st2 st5 st6">a</text>
		<text transform="matrix(0.48 0 0 0.48 -21.7296 -87.4673)" class="st2 st5 st6">n</text>
		<text transform="matrix(0.48 0 0 0.48 -20.0617 -87.4673)" class="st2 st5 st6">sport</text>
		<path class="st7" d="M36.1-87.7c-0.1,0-0.3,0-0.4,0h-0.2v-1.6c0-0.1,0-0.3,0-0.4l0,0l-0.2,0.1c-0.1,0-0.4,0.1-0.6,0.2l0,0.2
			l0.5-0.2v1.3c0,0.1,0,0.3,0,0.4h-0.2c-0.1,0-0.2,0-0.4,0c0,0.1,0,0.1,0,0.2c0.2,0,0.3,0,0.5,0h0.3c0.2,0,0.4,0,0.6,0
			C36.1-87.5,36.1-87.6,36.1-87.7L36.1-87.7z"/>
		<path class="st7" d="M36.8-87.6c0-0.1-0.1-0.2-0.2-0.2c-0.1,0-0.2,0.1-0.2,0.2c0,0.1,0.1,0.2,0.2,0.2
			C36.7-87.4,36.8-87.5,36.8-87.6z"/>
		<path class="st7" d="M37.3-87.5c0.2,0.1,0.3,0.1,0.5,0.1c0.5,0,0.8-0.3,0.8-0.7c0-0.4-0.3-0.6-0.9-0.6c-0.1,0-0.1,0-0.2,0l0-0.7
			H38c0.2,0,0.4,0,0.6,0c0-0.1,0-0.2,0-0.2c-0.2,0-0.3,0-0.6,0c-0.3,0-0.4,0-0.6,0l0,0c0,0.1,0,0.2,0,0.3l0,0.3c0,0.1,0,0.2,0,0.3
			l0,0c0.1,0,0.2,0,0.3,0c0.5,0,0.7,0.2,0.7,0.4c0,0.2-0.2,0.4-0.6,0.4c-0.2,0-0.4,0-0.6-0.1L37.3-87.5L37.3-87.5z"/>
		<path class="st7" d="M39.7-89.6c-0.5,0-0.7,0.5-0.7,1.1c0,0.6,0.2,1.1,0.7,1.1c0.5,0,0.7-0.5,0.7-1.1
			C40.4-89.2,40.2-89.6,39.7-89.6z M39.7-87.6c-0.3,0-0.5-0.4-0.5-0.9c0-0.5,0.2-0.9,0.5-0.9s0.5,0.4,0.5,0.9
			C40.2-88,40-87.6,39.7-87.6z"/>
		<text transform="matrix(0.48 0 0 0.48 -25.8142 -81.3243)" class="st2 st5 st6">Education</text>
		<path class="st7" d="M35.4-83.5c-0.5,0-0.7,0.5-0.7,1.1c0,0.6,0.2,1.1,0.7,1.1c0.5,0,0.7-0.5,0.7-1.1C36.1-83,35.9-83.5,35.4-83.5
			z M35.4-81.5c-0.3,0-0.5-0.4-0.5-0.9c0-0.5,0.2-0.9,0.5-0.9c0.3,0,0.5,0.4,0.5,0.9C35.9-81.9,35.7-81.5,35.4-81.5z"/>
		<path class="st7" d="M36.8-81.4c0-0.1-0.1-0.2-0.2-0.2c-0.1,0-0.2,0.1-0.2,0.2c0,0.1,0.1,0.2,0.2,0.2
			C36.7-81.3,36.8-81.4,36.8-81.4z"/>
		<path class="st7" d="M38.7-81.5c-0.1,0-0.3,0-0.4,0h-0.2v-1.6c0-0.1,0-0.3,0-0.4l0,0l-0.2,0.1c-0.1,0-0.4,0.1-0.6,0.2l0,0.2
			l0.5-0.2v1.3c0,0.1,0,0.3,0,0.4h-0.2c-0.1,0-0.2,0-0.4,0c0,0.1,0,0.1,0,0.2c0.2,0,0.3,0,0.5,0h0.3c0.2,0,0.4,0,0.6,0
			C38.7-81.4,38.7-81.5,38.7-81.5L38.7-81.5z"/>
		<path class="st7" d="M39.7-83.5c-0.5,0-0.7,0.5-0.7,1.1c0,0.6,0.2,1.1,0.7,1.1c0.5,0,0.7-0.5,0.7-1.1C40.4-83,40.2-83.5,39.7-83.5
			z M39.7-81.5c-0.3,0-0.5-0.4-0.5-0.9c0-0.5,0.2-0.9,0.5-0.9s0.5,0.4,0.5,0.9C40.2-81.9,40-81.5,39.7-81.5z"/>
		<text transform="matrix(0.48 0 0 0.48 -29.5 -75.1575)" class="st2 st8 st6">T</text>
		<text transform="matrix(0.48 0 0 0.48 -27.7586 -75.1575)" class="st2 st8 st6">o</text>
		<text transform="matrix(0.48 0 0 0.48 -26.0385 -75.1575)" class="st2 st8 st6">t</text>
		<text transform="matrix(0.48 0 0 0.48 -24.8439 -75.1575)" class="st2 st8 st6">al</text>
		<path class="st7" d="M31.2-75.2c0.2,0.1,0.4,0.1,0.5,0.1c0.5,0,0.9-0.2,0.9-0.6c0-0.2-0.2-0.4-0.6-0.5c0.3-0.1,0.5-0.3,0.5-0.6
			c0-0.3-0.3-0.5-0.7-0.5c-0.2,0-0.5,0.1-0.7,0.2l0.1,0.3c0.2-0.1,0.4-0.2,0.5-0.2c0.2,0,0.3,0.1,0.3,0.2c0,0.2-0.2,0.3-0.7,0.4
			l0,0.3c0.4,0,0.7,0.1,0.7,0.3c0,0.2-0.2,0.2-0.5,0.2c-0.2,0-0.4,0-0.5-0.1L31.2-75.2z"/>
		<path class="st7" d="M32.9-77.3c0,0.1,0,0.3,0,0.4c0.2,0,0.4,0,0.6,0h0.4l-0.6,1.1c-0.1,0.2-0.2,0.4-0.3,0.5l0.5,0.1
			c0-0.1,0.1-0.3,0.2-0.4l0.5-1.1c0-0.1,0.1-0.3,0.2-0.4l-0.1-0.2c-0.2,0-0.4,0-0.7,0C33.3-77.3,33.2-77.3,32.9-77.3L32.9-77.3z"/>
		<path class="st7" d="M36-76.9l-0.1-0.4c-0.8,0.1-1.3,0.6-1.3,1.3c0,0.6,0.3,0.9,0.8,0.9c0.5,0,0.8-0.3,0.8-0.8
			c0-0.4-0.3-0.7-0.6-0.7c-0.2,0-0.3,0.1-0.4,0.2C35.2-76.7,35.5-76.9,36-76.9L36-76.9z M35.7-75.8c0,0.2-0.1,0.4-0.3,0.4
			c-0.2,0-0.3-0.1-0.3-0.4c0-0.2,0.1-0.4,0.3-0.4C35.6-76.2,35.7-76.1,35.7-75.8z"/>
		<path class="st7" d="M36.9-75.4c0-0.2-0.1-0.3-0.3-0.3c-0.2,0-0.3,0.1-0.3,0.3c0,0.1,0.1,0.3,0.3,0.3
			C36.8-75.1,36.9-75.2,36.9-75.4L36.9-75.4z"/>
		<path class="st7" d="M38.7-75.6c-0.1,0-0.3,0-0.4,0h-0.1v-1.3c0-0.1,0-0.3,0-0.4l-0.2,0l-0.2,0.1c-0.1,0-0.4,0.1-0.6,0.2l0.1,0.4
			l0.4-0.1v1c0,0.1,0,0.1,0,0.2h-0.1c-0.1,0-0.3,0-0.4,0c0,0.1,0,0.3,0,0.4c0.2,0,0.3,0,0.4,0h0.4c0.2,0,0.4,0,0.6,0
			C38.7-75.2,38.7-75.5,38.7-75.6L38.7-75.6z"/>
		<path class="st7" d="M39.5-75.5c0.1-0.1,0.3-0.3,0.4-0.4c0.2-0.3,0.4-0.5,0.4-0.8c0-0.4-0.3-0.6-0.7-0.6c-0.3,0-0.5,0.1-0.7,0.2
			l0.1,0.4c0.2-0.1,0.4-0.2,0.5-0.2c0.2,0,0.3,0.1,0.3,0.3c0,0.3-0.3,0.6-1,1.1l0,0.3c0.2,0,0.5,0,0.7,0c0.3,0,0.5,0,0.7,0
			c0-0.2,0-0.3,0-0.4C40.2-75.6,39.8-75.5,39.5-75.5z"/>
		<path class="st9" d="M-31.3-157.9h73.7 M-31.3-151.7h73.7 M-31.3-141.9h73.7 M-31.3-135.7h73.7 M-31.3-129.6h73.7 M-31.3-123.5
			h73.7 M-31.3-113.6h73.7 M-31.3-107.5h73.7 M-31.3-97.7h73.7 M-31.3-91.5h73.7 M-31.3-85.4h73.7 M-31.3-79.2h73.7 M-31.3-73.1
			h73.7"/>
	</g>
	<path class="st10" d="M73.2,1.1C73.2,1.1,73.2,1.1,73.2,1.1l0.1,14.2c0,0,0,0-0.1,0C73.2,15.4,73.2,1.1,73.2,1.1z"/>
	<path class="st11" d="M71.7,1.1c0.5,0,1,0,1.4,0l0,14.2c-0.4,0-0.7,0-1.1,0C72.1,15.4,71.7,1.1,71.7,1.1z"/>
	<path class="st12" d="M69.8,1.2c0.6,0,1.3-0.1,1.9-0.1l0.4,14.2c-0.5,0-1,0-1.4,0.1C70.7,15.4,69.8,1.2,69.8,1.2z"/>
	<path class="st13" d="M67.5,1.4c0.8-0.1,1.6-0.1,2.3-0.2l0.9,14.2c-0.6,0-1.2,0.1-1.8,0.1C68.9,15.6,67.5,1.4,67.5,1.4z"/>
	<path class="st14" d="M64.9,1.8c0.9-0.1,1.8-0.2,2.6-0.3l1.4,14.2c-0.7,0.1-1.3,0.2-2,0.2L64.9,1.8z"/>
	<path class="st15" d="M61.6,2.3c1.1-0.2,2.2-0.4,3.3-0.6L67,15.8c-0.8,0.1-1.6,0.3-2.4,0.4L61.6,2.3z"/>
	<path class="st16" d="M55,4.2c2.2-0.7,4.4-1.3,6.6-1.8l2.9,13.9c-1.7,0.4-3.4,0.8-5,1.4L55,4.2L55,4.2z"/>
	<path class="st17" d="M17.8,45.4C22.2,26.1,36.2,10.5,55,4.2l4.6,13.5c-14,4.8-24.6,16.5-27.9,30.9C31.6,48.6,17.8,45.4,17.8,45.4z
		"/>
	<path class="st18" d="M63.7,114.1c-15.4-2.6-29.1-11.5-37.7-24.5c-8.7-13-11.6-29-8.1-44.3l13.9,3.2C29,60,31.2,72,37.8,81.7
		s16.7,16.4,28.3,18.4L63.7,114.1z"/>
	<path class="st19" d="M73.3,1.1c21.5,0,41.1,12.1,50.8,31.3c9.7,19.2,7.7,42.2-5.1,59.5c-12.8,17.3-34.2,25.9-55.4,22.3l2.4-14
		c15.9,2.7,32-3.7,41.5-16.7c9.6-13,11-30.2,3.8-44.6c-7.3-14.4-22-23.5-38.1-23.5C73.3,15.4,73.3,1.1,73.3,1.1z"/>
</g>
</svg>
