<?xml version="1.0" encoding="utf-8"?>
<!-- Generator: Adobe Illustrator 23.0.3, SVG Export Plug-In . SVG Version: 6.00 Build 0)  -->
<svg version="1.1" id="Layer_1" xmlns:serif="http://www.serif.com/"
	 xmlns="http://www.w3.org/2000/svg" xmlns:xlink="http://www.w3.org/1999/xlink" x="0px" y="0px" viewBox="0 0 1280 1024"
	 style="enable-background:new 0 0 1280 1024;" xml:space="preserve">
<style type="text/css">
	.st0{fill:#999999;}
</style>
<g transform="matrix(1,0,0,1,-1029.17,-1212.5)">
	<g transform="matrix(4.16667,0,0,4.16667,0,0)">
		<g transform="matrix(0.24,0,0,0.24,0,0)">
			<path class="st0" d="M2058.3,1212.5h-97.5v195l-73.1-24.3l-73.1,24.3v-195h-560.7v1024h804.6c13.4,0,24.3-10.5,24.3-23.2v-977.7
				C2082.6,1223,2071.7,1212.5,2058.3,1212.5z M1400,2151.2c0,6.8-5.4,12.2-12.2,12.2H1339c-6.8,0-12.2-5.4-12.2-12.2v-853.4
				c0-6.8,5.3-12.2,12.2-12.2h48.7c6.8,0,12.2,5.4,12.2,12.2V2151.2z M1875.4,1773.2h-317c-20.2,0-36.6-16.3-36.6-36.6
				c0-20.2,16.3-36.6,36.6-36.6h317c20.2,0,36.6,16.4,36.6,36.6C1912,1756.9,1895.7,1773.2,1875.4,1773.2z M1875.4,1627h-317
				c-20.2,0-36.6-16.3-36.6-36.6c0-20.2,16.3-36.6,36.6-36.6h317c20.2,0,36.6,16.4,36.6,36.6C1912,1610.6,1895.7,1627,1875.4,1627z"
				/>
		</g>
	</g>
</g>
</svg>
