<?xml version="1.0" encoding="utf-8"?>
<!-- Generator: Adobe Illustrator 23.0.3, SVG Export Plug-In . SVG Version: 6.00 Build 0)  -->
<svg version="1.1" id="Layer_1" xmlns:serif="http://www.serif.com/"
	 xmlns="http://www.w3.org/2000/svg" xmlns:xlink="http://www.w3.org/1999/xlink" x="0px" y="0px" viewBox="0 0 1280 1024"
	 style="enable-background:new 0 0 1280 1024;" xml:space="preserve">
<style type="text/css">
	.st0{fill:#999999;}
</style>
<g transform="matrix(1,0,0,1,-1853.89,-7618.72)">
	<g transform="matrix(4.16667,0,0,4.16667,0,0)">
		<g transform="matrix(1.14066,0,0,1.14066,466.51,1853.96)">
			<path class="st0" d="M181.4,56.2h-53.8l29-66.7c2.3-3.6,1.2-8.3-2.4-10.6c-3.6-2.2-8.3-1.2-10.6,2.4L42.6,92.1
				c-1.5,2.4-1.6,5.4-0.2,7.8c1.4,2.4,3.9,4,6.7,4h53.8l-29,77.5c-2.2,3.6-1.2,8.3,2.4,10.6c1.3,0.8,2.7,1.2,4.1,1.2
				c2.6,0,5.1-1.3,6.5-3.6l101-121.6c1.5-2.4,1.6-5.4,0.2-7.8C186.7,57.7,184.1,56.2,181.4,56.2"/>
		</g>
	</g>
</g>
</svg>
