<?xml version="1.0" encoding="utf-8"?>
<!-- Generator: Adobe Illustrator 23.0.3, SVG Export Plug-In . SVG Version: 6.00 Build 0)  -->
<svg version="1.1" id="Layer_1" xmlns:serif="http://www.serif.com/"
	 xmlns="http://www.w3.org/2000/svg" xmlns:xlink="http://www.w3.org/1999/xlink" x="0px" y="0px" viewBox="0 0 1280 1024"
	 style="enable-background:new 0 0 1280 1024;" xml:space="preserve">
<style type="text/css">
	.st0{fill:#999999;}
</style>
<g transform="matrix(1,0,0,1,-4325,-3637.5)">
	<g transform="matrix(4.16667,0,0,4.16667,2925,0)">
		<g transform="matrix(0.24,0,0,0.24,-702,0)">
			<path class="st0" d="M5445,3989.5H4351.7c-14.7,0-26.7,12-26.7,26.7v506.6c0,14.7,12,26.7,26.7,26.7H5445
				c14.7,0,26.7-12,26.7-26.7v-506.6C5471.7,4001.5,5459.7,3989.5,5445,3989.5z M4898.3,4442.8c-81.9,0-150.7-56.8-168.5-133.3
				c-3.2-12.8-4.8-26.1-4.8-40c0-86.9,64-158.9,147.5-171.2c8.6-1.6,17.1-2.1,25.9-2.1c71.2,0,132.5,42.9,159.2,104.5
				c9.1,21.1,14.1,44.3,14.1,68.8c0,13.9-1.7,27.2-4.8,40C5049,4386.1,4980.2,4442.8,4898.3,4442.8z M4485,4362.8
				c-44.3,0-80-35.7-80-80c0-34.9,22.1-64.5,53.3-75.2c8.3-3.2,17.3-4.8,26.7-4.8c44.3,0,80,35.8,80,80c0,9.3-1.6,18.4-4.8,26.7
				C4549.5,4340.7,4519.9,4362.8,4485,4362.8z M5311.7,4349.5c-29.6,0-55.5-16-69.4-40c-6.7-11.7-10.6-25.3-10.6-40
				c0-44.3,35.7-80,80-80c44.2,0,80,35.7,80,80c0,14.7-4,28.3-10.7,40C5367.1,4333.5,5341.3,4349.5,5311.7,4349.5z M5578.3,3749.5
				H4485c-14.7,0-26.7,12-26.7,26.7v160h427.2c31-48,84.8-80,146.2-80c61.3,0,115.2,32,146.1,80H5445c44,0,80,36,80,80v293.3h53.3
				c14.7,0,26.7-12,26.7-26.7v-506.6C5605,3761.5,5593,3749.5,5578.3,3749.5z"/>
		</g>
	</g>
</g>
</svg>
