<?xml version="1.0" encoding="utf-8"?>
<!-- Generator: Adobe Illustrator 23.0.3, SVG Export Plug-In . SVG Version: 6.00 Build 0)  -->
<svg version="1.1" id="Layer_1" xmlns:serif="http://www.serif.com/"
	 xmlns="http://www.w3.org/2000/svg" xmlns:xlink="http://www.w3.org/1999/xlink" x="0px" y="0px" viewBox="0 0 1280 1024"
	 style="enable-background:new 0 0 1280 1024;" xml:space="preserve">
<style type="text/css">
	.st0{fill:#999999;}
</style>
<g transform="matrix(1,0,0,1,-3125.01,-5212.5)">
	<g transform="matrix(4.16667,0,0,4.16667,2925,0)">
		<g transform="matrix(0.24,0,0,0.24,-702,0)">
			<path class="st0" d="M4262.4,5308.3l-9-9.2c-112.8-115.4-295.5-115.4-408,0l-80.5,83.1l-80.3-83.1
				c-112.7-115.4-295.4-115.4-408,0l-9,9.2c-112.7,115.4-112.7,302.5,0,417.9l475.6,495.3c11.9,12.3,31,12.3,42.9,0l476.1-495.3
				C4374.9,5610.8,4374.9,5423.7,4262.4,5308.3z M3944.6,5755.8c-8.7,9-20.9,14.3-34.2,14.3h-97v97c0,26.6-21.8,48.5-48.5,48.5
				c-26.9,0-48.5-21.8-48.5-48.5v-97h-97c-26.9,0-48.5-21.8-48.5-48.5c0-13.6,5.3-25.7,14-34.4c8.7-8.7,20.8-14,34.4-14h97v-97
				c0-26.9,21.5-48.5,48.5-48.5c13.3,0,25.5,5.3,34.2,14c9,8.7,14.3,20.8,14.3,34.4v97h97c26.6,0,48.5,21.5,48.5,48.5
				C3958.9,5734.9,3953.6,5747.1,3944.6,5755.8z"/>
		</g>
	</g>
</g>
</svg>
