<?xml version="1.0" encoding="utf-8"?>
<!-- Generator: Adobe Illustrator 23.0.3, SVG Export Plug-In . SVG Version: 6.00 Build 0)  -->
<svg version="1.1" id="Layer_1" xmlns:serif="http://www.serif.com/"
	 xmlns="http://www.w3.org/2000/svg" xmlns:xlink="http://www.w3.org/1999/xlink" x="0px" y="0px" viewBox="0 0 1280 1024"
	 style="enable-background:new 0 0 1280 1024;" xml:space="preserve">
<style type="text/css">
	.st0{fill:#999999;}
</style>
<g transform="matrix(1,0,0,1,-1400,-6800)">
	<g transform="matrix(4.16667,0,0,4.16667,0,0)">
		<g transform="matrix(1,0,0,1,380.986,1658.5)">
			<path class="st0" d="M216.1,83.6c0,1.4-1.1,2.6-2.6,2.6h-10.2c-1.4,0-2.6-1.1-2.6-2.6V73.3c0-1.4,1.1-2.6,2.6-2.6h10.2
				c1.4,0,2.6,1.1,2.6,2.6V83.6z M216.1,114.3c0,1.4-1.1,2.6-2.6,2.6h-10.2c-1.4,0-2.6-1.1-2.6-2.6v-10.2c0-1.4,1.1-2.6,2.6-2.6
				h10.2c1.4,0,2.6,1.1,2.6,2.6V114.3z M216.1,145c0,1.4-1.1,2.6-2.6,2.6h-10.2c-1.4,0-2.6-1.1-2.6-2.6v-10.2c0-1.4,1.1-2.6,2.6-2.6
				h10.2c1.4,0,2.6,1.1,2.6,2.6V145z M216.1,203.9h-15.4v-25.6c0-2.8,2.3-5.1,5.1-5.1h5.1c2.8,0,5.1,2.3,5.1,5.1V203.9z M185.3,145
				c0,1.4-1.1,2.6-2.6,2.6h-10.2c-1.4,0-2.6-1.1-2.6-2.6v-10.2c0-1.4,1.1-2.6,2.6-2.6h10.2c1.4,0,2.6,1.1,2.6,2.6V145z M170,104.1
				c0-1.4,1.1-2.6,2.6-2.6h10.2c1.4,0,2.6,1.1,2.6,2.6v10.2c0,1.4-1.1,2.6-2.6,2.6h-10.2c-1.4,0-2.6-1.1-2.6-2.6V104.1z M170,73.3
				c0-1.4,1.1-2.6,2.6-2.6h10.2c1.4,0,2.6,1.1,2.6,2.6v10.2c0,1.4-1.1,2.6-2.6,2.6h-10.2c-1.4,0-2.6-1.1-2.6-2.6V73.3z M225.9,55.4
				h-9.9V40.4c0-3-2.4-5.4-5.4-5.4h-9.9v-53.8c0-4.2-3.4-7.7-7.7-7.7c-4.2,0-7.7,3.4-7.7,7.7v53.8h-9.9c-3,0-5.4,2.4-5.4,5.4v15.1
				h-9.9c-3,0-5.5,2.5-5.5,5.5v96.9l32.5,56.3l2.9,5.1h38.8c1.4,0,2.6-1.1,2.6-2.6V60.9C231.4,57.9,229,55.4,225.9,55.4"/>
		</g>
	</g>
	<g transform="matrix(4.16667,0,0,4.16667,0,0)">
		<g transform="matrix(1,0,0,1,359.036,1677.36)">
			<path class="st0" d="M125.6,70.6c-5.1-9-14.2-13.5-23.3-13.5c-9.1,0-18.1,4.5-23.2,13.5L8.3,193.8c-1.7,3,0.4,6.6,3.8,6.6h188.1
				l-23.6-41.1L125.6,70.6z"/>
		</g>
	</g>
</g>
</svg>
