<?xml version="1.0" encoding="utf-8"?>
<!-- Generator: Adobe Illustrator 23.0.3, SVG Export Plug-In . SVG Version: 6.00 Build 0)  -->
<svg version="1.1" id="Layer_1" xmlns:serif="http://www.serif.com/"
	 xmlns="http://www.w3.org/2000/svg" xmlns:xlink="http://www.w3.org/1999/xlink" x="0px" y="0px" viewBox="0 0 1280 1024"
	 style="enable-background:new 0 0 1280 1024;" xml:space="preserve">
<style type="text/css">
	.st0{fill:#999999;}
</style>
<g transform="matrix(1,0,0,1,-3925,-4000)">
	<g transform="matrix(4.16667,0,0,4.16667,2925,0)">
		<g transform="matrix(0.24,0,0,0.24,-702,0)">
			<path class="st0" d="M5021.3,4576c30.7,0,55.7-23.9,55.7-53.4s-24.9-53.3-55.7-53.3H4949V4384h72.3c30.7,0,55.7-23.9,55.7-53.3
				c0-29.4-24.9-53.3-55.7-53.3H4949v-105.2c0-12.6-10.2-22.8-22.8-22.8H4821v-93.6c0-30.7-23.9-55.7-53.4-55.7s-53.3,25-53.3,55.7
				v93.6H4629v-93.6c0-30.7-23.9-55.7-53.4-55.7c-29.4,0-53.3,25-53.3,55.7v93.6H4437v-93.6c0-30.7-23.9-55.7-53.4-55.7
				s-53.3,25-53.3,55.7v93.6h-105.2c-12.6,0-22.8,10.2-22.8,22.8v105.2h-93.6c-30.7,0-55.7,23.9-55.7,53.3c0,29.4,25,53.3,55.7,53.3
				h93.6v85.4h-93.6c-30.7,0-55.7,23.9-55.7,53.3s25,53.4,55.7,53.4h93.6v85.4h-93.6c-30.7,0-55.7,23.9-55.7,53.3s25,53.4,55.7,53.4
				h93.6v105.2c0,12.6,10.2,22.8,22.8,22.8h105.2v72.3c0,30.7,23.9,55.7,53.3,55.7s53.4-24.9,53.4-55.7V4896h85.4v72.3
				c0,30.7,23.9,55.7,53.3,55.7c29.4,0,53.4-24.9,53.4-55.7V4896h85.4v72.3c0,30.7,23.9,55.7,53.3,55.7s53.4-24.9,53.4-55.7V4896
				h105.2c12.6,0,22.8-10.2,22.8-22.8V4768h72.3c30.7,0,55.7-23.9,55.7-53.4s-24.9-53.3-55.7-53.3H4949V4576H5021.3z M4821,4291
				v463.4c0,7.5-6.2,13.7-13.7,13.7H4344c-7.4,0-13.6-6.2-13.6-13.7V4291c0-7.4,6.2-13.6,13.6-13.6h463.4
				C4814.8,4277.4,4821,4283.6,4821,4291z"/>
		</g>
	</g>
</g>
</svg>
