<?xml version="1.0" encoding="utf-8"?>
<!-- Generator: Adobe Illustrator 23.0.3, SVG Export Plug-In . SVG Version: 6.00 Build 0)  -->
<svg version="1.1" id="Layer_1" xmlns:serif="http://www.serif.com/"
	 xmlns="http://www.w3.org/2000/svg" xmlns:xlink="http://www.w3.org/1999/xlink" x="0px" y="0px" viewBox="0 0 1280 1024"
	 style="enable-background:new 0 0 1280 1024;" xml:space="preserve">
<style type="text/css">
	.st0{fill:#999999;}
</style>
<g transform="matrix(1,0,0,1,-199.998,-2800)">
	<g transform="matrix(4.16667,0,0,4.16667,0,0)">
		<g transform="matrix(0.24,0,0,0.24,0,0)">
			<path class="st0" d="M1352,2970.7c0-94.3-76.4-170.7-170.7-170.7c-91.2,0-165.5,71.7-170.2,161.7L627,3093.1
				c-31.3-35.8-77.1-58.5-128.4-58.5c-94.2,0-170.7,76.4-170.7,170.6c0,94.3,76.4,170.7,170.7,170.7c27.2,0,52.8-6.5,75.6-17.9
				l274.9,240.3c-5.9,17.3-9.2,35.6-9.2,54.8c0,94.3,76.4,170.7,170.7,170.7c94.3,0,170.7-76.4,170.7-170.7
				c0-56.4-27.5-106.3-69.7-137.4l94.9-376.7C1288.8,3127.1,1352,3056.4,1352,2970.7z M932.9,3501.6l-273.5-239.1
				c5.4-15.3,8.7-31.5,9.6-48.4l384-131.3c8.7,9.9,18.5,18.8,29.2,26.6l-94.5,375.1C968.1,3487.1,949.7,3492.9,932.9,3501.6z"/>
		</g>
	</g>
</g>
</svg>
