<?xml version="1.0" encoding="utf-8"?>
<!-- Generator: Adobe Illustrator 24.1.0, SVG Export Plug-In . SVG Version: 6.00 Build 0)  -->
<svg version="1.1" id="Layer_1" xmlns:serif="http://www.serif.com/"
	 xmlns="http://www.w3.org/2000/svg" xmlns:xlink="http://www.w3.org/1999/xlink" x="0px" y="0px" viewBox="0 0 153.6 269.6"
	 style="enable-background:new 0 0 153.6 269.6;" xml:space="preserve">
<style type="text/css">
	.st0{clip-path:url(#SVGID_2_);}
	.st1{clip-path:url(#SVGID_4_);}
	.st2{fill:#1A1A1A;}
	.st3{font-family:'IdealSans-ExtraLight';}
	.st4{font-size:11.5177px;}
	.st5{font-family:'IdealSans-Light';}
	.st6{font-size:6.3987px;}
	.st7{fill-rule:evenodd;clip-rule:evenodd;fill:#1A1A1A;}
	.st8{fill-rule:evenodd;clip-rule:evenodd;}
	.st9{font-family:'IdealSans-Semibold';}
	.st10{fill:none;stroke:#1A1A1A;stroke-width:0.16;stroke-miterlimit:2.5595;}
	.st11{fill:#007DB7;}
	.st12{fill:#505050;}
	.st13{fill:#404040;}
	.st14{fill:#303030;}
	.st15{fill:#202020;}
	.st16{fill:#009CE4;}
	.st17{fill:#008FD1;}
</style>
<g>
	<defs>
		<rect id="SVGID_1_" x="-18.9" y="-19.4" width="192" height="511.9"/>
	</defs>
	<clipPath id="SVGID_2_">
		<use xlink:href="#SVGID_1_"  style="overflow:visible;"/>
	</clipPath>
	<g class="st0">
		<g>
			<defs>
				<rect id="SVGID_3_" x="-18.9" y="-19.4" width="192" height="511.9"/>
			</defs>
			<clipPath id="SVGID_4_">
				<use xlink:href="#SVGID_3_"  style="overflow:visible;"/>
			</clipPath>
			<g class="st1">
				<g id="Layer-1" serif:id="Layer 1">
				</g>
			</g>
		</g>
	</g>
</g>
<g id="Layer-11" serif:id="Layer 1">
	<g transform="matrix(2.08333,0,0,2.08333,61.4583,478.168)">
		<text transform="matrix(0.48 0 0 0.48 -2.4428 -162.5543)" class="st2 st3 st4">B</text>
		<text transform="matrix(0.48 0 0 0.48 0.7583 -162.5543)" class="st2 st3 st4">y</text>
		<text transform="matrix(0.48 0 0 0.48 3.235 -162.5543)" class="st2 st3 st4"> </text>
		<text transform="matrix(0.48 0 0 0.48 4.3298 -162.5543)" class="st2 st3 st4">DMC</text>
		<text transform="matrix(0.48 0 0 0.48 -27.6573 -154.3502)" class="st2 st5 st6">F</text>
		<text transform="matrix(0.48 0 0 0.48 -26.1156 -154.3502)" class="st2 st5 st6">i</text>
		<text transform="matrix(0.48 0 0 0.48 -25.4214 -154.3502)" class="st2 st5 st6">j</text>
		<text transform="matrix(0.48 0 0 0.48 -24.7272 -154.3502)" class="st2 st5 st6">i</text>
		<path class="st7" d="M36.1-156.3l0-0.2c-0.8,0.1-1.2,0.7-1.2,1.4c0,0.5,0.3,0.8,0.7,0.8c0.4,0,0.7-0.3,0.7-0.7
			c0-0.4-0.3-0.7-0.7-0.7c-0.2,0-0.4,0.1-0.6,0.3C35.1-155.9,35.4-156.2,36.1-156.3z M36-155c0,0.3-0.2,0.5-0.5,0.5
			c-0.3,0-0.5-0.2-0.5-0.5c0-0.3,0.2-0.5,0.5-0.5C35.8-155.5,36-155.3,36-155z"/>
		<path class="st7" d="M36.5-154.9c0,0.3,0.3,0.6,0.7,0.6c0.4,0,0.7-0.3,0.7-0.6c0-0.3-0.2-0.4-0.5-0.6c0.3-0.1,0.4-0.3,0.4-0.5
			c0-0.3-0.3-0.5-0.6-0.5c-0.4,0-0.7,0.2-0.7,0.6c0,0.3,0.2,0.4,0.4,0.5C36.7-155.3,36.5-155.1,36.5-154.9z M37.7-154.9
			c0,0.2-0.2,0.4-0.5,0.4c-0.3,0-0.5-0.2-0.5-0.4c0-0.2,0.2-0.4,0.5-0.5C37.5-155.2,37.7-155.1,37.7-154.9z M36.8-156
			c0-0.2,0.2-0.4,0.4-0.4c0.2,0,0.4,0.1,0.4,0.4c0,0.2-0.2,0.3-0.4,0.4C37-155.6,36.8-155.8,36.8-156z"/>
		<path class="st7" d="M38.7-154.5c0-0.1-0.1-0.2-0.2-0.2c-0.1,0-0.2,0.1-0.2,0.2c0,0.1,0.1,0.2,0.2,0.2
			C38.6-154.3,38.7-154.4,38.7-154.5z"/>
		<path class="st7" d="M40.5-154.6c-0.1,0-0.3,0-0.4,0H40v-1.6c0-0.1,0-0.3,0-0.4l0,0l-0.2,0.1c-0.1,0-0.4,0.1-0.6,0.2l0,0.2
			l0.5-0.2v1.3c0,0.1,0,0.3,0,0.4h-0.2c-0.1,0-0.2,0-0.4,0c0,0.1,0,0.1,0,0.2c0.2,0,0.3,0,0.5,0H40c0.2,0,0.4,0,0.6,0
			C40.5-154.4,40.5-154.5,40.5-154.6L40.5-154.6z"/>
		<path class="st7" d="M41.5-156.5c-0.5,0-0.7,0.5-0.7,1.1c0,0.6,0.2,1.1,0.7,1.1c0.5,0,0.7-0.5,0.7-1.1
			C42.2-156,42-156.5,41.5-156.5z M41.5-154.5c-0.3,0-0.5-0.4-0.5-0.9c0-0.5,0.2-0.9,0.5-0.9s0.5,0.4,0.5,0.9
			C42-154.9,41.8-154.5,41.5-154.5z"/>
		<text transform="matrix(0.48 0 0 0.48 -27.6573 -148.2072)" class="st2 st5 st6">T</text>
		<text transform="matrix(0.48 0 0 0.48 -26.0479 -148.2072)" class="st2 st5 st6">o</text>
		<text transform="matrix(0.48 0 0 0.48 -24.3803 -148.2072)" class="st2 st5 st6">n</text>
		<text transform="matrix(0.48 0 0 0.48 -22.7125 -148.2072)" class="st2 st5 st6">ga</text>
		<path class="st7" d="M35.7-148.2H36c0-0.1,0-0.3,0-0.4v-0.2l0.3,0c0-0.1,0-0.1,0-0.2c-0.1,0-0.2,0-0.3,0v-1c0-0.1,0-0.3,0-0.4
			l-0.1,0l-0.2,0.3l-0.9,1.2l0.1,0.1c0.2,0,0.5,0,0.8,0h0.2v0.1C35.7-148.6,35.7-148.3,35.7-148.2z M35.7-150v1H35L35.7-150z"/>
		<path class="st7" d="M36.5-148.3c0.2,0.1,0.4,0.1,0.5,0.1c0.5,0,0.8-0.3,0.8-0.6c0-0.3-0.2-0.5-0.7-0.5c0.4-0.1,0.6-0.3,0.6-0.6
			c0-0.3-0.3-0.5-0.7-0.5c-0.2,0-0.5,0.1-0.7,0.2l0.1,0.2c0.2-0.1,0.4-0.2,0.6-0.2c0.3,0,0.4,0.1,0.4,0.3c0,0.2-0.2,0.4-0.8,0.5
			l0,0.2c0.5,0,0.8,0.2,0.8,0.4c0,0.2-0.2,0.4-0.6,0.4c-0.2,0-0.4,0-0.6-0.1C36.5-148.5,36.5-148.3,36.5-148.3z"/>
		<path class="st7" d="M38.7-148.3c0-0.1-0.1-0.2-0.2-0.2c-0.1,0-0.2,0.1-0.2,0.2c0,0.1,0.1,0.2,0.2,0.2
			C38.6-148.2,38.7-148.2,38.7-148.3z"/>
		<path class="st7" d="M40.5-148.4c-0.1,0-0.3,0-0.4,0H40v-1.6c0-0.1,0-0.3,0-0.4l0,0l-0.2,0.1c-0.1,0-0.4,0.1-0.6,0.2l0,0.2
			l0.5-0.2v1.3c0,0.1,0,0.3,0,0.4h-0.2c-0.1,0-0.2,0-0.4,0c0,0.1,0,0.1,0,0.2c0.2,0,0.3,0,0.5,0H40c0.2,0,0.4,0,0.6,0
			C40.5-148.3,40.5-148.3,40.5-148.4L40.5-148.4z"/>
		<path class="st7" d="M40.9-148.3l0,0.2c0.8-0.1,1.2-0.7,1.2-1.4c0-0.5-0.3-0.8-0.7-0.8c-0.4,0-0.7,0.3-0.7,0.7
			c0,0.4,0.3,0.7,0.7,0.7c0.2,0,0.4-0.1,0.6-0.3C41.9-148.8,41.6-148.4,40.9-148.3z M41-149.6c0-0.3,0.2-0.5,0.5-0.5
			c0.3,0,0.5,0.2,0.5,0.5c0,0.3-0.2,0.5-0.5,0.5C41.2-149.2,41-149.4,41-149.6z"/>
		<text transform="matrix(0.48 0 0 0.48 -27.6573 -142.0645)" class="st2 st5 st6">P</text>
		<text transform="matrix(0.48 0 0 0.48 -26.0294 -142.0645)" class="st2 st5 st6">a</text>
		<text transform="matrix(0.48 0 0 0.48 -24.5551 -142.0645)" class="st2 st5 st6">p</text>
		<text transform="matrix(0.48 0 0 0.48 -22.8845 -142.0645)" class="st2 st5 st6">ua N</text>
		<text transform="matrix(0.48 0 0 0.48 -16.72 -142.0645)" class="st2 st5 st6">e</text>
		<text transform="matrix(0.48 0 0 0.48 -15.1843 -142.0645)" class="st2 st5 st6">w</text>
		<text transform="matrix(0.48 0 0 0.48 -13.0407 -142.0645)" class="st2 st5 st6"> Guinea</text>
		<path class="st7" d="M34.8-142.1c0.2,0.1,0.4,0.1,0.5,0.1c0.5,0,0.8-0.3,0.8-0.6c0-0.3-0.2-0.5-0.7-0.5c0.4-0.1,0.6-0.3,0.6-0.6
			c0-0.3-0.3-0.5-0.7-0.5c-0.2,0-0.5,0.1-0.7,0.2l0.1,0.2c0.2-0.1,0.4-0.2,0.6-0.2c0.3,0,0.4,0.1,0.4,0.3c0,0.2-0.2,0.4-0.8,0.5
			l0,0.2c0.5,0,0.8,0.2,0.8,0.4c0,0.2-0.2,0.4-0.6,0.4c-0.2,0-0.4,0-0.6-0.1C34.8-142.3,34.8-142.1,34.8-142.1z"/>
		<path class="st7" d="M36.6-142.2l0,0.2c0.8-0.1,1.2-0.7,1.2-1.4c0-0.5-0.3-0.8-0.7-0.8c-0.4,0-0.7,0.3-0.7,0.7
			c0,0.4,0.3,0.7,0.7,0.7c0.2,0,0.4-0.1,0.6-0.3C37.6-142.7,37.3-142.3,36.6-142.2z M36.7-143.5c0-0.3,0.2-0.5,0.5-0.5
			c0.3,0,0.5,0.2,0.5,0.5c0,0.3-0.2,0.5-0.5,0.5C36.9-143,36.7-143.2,36.7-143.5z"/>
		<path class="st7" d="M38.7-142.2c0-0.1-0.1-0.2-0.2-0.2c-0.1,0-0.2,0.1-0.2,0.2c0,0.1,0.1,0.2,0.2,0.2
			C38.6-142,38.7-142.1,38.7-142.2z"/>
		<path class="st7" d="M39.1-142.1c0.2,0.1,0.4,0.1,0.5,0.1c0.5,0,0.8-0.3,0.8-0.6c0-0.3-0.2-0.5-0.7-0.5c0.4-0.1,0.6-0.3,0.6-0.6
			c0-0.3-0.3-0.5-0.7-0.5c-0.2,0-0.5,0.1-0.7,0.2l0.1,0.2c0.2-0.1,0.4-0.2,0.6-0.2c0.3,0,0.4,0.1,0.4,0.3c0,0.2-0.2,0.4-0.8,0.5
			l0,0.2c0.5,0,0.8,0.2,0.8,0.4c0,0.2-0.2,0.4-0.6,0.4c-0.2,0-0.4,0-0.6-0.1C39.1-142.3,39.1-142.1,39.1-142.1z"/>
		<path class="st7" d="M41.8-142.1H42c0-0.1,0-0.3,0-0.4v-0.2l0.3,0c0-0.1,0-0.1,0-0.2c-0.1,0-0.2,0-0.3,0v-1c0-0.1,0-0.3,0-0.4
			l-0.1,0l-0.2,0.3l-0.9,1.2l0.1,0.1c0.2,0,0.5,0,0.8,0h0.2v0.1C41.8-142.4,41.8-142.2,41.8-142.1z M41.8-143.8v1H41L41.8-143.8z"/>
		<text transform="matrix(0.48 0 0 0.48 -27.6573 -135.9217)" class="st5 st6">Others</text>
		<text transform="matrix(0.48 0 0 0.48 -23.9715 -129.779)" class="st2 st5 st6">R</text>
		<text transform="matrix(0.48 0 0 0.48 -22.1104 -129.779)" class="st2 st5 st6">e</text>
		<text transform="matrix(0.48 0 0 0.48 -20.5839 -129.779)" class="st2 st5 st6">g</text>
		<text transform="matrix(0.48 0 0 0.48 -19.1467 -129.779)" class="st2 st5 st6">ional</text>
		<path class="st7" d="M35.1-130c0.2-0.2,0.4-0.4,0.6-0.5c0.3-0.3,0.5-0.5,0.5-0.8c0-0.4-0.3-0.6-0.6-0.6c-0.2,0-0.5,0.1-0.7,0.3
			l0.1,0.2c0.2-0.2,0.4-0.3,0.6-0.3c0.3,0,0.4,0.2,0.4,0.4c0,0.3-0.3,0.7-1.1,1.4l0,0.2c0.2,0,0.4,0,0.7,0c0.3,0,0.5,0,0.7,0
			c0-0.1,0-0.1,0-0.2C35.9-130,35.4-130,35.1-130z"/>
		<path class="st7" d="M37.5-129.8h0.2c0-0.1,0-0.3,0-0.4v-0.2l0.3,0c0-0.1,0-0.1,0-0.2c-0.1,0-0.2,0-0.3,0v-1c0-0.1,0-0.3,0-0.4
			l-0.1,0l-0.2,0.3l-0.9,1.2l0.1,0.1c0.2,0,0.5,0,0.8,0h0.2v0.1C37.5-130.1,37.5-129.9,37.5-129.8z M37.5-131.6v1h-0.8L37.5-131.6z"
			/>
		<path class="st7" d="M38.7-129.9c0-0.1-0.1-0.2-0.2-0.2c-0.1,0-0.2,0.1-0.2,0.2c0,0.1,0.1,0.2,0.2,0.2
			C38.6-129.7,38.7-129.8,38.7-129.9z"/>
		<path class="st7" d="M39.8-131.9c-0.5,0-0.7,0.5-0.7,1.1c0,0.6,0.2,1.1,0.7,1.1c0.5,0,0.7-0.5,0.7-1.1
			C40.5-131.5,40.3-131.9,39.8-131.9z M39.8-129.9c-0.3,0-0.5-0.4-0.5-0.9c0-0.5,0.2-0.9,0.5-0.9s0.5,0.4,0.5,0.9
			C40.3-130.3,40.1-129.9,39.8-129.9z"/>
		<path class="st7" d="M40.8-129.8c0.2,0.1,0.3,0.1,0.5,0.1c0.5,0,0.8-0.3,0.8-0.7c0-0.4-0.3-0.6-0.9-0.6c-0.1,0-0.1,0-0.2,0l0-0.7
			h0.4c0.2,0,0.4,0,0.6,0c0-0.1,0-0.2,0-0.2c-0.2,0-0.3,0-0.6,0c-0.3,0-0.4,0-0.6,0l0,0c0,0.1,0,0.2,0,0.3l0,0.3c0,0.1,0,0.2,0,0.3
			l0,0c0.1,0,0.2,0,0.3,0c0.5,0,0.7,0.2,0.7,0.4c0,0.2-0.2,0.4-0.6,0.4c-0.2,0-0.4,0-0.6-0.1C40.8-130,40.8-129.8,40.8-129.8z"/>
		<text transform="matrix(0.48 0 0 0.48 -23.9715 -123.6363)" class="st5 st6">Solomon I</text>
		<text transform="matrix(0.48 0 0 0.48 -10.989 -123.6363)" class="st5 st6">s</text>
		<text transform="matrix(0.48 0 0 0.48 -9.7419 -123.6363)" class="st5 st6">l</text>
		<text transform="matrix(0.48 0 0 0.48 -9.0479 -123.6363)" class="st5 st6">ands</text>
		<path class="st8" d="M35.1-123.8c0.2-0.2,0.4-0.4,0.6-0.5c0.3-0.3,0.5-0.6,0.5-0.8c0-0.4-0.3-0.6-0.6-0.6c-0.2,0-0.5,0.1-0.7,0.3
			l0.1,0.2c0.2-0.2,0.4-0.3,0.6-0.3c0.3,0,0.4,0.2,0.4,0.4c0,0.3-0.3,0.7-1.1,1.4l0,0.2c0.2,0,0.4,0,0.7,0c0.3,0,0.5,0,0.7,0
			c0-0.1,0-0.1,0-0.2C35.9-123.8,35.4-123.8,35.1-123.8z"/>
		<path class="st8" d="M37.2-125.8c-0.5,0-0.7,0.5-0.7,1.1c0,0.6,0.2,1.1,0.7,1.1c0.5,0,0.7-0.5,0.7-1.1
			C37.9-125.3,37.7-125.8,37.2-125.8z M37.2-123.8c-0.3,0-0.5-0.4-0.5-0.9c0-0.5,0.2-0.9,0.5-0.9s0.5,0.4,0.5,0.9
			C37.7-124.2,37.5-123.8,37.2-123.8z"/>
		<path class="st8" d="M38.7-123.8c0-0.1-0.1-0.2-0.2-0.2c-0.1,0-0.2,0.1-0.2,0.2c0,0.1,0.1,0.2,0.2,0.2
			C38.6-123.6,38.7-123.7,38.7-123.8z"/>
		<path class="st8" d="M39.1-123.7c0.2,0.1,0.4,0.1,0.5,0.1c0.5,0,0.8-0.3,0.8-0.6c0-0.3-0.2-0.5-0.7-0.5c0.4-0.1,0.6-0.3,0.6-0.6
			c0-0.3-0.3-0.5-0.7-0.5c-0.2,0-0.5,0.1-0.7,0.2l0.1,0.2c0.2-0.1,0.4-0.2,0.6-0.2c0.3,0,0.4,0.1,0.4,0.3c0,0.2-0.2,0.4-0.8,0.5
			l0,0.2c0.5,0,0.8,0.2,0.8,0.4c0,0.2-0.2,0.4-0.6,0.4c-0.2,0-0.4,0-0.6-0.1C39.1-123.9,39.1-123.7,39.1-123.7z"/>
		<path class="st8" d="M40.8-123.7c0.2,0.1,0.3,0.1,0.5,0.1c0.5,0,0.8-0.3,0.8-0.7c0-0.4-0.3-0.6-0.9-0.6c-0.1,0-0.1,0-0.2,0l0-0.7
			h0.4c0.2,0,0.4,0,0.6,0c0-0.1,0-0.2,0-0.2c-0.2,0-0.3,0-0.6,0c-0.3,0-0.4,0-0.6,0l0,0c0,0.1,0,0.2,0,0.3l0,0.3c0,0.1,0,0.2,0,0.3
			l0,0c0.1,0,0.2,0,0.3,0c0.5,0,0.7,0.2,0.7,0.4c0,0.2-0.2,0.4-0.6,0.4c-0.2,0-0.4,0-0.6-0.1C40.8-123.9,40.8-123.7,40.8-123.7z"/>
		<text transform="matrix(0.48 0 0 0.48 -23.9715 -117.4937)" class="st5 st6">T</text>
		<text transform="matrix(0.48 0 0 0.48 -22.3314 -117.4937)" class="st5 st6">u</text>
		<text transform="matrix(0.48 0 0 0.48 -20.6608 -117.4937)" class="st5 st6">v</text>
		<text transform="matrix(0.48 0 0 0.48 -19.2447 -117.4937)" class="st5 st6">a</text>
		<text transform="matrix(0.48 0 0 0.48 -17.7704 -117.4937)" class="st5 st6">l</text>
		<text transform="matrix(0.48 0 0 0.48 -17.0765 -117.4937)" class="st5 st6">u</text>
		<path class="st8" d="M36.2-117.7c-0.1,0-0.3,0-0.4,0h-0.2v-1.6c0-0.1,0-0.3,0-0.4l0,0l-0.2,0.1c-0.1,0-0.4,0.1-0.6,0.2l0,0.2
			l0.5-0.2v1.3c0,0.1,0,0.3,0,0.4h-0.2c-0.1,0-0.2,0-0.4,0c0,0.1,0,0.1,0,0.2c0.2,0,0.3,0,0.5,0h0.3c0.2,0,0.4,0,0.6,0
			C36.2-117.6,36.2-117.6,36.2-117.7L36.2-117.7z"/>
		<path class="st8" d="M37.2-119.7c-0.5,0-0.7,0.5-0.7,1.1c0,0.6,0.2,1.1,0.7,1.1c0.5,0,0.7-0.5,0.7-1.1
			C37.9-119.2,37.7-119.7,37.2-119.7z M37.2-117.6c-0.3,0-0.5-0.4-0.5-0.9c0-0.5,0.2-0.9,0.5-0.9s0.5,0.4,0.5,0.9
			C37.7-118,37.5-117.6,37.2-117.6z"/>
		<path class="st8" d="M38.7-117.6c0-0.1-0.1-0.2-0.2-0.2c-0.1,0-0.2,0.1-0.2,0.2c0,0.1,0.1,0.2,0.2,0.2
			C38.6-117.4,38.7-117.5,38.7-117.6z"/>
		<path class="st8" d="M40.4-119.5l0-0.2c-0.8,0.1-1.2,0.7-1.2,1.4c0,0.5,0.3,0.8,0.7,0.8c0.4,0,0.7-0.3,0.7-0.7
			c0-0.4-0.3-0.7-0.7-0.7c-0.2,0-0.4,0.1-0.6,0.3C39.4-119,39.7-119.4,40.4-119.5z M40.3-118.2c0,0.3-0.2,0.5-0.5,0.5
			c-0.3,0-0.5-0.2-0.5-0.5c0-0.3,0.2-0.5,0.5-0.5C40.1-118.6,40.3-118.4,40.3-118.2z"/>
		<path class="st8" d="M41.5-119.7c-0.5,0-0.7,0.5-0.7,1.1c0,0.6,0.2,1.1,0.7,1.1c0.5,0,0.7-0.5,0.7-1.1
			C42.2-119.2,42-119.7,41.5-119.7z M41.5-117.6c-0.3,0-0.5-0.4-0.5-0.9c0-0.5,0.2-0.9,0.5-0.9s0.5,0.4,0.5,0.9
			C42-118,41.8-117.6,41.5-117.6z"/>
		<text transform="matrix(0.48 0 0 0.48 -23.9715 -111.3508)" class="st5 st6">East T</text>
		<text transform="matrix(0.48 0 0 0.48 -16.0506 -111.3508)" class="st5 st6">i</text>
		<text transform="matrix(0.48 0 0 0.48 -15.3564 -111.3508)" class="st5 st6">m</text>
		<text transform="matrix(0.48 0 0 0.48 -12.8256 -111.3508)" class="st5 st6">or</text>
		<path class="st8" d="M37.2-113.5c-0.5,0-0.7,0.5-0.7,1.1c0,0.6,0.2,1.1,0.7,1.1c0.5,0,0.7-0.5,0.7-1.1
			C37.9-113,37.7-113.5,37.2-113.5z M37.2-111.5c-0.3,0-0.5-0.4-0.5-0.9c0-0.5,0.2-0.9,0.5-0.9s0.5,0.4,0.5,0.9
			C37.7-111.9,37.5-111.5,37.2-111.5z"/>
		<path class="st8" d="M38.7-111.5c0-0.1-0.1-0.2-0.2-0.2c-0.1,0-0.2,0.1-0.2,0.2c0,0.1,0.1,0.2,0.2,0.2
			C38.6-111.3,38.7-111.4,38.7-111.5z"/>
		<path class="st8" d="M39.1-111.4c0.2,0.1,0.3,0.1,0.5,0.1c0.5,0,0.8-0.3,0.8-0.7c0-0.4-0.3-0.6-0.9-0.6c-0.1,0-0.1,0-0.2,0l0-0.7
			h0.4c0.2,0,0.4,0,0.6,0c0-0.1,0-0.2,0-0.2c-0.2,0-0.3,0-0.6,0c-0.3,0-0.4,0-0.6,0l0,0c0,0.1,0,0.2,0,0.3l0,0.3c0,0.1,0,0.2,0,0.3
			l0,0c0.1,0,0.2,0,0.3,0c0.5,0,0.7,0.2,0.7,0.4c0,0.2-0.2,0.4-0.6,0.4c-0.2,0-0.4,0-0.6-0.1C39.1-111.6,39.1-111.4,39.1-111.4z"/>
		<path class="st8" d="M41.5-113.5c-0.5,0-0.7,0.5-0.7,1.1c0,0.6,0.2,1.1,0.7,1.1c0.5,0,0.7-0.5,0.7-1.1
			C42.2-113,42-113.5,41.5-113.5z M41.5-111.5c-0.3,0-0.5-0.4-0.5-0.9c0-0.5,0.2-0.9,0.5-0.9s0.5,0.4,0.5,0.9
			C42-111.9,41.8-111.5,41.5-111.5z"/>
		<text transform="matrix(0.48 0 0 0.48 -27.6573 -105.1839)" class="st2 st9 st6">T</text>
		<text transform="matrix(0.48 0 0 0.48 -25.9159 -105.1839)" class="st2 st9 st6">o</text>
		<text transform="matrix(0.48 0 0 0.48 -24.1958 -105.1839)" class="st2 st9 st6">t</text>
		<text transform="matrix(0.48 0 0 0.48 -23.0012 -105.1839)" class="st2 st9 st6">al</text>
		<path class="st7" d="M33.7-105.6c0.1-0.1,0.3-0.3,0.4-0.4c0.2-0.3,0.4-0.5,0.4-0.8c0-0.4-0.3-0.6-0.7-0.6c-0.3,0-0.5,0.1-0.7,0.2
			l0.1,0.4c0.2-0.1,0.4-0.2,0.5-0.2c0.2,0,0.3,0.1,0.3,0.3c0,0.3-0.3,0.6-1,1.1l0,0.3c0.2,0,0.5,0,0.7,0c0.3,0,0.5,0,0.7,0
			c0-0.2,0-0.3,0-0.4C34.3-105.6,33.9-105.6,33.7-105.6z"/>
		<path class="st7" d="M35.5-107.3c-0.5,0-0.8,0.5-0.8,1.1c0,0.6,0.2,1.1,0.7,1.1c0.5,0,0.8-0.5,0.8-1.1
			C36.3-106.9,36-107.3,35.5-107.3z M35.5-105.5c-0.2,0-0.3-0.2-0.3-0.7c0-0.4,0.1-0.7,0.3-0.7c0.2,0,0.3,0.2,0.3,0.7
			C35.8-105.8,35.7-105.5,35.5-105.5z"/>
		<path class="st7" d="M37.8-107l-0.1-0.4c-0.8,0.1-1.3,0.6-1.3,1.3c0,0.6,0.3,0.9,0.8,0.9c0.5,0,0.8-0.3,0.8-0.8
			c0-0.4-0.3-0.7-0.6-0.7c-0.2,0-0.3,0.1-0.4,0.2C37-106.7,37.3-106.9,37.8-107z M37.5-105.9c0,0.2-0.1,0.4-0.3,0.4
			c-0.2,0-0.3-0.1-0.3-0.4c0-0.2,0.1-0.4,0.3-0.4C37.4-106.2,37.5-106.1,37.5-105.9z"/>
		<path class="st7" d="M38.8-105.4c0-0.2-0.1-0.3-0.3-0.3c-0.2,0-0.3,0.1-0.3,0.3c0,0.1,0.1,0.3,0.3,0.3
			C38.7-105.1,38.8-105.2,38.8-105.4z"/>
		<path class="st7" d="M40.5-105.6c-0.1,0-0.3,0-0.4,0h-0.1v-1.3c0-0.1,0-0.3,0-0.4l-0.2,0l-0.2,0.1c-0.1,0-0.4,0.1-0.6,0.2l0.1,0.4
			l0.4-0.1v1c0,0.1,0,0.1,0,0.2h-0.1c-0.1,0-0.3,0-0.4,0c0,0.1,0,0.3,0,0.4c0.2,0,0.3,0,0.4,0H40c0.2,0,0.4,0,0.6,0
			C40.5-105.2,40.5-105.5,40.5-105.6z"/>
		<path class="st7" d="M40.8-105.2c0.2,0.1,0.4,0.1,0.5,0.1c0.5,0,0.9-0.2,0.9-0.6c0-0.2-0.2-0.4-0.6-0.5c0.3-0.1,0.5-0.3,0.5-0.5
			c0-0.3-0.3-0.5-0.7-0.5c-0.2,0-0.5,0.1-0.7,0.2l0.1,0.4c0.2-0.1,0.4-0.2,0.5-0.2c0.2,0,0.3,0.1,0.3,0.2c0,0.2-0.2,0.3-0.7,0.4
			l0,0.3c0.4,0,0.7,0.1,0.7,0.3c0,0.2-0.2,0.2-0.5,0.2c-0.2,0-0.4,0-0.5-0.1C40.8-105.6,40.8-105.2,40.8-105.2z"/>
		<path class="st10" d="M-29.5-158.4h73.7 M-29.5-152.3h73.7 M-29.5-146.1h73.7 M-29.5-140h73.7 M-29.5-133.8h73.7 M-29.5-127.7
			h73.7 M-29.5-121.5h73.7 M-29.5-115.4h73.7 M-29.5-109.3h73.7 M-29.5-103.1h73.7"/>
	</g>
	<path class="st11" d="M77.1,0c20.1,0,38.8,10.6,49,28c10.2,17.4,10.5,38.8,0.8,56.5l-12.5-6.9c7.3-13.2,7.1-29.3-0.6-42.3
		s-21.7-21-36.8-21C77.1,14.2,77.1,0,77.1,0z"/>
	<path class="st12" d="M76.2,0c0.3,0,0.6,0,0.9,0v14.2c-0.2,0-0.4,0-0.7,0L76.2,0z"/>
	<path class="st13" d="M58.2,3.2c5.8-2,11.9-3.1,18-3.2l0.2,14.2c-4.6,0.1-9.2,0.9-13.5,2.4L58.2,3.2z"/>
	<path class="st14" d="M30.5,24.2c6.8-9.7,16.5-17,27.7-21l4.7,13.4c-8.4,3-15.7,8.5-20.8,15.7C42.2,32.4,30.5,24.2,30.5,24.2z"/>
	<path class="st15" d="M20.6,63.8c-1.7-14,1.8-28.1,9.9-39.6l11.6,8.2c-6.1,8.6-8.7,19.2-7.4,29.7L20.6,63.8z"/>
	<path class="st16" d="M63,112.1c-22.7-5.8-39.6-25-42.4-48.3l14.1-1.7c2.1,17.5,14.7,31.8,31.8,36.2C66.5,98.3,63,112.1,63,112.1z"
		/>
	<path class="st17" d="M126.9,84.5c-12.5,22.7-38.8,34-63.9,27.6l3.5-13.8c18.8,4.8,38.5-3.7,48-20.7
		C114.5,77.6,126.9,84.5,126.9,84.5z"/>
</g>
</svg>
