<?xml version="1.0" encoding="utf-8"?>
<!-- Generator: Adobe Illustrator 24.1.0, SVG Export Plug-In . SVG Version: 6.00 Build 0)  -->
<svg version="1.1" id="Layer_1" xmlns:serif="http://www.serif.com/"
	 xmlns="http://www.w3.org/2000/svg" xmlns:xlink="http://www.w3.org/1999/xlink" x="0px" y="0px" viewBox="0 0 153.6 371.1"
	 style="enable-background:new 0 0 153.6 371.1;" xml:space="preserve">
<style type="text/css">
	.st0{clip-path:url(#SVGID_2_);}
	.st1{clip-path:url(#SVGID_4_);}
	.st2{fill:#1A1A1A;}
	.st3{font-family:'IdealSans-ExtraLight';}
	.st4{font-size:11.5177px;}
	.st5{font-family:'IdealSans-Light';}
	.st6{font-size:6.3987px;}
	.st7{fill-rule:evenodd;clip-rule:evenodd;fill:#1A1A1A;}
	.st8{font-family:'IdealSans-Semibold';}
	.st9{fill:none;stroke:#1A1A1A;stroke-width:0.16;stroke-miterlimit:2.5595;}
	.st10{fill:#E9522B;}
	.st11{fill:#B0B0B0;}
	.st12{fill:#A0A0A0;}
	.st13{fill:#909090;}
	.st14{fill:#808080;}
	.st15{fill:#707070;}
	.st16{fill:#606060;}
	.st17{fill:#505050;}
	.st18{fill:#404040;}
	.st19{fill:#303030;}
	.st20{fill:#202020;}
	.st21{fill:#F8947B;}
	.st22{fill:#F0704F;}
</style>
<g>
	<defs>
		<rect id="SVGID_1_" x="-18.9" y="-20" width="192" height="511.9"/>
	</defs>
	<clipPath id="SVGID_2_">
		<use xlink:href="#SVGID_1_"  style="overflow:visible;"/>
	</clipPath>
	<g class="st0">
		<g>
			<defs>
				<rect id="SVGID_3_" x="-18.9" y="-20" width="192" height="511.9"/>
			</defs>
			<clipPath id="SVGID_4_">
				<use xlink:href="#SVGID_3_"  style="overflow:visible;"/>
			</clipPath>
			<g class="st1">
				<g id="Layer-1" serif:id="Layer 1">
				</g>
			</g>
		</g>
	</g>
</g>
<g id="Layer-11" serif:id="Layer 1">
	<g transform="matrix(2.08333,0,0,2.08333,61.4583,478.168)">
		<text transform="matrix(0.48 0 0 0.48 -4.0046 -162.8092)" class="st2 st3 st4">B</text>
		<text transform="matrix(0.48 0 0 0.48 -0.8035 -162.8092)" class="st2 st3 st4">y</text>
		<text transform="matrix(0.48 0 0 0.48 1.6733 -162.8092)" class="st2 st3 st4"> </text>
		<text transform="matrix(0.48 0 0 0.48 2.7679 -162.8092)" class="st2 st3 st4">Sour</text>
		<text transform="matrix(0.48 0 0 0.48 13.3218 -162.8092)" class="st2 st3 st4">c</text>
		<text transform="matrix(0.48 0 0 0.48 15.9534 -162.8092)" class="st2 st3 st4">e</text>
		<text transform="matrix(0.48 0 0 0.48 -27.6573 -154.6051)" class="st2 st5 st6">W</text>
		<text transform="matrix(0.48 0 0 0.48 -24.7858 -154.6051)" class="st2 st5 st6">o</text>
		<text transform="matrix(0.48 0 0 0.48 -23.1179 -154.6051)" class="st2 st5 st6">r</text>
		<text transform="matrix(0.48 0 0 0.48 -22.1073 -154.6051)" class="st2 st5 st6">ld Bank</text>
		<path class="st7" d="M34.8-156.7c0,0.1,0,0.2,0,0.2c0.2,0,0.4,0,0.7,0c0.2,0,0.4,0,0.5,0l-0.7,1.3c-0.1,0.2-0.2,0.4-0.3,0.5l0.2,0
			c0-0.1,0.1-0.3,0.2-0.4l0.7-1.3c0.1-0.1,0.1-0.3,0.2-0.3l-0.1-0.1c-0.2,0-0.5,0-0.7,0C35.2-156.7,35-156.7,34.8-156.7z"/>
		<path class="st7" d="M36.5-156.7c0,0.1,0,0.2,0,0.2c0.2,0,0.4,0,0.7,0c0.2,0,0.4,0,0.5,0l-0.7,1.3c-0.1,0.2-0.2,0.4-0.3,0.5l0.2,0
			c0-0.1,0.1-0.3,0.2-0.4l0.7-1.3c0.1-0.1,0.1-0.3,0.2-0.3l-0.1-0.1c-0.2,0-0.5,0-0.7,0C36.9-156.7,36.7-156.7,36.5-156.7z"/>
		<path class="st7" d="M38.7-154.7c0-0.1-0.1-0.2-0.2-0.2c-0.1,0-0.2,0.1-0.2,0.2c0,0.1,0.1,0.2,0.2,0.2
			C38.6-154.6,38.7-154.6,38.7-154.7z"/>
		<path class="st7" d="M39.8-156.8c-0.5,0-0.7,0.5-0.7,1.1c0,0.6,0.2,1.1,0.7,1.1c0.5,0,0.7-0.5,0.7-1.1
			C40.5-156.3,40.3-156.8,39.8-156.8z M39.8-154.7c-0.3,0-0.5-0.4-0.5-0.9c0-0.5,0.2-0.9,0.5-0.9s0.5,0.4,0.5,0.9
			C40.3-155.2,40.1-154.7,39.8-154.7z"/>
		<path class="st7" d="M41.5-156.8c-0.5,0-0.7,0.5-0.7,1.1c0,0.6,0.2,1.1,0.7,1.1c0.5,0,0.7-0.5,0.7-1.1
			C42.2-156.3,42-156.8,41.5-156.8z M41.5-154.7c-0.3,0-0.5-0.4-0.5-0.9c0-0.5,0.2-0.9,0.5-0.9s0.5,0.4,0.5,0.9
			C42-155.2,41.8-154.7,41.5-154.7z"/>
		<text transform="matrix(0.48 0 0 0.48 -27.6573 -148.4621)" class="st2 st5 st6">Austr</text>
		<text transform="matrix(0.48 0 0 0.48 -20.6115 -148.4621)" class="st2 st5 st6">a</text>
		<text transform="matrix(0.48 0 0 0.48 -19.1373 -148.4621)" class="st2 st5 st6">l</text>
		<text transform="matrix(0.48 0 0 0.48 -18.4431 -148.4621)" class="st2 st5 st6">ia</text>
		<path class="st7" d="M36.1-150.4l0-0.2c-0.8,0.1-1.2,0.7-1.2,1.4c0,0.5,0.3,0.8,0.7,0.8c0.4,0,0.7-0.3,0.7-0.7
			c0-0.4-0.3-0.7-0.7-0.7c-0.2,0-0.4,0.1-0.6,0.3C35.1-150,35.4-150.3,36.1-150.4z M36-149.1c0,0.3-0.2,0.5-0.5,0.5
			c-0.3,0-0.5-0.2-0.5-0.5c0-0.3,0.2-0.5,0.5-0.5C35.8-149.6,36-149.4,36-149.1z"/>
		<path class="st7" d="M36.5-148.5c0.2,0.1,0.4,0.1,0.5,0.1c0.5,0,0.8-0.3,0.8-0.6c0-0.3-0.2-0.5-0.7-0.5c0.4-0.1,0.6-0.3,0.6-0.6
			c0-0.3-0.3-0.5-0.7-0.5c-0.2,0-0.5,0.1-0.7,0.2l0.1,0.2c0.2-0.1,0.4-0.2,0.6-0.2c0.3,0,0.4,0.1,0.4,0.3c0,0.2-0.2,0.4-0.8,0.5
			l0,0.2c0.5,0,0.8,0.2,0.8,0.4c0,0.2-0.2,0.4-0.6,0.4c-0.2,0-0.4,0-0.6-0.1C36.5-148.7,36.5-148.5,36.5-148.5z"/>
		<path class="st7" d="M38.7-148.6c0-0.1-0.1-0.2-0.2-0.2c-0.1,0-0.2,0.1-0.2,0.2c0,0.1,0.1,0.2,0.2,0.2
			C38.6-148.4,38.7-148.5,38.7-148.6z"/>
		<path class="st7" d="M40.5-148.7c-0.1,0-0.3,0-0.4,0H40v-1.6c0-0.1,0-0.3,0-0.4l0,0l-0.2,0.1c-0.1,0-0.4,0.1-0.6,0.2l0,0.2
			l0.5-0.2v1.3c0,0.1,0,0.3,0,0.4h-0.2c-0.1,0-0.2,0-0.4,0c0,0.1,0,0.1,0,0.2c0.2,0,0.3,0,0.5,0H40c0.2,0,0.4,0,0.6,0
			C40.5-148.5,40.5-148.6,40.5-148.7L40.5-148.7z"/>
		<path class="st7" d="M40.8-150.6c0,0.1,0,0.2,0,0.2c0.2,0,0.4,0,0.7,0c0.2,0,0.4,0,0.5,0l-0.7,1.3c-0.1,0.2-0.2,0.4-0.3,0.5l0.2,0
			c0-0.1,0.1-0.3,0.2-0.4l0.7-1.3c0.1-0.1,0.1-0.3,0.2-0.3l-0.1-0.1c-0.2,0-0.5,0-0.7,0C41.2-150.6,41-150.6,40.8-150.6z"/>
		<text transform="matrix(0.48 0 0 0.48 -27.6573 -142.3194)" class="st2 st5 st6">Gr</text>
		<text transform="matrix(0.48 0 0 0.48 -24.414 -142.3194)" class="st2 st5 st6">e</text>
		<text transform="matrix(0.48 0 0 0.48 -22.8784 -142.3194)" class="st2 st5 st6">e</text>
		<text transform="matrix(0.48 0 0 0.48 -21.3426 -142.3194)" class="st2 st5 st6">n Climate F</text>
		<text transform="matrix(0.48 0 0 0.48 -6.8825 -142.3194)" class="st2 st5 st6">u</text>
		<text transform="matrix(0.48 0 0 0.48 -5.2117 -142.3194)" class="st2 st5 st6">n</text>
		<text transform="matrix(0.48 0 0 0.48 -3.5438 -142.3194)" class="st2 st5 st6">d</text>
		<path class="st7" d="M35.1-142.5c0.2-0.2,0.4-0.4,0.6-0.5c0.3-0.3,0.5-0.5,0.5-0.8c0-0.4-0.3-0.6-0.6-0.6c-0.2,0-0.5,0.1-0.7,0.3
			l0.1,0.2c0.2-0.2,0.4-0.3,0.6-0.3c0.3,0,0.4,0.2,0.4,0.4c0,0.3-0.3,0.7-1.1,1.4l0,0.2c0.2,0,0.4,0,0.7,0c0.3,0,0.5,0,0.7,0
			c0-0.1,0-0.1,0-0.2C35.9-142.5,35.4-142.5,35.1-142.5z"/>
		<path class="st7" d="M36.6-142.4l0,0.2c0.8-0.1,1.2-0.7,1.2-1.4c0-0.5-0.3-0.8-0.7-0.8c-0.4,0-0.7,0.3-0.7,0.7
			c0,0.4,0.3,0.7,0.7,0.7c0.2,0,0.4-0.1,0.6-0.3C37.6-142.9,37.3-142.6,36.6-142.4z M36.7-143.8c0-0.3,0.2-0.5,0.5-0.5
			c0.3,0,0.5,0.2,0.5,0.5c0,0.3-0.2,0.5-0.5,0.5C36.9-143.3,36.7-143.5,36.7-143.8z"/>
		<path class="st7" d="M38.7-142.4c0-0.1-0.1-0.2-0.2-0.2c-0.1,0-0.2,0.1-0.2,0.2c0,0.1,0.1,0.2,0.2,0.2
			C38.6-142.3,38.7-142.3,38.7-142.4z"/>
		<path class="st7" d="M39.2-142.4l0,0.2c0.8-0.1,1.2-0.7,1.2-1.4c0-0.5-0.3-0.8-0.7-0.8c-0.4,0-0.7,0.3-0.7,0.7
			c0,0.4,0.3,0.7,0.7,0.7c0.2,0,0.4-0.1,0.6-0.3C40.2-142.9,39.8-142.6,39.2-142.4z M39.3-143.8c0-0.3,0.2-0.5,0.5-0.5
			c0.3,0,0.5,0.2,0.5,0.5c0,0.3-0.2,0.5-0.5,0.5C39.5-143.3,39.3-143.5,39.3-143.8z"/>
		<path class="st7" d="M41.5-144.5c-0.5,0-0.7,0.5-0.7,1.1c0,0.6,0.2,1.1,0.7,1.1c0.5,0,0.7-0.5,0.7-1.1
			C42.2-144,42-144.5,41.5-144.5z M41.5-142.5c-0.3,0-0.5-0.4-0.5-0.9c0-0.5,0.2-0.9,0.5-0.9s0.5,0.4,0.5,0.9
			C42-142.9,41.8-142.5,41.5-142.5z"/>
		<text transform="matrix(0.48 0 0 0.48 -27.6573 -136.1766)" class="st5 st6">Others</text>
		<text transform="matrix(0.48 0 0 0.48 -23.9715 -130.0339)" class="st2 st5 st6">Eur</text>
		<text transform="matrix(0.48 0 0 0.48 -19.6562 -130.0339)" class="st2 st5 st6">o</text>
		<text transform="matrix(0.48 0 0 0.48 -17.9886 -130.0339)" class="st2 st5 st6">p</text>
		<text transform="matrix(0.48 0 0 0.48 -16.3178 -130.0339)" class="st2 st5 st6">ean U</text>
		<text transform="matrix(0.48 0 0 0.48 -8.7714 -130.0339)" class="st2 st5 st6">n</text>
		<text transform="matrix(0.48 0 0 0.48 -7.1035 -130.0339)" class="st2 st5 st6">i</text>
		<text transform="matrix(0.48 0 0 0.48 -6.4093 -130.0339)" class="st2 st5 st6">on</text>
		<path class="st7" d="M35.1-130.2c0.2-0.2,0.4-0.4,0.6-0.5c0.3-0.3,0.5-0.5,0.5-0.8c0-0.4-0.3-0.6-0.6-0.6c-0.2,0-0.5,0.1-0.7,0.3
			l0.1,0.2c0.2-0.2,0.4-0.3,0.6-0.3c0.3,0,0.4,0.2,0.4,0.4c0,0.3-0.3,0.7-1.1,1.4l0,0.2c0.2,0,0.4,0,0.7,0c0.3,0,0.5,0,0.7,0
			c0-0.1,0-0.1,0-0.2C35.9-130.2,35.4-130.2,35.1-130.2z"/>
		<path class="st7" d="M37.5-130h0.2c0-0.1,0-0.3,0-0.4v-0.2l0.3,0c0-0.1,0-0.1,0-0.2c-0.1,0-0.2,0-0.3,0v-1c0-0.1,0-0.3,0-0.4
			l-0.1,0l-0.2,0.3l-0.9,1.2l0.1,0.1c0.2,0,0.5,0,0.8,0h0.2v0.1C37.5-130.4,37.5-130.1,37.5-130z M37.5-131.8v1h-0.8L37.5-131.8z"/>
		<path class="st7" d="M38.7-130.2c0-0.1-0.1-0.2-0.2-0.2c-0.1,0-0.2,0.1-0.2,0.2c0,0.1,0.1,0.2,0.2,0.2
			C38.6-130,38.7-130.1,38.7-130.2z"/>
		<path class="st7" d="M39.8-132.2c-0.5,0-0.7,0.5-0.7,1.1c0,0.6,0.2,1.1,0.7,1.1c0.5,0,0.7-0.5,0.7-1.1
			C40.5-131.7,40.3-132.2,39.8-132.2z M39.8-130.2c-0.3,0-0.5-0.4-0.5-0.9c0-0.5,0.2-0.9,0.5-0.9s0.5,0.4,0.5,0.9
			C40.3-130.6,40.1-130.2,39.8-130.2z"/>
		<path class="st7" d="M40.8-130.1c0.2,0.1,0.3,0.1,0.5,0.1c0.5,0,0.8-0.3,0.8-0.7c0-0.4-0.3-0.6-0.9-0.6c-0.1,0-0.1,0-0.2,0l0-0.7
			h0.4c0.2,0,0.4,0,0.6,0c0-0.1,0-0.2,0-0.2c-0.2,0-0.3,0-0.6,0c-0.3,0-0.4,0-0.6,0l0,0c0,0.1,0,0.2,0,0.3l0,0.3c0,0.1,0,0.2,0,0.3
			l0,0c0.1,0,0.2,0,0.3,0c0.5,0,0.7,0.2,0.7,0.4c0,0.2-0.2,0.4-0.6,0.4c-0.2,0-0.4,0-0.6-0.1C40.8-130.3,40.8-130.1,40.8-130.1z"/>
		<text transform="matrix(0.48 0 0 0.48 -23.9715 -123.8911)" class="st2 st5 st6">New Z</text>
		<text transform="matrix(0.48 0 0 0.48 -15.4332 -123.8911)" class="st2 st5 st6">e</text>
		<text transform="matrix(0.48 0 0 0.48 -13.8976 -123.8911)" class="st2 st5 st6">a</text>
		<text transform="matrix(0.48 0 0 0.48 -12.4234 -123.8911)" class="st2 st5 st6">land</text>
		<path class="st7" d="M36.5-123.9c0.2,0.1,0.3,0.1,0.5,0.1c0.5,0,0.8-0.3,0.8-0.7c0-0.4-0.3-0.6-0.9-0.6c-0.1,0-0.1,0-0.2,0l0-0.7
			h0.4c0.2,0,0.4,0,0.6,0c0-0.1,0-0.2,0-0.2c-0.2,0-0.3,0-0.6,0c-0.3,0-0.4,0-0.6,0l0,0c0,0.1,0,0.2,0,0.3l0,0.3c0,0.1,0,0.2,0,0.3
			l0,0c0.1,0,0.2,0,0.3,0c0.5,0,0.7,0.2,0.7,0.4c0,0.2-0.2,0.4-0.6,0.4c-0.2,0-0.4,0-0.6-0.1C36.5-124.1,36.5-123.9,36.5-123.9z"/>
		<path class="st7" d="M38.7-124c0-0.1-0.1-0.2-0.2-0.2c-0.1,0-0.2,0.1-0.2,0.2c0,0.1,0.1,0.2,0.2,0.2
			C38.6-123.8,38.7-123.9,38.7-124z"/>
		<path class="st7" d="M39.1-123.9c0.2,0.1,0.3,0.1,0.5,0.1c0.5,0,0.8-0.3,0.8-0.7c0-0.4-0.3-0.6-0.9-0.6c-0.1,0-0.1,0-0.2,0l0-0.7
			h0.4c0.2,0,0.4,0,0.6,0c0-0.1,0-0.2,0-0.2c-0.2,0-0.3,0-0.6,0c-0.3,0-0.4,0-0.6,0l0,0c0,0.1,0,0.2,0,0.3l0,0.3c0,0.1,0,0.2,0,0.3
			l0,0c0.1,0,0.2,0,0.3,0c0.5,0,0.7,0.2,0.7,0.4c0,0.2-0.2,0.4-0.6,0.4c-0.2,0-0.4,0-0.6-0.1C39.1-124.1,39.1-123.9,39.1-123.9z"/>
		<path class="st7" d="M40.8-123.9c0.2,0.1,0.4,0.1,0.5,0.1c0.5,0,0.8-0.3,0.8-0.6c0-0.3-0.2-0.5-0.7-0.5c0.4-0.1,0.6-0.3,0.6-0.6
			c0-0.3-0.3-0.5-0.7-0.5c-0.2,0-0.5,0.1-0.7,0.2l0.1,0.2c0.2-0.1,0.4-0.2,0.6-0.2c0.3,0,0.4,0.1,0.4,0.3c0,0.2-0.2,0.4-0.8,0.5
			l0,0.2c0.5,0,0.8,0.2,0.8,0.4c0,0.2-0.2,0.4-0.6,0.4c-0.2,0-0.4,0-0.6-0.1C40.8-124.2,40.8-123.9,40.8-123.9z"/>
		<text transform="matrix(0.48 0 0 0.48 -23.9715 -117.7486)" class="st2 st5 st6">J</text>
		<text transform="matrix(0.48 0 0 0.48 -22.7706 -117.7486)" class="st2 st5 st6">a</text>
		<text transform="matrix(0.48 0 0 0.48 -21.2964 -117.7486)" class="st2 st5 st6">p</text>
		<text transform="matrix(0.48 0 0 0.48 -19.6258 -117.7486)" class="st2 st5 st6">an</text>
		<path class="st7" d="M36.8-117.9c0.2-0.2,0.4-0.4,0.6-0.5c0.3-0.3,0.5-0.6,0.5-0.8c0-0.4-0.3-0.6-0.6-0.6c-0.2,0-0.5,0.1-0.7,0.3
			l0.1,0.2c0.2-0.2,0.4-0.3,0.6-0.3c0.3,0,0.4,0.2,0.4,0.4c0,0.3-0.3,0.7-1.1,1.4l0,0.2c0.2,0,0.4,0,0.7,0c0.3,0,0.5,0,0.7,0
			c0-0.1,0-0.1,0-0.2C37.6-117.9,37.2-117.9,36.8-117.9z"/>
		<path class="st7" d="M38.7-117.9c0-0.1-0.1-0.2-0.2-0.2c-0.1,0-0.2,0.1-0.2,0.2c0,0.1,0.1,0.2,0.2,0.2
			C38.6-117.7,38.7-117.8,38.7-117.9z"/>
		<path class="st7" d="M39.8-119.9c-0.5,0-0.7,0.5-0.7,1.1c0,0.6,0.2,1.1,0.7,1.1c0.5,0,0.7-0.5,0.7-1.1
			C40.5-119.4,40.3-119.9,39.8-119.9z M39.8-117.9c-0.3,0-0.5-0.4-0.5-0.9c0-0.5,0.2-0.9,0.5-0.9s0.5,0.4,0.5,0.9
			C40.3-118.3,40.1-117.9,39.8-117.9z"/>
		<path class="st7" d="M41.5-119.9c-0.5,0-0.7,0.5-0.7,1.1c0,0.6,0.2,1.1,0.7,1.1c0.5,0,0.7-0.5,0.7-1.1
			C42.2-119.4,42-119.9,41.5-119.9z M41.5-117.9c-0.3,0-0.5-0.4-0.5-0.9c0-0.5,0.2-0.9,0.5-0.9s0.5,0.4,0.5,0.9
			C42-118.3,41.8-117.9,41.5-117.9z"/>
		<text transform="matrix(0.48 0 0 0.48 -23.9715 -111.6057)" class="st2 st5 st6">R</text>
		<text transform="matrix(0.48 0 0 0.48 -22.1104 -111.6057)" class="st2 st5 st6">e</text>
		<text transform="matrix(0.48 0 0 0.48 -20.5747 -111.6057)" class="st2 st5 st6">p</text>
		<text transform="matrix(0.48 0 0 0.48 -18.9039 -111.6057)" class="st2 st5 st6">ublic of K</text>
		<text transform="matrix(0.48 0 0 0.48 -6.9439 -111.6057)" class="st2 st5 st6">o</text>
		<text transform="matrix(0.48 0 0 0.48 -5.2761 -111.6057)" class="st2 st5 st6">r</text>
		<text transform="matrix(0.48 0 0 0.48 -4.3025 -111.6057)" class="st2 st5 st6">e</text>
		<text transform="matrix(0.48 0 0 0.48 -2.7667 -111.6057)" class="st2 st5 st6">a</text>
		<path class="st7" d="M37.9-111.8c-0.1,0-0.3,0-0.4,0h-0.2v-1.6c0-0.1,0-0.3,0-0.4l0,0l-0.2,0.1c-0.1,0-0.4,0.1-0.6,0.2l0,0.2
			l0.5-0.2v1.3c0,0.1,0,0.3,0,0.4h-0.2c-0.1,0-0.2,0-0.4,0c0,0.1,0,0.1,0,0.2c0.2,0,0.3,0,0.5,0h0.3c0.2,0,0.4,0,0.6,0
			C37.9-111.7,37.9-111.7,37.9-111.8L37.9-111.8z"/>
		<path class="st7" d="M38.7-111.7c0-0.1-0.1-0.2-0.2-0.2c-0.1,0-0.2,0.1-0.2,0.2c0,0.1,0.1,0.2,0.2,0.2
			C38.6-111.6,38.7-111.6,38.7-111.7z"/>
		<path class="st7" d="M39.8-113.8c-0.5,0-0.7,0.5-0.7,1.1c0,0.6,0.2,1.1,0.7,1.1c0.5,0,0.7-0.5,0.7-1.1
			C40.5-113.3,40.3-113.8,39.8-113.8z M39.8-111.7c-0.3,0-0.5-0.4-0.5-0.9c0-0.5,0.2-0.9,0.5-0.9s0.5,0.4,0.5,0.9
			C40.3-112.2,40.1-111.7,39.8-111.7z"/>
		<path class="st7" d="M41.5-113.8c-0.5,0-0.7,0.5-0.7,1.1c0,0.6,0.2,1.1,0.7,1.1c0.5,0,0.7-0.5,0.7-1.1
			C42.2-113.3,42-113.8,41.5-113.8z M41.5-111.7c-0.3,0-0.5-0.4-0.5-0.9c0-0.5,0.2-0.9,0.5-0.9s0.5,0.4,0.5,0.9
			C42-112.2,41.8-111.7,41.5-111.7z"/>
		<text transform="matrix(0.48 0 0 0.48 -23.9715 -105.4632)" class="st2 st5 st6">Str</text>
		<text transform="matrix(0.48 0 0 0.48 -20.3875 -105.4632)" class="st2 st5 st6">a</text>
		<text transform="matrix(0.48 0 0 0.48 -18.9193 -105.4632)" class="st2 st5 st6">t</text>
		<text transform="matrix(0.48 0 0 0.48 -17.8811 -105.4632)" class="st2 st5 st6">egic Climate F</text>
		<text transform="matrix(0.48 0 0 0.48 3.412458e-02 -105.4632)" class="st2 st5 st6">u</text>
		<text transform="matrix(0.48 0 0 0.48 1.7052 -105.4632)" class="st2 st5 st6">n</text>
		<text transform="matrix(0.48 0 0 0.48 3.373 -105.4632)" class="st2 st5 st6">d</text>
		<path class="st7" d="M37.9-105.7c-0.1,0-0.3,0-0.4,0h-0.2v-1.6c0-0.1,0-0.3,0-0.4l0,0l-0.2,0.1c-0.1,0-0.4,0.1-0.6,0.2l0,0.2
			l0.5-0.2v1.3c0,0.1,0,0.3,0,0.4h-0.2c-0.1,0-0.2,0-0.4,0c0,0.1,0,0.1,0,0.2c0.2,0,0.3,0,0.5,0h0.3c0.2,0,0.4,0,0.6,0
			C37.9-105.5,37.9-105.6,37.9-105.7L37.9-105.7z"/>
		<path class="st7" d="M38.7-105.6c0-0.1-0.1-0.2-0.2-0.2c-0.1,0-0.2,0.1-0.2,0.2c0,0.1,0.1,0.2,0.2,0.2
			C38.6-105.4,38.7-105.5,38.7-105.6z"/>
		<path class="st7" d="M39.8-107.6c-0.5,0-0.7,0.5-0.7,1.1c0,0.6,0.2,1.1,0.7,1.1c0.5,0,0.7-0.5,0.7-1.1
			C40.5-107.1,40.3-107.6,39.8-107.6z M39.8-105.6c-0.3,0-0.5-0.4-0.5-0.9c0-0.5,0.2-0.9,0.5-0.9s0.5,0.4,0.5,0.9
			C40.3-106,40.1-105.6,39.8-105.6z"/>
		<path class="st7" d="M41.5-107.6c-0.5,0-0.7,0.5-0.7,1.1c0,0.6,0.2,1.1,0.7,1.1c0.5,0,0.7-0.5,0.7-1.1
			C42.2-107.1,42-107.6,41.5-107.6z M41.5-105.6c-0.3,0-0.5-0.4-0.5-0.9c0-0.5,0.2-0.9,0.5-0.9s0.5,0.4,0.5,0.9
			C42-106,41.8-105.6,41.5-105.6z"/>
		<path class="st7" d="M-14.8-100.8c0.1-0.2,0.2-0.6,0.2-0.8l-0.3,0c0,0.2,0,0.6-0.1,0.8L-14.8-100.8z"/>
		<text transform="matrix(0.48 0 0 0.48 -23.9715 -99.3202)" class="st2 st5 st6">P</text>
		<text transform="matrix(0.48 0 0 0.48 -22.3347 -99.3202)" class="st2 st5 st6">e</text>
		<text transform="matrix(0.48 0 0 0.48 -20.799 -99.3202)" class="st2 st5 st6">o</text>
		<text transform="matrix(0.48 0 0 0.48 -19.1312 -99.3202)" class="st2 st5 st6">ple</text>
		<text transform="matrix(0.48 0 0 0.48 -14.3706 -99.3202)" class="st2 st5 st6">s</text>
		<text transform="matrix(0.48 0 0 0.48 -13.1237 -99.3202)" class="st2 st5 st6"> R</text>
		<text transform="matrix(0.48 0 0 0.48 -10.6267 -99.3202)" class="st2 st5 st6">e</text>
		<text transform="matrix(0.48 0 0 0.48 -9.0908 -99.3202)" class="st2 st5 st6">p</text>
		<text transform="matrix(0.48 0 0 0.48 -7.42 -99.3202)" class="st2 st5 st6">ublic of China</text>
		<path class="st7" d="M37.2-101.5c-0.5,0-0.7,0.5-0.7,1.1c0,0.6,0.2,1.1,0.7,1.1c0.5,0,0.7-0.5,0.7-1.1
			C37.9-101,37.7-101.5,37.2-101.5z M37.2-99.5c-0.3,0-0.5-0.4-0.5-0.9c0-0.5,0.2-0.9,0.5-0.9s0.5,0.4,0.5,0.9
			C37.7-99.9,37.5-99.5,37.2-99.5z"/>
		<path class="st7" d="M38.7-99.4c0-0.1-0.1-0.2-0.2-0.2c-0.1,0-0.2,0.1-0.2,0.2c0,0.1,0.1,0.2,0.2,0.2
			C38.6-99.3,38.7-99.3,38.7-99.4z"/>
		<path class="st7" d="M39.1-99.8c0,0.3,0.3,0.6,0.7,0.6c0.4,0,0.7-0.3,0.7-0.6c0-0.3-0.2-0.4-0.5-0.6c0.3-0.1,0.4-0.3,0.4-0.5
			c0-0.3-0.3-0.5-0.6-0.5c-0.4,0-0.7,0.2-0.7,0.6c0,0.3,0.2,0.4,0.4,0.5C39.3-100.3,39.1-100.1,39.1-99.8z M40.3-99.8
			c0,0.2-0.2,0.4-0.5,0.4c-0.3,0-0.5-0.2-0.5-0.4c0-0.2,0.2-0.4,0.5-0.5C40.1-100.2,40.3-100.1,40.3-99.8z M39.4-100.9
			c0-0.2,0.2-0.4,0.4-0.4c0.2,0,0.4,0.1,0.4,0.4c0,0.2-0.2,0.3-0.4,0.4C39.5-100.6,39.4-100.7,39.4-100.9z"/>
		<path class="st7" d="M41.5-101.5c-0.5,0-0.7,0.5-0.7,1.1c0,0.6,0.2,1.1,0.7,1.1c0.5,0,0.7-0.5,0.7-1.1
			C42.2-101,42-101.5,41.5-101.5z M41.5-99.5c-0.3,0-0.5-0.4-0.5-0.9c0-0.5,0.2-0.9,0.5-0.9s0.5,0.4,0.5,0.9
			C42-99.9,41.8-99.5,41.5-99.5z"/>
		<text transform="matrix(0.48 0 0 0.48 -23.9715 -93.1777)" class="st2 st5 st6">W</text>
		<text transform="matrix(0.48 0 0 0.48 -21.0906 -93.1777)" class="st2 st5 st6">a</text>
		<text transform="matrix(0.48 0 0 0.48 -19.6225 -93.1777)" class="st2 st5 st6">t</text>
		<text transform="matrix(0.48 0 0 0.48 -18.5844 -93.1777)" class="st2 st5 st6">er F</text>
		<text transform="matrix(0.48 0 0 0.48 -13.8667 -93.1777)" class="st2 st5 st6">i</text>
		<text transform="matrix(0.48 0 0 0.48 -13.1727 -93.1777)" class="st2 st5 st6">n</text>
		<text transform="matrix(0.48 0 0 0.48 -11.5049 -93.1777)" class="st2 st5 st6">ancing P</text>
		<text transform="matrix(0.48 0 0 0.48 -0.8288 -93.1777)" class="st2 st5 st6">a</text>
		<text transform="matrix(0.48 0 0 0.48 0.6454 -93.1777)" class="st2 st5 st6">r</text>
		<text transform="matrix(0.48 0 0 0.48 1.656 -93.1777)" class="st2 st5 st6">tnership F</text>
		<text transform="matrix(0.48 0 0 0.48 14.2612 -93.1777)" class="st2 st5 st6">a</text>
		<text transform="matrix(0.48 0 0 0.48 15.7349 -93.1777)" class="st2 st5 st6">c</text>
		<text transform="matrix(0.48 0 0 0.48 17.2063 -93.1777)" class="st2 st5 st6">ility</text>
		<text transform="matrix(0.48 0 0 0.48 -23.9715 -89.4919)" class="st2 st5 st6">(</text>
		<text transform="matrix(0.48 0 0 0.48 -22.8015 -89.4919)" class="st2 st5 st6">M</text>
		<text transform="matrix(0.48 0 0 0.48 -20.0893 -89.4919)" class="st2 st5 st6">u</text>
		<text transform="matrix(0.48 0 0 0.48 -18.4187 -89.4919)" class="st2 st5 st6">l</text>
		<text transform="matrix(0.48 0 0 0.48 -17.7245 -89.4919)" class="st2 st5 st6">ti-Donor T</text>
		<text transform="matrix(0.48 0 0 0.48 -4.1797 -89.4919)" class="st2 st5 st6">r</text>
		<text transform="matrix(0.48 0 0 0.48 -3.1693 -89.4919)" class="st2 st5 st6">u</text>
		<text transform="matrix(0.48 0 0 0.48 -1.4982 -89.4919)" class="st2 st5 st6">st F</text>
		<text transform="matrix(0.48 0 0 0.48 2.9029 -89.4919)" class="st2 st5 st6">u</text>
		<text transform="matrix(0.48 0 0 0.48 4.5737 -89.4919)" class="st2 st5 st6">n</text>
		<text transform="matrix(0.48 0 0 0.48 6.2416 -89.4919)" class="st2 st5 st6">d</text>
		<text transform="matrix(0.48 0 0 0.48 7.9738 -89.4919)" class="st2 st5 st6">)</text>
		<path class="st7" d="M37.2-95.3c-0.5,0-0.7,0.5-0.7,1.1c0,0.6,0.2,1.1,0.7,1.1c0.5,0,0.7-0.5,0.7-1.1
			C37.9-94.9,37.7-95.3,37.2-95.3z M37.2-93.3c-0.3,0-0.5-0.4-0.5-0.9c0-0.5,0.2-0.9,0.5-0.9s0.5,0.4,0.5,0.9
			C37.7-93.7,37.5-93.3,37.2-93.3z"/>
		<path class="st7" d="M38.7-93.3c0-0.1-0.1-0.2-0.2-0.2c-0.1,0-0.2,0.1-0.2,0.2c0,0.1,0.1,0.2,0.2,0.2
			C38.6-93.1,38.7-93.2,38.7-93.3z"/>
		<path class="st7" d="M40.4-95.2l0-0.2c-0.8,0.1-1.2,0.7-1.2,1.4c0,0.5,0.3,0.8,0.7,0.8c0.4,0,0.7-0.3,0.7-0.7
			c0-0.4-0.3-0.7-0.7-0.7c-0.2,0-0.4,0.1-0.6,0.3C39.4-94.7,39.7-95,40.4-95.2z M40.3-93.8c0,0.3-0.2,0.5-0.5,0.5
			c-0.3,0-0.5-0.2-0.5-0.5c0-0.3,0.2-0.5,0.5-0.5C40.1-94.3,40.3-94.1,40.3-93.8z"/>
		<path class="st7" d="M40.8-93.2c0.2,0.1,0.3,0.1,0.5,0.1c0.5,0,0.8-0.3,0.8-0.7c0-0.4-0.3-0.6-0.9-0.6c-0.1,0-0.1,0-0.2,0l0-0.7
			h0.4c0.2,0,0.4,0,0.6,0c0-0.1,0-0.2,0-0.2c-0.2,0-0.3,0-0.6,0c-0.3,0-0.4,0-0.6,0l0,0c0,0.1,0,0.2,0,0.3l0,0.3c0,0.1,0,0.2,0,0.3
			l0,0c0.1,0,0.2,0,0.3,0c0.5,0,0.7,0.2,0.7,0.4c0,0.2-0.2,0.4-0.6,0.4c-0.2,0-0.4,0-0.6-0.1L40.8-93.2L40.8-93.2z"/>
		<text transform="matrix(0.48 0 0 0.48 -23.9715 -83.3494)" class="st2 st5 st6">H</text>
		<text transform="matrix(0.48 0 0 0.48 -21.6465 -83.3494)" class="st2 st5 st6">i</text>
		<text transform="matrix(0.48 0 0 0.48 -20.9525 -83.3494)" class="st2 st5 st6">g</text>
		<text transform="matrix(0.48 0 0 0.48 -19.5151 -83.3494)" class="st2 st5 st6">h Lev</text>
		<text transform="matrix(0.48 0 0 0.48 -12.6536 -83.3494)" class="st2 st5 st6">e</text>
		<text transform="matrix(0.48 0 0 0.48 -11.1179 -83.3494)" class="st2 st5 st6">l</text>
		<text transform="matrix(0.48 0 0 0.48 -10.4237 -83.3494)" class="st2 st5 st6"> T</text>
		<text transform="matrix(0.48 0 0 0.48 -8.1786 -83.3494)" class="st2 st5 st6">e</text>
		<text transform="matrix(0.48 0 0 0.48 -6.6428 -83.3494)" class="st2 st5 st6">c</text>
		<text transform="matrix(0.48 0 0 0.48 -5.1718 -83.3494)" class="st2 st5 st6">hnology F</text>
		<text transform="matrix(0.48 0 0 0.48 7.1385 -83.3494)" class="st2 st5 st6">u</text>
		<text transform="matrix(0.48 0 0 0.48 8.8091 -83.3494)" class="st2 st5 st6">n</text>
		<text transform="matrix(0.48 0 0 0.48 10.477 -83.3494)" class="st2 st5 st6">d</text>
		<path class="st7" d="M37.2-85.5c-0.5,0-0.7,0.5-0.7,1.1c0,0.6,0.2,1.1,0.7,1.1c0.5,0,0.7-0.5,0.7-1.1C37.9-85,37.7-85.5,37.2-85.5
			L37.2-85.5z M37.2-83.5c-0.3,0-0.5-0.4-0.5-0.9c0-0.5,0.2-0.9,0.5-0.9s0.5,0.4,0.5,0.9C37.7-83.9,37.5-83.5,37.2-83.5z"/>
		<path class="st7" d="M38.7-83.5c0-0.1-0.1-0.2-0.2-0.2c-0.1,0-0.2,0.1-0.2,0.2c0,0.1,0.1,0.2,0.2,0.2
			C38.6-83.3,38.7-83.4,38.7-83.5L38.7-83.5z"/>
		<path class="st7" d="M39.1-83.4c0.2,0.1,0.3,0.1,0.5,0.1c0.5,0,0.8-0.3,0.8-0.7c0-0.4-0.3-0.6-0.9-0.6c-0.1,0-0.1,0-0.2,0l0-0.7
			h0.4c0.2,0,0.4,0,0.6,0c0-0.1,0-0.2,0-0.2c-0.2,0-0.3,0-0.6,0c-0.3,0-0.4,0-0.6,0l0,0c0,0.1,0,0.2,0,0.3l0,0.3c0,0.1,0,0.2,0,0.3
			l0,0c0.1,0,0.2,0,0.3,0c0.5,0,0.7,0.2,0.7,0.4c0,0.2-0.2,0.4-0.6,0.4c-0.2,0-0.4,0-0.6-0.1L39.1-83.4L39.1-83.4z"/>
		<path class="st7" d="M41.5-85.5c-0.5,0-0.7,0.5-0.7,1.1c0,0.6,0.2,1.1,0.7,1.1c0.5,0,0.7-0.5,0.7-1.1C42.2-85,42-85.5,41.5-85.5
			L41.5-85.5z M41.5-83.5c-0.3,0-0.5-0.4-0.5-0.9c0-0.5,0.2-0.9,0.5-0.9S42-85,42-84.4C42-83.9,41.8-83.5,41.5-83.5z"/>
		<text transform="matrix(0.48 0 0 0.48 -23.9715 -77.2064)" class="st2 st5 st6">U</text>
		<text transform="matrix(0.48 0 0 0.48 -21.7389 -77.2064)" class="st2 st5 st6">n</text>
		<text transform="matrix(0.48 0 0 0.48 -20.0711 -77.2064)" class="st2 st5 st6">i</text>
		<text transform="matrix(0.48 0 0 0.48 -19.3768 -77.2064)" class="st2 st5 st6">ted N</text>
		<text transform="matrix(0.48 0 0 0.48 -12.1192 -77.2064)" class="st2 st5 st6">a</text>
		<text transform="matrix(0.48 0 0 0.48 -10.645 -77.2064)" class="st2 st5 st6">tions Development</text>
		<text transform="matrix(0.48 0 0 0.48 -23.9715 -73.5206)" class="st2 st5 st6">Pr</text>
		<text transform="matrix(0.48 0 0 0.48 -21.3179 -73.5206)" class="st2 st5 st6">o</text>
		<text transform="matrix(0.48 0 0 0.48 -19.6501 -73.5206)" class="st2 st5 st6">gramme</text>
		<path class="st7" d="M37.2-79.4c-0.5,0-0.7,0.5-0.7,1.1c0,0.6,0.2,1.1,0.7,1.1c0.5,0,0.7-0.5,0.7-1.1
			C37.9-78.9,37.7-79.4,37.2-79.4L37.2-79.4z M37.2-77.3c-0.3,0-0.5-0.4-0.5-0.9c0-0.5,0.2-0.9,0.5-0.9s0.5,0.4,0.5,0.9
			C37.7-77.8,37.5-77.3,37.2-77.3z"/>
		<path class="st7" d="M38.7-77.3c0-0.1-0.1-0.2-0.2-0.2c-0.1,0-0.2,0.1-0.2,0.2c0,0.1,0.1,0.2,0.2,0.2
			C38.6-77.2,38.7-77.2,38.7-77.3L38.7-77.3z"/>
		<path class="st7" d="M40-77.2h0.2c0-0.1,0-0.3,0-0.4v-0.2l0.3,0c0-0.1,0-0.1,0-0.2c-0.1,0-0.2,0-0.3,0v-1c0-0.1,0-0.3,0-0.4
			l-0.1,0l-0.2,0.3L39-77.9l0.1,0.1c0.2,0,0.5,0,0.8,0H40v0.1C40-77.6,40-77.3,40-77.2L40-77.2z M40-79v1h-0.8L40-79z"/>
		<path class="st7" d="M41.8-77.2H42c0-0.1,0-0.3,0-0.4v-0.2l0.3,0c0-0.1,0-0.1,0-0.2c-0.1,0-0.2,0-0.3,0v-1c0-0.1,0-0.3,0-0.4
			l-0.1,0l-0.2,0.3l-0.9,1.2l0.1,0.1c0.2,0,0.5,0,0.8,0h0.2v0.1C41.8-77.6,41.8-77.3,41.8-77.2L41.8-77.2z M41.8-79v1H41L41.8-79z"
			/>
		<text transform="matrix(0.48 0 0 0.48 -23.9715 -67.3781)" class="st2 st5 st6">Sanitation F</text>
		<text transform="matrix(0.48 0 0 0.48 -8.7896 -67.3781)" class="st2 st5 st6">i</text>
		<text transform="matrix(0.48 0 0 0.48 -8.0957 -67.3781)" class="st2 st5 st6">n</text>
		<text transform="matrix(0.48 0 0 0.48 -6.4281 -67.3781)" class="st2 st5 st6">ancing P</text>
		<text transform="matrix(0.48 0 0 0.48 4.2482 -67.3781)" class="st2 st5 st6">a</text>
		<text transform="matrix(0.48 0 0 0.48 5.7224 -67.3781)" class="st2 st5 st6">r</text>
		<text transform="matrix(0.48 0 0 0.48 6.733 -67.3781)" class="st2 st5 st6">tnership</text>
		<text transform="matrix(0.48 0 0 0.48 -23.9715 -63.6923)" class="st2 st5 st6">T</text>
		<text transform="matrix(0.48 0 0 0.48 -22.3314 -63.6923)" class="st2 st5 st6">r</text>
		<text transform="matrix(0.48 0 0 0.48 -21.3212 -63.6923)" class="st2 st5 st6">u</text>
		<text transform="matrix(0.48 0 0 0.48 -19.6501 -63.6923)" class="st2 st5 st6">st F</text>
		<text transform="matrix(0.48 0 0 0.48 -15.249 -63.6923)" class="st2 st5 st6">u</text>
		<text transform="matrix(0.48 0 0 0.48 -13.5779 -63.6923)" class="st2 st5 st6">n</text>
		<text transform="matrix(0.48 0 0 0.48 -11.9103 -63.6923)" class="st2 st5 st6">d</text>
		<path class="st7" d="M37.2-69.5c-0.5,0-0.7,0.5-0.7,1.1c0,0.6,0.2,1.1,0.7,1.1c0.5,0,0.7-0.5,0.7-1.1
			C37.9-69.1,37.7-69.5,37.2-69.5L37.2-69.5z M37.2-67.5c-0.3,0-0.5-0.4-0.5-0.9c0-0.5,0.2-0.9,0.5-0.9s0.5,0.4,0.5,0.9
			C37.7-67.9,37.5-67.5,37.2-67.5z"/>
		<path class="st7" d="M38.7-67.5c0-0.1-0.1-0.2-0.2-0.2c-0.1,0-0.2,0.1-0.2,0.2c0,0.1,0.1,0.2,0.2,0.2
			C38.6-67.3,38.7-67.4,38.7-67.5L38.7-67.5z"/>
		<path class="st7" d="M40.5-67.6c-0.1,0-0.3,0-0.4,0H40v-1.6c0-0.1,0-0.3,0-0.4l0,0l-0.2,0.1c-0.1,0-0.4,0.1-0.6,0.2l0,0.2l0.5-0.2
			v1.3c0,0.1,0,0.3,0,0.4h-0.2c-0.1,0-0.2,0-0.4,0c0,0.1,0,0.1,0,0.2c0.2,0,0.3,0,0.5,0H40c0.2,0,0.4,0,0.6,0
			C40.5-67.4,40.5-67.5,40.5-67.6L40.5-67.6z"/>
		<path class="st7" d="M41.5-69.5c-0.5,0-0.7,0.5-0.7,1.1c0,0.6,0.2,1.1,0.7,1.1c0.5,0,0.7-0.5,0.7-1.1C42.2-69.1,42-69.5,41.5-69.5
			L41.5-69.5z M41.5-67.5c-0.3,0-0.5-0.4-0.5-0.9c0-0.5,0.2-0.9,0.5-0.9S42-69,42-68.4C42-67.9,41.8-67.5,41.5-67.5z"/>
		<text transform="matrix(0.48 0 0 0.48 -27.6573 -57.5249)" class="st2 st8 st6">T</text>
		<text transform="matrix(0.48 0 0 0.48 -25.9159 -57.5249)" class="st2 st8 st6">o</text>
		<text transform="matrix(0.48 0 0 0.48 -24.1958 -57.5249)" class="st2 st8 st6">t</text>
		<text transform="matrix(0.48 0 0 0.48 -23.0012 -57.5249)" class="st2 st8 st6">al</text>
		<path class="st7" d="M33.7-57.9c0.1-0.1,0.3-0.3,0.4-0.4c0.2-0.3,0.4-0.5,0.4-0.8c0-0.4-0.3-0.6-0.7-0.6c-0.3,0-0.5,0.1-0.7,0.2
			l0.1,0.4c0.2-0.1,0.4-0.2,0.5-0.2c0.2,0,0.3,0.1,0.3,0.3c0,0.3-0.3,0.6-1,1.1l0,0.3c0.2,0,0.5,0,0.7,0c0.3,0,0.5,0,0.7,0
			c0-0.2,0-0.3,0-0.4C34.3-57.9,33.9-57.9,33.7-57.9L33.7-57.9z"/>
		<path class="st7" d="M35.5-59.7c-0.5,0-0.8,0.5-0.8,1.1c0,0.6,0.2,1.1,0.7,1.1c0.5,0,0.8-0.5,0.8-1.1C36.3-59.2,36-59.7,35.5-59.7
			L35.5-59.7z M35.5-57.8c-0.2,0-0.3-0.2-0.3-0.7c0-0.4,0.1-0.7,0.3-0.7c0.2,0,0.3,0.2,0.3,0.7C35.8-58.1,35.7-57.8,35.5-57.8
			L35.5-57.8z"/>
		<path class="st7" d="M37.8-59.3l-0.1-0.4c-0.8,0.1-1.3,0.6-1.3,1.3c0,0.6,0.3,0.9,0.8,0.9c0.5,0,0.8-0.3,0.8-0.8
			c0-0.4-0.3-0.7-0.6-0.7c-0.2,0-0.3,0.1-0.4,0.2C37-59,37.3-59.3,37.8-59.3L37.8-59.3z M37.5-58.2c0,0.2-0.1,0.4-0.3,0.4
			c-0.2,0-0.3-0.1-0.3-0.4c0-0.2,0.1-0.4,0.3-0.4C37.4-58.6,37.5-58.5,37.5-58.2L37.5-58.2z"/>
		<path class="st7" d="M38.8-57.7c0-0.2-0.1-0.3-0.3-0.3c-0.2,0-0.3,0.1-0.3,0.3c0,0.1,0.1,0.3,0.3,0.3
			C38.7-57.5,38.8-57.6,38.8-57.7L38.8-57.7z"/>
		<path class="st7" d="M40.5-57.9c-0.1,0-0.3,0-0.4,0h-0.1v-1.3c0-0.1,0-0.3,0-0.4l-0.2,0l-0.2,0.1c-0.1,0-0.4,0.1-0.6,0.2l0.1,0.4
			l0.4-0.1v1c0,0.1,0,0.1,0,0.2h-0.1c-0.1,0-0.3,0-0.4,0c0,0.1,0,0.3,0,0.4c0.2,0,0.3,0,0.4,0H40c0.2,0,0.4,0,0.6,0
			C40.5-57.6,40.5-57.9,40.5-57.9L40.5-57.9z"/>
		<path class="st7" d="M40.8-57.6c0.2,0.1,0.4,0.1,0.5,0.1c0.5,0,0.9-0.2,0.9-0.6c0-0.2-0.2-0.4-0.6-0.5c0.3-0.1,0.5-0.3,0.5-0.5
			c0-0.3-0.3-0.5-0.7-0.5c-0.2,0-0.5,0.1-0.7,0.2l0.1,0.4c0.2-0.1,0.4-0.2,0.5-0.2c0.2,0,0.3,0.1,0.3,0.2c0,0.2-0.2,0.3-0.7,0.4
			l0,0.3c0.4,0,0.7,0.1,0.7,0.3c0,0.2-0.2,0.2-0.5,0.2c-0.2,0-0.4,0-0.5-0.1L40.8-57.6z"/>
		<path class="st9" d="M-29.5-158.7h73.7 M-29.5-152.5h73.7 M-29.5-146.4h73.7 M-29.5-140.2h73.7 M-29.5-134.1h73.7 M-29.5-127.9
			h73.7 M-29.5-121.8h73.7 M-29.5-115.7h73.7 M-29.5-109.5h73.7 M-29.5-103.4h73.7 M-29.5-97.2h73.7 M-29.5-87.4h73.7 M-29.5-81.3
			h73.7 M-29.5-71.4h73.7 M-29.5-61.6h73.7 M-29.5-55.5h73.7"/>
	</g>
	<path class="st10" d="M77.1-0.5c22.9,0,43.6,13.8,52.5,34.9c8.9,21.1,4.2,45.5-11.9,61.9l-10.2-10c12-12.3,15.6-30.6,8.9-46.4
		C109.8,24,94.3,13.7,77.1,13.7C77.1,13.7,77.1-0.5,77.1-0.5z"/>
	<path class="st11" d="M76.9-0.5c0.1,0,0.1,0,0.2,0v14.2c0,0-0.1,0-0.1,0C77,13.7,76.9-0.5,76.9-0.5z"/>
	<path class="st12" d="M76.2-0.5c0.3,0,0.5,0,0.8,0l0,14.2c-0.2,0-0.4,0-0.6,0C76.4,13.7,76.2-0.5,76.2-0.5z"/>
	<path class="st13" d="M75.3-0.5c0.3,0,0.6,0,0.9,0l0.2,14.2c-0.2,0-0.4,0-0.7,0C75.8,13.7,75.3-0.5,75.3-0.5z"/>
	<path class="st14" d="M74.2-0.5c0.4,0,0.8,0,1.1,0l0.4,14.2c-0.3,0-0.6,0-0.8,0L74.2-0.5z"/>
	<path class="st15" d="M72.8-0.4c0.5,0,0.9-0.1,1.4-0.1l0.7,14.2c-0.3,0-0.7,0-1,0.1C73.9,13.8,72.8-0.4,72.8-0.4z"/>
	<path class="st16" d="M71.1-0.2c0.6-0.1,1.2-0.1,1.7-0.2l1.1,14.2c-0.4,0-0.9,0.1-1.3,0.1C72.6,13.9,71.1-0.2,71.1-0.2z"/>
	<path class="st17" d="M69.3,0c0.6-0.1,1.1-0.1,1.7-0.2l1.5,14.1c-0.4,0-0.9,0.1-1.3,0.2C71.3,14.1,69.3,0,69.3,0z"/>
	<path class="st18" d="M65.9,0.6c1.1-0.2,2.3-0.4,3.4-0.6l1.9,14.1c-0.9,0.1-1.7,0.3-2.6,0.4L65.9,0.6z"/>
	<path class="st19" d="M56.7,3.2c3-1.1,6.1-2,9.2-2.7l2.8,14c-2.4,0.5-4.7,1.1-6.9,2C61.8,16.5,56.7,3.2,56.7,3.2z"/>
	<path class="st20" d="M26.4,30.5C32.8,18,43.6,8.3,56.7,3.2l5.1,13.3C52,20.3,43.9,27.6,39.1,37C39.1,37,26.4,30.5,26.4,30.5z"/>
	<path class="st21" d="M25.6,80.6c-7.5-15.9-7.2-34.4,0.8-50.1L39.1,37c-6,11.8-6.2,25.6-0.6,37.6L25.6,80.6z"/>
	<path class="st22" d="M117.7,96.3c-13.1,13.3-31.8,19.4-50.1,16.2c-18.4-3.1-34-15-42-31.9l12.9-6.1C44.4,87.2,56.2,96.1,70,98.5
		c13.8,2.3,27.8-2.2,37.6-12.2C107.6,86.3,117.7,96.3,117.7,96.3z"/>
</g>
</svg>
