<?xml version="1.0" encoding="utf-8"?>
<!-- Generator: Adobe Illustrator 24.1.0, SVG Export Plug-In . SVG Version: 6.00 Build 0)  -->
<svg version="1.1" id="Layer_1" xmlns:serif="http://www.serif.com/"
	 xmlns="http://www.w3.org/2000/svg" xmlns:xlink="http://www.w3.org/1999/xlink" x="0px" y="0px" viewBox="0 0 153.6 299"
	 style="enable-background:new 0 0 153.6 299;" xml:space="preserve">
<style type="text/css">
	.st0{clip-path:url(#SVGID_2_);}
	.st1{clip-path:url(#SVGID_4_);}
	.st2{fill:#1A1A1A;}
	.st3{font-family:'IdealSans-ExtraLight';}
	.st4{font-size:11.5177px;}
	.st5{font-family:'IdealSans-Light';}
	.st6{font-size:6.3987px;}
	.st7{fill-rule:evenodd;clip-rule:evenodd;fill:#1A1A1A;}
	.st8{font-family:'IdealSans-Semibold';}
	.st9{fill:none;stroke:#1A1A1A;stroke-width:0.16;stroke-miterlimit:2.5595;}
	.st10{fill:#8CC63F;}
	.st11{fill:#606060;}
	.st12{fill:#505050;}
	.st13{fill:#404040;}
	.st14{fill:#303030;}
	.st15{fill:#202020;}
	.st16{fill:#BFE48E;}
	.st17{fill:#A1D35F;}
</style>
<g>
	<defs>
		<rect id="SVGID_1_" x="-18.9" y="-19.1" width="192" height="511.9"/>
	</defs>
	<clipPath id="SVGID_2_">
		<use xlink:href="#SVGID_1_"  style="overflow:visible;"/>
	</clipPath>
	<g class="st0">
		<g>
			<defs>
				<rect id="SVGID_3_" x="-18.9" y="-19.1" width="192" height="511.9"/>
			</defs>
			<clipPath id="SVGID_4_">
				<use xlink:href="#SVGID_3_"  style="overflow:visible;"/>
			</clipPath>
			<g class="st1">
				<g id="Layer-1" serif:id="Layer 1">
				</g>
			</g>
		</g>
	</g>
</g>
<g id="Layer-11" serif:id="Layer 1">
	<g transform="matrix(2.08333,0,0,2.08333,61.4583,478.168)">
		<text transform="matrix(0.48 0 0 0.48 -3.4435 -162.4057)" class="st2 st3 st4">B</text>
		<text transform="matrix(0.48 0 0 0.48 -0.2424 -162.4057)" class="st2 st3 st4">y</text>
		<text transform="matrix(0.48 0 0 0.48 2.2344 -162.4057)" class="st2 st3 st4"> </text>
		<text transform="matrix(0.48 0 0 0.48 3.329 -162.4057)" class="st2 st3 st4">Sector</text>
		<text transform="matrix(0.48 0 0 0.48 -27.6573 -154.2016)" class="st2 st5 st6">Public Sector Management</text>
		<path class="st7" d="M34.8-154.7c0,0.3,0.3,0.6,0.7,0.6c0.4,0,0.7-0.3,0.7-0.6c0-0.3-0.2-0.4-0.5-0.6c0.3-0.1,0.4-0.3,0.4-0.5
			c0-0.3-0.3-0.5-0.6-0.5c-0.4,0-0.7,0.2-0.7,0.6c0,0.3,0.2,0.4,0.4,0.5C35-155.2,34.8-155,34.8-154.7z M36-154.7
			c0,0.2-0.2,0.4-0.5,0.4c-0.3,0-0.5-0.2-0.5-0.4c0-0.2,0.2-0.4,0.5-0.5C35.8-155.1,36-154.9,36-154.7z M35.1-155.8
			c0-0.2,0.2-0.4,0.4-0.4c0.2,0,0.4,0.1,0.4,0.4c0,0.2-0.2,0.3-0.4,0.4C35.2-155.5,35.1-155.6,35.1-155.8z"/>
		<path class="st7" d="M36.5-156.3c0,0.1,0,0.2,0,0.2c0.2,0,0.4,0,0.7,0c0.2,0,0.4,0,0.5,0l-0.7,1.3c-0.1,0.2-0.2,0.4-0.3,0.5l0.2,0
			c0-0.1,0.1-0.3,0.2-0.4l0.7-1.3c0.1-0.1,0.1-0.3,0.2-0.3l-0.1-0.1c-0.2,0-0.5,0-0.7,0C36.9-156.3,36.7-156.3,36.5-156.3z"/>
		<path class="st7" d="M38.7-154.3c0-0.1-0.1-0.2-0.2-0.2c-0.1,0-0.2,0.1-0.2,0.2c0,0.1,0.1,0.2,0.2,0.2
			C38.6-154.2,38.7-154.2,38.7-154.3z"/>
		<path class="st7" d="M39.4-154.4c0.2-0.2,0.4-0.4,0.6-0.5c0.3-0.3,0.5-0.5,0.5-0.8c0-0.4-0.3-0.6-0.6-0.6c-0.2,0-0.5,0.1-0.7,0.3
			l0.1,0.2c0.2-0.2,0.4-0.3,0.6-0.3c0.3,0,0.4,0.2,0.4,0.4c0,0.3-0.3,0.7-1.1,1.4l0,0.2c0.2,0,0.4,0,0.7,0c0.3,0,0.5,0,0.7,0
			c0-0.1,0-0.1,0-0.2C40.2-154.4,39.7-154.4,39.4-154.4z"/>
		<path class="st7" d="M41.5-156.4c-0.5,0-0.7,0.5-0.7,1.1c0,0.6,0.2,1.1,0.7,1.1c0.5,0,0.7-0.5,0.7-1.1
			C42.2-155.9,42-156.4,41.5-156.4z M41.5-154.3c-0.3,0-0.5-0.4-0.5-0.9c0-0.5,0.2-0.9,0.5-0.9s0.5,0.4,0.5,0.9
			C42-154.8,41.8-154.3,41.5-154.3z"/>
		<text transform="matrix(0.48 0 0 0.48 -27.6573 -148.0586)" class="st2 st5 st6">Health</text>
		<path class="st7" d="M34.8-148.1c0.2,0.1,0.4,0.1,0.5,0.1c0.5,0,0.8-0.3,0.8-0.6c0-0.3-0.2-0.5-0.7-0.5c0.4-0.1,0.6-0.3,0.6-0.6
			c0-0.3-0.3-0.5-0.7-0.5c-0.2,0-0.5,0.1-0.7,0.2l0.1,0.2c0.2-0.1,0.4-0.2,0.6-0.2c0.3,0,0.4,0.1,0.4,0.3c0,0.2-0.2,0.4-0.8,0.5
			l0,0.2c0.5,0,0.8,0.2,0.8,0.4c0,0.2-0.2,0.4-0.6,0.4c-0.2,0-0.4,0-0.6-0.1C34.8-148.3,34.8-148.1,34.8-148.1z"/>
		<path class="st7" d="M36.5-148.6c0,0.3,0.3,0.6,0.7,0.6c0.4,0,0.7-0.3,0.7-0.6c0-0.3-0.2-0.4-0.5-0.6c0.3-0.1,0.4-0.3,0.4-0.5
			c0-0.3-0.3-0.5-0.6-0.5c-0.4,0-0.7,0.2-0.7,0.6c0,0.3,0.2,0.4,0.4,0.5C36.7-149,36.5-148.9,36.5-148.6z M37.7-148.6
			c0,0.2-0.2,0.4-0.5,0.4c-0.3,0-0.5-0.2-0.5-0.4c0-0.2,0.2-0.4,0.5-0.5C37.5-149,37.7-148.8,37.7-148.6z M36.8-149.7
			c0-0.2,0.2-0.4,0.4-0.4c0.2,0,0.4,0.1,0.4,0.4c0,0.2-0.2,0.3-0.4,0.4C37-149.3,36.8-149.5,36.8-149.7z"/>
		<path class="st7" d="M38.7-148.2c0-0.1-0.1-0.2-0.2-0.2c-0.1,0-0.2,0.1-0.2,0.2c0,0.1,0.1,0.2,0.2,0.2
			C38.6-148,38.7-148.1,38.7-148.2z"/>
		<path class="st7" d="M39.8-150.2c-0.5,0-0.7,0.5-0.7,1.1c0,0.6,0.2,1.1,0.7,1.1c0.5,0,0.7-0.5,0.7-1.1
			C40.5-149.7,40.3-150.2,39.8-150.2z M39.8-148.2c-0.3,0-0.5-0.4-0.5-0.9c0-0.5,0.2-0.9,0.5-0.9s0.5,0.4,0.5,0.9
			C40.3-148.6,40.1-148.2,39.8-148.2z"/>
		<path class="st7" d="M41.5-150.2c-0.5,0-0.7,0.5-0.7,1.1c0,0.6,0.2,1.1,0.7,1.1c0.5,0,0.7-0.5,0.7-1.1
			C42.2-149.7,42-150.2,41.5-150.2z M41.5-148.2c-0.3,0-0.5-0.4-0.5-0.9c0-0.5,0.2-0.9,0.5-0.9s0.5,0.4,0.5,0.9
			C42-148.6,41.8-148.2,41.5-148.2z"/>
		<text transform="matrix(0.48 0 0 0.48 -27.6573 -141.9159)" class="st2 st5 st6">Energy</text>
		<path class="st7" d="M34.8-142c0.2,0.1,0.4,0.1,0.5,0.1c0.5,0,0.8-0.3,0.8-0.6c0-0.3-0.2-0.5-0.7-0.5c0.4-0.1,0.6-0.3,0.6-0.6
			c0-0.3-0.3-0.5-0.7-0.5c-0.2,0-0.5,0.1-0.7,0.2l0.1,0.2c0.2-0.1,0.4-0.2,0.6-0.2c0.3,0,0.4,0.1,0.4,0.3c0,0.2-0.2,0.4-0.8,0.5
			l0,0.2c0.5,0,0.8,0.2,0.8,0.4c0,0.2-0.2,0.4-0.6,0.4c-0.2,0-0.4,0-0.6-0.1C34.8-142.2,34.8-142,34.8-142z"/>
		<path class="st7" d="M36.5-142c0.2,0.1,0.4,0.1,0.5,0.1c0.5,0,0.8-0.3,0.8-0.6c0-0.3-0.2-0.5-0.7-0.5c0.4-0.1,0.6-0.3,0.6-0.6
			c0-0.3-0.3-0.5-0.7-0.5c-0.2,0-0.5,0.1-0.7,0.2l0.1,0.2c0.2-0.1,0.4-0.2,0.6-0.2c0.3,0,0.4,0.1,0.4,0.3c0,0.2-0.2,0.4-0.8,0.5
			l0,0.2c0.5,0,0.8,0.2,0.8,0.4c0,0.2-0.2,0.4-0.6,0.4c-0.2,0-0.4,0-0.6-0.1C36.5-142.2,36.5-142,36.5-142z"/>
		<path class="st7" d="M38.7-142c0-0.1-0.1-0.2-0.2-0.2c-0.1,0-0.2,0.1-0.2,0.2c0,0.1,0.1,0.2,0.2,0.2
			C38.6-141.9,38.7-141.9,38.7-142z"/>
		<path class="st7" d="M39.1-142.4c0,0.3,0.3,0.6,0.7,0.6c0.4,0,0.7-0.3,0.7-0.6c0-0.3-0.2-0.4-0.5-0.6c0.3-0.1,0.4-0.3,0.4-0.5
			c0-0.3-0.3-0.5-0.6-0.5c-0.4,0-0.7,0.2-0.7,0.6c0,0.3,0.2,0.4,0.4,0.5C39.3-142.9,39.1-142.7,39.1-142.4z M40.3-142.4
			c0,0.2-0.2,0.4-0.5,0.4c-0.3,0-0.5-0.2-0.5-0.4c0-0.2,0.2-0.4,0.5-0.5C40.1-142.8,40.3-142.7,40.3-142.4z M39.4-143.5
			c0-0.2,0.2-0.4,0.4-0.4c0.2,0,0.4,0.1,0.4,0.4c0,0.2-0.2,0.3-0.4,0.4C39.5-143.2,39.4-143.3,39.4-143.5z"/>
		<path class="st7" d="M41.8-141.9H42c0-0.1,0-0.3,0-0.4v-0.2l0.3,0c0-0.1,0-0.1,0-0.2c-0.1,0-0.2,0-0.3,0v-1c0-0.1,0-0.3,0-0.4
			l-0.1,0l-0.2,0.3l-0.9,1.2l0.1,0.1c0.2,0,0.5,0,0.8,0h0.2v0.1C41.8-142.3,41.8-142,41.8-141.9z M41.8-143.7v1H41L41.8-143.7z"/>
		<text transform="matrix(0.48 0 0 0.48 -27.6573 -135.7731)" class="st5 st6">Others</text>
		<text transform="matrix(0.48 0 0 0.48 -23.9715 -129.6304)" class="st2 st5 st6">W</text>
		<text transform="matrix(0.48 0 0 0.48 -21.0906 -129.6304)" class="st2 st5 st6">a</text>
		<text transform="matrix(0.48 0 0 0.48 -19.6225 -129.6304)" class="st2 st5 st6">t</text>
		<text transform="matrix(0.48 0 0 0.48 -18.5844 -129.6304)" class="st2 st5 st6">er and Other U</text>
		<text transform="matrix(0.48 0 0 0.48 0.6669 -129.6304)" class="st2 st5 st6">r</text>
		<text transform="matrix(0.48 0 0 0.48 1.6776 -129.6304)" class="st2 st5 st6">b</text>
		<text transform="matrix(0.48 0 0 0.48 3.3482 -129.6304)" class="st2 st5 st6">an</text>
		<text transform="matrix(0.48 0 0 0.48 -23.9715 -125.9448)" class="st2 st5 st6">Infr</text>
		<text transform="matrix(0.48 0 0 0.48 -19.4692 -125.9448)" class="st2 st5 st6">a</text>
		<text transform="matrix(0.48 0 0 0.48 -17.9947 -125.9448)" class="st2 st5 st6">s</text>
		<text transform="matrix(0.48 0 0 0.48 -16.7479 -125.9448)" class="st2 st5 st6">tructur</text>
		<text transform="matrix(0.48 0 0 0.48 -7.8746 -125.9448)" class="st2 st5 st6">e</text>
		<text transform="matrix(0.48 0 0 0.48 -6.339 -125.9448)" class="st2 st5 st6"> </text>
		<text transform="matrix(0.48 0 0 0.48 -5.7032 -125.9448)" class="st2 st5 st6">and Services</text>
		<path class="st7" d="M35.1-129.8c0.2-0.2,0.4-0.4,0.6-0.5c0.3-0.3,0.5-0.5,0.5-0.8c0-0.4-0.3-0.6-0.6-0.6c-0.2,0-0.5,0.1-0.7,0.3
			l0.1,0.2c0.2-0.2,0.4-0.3,0.6-0.3c0.3,0,0.4,0.2,0.4,0.4c0,0.3-0.3,0.7-1.1,1.4l0,0.2c0.2,0,0.4,0,0.7,0c0.3,0,0.5,0,0.7,0
			c0-0.1,0-0.1,0-0.2C35.9-129.8,35.4-129.8,35.1-129.8z"/>
		<path class="st7" d="M36.5-129.7c0.2,0.1,0.4,0.1,0.5,0.1c0.5,0,0.8-0.3,0.8-0.6c0-0.3-0.2-0.5-0.7-0.5c0.4-0.1,0.6-0.3,0.6-0.6
			c0-0.3-0.3-0.5-0.7-0.5c-0.2,0-0.5,0.1-0.7,0.2l0.1,0.2c0.2-0.1,0.4-0.2,0.6-0.2c0.3,0,0.4,0.1,0.4,0.3c0,0.2-0.2,0.4-0.8,0.5
			l0,0.2c0.5,0,0.8,0.2,0.8,0.4c0,0.2-0.2,0.4-0.6,0.4c-0.2,0-0.4,0-0.6-0.1L36.5-129.7z"/>
		<path class="st7" d="M38.7-129.8c0-0.1-0.1-0.2-0.2-0.2c-0.1,0-0.2,0.1-0.2,0.2c0,0.1,0.1,0.2,0.2,0.2
			C38.6-129.6,38.7-129.7,38.7-129.8z"/>
		<path class="st7" d="M40.4-131.6l0-0.2c-0.8,0.1-1.2,0.7-1.2,1.4c0,0.5,0.3,0.8,0.7,0.8c0.4,0,0.7-0.3,0.7-0.7
			c0-0.4-0.3-0.7-0.7-0.7c-0.2,0-0.4,0.1-0.6,0.3C39.4-131.1,39.7-131.5,40.4-131.6z M40.3-130.3c0,0.3-0.2,0.5-0.5,0.5
			c-0.3,0-0.5-0.2-0.5-0.5c0-0.3,0.2-0.5,0.5-0.5C40.1-130.8,40.3-130.6,40.3-130.3z"/>
		<path class="st7" d="M40.9-129.7l0,0.2c0.8-0.1,1.2-0.7,1.2-1.4c0-0.5-0.3-0.8-0.7-0.8c-0.4,0-0.7,0.3-0.7,0.7
			c0,0.4,0.3,0.7,0.7,0.7c0.2,0,0.4-0.1,0.6-0.3C41.9-130.2,41.6-129.9,40.9-129.7z M41-131.1c0-0.3,0.2-0.5,0.5-0.5
			c0.3,0,0.5,0.2,0.5,0.5c0,0.3-0.2,0.5-0.5,0.5C41.2-130.6,41-130.8,41-131.1z"/>
		<text transform="matrix(0.48 0 0 0.48 -23.9715 -119.8019)" class="st2 st5 st6">F</text>
		<text transform="matrix(0.48 0 0 0.48 -22.4298 -119.8019)" class="st2 st5 st6">i</text>
		<text transform="matrix(0.48 0 0 0.48 -21.7356 -119.8019)" class="st2 st5 st6">n</text>
		<text transform="matrix(0.48 0 0 0.48 -20.0678 -119.8019)" class="st2 st5 st6">ance</text>
		<path class="st7" d="M36.2-120c-0.1,0-0.3,0-0.4,0h-0.2v-1.6c0-0.1,0-0.3,0-0.4l0,0l-0.2,0.1c-0.1,0-0.4,0.1-0.6,0.2l0,0.2
			l0.5-0.2v1.3c0,0.1,0,0.3,0,0.4h-0.2c-0.1,0-0.2,0-0.4,0c0,0.1,0,0.1,0,0.2c0.2,0,0.3,0,0.5,0h0.3c0.2,0,0.4,0,0.6,0
			C36.2-119.9,36.2-119.9,36.2-120L36.2-120z"/>
		<path class="st7" d="M37.5-119.8h0.2c0-0.1,0-0.3,0-0.4v-0.2l0.3,0c0-0.1,0-0.1,0-0.2c-0.1,0-0.2,0-0.3,0v-1c0-0.1,0-0.3,0-0.4
			l-0.1,0l-0.2,0.3l-0.9,1.2l0.1,0.1c0.2,0,0.5,0,0.8,0h0.2v0.1C37.5-120.1,37.5-119.9,37.5-119.8z M37.5-121.6v1h-0.8L37.5-121.6z"
			/>
		<path class="st7" d="M38.7-119.9c0-0.1-0.1-0.2-0.2-0.2c-0.1,0-0.2,0.1-0.2,0.2c0,0.1,0.1,0.2,0.2,0.2
			C38.6-119.8,38.7-119.8,38.7-119.9z"/>
		<path class="st7" d="M39.8-122c-0.5,0-0.7,0.5-0.7,1.1c0,0.6,0.2,1.1,0.7,1.1c0.5,0,0.7-0.5,0.7-1.1C40.5-121.5,40.3-122,39.8-122
			z M39.8-119.9c-0.3,0-0.5-0.4-0.5-0.9c0-0.5,0.2-0.9,0.5-0.9s0.5,0.4,0.5,0.9C40.3-120.4,40.1-119.9,39.8-119.9z"/>
		<path class="st7" d="M40.8-119.8c0.2,0.1,0.4,0.1,0.5,0.1c0.5,0,0.8-0.3,0.8-0.6c0-0.3-0.2-0.5-0.7-0.5c0.4-0.1,0.6-0.3,0.6-0.6
			c0-0.3-0.3-0.5-0.7-0.5c-0.2,0-0.5,0.1-0.7,0.2l0.1,0.2c0.2-0.1,0.4-0.2,0.6-0.2c0.3,0,0.4,0.1,0.4,0.3c0,0.2-0.2,0.4-0.8,0.5
			l0,0.2c0.5,0,0.8,0.2,0.8,0.4c0,0.2-0.2,0.4-0.6,0.4c-0.2,0-0.4,0-0.6-0.1C40.8-120.1,40.8-119.8,40.8-119.8z"/>
		<text transform="matrix(0.48 0 0 0.48 -23.9715 -113.6594)" class="st2 st5 st6">T</text>
		<text transform="matrix(0.48 0 0 0.48 -22.3314 -113.6594)" class="st2 st5 st6">r</text>
		<text transform="matrix(0.48 0 0 0.48 -21.3611 -113.6594)" class="st2 st5 st6">a</text>
		<text transform="matrix(0.48 0 0 0.48 -19.8868 -113.6594)" class="st2 st5 st6">n</text>
		<text transform="matrix(0.48 0 0 0.48 -18.219 -113.6594)" class="st2 st5 st6">sport</text>
		<path class="st7" d="M36.5-115.8c0,0.1,0,0.2,0,0.2c0.2,0,0.4,0,0.7,0c0.2,0,0.4,0,0.5,0l-0.7,1.3c-0.1,0.2-0.2,0.4-0.3,0.5l0.2,0
			c0-0.1,0.1-0.3,0.2-0.4l0.7-1.3c0.1-0.1,0.1-0.3,0.2-0.3l-0.1-0.1c-0.2,0-0.5,0-0.7,0C36.9-115.8,36.7-115.8,36.5-115.8z"/>
		<path class="st7" d="M38.7-113.8c0-0.1-0.1-0.2-0.2-0.2c-0.1,0-0.2,0.1-0.2,0.2c0,0.1,0.1,0.2,0.2,0.2
			C38.6-113.6,38.7-113.7,38.7-113.8z"/>
		<path class="st7" d="M39.1-113.7c0.2,0.1,0.3,0.1,0.5,0.1c0.5,0,0.8-0.3,0.8-0.7c0-0.4-0.3-0.6-0.9-0.6c-0.1,0-0.1,0-0.2,0l0-0.7
			h0.4c0.2,0,0.4,0,0.6,0c0-0.1,0-0.2,0-0.2c-0.2,0-0.3,0-0.6,0c-0.3,0-0.4,0-0.6,0l0,0c0,0.1,0,0.2,0,0.3l0,0.3c0,0.1,0,0.2,0,0.3
			l0,0c0.1,0,0.2,0,0.3,0c0.5,0,0.7,0.2,0.7,0.4c0,0.2-0.2,0.4-0.6,0.4c-0.2,0-0.4,0-0.6-0.1C39.1-113.9,39.1-113.7,39.1-113.7z"/>
		<path class="st7" d="M40.9-113.8l0,0.2c0.8-0.1,1.2-0.7,1.2-1.4c0-0.5-0.3-0.8-0.7-0.8c-0.4,0-0.7,0.3-0.7,0.7
			c0,0.4,0.3,0.7,0.7,0.7c0.2,0,0.4-0.1,0.6-0.3C41.9-114.3,41.6-113.9,40.9-113.8z M41-115.1c0-0.3,0.2-0.5,0.5-0.5
			c0.3,0,0.5,0.2,0.5,0.5c0,0.3-0.2,0.5-0.5,0.5C41.2-114.6,41-114.8,41-115.1z"/>
		<text transform="matrix(0.48 0 0 0.48 -23.9715 -107.5168)" class="st2 st5 st6">Education</text>
		<path class="st7" d="M37.9-107.7c-0.1,0-0.3,0-0.4,0h-0.2v-1.6c0-0.1,0-0.3,0-0.4l0,0l-0.2,0.1c-0.1,0-0.4,0.1-0.6,0.2l0,0.2
			l0.5-0.2v1.3c0,0.1,0,0.3,0,0.4h-0.2c-0.1,0-0.2,0-0.4,0c0,0.1,0,0.1,0,0.2c0.2,0,0.3,0,0.5,0h0.3c0.2,0,0.4,0,0.6,0
			C37.9-107.6,37.9-107.7,37.9-107.7L37.9-107.7z"/>
		<path class="st7" d="M38.7-107.6c0-0.1-0.1-0.2-0.2-0.2c-0.1,0-0.2,0.1-0.2,0.2c0,0.1,0.1,0.2,0.2,0.2
			C38.6-107.5,38.7-107.5,38.7-107.6z"/>
		<path class="st7" d="M39.4-107.7c0.2-0.2,0.4-0.4,0.6-0.5c0.3-0.3,0.5-0.6,0.5-0.8c0-0.4-0.3-0.6-0.6-0.6c-0.2,0-0.5,0.1-0.7,0.3
			l0.1,0.2c0.2-0.2,0.4-0.3,0.6-0.3c0.3,0,0.4,0.2,0.4,0.4c0,0.3-0.3,0.7-1.1,1.4l0,0.2c0.2,0,0.4,0,0.7,0c0.3,0,0.5,0,0.7,0
			c0-0.1,0-0.1,0-0.2C40.2-107.7,39.7-107.7,39.4-107.7z"/>
		<path class="st7" d="M40.9-107.6l0,0.2c0.8-0.1,1.2-0.7,1.2-1.4c0-0.5-0.3-0.8-0.7-0.8c-0.4,0-0.7,0.3-0.7,0.7
			c0,0.4,0.3,0.7,0.7,0.7c0.2,0,0.4-0.1,0.6-0.3C41.9-108.1,41.6-107.7,40.9-107.6z M41-109c0-0.3,0.2-0.5,0.5-0.5
			c0.3,0,0.5,0.2,0.5,0.5c0,0.3-0.2,0.5-0.5,0.5C41.2-108.5,41-108.7,41-109z"/>
		<path class="st7" d="M-9.4-100.8c0.3-0.2,0.4-0.4,0.4-0.6c0-0.2-0.1-0.3-0.2-0.3c-0.1,0-0.2,0.1-0.2,0.2l0,0
			c0.1,0,0.1,0.1,0.1,0.2c0,0.1-0.1,0.2-0.2,0.3l0,0C-9.5-100.9-9.4-100.8-9.4-100.8z"/>
		<path class="st7" d="M15.6-100.8c0.3-0.2,0.4-0.4,0.4-0.6c0-0.2-0.1-0.3-0.2-0.3c-0.1,0-0.2,0.1-0.2,0.2l0,0
			c0.1,0,0.1,0.1,0.1,0.2c0,0.1-0.1,0.2-0.2,0.3l0,0C15.5-100.9,15.6-100.8,15.6-100.8z"/>
		<text transform="matrix(0.48 0 0 0.48 -23.9715 -101.3739)" class="st2 st5 st6">Agricultur</text>
		<text transform="matrix(0.48 0 0 0.48 -11.1763 -101.3739)" class="st2 st5 st6">e</text>
		<text transform="matrix(0.48 0 0 0.48 -8.7807 -101.3739)" class="st2 st5 st6"> </text>
		<text transform="matrix(0.48 0 0 0.48 -8.1449 -101.3739)" class="st2 st5 st6">Natur</text>
		<text transform="matrix(0.48 0 0 0.48 -0.6137 -101.3739)" class="st2 st5 st6">a</text>
		<text transform="matrix(0.48 0 0 0.48 0.8605 -101.3739)" class="st2 st5 st6">l</text>
		<text transform="matrix(0.48 0 0 0.48 1.5548 -101.3739)" class="st2 st5 st6"> R</text>
		<text transform="matrix(0.48 0 0 0.48 4.0518 -101.3739)" class="st2 st5 st6">e</text>
		<text transform="matrix(0.48 0 0 0.48 5.5874 -101.3739)" class="st2 st5 st6">s</text>
		<text transform="matrix(0.48 0 0 0.48 6.8343 -101.3739)" class="st2 st5 st6">our</text>
		<text transform="matrix(0.48 0 0 0.48 11.1468 -101.3739)" class="st2 st5 st6">c</text>
		<text transform="matrix(0.48 0 0 0.48 12.6177 -101.3739)" class="st2 st5 st6">es</text>
		<text transform="matrix(0.48 0 0 0.48 16.2449 -101.3739)" class="st2 st5 st6"> </text>
		<text transform="matrix(0.48 0 0 0.48 16.8806 -101.3739)" class="st2 st5 st6">and</text>
		<text transform="matrix(0.48 0 0 0.48 -23.9715 -97.6881)" class="st2 st5 st6">R</text>
		<text transform="matrix(0.48 0 0 0.48 -22.0951 -97.6881)" class="st2 st5 st6">u</text>
		<text transform="matrix(0.48 0 0 0.48 -20.4243 -97.6881)" class="st2 st5 st6">r</text>
		<text transform="matrix(0.48 0 0 0.48 -19.4537 -97.6881)" class="st2 st5 st6">a</text>
		<text transform="matrix(0.48 0 0 0.48 -17.9795 -97.6881)" class="st2 st5 st6">l</text>
		<text transform="matrix(0.48 0 0 0.48 -17.2853 -97.6881)" class="st2 st5 st6"> Dev</text>
		<text transform="matrix(0.48 0 0 0.48 -11.4559 -97.6881)" class="st2 st5 st6">e</text>
		<text transform="matrix(0.48 0 0 0.48 -9.92 -97.6881)" class="st2 st5 st6">l</text>
		<text transform="matrix(0.48 0 0 0.48 -9.226 -97.6881)" class="st2 st5 st6">opment</text>
		<path class="st7" d="M37.2-103.5c-0.5,0-0.7,0.5-0.7,1.1c0,0.6,0.2,1.1,0.7,1.1c0.5,0,0.7-0.5,0.7-1.1
			C37.9-103.1,37.7-103.5,37.2-103.5z M37.2-101.5c-0.3,0-0.5-0.4-0.5-0.9c0-0.5,0.2-0.9,0.5-0.9s0.5,0.4,0.5,0.9
			C37.7-101.9,37.5-101.5,37.2-101.5z"/>
		<path class="st7" d="M38.7-101.5c0-0.1-0.1-0.2-0.2-0.2c-0.1,0-0.2,0.1-0.2,0.2c0,0.1,0.1,0.2,0.2,0.2
			C38.6-101.3,38.7-101.4,38.7-101.5z"/>
		<path class="st7" d="M39.1-101.4c0.2,0.1,0.3,0.1,0.5,0.1c0.5,0,0.8-0.3,0.8-0.7c0-0.4-0.3-0.6-0.9-0.6c-0.1,0-0.1,0-0.2,0l0-0.7
			h0.4c0.2,0,0.4,0,0.6,0c0-0.1,0-0.2,0-0.2c-0.2,0-0.3,0-0.6,0c-0.3,0-0.4,0-0.6,0l0,0c0,0.1,0,0.2,0,0.3l0,0.3c0,0.1,0,0.2,0,0.3
			l0,0c0.1,0,0.2,0,0.3,0c0.5,0,0.7,0.2,0.7,0.4c0,0.2-0.2,0.4-0.6,0.4c-0.2,0-0.4,0-0.6-0.1C39.1-101.6,39.1-101.4,39.1-101.4z"/>
		<path class="st7" d="M41.5-103.5c-0.5,0-0.7,0.5-0.7,1.1c0,0.6,0.2,1.1,0.7,1.1c0.5,0,0.7-0.5,0.7-1.1
			C42.2-103.1,42-103.5,41.5-103.5z M41.5-101.5c-0.3,0-0.5-0.4-0.5-0.9c0-0.5,0.2-0.9,0.5-0.9s0.5,0.4,0.5,0.9
			C42-101.9,41.8-101.5,41.5-101.5z"/>
		<text transform="matrix(0.48 0 0 0.48 -27.6573 -91.5212)" class="st2 st8 st6">T</text>
		<text transform="matrix(0.48 0 0 0.48 -25.9159 -91.5212)" class="st2 st8 st6">o</text>
		<text transform="matrix(0.48 0 0 0.48 -24.1958 -91.5212)" class="st2 st8 st6">t</text>
		<text transform="matrix(0.48 0 0 0.48 -23.0012 -91.5212)" class="st2 st8 st6">al</text>
		<path class="st7" d="M33.7-91.9c0.1-0.1,0.3-0.3,0.4-0.4c0.2-0.3,0.4-0.5,0.4-0.8c0-0.4-0.3-0.6-0.7-0.6c-0.3,0-0.5,0.1-0.7,0.2
			l0.1,0.4c0.2-0.1,0.4-0.2,0.5-0.2c0.2,0,0.3,0.1,0.3,0.3c0,0.3-0.3,0.6-1,1.1l0,0.3c0.2,0,0.5,0,0.7,0c0.3,0,0.5,0,0.7,0
			c0-0.2,0-0.3,0-0.4C34.3-91.9,33.9-91.9,33.7-91.9z"/>
		<path class="st7" d="M35.5-93.7c-0.5,0-0.8,0.5-0.8,1.1c0,0.6,0.2,1.1,0.7,1.1c0.5,0,0.8-0.5,0.8-1.1C36.3-93.2,36-93.7,35.5-93.7
			z M35.5-91.8c-0.2,0-0.3-0.2-0.3-0.7c0-0.4,0.1-0.7,0.3-0.7c0.2,0,0.3,0.2,0.3,0.7C35.8-92.1,35.7-91.8,35.5-91.8z"/>
		<path class="st7" d="M37.8-93.3l-0.1-0.4c-0.8,0.1-1.3,0.6-1.3,1.3c0,0.6,0.3,0.9,0.8,0.9c0.5,0,0.8-0.3,0.8-0.8
			c0-0.4-0.3-0.7-0.6-0.7c-0.2,0-0.3,0.1-0.4,0.2C37-93,37.3-93.2,37.8-93.3z M37.5-92.2c0,0.2-0.1,0.4-0.3,0.4
			c-0.2,0-0.3-0.1-0.3-0.4c0-0.2,0.1-0.4,0.3-0.4C37.4-92.6,37.5-92.4,37.5-92.2z"/>
		<path class="st7" d="M38.8-91.7c0-0.2-0.1-0.3-0.3-0.3c-0.2,0-0.3,0.1-0.3,0.3c0,0.1,0.1,0.3,0.3,0.3
			C38.7-91.5,38.8-91.6,38.8-91.7z"/>
		<path class="st7" d="M40.5-91.9c-0.1,0-0.3,0-0.4,0h-0.1v-1.3c0-0.1,0-0.3,0-0.4l-0.2,0l-0.2,0.1c-0.1,0-0.4,0.1-0.6,0.2l0.1,0.4
			l0.4-0.1v1c0,0.1,0,0.1,0,0.2h-0.1c-0.1,0-0.3,0-0.4,0c0,0.1,0,0.3,0,0.4c0.2,0,0.3,0,0.4,0H40c0.2,0,0.4,0,0.6,0
			C40.5-91.6,40.5-91.9,40.5-91.9z"/>
		<path class="st7" d="M40.8-91.6c0.2,0.1,0.4,0.1,0.5,0.1c0.5,0,0.9-0.2,0.9-0.6c0-0.2-0.2-0.4-0.6-0.5c0.3-0.1,0.5-0.3,0.5-0.5
			c0-0.3-0.3-0.5-0.7-0.5c-0.2,0-0.5,0.1-0.7,0.2l0.1,0.4c0.2-0.1,0.4-0.2,0.5-0.2c0.2,0,0.3,0.1,0.3,0.2c0,0.2-0.2,0.3-0.7,0.4
			l0,0.3c0.4,0,0.7,0.1,0.7,0.3c0,0.2-0.2,0.2-0.5,0.2c-0.2,0-0.4,0-0.5-0.1C40.8-92,40.8-91.6,40.8-91.6z"/>
		<path class="st9" d="M-29.5-158.3h73.7 M-29.5-152.1h73.7 M-29.5-146h73.7 M-29.5-139.8h73.7 M-29.5-133.7h73.7 M-29.5-123.9h73.7
			 M-29.5-117.7h73.7 M-29.5-111.6h73.7 M-29.5-105.4h73.7 M-29.5-95.6h73.7 M-29.5-89.5h73.7"/>
	</g>
	<path class="st10" d="M77.1,0.3c26.2,0,49,17.9,55.3,43.3c6.3,25.4-5.6,51.8-28.8,64L97,95c17.4-9.1,26.3-28.9,21.6-48
		c-4.7-19.1-21.8-32.5-41.4-32.5C77.1,14.5,77.1,0.3,77.1,0.3z"/>
	<path class="st11" d="M76.2,0.3c0.3,0,0.6,0,0.9,0v14.2c-0.2,0-0.4,0-0.7,0L76.2,0.3z"/>
	<path class="st12" d="M74,0.4c0.7,0,1.5-0.1,2.2-0.1l0.2,14.2c-0.6,0-1.1,0-1.7,0.1C74.8,14.6,74,0.4,74,0.4z"/>
	<path class="st13" d="M61,2.6c4.2-1.2,8.6-2,13-2.2l0.8,14.2c-3.3,0.2-6.6,0.7-9.7,1.7L61,2.6z"/>
	<path class="st14" d="M39.8,14.2C46,8.9,53.2,4.9,61,2.6l4,13.7C59.2,18,53.8,21,49.2,25C49.2,25,39.8,14.2,39.8,14.2z"/>
	<path class="st15" d="M20.7,49.6c1.9-13.7,8.7-26.3,19.1-35.4L49.2,25c-7.9,6.8-13,16.2-14.4,26.5C34.8,51.5,20.7,49.6,20.7,49.6z"
		/>
	<path class="st16" d="M41.6,101.7C25.9,89.2,18,69.4,20.7,49.6l14.1,1.9c-2,14.9,3.9,29.7,15.6,39.1
		C50.4,90.6,41.6,101.7,41.6,101.7z"/>
	<path class="st17" d="M103.6,107.6c-20,10.5-44.4,8.2-62-5.9l8.9-11.1C63.7,101.2,81.9,102.9,97,95L103.6,107.6z"/>
</g>
</svg>
