<?xml version="1.0" encoding="utf-8"?>
<!-- Generator: Adobe Illustrator 24.1.0, SVG Export Plug-In . SVG Version: 6.00 Build 0)  -->
<svg version="1.1" id="Layer_1" xmlns:serif="http://www.serif.com/"
	 xmlns="http://www.w3.org/2000/svg" xmlns:xlink="http://www.w3.org/1999/xlink" x="0px" y="0px" viewBox="0 0 153.6 202.1"
	 style="enable-background:new 0 0 153.6 202.1;" xml:space="preserve">
<style type="text/css">
	.st0{clip-path:url(#SVGID_2_);}
	.st1{clip-path:url(#SVGID_4_);}
	.st2{fill:#1A1A1A;}
	.st3{font-family:'IdealSans-ExtraLight';}
	.st4{font-size:11.5177px;}
	.st5{font-family:'IdealSans-Light';}
	.st6{font-size:6.3987px;}
	.st7{fill-rule:evenodd;clip-rule:evenodd;fill:#1A1A1A;}
	.st8{font-family:'IdealSans-Semibold';}
	.st9{fill:none;stroke:#1A1A1A;stroke-width:0.16;stroke-miterlimit:2.5595;}
	.st10{fill:#00B6C9;}
	.st11{fill:#F8F166;}
	.st12{fill:#E9522B;}
</style>
<g>
	<defs>
		<rect id="SVGID_1_" x="-18.9" y="-20.9" width="192" height="511.9"/>
	</defs>
	<clipPath id="SVGID_2_">
		<use xlink:href="#SVGID_1_"  style="overflow:visible;"/>
	</clipPath>
	<g class="st0">
		<g>
			<defs>
				<rect id="SVGID_3_" x="-18.9" y="-20.9" width="192" height="511.9"/>
			</defs>
			<clipPath id="SVGID_4_">
				<use xlink:href="#SVGID_3_"  style="overflow:visible;"/>
			</clipPath>
			<g class="st1">
				<g id="Layer-1" serif:id="Layer 1">
				</g>
			</g>
		</g>
	</g>
</g>
<g id="Layer-11" serif:id="Layer 1">
	<g transform="matrix(2.08333,0,0,2.08333,61.4583,478.168)">
		<text transform="matrix(0.48 0 0 0.48 -11.0921 -163.2695)" class="st2 st3 st4">B</text>
		<text transform="matrix(0.48 0 0 0.48 -7.891 -163.2695)" class="st2 st3 st4">y</text>
		<text transform="matrix(0.48 0 0 0.48 -5.4144 -163.2695)" class="st2 st3 st4"> </text>
		<text transform="matrix(0.48 0 0 0.48 -4.3196 -163.2695)" class="st2 st3 st4">P</text>
		<text transform="matrix(0.48 0 0 0.48 -1.4284 -163.2695)" class="st2 st3 st4">r</text>
		<text transform="matrix(0.48 0 0 0.48 0.2577 -163.2695)" class="st2 st3 st4">o</text>
		<text transform="matrix(0.48 0 0 0.48 3.2875 -163.2695)" class="st2 st3 st4">d</text>
		<text transform="matrix(0.48 0 0 0.48 6.2563 -163.2695)" class="st2 st3 st4">uct T</text>
		<text transform="matrix(0.48 0 0 0.48 17.5898 -163.2695)" class="st2 st3 st4">y</text>
		<text transform="matrix(0.48 0 0 0.48 20.0662 -163.2695)" class="st2 st3 st4">p</text>
		<text transform="matrix(0.48 0 0 0.48 23.0409 -163.2695)" class="st2 st3 st4">e</text>
		<text transform="matrix(0.48 0 0 0.48 -27.6573 -155.0654)" class="st2 st5 st6">Loan</text>
		<path class="st7" d="M36.1-157l0-0.2c-0.8,0.1-1.2,0.7-1.2,1.4c0,0.5,0.3,0.8,0.7,0.8c0.4,0,0.7-0.3,0.7-0.7
			c0-0.4-0.3-0.7-0.7-0.7c-0.2,0-0.4,0.1-0.6,0.3C35.1-156.6,35.4-156.9,36.1-157z M36-155.7c0,0.3-0.2,0.5-0.5,0.5
			c-0.3,0-0.5-0.2-0.5-0.5c0-0.3,0.2-0.5,0.5-0.5C35.8-156.2,36-156,36-155.7z"/>
		<path class="st7" d="M37.5-155.1h0.2c0-0.1,0-0.3,0-0.4v-0.2l0.3,0c0-0.1,0-0.1,0-0.2c-0.1,0-0.2,0-0.3,0v-1c0-0.1,0-0.3,0-0.4
			l-0.1,0l-0.2,0.3l-0.9,1.2l0.1,0.1c0.2,0,0.5,0,0.8,0h0.2v0.1C37.5-155.4,37.5-155.2,37.5-155.1z M37.5-156.8v1h-0.8L37.5-156.8z"
			/>
		<path class="st7" d="M38.7-155.2c0-0.1-0.1-0.2-0.2-0.2c-0.1,0-0.2,0.1-0.2,0.2c0,0.1,0.1,0.2,0.2,0.2
			C38.6-155,38.7-155.1,38.7-155.2z"/>
		<path class="st7" d="M39.8-157.2c-0.5,0-0.7,0.5-0.7,1.1c0,0.6,0.2,1.1,0.7,1.1c0.5,0,0.7-0.5,0.7-1.1
			C40.5-156.7,40.3-157.2,39.8-157.2z M39.8-155.2c-0.3,0-0.5-0.4-0.5-0.9c0-0.5,0.2-0.9,0.5-0.9s0.5,0.4,0.5,0.9
			C40.3-155.6,40.1-155.2,39.8-155.2z"/>
		<path class="st7" d="M41.5-157.2c-0.5,0-0.7,0.5-0.7,1.1c0,0.6,0.2,1.1,0.7,1.1c0.5,0,0.7-0.5,0.7-1.1
			C42.2-156.7,42-157.2,41.5-157.2z M41.5-155.2c-0.3,0-0.5-0.4-0.5-0.9c0-0.5,0.2-0.9,0.5-0.9s0.5,0.4,0.5,0.9
			C42-155.6,41.8-155.2,41.5-155.2z"/>
		<text transform="matrix(0.48 0 0 0.48 -27.6573 -148.9224)" class="st2 st5 st6">Gr</text>
		<text transform="matrix(0.48 0 0 0.48 -24.4169 -148.9224)" class="st2 st5 st6">a</text>
		<text transform="matrix(0.48 0 0 0.48 -22.9426 -148.9224)" class="st2 st5 st6">n</text>
		<text transform="matrix(0.48 0 0 0.48 -21.275 -148.9224)" class="st2 st5 st6">t for I</text>
		<text transform="matrix(0.48 0 0 0.48 -14.4442 -148.9224)" class="st2 st5 st6">n</text>
		<text transform="matrix(0.48 0 0 0.48 -12.7764 -148.9224)" class="st2 st5 st6">vestment</text>
		<path class="st7" d="M34.5-149.1c-0.1,0-0.3,0-0.4,0h-0.2v-1.6c0-0.1,0-0.3,0-0.4l0,0l-0.2,0.1c-0.1,0-0.4,0.1-0.6,0.2l0,0.2
			l0.5-0.2v1.3c0,0.1,0,0.3,0,0.4h-0.2c-0.1,0-0.2,0-0.4,0c0,0.1,0,0.1,0,0.2c0.2,0,0.3,0,0.5,0H34c0.2,0,0.4,0,0.6,0
			C34.5-149,34.5-149.1,34.5-149.1L34.5-149.1z"/>
		<path class="st7" d="M36.2-149.1c-0.1,0-0.3,0-0.4,0h-0.2v-1.6c0-0.1,0-0.3,0-0.4l0,0l-0.2,0.1c-0.1,0-0.4,0.1-0.6,0.2l0,0.2
			l0.5-0.2v1.3c0,0.1,0,0.3,0,0.4h-0.2c-0.1,0-0.2,0-0.4,0c0,0.1,0,0.1,0,0.2c0.2,0,0.3,0,0.5,0h0.3c0.2,0,0.4,0,0.6,0
			C36.2-149,36.2-149.1,36.2-149.1L36.2-149.1z"/>
		<path class="st7" d="M37.5-148.9h0.2c0-0.1,0-0.3,0-0.4v-0.2l0.3,0c0-0.1,0-0.1,0-0.2c-0.1,0-0.2,0-0.3,0v-1c0-0.1,0-0.3,0-0.4
			l-0.1,0l-0.2,0.3l-0.9,1.2l0.1,0.1c0.2,0,0.5,0,0.8,0h0.2v0.1C37.5-149.3,37.5-149,37.5-148.9z M37.5-150.7v1h-0.8L37.5-150.7z"/>
		<path class="st7" d="M38.7-149c0-0.1-0.1-0.2-0.2-0.2c-0.1,0-0.2,0.1-0.2,0.2c0,0.1,0.1,0.2,0.2,0.2C38.6-148.9,38.7-149,38.7-149
			z"/>
		<path class="st7" d="M40.4-150.9l0-0.2c-0.8,0.1-1.2,0.7-1.2,1.4c0,0.5,0.3,0.8,0.7,0.8c0.4,0,0.7-0.3,0.7-0.7
			c0-0.4-0.3-0.7-0.7-0.7c-0.2,0-0.4,0.1-0.6,0.3C39.4-150.4,39.7-150.8,40.4-150.9z M40.3-149.6c0,0.3-0.2,0.5-0.5,0.5
			c-0.3,0-0.5-0.2-0.5-0.5c0-0.3,0.2-0.5,0.5-0.5C40.1-150.1,40.3-149.9,40.3-149.6z"/>
		<path class="st7" d="M41.8-148.9H42c0-0.1,0-0.3,0-0.4v-0.2l0.3,0c0-0.1,0-0.1,0-0.2c-0.1,0-0.2,0-0.3,0v-1c0-0.1,0-0.3,0-0.4
			l-0.1,0l-0.2,0.3l-0.9,1.2l0.1,0.1c0.2,0,0.5,0,0.8,0h0.2v0.1C41.8-149.3,41.8-149,41.8-148.9z M41.8-150.7v1H41L41.8-150.7z"/>
		<text transform="matrix(0.48 0 0 0.48 -27.6573 -142.7796)" class="st2 st5 st6">Gr</text>
		<text transform="matrix(0.48 0 0 0.48 -24.4169 -142.7796)" class="st2 st5 st6">a</text>
		<text transform="matrix(0.48 0 0 0.48 -22.9426 -142.7796)" class="st2 st5 st6">n</text>
		<text transform="matrix(0.48 0 0 0.48 -21.275 -142.7796)" class="st2 st5 st6">t for T</text>
		<text transform="matrix(0.48 0 0 0.48 -13.7317 -142.7796)" class="st2 st5 st6">e</text>
		<text transform="matrix(0.48 0 0 0.48 -12.1961 -142.7796)" class="st2 st5 st6">c</text>
		<text transform="matrix(0.48 0 0 0.48 -10.7249 -142.7796)" class="st2 st5 st6">hnical Assistance</text>
		<path class="st7" d="M35.1-143c0.2-0.2,0.4-0.4,0.6-0.5c0.3-0.3,0.5-0.5,0.5-0.8c0-0.4-0.3-0.6-0.6-0.6c-0.2,0-0.5,0.1-0.7,0.3
			l0.1,0.2c0.2-0.2,0.4-0.3,0.6-0.3c0.3,0,0.4,0.2,0.4,0.4c0,0.3-0.3,0.7-1.1,1.4l0,0.2c0.2,0,0.4,0,0.7,0c0.3,0,0.5,0,0.7,0
			c0-0.1,0-0.1,0-0.2C35.9-143,35.4-143,35.1-143z"/>
		<path class="st7" d="M36.5-144.9c0,0.1,0,0.2,0,0.2c0.2,0,0.4,0,0.7,0c0.2,0,0.4,0,0.5,0l-0.7,1.3c-0.1,0.2-0.2,0.4-0.3,0.5l0.2,0
			c0-0.1,0.1-0.3,0.2-0.4l0.7-1.3c0.1-0.1,0.1-0.3,0.2-0.3l-0.1-0.1c-0.2,0-0.5,0-0.7,0C36.9-144.9,36.7-144.9,36.5-144.9z"/>
		<path class="st7" d="M38.7-142.9c0-0.1-0.1-0.2-0.2-0.2c-0.1,0-0.2,0.1-0.2,0.2c0,0.1,0.1,0.2,0.2,0.2
			C38.6-142.7,38.7-142.8,38.7-142.9z"/>
		<path class="st7" d="M40-142.8h0.2c0-0.1,0-0.3,0-0.4v-0.2l0.3,0c0-0.1,0-0.1,0-0.2c-0.1,0-0.2,0-0.3,0v-1c0-0.1,0-0.3,0-0.4
			l-0.1,0l-0.2,0.3l-0.9,1.2l0.1,0.1c0.2,0,0.5,0,0.8,0H40v0.1C40-143.1,40-142.9,40-142.8z M40-144.6v1h-0.8L40-144.6z"/>
		<path class="st7" d="M40.9-142.9l0,0.2c0.8-0.1,1.2-0.7,1.2-1.4c0-0.5-0.3-0.8-0.7-0.8c-0.4,0-0.7,0.3-0.7,0.7
			c0,0.4,0.3,0.7,0.7,0.7c0.2,0,0.4-0.1,0.6-0.3C41.9-143.4,41.6-143,40.9-142.9z M41-144.2c0-0.3,0.2-0.5,0.5-0.5
			c0.3,0,0.5,0.2,0.5,0.5c0,0.3-0.2,0.5-0.5,0.5C41.2-143.7,41-143.9,41-144.2z"/>
		<text transform="matrix(0.48 0 0 0.48 -27.6573 -136.6123)" class="st2 st8 st6">T</text>
		<text transform="matrix(0.48 0 0 0.48 -25.9159 -136.6123)" class="st2 st8 st6">o</text>
		<text transform="matrix(0.48 0 0 0.48 -24.1958 -136.6123)" class="st2 st8 st6">t</text>
		<text transform="matrix(0.48 0 0 0.48 -23.0012 -136.6123)" class="st2 st8 st6">al</text>
		<path class="st7" d="M33.7-137c0.1-0.1,0.3-0.3,0.4-0.4c0.2-0.3,0.4-0.5,0.4-0.8c0-0.4-0.3-0.6-0.7-0.6c-0.3,0-0.5,0.1-0.7,0.2
			l0.1,0.4c0.2-0.1,0.4-0.2,0.5-0.2c0.2,0,0.3,0.1,0.3,0.3c0,0.3-0.3,0.6-1,1.1l0,0.3c0.2,0,0.5,0,0.7,0c0.3,0,0.5,0,0.7,0
			c0-0.2,0-0.3,0-0.4C34.3-137,33.9-137,33.7-137z"/>
		<path class="st7" d="M35.5-138.8c-0.5,0-0.8,0.5-0.8,1.1c0,0.6,0.2,1.1,0.7,1.1c0.5,0,0.8-0.5,0.8-1.1
			C36.3-138.3,36-138.8,35.5-138.8z M35.5-136.9c-0.2,0-0.3-0.2-0.3-0.7c0-0.4,0.1-0.7,0.3-0.7c0.2,0,0.3,0.2,0.3,0.7
			C35.8-137.2,35.7-136.9,35.5-136.9z"/>
		<path class="st7" d="M37.8-138.4l-0.1-0.4c-0.8,0.1-1.3,0.6-1.3,1.3c0,0.6,0.3,0.9,0.8,0.9c0.5,0,0.8-0.3,0.8-0.8
			c0-0.4-0.3-0.7-0.6-0.7c-0.2,0-0.3,0.1-0.4,0.2C37-138.1,37.3-138.3,37.8-138.4z M37.5-137.3c0,0.2-0.1,0.4-0.3,0.4
			c-0.2,0-0.3-0.1-0.3-0.4c0-0.2,0.1-0.4,0.3-0.4C37.4-137.7,37.5-137.5,37.5-137.3z"/>
		<path class="st7" d="M38.8-136.8c0-0.2-0.1-0.3-0.3-0.3c-0.2,0-0.3,0.1-0.3,0.3c0,0.1,0.1,0.3,0.3,0.3
			C38.7-136.6,38.8-136.7,38.8-136.8z"/>
		<path class="st7" d="M40.5-137c-0.1,0-0.3,0-0.4,0h-0.1v-1.3c0-0.1,0-0.3,0-0.4l-0.2,0l-0.2,0.1c-0.1,0-0.4,0.1-0.6,0.2l0.1,0.4
			l0.4-0.1v1c0,0.1,0,0.1,0,0.2h-0.1c-0.1,0-0.3,0-0.4,0c0,0.1,0,0.3,0,0.4c0.2,0,0.3,0,0.4,0H40c0.2,0,0.4,0,0.6,0
			C40.5-136.7,40.5-137,40.5-137z"/>
		<path class="st7" d="M40.8-136.6c0.2,0.1,0.4,0.1,0.5,0.1c0.5,0,0.9-0.2,0.9-0.6c0-0.2-0.2-0.4-0.6-0.5c0.3-0.1,0.5-0.3,0.5-0.6
			c0-0.3-0.3-0.5-0.7-0.5c-0.2,0-0.5,0.1-0.7,0.2l0.1,0.3c0.2-0.1,0.4-0.2,0.5-0.2c0.2,0,0.3,0.1,0.3,0.2c0,0.2-0.2,0.3-0.7,0.4
			l0,0.3c0.4,0,0.7,0.1,0.7,0.3c0,0.2-0.2,0.2-0.5,0.2c-0.2,0-0.4,0-0.5-0.1L40.8-136.6z"/>
		<path class="st9" d="M-29.5-159.1h73.7 M-29.5-153h73.7 M-29.5-146.8h73.7 M-29.5-140.7h73.7 M-29.5-134.5h73.7"/>
	</g>
	<path class="st10" d="M77.1,0c18.6,0,36.1,9.2,46.5,24.7c10.5,15.4,12.6,35,5.7,52.3l-13-5.2c5.2-13,3.6-27.7-4.2-39.3
		C104.1,21,91.1,14,77.1,14L77.1,0L77.1,0z"/>
	<path class="st11" d="M35.3,18.6C46,6.8,61.2,0,77.1,0v14C65.2,14,53.8,19.1,45.8,28C45.8,28,35.3,18.6,35.3,18.6z"/>
	<path class="st12" d="M129.3,77c-8.3,20.8-28.3,34.7-50.7,35.3c-22.4,0.6-43.1-12.2-52.5-32.6c-9.4-20.4-5.8-44.4,9.3-61.1L45.8,28
		c-11.3,12.5-14,30.5-6.9,45.8c7,15.3,22.5,24.9,39.4,24.5c16.8-0.4,31.8-10.9,38-26.5C116.2,71.8,129.3,77,129.3,77z"/>
</g>
</svg>
