<?xml version="1.0" encoding="utf-8"?>
<!-- Generator: Adobe Illustrator 23.0.3, SVG Export Plug-In . SVG Version: 6.00 Build 0)  -->
<svg version="1.1" id="Layer_1" xmlns:serif="http://www.serif.com/"
	 xmlns="http://www.w3.org/2000/svg" xmlns:xlink="http://www.w3.org/1999/xlink" x="0px" y="0px" viewBox="0 0 1280 1024"
	 style="enable-background:new 0 0 1280 1024;" xml:space="preserve">
<style type="text/css">
	.st0{fill:#999999;}
</style>
<g transform="matrix(1,0,0,1,-4724.75,-4412.5)">
	<g transform="matrix(4.16667,0,0,4.16667,2925,0)">
		<g transform="matrix(0.24,0,0,0.24,-702,0)">
			<path class="st0" d="M5925.6,4412.5h-685.7c-12.6,0-22.9,11-22.9,24.4v110.4l22.9,4.6c42.7,8.5,73.4,46.6,73.7,90.5l1,293.6
				c0.2,86.5-29.5,168.2-83.9,230.7c-4.4,5.1-9.1,9.9-13.7,14.6v230.8c0,13.5,10.2,24.4,22.9,24.4H5729v-146.3
				c0-40.2,32.9-73.1,73.1-73.1h146.3v-780.2C5948.4,4423.5,5938.2,4412.5,5925.6,4412.5z M5802.2,5265.8c-13.4,0-24.4,11-24.4,24.4
				v146.3l170.7-170.7H5802.2z M5265.8,4936.2l-0.9-293.8c0-20.7-14.4-38.8-34.4-42.7l-13.4-2.7l-188.2-37.5
				c-2.6-0.5-5.3-0.8-8.3-0.8c-2.6,0-5.3,0.2-8.3,0.8l-201.4,41.4c-20,4.2-34.1,22.2-34.1,42.9l0.8,293.8
				c0.5,154.5,111.9,279.4,244.3,279.4h0.7c78.8-0.2,150-44.8,194.6-113.4C5247.7,5056.9,5265.8,4999.1,5265.8,4936.2z
				 M5752.4,5119.5H5413c-13.6,0-24.4-10.9-24.4-24.3c0-13.4,10.8-24.4,24.4-24.4h339.4c13.6,0,24.4,11,24.4,24.4
				C5776.8,5108.6,5766,5119.5,5752.4,5119.5z M5752.4,4973.3H5413c-13.6,0-24.4-10.9-24.4-24.3s10.8-24.4,24.4-24.4h339.4
				c13.6,0,24.4,11,24.4,24.4S5766,4973.3,5752.4,4973.3z M5752.4,4827H5413c-13.6,0-24.4-10.9-24.4-24.3s10.8-24.4,24.4-24.4h339.4
				c13.6,0,24.4,11,24.4,24.4S5766,4827,5752.4,4827z M5752.4,4680.7H5413c-13.6,0-24.4-10.9-24.4-24.3c0-13.4,10.8-24.4,24.4-24.4
				h339.4c13.6,0,24.4,11,24.4,24.4C5776.8,4669.7,5766,4680.7,5752.4,4680.7z"/>
		</g>
	</g>
</g>
</svg>
