<?xml version="1.0" encoding="utf-8"?>
<!-- Generator: Adobe Illustrator 24.1.0, SVG Export Plug-In . SVG Version: 6.00 Build 0)  -->
<svg version="1.1" id="Layer_1" xmlns:serif="http://www.serif.com/"
	 xmlns="http://www.w3.org/2000/svg" xmlns:xlink="http://www.w3.org/1999/xlink" x="0px" y="0px" viewBox="0 0 153.6 179.2"
	 style="enable-background:new 0 0 153.6 179.2;" xml:space="preserve">
<style type="text/css">
	.st0{clip-path:url(#SVGID_2_);}
	.st1{clip-path:url(#SVGID_4_);}
	.st2{fill:#1A1A1A;}
	.st3{font-family:'IdealSans-ExtraLight';}
	.st4{font-size:11.5177px;}
	.st5{font-family:'IdealSans-Light';}
	.st6{font-size:6.3987px;}
	.st7{fill-rule:evenodd;clip-rule:evenodd;fill:#1A1A1A;}
	.st8{font-family:'IdealSans-Semibold';}
	.st9{fill:none;stroke:#1A1A1A;stroke-width:0.16;stroke-miterlimit:2.5595;}
	.st10{fill:#00B6C9;}
</style>
<g>
	<defs>
		<rect id="SVGID_1_" x="-18.9" y="-20.9" width="192" height="511.9"/>
	</defs>
	<clipPath id="SVGID_2_">
		<use xlink:href="#SVGID_1_"  style="overflow:visible;"/>
	</clipPath>
	<g class="st0">
		<g>
			<defs>
				<rect id="SVGID_3_" x="-18.9" y="-20.9" width="192" height="511.9"/>
			</defs>
			<clipPath id="SVGID_4_">
				<use xlink:href="#SVGID_3_"  style="overflow:visible;"/>
			</clipPath>
			<g class="st1">
				<g id="Layer-1" serif:id="Layer 1">
				</g>
			</g>
		</g>
	</g>
</g>
<g id="Layer-11" serif:id="Layer 1">
	<g transform="matrix(2.08333,0,0,2.08333,61.4583,478.168)">
		<text transform="matrix(0.48 0 0 0.48 -11.0921 -163.2695)" class="st2 st3 st4">B</text>
		<text transform="matrix(0.48 0 0 0.48 -7.891 -163.2695)" class="st2 st3 st4">y</text>
		<text transform="matrix(0.48 0 0 0.48 -5.4144 -163.2695)" class="st2 st3 st4"> </text>
		<text transform="matrix(0.48 0 0 0.48 -4.3196 -163.2695)" class="st2 st3 st4">P</text>
		<text transform="matrix(0.48 0 0 0.48 -1.4284 -163.2695)" class="st2 st3 st4">r</text>
		<text transform="matrix(0.48 0 0 0.48 0.2577 -163.2695)" class="st2 st3 st4">o</text>
		<text transform="matrix(0.48 0 0 0.48 3.2875 -163.2695)" class="st2 st3 st4">d</text>
		<text transform="matrix(0.48 0 0 0.48 6.2563 -163.2695)" class="st2 st3 st4">uct T</text>
		<text transform="matrix(0.48 0 0 0.48 17.5898 -163.2695)" class="st2 st3 st4">y</text>
		<text transform="matrix(0.48 0 0 0.48 20.0662 -163.2695)" class="st2 st3 st4">p</text>
		<text transform="matrix(0.48 0 0 0.48 23.0409 -163.2695)" class="st2 st3 st4">e</text>
		<text transform="matrix(0.48 0 0 0.48 -27.6573 -155.0654)" class="st2 st5 st6">T</text>
		<text transform="matrix(0.48 0 0 0.48 -25.9342 -155.0654)" class="st2 st5 st6">A</text>
		<path class="st7" d="M34.8-155.6c0,0.3,0.3,0.6,0.7,0.6c0.4,0,0.7-0.3,0.7-0.6c0-0.3-0.2-0.4-0.5-0.6c0.3-0.1,0.4-0.3,0.4-0.5
			c0-0.3-0.3-0.5-0.6-0.5c-0.4,0-0.7,0.2-0.7,0.6c0,0.3,0.2,0.4,0.4,0.5C35-156,34.8-155.9,34.8-155.6z M36-155.6
			c0,0.2-0.2,0.4-0.5,0.4c-0.3,0-0.5-0.2-0.5-0.4c0-0.2,0.2-0.4,0.5-0.5C35.8-156,36-155.8,36-155.6z M35.1-156.7
			c0-0.2,0.2-0.4,0.4-0.4c0.2,0,0.4,0.1,0.4,0.4c0,0.2-0.2,0.3-0.4,0.4C35.2-156.3,35.1-156.5,35.1-156.7z"/>
		<path class="st7" d="M37.5-155.1h0.2c0-0.1,0-0.3,0-0.4v-0.2l0.3,0c0-0.1,0-0.1,0-0.2c-0.1,0-0.2,0-0.3,0v-1c0-0.1,0-0.3,0-0.4
			l-0.1,0l-0.2,0.3l-0.9,1.2l0.1,0.1c0.2,0,0.5,0,0.8,0h0.2v0.1C37.5-155.4,37.5-155.2,37.5-155.1z M37.5-156.8v1h-0.8L37.5-156.8z"
			/>
		<path class="st7" d="M38.7-155.2c0-0.1-0.1-0.2-0.2-0.2c-0.1,0-0.2,0.1-0.2,0.2c0,0.1,0.1,0.2,0.2,0.2
			C38.6-155,38.7-155.1,38.7-155.2z"/>
		<path class="st7" d="M40.5-155.3c-0.1,0-0.3,0-0.4,0H40v-1.6c0-0.1,0-0.3,0-0.4l0,0l-0.2,0.1c-0.1,0-0.4,0.1-0.6,0.2l0,0.2
			l0.5-0.2v1.3c0,0.1,0,0.3,0,0.4h-0.2c-0.1,0-0.2,0-0.4,0c0,0.1,0,0.1,0,0.2c0.2,0,0.3,0,0.5,0H40c0.2,0,0.4,0,0.6,0
			C40.5-155.1,40.5-155.2,40.5-155.3L40.5-155.3z"/>
		<path class="st7" d="M41.8-155.1H42c0-0.1,0-0.3,0-0.4v-0.2l0.3,0c0-0.1,0-0.1,0-0.2c-0.1,0-0.2,0-0.3,0v-1c0-0.1,0-0.3,0-0.4
			l-0.1,0l-0.2,0.3l-0.9,1.2l0.1,0.1c0.2,0,0.5,0,0.8,0h0.2v0.1C41.8-155.4,41.8-155.2,41.8-155.1z M41.8-156.8v1H41L41.8-156.8z"/>
		<text transform="matrix(0.48 0 0 0.48 -27.6573 -148.898)" class="st2 st8 st6">T</text>
		<text transform="matrix(0.48 0 0 0.48 -25.9159 -148.898)" class="st2 st8 st6">o</text>
		<text transform="matrix(0.48 0 0 0.48 -24.1958 -148.898)" class="st2 st8 st6">t</text>
		<text transform="matrix(0.48 0 0 0.48 -23.0012 -148.898)" class="st2 st8 st6">al</text>
		<path class="st7" d="M34.7-149.4c0,0.3,0.3,0.6,0.8,0.6c0.5,0,0.8-0.3,0.8-0.6c0-0.2-0.2-0.4-0.4-0.5c0.2-0.1,0.4-0.3,0.4-0.5
			c0-0.3-0.3-0.6-0.7-0.6c-0.4,0-0.7,0.3-0.7,0.6c0,0.2,0.2,0.4,0.4,0.5C34.9-149.9,34.7-149.7,34.7-149.4z M35.8-149.5
			c0,0.2-0.1,0.3-0.3,0.3c-0.2,0-0.3-0.1-0.3-0.3c0-0.2,0.1-0.3,0.3-0.4C35.7-149.7,35.8-149.6,35.8-149.5z M35.2-150.5
			c0-0.1,0.1-0.3,0.3-0.3c0.2,0,0.3,0.1,0.3,0.3c0,0.1-0.1,0.3-0.3,0.3C35.4-150.2,35.2-150.3,35.2-150.5z"/>
		<path class="st7" d="M37.3-148.9h0.5c0-0.1,0-0.2,0-0.3v-0.2l0.2,0c0-0.2,0-0.2,0-0.4c-0.1,0-0.1,0-0.2,0v-0.9c0-0.1,0-0.3,0-0.4
			l-0.4,0c0,0-0.1,0.2-0.2,0.3l-0.8,1l0,0.3c0.2,0,0.5,0,0.7,0h0.2v0.1C37.3-149.2,37.3-149,37.3-148.9z M36.8-149.7l0.5-0.7l0,0.7
			C37.2-149.8,36.8-149.7,36.8-149.7z"/>
		<path class="st7" d="M38.8-149.1c0-0.2-0.1-0.3-0.3-0.3c-0.2,0-0.3,0.1-0.3,0.3c0,0.1,0.1,0.3,0.3,0.3
			C38.7-148.8,38.8-149,38.8-149.1z"/>
		<path class="st7" d="M40.5-149.3c-0.1,0-0.3,0-0.4,0h-0.1v-1.3c0-0.1,0-0.3,0-0.4l-0.2,0l-0.2,0.1c-0.1,0-0.4,0.1-0.6,0.2l0.1,0.4
			l0.4-0.1v1c0,0.1,0,0.1,0,0.2h-0.1c-0.1,0-0.3,0-0.4,0c0,0.1,0,0.3,0,0.4c0.2,0,0.3,0,0.4,0H40c0.2,0,0.4,0,0.6,0
			C40.5-149,40.5-149.2,40.5-149.3z"/>
		<path class="st7" d="M41.6-148.9h0.5c0-0.1,0-0.2,0-0.3v-0.2l0.2,0c0-0.2,0-0.2,0-0.4c-0.1,0-0.1,0-0.2,0v-0.9c0-0.1,0-0.3,0-0.4
			l-0.4,0c0,0-0.1,0.2-0.2,0.3l-0.8,1l0,0.3c0.2,0,0.5,0,0.7,0h0.2v0.1C41.6-149.2,41.6-149,41.6-148.9z M41.1-149.7l0.5-0.7l0,0.7
			C41.5-149.8,41.1-149.7,41.1-149.7z"/>
		<path class="st9" d="M-29.5-159.1h73.7 M-29.5-153h73.7 M-29.5-146.8h73.7"/>
	</g>
	<path class="st10" d="M77.1,0c31,0,56.2,25.1,56.2,56.2c0,31-25.1,56.2-56.2,56.2v-14c23.3,0,42.1-18.9,42.1-42.1
		c0-23.3-18.9-42.1-42.1-42.1C77.1,14,77.1,0,77.1,0z"/>
	<path class="st10" d="M77.1,112.3c-31,0-56.2-25.1-56.2-56.2C20.9,25.1,46.1,0,77.1,0v14C53.8,14,35,32.9,35,56.2
		c0,23.3,18.9,42.1,42.1,42.1V112.3z"/>
</g>
</svg>
