<?xml version="1.0" encoding="utf-8"?>
<!-- Generator: Adobe Illustrator 24.1.0, SVG Export Plug-In . SVG Version: 6.00 Build 0)  -->
<svg version="1.1" id="Layer_1" xmlns:serif="http://www.serif.com/"
	 xmlns="http://www.w3.org/2000/svg" xmlns:xlink="http://www.w3.org/1999/xlink" x="0px" y="0px" viewBox="0 0 155.2 333.8"
	 style="enable-background:new 0 0 155.2 333.8;" xml:space="preserve">
<style type="text/css">
	.st0{clip-path:url(#SVGID_2_);}
	.st1{clip-path:url(#SVGID_4_);}
	.st2{fill:#1A1A1A;}
	.st3{font-family:'IdealSans-ExtraLight';}
	.st4{font-size:11.5177px;}
	.st5{font-family:'IdealSans-Light';}
	.st6{font-size:6.3987px;}
	.st7{fill-rule:evenodd;clip-rule:evenodd;fill:#1A1A1A;}
	.st8{fill-rule:evenodd;clip-rule:evenodd;}
	.st9{font-family:'IdealSans-Semibold';}
	.st10{fill:none;stroke:#1A1A1A;stroke-width:0.16;stroke-miterlimit:2.5595;}
	.st11{fill:#808080;}
	.st12{fill:#707070;}
	.st13{fill:#606060;}
	.st14{fill:#505050;}
	.st15{fill:#404040;}
	.st16{fill:#303030;}
	.st17{fill:#202020;}
	.st18{fill:#BFE48E;}
	.st19{fill:#A1D35F;}
	.st20{fill:#8CC63F;}
</style>
<g>
	<defs>
		<rect id="SVGID_1_" x="-17.3" y="-19.3" width="192" height="511.9"/>
	</defs>
	<clipPath id="SVGID_2_">
		<use xlink:href="#SVGID_1_"  style="overflow:visible;"/>
	</clipPath>
	<g class="st0">
		<g>
			<defs>
				<rect id="SVGID_3_" x="-17.3" y="-19.3" width="192" height="511.9"/>
			</defs>
			<clipPath id="SVGID_4_">
				<use xlink:href="#SVGID_3_"  style="overflow:visible;"/>
			</clipPath>
			<g class="st1">
				<g id="Layer-1" serif:id="Layer 1">
				</g>
			</g>
		</g>
	</g>
</g>
<g id="Layer-11" serif:id="Layer 1">
	<g transform="matrix(2.08333,0,0,2.08333,61.4583,478.168)">
		<text transform="matrix(0.48 0 0 0.48 -2.671 -162.4689)" class="st2 st3 st4">B</text>
		<text transform="matrix(0.48 0 0 0.48 0.5301 -162.4689)" class="st2 st3 st4">y</text>
		<text transform="matrix(0.48 0 0 0.48 3.007 -162.4689)" class="st2 st3 st4"> </text>
		<text transform="matrix(0.48 0 0 0.48 4.1015 -162.4689)" class="st2 st3 st4">Sector</text>
		<text transform="matrix(0.48 0 0 0.48 -26.8848 -154.2648)" class="st2 st5 st6">Multisector</text>
		<path class="st7" d="M36.5-154.3h0.2c0-0.1,0-0.3,0-0.4v-0.2l0.3,0c0-0.1,0-0.1,0-0.2c-0.1,0-0.2,0-0.3,0v-1c0-0.1,0-0.3,0-0.4
			l-0.1,0l-0.2,0.3l-0.9,1.2l0.1,0.1c0.2,0,0.5,0,0.8,0h0.2v0.1C36.5-154.6,36.5-154.4,36.5-154.3z M36.5-156v1h-0.8L36.5-156z"/>
		<path class="st7" d="M38.5-156.2l0-0.2c-0.8,0.1-1.2,0.7-1.2,1.4c0,0.5,0.3,0.8,0.7,0.8c0.4,0,0.7-0.3,0.7-0.7
			c0-0.4-0.3-0.7-0.7-0.7c-0.2,0-0.4,0.1-0.6,0.3C37.6-155.8,37.9-156.1,38.5-156.2z M38.5-154.9c0,0.3-0.2,0.5-0.5,0.5
			c-0.3,0-0.5-0.2-0.5-0.5c0-0.3,0.2-0.5,0.5-0.5C38.3-155.4,38.5-155.2,38.5-154.9z"/>
		<path class="st7" d="M39.4-154.4c0-0.1-0.1-0.2-0.2-0.2c-0.1,0-0.2,0.1-0.2,0.2c0,0.1,0.1,0.2,0.2,0.2
			C39.4-154.2,39.4-154.3,39.4-154.4z"/>
		<path class="st7" d="M40.6-156.4c-0.5,0-0.7,0.5-0.7,1.1c0,0.6,0.2,1.1,0.7,1.1c0.5,0,0.7-0.5,0.7-1.1
			C41.3-155.9,41-156.4,40.6-156.4z M40.6-154.4c-0.3,0-0.5-0.4-0.5-0.9c0-0.5,0.2-0.9,0.5-0.9s0.5,0.4,0.5,0.9
			C41.1-154.8,40.9-154.4,40.6-154.4z"/>
		<path class="st7" d="M42.3-156.4c-0.5,0-0.7,0.5-0.7,1.1c0,0.6,0.2,1.1,0.7,1.1c0.5,0,0.7-0.5,0.7-1.1
			C43-155.9,42.8-156.4,42.3-156.4z M42.3-154.4c-0.3,0-0.5-0.4-0.5-0.9c0-0.5,0.2-0.9,0.5-0.9s0.5,0.4,0.5,0.9
			C42.8-154.8,42.6-154.4,42.3-154.4z"/>
		<text transform="matrix(0.48 0 0 0.48 -26.8848 -148.1219)" class="st2 st5 st6">W</text>
		<text transform="matrix(0.48 0 0 0.48 -24.0039 -148.1219)" class="st2 st5 st6">a</text>
		<text transform="matrix(0.48 0 0 0.48 -22.5357 -148.1219)" class="st2 st5 st6">t</text>
		<text transform="matrix(0.48 0 0 0.48 -21.4974 -148.1219)" class="st2 st5 st6">er and Other U</text>
		<text transform="matrix(0.48 0 0 0.48 -2.2463 -148.1219)" class="st2 st5 st6">r</text>
		<text transform="matrix(0.48 0 0 0.48 -1.2357 -148.1219)" class="st2 st5 st6">b</text>
		<text transform="matrix(0.48 0 0 0.48 0.4352 -148.1219)" class="st2 st5 st6">an Infr</text>
		<text transform="matrix(0.48 0 0 0.48 8.7159 -148.1219)" class="st2 st5 st6">a</text>
		<text transform="matrix(0.48 0 0 0.48 10.1896 -148.1219)" class="st2 st5 st6">s</text>
		<text transform="matrix(0.48 0 0 0.48 11.437 -148.1219)" class="st2 st5 st6">tructur</text>
		<text transform="matrix(0.48 0 0 0.48 20.31 -148.1219)" class="st2 st5 st6">e</text>
		<text transform="matrix(0.48 0 0 0.48 -26.8848 -144.4361)" class="st2 st5 st6">and Services</text>
		<path class="st7" d="M37-148.3c-0.1,0-0.3,0-0.4,0h-0.2v-1.6c0-0.1,0-0.3,0-0.4l0,0l-0.2,0.1c-0.1,0-0.4,0.1-0.6,0.2l0,0.2
			l0.5-0.2v1.3c0,0.1,0,0.3,0,0.4H36c-0.1,0-0.2,0-0.4,0c0,0.1,0,0.1,0,0.2c0.2,0,0.3,0,0.5,0h0.3c0.2,0,0.4,0,0.6,0
			C37-148.2,37-148.3,37-148.3L37-148.3z"/>
		<path class="st7" d="M37.3-148.2c0.2,0.1,0.3,0.1,0.5,0.1c0.5,0,0.8-0.3,0.8-0.7c0-0.4-0.3-0.6-0.9-0.6c-0.1,0-0.1,0-0.2,0l0-0.7
			H38c0.2,0,0.4,0,0.6,0c0-0.1,0-0.2,0-0.2c-0.2,0-0.3,0-0.6,0c-0.3,0-0.4,0-0.6,0l0,0c0,0.1,0,0.2,0,0.3l0,0.3c0,0.1,0,0.2,0,0.3
			l0,0c0.1,0,0.2,0,0.3,0c0.5,0,0.7,0.2,0.7,0.4c0,0.2-0.2,0.4-0.6,0.4c-0.2,0-0.4,0-0.6-0.1C37.3-148.4,37.3-148.2,37.3-148.2z"/>
		<path class="st7" d="M39.4-148.2c0-0.1-0.1-0.2-0.2-0.2c-0.1,0-0.2,0.1-0.2,0.2c0,0.1,0.1,0.2,0.2,0.2
			C39.4-148.1,39.4-148.1,39.4-148.2z"/>
		<path class="st7" d="M40.8-148.1H41c0-0.1,0-0.3,0-0.4v-0.2l0.3,0c0-0.1,0-0.1,0-0.2c-0.1,0-0.2,0-0.3,0v-1c0-0.1,0-0.3,0-0.4
			l-0.1,0l-0.2,0.3l-0.9,1.2l0.1,0.1c0.2,0,0.5,0,0.8,0h0.2v0.1C40.8-148.5,40.8-148.2,40.8-148.1z M40.8-149.9v1H40L40.8-149.9z"/>
		<path class="st7" d="M41.6-150.2c0,0.1,0,0.2,0,0.2c0.2,0,0.4,0,0.7,0c0.2,0,0.4,0,0.5,0l-0.7,1.3c-0.1,0.2-0.2,0.4-0.3,0.5l0.2,0
			c0-0.1,0.1-0.3,0.2-0.4l0.7-1.3c0.1-0.1,0.1-0.3,0.2-0.3l-0.1-0.1c-0.2,0-0.5,0-0.7,0C42-150.2,41.8-150.2,41.6-150.2z"/>
		<text transform="matrix(0.48 0 0 0.48 -26.8848 -138.2936)" class="st2 st5 st6">Public Sector Management</text>
		<path class="st7" d="M37.3-138.8c0,0.3,0.3,0.6,0.7,0.6c0.4,0,0.7-0.3,0.7-0.6c0-0.3-0.2-0.4-0.5-0.6c0.3-0.1,0.4-0.3,0.4-0.5
			c0-0.3-0.3-0.5-0.6-0.5c-0.4,0-0.7,0.2-0.7,0.6c0,0.3,0.2,0.4,0.4,0.5C37.5-139.3,37.3-139.1,37.3-138.8z M38.5-138.8
			c0,0.2-0.2,0.4-0.5,0.4c-0.3,0-0.5-0.2-0.5-0.4c0-0.2,0.2-0.4,0.5-0.5C38.3-139.2,38.5-139,38.5-138.8z M37.6-139.9
			c0-0.2,0.2-0.4,0.4-0.4c0.2,0,0.4,0.1,0.4,0.4c0,0.2-0.2,0.3-0.4,0.4C37.7-139.6,37.6-139.7,37.6-139.9z"/>
		<path class="st7" d="M39.4-138.4c0-0.1-0.1-0.2-0.2-0.2c-0.1,0-0.2,0.1-0.2,0.2c0,0.1,0.1,0.2,0.2,0.2
			C39.4-138.2,39.4-138.3,39.4-138.4z"/>
		<path class="st7" d="M40.2-138.5c0.2-0.2,0.4-0.4,0.6-0.5c0.3-0.3,0.5-0.5,0.5-0.8c0-0.4-0.3-0.6-0.6-0.6c-0.2,0-0.5,0.1-0.7,0.3
			L40-140c0.2-0.2,0.4-0.3,0.6-0.3c0.3,0,0.4,0.2,0.4,0.4c0,0.3-0.3,0.7-1.1,1.4l0,0.2c0.2,0,0.4,0,0.7,0c0.3,0,0.5,0,0.7,0
			c0-0.1,0-0.1,0-0.2C40.9-138.5,40.5-138.5,40.2-138.5z"/>
		<path class="st7" d="M42.5-138.3h0.2c0-0.1,0-0.3,0-0.4v-0.2l0.3,0c0-0.1,0-0.1,0-0.2c-0.1,0-0.2,0-0.3,0v-1c0-0.1,0-0.3,0-0.4
			l-0.1,0l-0.2,0.3l-0.9,1.2l0.1,0.1c0.2,0,0.5,0,0.8,0h0.2v0.1C42.5-138.6,42.5-138.4,42.5-138.3z M42.5-140.1v1h-0.8L42.5-140.1z"
			/>
		<text transform="matrix(0.48 0 0 0.48 -26.8848 -132.1506)" class="st5 st6">Others</text>
		<text transform="matrix(0.48 0 0 0.48 -23.199 -126.0081)" class="st2 st5 st6">Industry and T</text>
		<text transform="matrix(0.48 0 0 0.48 -4.8662 -126.0081)" class="st2 st5 st6">r</text>
		<text transform="matrix(0.48 0 0 0.48 -3.8954 -126.0081)" class="st2 st5 st6">a</text>
		<text transform="matrix(0.48 0 0 0.48 -2.4212 -126.0081)" class="st2 st5 st6">d</text>
		<text transform="matrix(0.48 0 0 0.48 -0.7505 -126.0081)" class="st2 st5 st6">e</text>
		<path class="st7" d="M38.2-126h0.2c0-0.1,0-0.3,0-0.4v-0.2l0.3,0c0-0.1,0-0.1,0-0.2c-0.1,0-0.2,0-0.3,0v-1c0-0.1,0-0.3,0-0.4
			l-0.1,0l-0.2,0.3l-0.9,1.2l0.1,0.1c0.2,0,0.5,0,0.8,0h0.2v0.1C38.2-126.4,38.2-126.1,38.2-126z M38.2-127.8v1h-0.8L38.2-127.8z"/>
		<path class="st7" d="M39.4-126.1c0-0.1-0.1-0.2-0.2-0.2c-0.1,0-0.2,0.1-0.2,0.2c0,0.1,0.1,0.2,0.2,0.2
			C39.4-126,39.4-126,39.4-126.1z"/>
		<path class="st7" d="M41.3-126.2c-0.1,0-0.3,0-0.4,0h-0.2v-1.6c0-0.1,0-0.3,0-0.4l0,0l-0.2,0.1c-0.1,0-0.4,0.1-0.6,0.2l0,0.2
			l0.5-0.2v1.3c0,0.1,0,0.3,0,0.4h-0.2c-0.1,0-0.2,0-0.4,0c0,0.1,0,0.1,0,0.2c0.2,0,0.3,0,0.5,0h0.3c0.2,0,0.4,0,0.6,0
			C41.3-126.1,41.3-126.1,41.3-126.2L41.3-126.2z"/>
		<path class="st7" d="M41.6-126.1c0.2,0.1,0.4,0.1,0.5,0.1c0.5,0,0.8-0.3,0.8-0.6c0-0.3-0.2-0.5-0.7-0.5c0.4-0.1,0.6-0.3,0.6-0.6
			c0-0.3-0.3-0.5-0.7-0.5c-0.2,0-0.5,0.1-0.7,0.2l0.1,0.2c0.2-0.1,0.4-0.2,0.6-0.2c0.3,0,0.4,0.1,0.4,0.3c0,0.2-0.2,0.4-0.8,0.5
			l0,0.2c0.5,0,0.8,0.2,0.8,0.4c0,0.2-0.2,0.4-0.6,0.4c-0.2,0-0.4,0-0.6-0.1L41.6-126.1L41.6-126.1z"/>
		<text transform="matrix(0.48 0 0 0.48 -23.199 -119.8651)" class="st2 st5 st6">Health</text>
		<path class="st7" d="M37.6-120.1c0.2-0.2,0.4-0.4,0.6-0.5c0.3-0.3,0.5-0.6,0.5-0.8c0-0.4-0.3-0.6-0.6-0.6c-0.2,0-0.5,0.1-0.7,0.3
			l0.1,0.2c0.2-0.2,0.4-0.3,0.6-0.3c0.3,0,0.4,0.2,0.4,0.4c0,0.3-0.3,0.7-1.1,1.4l0,0.2c0.2,0,0.4,0,0.7,0c0.3,0,0.5,0,0.7,0
			c0-0.1,0-0.1,0-0.2C38.3-120.1,37.9-120.1,37.6-120.1z"/>
		<path class="st7" d="M39.4-120c0-0.1-0.1-0.2-0.2-0.2c-0.1,0-0.2,0.1-0.2,0.2c0,0.1,0.1,0.2,0.2,0.2
			C39.4-119.8,39.4-119.9,39.4-120z"/>
		<path class="st7" d="M40-120l0,0.2c0.8-0.1,1.2-0.7,1.2-1.4c0-0.5-0.3-0.8-0.7-0.8c-0.4,0-0.7,0.3-0.7,0.7c0,0.4,0.3,0.7,0.7,0.7
			c0.2,0,0.4-0.1,0.6-0.3C41-120.5,40.6-120.1,40-120z M40.1-121.3c0-0.3,0.2-0.5,0.5-0.5c0.3,0,0.5,0.2,0.5,0.5
			c0,0.3-0.2,0.5-0.5,0.5C40.3-120.8,40.1-121,40.1-121.3z"/>
		<path class="st7" d="M42.3-122c-0.5,0-0.7,0.5-0.7,1.1c0,0.6,0.2,1.1,0.7,1.1c0.5,0,0.7-0.5,0.7-1.1C43-121.5,42.8-122,42.3-122z
			 M42.3-120c-0.3,0-0.5-0.4-0.5-0.9c0-0.5,0.2-0.9,0.5-0.9s0.5,0.4,0.5,0.9C42.8-120.4,42.6-120,42.3-120z"/>
		<path class="st7" d="M-8.6-113.2c0.3-0.2,0.4-0.4,0.4-0.6c0-0.2-0.1-0.3-0.2-0.3c-0.1,0-0.2,0.1-0.2,0.2l0,0
			c0.1,0,0.1,0.1,0.1,0.2c0,0.1-0.1,0.2-0.2,0.3l0,0L-8.6-113.2z"/>
		<path class="st7" d="M16.4-113.2c0.3-0.2,0.4-0.4,0.4-0.6c0-0.2-0.1-0.3-0.2-0.3c-0.1,0-0.2,0.1-0.2,0.2l0,0
			c0.1,0,0.1,0.1,0.1,0.2c0,0.1-0.1,0.2-0.2,0.3l0,0L16.4-113.2z"/>
		<text transform="matrix(0.48 0 0 0.48 -23.199 -113.7226)" class="st2 st5 st6">Agricultur</text>
		<text transform="matrix(0.48 0 0 0.48 -10.4038 -113.7226)" class="st2 st5 st6">e</text>
		<text transform="matrix(0.48 0 0 0.48 -8.0082 -113.7226)" class="st2 st5 st6"> </text>
		<text transform="matrix(0.48 0 0 0.48 -7.3723 -113.7226)" class="st2 st5 st6">Natur</text>
		<text transform="matrix(0.48 0 0 0.48 0.1588 -113.7226)" class="st2 st5 st6">a</text>
		<text transform="matrix(0.48 0 0 0.48 1.6331 -113.7226)" class="st2 st5 st6">l</text>
		<text transform="matrix(0.48 0 0 0.48 2.3273 -113.7226)" class="st2 st5 st6"> R</text>
		<text transform="matrix(0.48 0 0 0.48 4.8243 -113.7226)" class="st2 st5 st6">e</text>
		<text transform="matrix(0.48 0 0 0.48 6.3599 -113.7226)" class="st2 st5 st6">s</text>
		<text transform="matrix(0.48 0 0 0.48 7.6068 -113.7226)" class="st2 st5 st6">our</text>
		<text transform="matrix(0.48 0 0 0.48 11.9193 -113.7226)" class="st2 st5 st6">c</text>
		<text transform="matrix(0.48 0 0 0.48 13.3903 -113.7226)" class="st2 st5 st6">es</text>
		<text transform="matrix(0.48 0 0 0.48 17.0175 -113.7226)" class="st2 st5 st6"> </text>
		<text transform="matrix(0.48 0 0 0.48 17.6531 -113.7226)" class="st2 st5 st6">and</text>
		<text transform="matrix(0.48 0 0 0.48 -23.199 -110.0373)" class="st2 st5 st6">R</text>
		<text transform="matrix(0.48 0 0 0.48 -21.3226 -110.0373)" class="st2 st5 st6">u</text>
		<text transform="matrix(0.48 0 0 0.48 -19.6517 -110.0373)" class="st2 st5 st6">r</text>
		<text transform="matrix(0.48 0 0 0.48 -18.6812 -110.0373)" class="st2 st5 st6">a</text>
		<text transform="matrix(0.48 0 0 0.48 -17.207 -110.0373)" class="st2 st5 st6">l</text>
		<text transform="matrix(0.48 0 0 0.48 -16.5127 -110.0373)" class="st2 st5 st6"> Dev</text>
		<text transform="matrix(0.48 0 0 0.48 -10.6834 -110.0373)" class="st2 st5 st6">e</text>
		<text transform="matrix(0.48 0 0 0.48 -9.1475 -110.0373)" class="st2 st5 st6">l</text>
		<text transform="matrix(0.48 0 0 0.48 -8.4535 -110.0373)" class="st2 st5 st6">opment</text>
		<path class="st7" d="M37.6-113.9c0.2-0.2,0.4-0.4,0.6-0.5c0.3-0.3,0.5-0.6,0.5-0.8c0-0.4-0.3-0.6-0.6-0.6c-0.2,0-0.5,0.1-0.7,0.3
			l0.1,0.2c0.2-0.2,0.4-0.3,0.6-0.3c0.3,0,0.4,0.2,0.4,0.4c0,0.3-0.3,0.7-1.1,1.4l0,0.2c0.2,0,0.4,0,0.7,0c0.3,0,0.5,0,0.7,0
			c0-0.1,0-0.1,0-0.2C38.3-113.9,37.9-113.9,37.6-113.9z"/>
		<path class="st7" d="M39.4-113.8c0-0.1-0.1-0.2-0.2-0.2c-0.1,0-0.2,0.1-0.2,0.2c0,0.1,0.1,0.2,0.2,0.2
			C39.4-113.7,39.4-113.8,39.4-113.8z"/>
		<path class="st7" d="M40.2-113.9c0.2-0.2,0.4-0.4,0.6-0.5c0.3-0.3,0.5-0.6,0.5-0.8c0-0.4-0.3-0.6-0.6-0.6c-0.2,0-0.5,0.1-0.7,0.3
			l0.1,0.2c0.2-0.2,0.4-0.3,0.6-0.3c0.3,0,0.4,0.2,0.4,0.4c0,0.3-0.3,0.7-1.1,1.4l0,0.2c0.2,0,0.4,0,0.7,0c0.3,0,0.5,0,0.7,0
			c0-0.1,0-0.1,0-0.2C40.9-113.9,40.5-113.9,40.2-113.9z"/>
		<path class="st7" d="M41.6-113.8c0.2,0.1,0.3,0.1,0.5,0.1c0.5,0,0.8-0.3,0.8-0.7c0-0.4-0.3-0.6-0.9-0.6c-0.1,0-0.1,0-0.2,0l0-0.7
			h0.4c0.2,0,0.4,0,0.6,0c0-0.1,0-0.2,0-0.2c-0.2,0-0.3,0-0.6,0c-0.3,0-0.4,0-0.6,0l0,0c0,0.1,0,0.2,0,0.3l0,0.3c0,0.1,0,0.2,0,0.3
			l0,0c0.1,0,0.2,0,0.3,0c0.5,0,0.7,0.2,0.7,0.4c0,0.2-0.2,0.4-0.6,0.4c-0.2,0-0.4,0-0.6-0.1C41.6-114,41.6-113.8,41.6-113.8z"/>
		<text transform="matrix(0.48 0 0 0.48 -23.199 -103.8943)" class="st2 st5 st6">Ener</text>
		<text transform="matrix(0.48 0 0 0.48 -17.3453 -103.8943)" class="st2 st5 st6">g</text>
		<text transform="matrix(0.48 0 0 0.48 -15.9076 -103.8943)" class="st2 st5 st6">y</text>
		<path class="st7" d="M38.7-104.1c-0.1,0-0.3,0-0.4,0h-0.2v-1.6c0-0.1,0-0.3,0-0.4l0,0l-0.2,0.1c-0.1,0-0.4,0.1-0.6,0.2l0,0.2
			l0.5-0.2v1.3c0,0.1,0,0.3,0,0.4h-0.2c-0.1,0-0.2,0-0.4,0c0,0.1,0,0.1,0,0.2c0.2,0,0.3,0,0.5,0h0.3c0.2,0,0.4,0,0.6,0
			C38.7-104,38.7-104,38.7-104.1L38.7-104.1z"/>
		<path class="st7" d="M39.4-104c0-0.1-0.1-0.2-0.2-0.2c-0.1,0-0.2,0.1-0.2,0.2c0,0.1,0.1,0.2,0.2,0.2
			C39.4-103.8,39.4-103.9,39.4-104z"/>
		<path class="st7" d="M40-104l0,0.2c0.8-0.1,1.2-0.7,1.2-1.4c0-0.5-0.3-0.8-0.7-0.8c-0.4,0-0.7,0.3-0.7,0.7c0,0.4,0.3,0.7,0.7,0.7
			c0.2,0,0.4-0.1,0.6-0.3C41-104.5,40.6-104.1,40-104z M40.1-105.3c0-0.3,0.2-0.5,0.5-0.5c0.3,0,0.5,0.2,0.5,0.5
			c0,0.3-0.2,0.5-0.5,0.5C40.3-104.9,40.1-105.1,40.1-105.3z"/>
		<path class="st7" d="M42.3-106.1c-0.5,0-0.7,0.5-0.7,1.1c0,0.6,0.2,1.1,0.7,1.1c0.5,0,0.7-0.5,0.7-1.1
			C43-105.6,42.8-106.1,42.3-106.1z M42.3-104c-0.3,0-0.5-0.4-0.5-0.9c0-0.5,0.2-0.9,0.5-0.9s0.5,0.4,0.5,0.9
			C42.8-104.4,42.6-104,42.3-104z"/>
		<text transform="matrix(0.48 0 0 0.48 -23.199 -97.7513)" class="st2 st5 st6">F</text>
		<text transform="matrix(0.48 0 0 0.48 -21.6573 -97.7513)" class="st2 st5 st6">i</text>
		<text transform="matrix(0.48 0 0 0.48 -20.9631 -97.7513)" class="st2 st5 st6">n</text>
		<text transform="matrix(0.48 0 0 0.48 -19.2953 -97.7513)" class="st2 st5 st6">ance</text>
		<path class="st7" d="M38.7-98c-0.1,0-0.3,0-0.4,0h-0.2v-1.6c0-0.1,0-0.3,0-0.4l0,0l-0.2,0.1c-0.1,0-0.4,0.1-0.6,0.2l0,0.2l0.5-0.2
			v1.3c0,0.1,0,0.3,0,0.4h-0.2c-0.1,0-0.2,0-0.4,0c0,0.1,0,0.1,0,0.2c0.2,0,0.3,0,0.5,0h0.3c0.2,0,0.4,0,0.6,0
			C38.7-97.8,38.7-97.9,38.7-98L38.7-98z"/>
		<path class="st7" d="M39.4-97.9c0-0.1-0.1-0.2-0.2-0.2c-0.1,0-0.2,0.1-0.2,0.2c0,0.1,0.1,0.2,0.2,0.2
			C39.4-97.7,39.4-97.8,39.4-97.9z"/>
		<path class="st7" d="M39.8-99.9c0,0.1,0,0.2,0,0.2c0.2,0,0.4,0,0.7,0c0.2,0,0.4,0,0.5,0l-0.7,1.3c-0.1,0.2-0.2,0.4-0.3,0.5l0.2,0
			c0-0.1,0.1-0.3,0.2-0.4l0.7-1.3c0.1-0.1,0.1-0.3,0.2-0.3l-0.1-0.1c-0.2,0-0.5,0-0.7,0C40.2-99.8,40.1-99.9,39.8-99.9z"/>
		<path class="st7" d="M41.6-97.8c0.2,0.1,0.3,0.1,0.5,0.1c0.5,0,0.8-0.3,0.8-0.7c0-0.4-0.3-0.6-0.9-0.6c-0.1,0-0.1,0-0.2,0l0-0.7
			h0.4c0.2,0,0.4,0,0.6,0c0-0.1,0-0.2,0-0.2c-0.2,0-0.3,0-0.6,0c-0.3,0-0.4,0-0.6,0l0,0c0,0.1,0,0.2,0,0.3l0,0.3c0,0.1,0,0.2,0,0.3
			l0,0c0.1,0,0.2,0,0.3,0c0.5,0,0.7,0.2,0.7,0.4c0,0.2-0.2,0.4-0.6,0.4c-0.2,0-0.4,0-0.6-0.1C41.6-98,41.6-97.8,41.6-97.8z"/>
		<text transform="matrix(0.48 0 0 0.48 -23.199 -91.6088)" class="st2 st5 st6">T</text>
		<text transform="matrix(0.48 0 0 0.48 -21.5589 -91.6088)" class="st2 st5 st6">r</text>
		<text transform="matrix(0.48 0 0 0.48 -20.5885 -91.6088)" class="st2 st5 st6">a</text>
		<text transform="matrix(0.48 0 0 0.48 -19.1143 -91.6088)" class="st2 st5 st6">n</text>
		<text transform="matrix(0.48 0 0 0.48 -17.4465 -91.6088)" class="st2 st5 st6">sport</text>
		<path class="st7" d="M38.7-91.8c-0.1,0-0.3,0-0.4,0h-0.2v-1.6c0-0.1,0-0.3,0-0.4l0,0l-0.2,0.1c-0.1,0-0.4,0.1-0.6,0.2l0,0.2
			l0.5-0.2v1.3c0,0.1,0,0.3,0,0.4h-0.2c-0.1,0-0.2,0-0.4,0c0,0.1,0,0.1,0,0.2c0.2,0,0.3,0,0.5,0h0.3c0.2,0,0.4,0,0.6,0
			C38.7-91.7,38.7-91.8,38.7-91.8L38.7-91.8z"/>
		<path class="st7" d="M39.4-91.7c0-0.1-0.1-0.2-0.2-0.2c-0.1,0-0.2,0.1-0.2,0.2c0,0.1,0.1,0.2,0.2,0.2
			C39.4-91.6,39.4-91.6,39.4-91.7z"/>
		<path class="st7" d="M40.6-93.8c-0.5,0-0.7,0.5-0.7,1.1c0,0.6,0.2,1.1,0.7,1.1c0.5,0,0.7-0.5,0.7-1.1C41.3-93.3,41-93.8,40.6-93.8
			z M40.6-91.7c-0.3,0-0.5-0.4-0.5-0.9c0-0.5,0.2-0.9,0.5-0.9s0.5,0.4,0.5,0.9C41.1-92.2,40.9-91.7,40.6-91.7z"/>
		<path class="st7" d="M42.3-93.8c-0.5,0-0.7,0.5-0.7,1.1c0,0.6,0.2,1.1,0.7,1.1c0.5,0,0.7-0.5,0.7-1.1C43-93.3,42.8-93.8,42.3-93.8
			z M42.3-91.7c-0.3,0-0.5-0.4-0.5-0.9c0-0.5,0.2-0.9,0.5-0.9s0.5,0.4,0.5,0.9C42.8-92.2,42.6-91.7,42.3-91.7z"/>
		<text transform="matrix(0.48 0 0 0.48 -23.199 -85.4658)" class="st5 st6">Information and Communication</text>
		<text transform="matrix(0.48 0 0 0.48 -23.199 -81.78)" class="st5 st6">T</text>
		<text transform="matrix(0.48 0 0 0.48 -21.5898 -81.78)" class="st5 st6">e</text>
		<text transform="matrix(0.48 0 0 0.48 -20.0542 -81.78)" class="st5 st6">c</text>
		<text transform="matrix(0.48 0 0 0.48 -18.5828 -81.78)" class="st5 st6">hnology</text>
		<path class="st8" d="M38-87.6c-0.5,0-0.7,0.5-0.7,1.1c0,0.6,0.2,1.1,0.7,1.1c0.5,0,0.7-0.5,0.7-1.1C38.7-87.1,38.5-87.6,38-87.6z
			 M38-85.6c-0.3,0-0.5-0.4-0.5-0.9c0-0.5,0.2-0.9,0.5-0.9s0.5,0.4,0.5,0.9C38.5-86,38.3-85.6,38-85.6z"/>
		<path class="st8" d="M39.4-85.6c0-0.1-0.1-0.2-0.2-0.2c-0.1,0-0.2,0.1-0.2,0.2c0,0.1,0.1,0.2,0.2,0.2
			C39.4-85.4,39.4-85.5,39.4-85.6z"/>
		<path class="st8" d="M39.9-85.5c0.2,0.1,0.3,0.1,0.5,0.1c0.5,0,0.8-0.3,0.8-0.7c0-0.4-0.3-0.6-0.9-0.6c-0.1,0-0.1,0-0.2,0l0-0.7
			h0.4c0.2,0,0.4,0,0.6,0c0-0.1,0-0.2,0-0.2c-0.2,0-0.3,0-0.6,0c-0.3,0-0.4,0-0.6,0l0,0c0,0.1,0,0.2,0,0.3l0,0.3c0,0.1,0,0.2,0,0.3
			l0,0c0.1,0,0.2,0,0.3,0c0.5,0,0.7,0.2,0.7,0.4c0,0.2-0.2,0.4-0.6,0.4c-0.2,0-0.4,0-0.6-0.1L39.9-85.5L39.9-85.5z"/>
		<path class="st8" d="M42.3-87.6c-0.5,0-0.7,0.5-0.7,1.1c0,0.6,0.2,1.1,0.7,1.1c0.5,0,0.7-0.5,0.7-1.1C43-87.1,42.8-87.6,42.3-87.6
			z M42.3-85.6c-0.3,0-0.5-0.4-0.5-0.9c0-0.5,0.2-0.9,0.5-0.9s0.5,0.4,0.5,0.9C42.8-86,42.6-85.6,42.3-85.6z"/>
		<text transform="matrix(0.48 0 0 0.48 -26.8848 -75.6132)" class="st2 st9 st6">T</text>
		<text transform="matrix(0.48 0 0 0.48 -25.1434 -75.6132)" class="st2 st9 st6">o</text>
		<text transform="matrix(0.48 0 0 0.48 -23.4233 -75.6132)" class="st2 st9 st6">t</text>
		<text transform="matrix(0.48 0 0 0.48 -22.2287 -75.6132)" class="st2 st9 st6">al</text>
		<path class="st8" d="M35.5-76.1c0,0.3,0.3,0.6,0.8,0.6c0.5,0,0.8-0.3,0.8-0.6c0-0.2-0.2-0.4-0.4-0.5c0.2-0.1,0.4-0.3,0.4-0.5
			c0-0.3-0.3-0.6-0.7-0.6c-0.4,0-0.7,0.3-0.7,0.6c0,0.2,0.2,0.4,0.4,0.5C35.7-76.6,35.5-76.4,35.5-76.1z M36.6-76.2
			c0,0.2-0.1,0.3-0.3,0.3c-0.2,0-0.3-0.1-0.3-0.3c0-0.2,0.1-0.3,0.3-0.4C36.5-76.4,36.6-76.3,36.6-76.2z M36-77.2
			c0-0.1,0.1-0.3,0.3-0.3c0.2,0,0.3,0.1,0.3,0.3c0,0.1-0.1,0.3-0.3,0.3C36.1-76.9,36-77,36-77.2z"/>
		<path class="st8" d="M38.1-75.6h0.5c0-0.1,0-0.2,0-0.3v-0.2l0.2,0c0-0.2,0-0.2,0-0.4c-0.1,0-0.1,0-0.2,0v-0.9c0-0.1,0-0.3,0-0.4
			l-0.4,0c0,0-0.1,0.2-0.2,0.3l-0.8,1l0,0.3c0.2,0,0.5,0,0.7,0h0.2v0.1C38.1-75.9,38.1-75.7,38.1-75.6z M37.6-76.5l0.5-0.7l0,0.7
			C38-76.5,37.6-76.5,37.6-76.5z"/>
		<path class="st8" d="M39.5-75.8c0-0.2-0.1-0.3-0.3-0.3c-0.2,0-0.3,0.1-0.3,0.3c0,0.1,0.1,0.3,0.3,0.3
			C39.4-75.6,39.5-75.7,39.5-75.8L39.5-75.8z"/>
		<path class="st8" d="M41.3-76c-0.1,0-0.3,0-0.4,0h-0.1v-1.3c0-0.1,0-0.3,0-0.4l-0.2,0l-0.2,0.1c-0.1,0-0.4,0.1-0.6,0.2l0.1,0.4
			l0.4-0.1v1c0,0.1,0,0.1,0,0.2h-0.1c-0.1,0-0.3,0-0.4,0c0,0.1,0,0.3,0,0.4c0.2,0,0.3,0,0.4,0h0.4c0.2,0,0.4,0,0.6,0
			C41.3-75.7,41.3-76,41.3-76L41.3-76z"/>
		<path class="st8" d="M42.4-75.6h0.5c0-0.1,0-0.2,0-0.3v-0.2l0.2,0c0-0.2,0-0.2,0-0.4c-0.1,0-0.1,0-0.2,0v-0.9c0-0.1,0-0.3,0-0.4
			l-0.4,0c0,0-0.1,0.2-0.2,0.3l-0.8,1l0,0.3c0.2,0,0.5,0,0.7,0h0.2v0.1C42.4-75.9,42.4-75.7,42.4-75.6z M41.9-76.5l0.5-0.7l0,0.7
			C42.3-76.5,41.9-76.5,41.9-76.5z"/>
		<path class="st10" d="M-28.7-158.3H45 M-28.7-152.2H45 M-28.7-142.3H45 M-28.7-136.2H45 M-28.7-130.1H45 M-28.7-123.9H45
			 M-28.7-117.8H45 M-28.7-107.9H45 M-28.7-101.8H45 M-28.7-95.7H45 M-28.7-89.5H45 M-28.7-79.7H45 M-28.7-73.5H45"/>
	</g>
	<path class="st11" d="M76.6,0c0.7,0,1.4,0,2.1,0v14.3c-0.5,0-1.1,0-1.6,0C77.1,14.3,76.6,0,76.6,0z"/>
	<path class="st12" d="M72.3,0.4c1.4-0.2,2.8-0.3,4.2-0.3l0.5,14.2c-1.1,0-2.1,0.1-3.2,0.2C73.9,14.5,72.3,0.4,72.3,0.4z"/>
	<path class="st13" d="M65,1.7c2.4-0.6,4.9-1,7.3-1.3l1.6,14.2c-1.9,0.2-3.7,0.5-5.5,1L65,1.7z"/>
	<path class="st14" d="M57.3,4.2c2.5-1,5.1-1.8,7.7-2.5l3.4,13.8c-2,0.5-3.9,1.1-5.8,1.9C62.7,17.4,57.3,4.2,57.3,4.2z"/>
	<path class="st15" d="M48.8,8.5c2.7-1.7,5.6-3.1,8.5-4.3l5.3,13.2c-2.2,0.9-4.4,2-6.4,3.2C56.3,20.6,48.8,8.5,48.8,8.5z"/>
	<path class="st16" d="M39.1,16c3-2.9,6.2-5.4,9.7-7.6l7.5,12.1c-2.6,1.6-5.1,3.5-7.3,5.7L39.1,16z"/>
	<path class="st17" d="M28.5,30c2.8-5.2,6.3-9.9,10.6-13.9L49,26.3c-3.2,3.1-5.8,6.6-7.9,10.5L28.5,30z"/>
	<path class="st18" d="M22.1,63.9c-1.4-11.7,0.8-23.6,6.4-33.9l12.6,6.8c-4.2,7.8-5.9,16.7-4.8,25.4L22.1,63.9z"/>
	<path class="st19" d="M62.2,111.6C40.6,105,24.9,86.4,22.1,63.9l14.1-1.7C38.3,79,50.1,93,66.3,97.9
		C66.3,97.9,62.2,111.6,62.2,111.6z"/>
	<path class="st20" d="M78.7,0c22.4,0,42.7,13.1,51.9,33.5c9.2,20.4,5.7,44.3-9,61.1c-14.7,16.8-38,23.5-59.4,17l4.1-13.6
		c16.1,4.9,33.5-0.1,44.5-12.8s13.7-30.5,6.8-45.8c-6.9-15.3-22.2-25.1-38.9-25.1C78.7,14.3,78.7,0,78.7,0z"/>
</g>
</svg>
