<?xml version="1.0" encoding="utf-8"?>
<!-- Generator: Adobe Illustrator 24.1.0, SVG Export Plug-In . SVG Version: 6.00 Build 0)  -->
<svg version="1.1" id="Layer_1" xmlns:serif="http://www.serif.com/"
	 xmlns="http://www.w3.org/2000/svg" xmlns:xlink="http://www.w3.org/1999/xlink" x="0px" y="0px" viewBox="0 0 153.6 456.6"
	 style="enable-background:new 0 0 153.6 456.6;" xml:space="preserve">
<style type="text/css">
	.st0{clip-path:url(#SVGID_2_);}
	.st1{clip-path:url(#SVGID_4_);}
	.st2{fill:#1A1A1A;}
	.st3{font-family:'IdealSans-ExtraLight';}
	.st4{font-size:11.5177px;}
	.st5{font-family:'IdealSans-Light';}
	.st6{font-size:6.3987px;}
	.st7{fill-rule:evenodd;clip-rule:evenodd;fill:#1A1A1A;}
	.st8{fill-rule:evenodd;clip-rule:evenodd;}
	.st9{font-family:'IdealSans-Semibold';}
	.st10{fill:none;stroke:#1A1A1A;stroke-width:0.16;stroke-miterlimit:2.5595;}
	.st11{fill:#FFFFFF;}
	.st12{fill:#F0F0F0;}
	.st13{fill:#E0E0E0;}
	.st14{fill:#D0D0D0;}
	.st15{fill:#C0C0C0;}
	.st16{fill:#B0B0B0;}
	.st17{fill:#A0A0A0;}
	.st18{fill:#909090;}
	.st19{fill:#808080;}
	.st20{fill:#707070;}
	.st21{fill:#606060;}
	.st22{fill:#505050;}
	.st23{fill:#404040;}
	.st24{fill:#303030;}
	.st25{fill:#202020;}
	.st26{fill:#F8947B;}
	.st27{fill:#F0704F;}
	.st28{fill:#E9522B;}
</style>
<g>
	<defs>
		<rect id="SVGID_1_" x="-18.9" y="-19.4" width="192" height="511.9"/>
	</defs>
	<clipPath id="SVGID_2_">
		<use xlink:href="#SVGID_1_"  style="overflow:visible;"/>
	</clipPath>
	<g class="st0">
		<g>
			<defs>
				<rect id="SVGID_3_" x="-18.9" y="-19.4" width="192" height="511.9"/>
			</defs>
			<clipPath id="SVGID_4_">
				<use xlink:href="#SVGID_3_"  style="overflow:visible;"/>
			</clipPath>
			<g class="st1">
				<g id="Layer-1" serif:id="Layer 1">
				</g>
			</g>
		</g>
	</g>
</g>
<g id="Layer-11" serif:id="Layer 1">
	<g transform="matrix(2.08333,0,0,2.08333,61.4583,478.168)">
		<text transform="matrix(0.48 0 0 0.48 -4.0046 -162.5543)" class="st2 st3 st4">B</text>
		<text transform="matrix(0.48 0 0 0.48 -0.8035 -162.5543)" class="st2 st3 st4">y</text>
		<text transform="matrix(0.48 0 0 0.48 1.6733 -162.5543)" class="st2 st3 st4"> </text>
		<text transform="matrix(0.48 0 0 0.48 2.7679 -162.5543)" class="st2 st3 st4">Sour</text>
		<text transform="matrix(0.48 0 0 0.48 13.3218 -162.5543)" class="st2 st3 st4">c</text>
		<text transform="matrix(0.48 0 0 0.48 15.9534 -162.5543)" class="st2 st3 st4">e</text>
		<text transform="matrix(0.48 0 0 0.48 -27.6573 -154.3502)" class="st2 st5 st6">Asia P</text>
		<text transform="matrix(0.48 0 0 0.48 -19.8437 -154.3502)" class="st2 st5 st6">a</text>
		<text transform="matrix(0.48 0 0 0.48 -18.3695 -154.3502)" class="st2 st5 st6">c</text>
		<text transform="matrix(0.48 0 0 0.48 -16.8983 -154.3502)" class="st2 st5 st6">iﬁc Pr</text>
		<text transform="matrix(0.48 0 0 0.48 -9.782 -154.3502)" class="st2 st5 st6">o</text>
		<text transform="matrix(0.48 0 0 0.48 -8.1142 -154.3502)" class="st2 st5 st6">j</text>
		<text transform="matrix(0.48 0 0 0.48 -7.42 -154.3502)" class="st2 st5 st6">ect Pr</text>
		<text transform="matrix(0.48 0 0 0.48 -8.540686e-02 -154.3502)" class="st2 st5 st6">e</text>
		<text transform="matrix(0.48 0 0 0.48 1.4502 -154.3502)" class="st2 st5 st6">p</text>
		<text transform="matrix(0.48 0 0 0.48 3.1208 -154.3502)" class="st2 st5 st6">ar</text>
		<text transform="matrix(0.48 0 0 0.48 5.5659 -154.3502)" class="st2 st5 st6">a</text>
		<text transform="matrix(0.48 0 0 0.48 7.034 -154.3502)" class="st2 st5 st6">t</text>
		<text transform="matrix(0.48 0 0 0.48 8.0718 -154.3502)" class="st2 st5 st6">ion F</text>
		<text transform="matrix(0.48 0 0 0.48 14.1871 -154.3502)" class="st2 st5 st6">a</text>
		<text transform="matrix(0.48 0 0 0.48 15.6613 -154.3502)" class="st2 st5 st6">c</text>
		<text transform="matrix(0.48 0 0 0.48 17.1327 -154.3502)" class="st2 st5 st6">ility</text>
		<path class="st7" d="M35.7-154.4H36c0-0.1,0-0.3,0-0.4v-0.2l0.3,0c0-0.1,0-0.1,0-0.2c-0.1,0-0.2,0-0.3,0v-1c0-0.1,0-0.3,0-0.4
			l-0.1,0l-0.2,0.3l-0.9,1.2l0.1,0.1c0.2,0,0.5,0,0.8,0h0.2v0.1C35.7-154.7,35.7-154.5,35.7-154.4z M35.7-156.1v1H35L35.7-156.1z"/>
		<path class="st7" d="M36.5-154.4c0.2,0.1,0.3,0.1,0.5,0.1c0.5,0,0.8-0.3,0.8-0.7c0-0.4-0.3-0.6-0.9-0.6c-0.1,0-0.1,0-0.2,0l0-0.7
			h0.4c0.2,0,0.4,0,0.6,0c0-0.1,0-0.2,0-0.2c-0.2,0-0.3,0-0.6,0c-0.3,0-0.4,0-0.6,0l0,0c0,0.1,0,0.2,0,0.3l0,0.3c0,0.1,0,0.2,0,0.3
			l0,0c0.1,0,0.2,0,0.3,0c0.5,0,0.7,0.2,0.7,0.4c0,0.2-0.2,0.4-0.6,0.4c-0.2,0-0.4,0-0.6-0.1C36.5-154.6,36.5-154.4,36.5-154.4z"/>
		<path class="st7" d="M38.7-154.5c0-0.1-0.1-0.2-0.2-0.2c-0.1,0-0.2,0.1-0.2,0.2c0,0.1,0.1,0.2,0.2,0.2
			C38.6-154.3,38.7-154.4,38.7-154.5z"/>
		<path class="st7" d="M39.8-156.5c-0.5,0-0.7,0.5-0.7,1.1c0,0.6,0.2,1.1,0.7,1.1c0.5,0,0.7-0.5,0.7-1.1
			C40.5-156,40.3-156.5,39.8-156.5z M39.8-154.5c-0.3,0-0.5-0.4-0.5-0.9c0-0.5,0.2-0.9,0.5-0.9s0.5,0.4,0.5,0.9
			C40.3-154.9,40.1-154.5,39.8-154.5z"/>
		<path class="st7" d="M41.5-156.5c-0.5,0-0.7,0.5-0.7,1.1c0,0.6,0.2,1.1,0.7,1.1c0.5,0,0.7-0.5,0.7-1.1
			C42.2-156,42-156.5,41.5-156.5z M41.5-154.5c-0.3,0-0.5-0.4-0.5-0.9c0-0.5,0.2-0.9,0.5-0.9s0.5,0.4,0.5,0.9
			C42-154.9,41.8-154.5,41.5-154.5z"/>
		<text transform="matrix(0.48 0 0 0.48 -27.6573 -148.2072)" class="st2 st5 st6">U</text>
		<text transform="matrix(0.48 0 0 0.48 -25.4244 -148.2072)" class="st2 st5 st6">r</text>
		<text transform="matrix(0.48 0 0 0.48 -24.414 -148.2072)" class="st2 st5 st6">b</text>
		<text transform="matrix(0.48 0 0 0.48 -22.7432 -148.2072)" class="st2 st5 st6">an Climate Change R</text>
		<text transform="matrix(0.48 0 0 0.48 4.0762 -148.2072)" class="st2 st5 st6">e</text>
		<text transform="matrix(0.48 0 0 0.48 5.6118 -148.2072)" class="st2 st5 st6">s</text>
		<text transform="matrix(0.48 0 0 0.48 6.8589 -148.2072)" class="st2 st5 st6">ilience</text>
		<text transform="matrix(0.48 0 0 0.48 -27.6573 -144.5214)" class="st2 st5 st6">T</text>
		<text transform="matrix(0.48 0 0 0.48 -26.0172 -144.5214)" class="st2 st5 st6">r</text>
		<text transform="matrix(0.48 0 0 0.48 -25.0068 -144.5214)" class="st2 st5 st6">u</text>
		<text transform="matrix(0.48 0 0 0.48 -23.3359 -144.5214)" class="st2 st5 st6">st F</text>
		<text transform="matrix(0.48 0 0 0.48 -18.9346 -144.5214)" class="st2 st5 st6">u</text>
		<text transform="matrix(0.48 0 0 0.48 -17.2637 -144.5214)" class="st2 st5 st6">nd</text>
		<path class="st7" d="M36.5-148.7c0,0.3,0.3,0.6,0.7,0.6c0.4,0,0.7-0.3,0.7-0.6c0-0.3-0.2-0.4-0.5-0.6c0.3-0.1,0.4-0.3,0.4-0.5
			c0-0.3-0.3-0.5-0.6-0.5c-0.4,0-0.7,0.2-0.7,0.6c0,0.3,0.2,0.4,0.4,0.5C36.7-149.2,36.5-149,36.5-148.7z M37.7-148.7
			c0,0.2-0.2,0.4-0.5,0.4c-0.3,0-0.5-0.2-0.5-0.4c0-0.2,0.2-0.4,0.5-0.5C37.5-149.1,37.7-149,37.7-148.7z M36.8-149.8
			c0-0.2,0.2-0.4,0.4-0.4c0.2,0,0.4,0.1,0.4,0.4c0,0.2-0.2,0.3-0.4,0.4C37-149.5,36.8-149.6,36.8-149.8z"/>
		<path class="st7" d="M38.7-148.3c0-0.1-0.1-0.2-0.2-0.2c-0.1,0-0.2,0.1-0.2,0.2c0,0.1,0.1,0.2,0.2,0.2
			C38.6-148.2,38.7-148.2,38.7-148.3z"/>
		<path class="st7" d="M39.1-148.2c0.2,0.1,0.3,0.1,0.5,0.1c0.5,0,0.8-0.3,0.8-0.7c0-0.4-0.3-0.6-0.9-0.6c-0.1,0-0.1,0-0.2,0l0-0.7
			h0.4c0.2,0,0.4,0,0.6,0c0-0.1,0-0.2,0-0.2c-0.2,0-0.3,0-0.6,0c-0.3,0-0.4,0-0.6,0l0,0c0,0.1,0,0.2,0,0.3l0,0.3c0,0.1,0,0.2,0,0.3
			l0,0c0.1,0,0.2,0,0.3,0c0.5,0,0.7,0.2,0.7,0.4c0,0.2-0.2,0.4-0.6,0.4c-0.2,0-0.4,0-0.6-0.1C39.1-148.5,39.1-148.2,39.1-148.2z"/>
		<path class="st7" d="M41.5-150.4c-0.5,0-0.7,0.5-0.7,1.1c0,0.6,0.2,1.1,0.7,1.1c0.5,0,0.7-0.5,0.7-1.1
			C42.2-149.9,42-150.4,41.5-150.4z M41.5-148.3c-0.3,0-0.5-0.4-0.5-0.9c0-0.5,0.2-0.9,0.5-0.9s0.5,0.4,0.5,0.9
			C42-148.8,41.8-148.3,41.5-148.3z"/>
		<text transform="matrix(0.48 0 0 0.48 -27.6573 -138.3789)" class="st2 st5 st6">W</text>
		<text transform="matrix(0.48 0 0 0.48 -24.7858 -138.3789)" class="st2 st5 st6">o</text>
		<text transform="matrix(0.48 0 0 0.48 -23.1179 -138.3789)" class="st2 st5 st6">m</text>
		<text transform="matrix(0.48 0 0 0.48 -20.5872 -138.3789)" class="st2 st5 st6">en Entr</text>
		<text transform="matrix(0.48 0 0 0.48 -11.4034 -138.3789)" class="st2 st5 st6">e</text>
		<text transform="matrix(0.48 0 0 0.48 -9.8678 -138.3789)" class="st2 st5 st6">p</text>
		<text transform="matrix(0.48 0 0 0.48 -8.1971 -138.3789)" class="st2 st5 st6">r</text>
		<text transform="matrix(0.48 0 0 0.48 -7.2235 -138.3789)" class="st2 st5 st6">e</text>
		<text transform="matrix(0.48 0 0 0.48 -5.6877 -138.3789)" class="st2 st5 st6">n</text>
		<text transform="matrix(0.48 0 0 0.48 -4.0201 -138.3789)" class="st2 st5 st6">eurs F</text>
		<text transform="matrix(0.48 0 0 0.48 3.6154 -138.3789)" class="st2 st5 st6">i</text>
		<text transform="matrix(0.48 0 0 0.48 4.3096 -138.3789)" class="st2 st5 st6">n</text>
		<text transform="matrix(0.48 0 0 0.48 5.9774 -138.3789)" class="st2 st5 st6">ance I</text>
		<text transform="matrix(0.48 0 0 0.48 13.6434 -138.3789)" class="st2 st5 st6">n</text>
		<text transform="matrix(0.48 0 0 0.48 15.3112 -138.3789)" class="st2 st5 st6">itiative</text>
		<path class="st7" d="M36.5-138.4c0.2,0.1,0.3,0.1,0.5,0.1c0.5,0,0.8-0.3,0.8-0.7c0-0.4-0.3-0.6-0.9-0.6c-0.1,0-0.1,0-0.2,0l0-0.7
			h0.4c0.2,0,0.4,0,0.6,0c0-0.1,0-0.2,0-0.2c-0.2,0-0.3,0-0.6,0c-0.3,0-0.4,0-0.6,0l0,0c0,0.1,0,0.2,0,0.3l0,0.3c0,0.1,0,0.2,0,0.3
			l0,0c0.1,0,0.2,0,0.3,0c0.5,0,0.7,0.2,0.7,0.4c0,0.2-0.2,0.4-0.6,0.4c-0.2,0-0.4,0-0.6-0.1C36.5-138.6,36.5-138.4,36.5-138.4z"/>
		<path class="st7" d="M38.7-138.5c0-0.1-0.1-0.2-0.2-0.2c-0.1,0-0.2,0.1-0.2,0.2c0,0.1,0.1,0.2,0.2,0.2
			C38.6-138.3,38.7-138.4,38.7-138.5z"/>
		<path class="st7" d="M39.2-138.5l0,0.2c0.8-0.1,1.2-0.7,1.2-1.4c0-0.5-0.3-0.8-0.7-0.8c-0.4,0-0.7,0.3-0.7,0.7
			c0,0.4,0.3,0.7,0.7,0.7c0.2,0,0.4-0.1,0.6-0.3C40.2-139,39.8-138.6,39.2-138.5z M39.3-139.8c0-0.3,0.2-0.5,0.5-0.5
			c0.3,0,0.5,0.2,0.5,0.5c0,0.3-0.2,0.5-0.5,0.5C39.5-139.3,39.3-139.5,39.3-139.8z"/>
		<path class="st7" d="M40.9-138.5l0,0.2c0.8-0.1,1.2-0.7,1.2-1.4c0-0.5-0.3-0.8-0.7-0.8c-0.4,0-0.7,0.3-0.7,0.7
			c0,0.4,0.3,0.7,0.7,0.7c0.2,0,0.4-0.1,0.6-0.3C41.9-139,41.6-138.6,40.9-138.5z M41-139.8c0-0.3,0.2-0.5,0.5-0.5
			c0.3,0,0.5,0.2,0.5,0.5c0,0.3-0.2,0.5-0.5,0.5C41.2-139.3,41-139.5,41-139.8z"/>
		<text transform="matrix(0.48 0 0 0.48 -27.6573 -132.2359)" class="st5 st6">Others</text>
		<text transform="matrix(0.48 0 0 0.48 -23.9715 -126.0934)" class="st2 st5 st6">Cities Dev</text>
		<text transform="matrix(0.48 0 0 0.48 -10.8477 -126.0934)" class="st2 st5 st6">e</text>
		<text transform="matrix(0.48 0 0 0.48 -9.3118 -126.0934)" class="st2 st5 st6">l</text>
		<text transform="matrix(0.48 0 0 0.48 -8.6178 -126.0934)" class="st2 st5 st6">opment I</text>
		<text transform="matrix(0.48 0 0 0.48 3.0196 -126.0934)" class="st2 st5 st6">n</text>
		<text transform="matrix(0.48 0 0 0.48 4.6874 -126.0934)" class="st2 st5 st6">itiative for Asia</text>
		<text transform="matrix(0.48 0 0 0.48 -23.9715 -122.4077)" class="st2 st5 st6">T</text>
		<text transform="matrix(0.48 0 0 0.48 -22.3314 -122.4077)" class="st2 st5 st6">r</text>
		<text transform="matrix(0.48 0 0 0.48 -21.3212 -122.4077)" class="st2 st5 st6">u</text>
		<text transform="matrix(0.48 0 0 0.48 -19.6501 -122.4077)" class="st2 st5 st6">st F</text>
		<text transform="matrix(0.48 0 0 0.48 -15.249 -122.4077)" class="st2 st5 st6">u</text>
		<text transform="matrix(0.48 0 0 0.48 -13.5779 -122.4077)" class="st2 st5 st6">n</text>
		<text transform="matrix(0.48 0 0 0.48 -11.9103 -122.4077)" class="st2 st5 st6">d</text>
		<path class="st7" d="M37.5-126.1h0.2c0-0.1,0-0.3,0-0.4v-0.2l0.3,0c0-0.1,0-0.1,0-0.2c-0.1,0-0.2,0-0.3,0v-1c0-0.1,0-0.3,0-0.4
			l-0.1,0l-0.2,0.3l-0.9,1.2l0.1,0.1c0.2,0,0.5,0,0.8,0h0.2v0.1C37.5-126.4,37.5-126.2,37.5-126.1z M37.5-127.9v1h-0.8L37.5-127.9z"
			/>
		<path class="st7" d="M38.7-126.2c0-0.1-0.1-0.2-0.2-0.2c-0.1,0-0.2,0.1-0.2,0.2c0,0.1,0.1,0.2,0.2,0.2
			C38.6-126,38.7-126.1,38.7-126.2z"/>
		<path class="st7" d="M39.1-126.1c0.2,0.1,0.3,0.1,0.5,0.1c0.5,0,0.8-0.3,0.8-0.7c0-0.4-0.3-0.6-0.9-0.6c-0.1,0-0.1,0-0.2,0l0-0.7
			h0.4c0.2,0,0.4,0,0.6,0c0-0.1,0-0.2,0-0.2c-0.2,0-0.3,0-0.6,0c-0.3,0-0.4,0-0.6,0l0,0c0,0.1,0,0.2,0,0.3l0,0.3c0,0.1,0,0.2,0,0.3
			l0,0c0.1,0,0.2,0,0.3,0c0.5,0,0.7,0.2,0.7,0.4c0,0.2-0.2,0.4-0.6,0.4c-0.2,0-0.4,0-0.6-0.1C39.1-126.3,39.1-126.1,39.1-126.1z"/>
		<path class="st7" d="M40.9-126.2l0,0.2c0.8-0.1,1.2-0.7,1.2-1.4c0-0.5-0.3-0.8-0.7-0.8c-0.4,0-0.7,0.3-0.7,0.7
			c0,0.4,0.3,0.7,0.7,0.7c0.2,0,0.4-0.1,0.6-0.3C41.9-126.7,41.6-126.3,40.9-126.2z M41-127.5c0-0.3,0.2-0.5,0.5-0.5
			c0.3,0,0.5,0.2,0.5,0.5c0,0.3-0.2,0.5-0.5,0.5C41.2-127.1,41-127.3,41-127.5z"/>
		<text transform="matrix(0.48 0 0 0.48 -23.9715 -116.2649)" class="st2 st5 st6">R</text>
		<text transform="matrix(0.48 0 0 0.48 -22.1104 -116.2649)" class="st2 st5 st6">e</text>
		<text transform="matrix(0.48 0 0 0.48 -20.5747 -116.2649)" class="st2 st5 st6">p</text>
		<text transform="matrix(0.48 0 0 0.48 -18.9039 -116.2649)" class="st2 st5 st6">ublic of K</text>
		<text transform="matrix(0.48 0 0 0.48 -6.9439 -116.2649)" class="st2 st5 st6">o</text>
		<text transform="matrix(0.48 0 0 0.48 -5.2761 -116.2649)" class="st2 st5 st6">r</text>
		<text transform="matrix(0.48 0 0 0.48 -4.3025 -116.2649)" class="st2 st5 st6">e</text>
		<text transform="matrix(0.48 0 0 0.48 -2.7667 -116.2649)" class="st2 st5 st6">a</text>
		<path class="st7" d="M37.5-116.3h0.2c0-0.1,0-0.3,0-0.4v-0.2l0.3,0c0-0.1,0-0.1,0-0.2c-0.1,0-0.2,0-0.3,0v-1c0-0.1,0-0.3,0-0.4
			l-0.1,0l-0.2,0.3l-0.9,1.2l0.1,0.1c0.2,0,0.5,0,0.8,0h0.2v0.1C37.5-116.6,37.5-116.4,37.5-116.3z M37.5-118v1h-0.8L37.5-118z"/>
		<path class="st7" d="M38.7-116.4c0-0.1-0.1-0.2-0.2-0.2c-0.1,0-0.2,0.1-0.2,0.2c0,0.1,0.1,0.2,0.2,0.2
			C38.6-116.2,38.7-116.3,38.7-116.4z"/>
		<path class="st7" d="M39.8-118.4c-0.5,0-0.7,0.5-0.7,1.1c0,0.6,0.2,1.1,0.7,1.1c0.5,0,0.7-0.5,0.7-1.1
			C40.5-117.9,40.3-118.4,39.8-118.4z M39.8-116.4c-0.3,0-0.5-0.4-0.5-0.9c0-0.5,0.2-0.9,0.5-0.9s0.5,0.4,0.5,0.9
			C40.3-116.8,40.1-116.4,39.8-116.4z"/>
		<path class="st7" d="M41.5-118.4c-0.5,0-0.7,0.5-0.7,1.1c0,0.6,0.2,1.1,0.7,1.1c0.5,0,0.7-0.5,0.7-1.1
			C42.2-117.9,42-118.4,41.5-118.4z M41.5-116.4c-0.3,0-0.5-0.4-0.5-0.9c0-0.5,0.2-0.9,0.5-0.9s0.5,0.4,0.5,0.9
			C42-116.8,41.8-116.4,41.5-116.4z"/>
		<text transform="matrix(0.48 0 0 0.48 -23.9715 -110.1226)" class="st2 st5 st6">J</text>
		<text transform="matrix(0.48 0 0 0.48 -22.7706 -110.1226)" class="st2 st5 st6">a</text>
		<text transform="matrix(0.48 0 0 0.48 -21.2964 -110.1226)" class="st2 st5 st6">p</text>
		<text transform="matrix(0.48 0 0 0.48 -19.6258 -110.1226)" class="st2 st5 st6">an</text>
		<path class="st7" d="M36.5-110.2c0.2,0.1,0.4,0.1,0.5,0.1c0.5,0,0.8-0.3,0.8-0.6c0-0.3-0.2-0.5-0.7-0.5c0.4-0.1,0.6-0.3,0.6-0.6
			c0-0.3-0.3-0.5-0.7-0.5c-0.2,0-0.5,0.1-0.7,0.2l0.1,0.2c0.2-0.1,0.4-0.2,0.6-0.2c0.3,0,0.4,0.1,0.4,0.3c0,0.2-0.2,0.4-0.8,0.5
			l0,0.2c0.5,0,0.8,0.2,0.8,0.4c0,0.2-0.2,0.4-0.6,0.4c-0.2,0-0.4,0-0.6-0.1C36.5-110.4,36.5-110.2,36.5-110.2z"/>
		<path class="st7" d="M38.7-110.2c0-0.1-0.1-0.2-0.2-0.2c-0.1,0-0.2,0.1-0.2,0.2c0,0.1,0.1,0.2,0.2,0.2
			C38.6-110.1,38.7-110.2,38.7-110.2z"/>
		<path class="st7" d="M39.8-112.3c-0.5,0-0.7,0.5-0.7,1.1c0,0.6,0.2,1.1,0.7,1.1c0.5,0,0.7-0.5,0.7-1.1
			C40.5-111.8,40.3-112.3,39.8-112.3z M39.8-110.3c-0.3,0-0.5-0.4-0.5-0.9c0-0.5,0.2-0.9,0.5-0.9s0.5,0.4,0.5,0.9
			C40.3-110.7,40.1-110.3,39.8-110.3z"/>
		<path class="st7" d="M41.5-112.3c-0.5,0-0.7,0.5-0.7,1.1c0,0.6,0.2,1.1,0.7,1.1c0.5,0,0.7-0.5,0.7-1.1
			C42.2-111.8,42-112.3,41.5-112.3z M41.5-110.3c-0.3,0-0.5-0.4-0.5-0.9c0-0.5,0.2-0.9,0.5-0.9s0.5,0.4,0.5,0.9
			C42-110.7,41.8-110.3,41.5-110.3z"/>
		<text transform="matrix(0.48 0 0 0.48 -23.9715 -103.9797)" class="st2 st5 st6">U</text>
		<text transform="matrix(0.48 0 0 0.48 -21.7389 -103.9797)" class="st2 st5 st6">n</text>
		<text transform="matrix(0.48 0 0 0.48 -20.0711 -103.9797)" class="st2 st5 st6">i</text>
		<text transform="matrix(0.48 0 0 0.48 -19.3768 -103.9797)" class="st2 st5 st6">ted Kingdom</text>
		<path class="st7" d="M36.5-104c0.2,0.1,0.4,0.1,0.5,0.1c0.5,0,0.8-0.3,0.8-0.6c0-0.3-0.2-0.5-0.7-0.5c0.4-0.1,0.6-0.3,0.6-0.6
			c0-0.3-0.3-0.5-0.7-0.5c-0.2,0-0.5,0.1-0.7,0.2l0.1,0.2c0.2-0.1,0.4-0.2,0.6-0.2c0.3,0,0.4,0.1,0.4,0.3c0,0.2-0.2,0.4-0.8,0.5
			l0,0.2c0.5,0,0.8,0.2,0.8,0.4c0,0.2-0.2,0.4-0.6,0.4c-0.2,0-0.4,0-0.6-0.1C36.5-104.2,36.5-104,36.5-104z"/>
		<path class="st7" d="M38.7-104.1c0-0.1-0.1-0.2-0.2-0.2c-0.1,0-0.2,0.1-0.2,0.2c0,0.1,0.1,0.2,0.2,0.2
			C38.6-103.9,38.7-104,38.7-104.1z"/>
		<path class="st7" d="M39.8-106.1c-0.5,0-0.7,0.5-0.7,1.1c0,0.6,0.2,1.1,0.7,1.1c0.5,0,0.7-0.5,0.7-1.1
			C40.5-105.7,40.3-106.1,39.8-106.1z M39.8-104.1c-0.3,0-0.5-0.4-0.5-0.9c0-0.5,0.2-0.9,0.5-0.9s0.5,0.4,0.5,0.9
			C40.3-104.5,40.1-104.1,39.8-104.1z"/>
		<path class="st7" d="M41.5-106.1c-0.5,0-0.7,0.5-0.7,1.1c0,0.6,0.2,1.1,0.7,1.1c0.5,0,0.7-0.5,0.7-1.1
			C42.2-105.7,42-106.1,41.5-106.1z M41.5-104.1c-0.3,0-0.5-0.4-0.5-0.9c0-0.5,0.2-0.9,0.5-0.9s0.5,0.4,0.5,0.9
			C42-104.5,41.8-104.1,41.5-104.1z"/>
		<text transform="matrix(0.48 0 0 0.48 -23.9715 -97.8367)" class="st2 st5 st6">Sanitation F</text>
		<text transform="matrix(0.48 0 0 0.48 -8.7896 -97.8367)" class="st2 st5 st6">i</text>
		<text transform="matrix(0.48 0 0 0.48 -8.0957 -97.8367)" class="st2 st5 st6">n</text>
		<text transform="matrix(0.48 0 0 0.48 -6.4281 -97.8367)" class="st2 st5 st6">ancing P</text>
		<text transform="matrix(0.48 0 0 0.48 4.2482 -97.8367)" class="st2 st5 st6">a</text>
		<text transform="matrix(0.48 0 0 0.48 5.7224 -97.8367)" class="st2 st5 st6">r</text>
		<text transform="matrix(0.48 0 0 0.48 6.733 -97.8367)" class="st2 st5 st6">tnership</text>
		<text transform="matrix(0.48 0 0 0.48 -23.9715 -94.1514)" class="st2 st5 st6">T</text>
		<text transform="matrix(0.48 0 0 0.48 -22.3314 -94.1514)" class="st2 st5 st6">r</text>
		<text transform="matrix(0.48 0 0 0.48 -21.3212 -94.1514)" class="st2 st5 st6">ust F</text>
		<text transform="matrix(0.48 0 0 0.48 -15.249 -94.1514)" class="st2 st5 st6">u</text>
		<text transform="matrix(0.48 0 0 0.48 -13.5779 -94.1514)" class="st2 st5 st6">n</text>
		<text transform="matrix(0.48 0 0 0.48 -11.9103 -94.1514)" class="st2 st5 st6">d</text>
		<path class="st7" d="M36.5-97.9c0.2,0.1,0.4,0.1,0.5,0.1c0.5,0,0.8-0.3,0.8-0.6c0-0.3-0.2-0.5-0.7-0.5c0.4-0.1,0.6-0.3,0.6-0.6
			c0-0.3-0.3-0.5-0.7-0.5c-0.2,0-0.5,0.1-0.7,0.2l0.1,0.2c0.2-0.1,0.4-0.2,0.6-0.2c0.3,0,0.4,0.1,0.4,0.3c0,0.2-0.2,0.4-0.8,0.5
			l0,0.2c0.5,0,0.8,0.2,0.8,0.4c0,0.2-0.2,0.4-0.6,0.4c-0.2,0-0.4,0-0.6-0.1C36.5-98.1,36.5-97.9,36.5-97.9z"/>
		<path class="st7" d="M38.7-98c0-0.1-0.1-0.2-0.2-0.2c-0.1,0-0.2,0.1-0.2,0.2c0,0.1,0.1,0.2,0.2,0.2C38.6-97.8,38.7-97.9,38.7-98z"
			/>
		<path class="st7" d="M39.8-100c-0.5,0-0.7,0.5-0.7,1.1c0,0.6,0.2,1.1,0.7,1.1c0.5,0,0.7-0.5,0.7-1.1C40.5-99.5,40.3-100,39.8-100z
			 M39.8-98c-0.3,0-0.5-0.4-0.5-0.9c0-0.5,0.2-0.9,0.5-0.9s0.5,0.4,0.5,0.9C40.3-98.4,40.1-98,39.8-98z"/>
		<path class="st7" d="M41.5-100c-0.5,0-0.7,0.5-0.7,1.1c0,0.6,0.2,1.1,0.7,1.1c0.5,0,0.7-0.5,0.7-1.1C42.2-99.5,42-100,41.5-100z
			 M41.5-98c-0.3,0-0.5-0.4-0.5-0.9c0-0.5,0.2-0.9,0.5-0.9s0.5,0.4,0.5,0.9C42-98.4,41.8-98,41.5-98z"/>
		<text transform="matrix(0.48 0 0 0.48 -23.9715 -88.0084)" class="st2 st5 st6">H</text>
		<text transform="matrix(0.48 0 0 0.48 -21.6465 -88.0084)" class="st2 st5 st6">i</text>
		<text transform="matrix(0.48 0 0 0.48 -20.9525 -88.0084)" class="st2 st5 st6">g</text>
		<text transform="matrix(0.48 0 0 0.48 -19.5151 -88.0084)" class="st2 st5 st6">h Lev</text>
		<text transform="matrix(0.48 0 0 0.48 -12.6536 -88.0084)" class="st2 st5 st6">e</text>
		<text transform="matrix(0.48 0 0 0.48 -11.1179 -88.0084)" class="st2 st5 st6">l</text>
		<text transform="matrix(0.48 0 0 0.48 -10.4237 -88.0084)" class="st2 st5 st6"> T</text>
		<text transform="matrix(0.48 0 0 0.48 -8.1786 -88.0084)" class="st2 st5 st6">e</text>
		<text transform="matrix(0.48 0 0 0.48 -6.6428 -88.0084)" class="st2 st5 st6">c</text>
		<text transform="matrix(0.48 0 0 0.48 -5.1718 -88.0084)" class="st2 st5 st6">hnology F</text>
		<text transform="matrix(0.48 0 0 0.48 7.1385 -88.0084)" class="st2 st5 st6">u</text>
		<text transform="matrix(0.48 0 0 0.48 8.8091 -88.0084)" class="st2 st5 st6">n</text>
		<text transform="matrix(0.48 0 0 0.48 10.477 -88.0084)" class="st2 st5 st6">d</text>
		<path class="st7" d="M36.8-88.2c0.2-0.2,0.4-0.4,0.6-0.5c0.3-0.3,0.5-0.5,0.5-0.8c0-0.4-0.3-0.6-0.6-0.6c-0.2,0-0.5,0.1-0.7,0.3
			l0.1,0.2c0.2-0.2,0.4-0.3,0.6-0.3c0.3,0,0.4,0.2,0.4,0.4c0,0.3-0.3,0.7-1.1,1.4l0,0.2c0.2,0,0.4,0,0.7,0c0.3,0,0.5,0,0.7,0
			c0-0.1,0-0.1,0-0.2C37.6-88.2,37.2-88.2,36.8-88.2z"/>
		<path class="st7" d="M38.7-88.1c0-0.1-0.1-0.2-0.2-0.2c-0.1,0-0.2,0.1-0.2,0.2c0,0.1,0.1,0.2,0.2,0.2C38.6-88,38.7-88,38.7-88.1z"
			/>
		<path class="st7" d="M39.8-90.2c-0.5,0-0.7,0.5-0.7,1.1c0,0.6,0.2,1.1,0.7,1.1c0.5,0,0.7-0.5,0.7-1.1
			C40.5-89.7,40.3-90.2,39.8-90.2z M39.8-88.1c-0.3,0-0.5-0.4-0.5-0.9c0-0.5,0.2-0.9,0.5-0.9s0.5,0.4,0.5,0.9
			C40.3-88.6,40.1-88.1,39.8-88.1z"/>
		<path class="st7" d="M41.5-90.2c-0.5,0-0.7,0.5-0.7,1.1c0,0.6,0.2,1.1,0.7,1.1c0.5,0,0.7-0.5,0.7-1.1C42.2-89.7,42-90.2,41.5-90.2
			z M41.5-88.1c-0.3,0-0.5-0.4-0.5-0.9c0-0.5,0.2-0.9,0.5-0.9s0.5,0.4,0.5,0.9C42-88.6,41.8-88.1,41.5-88.1z"/>
		<text transform="matrix(0.48 0 0 0.48 -23.9715 -81.8654)" class="st2 st5 st6">JP Mor</text>
		<text transform="matrix(0.48 0 0 0.48 -15.0062 -81.8654)" class="st2 st5 st6">g</text>
		<text transform="matrix(0.48 0 0 0.48 -13.569 -81.8654)" class="st2 st5 st6">a</text>
		<text transform="matrix(0.48 0 0 0.48 -12.0948 -81.8654)" class="st2 st5 st6">n Chase F</text>
		<text transform="matrix(0.48 0 0 0.48 0.3353 -81.8654)" class="st2 st5 st6">o</text>
		<text transform="matrix(0.48 0 0 0.48 2.0029 -81.8654)" class="st2 st5 st6">u</text>
		<text transform="matrix(0.48 0 0 0.48 3.674 -81.8654)" class="st2 st5 st6">ndation</text>
		<path class="st7" d="M37.9-82.1c-0.1,0-0.3,0-0.4,0h-0.2v-1.6c0-0.1,0-0.3,0-0.4l0,0L37.2-84c-0.1,0-0.4,0.1-0.6,0.2l0,0.2
			l0.5-0.2v1.3c0,0.1,0,0.3,0,0.4h-0.2c-0.1,0-0.2,0-0.4,0c0,0.1,0,0.1,0,0.2c0.2,0,0.3,0,0.5,0h0.3c0.2,0,0.4,0,0.6,0
			C37.9-81.9,37.9-82,37.9-82.1L37.9-82.1z"/>
		<path class="st7" d="M38.7-82c0-0.1-0.1-0.2-0.2-0.2c-0.1,0-0.2,0.1-0.2,0.2c0,0.1,0.1,0.2,0.2,0.2C38.6-81.8,38.7-81.9,38.7-82z"
			/>
		<path class="st7" d="M39.4-82.1c0.2-0.2,0.4-0.4,0.6-0.5c0.3-0.3,0.5-0.5,0.5-0.8c0-0.4-0.3-0.6-0.6-0.6c-0.2,0-0.5,0.1-0.7,0.3
			l0.1,0.2c0.2-0.2,0.4-0.3,0.6-0.3c0.3,0,0.4,0.2,0.4,0.4c0,0.3-0.3,0.7-1.1,1.4l0,0.2c0.2,0,0.4,0,0.7,0c0.3,0,0.5,0,0.7,0
			c0-0.1,0-0.1,0-0.2C40.2-82.1,39.7-82.1,39.4-82.1L39.4-82.1z"/>
		<path class="st7" d="M40.9-82l0,0.2c0.8-0.1,1.2-0.7,1.2-1.4c0-0.5-0.3-0.8-0.7-0.8c-0.4,0-0.7,0.3-0.7,0.7c0,0.4,0.3,0.7,0.7,0.7
			c0.2,0,0.4-0.1,0.6-0.3C41.9-82.5,41.6-82.1,40.9-82L40.9-82z M41-83.3c0-0.3,0.2-0.5,0.5-0.5c0.3,0,0.5,0.2,0.5,0.5
			c0,0.3-0.2,0.5-0.5,0.5C41.2-82.8,41-83,41-83.3L41-83.3z"/>
		<path class="st7" d="M-14.8-77.2c0.1-0.2,0.2-0.6,0.2-0.8l-0.3,0c0,0.2,0,0.6-0.1,0.8L-14.8-77.2z"/>
		<text transform="matrix(0.48 0 0 0.48 -23.9715 -75.7229)" class="st2 st5 st6">P</text>
		<text transform="matrix(0.48 0 0 0.48 -22.3347 -75.7229)" class="st2 st5 st6">e</text>
		<text transform="matrix(0.48 0 0 0.48 -20.799 -75.7229)" class="st2 st5 st6">o</text>
		<text transform="matrix(0.48 0 0 0.48 -19.1312 -75.7229)" class="st2 st5 st6">ple</text>
		<text transform="matrix(0.48 0 0 0.48 -14.3706 -75.7229)" class="st2 st5 st6">s</text>
		<text transform="matrix(0.48 0 0 0.48 -13.1237 -75.7229)" class="st2 st5 st6"> R</text>
		<text transform="matrix(0.48 0 0 0.48 -10.6267 -75.7229)" class="st2 st5 st6">e</text>
		<text transform="matrix(0.48 0 0 0.48 -9.0908 -75.7229)" class="st2 st5 st6">p</text>
		<text transform="matrix(0.48 0 0 0.48 -7.42 -75.7229)" class="st2 st5 st6">ublic of China</text>
		<path class="st7" d="M37.9-75.9c-0.1,0-0.3,0-0.4,0h-0.2v-1.6c0-0.1,0-0.3,0-0.4l0,0l-0.2,0.1c-0.1,0-0.4,0.1-0.6,0.2l0,0.2
			l0.5-0.2v1.3c0,0.1,0,0.3,0,0.4h-0.2c-0.1,0-0.2,0-0.4,0c0,0.1,0,0.1,0,0.2c0.2,0,0.3,0,0.5,0h0.3c0.2,0,0.4,0,0.6,0
			C37.9-75.8,37.9-75.9,37.9-75.9L37.9-75.9z"/>
		<path class="st7" d="M38.7-75.8c0-0.1-0.1-0.2-0.2-0.2c-0.1,0-0.2,0.1-0.2,0.2c0,0.1,0.1,0.2,0.2,0.2
			C38.6-75.7,38.7-75.8,38.7-75.8L38.7-75.8z"/>
		<path class="st7" d="M39.8-77.9c-0.5,0-0.7,0.5-0.7,1.1c0,0.6,0.2,1.1,0.7,1.1c0.5,0,0.7-0.5,0.7-1.1
			C40.5-77.4,40.3-77.9,39.8-77.9L39.8-77.9z M39.8-75.9c-0.3,0-0.5-0.4-0.5-0.9c0-0.5,0.2-0.9,0.5-0.9s0.5,0.4,0.5,0.9
			C40.3-76.3,40.1-75.9,39.8-75.9z"/>
		<path class="st7" d="M40.8-75.8c0.2,0.1,0.4,0.1,0.5,0.1c0.5,0,0.8-0.3,0.8-0.6c0-0.3-0.2-0.5-0.7-0.5c0.4-0.1,0.6-0.3,0.6-0.6
			c0-0.3-0.3-0.5-0.7-0.5c-0.2,0-0.5,0.1-0.7,0.2l0.1,0.2c0.2-0.1,0.4-0.2,0.6-0.2c0.3,0,0.4,0.1,0.4,0.3c0,0.2-0.2,0.4-0.8,0.5
			l0,0.2c0.5,0,0.8,0.2,0.8,0.4c0,0.2-0.2,0.4-0.6,0.4c-0.2,0-0.4,0-0.6-0.1L40.8-75.8L40.8-75.8z"/>
		<text transform="matrix(0.48 0 0 0.48 -23.9715 -69.5804)" class="st2 st5 st6">Netherlands</text>
		<path class="st7" d="M37.9-69.8c-0.1,0-0.3,0-0.4,0h-0.2v-1.6c0-0.1,0-0.3,0-0.4l0,0l-0.2,0.1c-0.1,0-0.4,0.1-0.6,0.2l0,0.2
			l0.5-0.2v1.3c0,0.1,0,0.3,0,0.4h-0.2c-0.1,0-0.2,0-0.4,0c0,0.1,0,0.1,0,0.2c0.2,0,0.3,0,0.5,0h0.3c0.2,0,0.4,0,0.6,0
			C37.9-69.6,37.9-69.7,37.9-69.8L37.9-69.8z"/>
		<path class="st7" d="M38.7-69.7c0-0.1-0.1-0.2-0.2-0.2c-0.1,0-0.2,0.1-0.2,0.2c0,0.1,0.1,0.2,0.2,0.2
			C38.6-69.5,38.7-69.6,38.7-69.7L38.7-69.7z"/>
		<path class="st7" d="M39.8-71.7c-0.5,0-0.7,0.5-0.7,1.1c0,0.6,0.2,1.1,0.7,1.1c0.5,0,0.7-0.5,0.7-1.1
			C40.5-71.3,40.3-71.7,39.8-71.7L39.8-71.7z M39.8-69.7c-0.3,0-0.5-0.4-0.5-0.9c0-0.5,0.2-0.9,0.5-0.9s0.5,0.4,0.5,0.9
			C40.3-70.1,40.1-69.7,39.8-69.7z"/>
		<path class="st7" d="M41.5-71.7c-0.5,0-0.7,0.5-0.7,1.1c0,0.6,0.2,1.1,0.7,1.1c0.5,0,0.7-0.5,0.7-1.1C42.2-71.3,42-71.7,41.5-71.7
			L41.5-71.7z M41.5-69.7c-0.3,0-0.5-0.4-0.5-0.9c0-0.5,0.2-0.9,0.5-0.9s0.5,0.4,0.5,0.9C42-70.1,41.8-69.7,41.5-69.7z"/>
		<text transform="matrix(0.48 0 0 0.48 -23.9715 -63.4374)" class="st2 st5 st6">U</text>
		<text transform="matrix(0.48 0 0 0.48 -21.7389 -63.4374)" class="st2 st5 st6">n</text>
		<text transform="matrix(0.48 0 0 0.48 -20.0711 -63.4374)" class="st2 st5 st6">i</text>
		<text transform="matrix(0.48 0 0 0.48 -19.3768 -63.4374)" class="st2 st5 st6">ted S</text>
		<text transform="matrix(0.48 0 0 0.48 -12.9268 -63.4374)" class="st2 st5 st6">t</text>
		<text transform="matrix(0.48 0 0 0.48 -11.889 -63.4374)" class="st2 st5 st6">ates</text>
		<path class="st7" d="M37.2-65.6c-0.5,0-0.7,0.5-0.7,1.1c0,0.6,0.2,1.1,0.7,1.1c0.5,0,0.7-0.5,0.7-1.1
			C37.9-65.1,37.7-65.6,37.2-65.6L37.2-65.6z M37.2-63.6c-0.3,0-0.5-0.4-0.5-0.9c0-0.5,0.2-0.9,0.5-0.9s0.5,0.4,0.5,0.9
			C37.7-64,37.5-63.6,37.2-63.6z"/>
		<path class="st7" d="M38.7-63.6c0-0.1-0.1-0.2-0.2-0.2c-0.1,0-0.2,0.1-0.2,0.2c0,0.1,0.1,0.2,0.2,0.2
			C38.6-63.4,38.7-63.5,38.7-63.6L38.7-63.6z"/>
		<path class="st7" d="M39.1-63.5c0.2,0.1,0.3,0.1,0.5,0.1c0.5,0,0.8-0.3,0.8-0.7c0-0.4-0.3-0.6-0.9-0.6c-0.1,0-0.1,0-0.2,0l0-0.7
			h0.4c0.2,0,0.4,0,0.6,0c0-0.1,0-0.2,0-0.2c-0.2,0-0.3,0-0.6,0c-0.3,0-0.4,0-0.6,0l0,0c0,0.1,0,0.2,0,0.3l0,0.3c0,0.1,0,0.2,0,0.3
			l0,0c0.1,0,0.2,0,0.3,0c0.5,0,0.7,0.2,0.7,0.4c0,0.2-0.2,0.4-0.6,0.4c-0.2,0-0.4,0-0.6-0.1L39.1-63.5L39.1-63.5z"/>
		<path class="st7" d="M40.8-63.5c0.2,0.1,0.4,0.1,0.5,0.1c0.5,0,0.8-0.3,0.8-0.6c0-0.3-0.2-0.5-0.7-0.5c0.4-0.1,0.6-0.3,0.6-0.6
			c0-0.3-0.3-0.5-0.7-0.5c-0.2,0-0.5,0.1-0.7,0.2l0.1,0.2c0.2-0.1,0.4-0.2,0.6-0.2c0.3,0,0.4,0.1,0.4,0.3c0,0.2-0.2,0.4-0.8,0.5
			l0,0.2c0.5,0,0.8,0.2,0.8,0.4c0,0.2-0.2,0.4-0.6,0.4c-0.2,0-0.4,0-0.6-0.1L40.8-63.5z"/>
		<text transform="matrix(0.48 0 0 0.48 -23.9715 -57.2949)" class="st2 st5 st6">Canada</text>
		<path class="st7" d="M37.2-59.5c-0.5,0-0.7,0.5-0.7,1.1c0,0.6,0.2,1.1,0.7,1.1c0.5,0,0.7-0.5,0.7-1.1C37.9-59,37.7-59.5,37.2-59.5
			L37.2-59.5z M37.2-57.4c-0.3,0-0.5-0.4-0.5-0.9c0-0.5,0.2-0.9,0.5-0.9s0.5,0.4,0.5,0.9C37.7-57.9,37.5-57.4,37.2-57.4z"/>
		<path class="st7" d="M38.7-57.4c0-0.1-0.1-0.2-0.2-0.2c-0.1,0-0.2,0.1-0.2,0.2c0,0.1,0.1,0.2,0.2,0.2
			C38.6-57.2,38.7-57.3,38.7-57.4L38.7-57.4z"/>
		<path class="st7" d="M40-57.3h0.2c0-0.1,0-0.3,0-0.4v-0.2l0.3,0c0-0.1,0-0.1,0-0.2c-0.1,0-0.2,0-0.3,0v-1c0-0.1,0-0.3,0-0.4
			l-0.1,0l-0.2,0.3L39-58l0.1,0.1c0.2,0,0.5,0,0.8,0H40v0.1C40-57.6,40-57.4,40-57.3L40-57.3z M40-59.1v1h-0.8L40-59.1z"/>
		<path class="st7" d="M40.8-57.3c0.2,0.1,0.3,0.1,0.5,0.1c0.5,0,0.8-0.3,0.8-0.7c0-0.4-0.3-0.6-0.9-0.6c-0.1,0-0.1,0-0.2,0l0-0.7
			h0.4c0.2,0,0.4,0,0.6,0c0-0.1,0-0.2,0-0.2c-0.2,0-0.3,0-0.6,0c-0.3,0-0.4,0-0.6,0l0,0c0,0.1,0,0.2,0,0.3l0,0.3c0,0.1,0,0.2,0,0.3
			l0,0c0.1,0,0.2,0,0.3,0c0.5,0,0.7,0.2,0.7,0.4c0,0.2-0.2,0.4-0.6,0.4c-0.2,0-0.4,0-0.6-0.1L40.8-57.3L40.8-57.3z"/>
		<text transform="matrix(0.48 0 0 0.48 -23.9715 -51.1519)" class="st5 st6">Germany</text>
		<path class="st8" d="M37.2-53.3c-0.5,0-0.7,0.5-0.7,1.1c0,0.6,0.2,1.1,0.7,1.1c0.5,0,0.7-0.5,0.7-1.1
			C37.9-52.8,37.7-53.3,37.2-53.3L37.2-53.3z M37.2-51.3c-0.3,0-0.5-0.4-0.5-0.9c0-0.5,0.2-0.9,0.5-0.9s0.5,0.4,0.5,0.9
			C37.7-51.7,37.5-51.3,37.2-51.3z"/>
		<path class="st8" d="M38.7-51.3c0-0.1-0.1-0.2-0.2-0.2c-0.1,0-0.2,0.1-0.2,0.2c0,0.1,0.1,0.2,0.2,0.2
			C38.6-51.1,38.7-51.2,38.7-51.3L38.7-51.3z"/>
		<path class="st8" d="M39.1-51.2c0.2,0.1,0.4,0.1,0.5,0.1c0.5,0,0.8-0.3,0.8-0.6c0-0.3-0.2-0.5-0.7-0.5c0.4-0.1,0.6-0.3,0.6-0.6
			c0-0.3-0.3-0.5-0.7-0.5c-0.2,0-0.5,0.1-0.7,0.2l0.1,0.2c0.2-0.1,0.4-0.2,0.6-0.2c0.3,0,0.4,0.1,0.4,0.3c0,0.2-0.2,0.4-0.8,0.5
			l0,0.2c0.5,0,0.8,0.2,0.8,0.4c0,0.2-0.2,0.4-0.6,0.4c-0.2,0-0.4,0-0.6-0.1L39.1-51.2L39.1-51.2z"/>
		<path class="st8" d="M40.8-51.7c0,0.3,0.3,0.6,0.7,0.6c0.4,0,0.7-0.3,0.7-0.6c0-0.3-0.2-0.4-0.5-0.6c0.3-0.1,0.4-0.3,0.4-0.5
			c0-0.3-0.3-0.5-0.6-0.5c-0.4,0-0.7,0.2-0.7,0.6c0,0.3,0.2,0.4,0.4,0.5C41-52.1,40.8-51.9,40.8-51.7L40.8-51.7z M42-51.7
			c0,0.2-0.2,0.4-0.5,0.4c-0.3,0-0.5-0.2-0.5-0.4c0-0.2,0.2-0.4,0.5-0.5C41.8-52,42-51.9,42-51.7z M41.1-52.8c0-0.2,0.2-0.4,0.4-0.4
			c0.2,0,0.4,0.1,0.4,0.4c0,0.2-0.2,0.3-0.4,0.4C41.3-52.4,41.1-52.6,41.1-52.8L41.1-52.8z"/>
		<text transform="matrix(0.48 0 0 0.48 -23.9715 -45.0094)" class="st2 st5 st6">W</text>
		<text transform="matrix(0.48 0 0 0.48 -21.0906 -45.0094)" class="st2 st5 st6">a</text>
		<text transform="matrix(0.48 0 0 0.48 -19.6225 -45.0094)" class="st2 st5 st6">t</text>
		<text transform="matrix(0.48 0 0 0.48 -18.5844 -45.0094)" class="st2 st5 st6">er F</text>
		<text transform="matrix(0.48 0 0 0.48 -13.8667 -45.0094)" class="st2 st5 st6">i</text>
		<text transform="matrix(0.48 0 0 0.48 -13.1727 -45.0094)" class="st2 st5 st6">n</text>
		<text transform="matrix(0.48 0 0 0.48 -11.5049 -45.0094)" class="st2 st5 st6">ancing P</text>
		<text transform="matrix(0.48 0 0 0.48 -0.8288 -45.0094)" class="st2 st5 st6">a</text>
		<text transform="matrix(0.48 0 0 0.48 0.6454 -45.0094)" class="st2 st5 st6">r</text>
		<text transform="matrix(0.48 0 0 0.48 1.656 -45.0094)" class="st2 st5 st6">tnership F</text>
		<text transform="matrix(0.48 0 0 0.48 14.2612 -45.0094)" class="st2 st5 st6">a</text>
		<text transform="matrix(0.48 0 0 0.48 15.7349 -45.0094)" class="st2 st5 st6">c</text>
		<text transform="matrix(0.48 0 0 0.48 17.2063 -45.0094)" class="st2 st5 st6">ility</text>
		<text transform="matrix(0.48 0 0 0.48 -23.9715 -41.3236)" class="st2 st5 st6">(</text>
		<text transform="matrix(0.48 0 0 0.48 -22.8015 -41.3236)" class="st2 st5 st6">M</text>
		<text transform="matrix(0.48 0 0 0.48 -20.0893 -41.3236)" class="st2 st5 st6">u</text>
		<text transform="matrix(0.48 0 0 0.48 -18.4187 -41.3236)" class="st2 st5 st6">l</text>
		<text transform="matrix(0.48 0 0 0.48 -17.7245 -41.3236)" class="st2 st5 st6">ti-Donor T</text>
		<text transform="matrix(0.48 0 0 0.48 -4.1797 -41.3236)" class="st2 st5 st6">r</text>
		<text transform="matrix(0.48 0 0 0.48 -3.1693 -41.3236)" class="st2 st5 st6">u</text>
		<text transform="matrix(0.48 0 0 0.48 -1.4982 -41.3236)" class="st2 st5 st6">st F</text>
		<text transform="matrix(0.48 0 0 0.48 2.9029 -41.3236)" class="st2 st5 st6">u</text>
		<text transform="matrix(0.48 0 0 0.48 4.5737 -41.3236)" class="st2 st5 st6">n</text>
		<text transform="matrix(0.48 0 0 0.48 6.2416 -41.3236)" class="st2 st5 st6">d</text>
		<text transform="matrix(0.48 0 0 0.48 7.9738 -41.3236)" class="st2 st5 st6">)</text>
		<path class="st7" d="M37.2-47.2c-0.5,0-0.7,0.5-0.7,1.1c0,0.6,0.2,1.1,0.7,1.1c0.5,0,0.7-0.5,0.7-1.1
			C37.9-46.7,37.7-47.2,37.2-47.2L37.2-47.2z M37.2-45.1c-0.3,0-0.5-0.4-0.5-0.9c0-0.5,0.2-0.9,0.5-0.9s0.5,0.4,0.5,0.9
			C37.7-45.6,37.5-45.1,37.2-45.1z"/>
		<path class="st7" d="M38.7-45.1c0-0.1-0.1-0.2-0.2-0.2c-0.1,0-0.2,0.1-0.2,0.2c0,0.1,0.1,0.2,0.2,0.2C38.6-45,38.7-45,38.7-45.1
			L38.7-45.1z"/>
		<path class="st7" d="M39.4-45.2c0.2-0.2,0.4-0.4,0.6-0.5c0.3-0.3,0.5-0.5,0.5-0.8c0-0.4-0.3-0.6-0.6-0.6c-0.2,0-0.5,0.1-0.7,0.3
			l0.1,0.2c0.2-0.2,0.4-0.3,0.6-0.3c0.3,0,0.4,0.2,0.4,0.4c0,0.3-0.3,0.7-1.1,1.4l0,0.2c0.2,0,0.4,0,0.7,0c0.3,0,0.5,0,0.7,0
			c0-0.1,0-0.1,0-0.2C40.2-45.2,39.7-45.2,39.4-45.2L39.4-45.2z"/>
		<path class="st7" d="M40.8-45C41-45,41.2-45,41.4-45c0.5,0,0.8-0.3,0.8-0.7c0-0.4-0.3-0.6-0.9-0.6c-0.1,0-0.1,0-0.2,0l0-0.7h0.4
			c0.2,0,0.4,0,0.6,0c0-0.1,0-0.2,0-0.2c-0.2,0-0.3,0-0.6,0c-0.3,0-0.4,0-0.6,0l0,0c0,0.1,0,0.2,0,0.3l0,0.3c0,0.1,0,0.2,0,0.3l0,0
			c0.1,0,0.2,0,0.3,0c0.5,0,0.7,0.2,0.7,0.4c0,0.2-0.2,0.4-0.6,0.4c-0.2,0-0.4,0-0.6-0.1L40.8-45L40.8-45z"/>
		<text transform="matrix(0.48 0 0 0.48 -23.9715 -35.1806)" class="st2 st5 st6">Austr</text>
		<text transform="matrix(0.48 0 0 0.48 -16.9257 -35.1806)" class="st2 st5 st6">a</text>
		<text transform="matrix(0.48 0 0 0.48 -15.4515 -35.1806)" class="st2 st5 st6">l</text>
		<text transform="matrix(0.48 0 0 0.48 -14.7575 -35.1806)" class="st2 st5 st6">ia</text>
		<path class="st7" d="M37.2-37.3c-0.5,0-0.7,0.5-0.7,1.1c0,0.6,0.2,1.1,0.7,1.1c0.5,0,0.7-0.5,0.7-1.1
			C37.9-36.9,37.7-37.3,37.2-37.3z M37.2-35.3c-0.3,0-0.5-0.4-0.5-0.9c0-0.5,0.2-0.9,0.5-0.9s0.5,0.4,0.5,0.9
			C37.7-35.7,37.5-35.3,37.2-35.3z"/>
		<path class="st7" d="M38.7-35.3c0-0.1-0.1-0.2-0.2-0.2c-0.1,0-0.2,0.1-0.2,0.2c0,0.1,0.1,0.2,0.2,0.2
			C38.6-35.1,38.7-35.2,38.7-35.3z"/>
		<path class="st7" d="M40.5-35.4c-0.1,0-0.3,0-0.4,0H40V-37c0-0.1,0-0.3,0-0.4l0,0l-0.2,0.1c-0.1,0-0.4,0.1-0.6,0.2l0,0.2l0.5-0.2
			v1.3c0,0.1,0,0.3,0,0.4h-0.2c-0.1,0-0.2,0-0.4,0c0,0.1,0,0.1,0,0.2c0.2,0,0.3,0,0.5,0H40c0.2,0,0.4,0,0.6,0
			C40.5-35.2,40.5-35.3,40.5-35.4L40.5-35.4z"/>
		<path class="st7" d="M40.8-35.2c0.2,0.1,0.4,0.1,0.5,0.1c0.5,0,0.8-0.3,0.8-0.6c0-0.3-0.2-0.5-0.7-0.5c0.4-0.1,0.6-0.3,0.6-0.6
			c0-0.3-0.3-0.5-0.7-0.5c-0.2,0-0.5,0.1-0.7,0.2l0.1,0.2c0.2-0.1,0.4-0.2,0.6-0.2c0.3,0,0.4,0.1,0.4,0.3c0,0.2-0.2,0.4-0.8,0.5
			l0,0.2c0.5,0,0.8,0.2,0.8,0.4c0,0.2-0.2,0.4-0.6,0.4c-0.2,0-0.4,0-0.6-0.1L40.8-35.2L40.8-35.2z"/>
		<text transform="matrix(0.48 0 0 0.48 -23.9715 -29.0381)" class="st2 st5 st6">Cooper</text>
		<text transform="matrix(0.48 0 0 0.48 -14.3736 -29.0381)" class="st2 st5 st6">a</text>
		<text transform="matrix(0.48 0 0 0.48 -12.9055 -29.0381)" class="st2 st5 st6">t</text>
		<text transform="matrix(0.48 0 0 0.48 -11.8675 -29.0381)" class="st2 st5 st6">ion F</text>
		<text transform="matrix(0.48 0 0 0.48 -5.7217 -29.0381)" class="st2 st5 st6">u</text>
		<text transform="matrix(0.48 0 0 0.48 -4.0506 -29.0381)" class="st2 st5 st6">n</text>
		<text transform="matrix(0.48 0 0 0.48 -2.3828 -29.0381)" class="st2 st5 st6">d in Support o</text>
		<text transform="matrix(0.48 0 0 0.48 15.5109 -29.0381)" class="st2 st5 st6">f</text>
		<text transform="matrix(0.48 0 0 0.48 -23.9715 -25.3523)" class="st2 st5 st6">Managing for Dev</text>
		<text transform="matrix(0.48 0 0 0.48 -1.2863 -25.3523)" class="st2 st5 st6">e</text>
		<text transform="matrix(0.48 0 0 0.48 0.2493 -25.3523)" class="st2 st5 st6">l</text>
		<text transform="matrix(0.48 0 0 0.48 0.9435 -25.3523)" class="st2 st5 st6">opment  R</text>
		<text transform="matrix(0.48 0 0 0.48 14.181 -25.3523)" class="st2 st5 st6">e</text>
		<text transform="matrix(0.48 0 0 0.48 15.7167 -25.3523)" class="st2 st5 st6">s</text>
		<text transform="matrix(0.48 0 0 0.48 16.964 -25.3523)" class="st2 st5 st6">ults</text>
		<path class="st7" d="M37.2-31.2c-0.5,0-0.7,0.5-0.7,1.1c0,0.6,0.2,1.1,0.7,1.1c0.5,0,0.7-0.5,0.7-1.1
			C37.9-30.7,37.7-31.2,37.2-31.2z M37.2-29.2c-0.3,0-0.5-0.4-0.5-0.9c0-0.5,0.2-0.9,0.5-0.9s0.5,0.4,0.5,0.9
			C37.7-29.6,37.5-29.2,37.2-29.2z"/>
		<path class="st7" d="M38.7-29.2c0-0.1-0.1-0.2-0.2-0.2c-0.1,0-0.2,0.1-0.2,0.2c0,0.1,0.1,0.2,0.2,0.2C38.6-29,38.7-29.1,38.7-29.2
			z"/>
		<path class="st7" d="M39.8-31.2c-0.5,0-0.7,0.5-0.7,1.1c0,0.6,0.2,1.1,0.7,1.1c0.5,0,0.7-0.5,0.7-1.1
			C40.5-30.7,40.3-31.2,39.8-31.2z M39.8-29.2c-0.3,0-0.5-0.4-0.5-0.9c0-0.5,0.2-0.9,0.5-0.9s0.5,0.4,0.5,0.9
			C40.3-29.6,40.1-29.2,39.8-29.2z"/>
		<path class="st7" d="M42.2-29.2c-0.1,0-0.3,0-0.4,0h-0.2v-1.6c0-0.1,0-0.3,0-0.4l0,0l-0.2,0.1c-0.1,0-0.4,0.1-0.6,0.2l0,0.2
			l0.5-0.2v1.3c0,0.1,0,0.3,0,0.4h-0.2c-0.1,0-0.2,0-0.4,0c0,0.1,0,0.1,0,0.2c0.2,0,0.3,0,0.5,0h0.3c0.2,0,0.4,0,0.6,0
			C42.2-29.1,42.2-29.2,42.2-29.2L42.2-29.2z"/>
		<text transform="matrix(0.48 0 0 0.48 -27.6573 -19.185)" class="st2 st9 st6">T</text>
		<text transform="matrix(0.48 0 0 0.48 -25.9159 -19.185)" class="st2 st9 st6">o</text>
		<text transform="matrix(0.48 0 0 0.48 -24.1958 -19.185)" class="st2 st9 st6">t</text>
		<text transform="matrix(0.48 0 0 0.48 -23.0012 -19.185)" class="st2 st9 st6">al</text>
		<path class="st7" d="M34.7-19.7c0,0.3,0.3,0.6,0.8,0.6c0.5,0,0.8-0.3,0.8-0.6c0-0.2-0.2-0.4-0.4-0.5c0.2-0.1,0.4-0.3,0.4-0.5
			c0-0.3-0.3-0.6-0.7-0.6c-0.4,0-0.7,0.3-0.7,0.6c0,0.2,0.2,0.4,0.4,0.5C34.9-20.2,34.7-20,34.7-19.7z M35.8-19.7
			c0,0.2-0.1,0.3-0.3,0.3c-0.2,0-0.3-0.1-0.3-0.3c0-0.2,0.1-0.3,0.3-0.4C35.7-20,35.8-19.9,35.8-19.7z M35.2-20.8
			c0-0.1,0.1-0.3,0.3-0.3c0.2,0,0.3,0.1,0.3,0.3c0,0.1-0.1,0.3-0.3,0.3C35.4-20.5,35.2-20.6,35.2-20.8z"/>
		<path class="st7" d="M37.3-19.2h0.5c0-0.1,0-0.2,0-0.3v-0.2l0.2,0c0-0.2,0-0.2,0-0.4c-0.1,0-0.1,0-0.2,0v-0.9c0-0.1,0-0.3,0-0.4
			l-0.4,0c0,0-0.1,0.2-0.2,0.3l-0.8,1l0,0.3c0.2,0,0.5,0,0.7,0h0.2v0.1C37.3-19.5,37.3-19.3,37.3-19.2z M36.8-20l0.5-0.7l0,0.7
			C37.2-20,36.8-20,36.8-20z"/>
		<path class="st7" d="M38.8-19.4c0-0.2-0.1-0.3-0.3-0.3c-0.2,0-0.3,0.1-0.3,0.3c0,0.1,0.1,0.3,0.3,0.3
			C38.7-19.1,38.8-19.2,38.8-19.4L38.8-19.4z"/>
		<path class="st7" d="M40.5-19.6c-0.1,0-0.3,0-0.4,0h-0.1v-1.3c0-0.1,0-0.3,0-0.4l-0.2,0l-0.2,0.1c-0.1,0-0.4,0.1-0.6,0.2l0.1,0.4
			l0.4-0.1v1c0,0.1,0,0.1,0,0.2h-0.1c-0.1,0-0.3,0-0.4,0c0,0.1,0,0.3,0,0.4c0.2,0,0.3,0,0.4,0H40c0.2,0,0.4,0,0.6,0
			C40.5-19.2,40.5-19.5,40.5-19.6L40.5-19.6z"/>
		<path class="st7" d="M41.6-19.2h0.5c0-0.1,0-0.2,0-0.3v-0.2l0.2,0c0-0.2,0-0.2,0-0.4c-0.1,0-0.1,0-0.2,0v-0.9c0-0.1,0-0.3,0-0.4
			l-0.4,0c0,0-0.1,0.2-0.2,0.3l-0.8,1l0,0.3c0.2,0,0.5,0,0.7,0h0.2v0.1C41.6-19.5,41.6-19.3,41.6-19.2z M41.1-20l0.5-0.7l0,0.7
			C41.5-20,41.1-20,41.1-20z"/>
		<path class="st10" d="M-29.5-158.4h73.7 M-29.5-152.3h73.7 M-29.5-142.4h73.7 M-29.5-136.3h73.7 M-29.5-130.1h73.7 M-29.5-120.3
			h73.7 M-29.5-114.2h73.7 M-29.5-108h73.7 M-29.5-101.9h73.7 M-29.5-92.1h73.7 M-29.5-85.9h73.7 M-29.5-79.8h73.7 M-29.5-73.6h73.7
			 M-29.5-67.5h73.7 M-29.5-61.3h73.7 M-29.5-55.2h73.7 M-29.5-49.1h73.7 M-29.5-39.2h73.7 M-29.5-33.1h73.7 M-29.5-23.3h73.7
			 M-29.5-17.1h73.7"/>
	</g>
	<path class="st11" d="M77,0C77.1,0,77.1,0,77,0l0.1,14.2c0,0,0,0,0,0C77.1,14.2,77,0,77,0z"/>
	<path class="st12" d="M76.5,0c0.2,0,0.4,0,0.5,0l0,14.2c-0.1,0-0.3,0-0.4,0C76.7,14.2,76.5,0,76.5,0z"/>
	<path class="st13" d="M75.5,0c0.4,0,0.7,0,1.1,0l0.1,14.2c-0.3,0-0.5,0-0.8,0C75.9,14.2,75.5,0,75.5,0z"/>
	<path class="st14" d="M73.8,0.1c0.5,0,1.1-0.1,1.6-0.1l0.4,14.2c-0.4,0-0.8,0-1.2,0.1L73.8,0.1z"/>
	<path class="st15" d="M71.9,0.2c0.6-0.1,1.3-0.1,1.9-0.1l0.8,14.2c-0.5,0-1,0.1-1.4,0.1L71.9,0.2z"/>
	<path class="st16" d="M69.7,0.5c0.7-0.1,1.5-0.2,2.2-0.2l1.3,14.2c-0.6,0.1-1.1,0.1-1.7,0.2C71.6,14.6,69.7,0.5,69.7,0.5z"/>
	<path class="st17" d="M65.5,1.2c1.4-0.3,2.8-0.5,4.2-0.7l1.8,14.1c-1.1,0.1-2.1,0.3-3.1,0.5C68.4,15.1,65.5,1.2,65.5,1.2z"/>
	<path class="st18" d="M61.3,2.2c1.4-0.4,2.8-0.8,4.2-1l2.9,13.9c-1.1,0.2-2.1,0.5-3.2,0.8L61.3,2.2z"/>
	<path class="st19" d="M56.1,4c1.7-0.7,3.4-1.3,5.2-1.8l4,13.7c-1.3,0.4-2.6,0.8-3.9,1.3C61.4,17.2,56.1,4,56.1,4z"/>
	<path class="st20" d="M48.5,7.7c2.5-1.4,5-2.7,7.6-3.7l5.2,13.2c-2,0.8-3.9,1.7-5.7,2.8L48.5,7.7z"/>
	<path class="st21" d="M38.3,15.3c3.1-2.9,6.5-5.4,10.2-7.6L55.6,20c-2.8,1.6-5.3,3.5-7.7,5.7C48,25.7,38.3,15.3,38.3,15.3z"/>
	<path class="st22" d="M30,25c2.4-3.5,5.2-6.8,8.3-9.7L48,25.7c-2.3,2.2-4.4,4.6-6.2,7.3L30,25z"/>
	<path class="st23" d="M24.1,36.2c1.5-4,3.5-7.7,5.9-11.3l11.8,8c-1.8,2.6-3.3,5.5-4.4,8.4L24.1,36.2z"/>
	<path class="st24" d="M20.3,52.8c0.4-5.7,1.7-11.2,3.7-16.5l13.3,5.2c-1.5,4-2.5,8.1-2.8,12.4L20.3,52.8z"/>
	<path class="st25" d="M22.3,72.1c-1.7-6.3-2.4-12.8-1.9-19.3l14.2,1c-0.4,4.9,0.1,9.8,1.4,14.5C36,68.3,22.3,72.1,22.3,72.1z"/>
	<path class="st26" d="M34.2,94.3c-5.6-6.4-9.7-14-12-22.2L36,68.3c1.7,6.2,4.8,11.9,9,16.7C44.9,85,34.2,94.3,34.2,94.3z"/>
	<path class="st27" d="M64.7,112.5c-11.9-2.6-22.6-9-30.5-18.1L44.9,85c6,6.9,14,11.6,22.9,13.6L64.7,112.5z"/>
	<path class="st28" d="M77.1,0c21.8,0,41.7,12.5,51.2,32.1s6.9,43-6.6,60.1s-35.7,25-57,20.2l3.1-13.9c16,3.6,32.6-2.3,42.7-15.2
		c10.2-12.8,12.1-30.3,5-45.1c-7.1-14.7-22.1-24.1-38.4-24.1C77.1,14.2,77.1,0,77.1,0z"/>
</g>
</svg>
