<?xml version="1.0" encoding="utf-8"?>
<!-- Generator: Adobe Illustrator 24.1.0, SVG Export Plug-In . SVG Version: 6.00 Build 0)  -->
<svg version="1.1" id="Layer_1" xmlns:serif="http://www.serif.com/"
	 xmlns="http://www.w3.org/2000/svg" xmlns:xlink="http://www.w3.org/1999/xlink" x="0px" y="0px" viewBox="0 0 149.7 375.6"
	 style="enable-background:new 0 0 149.7 375.6;" xml:space="preserve">
<style type="text/css">
	.st0{clip-path:url(#SVGID_2_);}
	.st1{clip-path:url(#SVGID_4_);}
	.st2{fill:#1A1A1A;}
	.st3{font-family:'IdealSans-ExtraLight';}
	.st4{font-size:11.5177px;}
	.st5{font-family:'IdealSans-Light';}
	.st6{font-size:6.3987px;}
	.st7{fill-rule:evenodd;clip-rule:evenodd;fill:#1A1A1A;}
	.st8{font-family:'IdealSans-Semibold';}
	.st9{fill-rule:evenodd;clip-rule:evenodd;}
	.st10{fill:none;stroke:#1A1A1A;stroke-width:0.16;stroke-miterlimit:2.5595;}
	.st11{fill:#E9522B;}
	.st12{fill:#C0C0C0;}
	.st13{fill:#B0B0B0;}
	.st14{fill:#A0A0A0;}
	.st15{fill:#909090;}
	.st16{fill:#808080;}
	.st17{fill:#707070;}
	.st18{fill:#606060;}
	.st19{fill:#505050;}
	.st20{fill:#404040;}
	.st21{fill:#303030;}
	.st22{fill:#202020;}
	.st23{fill:#F8947B;}
	.st24{fill:#F0704F;}
</style>
<g>
	<defs>
		<rect id="SVGID_1_" x="-22.7" y="-19.4" width="192" height="511.9"/>
	</defs>
	<clipPath id="SVGID_2_">
		<use xlink:href="#SVGID_1_"  style="overflow:visible;"/>
	</clipPath>
	<g class="st0">
		<g>
			<defs>
				<rect id="SVGID_3_" x="-22.7" y="-19.4" width="192" height="511.9"/>
			</defs>
			<clipPath id="SVGID_4_">
				<use xlink:href="#SVGID_3_"  style="overflow:visible;"/>
			</clipPath>
			<g class="st1">
				<g id="Layer-1" serif:id="Layer 1">
				</g>
			</g>
		</g>
	</g>
</g>
<g id="Layer-11" serif:id="Layer 1">
	<g transform="matrix(2.08333,0,0,2.08333,61.4583,478.168)">
		<text transform="matrix(0.48 0 0 0.48 -5.8473 -162.5543)" class="st2 st3 st4">B</text>
		<text transform="matrix(0.48 0 0 0.48 -2.6462 -162.5543)" class="st2 st3 st4">y</text>
		<text transform="matrix(0.48 0 0 0.48 -0.1694 -162.5543)" class="st2 st3 st4"> </text>
		<text transform="matrix(0.48 0 0 0.48 0.9252 -162.5543)" class="st2 st3 st4">Sour</text>
		<text transform="matrix(0.48 0 0 0.48 11.4791 -162.5543)" class="st2 st3 st4">c</text>
		<text transform="matrix(0.48 0 0 0.48 14.1107 -162.5543)" class="st2 st3 st4">e</text>
		<text transform="matrix(0.48 0 0 0.48 -29.5 -154.3502)" class="st2 st5 st6">J</text>
		<text transform="matrix(0.48 0 0 0.48 -28.2991 -154.3502)" class="st2 st5 st6">a</text>
		<text transform="matrix(0.48 0 0 0.48 -26.8249 -154.3502)" class="st2 st5 st6">p</text>
		<text transform="matrix(0.48 0 0 0.48 -25.154 -154.3502)" class="st2 st5 st6">an</text>
		<path class="st7" d="M31.2-154.4c0.2,0.1,0.4,0.1,0.5,0.1c0.5,0,0.8-0.3,0.8-0.6c0-0.3-0.2-0.5-0.7-0.5c0.4-0.1,0.6-0.3,0.6-0.6
			c0-0.3-0.3-0.5-0.7-0.5c-0.2,0-0.5,0.1-0.7,0.2l0.1,0.2c0.2-0.1,0.4-0.2,0.6-0.2c0.3,0,0.4,0.1,0.4,0.3c0,0.2-0.2,0.4-0.8,0.5
			l0,0.2c0.5,0,0.8,0.2,0.8,0.4c0,0.2-0.2,0.4-0.6,0.4c-0.2,0-0.4,0-0.6-0.1L31.2-154.4z"/>
		<path class="st7" d="M33-154.4c0.2,0.1,0.3,0.1,0.5,0.1c0.5,0,0.8-0.3,0.8-0.7c0-0.4-0.3-0.6-0.9-0.6c-0.1,0-0.1,0-0.2,0l0-0.7
			h0.4c0.2,0,0.4,0,0.6,0c0-0.1,0-0.2,0-0.2c-0.2,0-0.3,0-0.6,0c-0.3,0-0.4,0-0.6,0l0,0c0,0.1,0,0.2,0,0.3l0,0.3c0,0.1,0,0.2,0,0.3
			l0,0c0.1,0,0.2,0,0.3,0c0.5,0,0.7,0.2,0.7,0.4c0,0.2-0.2,0.4-0.6,0.4c-0.2,0-0.4,0-0.6-0.1C32.9-154.6,33-154.4,33-154.4z"/>
		<path class="st7" d="M35.4-156.5c-0.5,0-0.7,0.5-0.7,1.1c0,0.6,0.2,1.1,0.7,1.1c0.5,0,0.7-0.5,0.7-1.1
			C36.1-156,35.9-156.5,35.4-156.5z M35.4-154.5c-0.3,0-0.5-0.4-0.5-0.9c0-0.5,0.2-0.9,0.5-0.9c0.3,0,0.5,0.4,0.5,0.9
			C35.9-154.9,35.7-154.5,35.4-154.5z"/>
		<path class="st7" d="M36.8-154.5c0-0.1-0.1-0.2-0.2-0.2c-0.1,0-0.2,0.1-0.2,0.2c0,0.1,0.1,0.2,0.2,0.2
			C36.7-154.3,36.8-154.4,36.8-154.5z"/>
		<path class="st7" d="M37.5-154.5c0.2-0.2,0.4-0.4,0.6-0.5c0.3-0.3,0.5-0.5,0.5-0.8c0-0.4-0.3-0.6-0.6-0.6c-0.2,0-0.5,0.1-0.7,0.3
			l0.1,0.2c0.2-0.2,0.4-0.3,0.6-0.3c0.3,0,0.4,0.2,0.4,0.4c0,0.3-0.3,0.7-1.1,1.4l0,0.2c0.2,0,0.4,0,0.7,0c0.3,0,0.5,0,0.7,0
			c0-0.1,0-0.1,0-0.2C38.3-154.5,37.9-154.5,37.5-154.5z"/>
		<path class="st7" d="M39-154.4c0.2,0.1,0.4,0.1,0.5,0.1c0.5,0,0.8-0.3,0.8-0.6c0-0.3-0.2-0.5-0.7-0.5c0.4-0.1,0.6-0.3,0.6-0.6
			c0-0.3-0.3-0.5-0.7-0.5c-0.2,0-0.5,0.1-0.7,0.2l0.1,0.2c0.2-0.1,0.4-0.2,0.6-0.2c0.3,0,0.4,0.1,0.4,0.3c0,0.2-0.2,0.4-0.8,0.5
			l0,0.2c0.5,0,0.8,0.2,0.8,0.4c0,0.2-0.2,0.4-0.6,0.4c-0.2,0-0.4,0-0.6-0.1L39-154.4z"/>
		<text transform="matrix(0.48 0 0 0.48 -29.5 -148.2072)" class="st2 st5 st6">New Dev</text>
		<text transform="matrix(0.48 0 0 0.48 -17.6076 -148.2072)" class="st2 st5 st6">e</text>
		<text transform="matrix(0.48 0 0 0.48 -16.072 -148.2072)" class="st2 st5 st6">l</text>
		<text transform="matrix(0.48 0 0 0.48 -15.378 -148.2072)" class="st2 st5 st6">opment Bank</text>
		<path class="st7" d="M31.5-148.4c0.2-0.2,0.4-0.4,0.6-0.5c0.3-0.3,0.5-0.5,0.5-0.8c0-0.4-0.3-0.6-0.6-0.6c-0.2,0-0.5,0.1-0.7,0.3
			l0.1,0.2c0.2-0.2,0.4-0.3,0.6-0.3c0.3,0,0.4,0.2,0.4,0.4c0,0.3-0.3,0.7-1.1,1.4l0,0.2c0.2,0,0.4,0,0.7,0c0.3,0,0.5,0,0.7,0
			c0-0.1,0-0.1,0-0.2C32.3-148.4,31.9-148.4,31.5-148.4z"/>
		<path class="st7" d="M34.2-150.2l0-0.2c-0.8,0.1-1.2,0.7-1.2,1.4c0,0.5,0.3,0.8,0.7,0.8c0.4,0,0.7-0.3,0.7-0.7
			c0-0.4-0.3-0.7-0.7-0.7c-0.2,0-0.4,0.1-0.6,0.3C33.3-149.7,33.6-150.1,34.2-150.2z M34.2-148.9c0,0.3-0.2,0.5-0.5,0.5
			c-0.3,0-0.5-0.2-0.5-0.5c0-0.3,0.2-0.5,0.5-0.5C34-149.3,34.2-149.1,34.2-148.9z"/>
		<path class="st7" d="M35.4-150.4c-0.5,0-0.7,0.5-0.7,1.1c0,0.6,0.2,1.1,0.7,1.1c0.5,0,0.7-0.5,0.7-1.1
			C36.1-149.9,35.9-150.4,35.4-150.4z M35.4-148.3c-0.3,0-0.5-0.4-0.5-0.9c0-0.5,0.2-0.9,0.5-0.9c0.3,0,0.5,0.4,0.5,0.9
			C35.9-148.8,35.7-148.3,35.4-148.3z"/>
		<path class="st7" d="M36.8-148.3c0-0.1-0.1-0.2-0.2-0.2c-0.1,0-0.2,0.1-0.2,0.2c0,0.1,0.1,0.2,0.2,0.2
			C36.7-148.2,36.8-148.2,36.8-148.3z"/>
		<path class="st7" d="M38-150.4c-0.5,0-0.7,0.5-0.7,1.1c0,0.6,0.2,1.1,0.7,1.1c0.5,0,0.7-0.5,0.7-1.1
			C38.7-149.9,38.4-150.4,38-150.4z M37.9-148.3c-0.3,0-0.5-0.4-0.5-0.9c0-0.5,0.2-0.9,0.5-0.9s0.5,0.4,0.5,0.9
			C38.5-148.8,38.3-148.3,37.9-148.3z"/>
		<path class="st7" d="M39.7-150.4c-0.5,0-0.7,0.5-0.7,1.1c0,0.6,0.2,1.1,0.7,1.1c0.5,0,0.7-0.5,0.7-1.1
			C40.4-149.9,40.2-150.4,39.7-150.4z M39.7-148.3c-0.3,0-0.5-0.4-0.5-0.9c0-0.5,0.2-0.9,0.5-0.9s0.5,0.4,0.5,0.9
			C40.2-148.8,40-148.3,39.7-148.3z"/>
		<text transform="matrix(0.48 0 0 0.48 -29.5 -142.0645)" class="st2 st5 st6">Germany</text>
		<path class="st7" d="M31.5-142.3c0.2-0.2,0.4-0.4,0.6-0.5c0.3-0.3,0.5-0.5,0.5-0.8c0-0.4-0.3-0.6-0.6-0.6c-0.2,0-0.5,0.1-0.7,0.3
			l0.1,0.2c0.2-0.2,0.4-0.3,0.6-0.3c0.3,0,0.4,0.2,0.4,0.4c0,0.3-0.3,0.7-1.1,1.4l0,0.2c0.2,0,0.4,0,0.7,0c0.3,0,0.5,0,0.7,0
			c0-0.1,0-0.1,0-0.2C32.3-142.3,31.9-142.3,31.5-142.3z"/>
		<path class="st7" d="M33.2-142.3c0.2-0.2,0.4-0.4,0.6-0.5c0.3-0.3,0.5-0.5,0.5-0.8c0-0.4-0.3-0.6-0.6-0.6c-0.2,0-0.5,0.1-0.7,0.3
			l0.1,0.2c0.2-0.2,0.4-0.3,0.6-0.3c0.3,0,0.4,0.2,0.4,0.4c0,0.3-0.3,0.7-1.1,1.4l0,0.2c0.2,0,0.4,0,0.7,0c0.3,0,0.5,0,0.7,0
			c0-0.1,0-0.1,0-0.2C34-142.3,33.6-142.3,33.2-142.3z"/>
		<path class="st7" d="M34.7-142.1c0.2,0.1,0.4,0.1,0.5,0.1c0.5,0,0.8-0.3,0.8-0.6c0-0.3-0.2-0.5-0.7-0.5c0.4-0.1,0.6-0.3,0.6-0.6
			c0-0.3-0.3-0.5-0.7-0.5c-0.2,0-0.5,0.1-0.7,0.2l0.1,0.2c0.2-0.1,0.4-0.2,0.6-0.2c0.3,0,0.4,0.1,0.4,0.3c0,0.2-0.2,0.4-0.8,0.5
			l0,0.2c0.5,0,0.8,0.2,0.8,0.4c0,0.2-0.2,0.4-0.6,0.4c-0.2,0-0.4,0-0.6-0.1C34.6-142.3,34.7-142.1,34.7-142.1z"/>
		<path class="st7" d="M36.8-142.2c0-0.1-0.1-0.2-0.2-0.2c-0.1,0-0.2,0.1-0.2,0.2c0,0.1,0.1,0.2,0.2,0.2
			C36.7-142,36.8-142.1,36.8-142.2z"/>
		<path class="st7" d="M37.4-142.2l0,0.2c0.8-0.1,1.2-0.7,1.2-1.4c0-0.5-0.3-0.8-0.7-0.8c-0.4,0-0.7,0.3-0.7,0.7
			c0,0.4,0.3,0.7,0.7,0.7c0.2,0,0.4-0.1,0.6-0.3C38.3-142.7,38-142.3,37.4-142.2z M37.4-143.5c0-0.3,0.2-0.5,0.5-0.5
			c0.3,0,0.5,0.2,0.5,0.5c0,0.3-0.2,0.5-0.5,0.5C37.6-143,37.4-143.2,37.4-143.5z"/>
		<path class="st7" d="M39.9-142.1h0.2c0-0.1,0-0.3,0-0.4v-0.2l0.3,0c0-0.1,0-0.1,0-0.2c-0.1,0-0.2,0-0.3,0v-1c0-0.1,0-0.3,0-0.4
			l-0.1,0l-0.2,0.3l-0.9,1.2l0.1,0.1c0.2,0,0.5,0,0.8,0h0.2v0.1C39.9-142.4,39.9-142.2,39.9-142.1z M39.9-143.8v1h-0.8L39.9-143.8z"
			/>
		<text transform="matrix(0.48 0 0 0.48 -29.5 -135.9217)" class="st5 st6">Others</text>
		<text transform="matrix(0.48 0 0 0.48 -25.8142 -129.779)" class="st2 st5 st6">Asian I</text>
		<text transform="matrix(0.48 0 0 0.48 -17.0641 -129.779)" class="st2 st5 st6">n</text>
		<text transform="matrix(0.48 0 0 0.48 -15.3963 -129.779)" class="st2 st5 st6">f</text>
		<text transform="matrix(0.48 0 0 0.48 -14.4288 -129.779)" class="st2 st5 st6">r</text>
		<text transform="matrix(0.48 0 0 0.48 -13.4582 -129.779)" class="st2 st5 st6">a</text>
		<text transform="matrix(0.48 0 0 0.48 -11.9838 -129.779)" class="st2 st5 st6">s</text>
		<text transform="matrix(0.48 0 0 0.48 -10.7369 -129.779)" class="st2 st5 st6">tructur</text>
		<text transform="matrix(0.48 0 0 0.48 -1.8637 -129.779)" class="st2 st5 st6">e</text>
		<text transform="matrix(0.48 0 0 0.48 -0.328 -129.779)" class="st2 st5 st6"> </text>
		<text transform="matrix(0.48 0 0 0.48 0.3078 -129.779)" class="st2 st5 st6">Inv</text>
		<text transform="matrix(0.48 0 0 0.48 4.2669 -129.779)" class="st2 st5 st6">e</text>
		<text transform="matrix(0.48 0 0 0.48 5.8025 -129.779)" class="st2 st5 st6">s</text>
		<text transform="matrix(0.48 0 0 0.48 7.0494 -129.779)" class="st2 st5 st6">tment Bank</text>
		<path class="st7" d="M31.5-130c0.2-0.2,0.4-0.4,0.6-0.5c0.3-0.3,0.5-0.5,0.5-0.8c0-0.4-0.3-0.6-0.6-0.6c-0.2,0-0.5,0.1-0.7,0.3
			l0.1,0.2c0.2-0.2,0.4-0.3,0.6-0.3c0.3,0,0.4,0.2,0.4,0.4c0,0.3-0.3,0.7-1.1,1.4l0,0.2c0.2,0,0.4,0,0.7,0c0.3,0,0.5,0,0.7,0
			c0-0.1,0-0.1,0-0.2C32.3-130,31.9-130,31.5-130z"/>
		<path class="st7" d="M33.7-131.9c-0.5,0-0.7,0.5-0.7,1.1c0,0.6,0.2,1.1,0.7,1.1c0.5,0,0.7-0.5,0.7-1.1
			C34.4-131.5,34.1-131.9,33.7-131.9z M33.6-129.9c-0.3,0-0.5-0.4-0.5-0.9c0-0.5,0.2-0.9,0.5-0.9c0.3,0,0.5,0.4,0.5,0.9
			C34.2-130.3,34-129.9,33.6-129.9z"/>
		<path class="st7" d="M35.4-131.9c-0.5,0-0.7,0.5-0.7,1.1c0,0.6,0.2,1.1,0.7,1.1c0.5,0,0.7-0.5,0.7-1.1
			C36.1-131.5,35.9-131.9,35.4-131.9z M35.4-129.9c-0.3,0-0.5-0.4-0.5-0.9c0-0.5,0.2-0.9,0.5-0.9c0.3,0,0.5,0.4,0.5,0.9
			C35.9-130.3,35.7-129.9,35.4-129.9z"/>
		<path class="st7" d="M36.8-129.9c0-0.1-0.1-0.2-0.2-0.2c-0.1,0-0.2,0.1-0.2,0.2c0,0.1,0.1,0.2,0.2,0.2
			C36.7-129.7,36.8-129.8,36.8-129.9z"/>
		<path class="st7" d="M38-131.9c-0.5,0-0.7,0.5-0.7,1.1c0,0.6,0.2,1.1,0.7,1.1c0.5,0,0.7-0.5,0.7-1.1
			C38.7-131.5,38.4-131.9,38-131.9z M37.9-129.9c-0.3,0-0.5-0.4-0.5-0.9c0-0.5,0.2-0.9,0.5-0.9s0.5,0.4,0.5,0.9
			C38.5-130.3,38.3-129.9,37.9-129.9z"/>
		<path class="st7" d="M39.7-131.9c-0.5,0-0.7,0.5-0.7,1.1c0,0.6,0.2,1.1,0.7,1.1c0.5,0,0.7-0.5,0.7-1.1
			C40.4-131.5,40.2-131.9,39.7-131.9z M39.7-129.9c-0.3,0-0.5-0.4-0.5-0.9c0-0.5,0.2-0.9,0.5-0.9s0.5,0.4,0.5,0.9
			C40.2-130.3,40-129.9,39.7-129.9z"/>
		<text transform="matrix(0.48 0 0 0.48 -25.8142 -123.6362)" class="st2 st5 st6">Clean T</text>
		<text transform="matrix(0.48 0 0 0.48 -16.112 -123.6362)" class="st2 st5 st6">e</text>
		<text transform="matrix(0.48 0 0 0.48 -14.5762 -123.6362)" class="st2 st5 st6">c</text>
		<text transform="matrix(0.48 0 0 0.48 -13.105 -123.6362)" class="st2 st5 st6">hnology F</text>
		<text transform="matrix(0.48 0 0 0.48 -0.7949 -123.6362)" class="st2 st5 st6">u</text>
		<text transform="matrix(0.48 0 0 0.48 0.876 -123.6362)" class="st2 st5 st6">n</text>
		<text transform="matrix(0.48 0 0 0.48 2.5438 -123.6362)" class="st2 st5 st6">d</text>
		<path class="st7" d="M33.9-123.6h0.2c0-0.1,0-0.3,0-0.4v-0.2l0.3,0c0-0.1,0-0.1,0-0.2c-0.1,0-0.2,0-0.3,0v-1c0-0.1,0-0.3,0-0.4
			l-0.1,0l-0.2,0.3l-0.9,1.2l0.1,0.1c0.2,0,0.5,0,0.8,0h0.2v0.1C33.9-124,33.9-123.7,33.9-123.6z M33.9-125.4v1h-0.8L33.9-125.4z"/>
		<path class="st7" d="M34.7-124.1c0,0.3,0.3,0.6,0.7,0.6c0.4,0,0.7-0.3,0.7-0.6c0-0.3-0.2-0.4-0.5-0.6c0.3-0.1,0.4-0.3,0.4-0.5
			c0-0.3-0.3-0.5-0.6-0.5c-0.4,0-0.7,0.2-0.7,0.6c0,0.3,0.2,0.4,0.4,0.5C34.9-124.6,34.7-124.4,34.7-124.1z M35.9-124.2
			c0,0.2-0.2,0.4-0.5,0.4c-0.3,0-0.5-0.2-0.5-0.4c0-0.2,0.2-0.4,0.5-0.5C35.7-124.5,35.9-124.4,35.9-124.2z M34.9-125.2
			c0-0.2,0.2-0.4,0.4-0.4c0.2,0,0.4,0.1,0.4,0.4c0,0.2-0.2,0.3-0.4,0.4C35.1-124.9,34.9-125,34.9-125.2z"/>
		<path class="st7" d="M36.8-123.8c0-0.1-0.1-0.2-0.2-0.2c-0.1,0-0.2,0.1-0.2,0.2c0,0.1,0.1,0.2,0.2,0.2
			C36.7-123.6,36.8-123.7,36.8-123.8z"/>
		<path class="st7" d="M38-125.8c-0.5,0-0.7,0.5-0.7,1.1c0,0.6,0.2,1.1,0.7,1.1c0.5,0,0.7-0.5,0.7-1.1
			C38.7-125.3,38.4-125.8,38-125.8z M37.9-123.8c-0.3,0-0.5-0.4-0.5-0.9c0-0.5,0.2-0.9,0.5-0.9s0.5,0.4,0.5,0.9
			C38.5-124.2,38.3-123.8,37.9-123.8z"/>
		<path class="st7" d="M39.7-125.8c-0.5,0-0.7,0.5-0.7,1.1c0,0.6,0.2,1.1,0.7,1.1c0.5,0,0.7-0.5,0.7-1.1
			C40.4-125.3,40.2-125.8,39.7-125.8z M39.7-123.8c-0.3,0-0.5-0.4-0.5-0.9c0-0.5,0.2-0.9,0.5-0.9s0.5,0.4,0.5,0.9
			C40.2-124.2,40-123.8,39.7-123.8z"/>
		<text transform="matrix(0.48 0 0 0.48 -25.8142 -117.4937)" class="st2 st5 st6">F</text>
		<text transform="matrix(0.48 0 0 0.48 -24.3278 -117.4937)" class="st2 st5 st6">r</text>
		<text transform="matrix(0.48 0 0 0.48 -23.3573 -117.4937)" class="st2 st5 st6">a</text>
		<text transform="matrix(0.48 0 0 0.48 -21.8828 -117.4937)" class="st2 st5 st6">n</text>
		<text transform="matrix(0.48 0 0 0.48 -20.2153 -117.4937)" class="st2 st5 st6">ce</text>
		<path class="st7" d="M33-117.5c0.2,0.1,0.4,0.1,0.5,0.1c0.5,0,0.8-0.3,0.8-0.6c0-0.3-0.2-0.5-0.7-0.5c0.4-0.1,0.6-0.3,0.6-0.6
			c0-0.3-0.3-0.5-0.7-0.5c-0.2,0-0.5,0.1-0.7,0.2l0.1,0.2c0.2-0.1,0.4-0.2,0.6-0.2c0.3,0,0.4,0.1,0.4,0.3c0,0.2-0.2,0.4-0.8,0.5
			l0,0.2c0.5,0,0.8,0.2,0.8,0.4c0,0.2-0.2,0.4-0.6,0.4c-0.2,0-0.4,0-0.6-0.1C32.9-117.8,33-117.5,33-117.5z"/>
		<path class="st7" d="M35.4-119.7c-0.5,0-0.7,0.5-0.7,1.1c0,0.6,0.2,1.1,0.7,1.1c0.5,0,0.7-0.5,0.7-1.1
			C36.1-119.2,35.9-119.7,35.4-119.7z M35.4-117.6c-0.3,0-0.5-0.4-0.5-0.9c0-0.5,0.2-0.9,0.5-0.9c0.3,0,0.5,0.4,0.5,0.9
			C35.9-118,35.7-117.6,35.4-117.6z"/>
		<path class="st7" d="M36.8-117.6c0-0.1-0.1-0.2-0.2-0.2c-0.1,0-0.2,0.1-0.2,0.2c0,0.1,0.1,0.2,0.2,0.2
			C36.7-117.4,36.8-117.5,36.8-117.6z"/>
		<path class="st7" d="M38-119.7c-0.5,0-0.7,0.5-0.7,1.1c0,0.6,0.2,1.1,0.7,1.1c0.5,0,0.7-0.5,0.7-1.1
			C38.7-119.2,38.4-119.7,38-119.7z M37.9-117.6c-0.3,0-0.5-0.4-0.5-0.9c0-0.5,0.2-0.9,0.5-0.9s0.5,0.4,0.5,0.9
			C38.5-118,38.3-117.6,37.9-117.6z"/>
		<path class="st7" d="M39.7-119.7c-0.5,0-0.7,0.5-0.7,1.1c0,0.6,0.2,1.1,0.7,1.1c0.5,0,0.7-0.5,0.7-1.1
			C40.4-119.2,40.2-119.7,39.7-119.7z M39.7-117.6c-0.3,0-0.5-0.4-0.5-0.9c0-0.5,0.2-0.9,0.5-0.9s0.5,0.4,0.5,0.9
			C40.2-118,40-117.6,39.7-117.6z"/>
		<text transform="matrix(0.48 0 0 0.48 -25.8142 -111.3508)" class="st2 st5 st6">U</text>
		<text transform="matrix(0.48 0 0 0.48 -23.5816 -111.3508)" class="st2 st5 st6">n</text>
		<text transform="matrix(0.48 0 0 0.48 -21.9138 -111.3508)" class="st2 st5 st6">i</text>
		<text transform="matrix(0.48 0 0 0.48 -21.2196 -111.3508)" class="st2 st5 st6">ted Kingdom</text>
		<path class="st7" d="M34.7-111.4c0.2,0.1,0.4,0.1,0.5,0.1c0.5,0,0.8-0.3,0.8-0.6c0-0.3-0.2-0.5-0.7-0.5c0.4-0.1,0.6-0.3,0.6-0.6
			c0-0.3-0.3-0.5-0.7-0.5c-0.2,0-0.5,0.1-0.7,0.2l0.1,0.2c0.2-0.1,0.4-0.2,0.6-0.2c0.3,0,0.4,0.1,0.4,0.3c0,0.2-0.2,0.4-0.8,0.5
			l0,0.2c0.5,0,0.8,0.2,0.8,0.4c0,0.2-0.2,0.4-0.6,0.4c-0.2,0-0.4,0-0.6-0.1C34.6-111.6,34.7-111.4,34.7-111.4z"/>
		<path class="st7" d="M36.8-111.5c0-0.1-0.1-0.2-0.2-0.2c-0.1,0-0.2,0.1-0.2,0.2c0,0.1,0.1,0.2,0.2,0.2
			C36.7-111.3,36.8-111.4,36.8-111.5z"/>
		<path class="st7" d="M38-113.5c-0.5,0-0.7,0.5-0.7,1.1c0,0.6,0.2,1.1,0.7,1.1c0.5,0,0.7-0.5,0.7-1.1C38.7-113,38.4-113.5,38-113.5
			z M37.9-111.5c-0.3,0-0.5-0.4-0.5-0.9c0-0.5,0.2-0.9,0.5-0.9s0.5,0.4,0.5,0.9C38.5-111.9,38.3-111.5,37.9-111.5z"/>
		<path class="st7" d="M39.7-113.5c-0.5,0-0.7,0.5-0.7,1.1c0,0.6,0.2,1.1,0.7,1.1c0.5,0,0.7-0.5,0.7-1.1
			C40.4-113,40.2-113.5,39.7-113.5z M39.7-111.5c-0.3,0-0.5-0.4-0.5-0.9c0-0.5,0.2-0.9,0.5-0.9s0.5,0.4,0.5,0.9
			C40.2-111.9,40-111.5,39.7-111.5z"/>
		<text transform="matrix(0.48 0 0 0.48 -25.8142 -105.2082)" class="st2 st5 st6">U</text>
		<text transform="matrix(0.48 0 0 0.48 -23.5816 -105.2082)" class="st2 st5 st6">r</text>
		<text transform="matrix(0.48 0 0 0.48 -22.571 -105.2082)" class="st2 st5 st6">b</text>
		<text transform="matrix(0.48 0 0 0.48 -20.9003 -105.2082)" class="st2 st5 st6">an Climate Change R</text>
		<text transform="matrix(0.48 0 0 0.48 5.9192 -105.2082)" class="st2 st5 st6">e</text>
		<text transform="matrix(0.48 0 0 0.48 7.4549 -105.2082)" class="st2 st5 st6">s</text>
		<text transform="matrix(0.48 0 0 0.48 8.7017 -105.2082)" class="st2 st5 st6">ilience</text>
		<text transform="matrix(0.48 0 0 0.48 -25.8142 -101.5225)" class="st2 st5 st6">T</text>
		<text transform="matrix(0.48 0 0 0.48 -24.1741 -101.5225)" class="st2 st5 st6">r</text>
		<text transform="matrix(0.48 0 0 0.48 -23.1639 -101.5225)" class="st2 st5 st6">u</text>
		<text transform="matrix(0.48 0 0 0.48 -21.4928 -101.5225)" class="st2 st5 st6">s</text>
		<text transform="matrix(0.48 0 0 0.48 -20.246 -101.5225)" class="st2 st5 st6">t F</text>
		<text transform="matrix(0.48 0 0 0.48 -17.0917 -101.5225)" class="st2 st5 st6">u</text>
		<text transform="matrix(0.48 0 0 0.48 -15.4206 -101.5225)" class="st2 st5 st6">nd</text>
		<path class="st7" d="M35-105.4c0.2-0.2,0.4-0.4,0.6-0.5c0.3-0.3,0.5-0.5,0.5-0.8c0-0.4-0.3-0.6-0.6-0.6c-0.2,0-0.5,0.1-0.7,0.3
			l0.1,0.2c0.2-0.2,0.4-0.3,0.6-0.3c0.3,0,0.4,0.2,0.4,0.4c0,0.3-0.3,0.7-1.1,1.4l0,0.2c0.2,0,0.4,0,0.7,0c0.3,0,0.5,0,0.7,0
			c0-0.1,0-0.1,0-0.2C35.7-105.4,35.3-105.4,35-105.4z"/>
		<path class="st7" d="M36.8-105.3c0-0.1-0.1-0.2-0.2-0.2c-0.1,0-0.2,0.1-0.2,0.2c0,0.1,0.1,0.2,0.2,0.2
			C36.7-105.2,36.8-105.2,36.8-105.3z"/>
		<path class="st7" d="M38-107.4c-0.5,0-0.7,0.5-0.7,1.1c0,0.6,0.2,1.1,0.7,1.1c0.5,0,0.7-0.5,0.7-1.1
			C38.7-106.9,38.4-107.4,38-107.4z M37.9-105.3c-0.3,0-0.5-0.4-0.5-0.9c0-0.5,0.2-0.9,0.5-0.9s0.5,0.4,0.5,0.9
			C38.5-105.8,38.3-105.3,37.9-105.3z"/>
		<path class="st7" d="M39-105.2c0.2,0.1,0.3,0.1,0.5,0.1c0.5,0,0.8-0.3,0.8-0.7c0-0.4-0.3-0.6-0.9-0.6c-0.1,0-0.1,0-0.2,0l0-0.7
			h0.4c0.2,0,0.4,0,0.6,0c0-0.1,0-0.2,0-0.2c-0.2,0-0.3,0-0.6,0c-0.3,0-0.4,0-0.6,0l0,0c0,0.1,0,0.2,0,0.3l0,0.3c0,0.1,0,0.2,0,0.3
			l0,0c0.1,0,0.2,0,0.3,0c0.5,0,0.7,0.2,0.7,0.4c0,0.2-0.2,0.4-0.6,0.4c-0.2,0-0.4,0-0.6-0.1C39-105.5,39-105.2,39-105.2z"/>
		<text transform="matrix(0.48 0 0 0.48 -25.8142 -95.3795)" class="st2 st5 st6">Clean Ener</text>
		<text transform="matrix(0.48 0 0 0.48 -11.8673 -95.3795)" class="st2 st5 st6">g</text>
		<text transform="matrix(0.48 0 0 0.48 -10.4298 -95.3795)" class="st2 st5 st6">y F</text>
		<text transform="matrix(0.48 0 0 0.48 -6.9069 -95.3795)" class="st2 st5 st6">u</text>
		<text transform="matrix(0.48 0 0 0.48 -5.2361 -95.3795)" class="st2 st5 st6">n</text>
		<text transform="matrix(0.48 0 0 0.48 -3.5683 -95.3795)" class="st2 st5 st6">d</text>
		<path class="st7" d="M35-95.6c0.2-0.2,0.4-0.4,0.6-0.5c0.3-0.3,0.5-0.5,0.5-0.8c0-0.4-0.3-0.6-0.6-0.6c-0.2,0-0.5,0.1-0.7,0.3
			l0.1,0.2c0.2-0.2,0.4-0.3,0.6-0.3c0.3,0,0.4,0.2,0.4,0.4c0,0.3-0.3,0.7-1.1,1.4l0,0.2c0.2,0,0.4,0,0.7,0c0.3,0,0.5,0,0.7,0
			c0-0.1,0-0.1,0-0.2C35.7-95.6,35.3-95.6,35-95.6z"/>
		<path class="st7" d="M36.8-95.5c0-0.1-0.1-0.2-0.2-0.2c-0.1,0-0.2,0.1-0.2,0.2c0,0.1,0.1,0.2,0.2,0.2
			C36.7-95.3,36.8-95.4,36.8-95.5z"/>
		<path class="st7" d="M38-97.5c-0.5,0-0.7,0.5-0.7,1.1c0,0.6,0.2,1.1,0.7,1.1c0.5,0,0.7-0.5,0.7-1.1C38.7-97.1,38.4-97.5,38-97.5z
			 M37.9-95.5c-0.3,0-0.5-0.4-0.5-0.9c0-0.5,0.2-0.9,0.5-0.9s0.5,0.4,0.5,0.9C38.5-95.9,38.3-95.5,37.9-95.5z"/>
		<path class="st7" d="M39.7-97.5c-0.5,0-0.7,0.5-0.7,1.1c0,0.6,0.2,1.1,0.7,1.1c0.5,0,0.7-0.5,0.7-1.1
			C40.4-97.1,40.2-97.5,39.7-97.5z M39.7-95.5c-0.3,0-0.5-0.4-0.5-0.9c0-0.5,0.2-0.9,0.5-0.9s0.5,0.4,0.5,0.9
			C40.2-95.9,40-95.5,39.7-95.5z"/>
		<text transform="matrix(0.48 0 0 0.48 -25.8142 -89.237)" class="st2 st5 st6">H</text>
		<text transform="matrix(0.48 0 0 0.48 -23.4892 -89.237)" class="st2 st5 st6">i</text>
		<text transform="matrix(0.48 0 0 0.48 -22.7953 -89.237)" class="st2 st5 st6">g</text>
		<text transform="matrix(0.48 0 0 0.48 -21.3578 -89.237)" class="st2 st5 st6">h Lev</text>
		<text transform="matrix(0.48 0 0 0.48 -14.4963 -89.237)" class="st2 st5 st6">e</text>
		<text transform="matrix(0.48 0 0 0.48 -12.9606 -89.237)" class="st2 st5 st6">l</text>
		<text transform="matrix(0.48 0 0 0.48 -12.2664 -89.237)" class="st2 st5 st6"> T</text>
		<text transform="matrix(0.48 0 0 0.48 -10.0213 -89.237)" class="st2 st5 st6">e</text>
		<text transform="matrix(0.48 0 0 0.48 -8.4855 -89.237)" class="st2 st5 st6">c</text>
		<text transform="matrix(0.48 0 0 0.48 -7.0145 -89.237)" class="st2 st5 st6">hnology F</text>
		<text transform="matrix(0.48 0 0 0.48 5.2958 -89.237)" class="st2 st5 st6">u</text>
		<text transform="matrix(0.48 0 0 0.48 6.9664 -89.237)" class="st2 st5 st6">n</text>
		<text transform="matrix(0.48 0 0 0.48 8.6342 -89.237)" class="st2 st5 st6">d</text>
		<path class="st7" d="M36.1-89.4c-0.1,0-0.3,0-0.4,0h-0.2V-91c0-0.1,0-0.3,0-0.4l0,0l-0.2,0.1c-0.1,0-0.4,0.1-0.6,0.2l0,0.2
			l0.5-0.2v1.3c0,0.1,0,0.3,0,0.4h-0.2c-0.1,0-0.2,0-0.4,0c0,0.1,0,0.1,0,0.2c0.2,0,0.3,0,0.5,0h0.3c0.2,0,0.4,0,0.6,0
			C36.1-89.3,36.1-89.4,36.1-89.4L36.1-89.4z"/>
		<path class="st7" d="M36.8-89.4c0-0.1-0.1-0.2-0.2-0.2c-0.1,0-0.2,0.1-0.2,0.2c0,0.1,0.1,0.2,0.2,0.2
			C36.7-89.2,36.8-89.3,36.8-89.4z"/>
		<path class="st7" d="M38-91.4c-0.5,0-0.7,0.5-0.7,1.1c0,0.6,0.2,1.1,0.7,1.1c0.5,0,0.7-0.5,0.7-1.1C38.7-90.9,38.4-91.4,38-91.4z
			 M37.9-89.4c-0.3,0-0.5-0.4-0.5-0.9c0-0.5,0.2-0.9,0.5-0.9s0.5,0.4,0.5,0.9C38.5-89.8,38.3-89.4,37.9-89.4z"/>
		<path class="st7" d="M39.7-91.4c-0.5,0-0.7,0.5-0.7,1.1c0,0.6,0.2,1.1,0.7,1.1c0.5,0,0.7-0.5,0.7-1.1
			C40.4-90.9,40.2-91.4,39.7-91.4z M39.7-89.4c-0.3,0-0.5-0.4-0.5-0.9c0-0.5,0.2-0.9,0.5-0.9s0.5,0.4,0.5,0.9
			C40.2-89.8,40-89.4,39.7-89.4z"/>
		<path class="st7" d="M-16.7-84.6c0.1-0.2,0.2-0.6,0.2-0.8l-0.3,0c0,0.2,0,0.6-0.1,0.8L-16.7-84.6z"/>
		<text transform="matrix(0.48 0 0 0.48 -25.8142 -83.0945)" class="st2 st5 st6">P</text>
		<text transform="matrix(0.48 0 0 0.48 -24.1774 -83.0945)" class="st2 st5 st6">e</text>
		<text transform="matrix(0.48 0 0 0.48 -22.6417 -83.0945)" class="st2 st5 st6">o</text>
		<text transform="matrix(0.48 0 0 0.48 -20.9739 -83.0945)" class="st2 st5 st6">ple</text>
		<text transform="matrix(0.48 0 0 0.48 -16.2133 -83.0945)" class="st2 st5 st6">s</text>
		<text transform="matrix(0.48 0 0 0.48 -14.9664 -83.0945)" class="st2 st5 st6"> R</text>
		<text transform="matrix(0.48 0 0 0.48 -12.4694 -83.0945)" class="st2 st5 st6">e</text>
		<text transform="matrix(0.48 0 0 0.48 -10.9335 -83.0945)" class="st2 st5 st6">p</text>
		<text transform="matrix(0.48 0 0 0.48 -9.2627 -83.0945)" class="st2 st5 st6">ublic of China</text>
		<path class="st7" d="M35.4-85.3c-0.5,0-0.7,0.5-0.7,1.1c0,0.6,0.2,1.1,0.7,1.1c0.5,0,0.7-0.5,0.7-1.1
			C36.1-84.8,35.9-85.3,35.4-85.3L35.4-85.3z M35.4-83.2c-0.3,0-0.5-0.4-0.5-0.9c0-0.5,0.2-0.9,0.5-0.9c0.3,0,0.5,0.4,0.5,0.9
			C35.9-83.7,35.7-83.2,35.4-83.2z"/>
		<path class="st7" d="M36.8-83.2c0-0.1-0.1-0.2-0.2-0.2c-0.1,0-0.2,0.1-0.2,0.2c0,0.1,0.1,0.2,0.2,0.2C36.7-83,36.8-83.1,36.8-83.2
			L36.8-83.2z"/>
		<path class="st7" d="M37.2-85.2c0,0.1,0,0.2,0,0.2c0.2,0,0.4,0,0.7,0c0.2,0,0.4,0,0.5,0l-0.7,1.3c-0.1,0.2-0.2,0.4-0.3,0.5l0.2,0
			c0-0.1,0.1-0.3,0.2-0.4l0.7-1.3c0.1-0.1,0.1-0.3,0.2-0.3l-0.1-0.1c-0.2,0-0.5,0-0.7,0C37.6-85.2,37.5-85.2,37.2-85.2z"/>
		<path class="st7" d="M39-83.1c0.2,0.1,0.3,0.1,0.5,0.1c0.5,0,0.8-0.3,0.8-0.7c0-0.4-0.3-0.6-0.9-0.6c-0.1,0-0.1,0-0.2,0l0-0.7h0.4
			c0.2,0,0.4,0,0.6,0c0-0.1,0-0.2,0-0.2c-0.2,0-0.3,0-0.6,0c-0.3,0-0.4,0-0.6,0l0,0c0,0.1,0,0.2,0,0.3l0,0.3c0,0.1,0,0.2,0,0.3l0,0
			c0.1,0,0.2,0,0.3,0c0.5,0,0.7,0.2,0.7,0.4c0,0.2-0.2,0.4-0.6,0.4c-0.2,0-0.4,0-0.6-0.1L39-83.1L39-83.1z"/>
		<text transform="matrix(0.48 0 0 0.48 -25.8142 -76.9515)" class="st2 st5 st6">R</text>
		<text transform="matrix(0.48 0 0 0.48 -23.9531 -76.9515)" class="st2 st5 st6">e</text>
		<text transform="matrix(0.48 0 0 0.48 -22.4174 -76.9515)" class="st2 st5 st6">p</text>
		<text transform="matrix(0.48 0 0 0.48 -20.7466 -76.9515)" class="st2 st5 st6">ublic of K</text>
		<text transform="matrix(0.48 0 0 0.48 -8.7866 -76.9515)" class="st2 st5 st6">o</text>
		<text transform="matrix(0.48 0 0 0.48 -7.1188 -76.9515)" class="st2 st5 st6">r</text>
		<text transform="matrix(0.48 0 0 0.48 -6.1452 -76.9515)" class="st2 st5 st6">e</text>
		<text transform="matrix(0.48 0 0 0.48 -4.6094 -76.9515)" class="st2 st5 st6">a</text>
		<path class="st7" d="M35.4-79.1c-0.5,0-0.7,0.5-0.7,1.1c0,0.6,0.2,1.1,0.7,1.1c0.5,0,0.7-0.5,0.7-1.1
			C36.1-78.6,35.9-79.1,35.4-79.1L35.4-79.1z M35.4-77.1c-0.3,0-0.5-0.4-0.5-0.9c0-0.5,0.2-0.9,0.5-0.9c0.3,0,0.5,0.4,0.5,0.9
			C35.9-77.5,35.7-77.1,35.4-77.1z"/>
		<path class="st7" d="M36.8-77.1c0-0.1-0.1-0.2-0.2-0.2c-0.1,0-0.2,0.1-0.2,0.2c0,0.1,0.1,0.2,0.2,0.2C36.7-76.9,36.8-77,36.8-77.1
			L36.8-77.1z"/>
		<path class="st7" d="M37.3-77c0.2,0.1,0.3,0.1,0.5,0.1c0.5,0,0.8-0.3,0.8-0.7c0-0.4-0.3-0.6-0.9-0.6c-0.1,0-0.1,0-0.2,0l0-0.7H38
			c0.2,0,0.4,0,0.6,0c0-0.1,0-0.2,0-0.2c-0.2,0-0.3,0-0.6,0c-0.3,0-0.4,0-0.6,0l0,0c0,0.1,0,0.2,0,0.3l0,0.3c0,0.1,0,0.2,0,0.3l0,0
			c0.1,0,0.2,0,0.3,0c0.5,0,0.7,0.2,0.7,0.4c0,0.2-0.2,0.4-0.6,0.4c-0.2,0-0.4,0-0.6-0.1L37.3-77L37.3-77z"/>
		<path class="st7" d="M39.7-79.1c-0.5,0-0.7,0.5-0.7,1.1c0,0.6,0.2,1.1,0.7,1.1c0.5,0,0.7-0.5,0.7-1.1
			C40.4-78.6,40.2-79.1,39.7-79.1L39.7-79.1z M39.7-77.1c-0.3,0-0.5-0.4-0.5-0.9c0-0.5,0.2-0.9,0.5-0.9s0.5,0.4,0.5,0.9
			C40.2-77.5,40-77.1,39.7-77.1z"/>
		<text transform="matrix(0.48 0 0 0.48 -25.8142 -70.8085)" class="st2 st5 st6">Norwa</text>
		<text transform="matrix(0.48 0 0 0.48 -17.1991 -70.8085)" class="st2 st5 st6">y</text>
		<path class="st7" d="M35.4-73c-0.5,0-0.7,0.5-0.7,1.1c0,0.6,0.2,1.1,0.7,1.1c0.5,0,0.7-0.5,0.7-1.1C36.1-72.5,35.9-73,35.4-73
			L35.4-73z M35.4-70.9c-0.3,0-0.5-0.4-0.5-0.9c0-0.5,0.2-0.9,0.5-0.9c0.3,0,0.5,0.4,0.5,0.9C35.9-71.4,35.7-70.9,35.4-70.9z"/>
		<path class="st7" d="M36.8-70.9c0-0.1-0.1-0.2-0.2-0.2c-0.1,0-0.2,0.1-0.2,0.2c0,0.1,0.1,0.2,0.2,0.2
			C36.7-70.8,36.8-70.8,36.8-70.9L36.8-70.9z"/>
		<path class="st7" d="M37.3-70.9c0.2,0.1,0.4,0.1,0.5,0.1c0.5,0,0.8-0.3,0.8-0.6c0-0.3-0.2-0.5-0.7-0.5c0.4-0.1,0.6-0.3,0.6-0.6
			c0-0.3-0.3-0.5-0.7-0.5c-0.2,0-0.5,0.1-0.7,0.2l0.1,0.2c0.2-0.1,0.4-0.2,0.6-0.2c0.3,0,0.4,0.1,0.4,0.3c0,0.2-0.2,0.4-0.8,0.5
			l0,0.2c0.5,0,0.8,0.2,0.8,0.4c0,0.2-0.2,0.4-0.6,0.4c-0.2,0-0.4,0-0.6-0.1L37.3-70.9z"/>
		<path class="st7" d="M39.1-70.9l0,0.2c0.8-0.1,1.2-0.7,1.2-1.4c0-0.5-0.3-0.8-0.7-0.8c-0.4,0-0.7,0.3-0.7,0.7
			c0,0.4,0.3,0.7,0.7,0.7c0.2,0,0.4-0.1,0.6-0.3C40.1-71.4,39.7-71,39.1-70.9L39.1-70.9z M39.2-72.2c0-0.3,0.2-0.5,0.5-0.5
			c0.3,0,0.5,0.2,0.5,0.5c0,0.3-0.2,0.5-0.5,0.5C39.4-71.8,39.2-72,39.2-72.2z"/>
		<text transform="matrix(0.48 0 0 0.48 -25.8142 -64.666)" class="st2 st5 st6">W</text>
		<text transform="matrix(0.48 0 0 0.48 -22.9333 -64.666)" class="st2 st5 st6">a</text>
		<text transform="matrix(0.48 0 0 0.48 -21.4652 -64.666)" class="st2 st5 st6">t</text>
		<text transform="matrix(0.48 0 0 0.48 -20.4271 -64.666)" class="st2 st5 st6">er F</text>
		<text transform="matrix(0.48 0 0 0.48 -15.7094 -64.666)" class="st2 st5 st6">i</text>
		<text transform="matrix(0.48 0 0 0.48 -15.0154 -64.666)" class="st2 st5 st6">n</text>
		<text transform="matrix(0.48 0 0 0.48 -13.3476 -64.666)" class="st2 st5 st6">ancing P</text>
		<text transform="matrix(0.48 0 0 0.48 -2.6716 -64.666)" class="st2 st5 st6">a</text>
		<text transform="matrix(0.48 0 0 0.48 -1.1973 -64.666)" class="st2 st5 st6">r</text>
		<text transform="matrix(0.48 0 0 0.48 -0.1867 -64.666)" class="st2 st5 st6">tnership F</text>
		<text transform="matrix(0.48 0 0 0.48 12.4185 -64.666)" class="st2 st5 st6">a</text>
		<text transform="matrix(0.48 0 0 0.48 13.8922 -64.666)" class="st2 st5 st6">c</text>
		<text transform="matrix(0.48 0 0 0.48 15.3636 -64.666)" class="st2 st5 st6">ility</text>
		<text transform="matrix(0.48 0 0 0.48 -25.8142 -60.9807)" class="st2 st5 st6">(</text>
		<text transform="matrix(0.48 0 0 0.48 -24.6442 -60.9807)" class="st2 st5 st6">M</text>
		<text transform="matrix(0.48 0 0 0.48 -21.9321 -60.9807)" class="st2 st5 st6">u</text>
		<text transform="matrix(0.48 0 0 0.48 -20.2614 -60.9807)" class="st2 st5 st6">l</text>
		<text transform="matrix(0.48 0 0 0.48 -19.5672 -60.9807)" class="st2 st5 st6">ti-Donor T</text>
		<text transform="matrix(0.48 0 0 0.48 -6.0224 -60.9807)" class="st2 st5 st6">r</text>
		<text transform="matrix(0.48 0 0 0.48 -5.012 -60.9807)" class="st2 st5 st6">u</text>
		<text transform="matrix(0.48 0 0 0.48 -3.3409 -60.9807)" class="st2 st5 st6">st F</text>
		<text transform="matrix(0.48 0 0 0.48 1.0602 -60.9807)" class="st2 st5 st6">u</text>
		<text transform="matrix(0.48 0 0 0.48 2.731 -60.9807)" class="st2 st5 st6">n</text>
		<text transform="matrix(0.48 0 0 0.48 4.3989 -60.9807)" class="st2 st5 st6">d</text>
		<text transform="matrix(0.48 0 0 0.48 6.1311 -60.9807)" class="st2 st5 st6">)</text>
		<path class="st7" d="M35.4-66.8c-0.5,0-0.7,0.5-0.7,1.1c0,0.6,0.2,1.1,0.7,1.1c0.5,0,0.7-0.5,0.7-1.1
			C36.1-66.3,35.9-66.8,35.4-66.8L35.4-66.8z M35.4-64.8c-0.3,0-0.5-0.4-0.5-0.9c0-0.5,0.2-0.9,0.5-0.9c0.3,0,0.5,0.4,0.5,0.9
			C35.9-65.2,35.7-64.8,35.4-64.8z"/>
		<path class="st7" d="M36.8-64.8c0-0.1-0.1-0.2-0.2-0.2c-0.1,0-0.2,0.1-0.2,0.2c0,0.1,0.1,0.2,0.2,0.2
			C36.7-64.6,36.8-64.7,36.8-64.8L36.8-64.8z"/>
		<path class="st7" d="M37.5-64.9c0.2-0.2,0.4-0.4,0.6-0.5c0.3-0.3,0.5-0.6,0.5-0.8c0-0.4-0.3-0.6-0.6-0.6c-0.2,0-0.5,0.1-0.7,0.3
			l0.1,0.2c0.2-0.2,0.4-0.3,0.6-0.3c0.3,0,0.4,0.2,0.4,0.4c0,0.3-0.3,0.7-1.1,1.4l0,0.2c0.2,0,0.4,0,0.7,0c0.3,0,0.5,0,0.7,0
			c0-0.1,0-0.1,0-0.2C38.3-64.9,37.9-64.9,37.5-64.9z"/>
		<path class="st7" d="M39.7-66.8c-0.5,0-0.7,0.5-0.7,1.1c0,0.6,0.2,1.1,0.7,1.1c0.5,0,0.7-0.5,0.7-1.1
			C40.4-66.3,40.2-66.8,39.7-66.8L39.7-66.8z M39.7-64.8c-0.3,0-0.5-0.4-0.5-0.9c0-0.5,0.2-0.9,0.5-0.9s0.5,0.4,0.5,0.9
			C40.2-65.2,40-64.8,39.7-64.8z"/>
		<text transform="matrix(0.48 0 0 0.48 -29.5 -54.8133)" class="st8 st6">T</text>
		<text transform="matrix(0.48 0 0 0.48 -27.7586 -54.8133)" class="st8 st6">o</text>
		<text transform="matrix(0.48 0 0 0.48 -26.0385 -54.8133)" class="st8 st6">t</text>
		<text transform="matrix(0.48 0 0 0.48 -24.8439 -54.8133)" class="st8 st6">al</text>
		<path class="st9" d="M30.1-55.2c-0.1,0-0.3,0-0.4,0h-0.1v-1.3c0-0.1,0-0.3,0-0.4l-0.2,0l-0.2,0.1c-0.1,0-0.4,0.1-0.6,0.2l0.1,0.4
			l0.4-0.1v1c0,0.1,0,0.1,0,0.2H29c-0.1,0-0.3,0-0.4,0c0,0.1,0,0.3,0,0.4c0.2,0,0.3,0,0.4,0h0.4c0.2,0,0.4,0,0.6,0
			C30.1-54.9,30.1-55.2,30.1-55.2L30.1-55.2z"/>
		<path class="st9" d="M30.4-54.2c0.4-0.2,0.6-0.5,0.6-0.8c0-0.2-0.1-0.4-0.3-0.4c-0.1,0-0.3,0.1-0.3,0.3l0.1,0
			c0.1,0.1,0.2,0.1,0.2,0.2c0,0.1-0.1,0.2-0.3,0.4l0,0L30.4-54.2L30.4-54.2z"/>
		<path class="st9" d="M32.7-55.2c-0.1,0-0.3,0-0.4,0h-0.1v-1.3c0-0.1,0-0.3,0-0.4l-0.2,0l-0.2,0.1c-0.1,0-0.4,0.1-0.6,0.2l0.1,0.4
			l0.4-0.1v1c0,0.1,0,0.1,0,0.2h-0.1c-0.1,0-0.3,0-0.4,0c0,0.1,0,0.3,0,0.4c0.2,0,0.3,0,0.4,0h0.4c0.2,0,0.4,0,0.6,0
			C32.7-54.9,32.7-55.2,32.7-55.2L32.7-55.2z"/>
		<path class="st9" d="M33.5-55.2c0.1-0.1,0.3-0.3,0.4-0.4c0.2-0.3,0.4-0.5,0.4-0.8c0-0.4-0.3-0.6-0.7-0.6c-0.3,0-0.5,0.1-0.7,0.2
			l0.1,0.4c0.2-0.1,0.4-0.2,0.5-0.2c0.2,0,0.3,0.1,0.3,0.3c0,0.3-0.3,0.6-1,1.1l0,0.3c0.2,0,0.5,0,0.7,0c0.3,0,0.5,0,0.7,0
			c0-0.2,0-0.3,0-0.4C34.1-55.2,33.8-55.2,33.5-55.2L33.5-55.2z"/>
		<path class="st9" d="M35.2-55.2c0.1-0.1,0.3-0.3,0.4-0.4c0.2-0.3,0.4-0.5,0.4-0.8c0-0.4-0.3-0.6-0.7-0.6c-0.3,0-0.5,0.1-0.7,0.2
			l0.1,0.4c0.2-0.1,0.4-0.2,0.5-0.2c0.2,0,0.3,0.1,0.3,0.3c0,0.3-0.3,0.6-1,1.1l0,0.3c0.2,0,0.5,0,0.7,0c0.3,0,0.5,0,0.7,0
			c0-0.2,0-0.3,0-0.4C35.9-55.2,35.5-55.2,35.2-55.2L35.2-55.2z"/>
		<path class="st9" d="M36.9-55c0-0.2-0.1-0.3-0.3-0.3c-0.2,0-0.3,0.1-0.3,0.3c0,0.1,0.1,0.3,0.3,0.3C36.8-54.8,36.9-54.9,36.9-55
			L36.9-55z"/>
		<path class="st9" d="M38-57c-0.5,0-0.8,0.5-0.8,1.1c0,0.6,0.2,1.1,0.7,1.1c0.5,0,0.8-0.5,0.8-1.1C38.7-56.5,38.5-57,38-57L38-57z
			 M37.9-55.1c-0.2,0-0.3-0.2-0.3-0.7c0-0.4,0.1-0.7,0.3-0.7c0.2,0,0.3,0.2,0.3,0.7C38.3-55.4,38.2-55.1,37.9-55.1L37.9-55.1z"/>
		<path class="st9" d="M40.3-56.6L40.2-57c-0.8,0.1-1.3,0.6-1.3,1.3c0,0.6,0.3,0.9,0.8,0.9c0.5,0,0.8-0.3,0.8-0.8
			c0-0.4-0.3-0.7-0.6-0.7c-0.2,0-0.3,0.1-0.4,0.2C39.5-56.3,39.8-56.5,40.3-56.6L40.3-56.6z M40-55.5c0,0.2-0.1,0.4-0.3,0.4
			c-0.2,0-0.3-0.1-0.3-0.4c0-0.2,0.1-0.4,0.3-0.4C39.9-55.9,40-55.7,40-55.5L40-55.5z"/>
		<path class="st10" d="M-31.3-158.4h73.7 M-31.3-152.3h73.7 M-31.3-146.1h73.7 M-31.3-140h73.7 M-31.3-133.8h73.7 M-31.3-127.7
			h73.7 M-31.3-121.5h73.7 M-31.3-115.4h73.7 M-31.3-109.3h73.7 M-31.3-99.4h73.7 M-31.3-93.3h73.7 M-31.3-87.1h73.7 M-31.3-81h73.7
			 M-31.3-74.9h73.7 M-31.3-68.7h73.7 M-31.3-58.9h73.7 M-31.3-52.7h73.7"/>
	</g>
	<path class="st11" d="M73.3,0c19,0,36.7,9.5,47.3,25.2c10.6,15.8,12.6,35.8,5.3,53.3l-13.2-5.4c5.4-13.2,3.9-28.2-4-40
		S87.5,14.2,73.3,14.2C73.3,14.2,73.3,0,73.3,0z"/>
	<path class="st12" d="M73.2,0C73.2,0,73.2,0,73.2,0l0.1,14.2c0,0,0,0,0,0C73.2,14.2,73.2,0,73.2,0z"/>
	<path class="st13" d="M73.1,0c0,0,0.1,0,0.1,0l0,14.2c0,0-0.1,0-0.1,0C73.1,14.2,73.1,0,73.1,0z"/>
	<path class="st14" d="M72.9,0C73,0,73,0,73.1,0l0,14.2c0,0-0.1,0-0.1,0L72.9,0z"/>
	<path class="st15" d="M72.7,0c0.1,0,0.2,0,0.2,0L73,14.2c-0.1,0-0.1,0-0.2,0C72.8,14.2,72.7,0,72.7,0z"/>
	<path class="st16" d="M72.4,0c0.1,0,0.2,0,0.3,0l0.1,14.2c-0.1,0-0.2,0-0.2,0C72.6,14.2,72.4,0,72.4,0z"/>
	<path class="st17" d="M71.7,0c0.2,0,0.4,0,0.6,0l0.2,14.2c-0.2,0-0.3,0-0.5,0C72.1,14.2,71.7,0,71.7,0z"/>
	<path class="st18" d="M71.1,0c0.2,0,0.4,0,0.7,0l0.4,14.2c-0.2,0-0.3,0-0.5,0C71.6,14.3,71.1,0,71.1,0z"/>
	<path class="st19" d="M70.1,0.1c0.3,0,0.6,0,1,0l0.5,14.2c-0.2,0-0.5,0-0.7,0C70.9,14.3,70.1,0.1,70.1,0.1z"/>
	<path class="st20" d="M60.7,1.4c3.1-0.7,6.3-1.2,9.5-1.3l0.8,14.2c-2.4,0.1-4.8,0.5-7.1,1C63.8,15.3,60.7,1.4,60.7,1.4z"/>
	<path class="st21" d="M46.4,6.8c4.5-2.4,9.3-4.2,14.3-5.3l3.2,13.9c-3.7,0.8-7.3,2.2-10.7,4L46.4,6.8z"/>
	<path class="st22" d="M16.4,59.3c-0.9-21.8,10.7-42.2,30-52.5l6.7,12.5c-14.4,7.7-23.2,23-22.5,39.4C30.6,58.7,16.4,59.3,16.4,59.3
		z"/>
	<path class="st23" d="M57.8,111.7C34.1,105,17.4,83.9,16.4,59.3l14.2-0.6C31.4,77.1,43.9,93,61.7,98L57.8,111.7z"/>
	<path class="st24" d="M125.9,78.6c-11,26.7-40.3,41-68.1,33.1L61.7,98c20.9,5.9,42.8-4.8,51.1-24.8L125.9,78.6z"/>
</g>
</svg>
