<?xml version="1.0" encoding="utf-8"?>
<!-- Generator: Adobe Illustrator 24.1.0, SVG Export Plug-In . SVG Version: 6.00 Build 0)  -->
<svg version="1.1" id="Layer_1" xmlns:serif="http://www.serif.com/"
	 xmlns="http://www.w3.org/2000/svg" xmlns:xlink="http://www.w3.org/1999/xlink" x="0px" y="0px" viewBox="0 0 149.7 257.6"
	 style="enable-background:new 0 0 149.7 257.6;" xml:space="preserve">
<style type="text/css">
	.st0{clip-path:url(#SVGID_2_);}
	.st1{clip-path:url(#SVGID_4_);}
	.st2{fill:#1A1A1A;}
	.st3{font-family:'IdealSans-ExtraLight';}
	.st4{font-size:11.5177px;}
	.st5{font-family:'IdealSans-Light';}
	.st6{font-size:6.3987px;}
	.st7{fill-rule:evenodd;clip-rule:evenodd;fill:#1A1A1A;}
	.st8{fill-rule:evenodd;clip-rule:evenodd;}
	.st9{font-family:'IdealSans-Semibold';}
	.st10{fill:none;stroke:#1A1A1A;stroke-width:0.16;stroke-miterlimit:2.5595;}
	.st11{fill:#007DB7;}
	.st12{fill:#404040;}
	.st13{fill:#303030;}
	.st14{fill:#202020;}
	.st15{fill:#009CE4;}
	.st16{fill:#008FD1;}
</style>
<g>
	<defs>
		<rect id="SVGID_1_" x="-22.7" y="-19.4" width="192" height="511.9"/>
	</defs>
	<clipPath id="SVGID_2_">
		<use xlink:href="#SVGID_1_"  style="overflow:visible;"/>
	</clipPath>
	<g class="st0">
		<g>
			<defs>
				<rect id="SVGID_3_" x="-22.7" y="-19.4" width="192" height="511.9"/>
			</defs>
			<clipPath id="SVGID_4_">
				<use xlink:href="#SVGID_3_"  style="overflow:visible;"/>
			</clipPath>
			<g class="st1">
				<g id="Layer-1" serif:id="Layer 1">
				</g>
			</g>
		</g>
	</g>
</g>
<g id="Layer-11" serif:id="Layer 1">
	<g transform="matrix(2.08333,0,0,2.08333,61.4583,478.168)">
		<text transform="matrix(0.48 0 0 0.48 -4.2855 -162.5543)" class="st2 st3 st4">B</text>
		<text transform="matrix(0.48 0 0 0.48 -1.0844 -162.5543)" class="st2 st3 st4">y</text>
		<text transform="matrix(0.48 0 0 0.48 1.3923 -162.5543)" class="st2 st3 st4"> </text>
		<text transform="matrix(0.48 0 0 0.48 2.4871 -162.5543)" class="st2 st3 st4">DMC</text>
		<text transform="matrix(0.48 0 0 0.48 -29.5 -154.3502)" class="st2 st5 st6">India</text>
		<path class="st7" d="M31.3-154.4c0.2,0.1,0.3,0.1,0.5,0.1c0.5,0,0.8-0.3,0.8-0.7c0-0.4-0.3-0.6-0.9-0.6c-0.1,0-0.1,0-0.2,0l0-0.7
			H32c0.2,0,0.4,0,0.6,0c0-0.1,0-0.2,0-0.2c-0.2,0-0.3,0-0.6,0c-0.3,0-0.4,0-0.6,0l0,0c0,0.1,0,0.2,0,0.3l0,0.3c0,0.1,0,0.2,0,0.3
			l0,0c0.1,0,0.2,0,0.3,0c0.5,0,0.7,0.2,0.7,0.4c0,0.2-0.2,0.4-0.6,0.4c-0.2,0-0.4,0-0.6-0.1C31.2-154.6,31.3-154.4,31.3-154.4z"/>
		<path class="st7" d="M33-154.4c0.2,0.1,0.4,0.1,0.5,0.1c0.5,0,0.8-0.3,0.8-0.6c0-0.3-0.2-0.5-0.7-0.5c0.4-0.1,0.6-0.3,0.6-0.6
			c0-0.3-0.3-0.5-0.7-0.5c-0.2,0-0.5,0.1-0.7,0.2l0.1,0.2c0.2-0.1,0.4-0.2,0.6-0.2c0.3,0,0.4,0.1,0.4,0.3c0,0.2-0.2,0.4-0.8,0.5
			l0,0.2c0.5,0,0.8,0.2,0.8,0.4c0,0.2-0.2,0.4-0.6,0.4c-0.2,0-0.4,0-0.6-0.1L33-154.4z"/>
		<path class="st7" d="M34.6-156.5c0,0.1,0,0.2,0,0.2c0.2,0,0.4,0,0.7,0c0.2,0,0.4,0,0.5,0l-0.7,1.3c-0.1,0.2-0.2,0.4-0.3,0.5l0.2,0
			c0-0.1,0.1-0.3,0.2-0.4l0.7-1.3c0.1-0.1,0.1-0.3,0.2-0.3l-0.1-0.1c-0.2,0-0.5,0-0.7,0C35.1-156.4,34.9-156.5,34.6-156.5z"/>
		<path class="st7" d="M36.8-154.5c0-0.1-0.1-0.2-0.2-0.2c-0.1,0-0.2,0.1-0.2,0.2c0,0.1,0.1,0.2,0.2,0.2
			C36.7-154.3,36.8-154.4,36.8-154.5z"/>
		<path class="st7" d="M37.4-154.5l0,0.2c0.8-0.1,1.2-0.7,1.2-1.4c0-0.5-0.3-0.8-0.7-0.8c-0.4,0-0.7,0.3-0.7,0.7
			c0,0.4,0.3,0.7,0.7,0.7c0.2,0,0.4-0.1,0.6-0.3C38.3-154.9,38-154.6,37.4-154.5z M37.4-155.8c0-0.3,0.2-0.5,0.5-0.5
			c0.3,0,0.5,0.2,0.5,0.5c0,0.3-0.2,0.5-0.5,0.5C37.6-155.3,37.4-155.5,37.4-155.8z"/>
		<path class="st7" d="M39.1-154.5l0,0.2c0.8-0.1,1.2-0.7,1.2-1.4c0-0.5-0.3-0.8-0.7-0.8c-0.4,0-0.7,0.3-0.7,0.7
			c0,0.4,0.3,0.7,0.7,0.7c0.2,0,0.4-0.1,0.6-0.3C40.1-154.9,39.7-154.6,39.1-154.5z M39.2-155.8c0-0.3,0.2-0.5,0.5-0.5
			c0.3,0,0.5,0.2,0.5,0.5c0,0.3-0.2,0.5-0.5,0.5C39.4-155.3,39.2-155.5,39.2-155.8z"/>
		<text transform="matrix(0.48 0 0 0.48 -29.5 -148.2072)" class="st2 st5 st6">Sri Lanka</text>
		<path class="st7" d="M31.2-148.3c0.2,0.1,0.4,0.1,0.5,0.1c0.5,0,0.8-0.3,0.8-0.6c0-0.3-0.2-0.5-0.7-0.5c0.4-0.1,0.6-0.3,0.6-0.6
			c0-0.3-0.3-0.5-0.7-0.5c-0.2,0-0.5,0.1-0.7,0.2l0.1,0.2c0.2-0.1,0.4-0.2,0.6-0.2c0.3,0,0.4,0.1,0.4,0.3c0,0.2-0.2,0.4-0.8,0.5
			l0,0.2c0.5,0,0.8,0.2,0.8,0.4c0,0.2-0.2,0.4-0.6,0.4c-0.2,0-0.4,0-0.6-0.1C31.2-148.5,31.2-148.3,31.2-148.3z"/>
		<path class="st7" d="M32.9-150.3c0,0.1,0,0.2,0,0.2c0.2,0,0.4,0,0.7,0c0.2,0,0.4,0,0.5,0l-0.7,1.3c-0.1,0.2-0.2,0.4-0.3,0.5l0.2,0
			c0-0.1,0.1-0.3,0.2-0.4l0.7-1.3c0.1-0.1,0.1-0.3,0.2-0.3l-0.1-0.1c-0.2,0-0.5,0-0.7,0C33.3-150.3,33.2-150.3,32.9-150.3z"/>
		<path class="st7" d="M34.7-148.3c0.2,0.1,0.4,0.1,0.5,0.1c0.5,0,0.8-0.3,0.8-0.6c0-0.3-0.2-0.5-0.7-0.5c0.4-0.1,0.6-0.3,0.6-0.6
			c0-0.3-0.3-0.5-0.7-0.5c-0.2,0-0.5,0.1-0.7,0.2l0.1,0.2c0.2-0.1,0.4-0.2,0.6-0.2c0.3,0,0.4,0.1,0.4,0.3c0,0.2-0.2,0.4-0.8,0.5
			l0,0.2c0.5,0,0.8,0.2,0.8,0.4c0,0.2-0.2,0.4-0.6,0.4c-0.2,0-0.4,0-0.6-0.1C34.6-148.5,34.7-148.3,34.7-148.3z"/>
		<path class="st7" d="M36.8-148.3c0-0.1-0.1-0.2-0.2-0.2c-0.1,0-0.2,0.1-0.2,0.2c0,0.1,0.1,0.2,0.2,0.2
			C36.7-148.2,36.8-148.2,36.8-148.3z"/>
		<path class="st7" d="M37.4-148.3l0,0.2c0.8-0.1,1.2-0.7,1.2-1.4c0-0.5-0.3-0.8-0.7-0.8c-0.4,0-0.7,0.3-0.7,0.7
			c0,0.4,0.3,0.7,0.7,0.7c0.2,0,0.4-0.1,0.6-0.3C38.3-148.8,38-148.4,37.4-148.3z M37.4-149.6c0-0.3,0.2-0.5,0.5-0.5
			c0.3,0,0.5,0.2,0.5,0.5c0,0.3-0.2,0.5-0.5,0.5C37.6-149.2,37.4-149.4,37.4-149.6z"/>
		<path class="st7" d="M39-148.3c0.2,0.1,0.4,0.1,0.5,0.1c0.5,0,0.8-0.3,0.8-0.6c0-0.3-0.2-0.5-0.7-0.5c0.4-0.1,0.6-0.3,0.6-0.6
			c0-0.3-0.3-0.5-0.7-0.5c-0.2,0-0.5,0.1-0.7,0.2l0.1,0.2c0.2-0.1,0.4-0.2,0.6-0.2c0.3,0,0.4,0.1,0.4,0.3c0,0.2-0.2,0.4-0.8,0.5
			l0,0.2c0.5,0,0.8,0.2,0.8,0.4c0,0.2-0.2,0.4-0.6,0.4c-0.2,0-0.4,0-0.6-0.1C38.9-148.5,39-148.3,39-148.3z"/>
		<text transform="matrix(0.48 0 0 0.48 -29.5 -142.0645)" class="st2 st5 st6">Bangladesh</text>
		<path class="st7" d="M31.5-142.3c0.2-0.2,0.4-0.4,0.6-0.5c0.3-0.3,0.5-0.5,0.5-0.8c0-0.4-0.3-0.6-0.6-0.6c-0.2,0-0.5,0.1-0.7,0.3
			l0.1,0.2c0.2-0.2,0.4-0.3,0.6-0.3c0.3,0,0.4,0.2,0.4,0.4c0,0.3-0.3,0.7-1.1,1.4l0,0.2c0.2,0,0.4,0,0.7,0c0.3,0,0.5,0,0.7,0
			c0-0.1,0-0.1,0-0.2C32.3-142.3,31.9-142.3,31.5-142.3z"/>
		<path class="st7" d="M33.7-144.2c-0.5,0-0.7,0.5-0.7,1.1c0,0.6,0.2,1.1,0.7,1.1c0.5,0,0.7-0.5,0.7-1.1
			C34.4-143.7,34.1-144.2,33.7-144.2z M33.6-142.2c-0.3,0-0.5-0.4-0.5-0.9c0-0.5,0.2-0.9,0.5-0.9c0.3,0,0.5,0.4,0.5,0.9
			C34.2-142.6,34-142.2,33.6-142.2z"/>
		<path class="st7" d="M34.7-142.1c0.2,0.1,0.4,0.1,0.5,0.1c0.5,0,0.8-0.3,0.8-0.6c0-0.3-0.2-0.5-0.7-0.5c0.4-0.1,0.6-0.3,0.6-0.6
			c0-0.3-0.3-0.5-0.7-0.5c-0.2,0-0.5,0.1-0.7,0.2l0.1,0.2c0.2-0.1,0.4-0.2,0.6-0.2c0.3,0,0.4,0.1,0.4,0.3c0,0.2-0.2,0.4-0.8,0.5
			l0,0.2c0.5,0,0.8,0.2,0.8,0.4c0,0.2-0.2,0.4-0.6,0.4c-0.2,0-0.4,0-0.6-0.1C34.6-142.3,34.7-142.1,34.7-142.1z"/>
		<path class="st7" d="M36.8-142.2c0-0.1-0.1-0.2-0.2-0.2c-0.1,0-0.2,0.1-0.2,0.2c0,0.1,0.1,0.2,0.2,0.2
			C36.7-142,36.8-142.1,36.8-142.2z"/>
		<path class="st7" d="M37.5-142.3c0.2-0.2,0.4-0.4,0.6-0.5c0.3-0.3,0.5-0.5,0.5-0.8c0-0.4-0.3-0.6-0.6-0.6c-0.2,0-0.5,0.1-0.7,0.3
			l0.1,0.2c0.2-0.2,0.4-0.3,0.6-0.3c0.3,0,0.4,0.2,0.4,0.4c0,0.3-0.3,0.7-1.1,1.4l0,0.2c0.2,0,0.4,0,0.7,0c0.3,0,0.5,0,0.7,0
			c0-0.1,0-0.1,0-0.2C38.3-142.3,37.9-142.3,37.5-142.3z"/>
		<path class="st7" d="M39-142.1c0.2,0.1,0.3,0.1,0.5,0.1c0.5,0,0.8-0.3,0.8-0.7c0-0.4-0.3-0.6-0.9-0.6c-0.1,0-0.1,0-0.2,0l0-0.7
			h0.4c0.2,0,0.4,0,0.6,0c0-0.1,0-0.2,0-0.2c-0.2,0-0.3,0-0.6,0c-0.3,0-0.4,0-0.6,0l0,0c0,0.1,0,0.2,0,0.3l0,0.3c0,0.1,0,0.2,0,0.3
			l0,0c0.1,0,0.2,0,0.3,0c0.5,0,0.7,0.2,0.7,0.4c0,0.2-0.2,0.4-0.6,0.4c-0.2,0-0.4,0-0.6-0.1C39-142.3,39-142.1,39-142.1z"/>
		<text transform="matrix(0.48 0 0 0.48 -29.5 -135.9217)" class="st5 st6">Others</text>
		<text transform="matrix(0.48 0 0 0.48 -25.8142 -129.779)" class="st2 st5 st6">R</text>
		<text transform="matrix(0.48 0 0 0.48 -23.9531 -129.779)" class="st2 st5 st6">e</text>
		<text transform="matrix(0.48 0 0 0.48 -22.4266 -129.779)" class="st2 st5 st6">g</text>
		<text transform="matrix(0.48 0 0 0.48 -20.9894 -129.779)" class="st2 st5 st6">ional</text>
		<path class="st7" d="M35.9-131.8l0-0.2c-0.8,0.1-1.2,0.7-1.2,1.4c0,0.5,0.3,0.8,0.7,0.8c0.4,0,0.7-0.3,0.7-0.7
			c0-0.4-0.3-0.7-0.7-0.7c-0.2,0-0.4,0.1-0.6,0.3C35-131.3,35.3-131.6,35.9-131.8z M35.9-130.4c0,0.3-0.2,0.5-0.5,0.5
			c-0.3,0-0.5-0.2-0.5-0.5c0-0.3,0.2-0.5,0.5-0.5C35.7-130.9,35.9-130.7,35.9-130.4z"/>
		<path class="st7" d="M36.8-129.9c0-0.1-0.1-0.2-0.2-0.2c-0.1,0-0.2,0.1-0.2,0.2c0,0.1,0.1,0.2,0.2,0.2
			C36.7-129.7,36.8-129.8,36.8-129.9z"/>
		<path class="st7" d="M38-131.9c-0.5,0-0.7,0.5-0.7,1.1c0,0.6,0.2,1.1,0.7,1.1c0.5,0,0.7-0.5,0.7-1.1
			C38.7-131.5,38.4-131.9,38-131.9z M37.9-129.9c-0.3,0-0.5-0.4-0.5-0.9c0-0.5,0.2-0.9,0.5-0.9s0.5,0.4,0.5,0.9
			C38.5-130.3,38.3-129.9,37.9-129.9z"/>
		<path class="st7" d="M39.7-131.9c-0.5,0-0.7,0.5-0.7,1.1c0,0.6,0.2,1.1,0.7,1.1c0.5,0,0.7-0.5,0.7-1.1
			C40.4-131.5,40.2-131.9,39.7-131.9z M39.7-129.9c-0.3,0-0.5-0.4-0.5-0.9c0-0.5,0.2-0.9,0.5-0.9s0.5,0.4,0.5,0.9
			C40.2-130.3,40-129.9,39.7-129.9z"/>
		<text transform="matrix(0.48 0 0 0.48 -25.8142 -123.6362)" class="st5 st6">Maldiv</text>
		<text transform="matrix(0.48 0 0 0.48 -17.1346 -123.6362)" class="st5 st6">e</text>
		<text transform="matrix(0.48 0 0 0.48 -15.599 -123.6362)" class="st5 st6">s</text>
		<path class="st8" d="M35.4-125.8c-0.5,0-0.7,0.5-0.7,1.1c0,0.6,0.2,1.1,0.7,1.1c0.5,0,0.7-0.5,0.7-1.1
			C36.1-125.3,35.9-125.8,35.4-125.8z M35.4-123.8c-0.3,0-0.5-0.4-0.5-0.9c0-0.5,0.2-0.9,0.5-0.9c0.3,0,0.5,0.4,0.5,0.9
			C35.9-124.2,35.7-123.8,35.4-123.8z"/>
		<path class="st8" d="M36.8-123.8c0-0.1-0.1-0.2-0.2-0.2c-0.1,0-0.2,0.1-0.2,0.2c0,0.1,0.1,0.2,0.2,0.2
			C36.7-123.6,36.8-123.7,36.8-123.8z"/>
		<path class="st8" d="M37.3-123.7c0.2,0.1,0.3,0.1,0.5,0.1c0.5,0,0.8-0.3,0.8-0.7c0-0.4-0.3-0.6-0.9-0.6c-0.1,0-0.1,0-0.2,0l0-0.7
			H38c0.2,0,0.4,0,0.6,0c0-0.1,0-0.2,0-0.2c-0.2,0-0.3,0-0.6,0c-0.3,0-0.4,0-0.6,0l0,0c0,0.1,0,0.2,0,0.3l0,0.3c0,0.1,0,0.2,0,0.3
			l0,0c0.1,0,0.2,0,0.3,0c0.5,0,0.7,0.2,0.7,0.4c0,0.2-0.2,0.4-0.6,0.4c-0.2,0-0.4,0-0.6-0.1C37.2-123.9,37.3-123.7,37.3-123.7z"/>
		<path class="st8" d="M39.7-125.8c-0.5,0-0.7,0.5-0.7,1.1c0,0.6,0.2,1.1,0.7,1.1c0.5,0,0.7-0.5,0.7-1.1
			C40.4-125.3,40.2-125.8,39.7-125.8z M39.7-123.8c-0.3,0-0.5-0.4-0.5-0.9c0-0.5,0.2-0.9,0.5-0.9s0.5,0.4,0.5,0.9
			C40.2-124.2,40-123.8,39.7-123.8z"/>
		<text transform="matrix(0.48 0 0 0.48 -25.8142 -117.4937)" class="st5 st6">Nepal</text>
		<path class="st8" d="M35.4-119.7c-0.5,0-0.7,0.5-0.7,1.1c0,0.6,0.2,1.1,0.7,1.1c0.5,0,0.7-0.5,0.7-1.1
			C36.1-119.2,35.9-119.7,35.4-119.7z M35.4-117.6c-0.3,0-0.5-0.4-0.5-0.9c0-0.5,0.2-0.9,0.5-0.9c0.3,0,0.5,0.4,0.5,0.9
			C35.9-118,35.7-117.6,35.4-117.6z"/>
		<path class="st8" d="M36.8-117.6c0-0.1-0.1-0.2-0.2-0.2c-0.1,0-0.2,0.1-0.2,0.2c0,0.1,0.1,0.2,0.2,0.2
			C36.7-117.4,36.8-117.5,36.8-117.6z"/>
		<path class="st8" d="M37.3-117.5c0.2,0.1,0.4,0.1,0.5,0.1c0.5,0,0.8-0.3,0.8-0.6c0-0.3-0.2-0.5-0.7-0.5c0.4-0.1,0.6-0.3,0.6-0.6
			c0-0.3-0.3-0.5-0.7-0.5c-0.2,0-0.5,0.1-0.7,0.2l0.1,0.2c0.2-0.1,0.4-0.2,0.6-0.2c0.3,0,0.4,0.1,0.4,0.3c0,0.2-0.2,0.4-0.8,0.5
			l0,0.2c0.5,0,0.8,0.2,0.8,0.4c0,0.2-0.2,0.4-0.6,0.4c-0.2,0-0.4,0-0.6-0.1C37.2-117.8,37.3-117.5,37.3-117.5z"/>
		<path class="st8" d="M39.1-117.6l0,0.2c0.8-0.1,1.2-0.7,1.2-1.4c0-0.5-0.3-0.8-0.7-0.8c-0.4,0-0.7,0.3-0.7,0.7
			c0,0.4,0.3,0.7,0.7,0.7c0.2,0,0.4-0.1,0.6-0.3C40.1-118.1,39.7-117.7,39.1-117.6z M39.2-118.9c0-0.3,0.2-0.5,0.5-0.5
			c0.3,0,0.5,0.2,0.5,0.5c0,0.3-0.2,0.5-0.5,0.5C39.4-118.5,39.2-118.7,39.2-118.9z"/>
		<text transform="matrix(0.48 0 0 0.48 -29.5 -111.3264)" class="st9 st6">T</text>
		<text transform="matrix(0.48 0 0 0.48 -27.7586 -111.3264)" class="st9 st6">o</text>
		<text transform="matrix(0.48 0 0 0.48 -26.0385 -111.3264)" class="st9 st6">t</text>
		<text transform="matrix(0.48 0 0 0.48 -24.8439 -111.3264)" class="st9 st6">al</text>
		<path class="st8" d="M30.1-111.7c-0.1,0-0.3,0-0.4,0h-0.1v-1.3c0-0.1,0-0.3,0-0.4l-0.2,0l-0.2,0.1c-0.1,0-0.4,0.1-0.6,0.2l0.1,0.4
			l0.4-0.1v1c0,0.1,0,0.1,0,0.2H29c-0.1,0-0.3,0-0.4,0c0,0.1,0,0.3,0,0.4c0.2,0,0.3,0,0.4,0h0.4c0.2,0,0.4,0,0.6,0
			C30.1-111.4,30.1-111.7,30.1-111.7z"/>
		<path class="st8" d="M30.4-110.7c0.4-0.2,0.6-0.5,0.6-0.8c0-0.2-0.1-0.4-0.3-0.4c-0.1,0-0.3,0.1-0.3,0.3l0.1,0
			c0.1,0.1,0.2,0.1,0.2,0.2c0,0.1-0.1,0.2-0.3,0.4l0,0L30.4-110.7z"/>
		<path class="st8" d="M32.7-111.7c-0.1,0-0.3,0-0.4,0h-0.1v-1.3c0-0.1,0-0.3,0-0.4l-0.2,0l-0.2,0.1c-0.1,0-0.4,0.1-0.6,0.2l0.1,0.4
			l0.4-0.1v1c0,0.1,0,0.1,0,0.2h-0.1c-0.1,0-0.3,0-0.4,0c0,0.1,0,0.3,0,0.4c0.2,0,0.3,0,0.4,0h0.4c0.2,0,0.4,0,0.6,0
			C32.7-111.4,32.7-111.7,32.7-111.7z"/>
		<path class="st8" d="M33.5-111.7c0.1-0.1,0.3-0.3,0.4-0.4c0.2-0.3,0.4-0.5,0.4-0.8c0-0.4-0.3-0.6-0.7-0.6c-0.3,0-0.5,0.1-0.7,0.2
			l0.1,0.4c0.2-0.1,0.4-0.2,0.5-0.2c0.2,0,0.3,0.1,0.3,0.3c0,0.3-0.3,0.6-1,1.1l0,0.3c0.2,0,0.5,0,0.7,0c0.3,0,0.5,0,0.7,0
			c0-0.2,0-0.3,0-0.4C34.1-111.7,33.8-111.7,33.5-111.7z"/>
		<path class="st8" d="M35.2-111.7c0.1-0.1,0.3-0.3,0.4-0.4c0.2-0.3,0.4-0.5,0.4-0.8c0-0.4-0.3-0.6-0.7-0.6c-0.3,0-0.5,0.1-0.7,0.2
			l0.1,0.4c0.2-0.1,0.4-0.2,0.5-0.2c0.2,0,0.3,0.1,0.3,0.3c0,0.3-0.3,0.6-1,1.1l0,0.3c0.2,0,0.5,0,0.7,0c0.3,0,0.5,0,0.7,0
			c0-0.2,0-0.3,0-0.4C35.9-111.7,35.5-111.7,35.2-111.7z"/>
		<path class="st8" d="M36.9-111.5c0-0.2-0.1-0.3-0.3-0.3c-0.2,0-0.3,0.1-0.3,0.3c0,0.1,0.1,0.3,0.3,0.3
			C36.8-111.3,36.9-111.4,36.9-111.5z"/>
		<path class="st8" d="M38-113.5c-0.5,0-0.8,0.5-0.8,1.1c0,0.6,0.2,1.1,0.7,1.1c0.5,0,0.8-0.5,0.8-1.1C38.7-113,38.5-113.5,38-113.5
			z M37.9-111.6c-0.2,0-0.3-0.2-0.3-0.7c0-0.4,0.1-0.7,0.3-0.7c0.2,0,0.3,0.2,0.3,0.7C38.3-111.9,38.2-111.6,37.9-111.6z"/>
		<path class="st8" d="M40.3-113.1l-0.1-0.4c-0.8,0.1-1.3,0.6-1.3,1.3c0,0.6,0.3,0.9,0.8,0.9c0.5,0,0.8-0.3,0.8-0.8
			c0-0.4-0.3-0.7-0.6-0.7c-0.2,0-0.3,0.1-0.4,0.2C39.5-112.8,39.8-113.1,40.3-113.1z M40-112c0,0.2-0.1,0.4-0.3,0.4
			c-0.2,0-0.3-0.1-0.3-0.4c0-0.2,0.1-0.4,0.3-0.4C39.9-112.4,40-112.3,40-112z"/>
		<path class="st10" d="M-31.3-158.4h73.7 M-31.3-152.3h73.7 M-31.3-146.1h73.7 M-31.3-140h73.7 M-31.3-133.8h73.7 M-31.3-127.7
			h73.7 M-31.3-121.5h73.7 M-31.3-115.4h73.7 M-31.3-109.3h73.7"/>
	</g>
	<path class="st11" d="M73.3,0c30,0,54.9,23.3,56.8,53.2c1.9,29.9-19.7,56.3-49.5,60.1l-1.8-14.1c22.3-2.9,38.6-22.6,37.1-45.1
		c-1.5-22.5-20.1-39.9-42.6-39.9C73.3,14.2,73.3,0,73.3,0z"/>
	<path class="st12" d="M73.1,0c0,0,0.1,0,0.1,0v14.2c0,0-0.1,0-0.1,0L73.1,0z"/>
	<path class="st13" d="M73,0c0.1,0,0.1,0,0.2,0l0,14.2c0,0-0.1,0-0.1,0C73.1,14.2,73,0,73,0z"/>
	<path class="st14" d="M71.1,0c0.6,0,1.3,0,1.9,0l0.1,14.2c-0.5,0-1,0-1.4,0L71.1,0z"/>
	<path class="st15" d="M20.7,35.1C29.2,14.6,48.9,0.9,71.1,0l0.5,14.2C55,14.9,40.2,25.2,33.8,40.5C33.8,40.5,20.7,35.1,20.7,35.1z"
		/>
	<path class="st16" d="M80.6,113.4c-20.2,2.6-40.2-5.7-52.5-21.9c-12.3-16.1-15.1-37.7-7.3-56.4l13.1,5.5
		c-5.9,14.1-3.8,30.2,5.5,42.3c9.3,12.1,24.3,18.4,39.4,16.4L80.6,113.4z"/>
</g>
</svg>
