<?xml version="1.0" encoding="utf-8"?>
<!-- Generator: Adobe Illustrator 24.1.0, SVG Export Plug-In . SVG Version: 6.00 Build 0)  -->
<svg version="1.1" id="Layer_1" xmlns:serif="http://www.serif.com/"
	 xmlns="http://www.w3.org/2000/svg" xmlns:xlink="http://www.w3.org/1999/xlink" x="0px" y="0px" viewBox="0 0 149.7 203.2"
	 style="enable-background:new 0 0 149.7 203.2;" xml:space="preserve">
<style type="text/css">
	.st0{clip-path:url(#SVGID_2_);}
	.st1{clip-path:url(#SVGID_4_);}
	.st2{fill:#1A1A1A;}
	.st3{font-family:'IdealSans-ExtraLight';}
	.st4{font-size:11.5177px;}
	.st5{font-family:'IdealSans-Light';}
	.st6{font-size:6.3987px;}
	.st7{fill-rule:evenodd;clip-rule:evenodd;fill:#1A1A1A;}
	.st8{font-family:'IdealSans-Semibold';}
	.st9{fill:none;stroke:#1A1A1A;stroke-width:0.16;stroke-miterlimit:2.5595;}
	.st10{fill:#F8F166;}
	.st11{fill:#E9522B;}
	.st12{fill:#00B6C9;}
</style>
<g>
	<defs>
		<rect id="SVGID_1_" x="-22.7" y="-20.9" width="192" height="511.9"/>
	</defs>
	<clipPath id="SVGID_2_">
		<use xlink:href="#SVGID_1_"  style="overflow:visible;"/>
	</clipPath>
	<g class="st0">
		<g>
			<defs>
				<rect id="SVGID_3_" x="-22.7" y="-20.9" width="192" height="511.9"/>
			</defs>
			<clipPath id="SVGID_4_">
				<use xlink:href="#SVGID_3_"  style="overflow:visible;"/>
			</clipPath>
			<g class="st1">
				<g id="Layer-1" serif:id="Layer 1">
				</g>
			</g>
		</g>
	</g>
</g>
<g id="Layer-11" serif:id="Layer 1">
	<g transform="matrix(2.08333,0,0,2.08333,61.4583,478.168)">
		<text transform="matrix(0.48 0 0 0.48 -12.9348 -163.2695)" class="st2 st3 st4">B</text>
		<text transform="matrix(0.48 0 0 0.48 -9.7338 -163.2695)" class="st2 st3 st4">y</text>
		<text transform="matrix(0.48 0 0 0.48 -7.2571 -163.2695)" class="st2 st3 st4"> </text>
		<text transform="matrix(0.48 0 0 0.48 -6.1623 -163.2695)" class="st2 st3 st4">P</text>
		<text transform="matrix(0.48 0 0 0.48 -3.2711 -163.2695)" class="st2 st3 st4">r</text>
		<text transform="matrix(0.48 0 0 0.48 -1.585 -163.2695)" class="st2 st3 st4">o</text>
		<text transform="matrix(0.48 0 0 0.48 1.4448 -163.2695)" class="st2 st3 st4">d</text>
		<text transform="matrix(0.48 0 0 0.48 4.4136 -163.2695)" class="st2 st3 st4">uct T</text>
		<text transform="matrix(0.48 0 0 0.48 15.7471 -163.2695)" class="st2 st3 st4">y</text>
		<text transform="matrix(0.48 0 0 0.48 18.2235 -163.2695)" class="st2 st3 st4">p</text>
		<text transform="matrix(0.48 0 0 0.48 21.1982 -163.2695)" class="st2 st3 st4">e</text>
		<text transform="matrix(0.48 0 0 0.48 -29.5 -155.0654)" class="st2 st5 st6">Loan</text>
		<path class="st7" d="M30.1-155.3c-0.1,0-0.3,0-0.4,0h-0.2v-1.6c0-0.1,0-0.3,0-0.4l0,0l-0.2,0.1c-0.1,0-0.4,0.1-0.6,0.2l0,0.2
			l0.5-0.2v1.3c0,0.1,0,0.3,0,0.4h-0.2c-0.1,0-0.2,0-0.4,0c0,0.1,0,0.1,0,0.2c0.2,0,0.3,0,0.5,0h0.3c0.2,0,0.4,0,0.6,0
			C30.1-155.1,30.1-155.2,30.1-155.3L30.1-155.3z"/>
		<path class="st7" d="M30.4-154.5c0.3-0.2,0.4-0.4,0.4-0.6c0-0.2-0.1-0.3-0.2-0.3c-0.1,0-0.2,0.1-0.2,0.2l0,0
			c0.1,0,0.1,0.1,0.1,0.2c0,0.1-0.1,0.2-0.2,0.3l0,0L30.4-154.5z"/>
		<path class="st7" d="M32.7-155.3c-0.1,0-0.3,0-0.4,0h-0.2v-1.6c0-0.1,0-0.3,0-0.4l0,0l-0.2,0.1c-0.1,0-0.4,0.1-0.6,0.2l0,0.2
			l0.5-0.2v1.3c0,0.1,0,0.3,0,0.4h-0.2c-0.1,0-0.2,0-0.4,0c0,0.1,0,0.1,0,0.2c0.2,0,0.3,0,0.5,0h0.3c0.2,0,0.4,0,0.6,0
			C32.7-155.1,32.7-155.2,32.7-155.3L32.7-155.3z"/>
		<path class="st7" d="M33.7-157.2c-0.5,0-0.7,0.5-0.7,1.1c0,0.6,0.2,1.1,0.7,1.1c0.5,0,0.7-0.5,0.7-1.1
			C34.4-156.7,34.1-157.2,33.7-157.2z M33.6-155.2c-0.3,0-0.5-0.4-0.5-0.9c0-0.5,0.2-0.9,0.5-0.9c0.3,0,0.5,0.4,0.5,0.9
			C34.2-155.6,34-155.2,33.6-155.2z"/>
		<path class="st7" d="M35-155.3c0.2-0.2,0.4-0.4,0.6-0.5c0.3-0.3,0.5-0.5,0.5-0.8c0-0.4-0.3-0.6-0.6-0.6c-0.2,0-0.5,0.1-0.7,0.3
			l0.1,0.2c0.2-0.2,0.4-0.3,0.6-0.3c0.3,0,0.4,0.2,0.4,0.4c0,0.3-0.3,0.7-1.1,1.4l0,0.2c0.2,0,0.4,0,0.7,0c0.3,0,0.5,0,0.7,0
			c0-0.1,0-0.1,0-0.2C35.7-155.3,35.3-155.3,35-155.3z"/>
		<path class="st7" d="M36.8-155.2c0-0.1-0.1-0.2-0.2-0.2c-0.1,0-0.2,0.1-0.2,0.2c0,0.1,0.1,0.2,0.2,0.2
			C36.7-155,36.8-155.1,36.8-155.2z"/>
		<path class="st7" d="M38.5-157l0-0.2c-0.8,0.1-1.2,0.7-1.2,1.4c0,0.5,0.3,0.8,0.7,0.8c0.4,0,0.7-0.3,0.7-0.7
			c0-0.4-0.3-0.7-0.7-0.7c-0.2,0-0.4,0.1-0.6,0.3C37.6-156.6,37.9-156.9,38.5-157z M38.5-155.7c0,0.3-0.2,0.5-0.5,0.5
			c-0.3,0-0.5-0.2-0.5-0.5c0-0.3,0.2-0.5,0.5-0.5C38.3-156.2,38.5-156,38.5-155.7z"/>
		<path class="st7" d="M38.9-157.2c0,0.1,0,0.2,0,0.2c0.2,0,0.4,0,0.7,0c0.2,0,0.4,0,0.5,0l-0.7,1.3c-0.1,0.2-0.2,0.4-0.3,0.5l0.2,0
			c0-0.1,0.1-0.3,0.2-0.4l0.7-1.3c0.1-0.1,0.1-0.3,0.2-0.3l-0.1-0.1c-0.2,0-0.5,0-0.7,0C39.4-157.2,39.2-157.2,38.9-157.2z"/>
		<text transform="matrix(0.48 0 0 0.48 -29.5 -148.9224)" class="st2 st5 st6">Gr</text>
		<text transform="matrix(0.48 0 0 0.48 -26.2596 -148.9224)" class="st2 st5 st6">a</text>
		<text transform="matrix(0.48 0 0 0.48 -24.7853 -148.9224)" class="st2 st5 st6">n</text>
		<text transform="matrix(0.48 0 0 0.48 -23.1178 -148.9224)" class="st2 st5 st6">t for I</text>
		<text transform="matrix(0.48 0 0 0.48 -16.2869 -148.9224)" class="st2 st5 st6">n</text>
		<text transform="matrix(0.48 0 0 0.48 -14.6191 -148.9224)" class="st2 st5 st6">vestment</text>
		<path class="st7" d="M35.4-151.1c-0.5,0-0.7,0.5-0.7,1.1c0,0.6,0.2,1.1,0.7,1.1c0.5,0,0.7-0.5,0.7-1.1
			C36.1-150.6,35.9-151.1,35.4-151.1z M35.4-149.1c-0.3,0-0.5-0.4-0.5-0.9c0-0.5,0.2-0.9,0.5-0.9c0.3,0,0.5,0.4,0.5,0.9
			C35.9-149.5,35.7-149.1,35.4-149.1z"/>
		<path class="st7" d="M36.8-149c0-0.1-0.1-0.2-0.2-0.2c-0.1,0-0.2,0.1-0.2,0.2c0,0.1,0.1,0.2,0.2,0.2C36.7-148.9,36.8-149,36.8-149
			z"/>
		<path class="st7" d="M37.2-151c0,0.1,0,0.2,0,0.2c0.2,0,0.4,0,0.7,0c0.2,0,0.4,0,0.5,0l-0.7,1.3c-0.1,0.2-0.2,0.4-0.3,0.5l0.2,0
			c0-0.1,0.1-0.3,0.2-0.4l0.7-1.3c0.1-0.1,0.1-0.3,0.2-0.3l-0.1-0.1c-0.2,0-0.5,0-0.7,0C37.6-151,37.5-151,37.2-151z"/>
		<path class="st7" d="M39-149c0.2,0.1,0.3,0.1,0.5,0.1c0.5,0,0.8-0.3,0.8-0.7c0-0.4-0.3-0.6-0.9-0.6c-0.1,0-0.1,0-0.2,0l0-0.7h0.4
			c0.2,0,0.4,0,0.6,0c0-0.1,0-0.2,0-0.2c-0.2,0-0.3,0-0.6,0c-0.3,0-0.4,0-0.6,0l0,0c0,0.1,0,0.2,0,0.3l0,0.3c0,0.1,0,0.2,0,0.3l0,0
			c0.1,0,0.2,0,0.3,0c0.5,0,0.7,0.2,0.7,0.4c0,0.2-0.2,0.4-0.6,0.4c-0.2,0-0.4,0-0.6-0.1C39-149.2,39-149,39-149z"/>
		<text transform="matrix(0.48 0 0 0.48 -29.5 -142.7796)" class="st2 st5 st6">Gr</text>
		<text transform="matrix(0.48 0 0 0.48 -26.2596 -142.7796)" class="st2 st5 st6">a</text>
		<text transform="matrix(0.48 0 0 0.48 -24.7853 -142.7796)" class="st2 st5 st6">n</text>
		<text transform="matrix(0.48 0 0 0.48 -23.1178 -142.7796)" class="st2 st5 st6">t for T</text>
		<text transform="matrix(0.48 0 0 0.48 -15.5744 -142.7796)" class="st2 st5 st6">e</text>
		<text transform="matrix(0.48 0 0 0.48 -14.0388 -142.7796)" class="st2 st5 st6">c</text>
		<text transform="matrix(0.48 0 0 0.48 -12.5676 -142.7796)" class="st2 st5 st6">hnical Assistance</text>
		<path class="st7" d="M34.4-143c-0.1,0-0.3,0-0.4,0h-0.2v-1.6c0-0.1,0-0.3,0-0.4l0,0l-0.2,0.1c-0.1,0-0.4,0.1-0.6,0.2l0,0.2
			l0.5-0.2v1.3c0,0.1,0,0.3,0,0.4h-0.2c-0.1,0-0.2,0-0.4,0c0,0.1,0,0.1,0,0.2c0.2,0,0.3,0,0.5,0h0.3c0.2,0,0.4,0,0.6,0
			C34.4-142.8,34.4-142.9,34.4-143L34.4-143z"/>
		<path class="st7" d="M34.7-143.3c0,0.3,0.3,0.6,0.7,0.6c0.4,0,0.7-0.3,0.7-0.6c0-0.3-0.2-0.4-0.5-0.6c0.3-0.1,0.4-0.3,0.4-0.5
			c0-0.3-0.3-0.5-0.6-0.5c-0.4,0-0.7,0.2-0.7,0.6c0,0.3,0.2,0.4,0.4,0.5C34.9-143.8,34.7-143.6,34.7-143.3z M35.9-143.3
			c0,0.2-0.2,0.4-0.5,0.4c-0.3,0-0.5-0.2-0.5-0.4c0-0.2,0.2-0.4,0.5-0.5C35.7-143.7,35.9-143.5,35.9-143.3z M34.9-144.4
			c0-0.2,0.2-0.4,0.4-0.4c0.2,0,0.4,0.1,0.4,0.4c0,0.2-0.2,0.3-0.4,0.4C35.1-144.1,34.9-144.2,34.9-144.4z"/>
		<path class="st7" d="M36.8-142.9c0-0.1-0.1-0.2-0.2-0.2c-0.1,0-0.2,0.1-0.2,0.2c0,0.1,0.1,0.2,0.2,0.2
			C36.7-142.7,36.8-142.8,36.8-142.9z"/>
		<path class="st7" d="M38.5-144.8l0-0.2c-0.8,0.1-1.2,0.7-1.2,1.4c0,0.5,0.3,0.8,0.7,0.8c0.4,0,0.7-0.3,0.7-0.7
			c0-0.4-0.3-0.7-0.7-0.7c-0.2,0-0.4,0.1-0.6,0.3C37.6-144.3,37.9-144.6,38.5-144.8z M38.5-143.4c0,0.3-0.2,0.5-0.5,0.5
			c-0.3,0-0.5-0.2-0.5-0.5c0-0.3,0.2-0.5,0.5-0.5C38.3-143.9,38.5-143.7,38.5-143.4z"/>
		<path class="st7" d="M39.9-142.8h0.2c0-0.1,0-0.3,0-0.4v-0.2l0.3,0c0-0.1,0-0.1,0-0.2c-0.1,0-0.2,0-0.3,0v-1c0-0.1,0-0.3,0-0.4
			l-0.1,0l-0.2,0.3l-0.9,1.2l0.1,0.1c0.2,0,0.5,0,0.8,0h0.2v0.1C39.9-143.1,39.9-142.9,39.9-142.8z M39.9-144.6v1h-0.8L39.9-144.6z"
			/>
		<text transform="matrix(0.48 0 0 0.48 -29.5 -136.6123)" class="st2 st8 st6">T</text>
		<text transform="matrix(0.48 0 0 0.48 -27.7586 -136.6123)" class="st2 st8 st6">o</text>
		<text transform="matrix(0.48 0 0 0.48 -26.0385 -136.6123)" class="st2 st8 st6">t</text>
		<text transform="matrix(0.48 0 0 0.48 -24.8439 -136.6123)" class="st2 st8 st6">al</text>
		<path class="st7" d="M30.1-137c-0.1,0-0.3,0-0.4,0h-0.1v-1.3c0-0.1,0-0.3,0-0.4l-0.2,0l-0.2,0.1c-0.1,0-0.4,0.1-0.6,0.2l0.1,0.4
			l0.4-0.1v1c0,0.1,0,0.1,0,0.2H29c-0.1,0-0.3,0-0.4,0c0,0.1,0,0.3,0,0.4c0.2,0,0.3,0,0.4,0h0.4c0.2,0,0.4,0,0.6,0
			C30.1-136.7,30.1-137,30.1-137z"/>
		<path class="st7" d="M30.4-136c0.4-0.2,0.6-0.5,0.6-0.8c0-0.2-0.1-0.4-0.3-0.4c-0.1,0-0.3,0.1-0.3,0.3l0.1,0
			c0.1,0.1,0.2,0.1,0.2,0.2c0,0.1-0.1,0.2-0.3,0.4l0,0L30.4-136z"/>
		<path class="st7" d="M32.7-137c-0.1,0-0.3,0-0.4,0h-0.1v-1.3c0-0.1,0-0.3,0-0.4l-0.2,0l-0.2,0.1c-0.1,0-0.4,0.1-0.6,0.2l0.1,0.4
			l0.4-0.1v1c0,0.1,0,0.1,0,0.2h-0.1c-0.1,0-0.3,0-0.4,0c0,0.1,0,0.3,0,0.4c0.2,0,0.3,0,0.4,0h0.4c0.2,0,0.4,0,0.6,0
			C32.7-136.7,32.7-137,32.7-137z"/>
		<path class="st7" d="M33.5-137c0.1-0.1,0.3-0.3,0.4-0.4c0.2-0.3,0.4-0.5,0.4-0.8c0-0.4-0.3-0.6-0.7-0.6c-0.3,0-0.5,0.1-0.7,0.2
			l0.1,0.4c0.2-0.1,0.4-0.2,0.5-0.2c0.2,0,0.3,0.1,0.3,0.3c0,0.3-0.3,0.6-1,1.1l0,0.3c0.2,0,0.5,0,0.7,0c0.3,0,0.5,0,0.7,0
			c0-0.2,0-0.3,0-0.4C34.1-137,33.8-137,33.5-137z"/>
		<path class="st7" d="M35.2-137c0.1-0.1,0.3-0.3,0.4-0.4c0.2-0.3,0.4-0.5,0.4-0.8c0-0.4-0.3-0.6-0.7-0.6c-0.3,0-0.5,0.1-0.7,0.2
			l0.1,0.4c0.2-0.1,0.4-0.2,0.5-0.2c0.2,0,0.3,0.1,0.3,0.3c0,0.3-0.3,0.6-1,1.1l0,0.3c0.2,0,0.5,0,0.7,0c0.3,0,0.5,0,0.7,0
			c0-0.2,0-0.3,0-0.4C35.9-137,35.5-137,35.2-137z"/>
		<path class="st7" d="M36.9-136.8c0-0.2-0.1-0.3-0.3-0.3c-0.2,0-0.3,0.1-0.3,0.3c0,0.1,0.1,0.3,0.3,0.3
			C36.8-136.6,36.9-136.7,36.9-136.8z"/>
		<path class="st7" d="M38-138.8c-0.5,0-0.8,0.5-0.8,1.1c0,0.6,0.2,1.1,0.7,1.1c0.5,0,0.8-0.5,0.8-1.1
			C38.7-138.3,38.5-138.8,38-138.8z M37.9-136.9c-0.2,0-0.3-0.2-0.3-0.7c0-0.4,0.1-0.7,0.3-0.7c0.2,0,0.3,0.2,0.3,0.7
			C38.3-137.2,38.2-136.9,37.9-136.9z"/>
		<path class="st7" d="M40.3-138.4l-0.1-0.4c-0.8,0.1-1.3,0.6-1.3,1.3c0,0.6,0.3,0.9,0.8,0.9c0.5,0,0.8-0.3,0.8-0.8
			c0-0.4-0.3-0.7-0.6-0.7c-0.2,0-0.3,0.1-0.4,0.2C39.5-138.1,39.8-138.3,40.3-138.4z M40-137.3c0,0.2-0.1,0.4-0.3,0.4
			c-0.2,0-0.3-0.1-0.3-0.4c0-0.2,0.1-0.4,0.3-0.4C39.9-137.7,40-137.5,40-137.3z"/>
		<path class="st9" d="M-31.3-159.1h73.7 M-31.3-153h73.7 M-31.3-146.8h73.7 M-31.3-140.7h73.7 M-31.3-134.5h73.7"/>
	</g>
	<path class="st10" d="M67.4,0.3C69.4,0.1,71.3,0,73.3,0v14c-1.5,0-2.9,0.1-4.4,0.2L67.4,0.3z"/>
	<path class="st11" d="M67.2,0.3c0.1,0,0.2,0,0.2,0l1.5,14c-0.1,0-0.1,0-0.2,0C68.7,14.3,67.2,0.3,67.2,0.3z"/>
	<path class="st12" d="M73.3,0c30.4,0,55.3,24.2,56.2,54.6s-22.7,56-53.1,57.6c-30.4,1.7-56.6-21.2-59-51.5
		C14.8,30.4,36.9,3.6,67.2,0.3l1.5,14C46,16.8,29.4,36.9,31.3,59.6c1.9,22.7,21.5,39.9,44.3,38.6C98.3,97,116,77.8,115.4,55
		c-0.6-22.8-19.3-41-42.1-41C73.3,14,73.3,0,73.3,0z"/>
</g>
</svg>
