<?xml version="1.0" encoding="utf-8"?>
<!-- Generator: Adobe Illustrator 24.1.0, SVG Export Plug-In . SVG Version: 6.00 Build 0)  -->
<svg version="1.1" id="Layer_1" xmlns:serif="http://www.serif.com/"
	 xmlns="http://www.w3.org/2000/svg" xmlns:xlink="http://www.w3.org/1999/xlink" x="0px" y="0px" viewBox="0 0 149.7 296.7"
	 style="enable-background:new 0 0 149.7 296.7;" xml:space="preserve">
<style type="text/css">
	.st0{clip-path:url(#SVGID_2_);}
	.st1{clip-path:url(#SVGID_4_);}
	.st2{fill:#1A1A1A;}
	.st3{font-family:'IdealSans-ExtraLight';}
	.st4{font-size:11.5177px;}
	.st5{font-family:'IdealSans-Light';}
	.st6{font-size:6.3987px;}
	.st7{fill-rule:evenodd;clip-rule:evenodd;fill:#1A1A1A;}
	.st8{font-family:'IdealSans-Semibold';}
	.st9{fill:none;stroke:#1A1A1A;stroke-width:0.16;stroke-miterlimit:2.5595;}
	.st10{fill:#707070;}
	.st11{fill:#606060;}
	.st12{fill:#505050;}
	.st13{fill:#404040;}
	.st14{fill:#303030;}
	.st15{fill:#202020;}
	.st16{fill:#A1D35F;}
	.st17{fill:#8CC63F;}
</style>
<g>
	<defs>
		<rect id="SVGID_1_" x="-22.7" y="-19.4" width="192" height="511.9"/>
	</defs>
	<clipPath id="SVGID_2_">
		<use xlink:href="#SVGID_1_"  style="overflow:visible;"/>
	</clipPath>
	<g class="st0">
		<g>
			<defs>
				<rect id="SVGID_3_" x="-22.7" y="-19.4" width="192" height="511.9"/>
			</defs>
			<clipPath id="SVGID_4_">
				<use xlink:href="#SVGID_3_"  style="overflow:visible;"/>
			</clipPath>
			<g class="st1">
				<g id="Layer-1" serif:id="Layer 1">
				</g>
			</g>
		</g>
	</g>
</g>
<g id="Layer-11" serif:id="Layer 1">
	<g transform="matrix(2.08333,0,0,2.08333,61.4583,478.168)">
		<text transform="matrix(0.48 0 0 0.48 -5.2862 -162.5543)" class="st2 st3 st4">B</text>
		<text transform="matrix(0.48 0 0 0.48 -2.0851 -162.5543)" class="st2 st3 st4">y</text>
		<text transform="matrix(0.48 0 0 0.48 0.3917 -162.5543)" class="st2 st3 st4"> </text>
		<text transform="matrix(0.48 0 0 0.48 1.4863 -162.5543)" class="st2 st3 st4">Sector</text>
		<text transform="matrix(0.48 0 0 0.48 -29.5 -154.3502)" class="st2 st5 st6">T</text>
		<text transform="matrix(0.48 0 0 0.48 -27.8599 -154.3502)" class="st2 st5 st6">r</text>
		<text transform="matrix(0.48 0 0 0.48 -26.8893 -154.3502)" class="st2 st5 st6">a</text>
		<text transform="matrix(0.48 0 0 0.48 -25.4151 -154.3502)" class="st2 st5 st6">n</text>
		<text transform="matrix(0.48 0 0 0.48 -23.7473 -154.3502)" class="st2 st5 st6">sport</text>
		<path class="st7" d="M32.5-156.3l0-0.2c-0.8,0.1-1.2,0.7-1.2,1.4c0,0.5,0.3,0.8,0.7,0.8c0.4,0,0.7-0.3,0.7-0.7
			c0-0.4-0.3-0.7-0.7-0.7c-0.2,0-0.4,0.1-0.6,0.3C31.5-155.9,31.9-156.2,32.5-156.3z M32.4-155c0,0.3-0.2,0.5-0.5,0.5
			c-0.3,0-0.5-0.2-0.5-0.5c0-0.3,0.2-0.5,0.5-0.5C32.2-155.5,32.4-155.3,32.4-155z"/>
		<path class="st7" d="M33.7-156.5c-0.5,0-0.7,0.5-0.7,1.1c0,0.6,0.2,1.1,0.7,1.1c0.5,0,0.7-0.5,0.7-1.1
			C34.4-156,34.1-156.5,33.7-156.5z M33.6-154.5c-0.3,0-0.5-0.4-0.5-0.9c0-0.5,0.2-0.9,0.5-0.9c0.3,0,0.5,0.4,0.5,0.9
			C34.2-154.9,34-154.5,33.6-154.5z"/>
		<path class="st7" d="M34.6-156.5c0,0.1,0,0.2,0,0.2c0.2,0,0.4,0,0.7,0c0.2,0,0.4,0,0.5,0l-0.7,1.3c-0.1,0.2-0.2,0.4-0.3,0.5l0.2,0
			c0-0.1,0.1-0.3,0.2-0.4l0.7-1.3c0.1-0.1,0.1-0.3,0.2-0.3l-0.1-0.1c-0.2,0-0.5,0-0.7,0C35.1-156.4,34.9-156.5,34.6-156.5z"/>
		<path class="st7" d="M36.8-154.5c0-0.1-0.1-0.2-0.2-0.2c-0.1,0-0.2,0.1-0.2,0.2c0,0.1,0.1,0.2,0.2,0.2
			C36.7-154.3,36.8-154.4,36.8-154.5z"/>
		<path class="st7" d="M37.5-154.5c0.2-0.2,0.4-0.4,0.6-0.5c0.3-0.3,0.5-0.5,0.5-0.8c0-0.4-0.3-0.6-0.6-0.6c-0.2,0-0.5,0.1-0.7,0.3
			l0.1,0.2c0.2-0.2,0.4-0.3,0.6-0.3c0.3,0,0.4,0.2,0.4,0.4c0,0.3-0.3,0.7-1.1,1.4l0,0.2c0.2,0,0.4,0,0.7,0c0.3,0,0.5,0,0.7,0
			c0-0.1,0-0.1,0-0.2C38.3-154.5,37.9-154.5,37.5-154.5z"/>
		<path class="st7" d="M39-154.4c0.2,0.1,0.4,0.1,0.5,0.1c0.5,0,0.8-0.3,0.8-0.6c0-0.3-0.2-0.5-0.7-0.5c0.4-0.1,0.6-0.3,0.6-0.6
			c0-0.3-0.3-0.5-0.7-0.5c-0.2,0-0.5,0.1-0.7,0.2l0.1,0.2c0.2-0.1,0.4-0.2,0.6-0.2c0.3,0,0.4,0.1,0.4,0.3c0,0.2-0.2,0.4-0.8,0.5
			l0,0.2c0.5,0,0.8,0.2,0.8,0.4c0,0.2-0.2,0.4-0.6,0.4c-0.2,0-0.4,0-0.6-0.1L39-154.4z"/>
		<text transform="matrix(0.48 0 0 0.48 -29.5 -148.2072)" class="st2 st5 st6">Energy</text>
		<path class="st7" d="M31.3-148.2c0.2,0.1,0.3,0.1,0.5,0.1c0.5,0,0.8-0.3,0.8-0.7c0-0.4-0.3-0.6-0.9-0.6c-0.1,0-0.1,0-0.2,0l0-0.7
			H32c0.2,0,0.4,0,0.6,0c0-0.1,0-0.2,0-0.2c-0.2,0-0.3,0-0.6,0c-0.3,0-0.4,0-0.6,0l0,0c0,0.1,0,0.2,0,0.3l0,0.3c0,0.1,0,0.2,0,0.3
			l0,0c0.1,0,0.2,0,0.3,0c0.5,0,0.7,0.2,0.7,0.4c0,0.2-0.2,0.4-0.6,0.4c-0.2,0-0.4,0-0.6-0.1C31.2-148.5,31.3-148.2,31.3-148.2z"/>
		<path class="st7" d="M33.7-150.4c-0.5,0-0.7,0.5-0.7,1.1c0,0.6,0.2,1.1,0.7,1.1c0.5,0,0.7-0.5,0.7-1.1
			C34.4-149.9,34.1-150.4,33.7-150.4z M33.6-148.3c-0.3,0-0.5-0.4-0.5-0.9c0-0.5,0.2-0.9,0.5-0.9c0.3,0,0.5,0.4,0.5,0.9
			C34.2-148.8,34-148.3,33.6-148.3z"/>
		<path class="st7" d="M35.6-148.2h0.2c0-0.1,0-0.3,0-0.4v-0.2l0.3,0c0-0.1,0-0.1,0-0.2c-0.1,0-0.2,0-0.3,0v-1c0-0.1,0-0.3,0-0.4
			l-0.1,0l-0.2,0.3l-0.9,1.2l0.1,0.1c0.2,0,0.5,0,0.8,0h0.2v0.1C35.6-148.6,35.6-148.3,35.6-148.2z M35.6-150v1h-0.8L35.6-150z"/>
		<path class="st7" d="M36.8-148.3c0-0.1-0.1-0.2-0.2-0.2c-0.1,0-0.2,0.1-0.2,0.2c0,0.1,0.1,0.2,0.2,0.2
			C36.7-148.2,36.8-148.2,36.8-148.3z"/>
		<path class="st7" d="M38.5-150.2l0-0.2c-0.8,0.1-1.2,0.7-1.2,1.4c0,0.5,0.3,0.8,0.7,0.8c0.4,0,0.7-0.3,0.7-0.7
			c0-0.4-0.3-0.7-0.7-0.7c-0.2,0-0.4,0.1-0.6,0.3C37.6-149.7,37.9-150.1,38.5-150.2z M38.5-148.9c0,0.3-0.2,0.5-0.5,0.5
			c-0.3,0-0.5-0.2-0.5-0.5c0-0.3,0.2-0.5,0.5-0.5C38.3-149.3,38.5-149.1,38.5-148.9z"/>
		<path class="st7" d="M39.1-148.3l0,0.2c0.8-0.1,1.2-0.7,1.2-1.4c0-0.5-0.3-0.8-0.7-0.8c-0.4,0-0.7,0.3-0.7,0.7
			c0,0.4,0.3,0.7,0.7,0.7c0.2,0,0.4-0.1,0.6-0.3C40.1-148.8,39.7-148.4,39.1-148.3z M39.2-149.6c0-0.3,0.2-0.5,0.5-0.5
			c0.3,0,0.5,0.2,0.5,0.5c0,0.3-0.2,0.5-0.5,0.5C39.4-149.2,39.2-149.4,39.2-149.6z"/>
		<text transform="matrix(0.48 0 0 0.48 -29.5 -142.0645)" class="st2 st5 st6">W</text>
		<text transform="matrix(0.48 0 0 0.48 -26.6191 -142.0645)" class="st2 st5 st6">a</text>
		<text transform="matrix(0.48 0 0 0.48 -25.151 -142.0645)" class="st2 st5 st6">t</text>
		<text transform="matrix(0.48 0 0 0.48 -24.1127 -142.0645)" class="st2 st5 st6">er and Other U</text>
		<text transform="matrix(0.48 0 0 0.48 -4.8616 -142.0645)" class="st2 st5 st6">r</text>
		<text transform="matrix(0.48 0 0 0.48 -3.8509 -142.0645)" class="st2 st5 st6">b</text>
		<text transform="matrix(0.48 0 0 0.48 -2.1801 -142.0645)" class="st2 st5 st6">an Infr</text>
		<text transform="matrix(0.48 0 0 0.48 6.1006 -142.0645)" class="st2 st5 st6">a</text>
		<text transform="matrix(0.48 0 0 0.48 7.5744 -142.0645)" class="st2 st5 st6">s</text>
		<text transform="matrix(0.48 0 0 0.48 8.8217 -142.0645)" class="st2 st5 st6">tructur</text>
		<text transform="matrix(0.48 0 0 0.48 17.6947 -142.0645)" class="st2 st5 st6">e</text>
		<text transform="matrix(0.48 0 0 0.48 -29.5 -138.3789)" class="st2 st5 st6">and Services</text>
		<path class="st7" d="M35.6-142.1h0.2c0-0.1,0-0.3,0-0.4v-0.2l0.3,0c0-0.1,0-0.1,0-0.2c-0.1,0-0.2,0-0.3,0v-1c0-0.1,0-0.3,0-0.4
			l-0.1,0l-0.2,0.3l-0.9,1.2l0.1,0.1c0.2,0,0.5,0,0.8,0h0.2v0.1C35.6-142.4,35.6-142.2,35.6-142.1z M35.6-143.8v1h-0.8L35.6-143.8z"
			/>
		<path class="st7" d="M36.8-142.2c0-0.1-0.1-0.2-0.2-0.2c-0.1,0-0.2,0.1-0.2,0.2c0,0.1,0.1,0.2,0.2,0.2
			C36.7-142,36.8-142.1,36.8-142.2z"/>
		<path class="st7" d="M38-144.2c-0.5,0-0.7,0.5-0.7,1.1c0,0.6,0.2,1.1,0.7,1.1c0.5,0,0.7-0.5,0.7-1.1
			C38.7-143.7,38.4-144.2,38-144.2z M37.9-142.2c-0.3,0-0.5-0.4-0.5-0.9c0-0.5,0.2-0.9,0.5-0.9s0.5,0.4,0.5,0.9
			C38.5-142.6,38.3-142.2,37.9-142.2z"/>
		<path class="st7" d="M39-142.1c0.2,0.1,0.3,0.1,0.5,0.1c0.5,0,0.8-0.3,0.8-0.7c0-0.4-0.3-0.6-0.9-0.6c-0.1,0-0.1,0-0.2,0l0-0.7
			h0.4c0.2,0,0.4,0,0.6,0c0-0.1,0-0.2,0-0.2c-0.2,0-0.3,0-0.6,0c-0.3,0-0.4,0-0.6,0l0,0c0,0.1,0,0.2,0,0.3l0,0.3c0,0.1,0,0.2,0,0.3
			l0,0c0.1,0,0.2,0,0.3,0c0.5,0,0.7,0.2,0.7,0.4c0,0.2-0.2,0.4-0.6,0.4c-0.2,0-0.4,0-0.6-0.1C39-142.3,39-142.1,39-142.1z"/>
		<text transform="matrix(0.48 0 0 0.48 -29.5 -132.2359)" class="st5 st6">Others</text>
		<text transform="matrix(0.48 0 0 0.48 -25.8142 -126.0934)" class="st2 st5 st6">Education</text>
		<path class="st7" d="M35-126.3c0.2-0.2,0.4-0.4,0.6-0.5c0.3-0.3,0.5-0.5,0.5-0.8c0-0.4-0.3-0.6-0.6-0.6c-0.2,0-0.5,0.1-0.7,0.3
			l0.1,0.2c0.2-0.2,0.4-0.3,0.6-0.3c0.3,0,0.4,0.2,0.4,0.4c0,0.3-0.3,0.7-1.1,1.4l0,0.2c0.2,0,0.4,0,0.7,0c0.3,0,0.5,0,0.7,0
			c0-0.1,0-0.1,0-0.2C35.7-126.3,35.3-126.3,35-126.3z"/>
		<path class="st7" d="M36.8-126.2c0-0.1-0.1-0.2-0.2-0.2c-0.1,0-0.2,0.1-0.2,0.2c0,0.1,0.1,0.2,0.2,0.2
			C36.7-126,36.8-126.1,36.8-126.2z"/>
		<path class="st7" d="M37.3-126.1c0.2,0.1,0.4,0.1,0.5,0.1c0.5,0,0.8-0.3,0.8-0.6c0-0.3-0.2-0.5-0.7-0.5c0.4-0.1,0.6-0.3,0.6-0.6
			c0-0.3-0.3-0.5-0.7-0.5c-0.2,0-0.5,0.1-0.7,0.2l0.1,0.2c0.2-0.1,0.4-0.2,0.6-0.2c0.3,0,0.4,0.1,0.4,0.3c0,0.2-0.2,0.4-0.8,0.5
			l0,0.2c0.5,0,0.8,0.2,0.8,0.4c0,0.2-0.2,0.4-0.6,0.4c-0.2,0-0.4,0-0.6-0.1L37.3-126.1L37.3-126.1z"/>
		<path class="st7" d="M39.1-126.2l0,0.2c0.8-0.1,1.2-0.7,1.2-1.4c0-0.5-0.3-0.8-0.7-0.8c-0.4,0-0.7,0.3-0.7,0.7
			c0,0.4,0.3,0.7,0.7,0.7c0.2,0,0.4-0.1,0.6-0.3C40.1-126.7,39.7-126.3,39.1-126.2z M39.2-127.5c0-0.3,0.2-0.5,0.5-0.5
			c0.3,0,0.5,0.2,0.5,0.5c0,0.3-0.2,0.5-0.5,0.5C39.4-127.1,39.2-127.3,39.2-127.5z"/>
		<text transform="matrix(0.48 0 0 0.48 -25.8142 -119.9505)" class="st2 st5 st6">Industry and T</text>
		<text transform="matrix(0.48 0 0 0.48 -7.4814 -119.9505)" class="st2 st5 st6">r</text>
		<text transform="matrix(0.48 0 0 0.48 -6.5106 -119.9505)" class="st2 st5 st6">a</text>
		<text transform="matrix(0.48 0 0 0.48 -5.0364 -119.9505)" class="st2 st5 st6">d</text>
		<text transform="matrix(0.48 0 0 0.48 -3.3658 -119.9505)" class="st2 st5 st6">e</text>
		<path class="st7" d="M35-120.1c0.2-0.2,0.4-0.4,0.6-0.5c0.3-0.3,0.5-0.6,0.5-0.8c0-0.4-0.3-0.6-0.6-0.6c-0.2,0-0.5,0.1-0.7,0.3
			l0.1,0.2c0.2-0.2,0.4-0.3,0.6-0.3c0.3,0,0.4,0.2,0.4,0.4c0,0.3-0.3,0.7-1.1,1.4l0,0.2c0.2,0,0.4,0,0.7,0c0.3,0,0.5,0,0.7,0
			c0-0.1,0-0.1,0-0.2C35.7-120.1,35.3-120.1,35-120.1z"/>
		<path class="st7" d="M36.8-120.1c0-0.1-0.1-0.2-0.2-0.2c-0.1,0-0.2,0.1-0.2,0.2c0,0.1,0.1,0.2,0.2,0.2
			C36.7-119.9,36.8-120,36.8-120.1z"/>
		<path class="st7" d="M38-122.1c-0.5,0-0.7,0.5-0.7,1.1c0,0.6,0.2,1.1,0.7,1.1c0.5,0,0.7-0.5,0.7-1.1
			C38.7-121.6,38.4-122.1,38-122.1z M37.9-120.1c-0.3,0-0.5-0.4-0.5-0.9c0-0.5,0.2-0.9,0.5-0.9s0.5,0.4,0.5,0.9
			C38.5-120.5,38.3-120.1,37.9-120.1z"/>
		<path class="st7" d="M39.7-122.1c-0.5,0-0.7,0.5-0.7,1.1c0,0.6,0.2,1.1,0.7,1.1c0.5,0,0.7-0.5,0.7-1.1
			C40.4-121.6,40.2-122.1,39.7-122.1z M39.7-120.1c-0.3,0-0.5-0.4-0.5-0.9c0-0.5,0.2-0.9,0.5-0.9s0.5,0.4,0.5,0.9
			C40.2-120.5,40-120.1,39.7-120.1z"/>
		<text transform="matrix(0.48 0 0 0.48 -25.8142 -113.8079)" class="st2 st5 st6">F</text>
		<text transform="matrix(0.48 0 0 0.48 -24.2725 -113.8079)" class="st2 st5 st6">i</text>
		<text transform="matrix(0.48 0 0 0.48 -23.5783 -113.8079)" class="st2 st5 st6">n</text>
		<text transform="matrix(0.48 0 0 0.48 -21.9105 -113.8079)" class="st2 st5 st6">ance</text>
		<path class="st7" d="M36.1-114c-0.1,0-0.3,0-0.4,0h-0.2v-1.6c0-0.1,0-0.3,0-0.4l0,0l-0.2,0.1c-0.1,0-0.4,0.1-0.6,0.2l0,0.2
			l0.5-0.2v1.3c0,0.1,0,0.3,0,0.4h-0.2c-0.1,0-0.2,0-0.4,0c0,0.1,0,0.1,0,0.2c0.2,0,0.3,0,0.5,0h0.3c0.2,0,0.4,0,0.6,0
			C36.1-113.9,36.1-113.9,36.1-114L36.1-114z"/>
		<path class="st7" d="M36.8-113.9c0-0.1-0.1-0.2-0.2-0.2c-0.1,0-0.2,0.1-0.2,0.2c0,0.1,0.1,0.2,0.2,0.2
			C36.7-113.8,36.8-113.8,36.8-113.9z"/>
		<path class="st7" d="M38-116c-0.5,0-0.7,0.5-0.7,1.1c0,0.6,0.2,1.1,0.7,1.1c0.5,0,0.7-0.5,0.7-1.1C38.7-115.5,38.4-116,38-116z
			 M37.9-113.9c-0.3,0-0.5-0.4-0.5-0.9c0-0.5,0.2-0.9,0.5-0.9s0.5,0.4,0.5,0.9C38.5-114.4,38.3-113.9,37.9-113.9z"/>
		<path class="st7" d="M39.7-116c-0.5,0-0.7,0.5-0.7,1.1c0,0.6,0.2,1.1,0.7,1.1c0.5,0,0.7-0.5,0.7-1.1C40.4-115.5,40.2-116,39.7-116
			z M39.7-113.9c-0.3,0-0.5-0.4-0.5-0.9c0-0.5,0.2-0.9,0.5-0.9s0.5,0.4,0.5,0.9C40.2-114.4,40-113.9,39.7-113.9z"/>
		<text transform="matrix(0.48 0 0 0.48 -25.8142 -107.6654)" class="st2 st5 st6">Public Sector Management</text>
		<path class="st7" d="M35.4-109.8c-0.5,0-0.7,0.5-0.7,1.1c0,0.6,0.2,1.1,0.7,1.1c0.5,0,0.7-0.5,0.7-1.1
			C36.1-109.3,35.9-109.8,35.4-109.8z M35.4-107.8c-0.3,0-0.5-0.4-0.5-0.9c0-0.5,0.2-0.9,0.5-0.9c0.3,0,0.5,0.4,0.5,0.9
			C35.9-108.2,35.7-107.8,35.4-107.8z"/>
		<path class="st7" d="M36.8-107.8c0-0.1-0.1-0.2-0.2-0.2c-0.1,0-0.2,0.1-0.2,0.2c0,0.1,0.1,0.2,0.2,0.2
			C36.7-107.6,36.8-107.7,36.8-107.8z"/>
		<path class="st7" d="M37.3-107.7c0.2,0.1,0.3,0.1,0.5,0.1c0.5,0,0.8-0.3,0.8-0.7c0-0.4-0.3-0.6-0.9-0.6c-0.1,0-0.1,0-0.2,0l0-0.7
			H38c0.2,0,0.4,0,0.6,0c0-0.1,0-0.2,0-0.2c-0.2,0-0.3,0-0.6,0c-0.3,0-0.4,0-0.6,0l0,0c0,0.1,0,0.2,0,0.3l0,0.3c0,0.1,0,0.2,0,0.3
			l0,0c0.1,0,0.2,0,0.3,0c0.5,0,0.7,0.2,0.7,0.4c0,0.2-0.2,0.4-0.6,0.4c-0.2,0-0.4,0-0.6-0.1C37.2-107.9,37.3-107.7,37.3-107.7z"/>
		<path class="st7" d="M39.7-109.8c-0.5,0-0.7,0.5-0.7,1.1c0,0.6,0.2,1.1,0.7,1.1c0.5,0,0.7-0.5,0.7-1.1
			C40.4-109.3,40.2-109.8,39.7-109.8z M39.7-107.8c-0.3,0-0.5-0.4-0.5-0.9c0-0.5,0.2-0.9,0.5-0.9s0.5,0.4,0.5,0.9
			C40.2-108.2,40-107.8,39.7-107.8z"/>
		<path class="st7" d="M-11.2-101c0.3-0.2,0.4-0.4,0.4-0.6c0-0.2-0.1-0.3-0.2-0.3c-0.1,0-0.2,0.1-0.2,0.2l0,0c0.1,0,0.1,0.1,0.1,0.2
			c0,0.1-0.1,0.2-0.2,0.3l0,0C-11.3-101.1-11.2-101-11.2-101z"/>
		<path class="st7" d="M13.8-101c0.3-0.2,0.4-0.4,0.4-0.6c0-0.2-0.1-0.3-0.2-0.3c-0.1,0-0.2,0.1-0.2,0.2l0,0c0.1,0,0.1,0.1,0.1,0.2
			c0,0.1-0.1,0.2-0.2,0.3l0,0C13.7-101.1,13.8-101,13.8-101z"/>
		<text transform="matrix(0.48 0 0 0.48 -25.8142 -101.5225)" class="st2 st5 st6">Agricultur</text>
		<text transform="matrix(0.48 0 0 0.48 -13.019 -101.5225)" class="st2 st5 st6">e</text>
		<text transform="matrix(0.48 0 0 0.48 -10.6234 -101.5225)" class="st2 st5 st6"> </text>
		<text transform="matrix(0.48 0 0 0.48 -9.9876 -101.5225)" class="st2 st5 st6">Natur</text>
		<text transform="matrix(0.48 0 0 0.48 -2.4564 -101.5225)" class="st2 st5 st6">a</text>
		<text transform="matrix(0.48 0 0 0.48 -0.9822 -101.5225)" class="st2 st5 st6">l</text>
		<text transform="matrix(0.48 0 0 0.48 -0.288 -101.5225)" class="st2 st5 st6"> R</text>
		<text transform="matrix(0.48 0 0 0.48 2.2091 -101.5225)" class="st2 st5 st6">e</text>
		<text transform="matrix(0.48 0 0 0.48 3.7447 -101.5225)" class="st2 st5 st6">s</text>
		<text transform="matrix(0.48 0 0 0.48 4.9916 -101.5225)" class="st2 st5 st6">our</text>
		<text transform="matrix(0.48 0 0 0.48 9.3041 -101.5225)" class="st2 st5 st6">c</text>
		<text transform="matrix(0.48 0 0 0.48 10.775 -101.5225)" class="st2 st5 st6">es</text>
		<text transform="matrix(0.48 0 0 0.48 14.4022 -101.5225)" class="st2 st5 st6"> </text>
		<text transform="matrix(0.48 0 0 0.48 15.0379 -101.5225)" class="st2 st5 st6">and</text>
		<text transform="matrix(0.48 0 0 0.48 -25.8142 -97.8367)" class="st2 st5 st6">R</text>
		<text transform="matrix(0.48 0 0 0.48 -23.9378 -97.8367)" class="st2 st5 st6">u</text>
		<text transform="matrix(0.48 0 0 0.48 -22.267 -97.8367)" class="st2 st5 st6">r</text>
		<text transform="matrix(0.48 0 0 0.48 -21.2964 -97.8367)" class="st2 st5 st6">a</text>
		<text transform="matrix(0.48 0 0 0.48 -19.8222 -97.8367)" class="st2 st5 st6">l</text>
		<text transform="matrix(0.48 0 0 0.48 -19.128 -97.8367)" class="st2 st5 st6"> Dev</text>
		<text transform="matrix(0.48 0 0 0.48 -13.2986 -97.8367)" class="st2 st5 st6">e</text>
		<text transform="matrix(0.48 0 0 0.48 -11.7627 -97.8367)" class="st2 st5 st6">l</text>
		<text transform="matrix(0.48 0 0 0.48 -11.0688 -97.8367)" class="st2 st5 st6">opment</text>
		<path class="st7" d="M35.4-103.7c-0.5,0-0.7,0.5-0.7,1.1c0,0.6,0.2,1.1,0.7,1.1c0.5,0,0.7-0.5,0.7-1.1
			C36.1-103.2,35.9-103.7,35.4-103.7z M35.4-101.7c-0.3,0-0.5-0.4-0.5-0.9c0-0.5,0.2-0.9,0.5-0.9c0.3,0,0.5,0.4,0.5,0.9
			C35.9-102.1,35.7-101.7,35.4-101.7z"/>
		<path class="st7" d="M36.8-101.6c0-0.1-0.1-0.2-0.2-0.2c-0.1,0-0.2,0.1-0.2,0.2c0,0.1,0.1,0.2,0.2,0.2
			C36.7-101.5,36.8-101.6,36.8-101.6z"/>
		<path class="st7" d="M37.5-101.7c0.2-0.2,0.4-0.4,0.6-0.5c0.3-0.3,0.5-0.5,0.5-0.8c0-0.4-0.3-0.6-0.6-0.6c-0.2,0-0.5,0.1-0.7,0.3
			l0.1,0.2c0.2-0.2,0.4-0.3,0.6-0.3c0.3,0,0.4,0.2,0.4,0.4c0,0.3-0.3,0.7-1.1,1.4l0,0.2c0.2,0,0.4,0,0.7,0c0.3,0,0.5,0,0.7,0
			c0-0.1,0-0.1,0-0.2C38.3-101.7,37.9-101.7,37.5-101.7z"/>
		<path class="st7" d="M39.7-103.7c-0.5,0-0.7,0.5-0.7,1.1c0,0.6,0.2,1.1,0.7,1.1c0.5,0,0.7-0.5,0.7-1.1
			C40.4-103.2,40.2-103.7,39.7-103.7z M39.7-101.7c-0.3,0-0.5-0.4-0.5-0.9c0-0.5,0.2-0.9,0.5-0.9s0.5,0.4,0.5,0.9
			C40.2-102.1,40-101.7,39.7-101.7z"/>
		<text transform="matrix(0.48 0 0 0.48 -29.5 -91.6698)" class="st2 st8 st6">T</text>
		<text transform="matrix(0.48 0 0 0.48 -27.7586 -91.6698)" class="st2 st8 st6">o</text>
		<text transform="matrix(0.48 0 0 0.48 -26.0385 -91.6698)" class="st2 st8 st6">t</text>
		<text transform="matrix(0.48 0 0 0.48 -24.8439 -91.6698)" class="st2 st8 st6">al</text>
		<path class="st7" d="M30.1-92.1c-0.1,0-0.3,0-0.4,0h-0.1v-1.3c0-0.1,0-0.3,0-0.4l-0.2,0l-0.2,0.1c-0.1,0-0.4,0.1-0.6,0.2l0.1,0.4
			l0.4-0.1v1c0,0.1,0,0.1,0,0.2H29c-0.1,0-0.3,0-0.4,0c0,0.1,0,0.3,0,0.4c0.2,0,0.3,0,0.4,0h0.4c0.2,0,0.4,0,0.6,0
			C30.1-91.7,30.1-92,30.1-92.1z"/>
		<path class="st7" d="M30.4-91c0.4-0.2,0.6-0.5,0.6-0.8c0-0.2-0.1-0.3-0.3-0.3c-0.1,0-0.3,0.1-0.3,0.3l0.1,0
			c0.1,0.1,0.2,0.1,0.2,0.2c0,0.1-0.1,0.2-0.3,0.4l0,0L30.4-91z"/>
		<path class="st7" d="M32.7-92.1c-0.1,0-0.3,0-0.4,0h-0.1v-1.3c0-0.1,0-0.3,0-0.4l-0.2,0l-0.2,0.1c-0.1,0-0.4,0.1-0.6,0.2l0.1,0.4
			l0.4-0.1v1c0,0.1,0,0.1,0,0.2h-0.1c-0.1,0-0.3,0-0.4,0c0,0.1,0,0.3,0,0.4c0.2,0,0.3,0,0.4,0h0.4c0.2,0,0.4,0,0.6,0
			C32.7-91.7,32.7-92,32.7-92.1z"/>
		<path class="st7" d="M33.5-92.1c0.1-0.1,0.3-0.3,0.4-0.4c0.2-0.3,0.4-0.5,0.4-0.8c0-0.4-0.3-0.6-0.7-0.6c-0.3,0-0.5,0.1-0.7,0.2
			l0.1,0.4c0.2-0.1,0.4-0.2,0.5-0.2c0.2,0,0.3,0.1,0.3,0.3c0,0.3-0.3,0.6-1,1.1l0,0.3c0.2,0,0.5,0,0.7,0c0.3,0,0.5,0,0.7,0
			c0-0.2,0-0.3,0-0.4C34.1-92.1,33.8-92.1,33.5-92.1z"/>
		<path class="st7" d="M35.2-92.1c0.1-0.1,0.3-0.3,0.4-0.4c0.2-0.3,0.4-0.5,0.4-0.8c0-0.4-0.3-0.6-0.7-0.6c-0.3,0-0.5,0.1-0.7,0.2
			l0.1,0.4c0.2-0.1,0.4-0.2,0.5-0.2c0.2,0,0.3,0.1,0.3,0.3c0,0.3-0.3,0.6-1,1.1l0,0.3c0.2,0,0.5,0,0.7,0c0.3,0,0.5,0,0.7,0
			c0-0.2,0-0.3,0-0.4C35.9-92.1,35.5-92.1,35.2-92.1z"/>
		<path class="st7" d="M36.9-91.9c0-0.2-0.1-0.3-0.3-0.3c-0.2,0-0.3,0.1-0.3,0.3c0,0.1,0.1,0.3,0.3,0.3
			C36.8-91.6,36.9-91.7,36.9-91.9z"/>
		<path class="st7" d="M38-93.8c-0.5,0-0.8,0.5-0.8,1.1c0,0.6,0.2,1.1,0.7,1.1c0.5,0,0.8-0.5,0.8-1.1C38.7-93.4,38.5-93.8,38-93.8z
			 M37.9-92c-0.2,0-0.3-0.2-0.3-0.7c0-0.4,0.1-0.7,0.3-0.7c0.2,0,0.3,0.2,0.3,0.7C38.3-92.3,38.2-92,37.9-92z"/>
		<path class="st7" d="M40.3-93.5l-0.1-0.4c-0.8,0.1-1.3,0.6-1.3,1.3c0,0.6,0.3,0.9,0.8,0.9c0.5,0,0.8-0.3,0.8-0.8
			c0-0.4-0.3-0.7-0.6-0.7c-0.2,0-0.3,0.1-0.4,0.2C39.5-93.2,39.8-93.4,40.3-93.5z M40-92.3c0,0.2-0.1,0.4-0.3,0.4
			c-0.2,0-0.3-0.1-0.3-0.4c0-0.2,0.1-0.4,0.3-0.4C39.9-92.7,40-92.6,40-92.3z"/>
		<path class="st9" d="M-31.3-158.4h73.7 M-31.3-152.3h73.7 M-31.3-146.1h73.7 M-31.3-136.3h73.7 M-31.3-130.1h73.7 M-31.3-124h73.7
			 M-31.3-117.9h73.7 M-31.3-111.7h73.7 M-31.3-105.6h73.7 M-31.3-95.7h73.7 M-31.3-89.6h73.7"/>
	</g>
	<path class="st10" d="M73.2,0C73.2,0,73.2,0,73.2,0l0.1,14.2c0,0,0,0,0,0C73.2,14.2,73.2,0,73.2,0z"/>
	<path class="st11" d="M73,0c0.1,0,0.1,0,0.2,0l0,14.2c0,0-0.1,0-0.1,0C73.1,14.2,73,0,73,0z"/>
	<path class="st12" d="M72.7,0c0.1,0,0.2,0,0.3,0l0.1,14.2c-0.1,0-0.2,0-0.2,0C72.9,14.2,72.7,0,72.7,0z"/>
	<path class="st13" d="M72.1,0c0.2,0,0.4,0,0.6,0l0.1,14.2c-0.2,0-0.3,0-0.5,0C72.4,14.2,72.1,0,72.1,0z"/>
	<path class="st14" d="M71.3,0c0.3,0,0.5,0,0.8,0l0.3,14.2c-0.2,0-0.4,0-0.6,0C71.8,14.3,71.3,0,71.3,0z"/>
	<path class="st15" d="M70,0.1c0.4,0,0.9,0,1.3-0.1l0.5,14.2c-0.3,0-0.6,0-1,0C70.8,14.3,70,0.1,70,0.1z"/>
	<path class="st16" d="M58.7,111.9C31.7,104.8,13.8,79,16.6,51.2C19.5,23.3,42.1,1.7,70,0.1l0.8,14.2c-21,1.2-37.9,17.4-40,38.3
		c-2.1,20.9,11.3,40.2,31.6,45.6C62.3,98.2,58.7,111.9,58.7,111.9z"/>
	<path class="st17" d="M73.3,0c22.1,0,42.2,12.8,51.6,32.8c9.4,20,6.3,43.6-7.9,60.6s-36.9,24.2-58.2,18.5l3.6-13.8
		c16,4.2,33.1-1.2,43.7-13.9c10.6-12.7,12.9-30.4,5.9-45.5c-7-15-22.1-24.6-38.7-24.6C73.3,14.2,73.3,0,73.3,0z"/>
</g>
</svg>
