<?xml version="1.0" encoding="utf-8"?>
<!-- Generator: Adobe Illustrator 24.1.0, SVG Export Plug-In . SVG Version: 6.00 Build 0)  -->
<svg version="1.1" id="Layer_1" xmlns:serif="http://www.serif.com/"
	 xmlns="http://www.w3.org/2000/svg" xmlns:xlink="http://www.w3.org/1999/xlink" x="0px" y="0px" viewBox="0 0 153.6 412.7"
	 style="enable-background:new 0 0 153.6 412.7;" xml:space="preserve">
<style type="text/css">
	.st0{display:none;}
	.st1{display:inline;}
	.st2{display:inline;clip-path:url(#SVGID_2_);}
	.st3{clip-path:url(#SVGID_4_);}
	.st4{fill:#1A1A1A;}
	.st5{font-family:'IdealSans-ExtraLight';}
	.st6{font-size:11.5177px;}
	.st7{font-family:'IdealSans-Light';}
	.st8{font-size:6.3987px;}
	.st9{fill-rule:evenodd;clip-rule:evenodd;fill:#1A1A1A;}
	.st10{fill-rule:evenodd;clip-rule:evenodd;}
	.st11{font-family:'IdealSans-Semibold';}
	.st12{fill:none;stroke:#1A1A1A;stroke-width:0.16;stroke-miterlimit:2.5595;}
	.st13{fill:#E0E0E0;}
	.st14{fill:#D0D0D0;}
	.st15{fill:#C0C0C0;}
	.st16{fill:#B0B0B0;}
	.st17{fill:#A0A0A0;}
	.st18{fill:#909090;}
	.st19{fill:#808080;}
	.st20{fill:#707070;}
	.st21{fill:#606060;}
	.st22{fill:#505050;}
	.st23{fill:#404040;}
	.st24{fill:#303030;}
	.st25{fill:#202020;}
	.st26{fill:#F8947B;}
	.st27{fill:#F0704F;}
	.st28{fill:#E9522B;}
</style>
<g class="st0">
	<defs>
		<rect id="SVGID_1_" x="-18.9" y="-17.8" width="192" height="511.9"/>
	</defs>
	<clipPath id="SVGID_2_" class="st1">
		<use xlink:href="#SVGID_1_"  style="overflow:visible;"/>
	</clipPath>
	<g class="st2">
		<g>
			<defs>
				<rect id="SVGID_3_" x="-18.9" y="-17.8" width="192" height="511.9"/>
			</defs>
			<clipPath id="SVGID_4_">
				<use xlink:href="#SVGID_3_"  style="overflow:visible;"/>
			</clipPath>
			<g class="st3">
				<g id="Layer-1" serif:id="Layer 1">
				</g>
			</g>
		</g>
	</g>
</g>
<g id="Layer-11" serif:id="Layer 1">
	<g transform="matrix(2.08333,0,0,2.08333,61.4583,478.168)">
		<text transform="matrix(0.48 0 0 0.48 -4.0046 -161.7906)" class="st4 st5 st6">B</text>
		<text transform="matrix(0.48 0 0 0.48 -0.8035 -161.7906)" class="st4 st5 st6">y</text>
		<text transform="matrix(0.48 0 0 0.48 1.6733 -161.7906)" class="st4 st5 st6"> </text>
		<text transform="matrix(0.48 0 0 0.48 2.7679 -161.7906)" class="st4 st5 st6">Sour</text>
		<text transform="matrix(0.48 0 0 0.48 13.3218 -161.7906)" class="st4 st5 st6">c</text>
		<text transform="matrix(0.48 0 0 0.48 15.9534 -161.7906)" class="st4 st5 st6">e</text>
		<text transform="matrix(0.48 0 0 0.48 -27.6573 -153.5865)" class="st4 st7 st8">J</text>
		<text transform="matrix(0.48 0 0 0.48 -26.4564 -153.5865)" class="st4 st7 st8">a</text>
		<text transform="matrix(0.48 0 0 0.48 -24.9822 -153.5865)" class="st4 st7 st8">p</text>
		<text transform="matrix(0.48 0 0 0.48 -23.3113 -153.5865)" class="st4 st7 st8">an</text>
		<path class="st9" d="M30.8-153.8c0.2-0.2,0.4-0.4,0.6-0.5c0.3-0.3,0.5-0.5,0.5-0.8c0-0.4-0.3-0.6-0.6-0.6c-0.2,0-0.5,0.1-0.7,0.3
			l0.1,0.2c0.2-0.2,0.4-0.3,0.6-0.3c0.3,0,0.4,0.2,0.4,0.4c0,0.3-0.3,0.7-1.1,1.4l0,0.2c0.2,0,0.4,0,0.7,0c0.3,0,0.5,0,0.7,0
			c0-0.1,0-0.1,0-0.2C31.6-153.8,31.1-153.8,30.8-153.8z"/>
		<path class="st9" d="M32.3-153c0.3-0.2,0.4-0.4,0.4-0.6c0-0.2-0.1-0.3-0.2-0.3c-0.1,0-0.2,0.1-0.2,0.2l0,0c0.1,0,0.1,0.1,0.1,0.2
			c0,0.1-0.1,0.2-0.2,0.3l0,0L32.3-153z"/>
		<path class="st9" d="M33.8-155.7c-0.5,0-0.7,0.5-0.7,1.1c0,0.6,0.2,1.1,0.7,1.1c0.5,0,0.7-0.5,0.7-1.1
			C34.5-155.3,34.3-155.7,33.8-155.7z M33.8-153.7c-0.3,0-0.5-0.4-0.5-0.9c0-0.5,0.2-0.9,0.5-0.9s0.5,0.4,0.5,0.9
			C34.3-154.1,34.1-153.7,33.8-153.7z"/>
		<path class="st9" d="M35.1-153.8c0.2-0.2,0.4-0.4,0.6-0.5c0.3-0.3,0.5-0.5,0.5-0.8c0-0.4-0.3-0.6-0.6-0.6c-0.2,0-0.5,0.1-0.7,0.3
			l0.1,0.2c0.2-0.2,0.4-0.3,0.6-0.3c0.3,0,0.4,0.2,0.4,0.4c0,0.3-0.3,0.7-1.1,1.4l0,0.2c0.2,0,0.4,0,0.7,0c0.3,0,0.5,0,0.7,0
			c0-0.1,0-0.1,0-0.2C35.9-153.8,35.4-153.8,35.1-153.8z"/>
		<path class="st9" d="M36.5-155.7c0,0.1,0,0.2,0,0.2c0.2,0,0.4,0,0.7,0c0.2,0,0.4,0,0.5,0l-0.7,1.3c-0.1,0.2-0.2,0.4-0.3,0.5l0.2,0
			c0-0.1,0.1-0.3,0.2-0.4l0.7-1.3c0.1-0.1,0.1-0.3,0.2-0.3l-0.1-0.1c-0.2,0-0.5,0-0.7,0C36.9-155.7,36.7-155.7,36.5-155.7z"/>
		<path class="st9" d="M38.7-153.7c0-0.1-0.1-0.2-0.2-0.2c-0.1,0-0.2,0.1-0.2,0.2c0,0.1,0.1,0.2,0.2,0.2
			C38.6-153.5,38.7-153.6,38.7-153.7z"/>
		<path class="st9" d="M40.4-155.6l0-0.2c-0.8,0.1-1.2,0.7-1.2,1.4c0,0.5,0.3,0.8,0.7,0.8c0.4,0,0.7-0.3,0.7-0.7
			c0-0.4-0.3-0.7-0.7-0.7c-0.2,0-0.4,0.1-0.6,0.3C39.4-155.1,39.7-155.5,40.4-155.6z M40.3-154.2c0,0.3-0.2,0.5-0.5,0.5
			c-0.3,0-0.5-0.2-0.5-0.5c0-0.3,0.2-0.5,0.5-0.5C40.1-154.7,40.3-154.5,40.3-154.2z"/>
		<path class="st9" d="M40.8-153.6c0.2,0.1,0.3,0.1,0.5,0.1c0.5,0,0.8-0.3,0.8-0.7c0-0.4-0.3-0.6-0.9-0.6c-0.1,0-0.1,0-0.2,0l0-0.7
			h0.4c0.2,0,0.4,0,0.6,0c0-0.1,0-0.2,0-0.2c-0.2,0-0.3,0-0.6,0c-0.3,0-0.4,0-0.6,0l0,0c0,0.1,0,0.2,0,0.3l0,0.3c0,0.1,0,0.2,0,0.3
			l0,0c0.1,0,0.2,0,0.3,0c0.5,0,0.7,0.2,0.7,0.4c0,0.2-0.2,0.4-0.6,0.4c-0.2,0-0.4,0-0.6-0.1C40.8-153.8,40.8-153.6,40.8-153.6z"/>
		<text transform="matrix(0.48 0 0 0.48 -27.6573 -147.4435)" class="st4 st7 st8">Germany</text>
		<path class="st9" d="M33.1-147.5c0.2,0.1,0.3,0.1,0.5,0.1c0.5,0,0.8-0.3,0.8-0.7c0-0.4-0.3-0.6-0.9-0.6c-0.1,0-0.1,0-0.2,0l0-0.7
			h0.4c0.2,0,0.4,0,0.6,0c0-0.1,0-0.2,0-0.2c-0.2,0-0.3,0-0.6,0c-0.3,0-0.4,0-0.6,0l0,0c0,0.1,0,0.2,0,0.3l0,0.3c0,0.1,0,0.2,0,0.3
			l0,0c0.1,0,0.2,0,0.3,0c0.5,0,0.7,0.2,0.7,0.4c0,0.2-0.2,0.4-0.6,0.4c-0.2,0-0.4,0-0.6-0.1C33.1-147.7,33.1-147.5,33.1-147.5z"/>
		<path class="st9" d="M34.8-147.5c0.2,0.1,0.3,0.1,0.5,0.1c0.5,0,0.8-0.3,0.8-0.7c0-0.4-0.3-0.6-0.9-0.6c-0.1,0-0.1,0-0.2,0l0-0.7
			h0.4c0.2,0,0.4,0,0.6,0c0-0.1,0-0.2,0-0.2c-0.2,0-0.3,0-0.6,0c-0.3,0-0.4,0-0.6,0l0,0c0,0.1,0,0.2,0,0.3l0,0.3c0,0.1,0,0.2,0,0.3
			l0,0c0.1,0,0.2,0,0.3,0c0.5,0,0.7,0.2,0.7,0.4c0,0.2-0.2,0.4-0.6,0.4c-0.2,0-0.4,0-0.6-0.1C34.8-147.7,34.8-147.5,34.8-147.5z"/>
		<path class="st9" d="M36.5-147.5c0.2,0.1,0.4,0.1,0.5,0.1c0.5,0,0.8-0.3,0.8-0.6c0-0.3-0.2-0.5-0.7-0.5c0.4-0.1,0.6-0.3,0.6-0.6
			c0-0.3-0.3-0.5-0.7-0.5c-0.2,0-0.5,0.1-0.7,0.2l0.1,0.2c0.2-0.1,0.4-0.2,0.6-0.2c0.3,0,0.4,0.1,0.4,0.3c0,0.2-0.2,0.4-0.8,0.5
			l0,0.2c0.5,0,0.8,0.2,0.8,0.4c0,0.2-0.2,0.4-0.6,0.4c-0.2,0-0.4,0-0.6-0.1C36.5-147.7,36.5-147.5,36.5-147.5z"/>
		<path class="st9" d="M38.7-147.6c0-0.1-0.1-0.2-0.2-0.2c-0.1,0-0.2,0.1-0.2,0.2c0,0.1,0.1,0.2,0.2,0.2
			C38.6-147.4,38.7-147.5,38.7-147.6z"/>
		<path class="st9" d="M39.1-149.6c0,0.1,0,0.2,0,0.2c0.2,0,0.4,0,0.7,0c0.2,0,0.4,0,0.5,0l-0.7,1.3c-0.1,0.2-0.2,0.4-0.3,0.5l0.2,0
			c0-0.1,0.1-0.3,0.2-0.4l0.7-1.3c0.1-0.1,0.1-0.3,0.2-0.3l-0.1-0.1c-0.2,0-0.5,0-0.7,0C39.5-149.5,39.3-149.5,39.1-149.6z"/>
		<path class="st9" d="M41.5-149.6c-0.5,0-0.7,0.5-0.7,1.1c0,0.6,0.2,1.1,0.7,1.1c0.5,0,0.7-0.5,0.7-1.1
			C42.2-149.1,42-149.6,41.5-149.6z M41.5-147.6c-0.3,0-0.5-0.4-0.5-0.9c0-0.5,0.2-0.9,0.5-0.9s0.5,0.4,0.5,0.9
			C42-148,41.8-147.6,41.5-147.6z"/>
		<text transform="matrix(0.48 0 0 0.48 -27.6573 -141.3008)" class="st4 st7 st8">Austr</text>
		<text transform="matrix(0.48 0 0 0.48 -20.6115 -141.3008)" class="st4 st7 st8">a</text>
		<text transform="matrix(0.48 0 0 0.48 -19.1373 -141.3008)" class="st4 st7 st8">l</text>
		<text transform="matrix(0.48 0 0 0.48 -18.4431 -141.3008)" class="st4 st7 st8">ia</text>
		<path class="st9" d="M35.1-141.5c0.2-0.2,0.4-0.4,0.6-0.5c0.3-0.3,0.5-0.5,0.5-0.8c0-0.4-0.3-0.6-0.6-0.6c-0.2,0-0.5,0.1-0.7,0.3
			l0.1,0.2c0.2-0.2,0.4-0.3,0.6-0.3c0.3,0,0.4,0.2,0.4,0.4c0,0.3-0.3,0.7-1.1,1.4l0,0.2c0.2,0,0.4,0,0.7,0c0.3,0,0.5,0,0.7,0
			c0-0.1,0-0.1,0-0.2C35.9-141.5,35.4-141.5,35.1-141.5z"/>
		<path class="st9" d="M36.6-141.4l0,0.2c0.8-0.1,1.2-0.7,1.2-1.4c0-0.5-0.3-0.8-0.7-0.8c-0.4,0-0.7,0.3-0.7,0.7
			c0,0.4,0.3,0.7,0.7,0.7c0.2,0,0.4-0.1,0.6-0.3C37.6-141.9,37.3-141.5,36.6-141.4z M36.7-142.7c0-0.3,0.2-0.5,0.5-0.5
			c0.3,0,0.5,0.2,0.5,0.5c0,0.3-0.2,0.5-0.5,0.5C36.9-142.3,36.7-142.5,36.7-142.7z"/>
		<path class="st9" d="M38.7-141.4c0-0.1-0.1-0.2-0.2-0.2c-0.1,0-0.2,0.1-0.2,0.2c0,0.1,0.1,0.2,0.2,0.2
			C38.6-141.3,38.7-141.3,38.7-141.4z"/>
		<path class="st9" d="M39.1-143.4c0,0.1,0,0.2,0,0.2c0.2,0,0.4,0,0.7,0c0.2,0,0.4,0,0.5,0l-0.7,1.3c-0.1,0.2-0.2,0.4-0.3,0.5l0.2,0
			c0-0.1,0.1-0.3,0.2-0.4l0.7-1.3c0.1-0.1,0.1-0.3,0.2-0.3l-0.1-0.1c-0.2,0-0.5,0-0.7,0C39.5-143.4,39.3-143.4,39.1-143.4z"/>
		<path class="st9" d="M41.5-143.5c-0.5,0-0.7,0.5-0.7,1.1c0,0.6,0.2,1.1,0.7,1.1c0.5,0,0.7-0.5,0.7-1.1
			C42.2-143,42-143.5,41.5-143.5z M41.5-141.4c-0.3,0-0.5-0.4-0.5-0.9c0-0.5,0.2-0.9,0.5-0.9s0.5,0.4,0.5,0.9
			C42-141.9,41.8-141.4,41.5-141.4z"/>
		<text transform="matrix(0.48 0 0 0.48 -27.6573 -135.1581)" class="st7 st8">Others</text>
		<text transform="matrix(0.48 0 0 0.48 -23.9715 -129.0153)" class="st4 st7 st8">Str</text>
		<text transform="matrix(0.48 0 0 0.48 -20.3875 -129.0153)" class="st4 st7 st8">a</text>
		<text transform="matrix(0.48 0 0 0.48 -18.9193 -129.0153)" class="st4 st7 st8">t</text>
		<text transform="matrix(0.48 0 0 0.48 -17.8811 -129.0153)" class="st4 st7 st8">egic Climate F</text>
		<text transform="matrix(0.48 0 0 0.48 3.412458e-02 -129.0153)" class="st4 st7 st8">u</text>
		<text transform="matrix(0.48 0 0 0.48 1.7052 -129.0153)" class="st4 st7 st8">n</text>
		<text transform="matrix(0.48 0 0 0.48 3.373 -129.0153)" class="st4 st7 st8">d</text>
		<path class="st9" d="M36.2-129.2c-0.1,0-0.3,0-0.4,0h-0.2v-1.6c0-0.1,0-0.3,0-0.4l0,0l-0.2,0.1c-0.1,0-0.4,0.1-0.6,0.2l0,0.2
			l0.5-0.2v1.3c0,0.1,0,0.3,0,0.4h-0.2c-0.1,0-0.2,0-0.4,0c0,0.1,0,0.1,0,0.2c0.2,0,0.3,0,0.5,0h0.3c0.2,0,0.4,0,0.6,0
			C36.2-129.1,36.2-129.2,36.2-129.2L36.2-129.2z"/>
		<path class="st9" d="M37.5-129h0.2c0-0.1,0-0.3,0-0.4v-0.2l0.3,0c0-0.1,0-0.1,0-0.2c-0.1,0-0.2,0-0.3,0v-1c0-0.1,0-0.3,0-0.4
			l-0.1,0l-0.2,0.3l-0.9,1.2l0.1,0.1c0.2,0,0.5,0,0.8,0h0.2v0.1C37.5-129.4,37.5-129.1,37.5-129z M37.5-130.8v1h-0.8L37.5-130.8z"/>
		<path class="st9" d="M38.7-129.1c0-0.1-0.1-0.2-0.2-0.2c-0.1,0-0.2,0.1-0.2,0.2c0,0.1,0.1,0.2,0.2,0.2
			C38.6-129,38.7-129,38.7-129.1z"/>
		<path class="st9" d="M39.8-131.2c-0.5,0-0.7,0.5-0.7,1.1c0,0.6,0.2,1.1,0.7,1.1c0.5,0,0.7-0.5,0.7-1.1
			C40.5-130.7,40.3-131.2,39.8-131.2z M39.8-129.2c-0.3,0-0.5-0.4-0.5-0.9c0-0.5,0.2-0.9,0.5-0.9s0.5,0.4,0.5,0.9
			C40.3-129.6,40.1-129.2,39.8-129.2z"/>
		<path class="st9" d="M41.5-131.2c-0.5,0-0.7,0.5-0.7,1.1c0,0.6,0.2,1.1,0.7,1.1c0.5,0,0.7-0.5,0.7-1.1
			C42.2-130.7,42-131.2,41.5-131.2z M41.5-129.2c-0.3,0-0.5-0.4-0.5-0.9c0-0.5,0.2-0.9,0.5-0.9s0.5,0.4,0.5,0.9
			C42-129.6,41.8-129.2,41.5-129.2z"/>
		<text transform="matrix(0.48 0 0 0.48 -23.9715 -122.8726)" class="st4 st7 st8">U</text>
		<text transform="matrix(0.48 0 0 0.48 -21.7389 -122.8726)" class="st4 st7 st8">r</text>
		<text transform="matrix(0.48 0 0 0.48 -20.7283 -122.8726)" class="st4 st7 st8">b</text>
		<text transform="matrix(0.48 0 0 0.48 -19.0576 -122.8726)" class="st4 st7 st8">an Climate Change R</text>
		<text transform="matrix(0.48 0 0 0.48 7.7619 -122.8726)" class="st4 st7 st8">e</text>
		<text transform="matrix(0.48 0 0 0.48 9.2976 -122.8726)" class="st4 st7 st8">s</text>
		<text transform="matrix(0.48 0 0 0.48 10.5445 -122.8726)" class="st4 st7 st8">ilience</text>
		<text transform="matrix(0.48 0 0 0.48 -23.9715 -119.1868)" class="st4 st7 st8">T</text>
		<text transform="matrix(0.48 0 0 0.48 -22.3314 -119.1868)" class="st4 st7 st8">r</text>
		<text transform="matrix(0.48 0 0 0.48 -21.3212 -119.1868)" class="st4 st7 st8">u</text>
		<text transform="matrix(0.48 0 0 0.48 -19.6501 -119.1868)" class="st4 st7 st8">st F</text>
		<text transform="matrix(0.48 0 0 0.48 -15.249 -119.1868)" class="st4 st7 st8">u</text>
		<text transform="matrix(0.48 0 0 0.48 -13.5779 -119.1868)" class="st4 st7 st8">nd</text>
		<path class="st9" d="M36.5-125c0,0.1,0,0.2,0,0.2c0.2,0,0.4,0,0.7,0c0.2,0,0.4,0,0.5,0l-0.7,1.3c-0.1,0.2-0.2,0.4-0.3,0.5l0.2,0
			c0-0.1,0.1-0.3,0.2-0.4l0.7-1.3c0.1-0.1,0.1-0.3,0.2-0.3l-0.1-0.1c-0.2,0-0.5,0-0.7,0C36.9-125,36.7-125,36.5-125z"/>
		<path class="st9" d="M38.7-123c0-0.1-0.1-0.2-0.2-0.2c-0.1,0-0.2,0.1-0.2,0.2c0,0.1,0.1,0.2,0.2,0.2
			C38.6-122.8,38.7-122.9,38.7-123z"/>
		<path class="st9" d="M39.1-125c0,0.1,0,0.2,0,0.2c0.2,0,0.4,0,0.7,0c0.2,0,0.4,0,0.5,0l-0.7,1.3c-0.1,0.2-0.2,0.4-0.3,0.5l0.2,0
			c0-0.1,0.1-0.3,0.2-0.4l0.7-1.3c0.1-0.1,0.1-0.3,0.2-0.3l-0.1-0.1c-0.2,0-0.5,0-0.7,0C39.5-125,39.3-125,39.1-125z"/>
		<path class="st9" d="M41.5-125c-0.5,0-0.7,0.5-0.7,1.1c0,0.6,0.2,1.1,0.7,1.1c0.5,0,0.7-0.5,0.7-1.1C42.2-124.6,42-125,41.5-125z
			 M41.5-123c-0.3,0-0.5-0.4-0.5-0.9c0-0.5,0.2-0.9,0.5-0.9s0.5,0.4,0.5,0.9C42-123.4,41.8-123,41.5-123z"/>
		<text transform="matrix(0.48 0 0 0.48 -23.9715 -113.0443)" class="st4 st7 st8">Global Envir</text>
		<text transform="matrix(0.48 0 0 0.48 -8.4273 -113.0443)" class="st4 st7 st8">o</text>
		<text transform="matrix(0.48 0 0 0.48 -6.7595 -113.0443)" class="st4 st7 st8">n</text>
		<text transform="matrix(0.48 0 0 0.48 -5.0919 -113.0443)" class="st4 st7 st8">ment F</text>
		<text transform="matrix(0.48 0 0 0.48 3.7598 -113.0443)" class="st4 st7 st8">a</text>
		<text transform="matrix(0.48 0 0 0.48 5.234 -113.0443)" class="st4 st7 st8">c</text>
		<text transform="matrix(0.48 0 0 0.48 6.7054 -113.0443)" class="st4 st7 st8">ility</text>
		<path class="st9" d="M37.8-115l0-0.2c-0.8,0.1-1.2,0.7-1.2,1.4c0,0.5,0.3,0.8,0.7,0.8c0.4,0,0.7-0.3,0.7-0.7
			c0-0.4-0.3-0.7-0.7-0.7c-0.2,0-0.4,0.1-0.6,0.3C36.8-114.5,37.2-114.9,37.8-115z M37.7-113.7c0,0.3-0.2,0.5-0.5,0.5
			c-0.3,0-0.5-0.2-0.5-0.5c0-0.3,0.2-0.5,0.5-0.5C37.5-114.2,37.7-114,37.7-113.7z"/>
		<path class="st9" d="M38.7-113.2c0-0.1-0.1-0.2-0.2-0.2c-0.1,0-0.2,0.1-0.2,0.2c0,0.1,0.1,0.2,0.2,0.2
			C38.6-113,38.7-113.1,38.7-113.2z"/>
		<path class="st9" d="M39.1-113.1c0.2,0.1,0.4,0.1,0.5,0.1c0.5,0,0.8-0.3,0.8-0.6c0-0.3-0.2-0.5-0.7-0.5c0.4-0.1,0.6-0.3,0.6-0.6
			c0-0.3-0.3-0.5-0.7-0.5c-0.2,0-0.5,0.1-0.7,0.2l0.1,0.2c0.2-0.1,0.4-0.2,0.6-0.2c0.3,0,0.4,0.1,0.4,0.3c0,0.2-0.2,0.4-0.8,0.5
			l0,0.2c0.5,0,0.8,0.2,0.8,0.4c0,0.2-0.2,0.4-0.6,0.4c-0.2,0-0.4,0-0.6-0.1C39.1-113.3,39.1-113.1,39.1-113.1z"/>
		<path class="st9" d="M40.8-115.2c0,0.1,0,0.2,0,0.2c0.2,0,0.4,0,0.7,0c0.2,0,0.4,0,0.5,0l-0.7,1.3c-0.1,0.2-0.2,0.4-0.3,0.5l0.2,0
			c0-0.1,0.1-0.3,0.2-0.4l0.7-1.3c0.1-0.1,0.1-0.3,0.2-0.3l-0.1-0.1c-0.2,0-0.5,0-0.7,0C41.2-115.1,41-115.1,40.8-115.2z"/>
		<text transform="matrix(0.48 0 0 0.48 -23.9715 -106.9018)" class="st4 st7 st8">Special Climate Change F</text>
		<text transform="matrix(0.48 0 0 0.48 8.4651 -106.9018)" class="st4 st7 st8">u</text>
		<text transform="matrix(0.48 0 0 0.48 10.1362 -106.9018)" class="st4 st7 st8">n</text>
		<text transform="matrix(0.48 0 0 0.48 11.804 -106.9018)" class="st4 st7 st8">d under</text>
		<text transform="matrix(0.48 0 0 0.48 -23.9715 -103.216)" class="st4 st7 st8">the Global Envir</text>
		<text transform="matrix(0.48 0 0 0.48 -3.5499 -103.216)" class="st4 st7 st8">o</text>
		<text transform="matrix(0.48 0 0 0.48 -1.8821 -103.216)" class="st4 st7 st8">n</text>
		<text transform="matrix(0.48 0 0 0.48 -0.2145 -103.216)" class="st4 st7 st8">ment F</text>
		<text transform="matrix(0.48 0 0 0.48 8.6371 -103.216)" class="st4 st7 st8">a</text>
		<text transform="matrix(0.48 0 0 0.48 10.1113 -103.216)" class="st4 st7 st8">c</text>
		<text transform="matrix(0.48 0 0 0.48 11.5827 -103.216)" class="st4 st7 st8">ility</text>
		<path class="st9" d="M37.5-106.9h0.2c0-0.1,0-0.3,0-0.4v-0.2l0.3,0c0-0.1,0-0.1,0-0.2c-0.1,0-0.2,0-0.3,0v-1c0-0.1,0-0.3,0-0.4
			l-0.1,0l-0.2,0.3l-0.9,1.2l0.1,0.1c0.2,0,0.5,0,0.8,0h0.2v0.1C37.5-107.2,37.5-107,37.5-106.9z M37.5-108.7v1h-0.8L37.5-108.7z"/>
		<path class="st9" d="M38.7-107c0-0.1-0.1-0.2-0.2-0.2c-0.1,0-0.2,0.1-0.2,0.2c0,0.1,0.1,0.2,0.2,0.2
			C38.6-106.9,38.7-106.9,38.7-107z"/>
		<path class="st9" d="M39.1-106.9c0.2,0.1,0.3,0.1,0.5,0.1c0.5,0,0.8-0.3,0.8-0.7c0-0.4-0.3-0.6-0.9-0.6c-0.1,0-0.1,0-0.2,0l0-0.7
			h0.4c0.2,0,0.4,0,0.6,0c0-0.1,0-0.2,0-0.2c-0.2,0-0.3,0-0.6,0c-0.3,0-0.4,0-0.6,0l0,0c0,0.1,0,0.2,0,0.3l0,0.3c0,0.1,0,0.2,0,0.3
			l0,0c0.1,0,0.2,0,0.3,0c0.5,0,0.7,0.2,0.7,0.4c0,0.2-0.2,0.4-0.6,0.4c-0.2,0-0.4,0-0.6-0.1C39.1-107.2,39.1-106.9,39.1-106.9z"/>
		<path class="st9" d="M40.8-109c0,0.1,0,0.2,0,0.2c0.2,0,0.4,0,0.7,0c0.2,0,0.4,0,0.5,0l-0.7,1.3c-0.1,0.2-0.2,0.4-0.3,0.5l0.2,0
			c0-0.1,0.1-0.3,0.2-0.4l0.7-1.3c0.1-0.1,0.1-0.3,0.2-0.3l-0.1-0.1c-0.2,0-0.5,0-0.7,0C41.2-109,41-109,40.8-109z"/>
		<text transform="matrix(0.48 0 0 0.48 -23.9715 -97.073)" class="st4 st7 st8">Eur</text>
		<text transform="matrix(0.48 0 0 0.48 -19.6562 -97.073)" class="st4 st7 st8">o</text>
		<text transform="matrix(0.48 0 0 0.48 -17.9886 -97.073)" class="st4 st7 st8">p</text>
		<text transform="matrix(0.48 0 0 0.48 -16.3178 -97.073)" class="st4 st7 st8">ean U</text>
		<text transform="matrix(0.48 0 0 0.48 -8.7714 -97.073)" class="st4 st7 st8">n</text>
		<text transform="matrix(0.48 0 0 0.48 -7.1035 -97.073)" class="st4 st7 st8">i</text>
		<text transform="matrix(0.48 0 0 0.48 -6.4093 -97.073)" class="st4 st7 st8">on</text>
		<path class="st9" d="M37.5-97.1h0.2c0-0.1,0-0.3,0-0.4v-0.2l0.3,0c0-0.1,0-0.1,0-0.2c-0.1,0-0.2,0-0.3,0v-1c0-0.1,0-0.3,0-0.4
			l-0.1,0l-0.2,0.3l-0.9,1.2l0.1,0.1c0.2,0,0.5,0,0.8,0h0.2v0.1C37.5-97.4,37.5-97.2,37.5-97.1z M37.5-98.8v1h-0.8L37.5-98.8z"/>
		<path class="st9" d="M38.7-97.2c0-0.1-0.1-0.2-0.2-0.2c-0.1,0-0.2,0.1-0.2,0.2c0,0.1,0.1,0.2,0.2,0.2C38.6-97,38.7-97.1,38.7-97.2
			z"/>
		<path class="st9" d="M40-97.1h0.2c0-0.1,0-0.3,0-0.4v-0.2l0.3,0c0-0.1,0-0.1,0-0.2c-0.1,0-0.2,0-0.3,0v-1c0-0.1,0-0.3,0-0.4
			l-0.1,0l-0.2,0.3L39-97.8l0.1,0.1c0.2,0,0.5,0,0.8,0H40v0.1C40-97.4,40-97.2,40-97.1z M40-98.8v1h-0.8L40-98.8z"/>
		<path class="st9" d="M42.1-99.1l0-0.2c-0.8,0.1-1.2,0.7-1.2,1.4c0,0.5,0.3,0.8,0.7,0.8c0.4,0,0.7-0.3,0.7-0.7
			c0-0.4-0.3-0.7-0.7-0.7c-0.2,0-0.4,0.1-0.6,0.3C41.1-98.6,41.5-98.9,42.1-99.1z M42-97.7c0,0.3-0.2,0.5-0.5,0.5
			c-0.3,0-0.5-0.2-0.5-0.5c0-0.3,0.2-0.5,0.5-0.5C41.8-98.2,42-98,42-97.7z"/>
		<text transform="matrix(0.48 0 0 0.48 -23.9715 -90.9305)" class="st4 st7 st8">H</text>
		<text transform="matrix(0.48 0 0 0.48 -21.6465 -90.9305)" class="st4 st7 st8">i</text>
		<text transform="matrix(0.48 0 0 0.48 -20.9525 -90.9305)" class="st4 st7 st8">g</text>
		<text transform="matrix(0.48 0 0 0.48 -19.5151 -90.9305)" class="st4 st7 st8">h Lev</text>
		<text transform="matrix(0.48 0 0 0.48 -12.6536 -90.9305)" class="st4 st7 st8">e</text>
		<text transform="matrix(0.48 0 0 0.48 -11.1179 -90.9305)" class="st4 st7 st8">l</text>
		<text transform="matrix(0.48 0 0 0.48 -10.4237 -90.9305)" class="st4 st7 st8"> T</text>
		<text transform="matrix(0.48 0 0 0.48 -8.1786 -90.9305)" class="st4 st7 st8">e</text>
		<text transform="matrix(0.48 0 0 0.48 -6.6428 -90.9305)" class="st4 st7 st8">c</text>
		<text transform="matrix(0.48 0 0 0.48 -5.1718 -90.9305)" class="st4 st7 st8">hnology F</text>
		<text transform="matrix(0.48 0 0 0.48 7.1385 -90.9305)" class="st4 st7 st8">u</text>
		<text transform="matrix(0.48 0 0 0.48 8.8091 -90.9305)" class="st4 st7 st8">n</text>
		<text transform="matrix(0.48 0 0 0.48 10.477 -90.9305)" class="st4 st7 st8">d</text>
		<path class="st9" d="M36.5-91c0.2,0.1,0.4,0.1,0.5,0.1c0.5,0,0.8-0.3,0.8-0.6c0-0.3-0.2-0.5-0.7-0.5c0.4-0.1,0.6-0.3,0.6-0.6
			c0-0.3-0.3-0.5-0.7-0.5c-0.2,0-0.5,0.1-0.7,0.2l0.1,0.2c0.2-0.1,0.4-0.2,0.6-0.2c0.3,0,0.4,0.1,0.4,0.3c0,0.2-0.2,0.4-0.8,0.5
			l0,0.2c0.5,0,0.8,0.2,0.8,0.4c0,0.2-0.2,0.4-0.6,0.4c-0.2,0-0.4,0-0.6-0.1C36.5-91.2,36.5-91,36.5-91z"/>
		<path class="st9" d="M38.7-91.1c0-0.1-0.1-0.2-0.2-0.2c-0.1,0-0.2,0.1-0.2,0.2c0,0.1,0.1,0.2,0.2,0.2C38.6-90.9,38.7-91,38.7-91.1
			z"/>
		<path class="st9" d="M40.5-91.1c-0.1,0-0.3,0-0.4,0H40v-1.6c0-0.1,0-0.3,0-0.4l0,0L39.8-93c-0.1,0-0.4,0.1-0.6,0.2l0,0.2l0.5-0.2
			v1.3c0,0.1,0,0.3,0,0.4h-0.2c-0.1,0-0.2,0-0.4,0c0,0.1,0,0.1,0,0.2c0.2,0,0.3,0,0.5,0H40c0.2,0,0.4,0,0.6,0
			C40.5-91,40.5-91.1,40.5-91.1L40.5-91.1z"/>
		<path class="st9" d="M41.5-93.1c-0.5,0-0.7,0.5-0.7,1.1c0,0.6,0.2,1.1,0.7,1.1c0.5,0,0.7-0.5,0.7-1.1C42.2-92.6,42-93.1,41.5-93.1
			z M41.5-91.1c-0.3,0-0.5-0.4-0.5-0.9c0-0.5,0.2-0.9,0.5-0.9S42-92.5,42-92C42-91.5,41.8-91.1,41.5-91.1z"/>
		<text transform="matrix(0.48 0 0 0.48 -23.9715 -84.7875)" class="st4 st7 st8">Clean Ener</text>
		<text transform="matrix(0.48 0 0 0.48 -10.0246 -84.7875)" class="st4 st7 st8">g</text>
		<text transform="matrix(0.48 0 0 0.48 -8.5871 -84.7875)" class="st4 st7 st8">y F</text>
		<text transform="matrix(0.48 0 0 0.48 -5.0642 -84.7875)" class="st4 st7 st8">u</text>
		<text transform="matrix(0.48 0 0 0.48 -3.3934 -84.7875)" class="st4 st7 st8">n</text>
		<text transform="matrix(0.48 0 0 0.48 -1.7256 -84.7875)" class="st4 st7 st8">d</text>
		<path class="st9" d="M37.9-85c-0.1,0-0.3,0-0.4,0h-0.2v-1.6c0-0.1,0-0.3,0-0.4l0,0l-0.2,0.1c-0.1,0-0.4,0.1-0.6,0.2l0,0.2l0.5-0.2
			v1.3c0,0.1,0,0.3,0,0.4h-0.2c-0.1,0-0.2,0-0.4,0c0,0.1,0,0.1,0,0.2c0.2,0,0.3,0,0.5,0h0.3c0.2,0,0.4,0,0.6,0
			C37.9-84.9,37.9-84.9,37.9-85L37.9-85z"/>
		<path class="st9" d="M38.7-84.9c0-0.1-0.1-0.2-0.2-0.2c-0.1,0-0.2,0.1-0.2,0.2c0,0.1,0.1,0.2,0.2,0.2
			C38.6-84.7,38.7-84.8,38.7-84.9z"/>
		<path class="st9" d="M39.1-84.8c0.2,0.1,0.4,0.1,0.5,0.1c0.5,0,0.8-0.3,0.8-0.6c0-0.3-0.2-0.5-0.7-0.5c0.4-0.1,0.6-0.3,0.6-0.6
			c0-0.3-0.3-0.5-0.7-0.5c-0.2,0-0.5,0.1-0.7,0.2l0.1,0.2c0.2-0.1,0.4-0.2,0.6-0.2c0.3,0,0.4,0.1,0.4,0.3c0,0.2-0.2,0.4-0.8,0.5
			l0,0.2c0.5,0,0.8,0.2,0.8,0.4c0,0.2-0.2,0.4-0.6,0.4c-0.2,0-0.4,0-0.6-0.1L39.1-84.8z"/>
		<path class="st9" d="M40.8-84.8c0.2,0.1,0.3,0.1,0.5,0.1c0.5,0,0.8-0.3,0.8-0.7c0-0.4-0.3-0.6-0.9-0.6c-0.1,0-0.1,0-0.2,0l0-0.7
			h0.4c0.2,0,0.4,0,0.6,0c0-0.1,0-0.2,0-0.2c-0.2,0-0.3,0-0.6,0c-0.3,0-0.4,0-0.6,0l0,0c0,0.1,0,0.2,0,0.3l0,0.3c0,0.1,0,0.2,0,0.3
			l0,0c0.1,0,0.2,0,0.3,0c0.5,0,0.7,0.2,0.7,0.4c0,0.2-0.2,0.4-0.6,0.4c-0.2,0-0.4,0-0.6-0.1L40.8-84.8L40.8-84.8z"/>
		<text transform="matrix(0.48 0 0 0.48 -23.9715 -78.645)" class="st4 st7 st8">R</text>
		<text transform="matrix(0.48 0 0 0.48 -22.1104 -78.645)" class="st4 st7 st8">e</text>
		<text transform="matrix(0.48 0 0 0.48 -20.5747 -78.645)" class="st4 st7 st8">p</text>
		<text transform="matrix(0.48 0 0 0.48 -18.9039 -78.645)" class="st4 st7 st8">ublic of K</text>
		<text transform="matrix(0.48 0 0 0.48 -6.9439 -78.645)" class="st4 st7 st8">o</text>
		<text transform="matrix(0.48 0 0 0.48 -5.2761 -78.645)" class="st4 st7 st8">r</text>
		<text transform="matrix(0.48 0 0 0.48 -4.3025 -78.645)" class="st4 st7 st8">e</text>
		<text transform="matrix(0.48 0 0 0.48 -2.7667 -78.645)" class="st4 st7 st8">a</text>
		<path class="st9" d="M37.9-78.8c-0.1,0-0.3,0-0.4,0h-0.2v-1.6c0-0.1,0-0.3,0-0.4l0,0l-0.2,0.1c-0.1,0-0.4,0.1-0.6,0.2l0,0.2
			l0.5-0.2v1.3c0,0.1,0,0.3,0,0.4h-0.2c-0.1,0-0.2,0-0.4,0c0,0.1,0,0.1,0,0.2c0.2,0,0.3,0,0.5,0h0.3c0.2,0,0.4,0,0.6,0
			C37.9-78.7,37.9-78.8,37.9-78.8L37.9-78.8z"/>
		<path class="st9" d="M38.7-78.8c0-0.1-0.1-0.2-0.2-0.2c-0.1,0-0.2,0.1-0.2,0.2c0,0.1,0.1,0.2,0.2,0.2
			C38.6-78.6,38.7-78.7,38.7-78.8L38.7-78.8z"/>
		<path class="st9" d="M39.8-80.8c-0.5,0-0.7,0.5-0.7,1.1c0,0.6,0.2,1.1,0.7,1.1c0.5,0,0.7-0.5,0.7-1.1
			C40.5-80.3,40.3-80.8,39.8-80.8L39.8-80.8z M39.8-78.8c-0.3,0-0.5-0.4-0.5-0.9c0-0.5,0.2-0.9,0.5-0.9s0.5,0.4,0.5,0.9
			C40.3-79.2,40.1-78.8,39.8-78.8z"/>
		<path class="st9" d="M41.5-80.8c-0.5,0-0.7,0.5-0.7,1.1c0,0.6,0.2,1.1,0.7,1.1c0.5,0,0.7-0.5,0.7-1.1C42.2-80.3,42-80.8,41.5-80.8
			L41.5-80.8z M41.5-78.8c-0.3,0-0.5-0.4-0.5-0.9c0-0.5,0.2-0.9,0.5-0.9s0.5,0.4,0.5,0.9C42-79.2,41.8-78.8,41.5-78.8z"/>
		<text transform="matrix(0.48 0 0 0.48 -23.9715 -72.502)" class="st4 st7 st8">Global Agricultur</text>
		<text transform="matrix(0.48 0 0 0.48 -2.0696 -72.502)" class="st4 st7 st8">e</text>
		<text transform="matrix(0.48 0 0 0.48 -0.534 -72.502)" class="st4 st7 st8"> </text>
		<text transform="matrix(0.48 0 0 0.48 0.1019 -72.502)" class="st4 st7 st8">and F</text>
		<text transform="matrix(0.48 0 0 0.48 7.0309 -72.502)" class="st4 st7 st8">o</text>
		<text transform="matrix(0.48 0 0 0.48 8.6985 -72.502)" class="st4 st7 st8">o</text>
		<text transform="matrix(0.48 0 0 0.48 10.3663 -72.502)" class="st4 st7 st8">d</text>
		<text transform="matrix(0.48 0 0 0.48 -23.9715 -68.8167)" class="st4 st7 st8">Secu</text>
		<text transform="matrix(0.48 0 0 0.48 -17.6938 -68.8167)" class="st4 st7 st8">rity Pr</text>
		<text transform="matrix(0.48 0 0 0.48 -10.255 -68.8167)" class="st4 st7 st8">o</text>
		<text transform="matrix(0.48 0 0 0.48 -8.5871 -68.8167)" class="st4 st7 st8">gr</text>
		<text transform="matrix(0.48 0 0 0.48 -6.1946 -68.8167)" class="st4 st7 st8">am</text>
		<path class="st9" d="M37.2-74.7c-0.5,0-0.7,0.5-0.7,1.1c0,0.6,0.2,1.1,0.7,1.1c0.5,0,0.7-0.5,0.7-1.1
			C37.9-74.2,37.7-74.7,37.2-74.7L37.2-74.7z M37.2-72.6c-0.3,0-0.5-0.4-0.5-0.9c0-0.5,0.2-0.9,0.5-0.9s0.5,0.4,0.5,0.9
			C37.7-73.1,37.5-72.6,37.2-72.6z"/>
		<path class="st9" d="M38.7-72.6c0-0.1-0.1-0.2-0.2-0.2c-0.1,0-0.2,0.1-0.2,0.2c0,0.1,0.1,0.2,0.2,0.2
			C38.6-72.5,38.7-72.5,38.7-72.6L38.7-72.6z"/>
		<path class="st9" d="M39.2-72.6l0,0.2c0.8-0.1,1.2-0.7,1.2-1.4c0-0.5-0.3-0.8-0.7-0.8c-0.4,0-0.7,0.3-0.7,0.7
			c0,0.4,0.3,0.7,0.7,0.7c0.2,0,0.4-0.1,0.6-0.3C40.2-73.1,39.8-72.7,39.2-72.6L39.2-72.6z M39.3-73.9c0-0.3,0.2-0.5,0.5-0.5
			c0.3,0,0.5,0.2,0.5,0.5c0,0.3-0.2,0.5-0.5,0.5C39.5-73.5,39.3-73.7,39.3-73.9z"/>
		<path class="st9" d="M40.9-72.6l0,0.2c0.8-0.1,1.2-0.7,1.2-1.4c0-0.5-0.3-0.8-0.7-0.8c-0.4,0-0.7,0.3-0.7,0.7
			c0,0.4,0.3,0.7,0.7,0.7c0.2,0,0.4-0.1,0.6-0.3C41.9-73.1,41.6-72.7,40.9-72.6L40.9-72.6z M41-73.9c0-0.3,0.2-0.5,0.5-0.5
			c0.3,0,0.5,0.2,0.5,0.5c0,0.3-0.2,0.5-0.5,0.5C41.2-73.5,41-73.7,41-73.9z"/>
		<text transform="matrix(0.48 0 0 0.48 -23.9715 -62.6737)" class="st4 st7 st8">Netherlands</text>
		<path class="st9" d="M37.2-64.8c-0.5,0-0.7,0.5-0.7,1.1c0,0.6,0.2,1.1,0.7,1.1c0.5,0,0.7-0.5,0.7-1.1
			C37.9-64.4,37.7-64.8,37.2-64.8L37.2-64.8z M37.2-62.8c-0.3,0-0.5-0.4-0.5-0.9c0-0.5,0.2-0.9,0.5-0.9s0.5,0.4,0.5,0.9
			C37.7-63.2,37.5-62.8,37.2-62.8z"/>
		<path class="st9" d="M38.7-62.8c0-0.1-0.1-0.2-0.2-0.2c-0.1,0-0.2,0.1-0.2,0.2c0,0.1,0.1,0.2,0.2,0.2
			C38.6-62.6,38.7-62.7,38.7-62.8L38.7-62.8z"/>
		<path class="st9" d="M39.1-63.2c0,0.3,0.3,0.6,0.7,0.6c0.4,0,0.7-0.3,0.7-0.6c0-0.3-0.2-0.4-0.5-0.6c0.3-0.1,0.4-0.3,0.4-0.5
			c0-0.3-0.3-0.5-0.6-0.5c-0.4,0-0.7,0.2-0.7,0.6c0,0.3,0.2,0.4,0.4,0.5C39.3-63.7,39.1-63.5,39.1-63.2z M40.3-63.2
			c0,0.2-0.2,0.4-0.5,0.4c-0.3,0-0.5-0.2-0.5-0.4c0-0.2,0.2-0.4,0.5-0.5C40.1-63.6,40.3-63.4,40.3-63.2z M39.4-64.3
			c0-0.2,0.2-0.4,0.4-0.4c0.2,0,0.4,0.1,0.4,0.4c0,0.2-0.2,0.3-0.4,0.4C39.5-64,39.4-64.1,39.4-64.3L39.4-64.3z"/>
		<path class="st9" d="M41.5-64.8c-0.5,0-0.7,0.5-0.7,1.1c0,0.6,0.2,1.1,0.7,1.1c0.5,0,0.7-0.5,0.7-1.1C42.2-64.4,42-64.8,41.5-64.8
			L41.5-64.8z M41.5-62.8c-0.3,0-0.5-0.4-0.5-0.9c0-0.5,0.2-0.9,0.5-0.9s0.5,0.4,0.5,0.9C42-63.2,41.8-62.8,41.5-62.8z"/>
		<path class="st9" d="M-14.8-58c0.1-0.2,0.2-0.6,0.2-0.8l-0.3,0c0,0.2,0,0.6-0.1,0.8L-14.8-58z"/>
		<text transform="matrix(0.48 0 0 0.48 -23.9715 -56.5312)" class="st4 st7 st8">P</text>
		<text transform="matrix(0.48 0 0 0.48 -22.3347 -56.5312)" class="st4 st7 st8">e</text>
		<text transform="matrix(0.48 0 0 0.48 -20.799 -56.5312)" class="st4 st7 st8">o</text>
		<text transform="matrix(0.48 0 0 0.48 -19.1312 -56.5312)" class="st4 st7 st8">ple</text>
		<text transform="matrix(0.48 0 0 0.48 -14.3706 -56.5312)" class="st4 st7 st8">s</text>
		<text transform="matrix(0.48 0 0 0.48 -13.1237 -56.5312)" class="st4 st7 st8"> R</text>
		<text transform="matrix(0.48 0 0 0.48 -10.6267 -56.5312)" class="st4 st7 st8">e</text>
		<text transform="matrix(0.48 0 0 0.48 -9.0908 -56.5312)" class="st4 st7 st8">p</text>
		<text transform="matrix(0.48 0 0 0.48 -7.42 -56.5312)" class="st4 st7 st8">ublic of China</text>
		<path class="st9" d="M37.2-58.7c-0.5,0-0.7,0.5-0.7,1.1c0,0.6,0.2,1.1,0.7,1.1c0.5,0,0.7-0.5,0.7-1.1
			C37.9-58.2,37.7-58.7,37.2-58.7L37.2-58.7z M37.2-56.7c-0.3,0-0.5-0.4-0.5-0.9c0-0.5,0.2-0.9,0.5-0.9s0.5,0.4,0.5,0.9
			C37.7-57.1,37.5-56.7,37.2-56.7z"/>
		<path class="st9" d="M38.7-56.7c0-0.1-0.1-0.2-0.2-0.2c-0.1,0-0.2,0.1-0.2,0.2c0,0.1,0.1,0.2,0.2,0.2
			C38.6-56.5,38.7-56.6,38.7-56.7L38.7-56.7z"/>
		<path class="st9" d="M39.1-56.6c0.2,0.1,0.3,0.1,0.5,0.1c0.5,0,0.8-0.3,0.8-0.7c0-0.4-0.3-0.6-0.9-0.6c-0.1,0-0.1,0-0.2,0l0-0.7
			h0.4c0.2,0,0.4,0,0.6,0c0-0.1,0-0.2,0-0.2c-0.2,0-0.3,0-0.6,0c-0.3,0-0.4,0-0.6,0l0,0c0,0.1,0,0.2,0,0.3l0,0.3c0,0.1,0,0.2,0,0.3
			l0,0c0.1,0,0.2,0,0.3,0c0.5,0,0.7,0.2,0.7,0.4c0,0.2-0.2,0.4-0.6,0.4c-0.2,0-0.4,0-0.6-0.1L39.1-56.6L39.1-56.6z"/>
		<path class="st9" d="M41.5-58.7c-0.5,0-0.7,0.5-0.7,1.1c0,0.6,0.2,1.1,0.7,1.1c0.5,0,0.7-0.5,0.7-1.1C42.2-58.2,42-58.7,41.5-58.7
			L41.5-58.7z M41.5-56.7c-0.3,0-0.5-0.4-0.5-0.9c0-0.5,0.2-0.9,0.5-0.9s0.5,0.4,0.5,0.9C42-57.1,41.8-56.7,41.5-56.7z"/>
		<text transform="matrix(0.48 0 0 0.48 -23.9715 -50.3882)" class="st7 st8">F</text>
		<text transform="matrix(0.48 0 0 0.48 -22.4851 -50.3882)" class="st7 st8">r</text>
		<text transform="matrix(0.48 0 0 0.48 -21.5146 -50.3882)" class="st7 st8">a</text>
		<text transform="matrix(0.48 0 0 0.48 -20.0401 -50.3882)" class="st7 st8">n</text>
		<text transform="matrix(0.48 0 0 0.48 -18.3725 -50.3882)" class="st7 st8">ce</text>
		<path class="st10" d="M37.2-52.5c-0.5,0-0.7,0.5-0.7,1.1c0,0.6,0.2,1.1,0.7,1.1c0.5,0,0.7-0.5,0.7-1.1
			C37.9-52.1,37.7-52.5,37.2-52.5L37.2-52.5z M37.2-50.5c-0.3,0-0.5-0.4-0.5-0.9c0-0.5,0.2-0.9,0.5-0.9s0.5,0.4,0.5,0.9
			C37.7-50.9,37.5-50.5,37.2-50.5z"/>
		<path class="st10" d="M38.7-50.5c0-0.1-0.1-0.2-0.2-0.2c-0.1,0-0.2,0.1-0.2,0.2c0,0.1,0.1,0.2,0.2,0.2
			C38.6-50.3,38.7-50.4,38.7-50.5L38.7-50.5z"/>
		<path class="st10" d="M39.4-50.6c0.2-0.2,0.4-0.4,0.6-0.5c0.3-0.3,0.5-0.6,0.5-0.8c0-0.4-0.3-0.6-0.6-0.6c-0.2,0-0.5,0.1-0.7,0.3
			l0.1,0.2c0.2-0.2,0.4-0.3,0.6-0.3c0.3,0,0.4,0.2,0.4,0.4c0,0.3-0.3,0.7-1.1,1.4l0,0.2c0.2,0,0.4,0,0.7,0c0.3,0,0.5,0,0.7,0
			c0-0.1,0-0.1,0-0.2C40.2-50.6,39.7-50.6,39.4-50.6z"/>
		<path class="st10" d="M40.8-50.4c0.2,0.1,0.3,0.1,0.5,0.1c0.5,0,0.8-0.3,0.8-0.7c0-0.4-0.3-0.6-0.9-0.6c-0.1,0-0.1,0-0.2,0l0-0.7
			h0.4c0.2,0,0.4,0,0.6,0c0-0.1,0-0.2,0-0.2c-0.2,0-0.3,0-0.6,0c-0.3,0-0.4,0-0.6,0l0,0c0,0.1,0,0.2,0,0.3l0,0.3c0,0.1,0,0.2,0,0.3
			l0,0c0.1,0,0.2,0,0.3,0c0.5,0,0.7,0.2,0.7,0.4c0,0.2-0.2,0.4-0.6,0.4c-0.2,0-0.4,0-0.6-0.1L40.8-50.4L40.8-50.4z"/>
		<text transform="matrix(0.48 0 0 0.48 -23.9715 -44.2457)" class="st4 st7 st8">W</text>
		<text transform="matrix(0.48 0 0 0.48 -21.0906 -44.2457)" class="st4 st7 st8">a</text>
		<text transform="matrix(0.48 0 0 0.48 -19.6225 -44.2457)" class="st4 st7 st8">t</text>
		<text transform="matrix(0.48 0 0 0.48 -18.5844 -44.2457)" class="st4 st7 st8">er F</text>
		<text transform="matrix(0.48 0 0 0.48 -13.8667 -44.2457)" class="st4 st7 st8">i</text>
		<text transform="matrix(0.48 0 0 0.48 -13.1727 -44.2457)" class="st4 st7 st8">n</text>
		<text transform="matrix(0.48 0 0 0.48 -11.5049 -44.2457)" class="st4 st7 st8">ancing P</text>
		<text transform="matrix(0.48 0 0 0.48 -0.8288 -44.2457)" class="st4 st7 st8">a</text>
		<text transform="matrix(0.48 0 0 0.48 0.6454 -44.2457)" class="st4 st7 st8">r</text>
		<text transform="matrix(0.48 0 0 0.48 1.656 -44.2457)" class="st4 st7 st8">tnership F</text>
		<text transform="matrix(0.48 0 0 0.48 14.2612 -44.2457)" class="st4 st7 st8">a</text>
		<text transform="matrix(0.48 0 0 0.48 15.7349 -44.2457)" class="st4 st7 st8">c</text>
		<text transform="matrix(0.48 0 0 0.48 17.2063 -44.2457)" class="st4 st7 st8">ility</text>
		<text transform="matrix(0.48 0 0 0.48 -23.9715 -40.5599)" class="st4 st7 st8">(</text>
		<text transform="matrix(0.48 0 0 0.48 -22.8015 -40.5599)" class="st4 st7 st8">M</text>
		<text transform="matrix(0.48 0 0 0.48 -20.0893 -40.5599)" class="st4 st7 st8">u</text>
		<text transform="matrix(0.48 0 0 0.48 -18.4187 -40.5599)" class="st4 st7 st8">l</text>
		<text transform="matrix(0.48 0 0 0.48 -17.7245 -40.5599)" class="st4 st7 st8">ti-Donor T</text>
		<text transform="matrix(0.48 0 0 0.48 -4.1797 -40.5599)" class="st4 st7 st8">r</text>
		<text transform="matrix(0.48 0 0 0.48 -3.1693 -40.5599)" class="st4 st7 st8">u</text>
		<text transform="matrix(0.48 0 0 0.48 -1.4982 -40.5599)" class="st4 st7 st8">st F</text>
		<text transform="matrix(0.48 0 0 0.48 2.9029 -40.5599)" class="st4 st7 st8">u</text>
		<text transform="matrix(0.48 0 0 0.48 4.5737 -40.5599)" class="st4 st7 st8">n</text>
		<text transform="matrix(0.48 0 0 0.48 6.2416 -40.5599)" class="st4 st7 st8">d</text>
		<text transform="matrix(0.48 0 0 0.48 7.9738 -40.5599)" class="st4 st7 st8">)</text>
		<path class="st9" d="M37.2-46.4c-0.5,0-0.7,0.5-0.7,1.1c0,0.6,0.2,1.1,0.7,1.1c0.5,0,0.7-0.5,0.7-1.1
			C37.9-45.9,37.7-46.4,37.2-46.4L37.2-46.4z M37.2-44.4c-0.3,0-0.5-0.4-0.5-0.9c0-0.5,0.2-0.9,0.5-0.9s0.5,0.4,0.5,0.9
			C37.7-44.8,37.5-44.4,37.2-44.4z"/>
		<path class="st9" d="M38.7-44.4c0-0.1-0.1-0.2-0.2-0.2c-0.1,0-0.2,0.1-0.2,0.2c0,0.1,0.1,0.2,0.2,0.2
			C38.6-44.2,38.7-44.3,38.7-44.4L38.7-44.4z"/>
		<path class="st9" d="M40.5-44.4c-0.1,0-0.3,0-0.4,0H40V-46c0-0.1,0-0.3,0-0.4l0,0l-0.2,0.1c-0.1,0-0.4,0.1-0.6,0.2l0,0.2l0.5-0.2
			v1.3c0,0.1,0,0.3,0,0.4h-0.2c-0.1,0-0.2,0-0.4,0c0,0.1,0,0.1,0,0.2c0.2,0,0.3,0,0.5,0H40c0.2,0,0.4,0,0.6,0
			C40.5-44.3,40.5-44.4,40.5-44.4L40.5-44.4z"/>
		<path class="st9" d="M40.8-44.3c0.2,0.1,0.3,0.1,0.5,0.1c0.5,0,0.8-0.3,0.8-0.7c0-0.4-0.3-0.6-0.9-0.6c-0.1,0-0.1,0-0.2,0l0-0.7
			h0.4c0.2,0,0.4,0,0.6,0c0-0.1,0-0.2,0-0.2c-0.2,0-0.3,0-0.6,0c-0.3,0-0.4,0-0.6,0l0,0c0,0.1,0,0.2,0,0.3l0,0.3c0,0.1,0,0.2,0,0.3
			l0,0c0.1,0,0.2,0,0.3,0c0.5,0,0.7,0.2,0.7,0.4c0,0.2-0.2,0.4-0.6,0.4c-0.2,0-0.4,0-0.6-0.1L40.8-44.3L40.8-44.3z"/>
		<text transform="matrix(0.48 0 0 0.48 -27.6573 -34.3926)" class="st4 st11 st8">T</text>
		<text transform="matrix(0.48 0 0 0.48 -25.9159 -34.3926)" class="st4 st11 st8">o</text>
		<text transform="matrix(0.48 0 0 0.48 -24.1958 -34.3926)" class="st4 st11 st8">t</text>
		<text transform="matrix(0.48 0 0 0.48 -23.0012 -34.3926)" class="st4 st11 st8">al</text>
		<path class="st9" d="M31.1-34.8c0.1-0.1,0.3-0.3,0.4-0.4c0.2-0.3,0.4-0.5,0.4-0.8c0-0.4-0.3-0.6-0.7-0.6c-0.3,0-0.5,0.1-0.7,0.2
			l0.1,0.4c0.2-0.1,0.4-0.2,0.5-0.2c0.2,0,0.3,0.1,0.3,0.3c0,0.3-0.3,0.6-1,1.1l0,0.3c0.2,0,0.5,0,0.7,0c0.3,0,0.5,0,0.7,0
			c0-0.2,0-0.3,0-0.4C31.7-34.8,31.3-34.8,31.1-34.8L31.1-34.8z"/>
		<path class="st9" d="M32.2-33.8c0.4-0.2,0.6-0.5,0.6-0.8c0-0.2-0.1-0.3-0.3-0.3c-0.1,0-0.3,0.1-0.3,0.3l0.1,0
			c0.1,0.1,0.2,0.1,0.2,0.2c0,0.1-0.1,0.2-0.3,0.4l0,0L32.2-33.8z"/>
		<path class="st9" d="M34.4-36.2l-0.1-0.4c-0.8,0.1-1.3,0.6-1.3,1.3c0,0.6,0.3,0.9,0.8,0.9c0.5,0,0.8-0.3,0.8-0.8
			c0-0.4-0.3-0.7-0.6-0.7c-0.2,0-0.3,0.1-0.4,0.2C33.6-35.9,33.9-36.1,34.4-36.2L34.4-36.2z M34.1-35.1c0,0.2-0.1,0.4-0.3,0.4
			c-0.2,0-0.3-0.1-0.3-0.4c0-0.2,0.1-0.4,0.3-0.4C34-35.4,34.1-35.3,34.1-35.1z"/>
		<path class="st9" d="M34.8-34.4c0.2,0.1,0.4,0.1,0.6,0.1c0.5,0,0.8-0.3,0.8-0.7c0-0.4-0.3-0.6-0.8-0.7c0,0-0.1,0-0.1,0l0-0.4h0.3
			c0.3,0,0.3,0,0.5,0c0-0.1,0-0.3,0-0.4c-0.3,0-0.3,0-0.6,0c-0.3,0-0.4,0-0.6,0l0,0v0.4l0,0.4c0,0.1,0,0.2,0,0.3l0,0
			c0.1,0,0.2,0,0.3,0c0.4,0,0.6,0.1,0.6,0.3c0,0.2-0.2,0.3-0.4,0.3c-0.2,0-0.4,0-0.6-0.1L34.8-34.4L34.8-34.4z"/>
		<path class="st9" d="M37.8-36.2l-0.1-0.4c-0.8,0.1-1.3,0.6-1.3,1.3c0,0.6,0.3,0.9,0.8,0.9c0.5,0,0.8-0.3,0.8-0.8
			c0-0.4-0.3-0.7-0.6-0.7c-0.2,0-0.3,0.1-0.4,0.2C37-35.9,37.3-36.1,37.8-36.2L37.8-36.2z M37.5-35.1c0,0.2-0.1,0.4-0.3,0.4
			c-0.2,0-0.3-0.1-0.3-0.4c0-0.2,0.1-0.4,0.3-0.4C37.4-35.4,37.5-35.3,37.5-35.1z"/>
		<path class="st9" d="M38.8-34.6c0-0.2-0.1-0.3-0.3-0.3c-0.2,0-0.3,0.1-0.3,0.3c0,0.1,0.1,0.3,0.3,0.3
			C38.7-34.3,38.8-34.4,38.8-34.6z"/>
		<path class="st9" d="M39.1-34.4c0.2,0.1,0.4,0.1,0.5,0.1c0.5,0,0.9-0.2,0.9-0.6c0-0.2-0.2-0.4-0.6-0.5c0.3-0.1,0.5-0.3,0.5-0.5
			c0-0.3-0.3-0.5-0.7-0.5c-0.2,0-0.5,0.1-0.7,0.2l0.1,0.4c0.2-0.1,0.4-0.2,0.5-0.2c0.2,0,0.3,0.1,0.3,0.2c0,0.2-0.2,0.3-0.7,0.4
			l0,0.3c0.4,0,0.7,0.1,0.7,0.3c0,0.2-0.2,0.2-0.5,0.2c-0.2,0-0.4,0-0.5-0.1L39.1-34.4L39.1-34.4z"/>
		<path class="st9" d="M41.5-36.6c-0.5,0-0.8,0.5-0.8,1.1c0,0.6,0.2,1.1,0.7,1.1c0.5,0,0.8-0.5,0.8-1.1C42.3-36.1,42-36.6,41.5-36.6
			z M41.5-34.7c-0.2,0-0.3-0.2-0.3-0.7c0-0.4,0.1-0.7,0.3-0.7c0.2,0,0.3,0.2,0.3,0.7C41.8-35,41.7-34.7,41.5-34.7z"/>
		<path class="st12" d="M-29.5-157.6h73.7 M-29.5-151.5h73.7 M-29.5-145.4h73.7 M-29.5-139.2h73.7 M-29.5-133.1h73.7 M-29.5-126.9
			h73.7 M-29.5-117.1h73.7 M-29.5-111h73.7 M-29.5-101.1h73.7 M-29.5-95h73.7 M-29.5-88.8h73.7 M-29.5-82.7h73.7 M-29.5-76.6h73.7
			 M-29.5-66.7h73.7 M-29.5-60.6h73.7 M-29.5-54.4h73.7 M-29.5-48.3h73.7 M-29.5-38.5h73.7 M-29.5-32.3h73.7"/>
	</g>
	<path class="st13" d="M77.1,1.6C77.1,1.6,77.1,1.6,77.1,1.6l0,14.2c0,0,0,0,0,0C77.1,15.8,77.1,1.6,77.1,1.6z"/>
	<path class="st14" d="M77.1,1.6C77.1,1.6,77.1,1.6,77.1,1.6l0,14.2c0,0,0,0,0,0C77.1,15.8,77.1,1.6,77.1,1.6z"/>
	<path class="st15" d="M77,1.6C77,1.6,77,1.6,77,1.6l0.1,14.2c0,0,0,0-0.1,0L77,1.6z"/>
	<path class="st16" d="M76.9,1.6c0,0,0.1,0,0.1,0l0,14.2c0,0-0.1,0-0.1,0C76.9,15.8,76.9,1.6,76.9,1.6z"/>
	<path class="st17" d="M76.7,1.6c0,0,0.1,0,0.1,0l0.1,14.2c0,0-0.1,0-0.1,0L76.7,1.6z"/>
	<path class="st18" d="M76.6,1.6c0,0,0.1,0,0.1,0l0.1,14.2c0,0-0.1,0-0.1,0L76.6,1.6z"/>
	<path class="st19" d="M76.4,1.6c0.1,0,0.1,0,0.2,0l0.1,14.2c0,0-0.1,0-0.1,0C76.6,15.8,76.4,1.6,76.4,1.6z"/>
	<path class="st20" d="M76,1.6c0.1,0,0.3,0,0.4,0l0.2,14.2c-0.1,0-0.2,0-0.3,0C76.3,15.8,76,1.6,76,1.6z"/>
	<path class="st21" d="M75.4,1.6c0.2,0,0.4,0,0.6,0l0.3,14.2c-0.1,0-0.3,0-0.4,0C75.8,15.8,75.4,1.6,75.4,1.6z"/>
	<path class="st22" d="M74.8,1.6c0.2,0,0.4,0,0.6,0l0.4,14.2c-0.2,0-0.3,0-0.5,0C75.4,15.9,74.8,1.6,74.8,1.6z"/>
	<path class="st23" d="M73.9,1.7c0.3,0,0.6,0,0.9,0l0.6,14.2c-0.2,0-0.4,0-0.6,0C74.7,15.9,73.9,1.7,73.9,1.7z"/>
	<path class="st24" d="M72.9,1.7c0.3,0,0.7,0,1-0.1l0.8,14.2c-0.3,0-0.5,0-0.8,0.1L72.9,1.7z"/>
	<path class="st25" d="M71,1.9c0.6-0.1,1.3-0.1,1.9-0.2L74,15.9c-0.5,0-0.9,0.1-1.4,0.1C72.5,16.1,71,1.9,71,1.9z"/>
	<path class="st26" d="M67.1,2.5c1.3-0.2,2.6-0.4,4-0.6l1.5,14.1c-1,0.1-2,0.2-3,0.4L67.1,2.5z"/>
	<path class="st27" d="M20.4,53.7C22.5,28.1,41.7,7,67.1,2.5l2.5,14c-19,3.4-33.4,19.2-35,38.4C34.6,54.9,20.4,53.7,20.4,53.7z"/>
	<path class="st28" d="M77.1,1.6c23.5,0,44.5,14.4,53,36.2c8.5,21.9,2.8,46.7-14.5,62.6s-42.5,19.5-63.6,9.2S18.4,77.1,20.4,53.7
		l14.2,1.2c-1.5,17.5,8,34.2,23.8,41.9c15.8,7.7,34.7,5,47.7-6.9s17.3-30.5,10.9-46.9c-6.4-16.4-22.2-27.2-39.8-27.2V1.6L77.1,1.6z"
		/>
</g>
</svg>
