<?xml version="1.0" encoding="utf-8"?>
<!-- Generator: Adobe Illustrator 24.1.0, SVG Export Plug-In . SVG Version: 6.00 Build 0)  -->
<svg version="1.1" id="Layer_1" xmlns:serif="http://www.serif.com/"
	 xmlns="http://www.w3.org/2000/svg" xmlns:xlink="http://www.w3.org/1999/xlink" x="0px" y="0px" viewBox="0 0 149.7 203.4"
	 style="enable-background:new 0 0 149.7 203.4;" xml:space="preserve">
<style type="text/css">
	.st0{clip-path:url(#SVGID_2_);}
	.st1{clip-path:url(#SVGID_4_);}
	.st2{fill:#1A1A1A;}
	.st3{font-family:'IdealSans-ExtraLight';}
	.st4{font-size:11.5177px;}
	.st5{font-family:'IdealSans-Light';}
	.st6{font-size:6.3987px;}
	.st7{fill-rule:evenodd;clip-rule:evenodd;fill:#1A1A1A;}
	.st8{font-family:'IdealSans-Semibold';}
	.st9{fill:none;stroke:#1A1A1A;stroke-width:0.16;stroke-miterlimit:2.5595;}
	.st10{fill:#F8F166;}
	.st11{fill:#E9522B;}
	.st12{fill:#00B6C9;}
</style>
<g>
	<defs>
		<rect id="SVGID_1_" x="-22.7" y="-20.6" width="192" height="511.9"/>
	</defs>
	<clipPath id="SVGID_2_">
		<use xlink:href="#SVGID_1_"  style="overflow:visible;"/>
	</clipPath>
	<g class="st0">
		<g>
			<defs>
				<rect id="SVGID_3_" x="-22.7" y="-20.6" width="192" height="511.9"/>
			</defs>
			<clipPath id="SVGID_4_">
				<use xlink:href="#SVGID_3_"  style="overflow:visible;"/>
			</clipPath>
			<g class="st1">
				<g id="Layer-1" serif:id="Layer 1">
				</g>
			</g>
		</g>
	</g>
</g>
<g id="Layer-11" serif:id="Layer 1">
	<g transform="matrix(2.08333,0,0,2.08333,61.4583,478.168)">
		<text transform="matrix(0.48 0 0 0.48 -12.9348 -163.0985)" class="st2 st3 st4">B</text>
		<text transform="matrix(0.48 0 0 0.48 -9.7338 -163.0985)" class="st2 st3 st4">y</text>
		<text transform="matrix(0.48 0 0 0.48 -7.2571 -163.0985)" class="st2 st3 st4"> </text>
		<text transform="matrix(0.48 0 0 0.48 -6.1623 -163.0985)" class="st2 st3 st4">P</text>
		<text transform="matrix(0.48 0 0 0.48 -3.2711 -163.0985)" class="st2 st3 st4">r</text>
		<text transform="matrix(0.48 0 0 0.48 -1.585 -163.0985)" class="st2 st3 st4">o</text>
		<text transform="matrix(0.48 0 0 0.48 1.4448 -163.0985)" class="st2 st3 st4">d</text>
		<text transform="matrix(0.48 0 0 0.48 4.4136 -163.0985)" class="st2 st3 st4">uct T</text>
		<text transform="matrix(0.48 0 0 0.48 15.7471 -163.0985)" class="st2 st3 st4">y</text>
		<text transform="matrix(0.48 0 0 0.48 18.2235 -163.0985)" class="st2 st3 st4">p</text>
		<text transform="matrix(0.48 0 0 0.48 21.1982 -163.0985)" class="st2 st3 st4">e</text>
		<text transform="matrix(0.48 0 0 0.48 -29.5 -154.8944)" class="st2 st5 st6">Loan</text>
		<path class="st7" d="M28.9-155.1c0.2-0.2,0.4-0.4,0.6-0.5c0.3-0.3,0.5-0.5,0.5-0.8c0-0.4-0.3-0.6-0.6-0.6c-0.2,0-0.5,0.1-0.7,0.3
			l0.1,0.2c0.2-0.2,0.4-0.3,0.6-0.3c0.3,0,0.4,0.2,0.4,0.4c0,0.3-0.3,0.7-1.1,1.4l0,0.2c0.2,0,0.4,0,0.7,0c0.3,0,0.5,0,0.7,0
			c0-0.1,0-0.1,0-0.2C29.7-155.1,29.3-155.1,28.9-155.1z"/>
		<path class="st7" d="M30.4-154.3c0.3-0.2,0.4-0.4,0.4-0.6c0-0.2-0.1-0.3-0.2-0.3c-0.1,0-0.2,0.1-0.2,0.2l0,0
			c0.1,0,0.1,0.1,0.1,0.2c0,0.1-0.1,0.2-0.2,0.3l0,0L30.4-154.3z"/>
		<path class="st7" d="M31.3-154.9c0.2,0.1,0.3,0.1,0.5,0.1c0.5,0,0.8-0.3,0.8-0.7c0-0.4-0.3-0.6-0.9-0.6c-0.1,0-0.1,0-0.2,0l0-0.7
			H32c0.2,0,0.4,0,0.6,0c0-0.1,0-0.2,0-0.2c-0.2,0-0.3,0-0.6,0c-0.3,0-0.4,0-0.6,0l0,0c0,0.1,0,0.2,0,0.3l0,0.3c0,0.1,0,0.2,0,0.3
			l0,0c0.1,0,0.2,0,0.3,0c0.5,0,0.7,0.2,0.7,0.4c0,0.2-0.2,0.4-0.6,0.4c-0.2,0-0.4,0-0.6-0.1C31.2-155.1,31.3-154.9,31.3-154.9z"/>
		<path class="st7" d="M32.9-157c0,0.1,0,0.2,0,0.2c0.2,0,0.4,0,0.7,0c0.2,0,0.4,0,0.5,0l-0.7,1.3c-0.1,0.2-0.2,0.4-0.3,0.5l0.2,0
			c0-0.1,0.1-0.3,0.2-0.4l0.7-1.3c0.1-0.1,0.1-0.3,0.2-0.3l-0.1-0.1c-0.2,0-0.5,0-0.7,0C33.3-157,33.2-157,32.9-157z"/>
		<path class="st7" d="M34.7-154.9c0.2,0.1,0.3,0.1,0.5,0.1c0.5,0,0.8-0.3,0.8-0.7c0-0.4-0.3-0.6-0.9-0.6c-0.1,0-0.1,0-0.2,0l0-0.7
			h0.4c0.2,0,0.4,0,0.6,0c0-0.1,0-0.2,0-0.2c-0.2,0-0.3,0-0.6,0c-0.3,0-0.4,0-0.6,0l0,0c0,0.1,0,0.2,0,0.3l0,0.3c0,0.1,0,0.2,0,0.3
			l0,0c0.1,0,0.2,0,0.3,0c0.5,0,0.7,0.2,0.7,0.4c0,0.2-0.2,0.4-0.6,0.4c-0.2,0-0.4,0-0.6-0.1C34.7-155.1,34.7-154.9,34.7-154.9z"/>
		<path class="st7" d="M36.8-155c0-0.1-0.1-0.2-0.2-0.2c-0.1,0-0.2,0.1-0.2,0.2c0,0.1,0.1,0.2,0.2,0.2
			C36.7-154.8,36.8-154.9,36.8-155z"/>
		<path class="st7" d="M37.2-157c0,0.1,0,0.2,0,0.2c0.2,0,0.4,0,0.7,0c0.2,0,0.4,0,0.5,0l-0.7,1.3c-0.1,0.2-0.2,0.4-0.3,0.5l0.2,0
			c0-0.1,0.1-0.3,0.2-0.4l0.7-1.3c0.1-0.1,0.1-0.3,0.2-0.3l-0.1-0.1c-0.2,0-0.5,0-0.7,0C37.6-157,37.5-157,37.2-157z"/>
		<path class="st7" d="M39.7-157.1c-0.5,0-0.7,0.5-0.7,1.1c0,0.6,0.2,1.1,0.7,1.1c0.5,0,0.7-0.5,0.7-1.1
			C40.4-156.6,40.2-157.1,39.7-157.1z M39.7-155c-0.3,0-0.5-0.4-0.5-0.9c0-0.5,0.2-0.9,0.5-0.9s0.5,0.4,0.5,0.9
			C40.2-155.5,40-155,39.7-155z"/>
		<text transform="matrix(0.48 0 0 0.48 -29.5 -148.7515)" class="st2 st5 st6">Gr</text>
		<text transform="matrix(0.48 0 0 0.48 -26.2596 -148.7515)" class="st2 st5 st6">a</text>
		<text transform="matrix(0.48 0 0 0.48 -24.7853 -148.7515)" class="st2 st5 st6">n</text>
		<text transform="matrix(0.48 0 0 0.48 -23.1178 -148.7515)" class="st2 st5 st6">t for I</text>
		<text transform="matrix(0.48 0 0 0.48 -16.2869 -148.7515)" class="st2 st5 st6">n</text>
		<text transform="matrix(0.48 0 0 0.48 -14.6191 -148.7515)" class="st2 st5 st6">vestment</text>
		<path class="st7" d="M33.2-148.9c0.2-0.2,0.4-0.4,0.6-0.5c0.3-0.3,0.5-0.5,0.5-0.8c0-0.4-0.3-0.6-0.6-0.6c-0.2,0-0.5,0.1-0.7,0.3
			l0.1,0.2c0.2-0.2,0.4-0.3,0.6-0.3c0.3,0,0.4,0.2,0.4,0.4c0,0.3-0.3,0.7-1.1,1.4l0,0.2c0.2,0,0.4,0,0.7,0c0.3,0,0.5,0,0.7,0
			c0-0.1,0-0.1,0-0.2C34-148.9,33.6-148.9,33.2-148.9z"/>
		<path class="st7" d="M34.7-148.8c0.2,0.1,0.4,0.1,0.5,0.1c0.5,0,0.8-0.3,0.8-0.6c0-0.3-0.2-0.5-0.7-0.5c0.4-0.1,0.6-0.3,0.6-0.6
			c0-0.3-0.3-0.5-0.7-0.5c-0.2,0-0.5,0.1-0.7,0.2l0.1,0.2c0.2-0.1,0.4-0.2,0.6-0.2c0.3,0,0.4,0.1,0.4,0.3c0,0.2-0.2,0.4-0.8,0.5
			l0,0.2c0.5,0,0.8,0.2,0.8,0.4c0,0.2-0.2,0.4-0.6,0.4c-0.2,0-0.4,0-0.6-0.1C34.6-149,34.7-148.8,34.7-148.8z"/>
		<path class="st7" d="M36.8-148.9c0-0.1-0.1-0.2-0.2-0.2c-0.1,0-0.2,0.1-0.2,0.2c0,0.1,0.1,0.2,0.2,0.2
			C36.7-148.7,36.8-148.8,36.8-148.9z"/>
		<path class="st7" d="M37.3-148.8c0.2,0.1,0.3,0.1,0.5,0.1c0.5,0,0.8-0.3,0.8-0.7c0-0.4-0.3-0.6-0.9-0.6c-0.1,0-0.1,0-0.2,0l0-0.7
			H38c0.2,0,0.4,0,0.6,0c0-0.1,0-0.2,0-0.2c-0.2,0-0.3,0-0.6,0c-0.3,0-0.4,0-0.6,0l0,0c0,0.1,0,0.2,0,0.3l0,0.3c0,0.1,0,0.2,0,0.3
			l0,0c0.1,0,0.2,0,0.3,0c0.5,0,0.7,0.2,0.7,0.4c0,0.2-0.2,0.4-0.6,0.4c-0.2,0-0.4,0-0.6-0.1C37.2-149,37.3-148.8,37.3-148.8z"/>
		<path class="st7" d="M39.9-148.8h0.2c0-0.1,0-0.3,0-0.4v-0.2l0.3,0c0-0.1,0-0.1,0-0.2c-0.1,0-0.2,0-0.3,0v-1c0-0.1,0-0.3,0-0.4
			l-0.1,0l-0.2,0.3l-0.9,1.2l0.1,0.1c0.2,0,0.5,0,0.8,0h0.2v0.1C39.9-149.1,39.9-148.9,39.9-148.8z M39.9-150.5v1h-0.8L39.9-150.5z"
			/>
		<text transform="matrix(0.48 0 0 0.48 -29.5 -142.6087)" class="st2 st5 st6">Gr</text>
		<text transform="matrix(0.48 0 0 0.48 -26.2596 -142.6087)" class="st2 st5 st6">a</text>
		<text transform="matrix(0.48 0 0 0.48 -24.7853 -142.6087)" class="st2 st5 st6">n</text>
		<text transform="matrix(0.48 0 0 0.48 -23.1178 -142.6087)" class="st2 st5 st6">t for T</text>
		<text transform="matrix(0.48 0 0 0.48 -15.5744 -142.6087)" class="st2 st5 st6">e</text>
		<text transform="matrix(0.48 0 0 0.48 -14.0388 -142.6087)" class="st2 st5 st6">c</text>
		<text transform="matrix(0.48 0 0 0.48 -12.5676 -142.6087)" class="st2 st5 st6">hnical Assistance</text>
		<path class="st7" d="M33-142.6c0.2,0.1,0.3,0.1,0.5,0.1c0.5,0,0.8-0.3,0.8-0.7c0-0.4-0.3-0.6-0.9-0.6c-0.1,0-0.1,0-0.2,0l0-0.7
			h0.4c0.2,0,0.4,0,0.6,0c0-0.1,0-0.2,0-0.2c-0.2,0-0.3,0-0.6,0c-0.3,0-0.4,0-0.6,0l0,0c0,0.1,0,0.2,0,0.3l0,0.3c0,0.1,0,0.2,0,0.3
			l0,0c0.1,0,0.2,0,0.3,0c0.5,0,0.7,0.2,0.7,0.4c0,0.2-0.2,0.4-0.6,0.4c-0.2,0-0.4,0-0.6-0.1C32.9-142.9,33-142.6,33-142.6z"/>
		<path class="st7" d="M34.6-144.7c0,0.1,0,0.2,0,0.2c0.2,0,0.4,0,0.7,0c0.2,0,0.4,0,0.5,0l-0.7,1.3c-0.1,0.2-0.2,0.4-0.3,0.5l0.2,0
			c0-0.1,0.1-0.3,0.2-0.4l0.7-1.3c0.1-0.1,0.1-0.3,0.2-0.3l-0.1-0.1c-0.2,0-0.5,0-0.7,0C35.1-144.7,34.9-144.7,34.6-144.7z"/>
		<path class="st7" d="M36.8-142.7c0-0.1-0.1-0.2-0.2-0.2c-0.1,0-0.2,0.1-0.2,0.2c0,0.1,0.1,0.2,0.2,0.2
			C36.7-142.6,36.8-142.6,36.8-142.7z"/>
		<path class="st7" d="M38-144.8c-0.5,0-0.7,0.5-0.7,1.1c0,0.6,0.2,1.1,0.7,1.1c0.5,0,0.7-0.5,0.7-1.1
			C38.7-144.3,38.4-144.8,38-144.8z M37.9-142.7c-0.3,0-0.5-0.4-0.5-0.9c0-0.5,0.2-0.9,0.5-0.9s0.5,0.4,0.5,0.9
			C38.5-143.2,38.3-142.7,37.9-142.7z"/>
		<path class="st7" d="M39-142.6c0.2,0.1,0.3,0.1,0.5,0.1c0.5,0,0.8-0.3,0.8-0.7c0-0.4-0.3-0.6-0.9-0.6c-0.1,0-0.1,0-0.2,0l0-0.7
			h0.4c0.2,0,0.4,0,0.6,0c0-0.1,0-0.2,0-0.2c-0.2,0-0.3,0-0.6,0c-0.3,0-0.4,0-0.6,0l0,0c0,0.1,0,0.2,0,0.3l0,0.3c0,0.1,0,0.2,0,0.3
			l0,0c0.1,0,0.2,0,0.3,0c0.5,0,0.7,0.2,0.7,0.4c0,0.2-0.2,0.4-0.6,0.4c-0.2,0-0.4,0-0.6-0.1C39-142.9,39-142.6,39-142.6z"/>
		<text transform="matrix(0.48 0 0 0.48 -29.5 -136.4414)" class="st2 st8 st6">T</text>
		<text transform="matrix(0.48 0 0 0.48 -27.7586 -136.4414)" class="st2 st8 st6">o</text>
		<text transform="matrix(0.48 0 0 0.48 -26.0385 -136.4414)" class="st2 st8 st6">t</text>
		<text transform="matrix(0.48 0 0 0.48 -24.8439 -136.4414)" class="st2 st8 st6">al</text>
		<path class="st7" d="M29.2-136.8c0.1-0.1,0.3-0.3,0.4-0.4c0.2-0.3,0.4-0.5,0.4-0.8c0-0.4-0.3-0.6-0.7-0.6c-0.3,0-0.5,0.1-0.7,0.2
			l0.1,0.4c0.2-0.1,0.4-0.2,0.5-0.2c0.2,0,0.3,0.1,0.3,0.3c0,0.3-0.3,0.6-1,1.1l0,0.3c0.2,0,0.5,0,0.7,0c0.3,0,0.5,0,0.7,0
			c0-0.2,0-0.3,0-0.4C29.8-136.8,29.5-136.8,29.2-136.8z"/>
		<path class="st7" d="M30.4-135.8c0.4-0.2,0.6-0.5,0.6-0.8c0-0.2-0.1-0.4-0.3-0.4c-0.1,0-0.3,0.1-0.3,0.3l0.1,0
			c0.1,0.1,0.2,0.1,0.2,0.2c0,0.1-0.1,0.2-0.3,0.4l0,0L30.4-135.8z"/>
		<path class="st7" d="M32.5-138.2l-0.1-0.4c-0.8,0.1-1.3,0.6-1.3,1.3c0,0.6,0.3,0.9,0.8,0.9c0.5,0,0.8-0.3,0.8-0.8
			c0-0.4-0.3-0.7-0.6-0.7c-0.2,0-0.3,0.1-0.4,0.2C31.7-138,32-138.2,32.5-138.2z M32.3-137.1c0,0.2-0.1,0.4-0.3,0.4
			c-0.2,0-0.3-0.1-0.3-0.4c0-0.2,0.1-0.4,0.3-0.4C32.1-137.5,32.3-137.4,32.3-137.1z"/>
		<path class="st7" d="M32.9-136.5c0.2,0.1,0.4,0.1,0.6,0.1c0.5,0,0.8-0.3,0.8-0.7c0-0.4-0.3-0.6-0.8-0.7c0,0-0.1,0-0.1,0l0-0.4h0.3
			c0.3,0,0.3,0,0.5,0c0-0.1,0-0.3,0-0.4c-0.3,0-0.3,0-0.6,0c-0.3,0-0.4,0-0.6,0l0,0v0.4l0,0.4c0,0.1,0,0.2,0,0.3l0,0
			c0.1,0,0.2,0,0.3,0c0.4,0,0.6,0.1,0.6,0.3c0,0.2-0.2,0.3-0.4,0.3c-0.2,0-0.4,0-0.6-0.1C32.9-136.9,32.9-136.5,32.9-136.5z"/>
		<path class="st7" d="M36-138.2l-0.1-0.4c-0.8,0.1-1.3,0.6-1.3,1.3c0,0.6,0.3,0.9,0.8,0.9c0.5,0,0.8-0.3,0.8-0.8
			c0-0.4-0.3-0.7-0.6-0.7c-0.2,0-0.3,0.1-0.4,0.2C35.2-138,35.5-138.2,36-138.2z M35.7-137.1c0,0.2-0.1,0.4-0.3,0.4
			c-0.2,0-0.3-0.1-0.3-0.4c0-0.2,0.1-0.4,0.3-0.4C35.6-137.5,35.7-137.4,35.7-137.1z"/>
		<path class="st7" d="M36.9-136.7c0-0.2-0.1-0.3-0.3-0.3c-0.2,0-0.3,0.1-0.3,0.3c0,0.1,0.1,0.3,0.3,0.3
			C36.8-136.4,36.9-136.5,36.9-136.7z"/>
		<path class="st7" d="M37.2-136.5c0.2,0.1,0.4,0.1,0.5,0.1c0.5,0,0.9-0.2,0.9-0.6c0-0.2-0.2-0.4-0.6-0.5c0.3-0.1,0.5-0.3,0.5-0.6
			c0-0.3-0.3-0.5-0.7-0.5c-0.2,0-0.5,0.1-0.7,0.2l0.1,0.3c0.2-0.1,0.4-0.2,0.5-0.2c0.2,0,0.3,0.1,0.3,0.2c0,0.2-0.2,0.3-0.7,0.4
			l0,0.3c0.4,0,0.7,0.1,0.7,0.3c0,0.2-0.2,0.2-0.5,0.2c-0.2,0-0.4,0-0.5-0.1L37.2-136.5z"/>
		<path class="st7" d="M39.7-138.6c-0.5,0-0.8,0.5-0.8,1.1c0,0.6,0.2,1.1,0.7,1.1c0.5,0,0.8-0.5,0.8-1.1
			C40.4-138.1,40.2-138.6,39.7-138.6z M39.7-136.8c-0.2,0-0.3-0.2-0.3-0.7c0-0.4,0.1-0.7,0.3-0.7c0.2,0,0.3,0.2,0.3,0.7
			C40-137.1,39.9-136.8,39.7-136.8z"/>
		<path class="st9" d="M-31.3-158.9h73.7 M-31.3-152.8h73.7 M-31.3-146.7h73.7 M-31.3-140.5h73.7 M-31.3-134.4h73.7"/>
	</g>
	<path class="st10" d="M65.7,0.9c2.5-0.3,5-0.5,7.6-0.5v14c-1.9,0-3.8,0.1-5.7,0.4L65.7,0.9z"/>
	<path class="st11" d="M62.6,1.4c1-0.2,2.1-0.4,3.1-0.5l1.9,13.9c-0.8,0.1-1.5,0.2-2.3,0.4C65.3,15.2,62.6,1.4,62.6,1.4z"/>
	<path class="st12" d="M73.3,0.4c30,0,54.7,23.5,56.1,53.5c1.4,29.9-20.9,55.7-50.8,58.6c-29.8,2.9-56.7-18.2-60.9-47.9
		c-4.3-29.7,15.5-57.5,45-63.2l2.7,13.8c-22.1,4.3-36.9,25.1-33.7,47.4c3.2,22.3,23.3,38.1,45.7,35.9c22.4-2.1,39.1-21.5,38.1-43.9
		c-1.1-22.5-19.6-40.1-42.1-40.1L73.3,0.4L73.3,0.4z"/>
</g>
</svg>
