<?xml version="1.0" encoding="utf-8"?>
<!-- Generator: Adobe Illustrator 24.1.0, SVG Export Plug-In . SVG Version: 6.00 Build 0)  -->
<svg version="1.1" id="Layer_1" xmlns:serif="http://www.serif.com/"
	 xmlns="http://www.w3.org/2000/svg" xmlns:xlink="http://www.w3.org/1999/xlink" x="0px" y="0px" viewBox="0 0 153.6 267.6"
	 style="enable-background:new 0 0 153.6 267.6;" xml:space="preserve">
<style type="text/css">
	.st0{clip-path:url(#SVGID_2_);}
	.st1{clip-path:url(#SVGID_4_);}
	.st2{fill:#1A1A1A;}
	.st3{font-family:'IdealSans-ExtraLight';}
	.st4{font-size:11.5177px;}
	.st5{font-family:'IdealSans-Light';}
	.st6{font-size:6.3987px;}
	.st7{fill-rule:evenodd;clip-rule:evenodd;fill:#1A1A1A;}
	.st8{fill-rule:evenodd;clip-rule:evenodd;}
	.st9{font-family:'IdealSans-Semibold';}
	.st10{fill:none;stroke:#1A1A1A;stroke-width:0.16;stroke-miterlimit:2.5595;}
	.st11{fill:#606060;}
	.st12{fill:#505050;}
	.st13{fill:#404040;}
	.st14{fill:#303030;}
	.st15{fill:#202020;}
	.st16{fill:#008FD1;}
	.st17{fill:#007DB7;}
</style>
<g>
	<defs>
		<rect id="SVGID_1_" x="-18.9" y="-19.4" width="192" height="511.9"/>
	</defs>
	<clipPath id="SVGID_2_">
		<use xlink:href="#SVGID_1_"  style="overflow:visible;"/>
	</clipPath>
	<g class="st0">
		<g>
			<defs>
				<rect id="SVGID_3_" x="-18.9" y="-19.4" width="192" height="511.9"/>
			</defs>
			<clipPath id="SVGID_4_">
				<use xlink:href="#SVGID_3_"  style="overflow:visible;"/>
			</clipPath>
			<g class="st1">
				<g id="Layer-1" serif:id="Layer 1">
				</g>
			</g>
		</g>
	</g>
</g>
<g id="Layer-11" serif:id="Layer 1">
	<g transform="matrix(2.08333,0,0,2.08333,61.4583,478.168)">
		<text transform="matrix(0.48 0 0 0.48 -2.4428 -162.5543)" class="st2 st3 st4">B</text>
		<text transform="matrix(0.48 0 0 0.48 0.7583 -162.5543)" class="st2 st3 st4">y</text>
		<text transform="matrix(0.48 0 0 0.48 3.235 -162.5543)" class="st2 st3 st4"> </text>
		<text transform="matrix(0.48 0 0 0.48 4.3298 -162.5543)" class="st2 st3 st4">DMC</text>
		<text transform="matrix(0.48 0 0 0.48 -27.6573 -154.3502)" class="st2 st5 st6">Philippines</text>
		<path class="st7" d="M30.8-154.5c0.2-0.2,0.4-0.4,0.6-0.5c0.3-0.3,0.5-0.5,0.5-0.8c0-0.4-0.3-0.6-0.6-0.6c-0.2,0-0.5,0.1-0.7,0.3
			l0.1,0.2c0.2-0.2,0.4-0.3,0.6-0.3c0.3,0,0.4,0.2,0.4,0.4c0,0.3-0.3,0.7-1.1,1.4l0,0.2c0.2,0,0.4,0,0.7,0c0.3,0,0.5,0,0.7,0
			c0-0.1,0-0.1,0-0.2C31.6-154.5,31.1-154.5,30.8-154.5z"/>
		<path class="st7" d="M32.3-153.8c0.3-0.2,0.4-0.4,0.4-0.6c0-0.2-0.1-0.3-0.2-0.3c-0.1,0-0.2,0.1-0.2,0.2l0,0
			c0.1,0,0.1,0.1,0.1,0.2c0,0.1-0.1,0.2-0.2,0.3l0,0L32.3-153.8z"/>
		<path class="st7" d="M33.8-156.5c-0.5,0-0.7,0.5-0.7,1.1c0,0.6,0.2,1.1,0.7,1.1c0.5,0,0.7-0.5,0.7-1.1
			C34.5-156,34.3-156.5,33.8-156.5z M33.8-154.5c-0.3,0-0.5-0.4-0.5-0.9c0-0.5,0.2-0.9,0.5-0.9s0.5,0.4,0.5,0.9
			C34.3-154.9,34.1-154.5,33.8-154.5z"/>
		<path class="st7" d="M36.2-154.6c-0.1,0-0.3,0-0.4,0h-0.2v-1.6c0-0.1,0-0.3,0-0.4l0,0l-0.2,0.1c-0.1,0-0.4,0.1-0.6,0.2l0,0.2
			l0.5-0.2v1.3c0,0.1,0,0.3,0,0.4h-0.2c-0.1,0-0.2,0-0.4,0c0,0.1,0,0.1,0,0.2c0.2,0,0.3,0,0.5,0h0.3c0.2,0,0.4,0,0.6,0
			C36.2-154.4,36.2-154.5,36.2-154.6L36.2-154.6z"/>
		<path class="st7" d="M37.5-154.4h0.2c0-0.1,0-0.3,0-0.4v-0.2l0.3,0c0-0.1,0-0.1,0-0.2c-0.1,0-0.2,0-0.3,0v-1c0-0.1,0-0.3,0-0.4
			l-0.1,0l-0.2,0.3l-0.9,1.2l0.1,0.1c0.2,0,0.5,0,0.8,0h0.2v0.1C37.5-154.7,37.5-154.5,37.5-154.4z M37.5-156.1v1h-0.8L37.5-156.1z"
			/>
		<path class="st7" d="M38.7-154.5c0-0.1-0.1-0.2-0.2-0.2c-0.1,0-0.2,0.1-0.2,0.2c0,0.1,0.1,0.2,0.2,0.2
			C38.6-154.3,38.7-154.4,38.7-154.5z"/>
		<path class="st7" d="M39.8-156.5c-0.5,0-0.7,0.5-0.7,1.1c0,0.6,0.2,1.1,0.7,1.1c0.5,0,0.7-0.5,0.7-1.1
			C40.5-156,40.3-156.5,39.8-156.5z M39.8-154.5c-0.3,0-0.5-0.4-0.5-0.9c0-0.5,0.2-0.9,0.5-0.9s0.5,0.4,0.5,0.9
			C40.3-154.9,40.1-154.5,39.8-154.5z"/>
		<path class="st7" d="M41.5-156.5c-0.5,0-0.7,0.5-0.7,1.1c0,0.6,0.2,1.1,0.7,1.1c0.5,0,0.7-0.5,0.7-1.1
			C42.2-156,42-156.5,41.5-156.5z M41.5-154.5c-0.3,0-0.5-0.4-0.5-0.9c0-0.5,0.2-0.9,0.5-0.9s0.5,0.4,0.5,0.9
			C42-154.9,41.8-154.5,41.5-154.5z"/>
		<text transform="matrix(0.48 0 0 0.48 -27.6573 -148.2072)" class="st2 st5 st6">Indonesia</text>
		<path class="st7" d="M33.1-148.2c0.2,0.1,0.3,0.1,0.5,0.1c0.5,0,0.8-0.3,0.8-0.7c0-0.4-0.3-0.6-0.9-0.6c-0.1,0-0.1,0-0.2,0l0-0.7
			h0.4c0.2,0,0.4,0,0.6,0c0-0.1,0-0.2,0-0.2c-0.2,0-0.3,0-0.6,0c-0.3,0-0.4,0-0.6,0l0,0c0,0.1,0,0.2,0,0.3l0,0.3c0,0.1,0,0.2,0,0.3
			l0,0c0.1,0,0.2,0,0.3,0c0.5,0,0.7,0.2,0.7,0.4c0,0.2-0.2,0.4-0.6,0.4c-0.2,0-0.4,0-0.6-0.1C33.1-148.5,33.1-148.2,33.1-148.2z"/>
		<path class="st7" d="M34.8-150.3c0,0.1,0,0.2,0,0.2c0.2,0,0.4,0,0.7,0c0.2,0,0.4,0,0.5,0l-0.7,1.3c-0.1,0.2-0.2,0.4-0.3,0.5l0.2,0
			c0-0.1,0.1-0.3,0.2-0.4l0.7-1.3c0.1-0.1,0.1-0.3,0.2-0.3l-0.1-0.1c-0.2,0-0.5,0-0.7,0C35.2-150.3,35-150.3,34.8-150.3z"/>
		<path class="st7" d="M36.8-148.4c0.2-0.2,0.4-0.4,0.6-0.5c0.3-0.3,0.5-0.5,0.5-0.8c0-0.4-0.3-0.6-0.6-0.6c-0.2,0-0.5,0.1-0.7,0.3
			l0.1,0.2c0.2-0.2,0.4-0.3,0.6-0.3c0.3,0,0.4,0.2,0.4,0.4c0,0.3-0.3,0.7-1.1,1.4l0,0.2c0.2,0,0.4,0,0.7,0c0.3,0,0.5,0,0.7,0
			c0-0.1,0-0.1,0-0.2C37.6-148.4,37.2-148.4,36.8-148.4z"/>
		<path class="st7" d="M38.7-148.3c0-0.1-0.1-0.2-0.2-0.2c-0.1,0-0.2,0.1-0.2,0.2c0,0.1,0.1,0.2,0.2,0.2
			C38.6-148.2,38.7-148.2,38.7-148.3z"/>
		<path class="st7" d="M39.2-148.3l0,0.2c0.8-0.1,1.2-0.7,1.2-1.4c0-0.5-0.3-0.8-0.7-0.8c-0.4,0-0.7,0.3-0.7,0.7
			c0,0.4,0.3,0.7,0.7,0.7c0.2,0,0.4-0.1,0.6-0.3C40.2-148.8,39.8-148.4,39.2-148.3z M39.3-149.6c0-0.3,0.2-0.5,0.5-0.5
			c0.3,0,0.5,0.2,0.5,0.5c0,0.3-0.2,0.5-0.5,0.5C39.5-149.2,39.3-149.4,39.3-149.6z"/>
		<path class="st7" d="M40.8-150.3c0,0.1,0,0.2,0,0.2c0.2,0,0.4,0,0.7,0c0.2,0,0.4,0,0.5,0l-0.7,1.3c-0.1,0.2-0.2,0.4-0.3,0.5l0.2,0
			c0-0.1,0.1-0.3,0.2-0.4l0.7-1.3c0.1-0.1,0.1-0.3,0.2-0.3l-0.1-0.1c-0.2,0-0.5,0-0.7,0C41.2-150.3,41-150.3,40.8-150.3z"/>
		<text transform="matrix(0.48 0 0 0.48 -27.6573 -142.0645)" class="st2 st5 st6">Viet N</text>
		<text transform="matrix(0.48 0 0 0.48 -19.4015 -142.0645)" class="st2 st5 st6">a</text>
		<text transform="matrix(0.48 0 0 0.48 -17.9272 -142.0645)" class="st2 st5 st6">m</text>
		<path class="st7" d="M35.1-142.3c0.2-0.2,0.4-0.4,0.6-0.5c0.3-0.3,0.5-0.5,0.5-0.8c0-0.4-0.3-0.6-0.6-0.6c-0.2,0-0.5,0.1-0.7,0.3
			l0.1,0.2c0.2-0.2,0.4-0.3,0.6-0.3c0.3,0,0.4,0.2,0.4,0.4c0,0.3-0.3,0.7-1.1,1.4l0,0.2c0.2,0,0.4,0,0.7,0c0.3,0,0.5,0,0.7,0
			c0-0.1,0-0.1,0-0.2C35.9-142.3,35.4-142.3,35.1-142.3z"/>
		<path class="st7" d="M37.5-142.1h0.2c0-0.1,0-0.3,0-0.4v-0.2l0.3,0c0-0.1,0-0.1,0-0.2c-0.1,0-0.2,0-0.3,0v-1c0-0.1,0-0.3,0-0.4
			l-0.1,0l-0.2,0.3l-0.9,1.2l0.1,0.1c0.2,0,0.5,0,0.8,0h0.2v0.1C37.5-142.4,37.5-142.2,37.5-142.1z M37.5-143.8v1h-0.8L37.5-143.8z"
			/>
		<path class="st7" d="M38.7-142.2c0-0.1-0.1-0.2-0.2-0.2c-0.1,0-0.2,0.1-0.2,0.2c0,0.1,0.1,0.2,0.2,0.2
			C38.6-142,38.7-142.1,38.7-142.2z"/>
		<path class="st7" d="M40-142.1h0.2c0-0.1,0-0.3,0-0.4v-0.2l0.3,0c0-0.1,0-0.1,0-0.2c-0.1,0-0.2,0-0.3,0v-1c0-0.1,0-0.3,0-0.4
			l-0.1,0l-0.2,0.3l-0.9,1.2l0.1,0.1c0.2,0,0.5,0,0.8,0H40v0.1C40-142.4,40-142.2,40-142.1z M40-143.8v1h-0.8L40-143.8z"/>
		<path class="st7" d="M41.5-144.2c-0.5,0-0.7,0.5-0.7,1.1c0,0.6,0.2,1.1,0.7,1.1c0.5,0,0.7-0.5,0.7-1.1
			C42.2-143.7,42-144.2,41.5-144.2z M41.5-142.2c-0.3,0-0.5-0.4-0.5-0.9c0-0.5,0.2-0.9,0.5-0.9s0.5,0.4,0.5,0.9
			C42-142.6,41.8-142.2,41.5-142.2z"/>
		<text transform="matrix(0.48 0 0 0.48 -27.6573 -135.9217)" class="st5 st6">Others</text>
		<text transform="matrix(0.48 0 0 0.48 -23.9715 -129.779)" class="st2 st5 st6">R</text>
		<text transform="matrix(0.48 0 0 0.48 -22.1104 -129.779)" class="st2 st5 st6">e</text>
		<text transform="matrix(0.48 0 0 0.48 -20.5839 -129.779)" class="st2 st5 st6">g</text>
		<text transform="matrix(0.48 0 0 0.48 -19.1467 -129.779)" class="st2 st5 st6">ional</text>
		<path class="st7" d="M36.2-130c-0.1,0-0.3,0-0.4,0h-0.2v-1.6c0-0.1,0-0.3,0-0.4l0,0l-0.2,0.1c-0.1,0-0.4,0.1-0.6,0.2l0,0.2
			l0.5-0.2v1.3c0,0.1,0,0.3,0,0.4h-0.2c-0.1,0-0.2,0-0.4,0c0,0.1,0,0.1,0,0.2c0.2,0,0.3,0,0.5,0h0.3c0.2,0,0.4,0,0.6,0
			C36.2-129.8,36.2-129.9,36.2-130L36.2-130z"/>
		<path class="st7" d="M36.5-130.3c0,0.3,0.3,0.6,0.7,0.6c0.4,0,0.7-0.3,0.7-0.6c0-0.3-0.2-0.4-0.5-0.6c0.3-0.1,0.4-0.3,0.4-0.5
			c0-0.3-0.3-0.5-0.6-0.5c-0.4,0-0.7,0.2-0.7,0.6c0,0.3,0.2,0.4,0.4,0.5C36.7-130.8,36.5-130.6,36.5-130.3z M37.7-130.3
			c0,0.2-0.2,0.4-0.5,0.4c-0.3,0-0.5-0.2-0.5-0.4c0-0.2,0.2-0.4,0.5-0.5C37.5-130.7,37.7-130.5,37.7-130.3z M36.8-131.4
			c0-0.2,0.2-0.4,0.4-0.4c0.2,0,0.4,0.1,0.4,0.4c0,0.2-0.2,0.3-0.4,0.4C37-131.1,36.8-131.2,36.8-131.4z"/>
		<path class="st7" d="M38.7-129.9c0-0.1-0.1-0.2-0.2-0.2c-0.1,0-0.2,0.1-0.2,0.2c0,0.1,0.1,0.2,0.2,0.2
			C38.6-129.7,38.7-129.8,38.7-129.9z"/>
		<path class="st7" d="M39.8-131.9c-0.5,0-0.7,0.5-0.7,1.1c0,0.6,0.2,1.1,0.7,1.1c0.5,0,0.7-0.5,0.7-1.1
			C40.5-131.5,40.3-131.9,39.8-131.9z M39.8-129.9c-0.3,0-0.5-0.4-0.5-0.9c0-0.5,0.2-0.9,0.5-0.9s0.5,0.4,0.5,0.9
			C40.3-130.3,40.1-129.9,39.8-129.9z"/>
		<path class="st7" d="M41.5-131.9c-0.5,0-0.7,0.5-0.7,1.1c0,0.6,0.2,1.1,0.7,1.1c0.5,0,0.7-0.5,0.7-1.1
			C42.2-131.5,42-131.9,41.5-131.9z M41.5-129.9c-0.3,0-0.5-0.4-0.5-0.9c0-0.5,0.2-0.9,0.5-0.9s0.5,0.4,0.5,0.9
			C42-130.3,41.8-129.9,41.5-129.9z"/>
		<text transform="matrix(0.48 0 0 0.48 -23.9715 -123.6363)" class="st5 st6">Cambodia</text>
		<path class="st8" d="M36.2-123.8c-0.1,0-0.3,0-0.4,0h-0.2v-1.6c0-0.1,0-0.3,0-0.4l0,0l-0.2,0.1c-0.1,0-0.4,0.1-0.6,0.2l0,0.2
			l0.5-0.2v1.3c0,0.1,0,0.3,0,0.4h-0.2c-0.1,0-0.2,0-0.4,0c0,0.1,0,0.1,0,0.2c0.2,0,0.3,0,0.5,0h0.3c0.2,0,0.4,0,0.6,0
			C36.2-123.7,36.2-123.8,36.2-123.8L36.2-123.8z"/>
		<path class="st8" d="M36.5-125.7c0,0.1,0,0.2,0,0.2c0.2,0,0.4,0,0.7,0c0.2,0,0.4,0,0.5,0l-0.7,1.3c-0.1,0.2-0.2,0.4-0.3,0.5l0.2,0
			c0-0.1,0.1-0.3,0.2-0.4l0.7-1.3c0.1-0.1,0.1-0.3,0.2-0.3l-0.1-0.1c-0.2,0-0.5,0-0.7,0C36.9-125.7,36.7-125.7,36.5-125.7z"/>
		<path class="st8" d="M38.7-123.8c0-0.1-0.1-0.2-0.2-0.2c-0.1,0-0.2,0.1-0.2,0.2c0,0.1,0.1,0.2,0.2,0.2
			C38.6-123.6,38.7-123.7,38.7-123.8z"/>
		<path class="st8" d="M39.1-123.7c0.2,0.1,0.4,0.1,0.5,0.1c0.5,0,0.8-0.3,0.8-0.6c0-0.3-0.2-0.5-0.7-0.5c0.4-0.1,0.6-0.3,0.6-0.6
			c0-0.3-0.3-0.5-0.7-0.5c-0.2,0-0.5,0.1-0.7,0.2l0.1,0.2c0.2-0.1,0.4-0.2,0.6-0.2c0.3,0,0.4,0.1,0.4,0.3c0,0.2-0.2,0.4-0.8,0.5
			l0,0.2c0.5,0,0.8,0.2,0.8,0.4c0,0.2-0.2,0.4-0.6,0.4c-0.2,0-0.4,0-0.6-0.1C39.1-123.9,39.1-123.7,39.1-123.7z"/>
		<path class="st8" d="M40.8-123.7c0.2,0.1,0.3,0.1,0.5,0.1c0.5,0,0.8-0.3,0.8-0.7c0-0.4-0.3-0.6-0.9-0.6c-0.1,0-0.1,0-0.2,0l0-0.7
			h0.4c0.2,0,0.4,0,0.6,0c0-0.1,0-0.2,0-0.2c-0.2,0-0.3,0-0.6,0c-0.3,0-0.4,0-0.6,0l0,0c0,0.1,0,0.2,0,0.3l0,0.3c0,0.1,0,0.2,0,0.3
			l0,0c0.1,0,0.2,0,0.3,0c0.5,0,0.7,0.2,0.7,0.4c0,0.2-0.2,0.4-0.6,0.4c-0.2,0-0.4,0-0.6-0.1C40.8-123.9,40.8-123.7,40.8-123.7z"/>
		<text transform="matrix(0.48 0 0 0.48 -23.9715 -117.4937)" class="st5 st6">Myanmar</text>
		<path class="st8" d="M36.5-117.5c0.2,0.1,0.3,0.1,0.5,0.1c0.5,0,0.8-0.3,0.8-0.7c0-0.4-0.3-0.6-0.9-0.6c-0.1,0-0.1,0-0.2,0l0-0.7
			h0.4c0.2,0,0.4,0,0.6,0c0-0.1,0-0.2,0-0.2c-0.2,0-0.3,0-0.6,0c-0.3,0-0.4,0-0.6,0l0,0c0,0.1,0,0.2,0,0.3l0,0.3c0,0.1,0,0.2,0,0.3
			l0,0c0.1,0,0.2,0,0.3,0c0.5,0,0.7,0.2,0.7,0.4c0,0.2-0.2,0.4-0.6,0.4c-0.2,0-0.4,0-0.6-0.1C36.5-117.7,36.5-117.5,36.5-117.5z"/>
		<path class="st8" d="M38.7-117.6c0-0.1-0.1-0.2-0.2-0.2c-0.1,0-0.2,0.1-0.2,0.2c0,0.1,0.1,0.2,0.2,0.2
			C38.6-117.4,38.7-117.5,38.7-117.6z"/>
		<path class="st8" d="M40.5-117.7c-0.1,0-0.3,0-0.4,0H40v-1.6c0-0.1,0-0.3,0-0.4l0,0l-0.2,0.1c-0.1,0-0.4,0.1-0.6,0.2l0,0.2
			l0.5-0.2v1.3c0,0.1,0,0.3,0,0.4h-0.2c-0.1,0-0.2,0-0.4,0c0,0.1,0,0.1,0,0.2c0.2,0,0.3,0,0.5,0H40c0.2,0,0.4,0,0.6,0
			C40.5-117.6,40.5-117.6,40.5-117.7L40.5-117.7z"/>
		<path class="st8" d="M42.2-117.7c-0.1,0-0.3,0-0.4,0h-0.2v-1.6c0-0.1,0-0.3,0-0.4l0,0l-0.2,0.1c-0.1,0-0.4,0.1-0.6,0.2l0,0.2
			l0.5-0.2v1.3c0,0.1,0,0.3,0,0.4h-0.2c-0.1,0-0.2,0-0.4,0c0,0.1,0,0.1,0,0.2c0.2,0,0.3,0,0.5,0h0.3c0.2,0,0.4,0,0.6,0
			C42.2-117.6,42.2-117.6,42.2-117.7L42.2-117.7z"/>
		<path class="st8" d="M-9.4-112.8c0.1-0.2,0.2-0.6,0.2-0.8l-0.3,0c0,0.2,0,0.6-0.1,0.8C-9.5-112.8-9.4-112.8-9.4-112.8z"/>
		<text transform="matrix(0.48 0 0 0.48 -23.9715 -111.3508)" class="st5 st6">Lao P</text>
		<text transform="matrix(0.48 0 0 0.48 -16.929 -111.3508)" class="st5 st6">e</text>
		<text transform="matrix(0.48 0 0 0.48 -15.3934 -111.3508)" class="st5 st6">o</text>
		<text transform="matrix(0.48 0 0 0.48 -13.7256 -111.3508)" class="st5 st6">ple</text>
		<text transform="matrix(0.48 0 0 0.48 -8.965 -111.3508)" class="st5 st6">s</text>
		<text transform="matrix(0.48 0 0 0.48 -7.7181 -111.3508)" class="st5 st6"> Democr</text>
		<text transform="matrix(0.48 0 0 0.48 3.3421 -111.3508)" class="st5 st6">a</text>
		<text transform="matrix(0.48 0 0 0.48 4.8102 -111.3508)" class="st5 st6">t</text>
		<text transform="matrix(0.48 0 0 0.48 5.8485 -111.3508)" class="st5 st6">ic R</text>
		<text transform="matrix(0.48 0 0 0.48 10.5107 -111.3508)" class="st5 st6">e</text>
		<text transform="matrix(0.48 0 0 0.48 12.0463 -111.3508)" class="st5 st6">p</text>
		<text transform="matrix(0.48 0 0 0.48 13.7174 -111.3508)" class="st5 st6">ublic</text>
		<path class="st8" d="M37.5-111.4h0.2c0-0.1,0-0.3,0-0.4v-0.2l0.3,0c0-0.1,0-0.1,0-0.2c-0.1,0-0.2,0-0.3,0v-1c0-0.1,0-0.3,0-0.4
			l-0.1,0l-0.2,0.3l-0.9,1.2l0.1,0.1c0.2,0,0.5,0,0.8,0h0.2v0.1C37.5-111.7,37.5-111.5,37.5-111.4z M37.5-113.1v1h-0.8L37.5-113.1z"
			/>
		<path class="st8" d="M38.7-111.5c0-0.1-0.1-0.2-0.2-0.2c-0.1,0-0.2,0.1-0.2,0.2c0,0.1,0.1,0.2,0.2,0.2
			C38.6-111.3,38.7-111.4,38.7-111.5z"/>
		<path class="st8" d="M40-111.4h0.2c0-0.1,0-0.3,0-0.4v-0.2l0.3,0c0-0.1,0-0.1,0-0.2c-0.1,0-0.2,0-0.3,0v-1c0-0.1,0-0.3,0-0.4
			l-0.1,0l-0.2,0.3L39-112l0.1,0.1c0.2,0,0.5,0,0.8,0H40v0.1C40-111.7,40-111.5,40-111.4z M40-113.1v1h-0.8L40-113.1z"/>
		<path class="st8" d="M42.1-113.3l0-0.2c-0.8,0.1-1.2,0.7-1.2,1.4c0,0.5,0.3,0.8,0.7,0.8c0.4,0,0.7-0.3,0.7-0.7
			c0-0.4-0.3-0.7-0.7-0.7c-0.2,0-0.4,0.1-0.6,0.3C41.1-112.9,41.5-113.2,42.1-113.3z M42-112c0,0.3-0.2,0.5-0.5,0.5
			c-0.3,0-0.5-0.2-0.5-0.5c0-0.3,0.2-0.5,0.5-0.5C41.8-112.5,42-112.3,42-112z"/>
		<text transform="matrix(0.48 0 0 0.48 -27.6573 -105.1839)" class="st9 st6">T</text>
		<text transform="matrix(0.48 0 0 0.48 -25.9159 -105.1839)" class="st9 st6">o</text>
		<text transform="matrix(0.48 0 0 0.48 -24.1958 -105.1839)" class="st9 st6">t</text>
		<text transform="matrix(0.48 0 0 0.48 -23.0012 -105.1839)" class="st9 st6">al</text>
		<path class="st8" d="M31.1-105.6c0.1-0.1,0.3-0.3,0.4-0.4c0.2-0.3,0.4-0.5,0.4-0.8c0-0.4-0.3-0.6-0.7-0.6c-0.3,0-0.5,0.1-0.7,0.2
			l0.1,0.4c0.2-0.1,0.4-0.2,0.5-0.2c0.2,0,0.3,0.1,0.3,0.3c0,0.3-0.3,0.6-1,1.1l0,0.3c0.2,0,0.5,0,0.7,0c0.3,0,0.5,0,0.7,0
			c0-0.2,0-0.3,0-0.4C31.7-105.6,31.3-105.6,31.1-105.6z"/>
		<path class="st8" d="M32.2-104.5c0.4-0.2,0.6-0.5,0.6-0.8c0-0.2-0.1-0.3-0.3-0.3c-0.1,0-0.3,0.1-0.3,0.3l0.1,0
			c0.1,0.1,0.2,0.1,0.2,0.2c0,0.1-0.1,0.2-0.3,0.4l0,0L32.2-104.5z"/>
		<path class="st8" d="M34.4-107l-0.1-0.4c-0.8,0.1-1.3,0.6-1.3,1.3c0,0.6,0.3,0.9,0.8,0.9c0.5,0,0.8-0.3,0.8-0.8
			c0-0.4-0.3-0.7-0.6-0.7c-0.2,0-0.3,0.1-0.4,0.2C33.6-106.7,33.9-106.9,34.4-107z M34.1-105.9c0,0.2-0.1,0.4-0.3,0.4
			c-0.2,0-0.3-0.1-0.3-0.4c0-0.2,0.1-0.4,0.3-0.4C34-106.2,34.1-106.1,34.1-105.9z"/>
		<path class="st8" d="M34.8-105.2c0.2,0.1,0.4,0.1,0.6,0.1c0.5,0,0.8-0.3,0.8-0.7c0-0.4-0.3-0.6-0.8-0.7c0,0-0.1,0-0.1,0l0-0.4h0.3
			c0.3,0,0.3,0,0.5,0c0-0.1,0-0.3,0-0.4c-0.3,0-0.3,0-0.6,0c-0.3,0-0.4,0-0.6,0l0,0v0.4l0,0.4c0,0.1,0,0.2,0,0.3l0,0
			c0.1,0,0.2,0,0.3,0c0.4,0,0.6,0.1,0.6,0.3c0,0.2-0.2,0.3-0.4,0.3c-0.2,0-0.4,0-0.6-0.1L34.8-105.2L34.8-105.2z"/>
		<path class="st8" d="M37.8-107l-0.1-0.4c-0.8,0.1-1.3,0.6-1.3,1.3c0,0.6,0.3,0.9,0.8,0.9c0.5,0,0.8-0.3,0.8-0.8
			c0-0.4-0.3-0.7-0.6-0.7c-0.2,0-0.3,0.1-0.4,0.2C37-106.7,37.3-106.9,37.8-107z M37.5-105.9c0,0.2-0.1,0.4-0.3,0.4
			c-0.2,0-0.3-0.1-0.3-0.4c0-0.2,0.1-0.4,0.3-0.4C37.4-106.2,37.5-106.1,37.5-105.9z"/>
		<path class="st8" d="M38.8-105.4c0-0.2-0.1-0.3-0.3-0.3c-0.2,0-0.3,0.1-0.3,0.3c0,0.1,0.1,0.3,0.3,0.3
			C38.7-105.1,38.8-105.2,38.8-105.4z"/>
		<path class="st8" d="M39.1-105.2c0.2,0.1,0.4,0.1,0.5,0.1c0.5,0,0.9-0.2,0.9-0.6c0-0.2-0.2-0.4-0.6-0.5c0.3-0.1,0.5-0.3,0.5-0.5
			c0-0.3-0.3-0.5-0.7-0.5c-0.2,0-0.5,0.1-0.7,0.2l0.1,0.4c0.2-0.1,0.4-0.2,0.5-0.2c0.2,0,0.3,0.1,0.3,0.2c0,0.2-0.2,0.3-0.7,0.4
			l0,0.3c0.4,0,0.7,0.1,0.7,0.3c0,0.2-0.2,0.2-0.5,0.2c-0.2,0-0.4,0-0.5-0.1C39-105.6,39.1-105.2,39.1-105.2z"/>
		<path class="st8" d="M41.5-107.3c-0.5,0-0.8,0.5-0.8,1.1c0,0.6,0.2,1.1,0.7,1.1c0.5,0,0.8-0.5,0.8-1.1
			C42.3-106.9,42-107.3,41.5-107.3z M41.5-105.5c-0.2,0-0.3-0.2-0.3-0.7c0-0.4,0.1-0.7,0.3-0.7c0.2,0,0.3,0.2,0.3,0.7
			C41.8-105.8,41.7-105.5,41.5-105.5z"/>
		<path class="st10" d="M-29.5-158.4h73.7 M-29.5-152.3h73.7 M-29.5-146.1h73.7 M-29.5-140h73.7 M-29.5-133.8h73.7 M-29.5-127.7
			h73.7 M-29.5-121.5h73.7 M-29.5-115.4h73.7 M-29.5-109.3h73.7 M-29.5-103.1h73.7"/>
	</g>
	<path class="st11" d="M76.5,0c0.2,0,0.4,0,0.6,0v14.2c-0.2,0-0.3,0-0.5,0C76.7,14.2,76.5,0,76.5,0z"/>
	<path class="st12" d="M75.8,0c0.2,0,0.5,0,0.7,0l0.2,14.2c-0.2,0-0.3,0-0.5,0C76.1,14.2,75.8,0,75.8,0z"/>
	<path class="st13" d="M73.5,0.1C74.3,0.1,75,0,75.8,0l0.3,14.2c-0.6,0-1.2,0-1.8,0.1L73.5,0.1z"/>
	<path class="st14" d="M71.1,0.3c0.8-0.1,1.6-0.2,2.4-0.2l0.9,14.2c-0.6,0-1.2,0.1-1.8,0.2L71.1,0.3z"/>
	<path class="st15" d="M67.8,0.8c1.1-0.2,2.2-0.3,3.3-0.4l1.5,14.1c-0.8,0.1-1.6,0.2-2.4,0.3L67.8,0.8z"/>
	<path class="st16" d="M20.3,54C21.6,27.3,41.4,5.1,67.8,0.8l2.3,14c-19.8,3.3-34.6,19.9-35.7,39.9C34.5,54.7,20.3,54,20.3,54z"/>
	<path class="st17" d="M77.1,0c23.3,0,44.2,14.2,52.9,35.8c8.6,21.6,3.2,46.3-13.7,62.4c-16.9,16-41.8,20.2-63,10.4
		c-21.2-9.7-34.2-31.4-33-54.6l14.2,0.7c-0.9,17.4,8.9,33.7,24.8,41c15.9,7.3,34.6,4.2,47.2-7.8c12.7-12,16.7-30.6,10.2-46.8
		c-6.5-16.2-22.2-26.9-39.6-26.9C77.1,14.2,77.1,0,77.1,0z"/>
</g>
</svg>
