<?xml version="1.0" encoding="utf-8"?>
<!-- Generator: Adobe Illustrator 24.1.0, SVG Export Plug-In . SVG Version: 6.00 Build 0)  -->
<svg version="1.1" id="Layer_1" xmlns:serif="http://www.serif.com/"
	 xmlns="http://www.w3.org/2000/svg" xmlns:xlink="http://www.w3.org/1999/xlink" x="0px" y="0px" viewBox="0 0 153.6 296.6"
	 style="enable-background:new 0 0 153.6 296.6;" xml:space="preserve">
<style type="text/css">
	.st0{clip-path:url(#SVGID_2_);}
	.st1{clip-path:url(#SVGID_4_);}
	.st2{fill:#1A1A1A;}
	.st3{font-family:'IdealSans-ExtraLight';}
	.st4{font-size:11.5177px;}
	.st5{font-family:'IdealSans-Light';}
	.st6{font-size:6.3987px;}
	.st7{fill-rule:evenodd;clip-rule:evenodd;fill:#1A1A1A;}
	.st8{font-family:'IdealSans-Semibold';}
	.st9{fill:none;stroke:#1A1A1A;stroke-width:0.16;stroke-miterlimit:2.5595;}
	.st10{fill:#707070;}
	.st11{fill:#606060;}
	.st12{fill:#505050;}
	.st13{fill:#404040;}
	.st14{fill:#303030;}
	.st15{fill:#202020;}
	.st16{fill:#A1D35F;}
	.st17{fill:#8CC63F;}
</style>
<g>
	<defs>
		<rect id="SVGID_1_" x="-18.9" y="-19.4" width="192" height="511.9"/>
	</defs>
	<clipPath id="SVGID_2_">
		<use xlink:href="#SVGID_1_"  style="overflow:visible;"/>
	</clipPath>
	<g class="st0">
		<g>
			<defs>
				<rect id="SVGID_3_" x="-18.9" y="-19.4" width="192" height="511.9"/>
			</defs>
			<clipPath id="SVGID_4_">
				<use xlink:href="#SVGID_3_"  style="overflow:visible;"/>
			</clipPath>
			<g class="st1">
				<g id="Layer-1" serif:id="Layer 1">
				</g>
			</g>
		</g>
	</g>
</g>
<g id="Layer-11" serif:id="Layer 1">
	<g transform="matrix(2.08333,0,0,2.08333,61.4583,478.168)">
		<text transform="matrix(0.48 0 0 0.48 -3.4435 -162.5543)" class="st2 st3 st4">B</text>
		<text transform="matrix(0.48 0 0 0.48 -0.2424 -162.5543)" class="st2 st3 st4">y</text>
		<text transform="matrix(0.48 0 0 0.48 2.2344 -162.5543)" class="st2 st3 st4"> </text>
		<text transform="matrix(0.48 0 0 0.48 3.329 -162.5543)" class="st2 st3 st4">Sector</text>
		<text transform="matrix(0.48 0 0 0.48 -27.6573 -154.3502)" class="st2 st5 st6">T</text>
		<text transform="matrix(0.48 0 0 0.48 -26.0172 -154.3502)" class="st2 st5 st6">r</text>
		<text transform="matrix(0.48 0 0 0.48 -25.0466 -154.3502)" class="st2 st5 st6">a</text>
		<text transform="matrix(0.48 0 0 0.48 -23.5724 -154.3502)" class="st2 st5 st6">n</text>
		<text transform="matrix(0.48 0 0 0.48 -21.9046 -154.3502)" class="st2 st5 st6">sport</text>
		<path class="st7" d="M30.8-154.5c0.2-0.2,0.4-0.4,0.6-0.5c0.3-0.3,0.5-0.5,0.5-0.8c0-0.4-0.3-0.6-0.6-0.6c-0.2,0-0.5,0.1-0.7,0.3
			l0.1,0.2c0.2-0.2,0.4-0.3,0.6-0.3c0.3,0,0.4,0.2,0.4,0.4c0,0.3-0.3,0.7-1.1,1.4l0,0.2c0.2,0,0.4,0,0.7,0c0.3,0,0.5,0,0.7,0
			c0-0.1,0-0.1,0-0.2C31.6-154.5,31.1-154.5,30.8-154.5z"/>
		<path class="st7" d="M32.3-153.8c0.3-0.2,0.4-0.4,0.4-0.6c0-0.2-0.1-0.3-0.2-0.3c-0.1,0-0.2,0.1-0.2,0.2l0,0
			c0.1,0,0.1,0.1,0.1,0.2c0,0.1-0.1,0.2-0.2,0.3l0,0L32.3-153.8z"/>
		<path class="st7" d="M33.8-156.5c-0.5,0-0.7,0.5-0.7,1.1c0,0.6,0.2,1.1,0.7,1.1c0.5,0,0.7-0.5,0.7-1.1
			C34.5-156,34.3-156.5,33.8-156.5z M33.8-154.5c-0.3,0-0.5-0.4-0.5-0.9c0-0.5,0.2-0.9,0.5-0.9s0.5,0.4,0.5,0.9
			C34.3-154.9,34.1-154.5,33.8-154.5z"/>
		<path class="st7" d="M36.2-154.6c-0.1,0-0.3,0-0.4,0h-0.2v-1.6c0-0.1,0-0.3,0-0.4l0,0l-0.2,0.1c-0.1,0-0.4,0.1-0.6,0.2l0,0.2
			l0.5-0.2v1.3c0,0.1,0,0.3,0,0.4h-0.2c-0.1,0-0.2,0-0.4,0c0,0.1,0,0.1,0,0.2c0.2,0,0.3,0,0.5,0h0.3c0.2,0,0.4,0,0.6,0
			C36.2-154.4,36.2-154.5,36.2-154.6L36.2-154.6z"/>
		<path class="st7" d="M37.8-156.3l0-0.2c-0.8,0.1-1.2,0.7-1.2,1.4c0,0.5,0.3,0.8,0.7,0.8c0.4,0,0.7-0.3,0.7-0.7
			c0-0.4-0.3-0.7-0.7-0.7c-0.2,0-0.4,0.1-0.6,0.3C36.8-155.9,37.2-156.2,37.8-156.3z M37.7-155c0,0.3-0.2,0.5-0.5,0.5
			c-0.3,0-0.5-0.2-0.5-0.5c0-0.3,0.2-0.5,0.5-0.5C37.5-155.5,37.7-155.3,37.7-155z"/>
		<path class="st7" d="M38.7-154.5c0-0.1-0.1-0.2-0.2-0.2c-0.1,0-0.2,0.1-0.2,0.2c0,0.1,0.1,0.2,0.2,0.2
			C38.6-154.3,38.7-154.4,38.7-154.5z"/>
		<path class="st7" d="M39.2-154.5l0,0.2c0.8-0.1,1.2-0.7,1.2-1.4c0-0.5-0.3-0.8-0.7-0.8c-0.4,0-0.7,0.3-0.7,0.7
			c0,0.4,0.3,0.7,0.7,0.7c0.2,0,0.4-0.1,0.6-0.3C40.2-154.9,39.8-154.6,39.2-154.5z M39.3-155.8c0-0.3,0.2-0.5,0.5-0.5
			c0.3,0,0.5,0.2,0.5,0.5c0,0.3-0.2,0.5-0.5,0.5C39.5-155.3,39.3-155.5,39.3-155.8z"/>
		<path class="st7" d="M40.8-154.9c0,0.3,0.3,0.6,0.7,0.6c0.4,0,0.7-0.3,0.7-0.6c0-0.3-0.2-0.4-0.5-0.6c0.3-0.1,0.4-0.3,0.4-0.5
			c0-0.3-0.3-0.5-0.6-0.5c-0.4,0-0.7,0.2-0.7,0.6c0,0.3,0.2,0.4,0.4,0.5C41-155.3,40.8-155.1,40.8-154.9z M42-154.9
			c0,0.2-0.2,0.4-0.5,0.4c-0.3,0-0.5-0.2-0.5-0.4c0-0.2,0.2-0.4,0.5-0.5C41.8-155.2,42-155.1,42-154.9z M41.1-156
			c0-0.2,0.2-0.4,0.4-0.4c0.2,0,0.4,0.1,0.4,0.4c0,0.2-0.2,0.3-0.4,0.4C41.3-155.6,41.1-155.8,41.1-156z"/>
		<text transform="matrix(0.48 0 0 0.48 -27.6573 -148.2072)" class="st2 st5 st6">Public Sector Management</text>
		<path class="st7" d="M33.1-148.2c0.2,0.1,0.3,0.1,0.5,0.1c0.5,0,0.8-0.3,0.8-0.7c0-0.4-0.3-0.6-0.9-0.6c-0.1,0-0.1,0-0.2,0l0-0.7
			h0.4c0.2,0,0.4,0,0.6,0c0-0.1,0-0.2,0-0.2c-0.2,0-0.3,0-0.6,0c-0.3,0-0.4,0-0.6,0l0,0c0,0.1,0,0.2,0,0.3l0,0.3c0,0.1,0,0.2,0,0.3
			l0,0c0.1,0,0.2,0,0.3,0c0.5,0,0.7,0.2,0.7,0.4c0,0.2-0.2,0.4-0.6,0.4c-0.2,0-0.4,0-0.6-0.1C33.1-148.5,33.1-148.2,33.1-148.2z"/>
		<path class="st7" d="M34.8-148.2c0.2,0.1,0.3,0.1,0.5,0.1c0.5,0,0.8-0.3,0.8-0.7c0-0.4-0.3-0.6-0.9-0.6c-0.1,0-0.1,0-0.2,0l0-0.7
			h0.4c0.2,0,0.4,0,0.6,0c0-0.1,0-0.2,0-0.2c-0.2,0-0.3,0-0.6,0c-0.3,0-0.4,0-0.6,0l0,0c0,0.1,0,0.2,0,0.3l0,0.3c0,0.1,0,0.2,0,0.3
			l0,0c0.1,0,0.2,0,0.3,0c0.5,0,0.7,0.2,0.7,0.4c0,0.2-0.2,0.4-0.6,0.4c-0.2,0-0.4,0-0.6-0.1C34.8-148.5,34.8-148.2,34.8-148.2z"/>
		<path class="st7" d="M36.5-148.7c0,0.3,0.3,0.6,0.7,0.6c0.4,0,0.7-0.3,0.7-0.6c0-0.3-0.2-0.4-0.5-0.6c0.3-0.1,0.4-0.3,0.4-0.5
			c0-0.3-0.3-0.5-0.6-0.5c-0.4,0-0.7,0.2-0.7,0.6c0,0.3,0.2,0.4,0.4,0.5C36.7-149.2,36.5-149,36.5-148.7z M37.7-148.7
			c0,0.2-0.2,0.4-0.5,0.4c-0.3,0-0.5-0.2-0.5-0.4c0-0.2,0.2-0.4,0.5-0.5C37.5-149.1,37.7-149,37.7-148.7z M36.8-149.8
			c0-0.2,0.2-0.4,0.4-0.4c0.2,0,0.4,0.1,0.4,0.4c0,0.2-0.2,0.3-0.4,0.4C37-149.5,36.8-149.6,36.8-149.8z"/>
		<path class="st7" d="M38.7-148.3c0-0.1-0.1-0.2-0.2-0.2c-0.1,0-0.2,0.1-0.2,0.2c0,0.1,0.1,0.2,0.2,0.2
			C38.6-148.2,38.7-148.2,38.7-148.3z"/>
		<path class="st7" d="M39.1-150.3c0,0.1,0,0.2,0,0.2c0.2,0,0.4,0,0.7,0c0.2,0,0.4,0,0.5,0l-0.7,1.3c-0.1,0.2-0.2,0.4-0.3,0.5l0.2,0
			c0-0.1,0.1-0.3,0.2-0.4l0.7-1.3c0.1-0.1,0.1-0.3,0.2-0.3l-0.1-0.1c-0.2,0-0.5,0-0.7,0C39.5-150.3,39.3-150.3,39.1-150.3z"/>
		<path class="st7" d="M41.5-150.4c-0.5,0-0.7,0.5-0.7,1.1c0,0.6,0.2,1.1,0.7,1.1c0.5,0,0.7-0.5,0.7-1.1
			C42.2-149.9,42-150.4,41.5-150.4z M41.5-148.3c-0.3,0-0.5-0.4-0.5-0.9c0-0.5,0.2-0.9,0.5-0.9s0.5,0.4,0.5,0.9
			C42-148.8,41.8-148.3,41.5-148.3z"/>
		<text transform="matrix(0.48 0 0 0.48 -27.6573 -142.0645)" class="st2 st5 st6">W</text>
		<text transform="matrix(0.48 0 0 0.48 -24.7764 -142.0645)" class="st2 st5 st6">a</text>
		<text transform="matrix(0.48 0 0 0.48 -23.3083 -142.0645)" class="st2 st5 st6">t</text>
		<text transform="matrix(0.48 0 0 0.48 -22.27 -142.0645)" class="st2 st5 st6">er and Other U</text>
		<text transform="matrix(0.48 0 0 0.48 -3.0188 -142.0645)" class="st2 st5 st6">r</text>
		<text transform="matrix(0.48 0 0 0.48 -2.0082 -142.0645)" class="st2 st5 st6">b</text>
		<text transform="matrix(0.48 0 0 0.48 -0.3374 -142.0645)" class="st2 st5 st6">an Infr</text>
		<text transform="matrix(0.48 0 0 0.48 7.9434 -142.0645)" class="st2 st5 st6">a</text>
		<text transform="matrix(0.48 0 0 0.48 9.4171 -142.0645)" class="st2 st5 st6">s</text>
		<text transform="matrix(0.48 0 0 0.48 10.6645 -142.0645)" class="st2 st5 st6">tructur</text>
		<text transform="matrix(0.48 0 0 0.48 19.5374 -142.0645)" class="st2 st5 st6">e</text>
		<text transform="matrix(0.48 0 0 0.48 -27.6573 -138.3789)" class="st2 st5 st6">and Services</text>
		<path class="st7" d="M35.1-142.3c0.2-0.2,0.4-0.4,0.6-0.5c0.3-0.3,0.5-0.5,0.5-0.8c0-0.4-0.3-0.6-0.6-0.6c-0.2,0-0.5,0.1-0.7,0.3
			l0.1,0.2c0.2-0.2,0.4-0.3,0.6-0.3c0.3,0,0.4,0.2,0.4,0.4c0,0.3-0.3,0.7-1.1,1.4l0,0.2c0.2,0,0.4,0,0.7,0c0.3,0,0.5,0,0.7,0
			c0-0.1,0-0.1,0-0.2C35.9-142.3,35.4-142.3,35.1-142.3z"/>
		<path class="st7" d="M37.8-144l0-0.2c-0.8,0.1-1.2,0.7-1.2,1.4c0,0.5,0.3,0.8,0.7,0.8c0.4,0,0.7-0.3,0.7-0.7
			c0-0.4-0.3-0.7-0.7-0.7c-0.2,0-0.4,0.1-0.6,0.3C36.8-143.6,37.2-143.9,37.8-144z M37.7-142.7c0,0.3-0.2,0.5-0.5,0.5
			c-0.3,0-0.5-0.2-0.5-0.5c0-0.3,0.2-0.5,0.5-0.5C37.5-143.2,37.7-143,37.7-142.7z"/>
		<path class="st7" d="M38.7-142.2c0-0.1-0.1-0.2-0.2-0.2c-0.1,0-0.2,0.1-0.2,0.2c0,0.1,0.1,0.2,0.2,0.2
			C38.6-142,38.7-142.1,38.7-142.2z"/>
		<path class="st7" d="M39.8-144.2c-0.5,0-0.7,0.5-0.7,1.1c0,0.6,0.2,1.1,0.7,1.1c0.5,0,0.7-0.5,0.7-1.1
			C40.5-143.7,40.3-144.2,39.8-144.2z M39.8-142.2c-0.3,0-0.5-0.4-0.5-0.9c0-0.5,0.2-0.9,0.5-0.9s0.5,0.4,0.5,0.9
			C40.3-142.6,40.1-142.2,39.8-142.2z"/>
		<path class="st7" d="M40.8-144.2c0,0.1,0,0.2,0,0.2c0.2,0,0.4,0,0.7,0c0.2,0,0.4,0,0.5,0l-0.7,1.3c-0.1,0.2-0.2,0.4-0.3,0.5l0.2,0
			c0-0.1,0.1-0.3,0.2-0.4l0.7-1.3c0.1-0.1,0.1-0.3,0.2-0.3l-0.1-0.1c-0.2,0-0.5,0-0.7,0C41.2-144.2,41-144.2,40.8-144.2z"/>
		<text transform="matrix(0.48 0 0 0.48 -27.6573 -132.2359)" class="st5 st6">Others</text>
		<text transform="matrix(0.48 0 0 0.48 -23.9715 -126.0934)" class="st2 st5 st6">Ener</text>
		<text transform="matrix(0.48 0 0 0.48 -18.1178 -126.0934)" class="st2 st5 st6">g</text>
		<text transform="matrix(0.48 0 0 0.48 -16.6801 -126.0934)" class="st2 st5 st6">y</text>
		<path class="st7" d="M35.1-126.3c0.2-0.2,0.4-0.4,0.6-0.5c0.3-0.3,0.5-0.5,0.5-0.8c0-0.4-0.3-0.6-0.6-0.6c-0.2,0-0.5,0.1-0.7,0.3
			l0.1,0.2c0.2-0.2,0.4-0.3,0.6-0.3c0.3,0,0.4,0.2,0.4,0.4c0,0.3-0.3,0.7-1.1,1.4l0,0.2c0.2,0,0.4,0,0.7,0c0.3,0,0.5,0,0.7,0
			c0-0.1,0-0.1,0-0.2C35.9-126.3,35.4-126.3,35.1-126.3z"/>
		<path class="st7" d="M36.8-126.3c0.2-0.2,0.4-0.4,0.6-0.5c0.3-0.3,0.5-0.5,0.5-0.8c0-0.4-0.3-0.6-0.6-0.6c-0.2,0-0.5,0.1-0.7,0.3
			l0.1,0.2c0.2-0.2,0.4-0.3,0.6-0.3c0.3,0,0.4,0.2,0.4,0.4c0,0.3-0.3,0.7-1.1,1.4l0,0.2c0.2,0,0.4,0,0.7,0c0.3,0,0.5,0,0.7,0
			c0-0.1,0-0.1,0-0.2C37.6-126.3,37.2-126.3,36.8-126.3z"/>
		<path class="st7" d="M38.7-126.2c0-0.1-0.1-0.2-0.2-0.2c-0.1,0-0.2,0.1-0.2,0.2c0,0.1,0.1,0.2,0.2,0.2
			C38.6-126,38.7-126.1,38.7-126.2z"/>
		<path class="st7" d="M39.1-126.6c0,0.3,0.3,0.6,0.7,0.6c0.4,0,0.7-0.3,0.7-0.6c0-0.3-0.2-0.4-0.5-0.6c0.3-0.1,0.4-0.3,0.4-0.5
			c0-0.3-0.3-0.5-0.6-0.5c-0.4,0-0.7,0.2-0.7,0.6c0,0.3,0.2,0.4,0.4,0.5C39.3-127.1,39.1-126.9,39.1-126.6z M40.3-126.6
			c0,0.2-0.2,0.4-0.5,0.4c-0.3,0-0.5-0.2-0.5-0.4c0-0.2,0.2-0.4,0.5-0.5C40.1-127,40.3-126.8,40.3-126.6z M39.4-127.7
			c0-0.2,0.2-0.4,0.4-0.4c0.2,0,0.4,0.1,0.4,0.4c0,0.2-0.2,0.3-0.4,0.4C39.5-127.4,39.4-127.5,39.4-127.7z"/>
		<path class="st7" d="M40.8-126.1c0.2,0.1,0.3,0.1,0.5,0.1c0.5,0,0.8-0.3,0.8-0.7c0-0.4-0.3-0.6-0.9-0.6c-0.1,0-0.1,0-0.2,0l0-0.7
			h0.4c0.2,0,0.4,0,0.6,0c0-0.1,0-0.2,0-0.2c-0.2,0-0.3,0-0.6,0c-0.3,0-0.4,0-0.6,0l0,0c0,0.1,0,0.2,0,0.3l0,0.3c0,0.1,0,0.2,0,0.3
			l0,0c0.1,0,0.2,0,0.3,0c0.5,0,0.7,0.2,0.7,0.4c0,0.2-0.2,0.4-0.6,0.4c-0.2,0-0.4,0-0.6-0.1C40.8-126.3,40.8-126.1,40.8-126.1z"/>
		<path class="st7" d="M-9.4-119.4c0.3-0.2,0.4-0.4,0.4-0.6c0-0.2-0.1-0.3-0.2-0.3c-0.1,0-0.2,0.1-0.2,0.2l0,0
			c0.1,0,0.1,0.1,0.1,0.2c0,0.1-0.1,0.2-0.2,0.3l0,0C-9.5-119.5-9.4-119.4-9.4-119.4z"/>
		<path class="st7" d="M15.6-119.4c0.3-0.2,0.4-0.4,0.4-0.6c0-0.2-0.1-0.3-0.2-0.3c-0.1,0-0.2,0.1-0.2,0.2l0,0
			c0.1,0,0.1,0.1,0.1,0.2c0,0.1-0.1,0.2-0.2,0.3l0,0C15.5-119.5,15.6-119.4,15.6-119.4z"/>
		<text transform="matrix(0.48 0 0 0.48 -23.9715 -119.9505)" class="st2 st5 st6">Agricultur</text>
		<text transform="matrix(0.48 0 0 0.48 -11.1763 -119.9505)" class="st2 st5 st6">e</text>
		<text transform="matrix(0.48 0 0 0.48 -8.7807 -119.9505)" class="st2 st5 st6"> </text>
		<text transform="matrix(0.48 0 0 0.48 -8.1449 -119.9505)" class="st2 st5 st6">Natur</text>
		<text transform="matrix(0.48 0 0 0.48 -0.6137 -119.9505)" class="st2 st5 st6">a</text>
		<text transform="matrix(0.48 0 0 0.48 0.8605 -119.9505)" class="st2 st5 st6">l</text>
		<text transform="matrix(0.48 0 0 0.48 1.5548 -119.9505)" class="st2 st5 st6"> R</text>
		<text transform="matrix(0.48 0 0 0.48 4.0518 -119.9505)" class="st2 st5 st6">e</text>
		<text transform="matrix(0.48 0 0 0.48 5.5874 -119.9505)" class="st2 st5 st6">s</text>
		<text transform="matrix(0.48 0 0 0.48 6.8343 -119.9505)" class="st2 st5 st6">our</text>
		<text transform="matrix(0.48 0 0 0.48 11.1468 -119.9505)" class="st2 st5 st6">c</text>
		<text transform="matrix(0.48 0 0 0.48 12.6177 -119.9505)" class="st2 st5 st6">es</text>
		<text transform="matrix(0.48 0 0 0.48 16.2449 -119.9505)" class="st2 st5 st6"> </text>
		<text transform="matrix(0.48 0 0 0.48 16.8806 -119.9505)" class="st2 st5 st6">and</text>
		<text transform="matrix(0.48 0 0 0.48 -23.9715 -116.2649)" class="st2 st5 st6">R</text>
		<text transform="matrix(0.48 0 0 0.48 -22.0951 -116.2649)" class="st2 st5 st6">u</text>
		<text transform="matrix(0.48 0 0 0.48 -20.4243 -116.2649)" class="st2 st5 st6">r</text>
		<text transform="matrix(0.48 0 0 0.48 -19.4537 -116.2649)" class="st2 st5 st6">a</text>
		<text transform="matrix(0.48 0 0 0.48 -17.9795 -116.2649)" class="st2 st5 st6">l</text>
		<text transform="matrix(0.48 0 0 0.48 -17.2853 -116.2649)" class="st2 st5 st6"> Dev</text>
		<text transform="matrix(0.48 0 0 0.48 -11.4559 -116.2649)" class="st2 st5 st6">e</text>
		<text transform="matrix(0.48 0 0 0.48 -9.92 -116.2649)" class="st2 st5 st6">l</text>
		<text transform="matrix(0.48 0 0 0.48 -9.226 -116.2649)" class="st2 st5 st6">opment</text>
		<path class="st7" d="M36.2-120.2c-0.1,0-0.3,0-0.4,0h-0.2v-1.6c0-0.1,0-0.3,0-0.4l0,0l-0.2,0.1c-0.1,0-0.4,0.1-0.6,0.2l0,0.2
			l0.5-0.2v1.3c0,0.1,0,0.3,0,0.4h-0.2c-0.1,0-0.2,0-0.4,0c0,0.1,0,0.1,0,0.2c0.2,0,0.3,0,0.5,0h0.3c0.2,0,0.4,0,0.6,0
			C36.2-120,36.2-120.1,36.2-120.2L36.2-120.2z"/>
		<path class="st7" d="M37.9-120.2c-0.1,0-0.3,0-0.4,0h-0.2v-1.6c0-0.1,0-0.3,0-0.4l0,0l-0.2,0.1c-0.1,0-0.4,0.1-0.6,0.2l0,0.2
			l0.5-0.2v1.3c0,0.1,0,0.3,0,0.4h-0.2c-0.1,0-0.2,0-0.4,0c0,0.1,0,0.1,0,0.2c0.2,0,0.3,0,0.5,0h0.3c0.2,0,0.4,0,0.6,0
			C37.9-120,37.9-120.1,37.9-120.2L37.9-120.2z"/>
		<path class="st7" d="M38.7-120.1c0-0.1-0.1-0.2-0.2-0.2c-0.1,0-0.2,0.1-0.2,0.2c0,0.1,0.1,0.2,0.2,0.2
			C38.6-119.9,38.7-120,38.7-120.1z"/>
		<path class="st7" d="M39.8-122.1c-0.5,0-0.7,0.5-0.7,1.1c0,0.6,0.2,1.1,0.7,1.1c0.5,0,0.7-0.5,0.7-1.1
			C40.5-121.6,40.3-122.1,39.8-122.1z M39.8-120.1c-0.3,0-0.5-0.4-0.5-0.9c0-0.5,0.2-0.9,0.5-0.9s0.5,0.4,0.5,0.9
			C40.3-120.5,40.1-120.1,39.8-120.1z"/>
		<path class="st7" d="M41.1-120.1c0.2-0.2,0.4-0.4,0.6-0.5c0.3-0.3,0.5-0.6,0.5-0.8c0-0.4-0.3-0.6-0.6-0.6c-0.2,0-0.5,0.1-0.7,0.3
			l0.1,0.2c0.2-0.2,0.4-0.3,0.6-0.3c0.3,0,0.4,0.2,0.4,0.4c0,0.3-0.3,0.7-1.1,1.4l0,0.2c0.2,0,0.4,0,0.7,0c0.3,0,0.5,0,0.7,0
			c0-0.1,0-0.1,0-0.2C41.9-120.1,41.5-120.1,41.1-120.1z"/>
		<text transform="matrix(0.48 0 0 0.48 -23.9715 -110.1226)" class="st2 st5 st6">F</text>
		<text transform="matrix(0.48 0 0 0.48 -22.4298 -110.1226)" class="st2 st5 st6">i</text>
		<text transform="matrix(0.48 0 0 0.48 -21.7356 -110.1226)" class="st2 st5 st6">n</text>
		<text transform="matrix(0.48 0 0 0.48 -20.0678 -110.1226)" class="st2 st5 st6">ance</text>
		<path class="st7" d="M36.2-110.3c-0.1,0-0.3,0-0.4,0h-0.2v-1.6c0-0.1,0-0.3,0-0.4l0,0l-0.2,0.1c-0.1,0-0.4,0.1-0.6,0.2l0,0.2
			l0.5-0.2v1.3c0,0.1,0,0.3,0,0.4h-0.2c-0.1,0-0.2,0-0.4,0c0,0.1,0,0.1,0,0.2c0.2,0,0.3,0,0.5,0h0.3c0.2,0,0.4,0,0.6,0
			C36.2-110.2,36.2-110.3,36.2-110.3L36.2-110.3z"/>
		<path class="st7" d="M37.2-112.3c-0.5,0-0.7,0.5-0.7,1.1c0,0.6,0.2,1.1,0.7,1.1c0.5,0,0.7-0.5,0.7-1.1
			C37.9-111.8,37.7-112.3,37.2-112.3z M37.2-110.3c-0.3,0-0.5-0.4-0.5-0.9c0-0.5,0.2-0.9,0.5-0.9s0.5,0.4,0.5,0.9
			C37.7-110.7,37.5-110.3,37.2-110.3z"/>
		<path class="st7" d="M38.7-110.2c0-0.1-0.1-0.2-0.2-0.2c-0.1,0-0.2,0.1-0.2,0.2c0,0.1,0.1,0.2,0.2,0.2
			C38.6-110.1,38.7-110.2,38.7-110.2z"/>
		<path class="st7" d="M39.1-112.2c0,0.1,0,0.2,0,0.2c0.2,0,0.4,0,0.7,0c0.2,0,0.4,0,0.5,0l-0.7,1.3c-0.1,0.2-0.2,0.4-0.3,0.5l0.2,0
			c0-0.1,0.1-0.3,0.2-0.4l0.7-1.3c0.1-0.1,0.1-0.3,0.2-0.3l-0.1-0.1c-0.2,0-0.5,0-0.7,0C39.5-112.2,39.3-112.2,39.1-112.2z"/>
		<path class="st7" d="M40.8-112.2c0,0.1,0,0.2,0,0.2c0.2,0,0.4,0,0.7,0c0.2,0,0.4,0,0.5,0l-0.7,1.3c-0.1,0.2-0.2,0.4-0.3,0.5l0.2,0
			c0-0.1,0.1-0.3,0.2-0.4l0.7-1.3c0.1-0.1,0.1-0.3,0.2-0.3l-0.1-0.1c-0.2,0-0.5,0-0.7,0C41.2-112.2,41-112.2,40.8-112.2z"/>
		<text transform="matrix(0.48 0 0 0.48 -23.9715 -103.9797)" class="st2 st5 st6">Health</text>
		<path class="st7" d="M36.5-104c0.2,0.1,0.3,0.1,0.5,0.1c0.5,0,0.8-0.3,0.8-0.7c0-0.4-0.3-0.6-0.9-0.6c-0.1,0-0.1,0-0.2,0l0-0.7
			h0.4c0.2,0,0.4,0,0.6,0c0-0.1,0-0.2,0-0.2c-0.2,0-0.3,0-0.6,0c-0.3,0-0.4,0-0.6,0l0,0c0,0.1,0,0.2,0,0.3l0,0.3c0,0.1,0,0.2,0,0.3
			l0,0c0.1,0,0.2,0,0.3,0c0.5,0,0.7,0.2,0.7,0.4c0,0.2-0.2,0.4-0.6,0.4c-0.2,0-0.4,0-0.6-0.1C36.5-104.2,36.5-104,36.5-104z"/>
		<path class="st7" d="M38.7-104.1c0-0.1-0.1-0.2-0.2-0.2c-0.1,0-0.2,0.1-0.2,0.2c0,0.1,0.1,0.2,0.2,0.2
			C38.6-103.9,38.7-104,38.7-104.1z"/>
		<path class="st7" d="M39.8-106.1c-0.5,0-0.7,0.5-0.7,1.1c0,0.6,0.2,1.1,0.7,1.1c0.5,0,0.7-0.5,0.7-1.1
			C40.5-105.7,40.3-106.1,39.8-106.1z M39.8-104.1c-0.3,0-0.5-0.4-0.5-0.9c0-0.5,0.2-0.9,0.5-0.9s0.5,0.4,0.5,0.9
			C40.3-104.5,40.1-104.1,39.8-104.1z"/>
		<path class="st7" d="M41.5-106.1c-0.5,0-0.7,0.5-0.7,1.1c0,0.6,0.2,1.1,0.7,1.1c0.5,0,0.7-0.5,0.7-1.1
			C42.2-105.7,42-106.1,41.5-106.1z M41.5-104.1c-0.3,0-0.5-0.4-0.5-0.9c0-0.5,0.2-0.9,0.5-0.9s0.5,0.4,0.5,0.9
			C42-104.5,41.8-104.1,41.5-104.1z"/>
		<text transform="matrix(0.48 0 0 0.48 -23.9715 -97.8367)" class="st2 st5 st6">Education</text>
		<path class="st7" d="M37.5-97.8h0.2c0-0.1,0-0.3,0-0.4v-0.2l0.3,0c0-0.1,0-0.1,0-0.2c-0.1,0-0.2,0-0.3,0v-1c0-0.1,0-0.3,0-0.4
			l-0.1,0l-0.2,0.3l-0.9,1.2l0.1,0.1c0.2,0,0.5,0,0.8,0h0.2v0.1C37.5-98.2,37.5-97.9,37.5-97.8z M37.5-99.6v1h-0.8L37.5-99.6z"/>
		<path class="st7" d="M38.7-98c0-0.1-0.1-0.2-0.2-0.2c-0.1,0-0.2,0.1-0.2,0.2c0,0.1,0.1,0.2,0.2,0.2C38.6-97.8,38.7-97.9,38.7-98z"
			/>
		<path class="st7" d="M39.2-98l0,0.2c0.8-0.1,1.2-0.7,1.2-1.4c0-0.5-0.3-0.8-0.7-0.8c-0.4,0-0.7,0.3-0.7,0.7c0,0.4,0.3,0.7,0.7,0.7
			c0.2,0,0.4-0.1,0.6-0.3C40.2-98.4,39.8-98.1,39.2-98z M39.3-99.3c0-0.3,0.2-0.5,0.5-0.5c0.3,0,0.5,0.2,0.5,0.5
			c0,0.3-0.2,0.5-0.5,0.5C39.5-98.8,39.3-99,39.3-99.3z"/>
		<path class="st7" d="M41.5-100c-0.5,0-0.7,0.5-0.7,1.1c0,0.6,0.2,1.1,0.7,1.1c0.5,0,0.7-0.5,0.7-1.1C42.2-99.5,42-100,41.5-100z
			 M41.5-98c-0.3,0-0.5-0.4-0.5-0.9c0-0.5,0.2-0.9,0.5-0.9s0.5,0.4,0.5,0.9C42-98.4,41.8-98,41.5-98z"/>
		<text transform="matrix(0.48 0 0 0.48 -27.6573 -91.6698)" class="st2 st8 st6">T</text>
		<text transform="matrix(0.48 0 0 0.48 -25.9159 -91.6698)" class="st2 st8 st6">o</text>
		<text transform="matrix(0.48 0 0 0.48 -24.1958 -91.6698)" class="st2 st8 st6">t</text>
		<text transform="matrix(0.48 0 0 0.48 -23.0012 -91.6698)" class="st2 st8 st6">al</text>
		<path class="st7" d="M31.1-92.1c0.1-0.1,0.3-0.3,0.4-0.4c0.2-0.3,0.4-0.5,0.4-0.8c0-0.4-0.3-0.6-0.7-0.6c-0.3,0-0.5,0.1-0.7,0.2
			l0.1,0.4c0.2-0.1,0.4-0.2,0.5-0.2c0.2,0,0.3,0.1,0.3,0.3c0,0.3-0.3,0.6-1,1.1l0,0.3c0.2,0,0.5,0,0.7,0c0.3,0,0.5,0,0.7,0
			c0-0.2,0-0.3,0-0.4C31.7-92.1,31.3-92.1,31.1-92.1z"/>
		<path class="st7" d="M32.2-91c0.4-0.2,0.6-0.5,0.6-0.8c0-0.2-0.1-0.3-0.3-0.3c-0.1,0-0.3,0.1-0.3,0.3l0.1,0
			c0.1,0.1,0.2,0.1,0.2,0.2c0,0.1-0.1,0.2-0.3,0.4l0,0L32.2-91z"/>
		<path class="st7" d="M34.4-93.5l-0.1-0.4c-0.8,0.1-1.3,0.6-1.3,1.3c0,0.6,0.3,0.9,0.8,0.9c0.5,0,0.8-0.3,0.8-0.8
			c0-0.4-0.3-0.7-0.6-0.7c-0.2,0-0.3,0.1-0.4,0.2C33.6-93.2,33.9-93.4,34.4-93.5z M34.1-92.3c0,0.2-0.1,0.4-0.3,0.4
			c-0.2,0-0.3-0.1-0.3-0.4c0-0.2,0.1-0.4,0.3-0.4C34-92.7,34.1-92.6,34.1-92.3z"/>
		<path class="st7" d="M34.8-91.7c0.2,0.1,0.4,0.1,0.6,0.1c0.5,0,0.8-0.3,0.8-0.7c0-0.4-0.3-0.6-0.8-0.7c0,0-0.1,0-0.1,0l0-0.4h0.3
			c0.3,0,0.3,0,0.5,0c0-0.1,0-0.3,0-0.4c-0.3,0-0.3,0-0.6,0c-0.3,0-0.4,0-0.6,0l0,0v0.4l0,0.4c0,0.1,0,0.2,0,0.3l0,0
			c0.1,0,0.2,0,0.3,0c0.4,0,0.6,0.1,0.6,0.3c0,0.2-0.2,0.3-0.4,0.3c-0.2,0-0.4,0-0.6-0.1C34.8-92.1,34.8-91.7,34.8-91.7z"/>
		<path class="st7" d="M37.8-93.5l-0.1-0.4c-0.8,0.1-1.3,0.6-1.3,1.3c0,0.6,0.3,0.9,0.8,0.9c0.5,0,0.8-0.3,0.8-0.8
			c0-0.4-0.3-0.7-0.6-0.7c-0.2,0-0.3,0.1-0.4,0.2C37-93.2,37.3-93.4,37.8-93.5z M37.5-92.3c0,0.2-0.1,0.4-0.3,0.4
			c-0.2,0-0.3-0.1-0.3-0.4c0-0.2,0.1-0.4,0.3-0.4C37.4-92.7,37.5-92.6,37.5-92.3z"/>
		<path class="st7" d="M38.8-91.9c0-0.2-0.1-0.3-0.3-0.3c-0.2,0-0.3,0.1-0.3,0.3c0,0.1,0.1,0.3,0.3,0.3
			C38.7-91.6,38.8-91.7,38.8-91.9z"/>
		<path class="st7" d="M39.1-91.7c0.2,0.1,0.4,0.1,0.5,0.1c0.5,0,0.9-0.2,0.9-0.6c0-0.2-0.2-0.4-0.6-0.5c0.3-0.1,0.5-0.3,0.5-0.5
			c0-0.3-0.3-0.5-0.7-0.5c-0.2,0-0.5,0.1-0.7,0.2l0.1,0.4c0.2-0.1,0.4-0.2,0.5-0.2c0.2,0,0.3,0.1,0.3,0.2c0,0.2-0.2,0.3-0.7,0.4
			l0,0.3c0.4,0,0.7,0.1,0.7,0.3c0,0.2-0.2,0.2-0.5,0.2c-0.2,0-0.4,0-0.5-0.1C39-92.1,39.1-91.7,39.1-91.7z"/>
		<path class="st7" d="M41.5-93.8c-0.5,0-0.8,0.5-0.8,1.1c0,0.6,0.2,1.1,0.7,1.1c0.5,0,0.8-0.5,0.8-1.1C42.3-93.4,42-93.8,41.5-93.8
			z M41.5-92c-0.2,0-0.3-0.2-0.3-0.7c0-0.4,0.1-0.7,0.3-0.7c0.2,0,0.3,0.2,0.3,0.7C41.8-92.3,41.7-92,41.5-92z"/>
		<path class="st9" d="M-29.5-158.4h73.7 M-29.5-152.3h73.7 M-29.5-146.1h73.7 M-29.5-136.3h73.7 M-29.5-130.1h73.7 M-29.5-124h73.7
			 M-29.5-114.2h73.7 M-29.5-108h73.7 M-29.5-101.9h73.7 M-29.5-95.7h73.7 M-29.5-89.6h73.7"/>
	</g>
	<path class="st10" d="M76.4,0c0.2,0,0.4,0,0.7,0v14.2c-0.2,0-0.3,0-0.5,0C76.6,14.2,76.4,0,76.4,0z"/>
	<path class="st11" d="M75.8,0c0.2,0,0.4,0,0.7,0l0.2,14.2c-0.2,0-0.3,0-0.5,0C76.1,14.2,75.8,0,75.8,0z"/>
	<path class="st12" d="M74.3,0.1c0.5,0,1,0,1.4-0.1l0.3,14.2c-0.4,0-0.7,0-1.1,0C75,14.3,74.3,0.1,74.3,0.1z"/>
	<path class="st13" d="M72.8,0.2c0.5,0,1-0.1,1.5-0.1L75,14.3c-0.4,0-0.7,0-1.1,0.1L72.8,0.2z"/>
	<path class="st14" d="M69.8,0.5c1-0.1,2-0.2,3.1-0.3l1.1,14.2c-0.8,0.1-1.5,0.1-2.3,0.2C71.6,14.6,69.8,0.5,69.8,0.5z"/>
	<path class="st15" d="M66.3,1c1.1-0.2,2.3-0.4,3.5-0.6l1.8,14.1c-0.9,0.1-1.7,0.3-2.6,0.4L66.3,1z"/>
	<path class="st16" d="M20.3,53.6C21.8,27.6,40.8,6,66.3,1L69,15c-19.2,3.7-33.4,19.9-34.5,39.4C34.5,54.4,20.3,53.6,20.3,53.6z"/>
	<path class="st17" d="M77.1,0c23.3,0,44.3,14.2,52.9,35.9c8.6,21.7,3.1,46.4-13.8,62.4c-17,16-42,20-63.1,10.2
		c-21.1-9.9-34.1-31.6-32.8-54.9l14.2,0.8c-1,17.5,8.7,33.8,24.6,41.2c15.9,7.4,34.6,4.4,47.3-7.6c12.7-12,16.8-30.6,10.4-46.8
		c-6.5-16.3-22.2-26.9-39.7-26.9C77.1,14.2,77.1,0,77.1,0z"/>
</g>
</svg>
