<?xml version="1.0" encoding="utf-8"?>
<!-- Generator: Adobe Illustrator 23.0.3, SVG Export Plug-In . SVG Version: 6.00 Build 0)  -->
<svg version="1.1" id="Layer_1" xmlns:serif="http://www.serif.com/"
	 xmlns="http://www.w3.org/2000/svg" xmlns:xlink="http://www.w3.org/1999/xlink" x="0px" y="0px" viewBox="0 0 1280 1024"
	 style="enable-background:new 0 0 1280 1024;" xml:space="preserve">
<style type="text/css">
	.st0{fill:#999999;}
</style>
<g transform="matrix(1,0,0,1,-200.001,-1637.5)">
	<g transform="matrix(4.16667,0,0,4.16667,0,0)">
		<g transform="matrix(0.24,0,0,0.24,0,0)">
			<path class="st0" d="M1442,2318.1v-78.5c0-72.2-58.6-130.9-130.9-130.9h-235.6c-29.6,0-56.8,9.7-78.5,26.2
				c-2.9,1.8-5.2,3.9-7.9,6.5c-9.4,8.1-17.8,18-24.6,28.8c-12.6,20.2-19.9,44-19.9,69.4v78.5c-14.4,0-26.2,11.8-26.2,26.2v209.4
				c0,14.4,11.8,26.2,26.2,26.2h26.2v39.3c0,21.7,17.5,39.3,39.3,39.3c21.7,0,39.3-17.5,39.3-39.3v-39.3h287.9v39.3
				c0,21.7,17.5,39.3,39.3,39.3c21.7,0,39.3-17.5,39.3-39.3v-39.3h25.9c14.4,0,26.2-11.7,26.2-26.2v-209.4
				C1467.9,2329.9,1456.4,2318.4,1442,2318.1z M709.4,1637.5c43,0.3,77.8,35.2,77.8,78.3v214.9l79,37.1v179.4l-79-18.8v403.8
				l95.7,79.1c0.1,0.1,0.1,0.2,0.2,0.3c1.8,1.5,3,3.5,4.3,5.3c0.7,0.9,1.6,1.7,2.1,2.8c0.7,1.4,0.9,3.1,1.4,4.6
				c0.5,1.7,1.3,3.3,1.4,5c0.1,1.1-0.3,2.1-0.3,3.3c-0.1,2.3-0.1,4.6-0.8,6.9c-0.1,0.1,0,0.2-0.1,0.3c-1,3.1-2.6,5.7-4.4,8
				c-0.1,0.1-0.1,0.4-0.3,0.5c-0.3,0.4-0.8,0.5-1.1,0.9c-2,2.1-4.3,3.9-6.8,5.2c-0.8,0.4-1.6,0.9-2.5,1.3c-3.1,1.3-6.3,2.1-9.8,2.1
				c-2.7,0-5.4-0.4-8.2-1.3l-0.5-0.2h0l-148.3-48.7l-148.9,48.9c0,0-0.1,0.1-0.1,0.1H560c0,0-0.1,0-0.1,0c-2.4,0.8-4.8,0.8-7.3,0.8
				c-0.9,0.1-1.9,0.4-2.8,0.3c-2.4-0.2-4.7-1.1-7-2c-0.8-0.3-1.8-0.3-2.5-0.8c-1.3-0.6-2.3-1.8-3.4-2.6c-1.6-1.2-3.3-2.2-4.6-3.8
				c-0.1-0.1-0.2-0.1-0.3-0.2c-1-1.3-1.5-2.8-2.3-4.2c-0.8-1.4-1.9-2.6-2.5-4.3c-0.1-0.1,0-0.2-0.1-0.3c-0.7-2.2-0.7-4.5-0.8-6.8
				c0-1.1-0.4-2.3-0.3-3.3c0.2-1.8,0.9-3.5,1.4-5.2c0.5-1.5,0.6-3.1,1.3-4.5c0.5-1.1,1.5-1.9,2.2-2.9c1.3-1.8,2.4-3.6,4.1-5.1
				c0.1-0.1,0.1-0.2,0.2-0.3l95.3-79v-403.6l-354.4,83.5h-0.8c-3.9,0.8-7.6,1.3-11.3,1.3c-5.2,0-10.2-0.8-15.2-2.4
				c-1.6-0.3-3.1-0.8-4.4-1.6c-1-0.3-2.1-0.8-3.1-1.3c-1.3-0.5-2.6-1.3-3.7-2.1c-9.2-5.2-16.5-13.1-20.9-23.1
				c-1-1.6-1.6-3.4-2.1-5.2c-0.8-1.6-1.3-3.1-1.6-4.7c0-0.3-0.3-0.5,0-0.8c-2.1-9.2-1.6-18.1,1-26.4c0.2-1.6,0.8-3.1,1.6-4.5
				c0.3-1.1,0.8-2.1,1.3-3.1c0.5-1.3,1.3-2.6,2.1-3.6c5.5-9.4,13.9-17.3,24.6-21.7l386.9-182.2v-214.9c0-43.3,35-78.3,78.3-78.3
				H709.4z M1350.4,2475.1c-21.7,0-39.3-17.5-39.3-39.3c0-21.7,17.5-39.3,39.3-39.3c21.7,0,39.3,17.6,39.3,39.3
				C1389.7,2457.6,1372.1,2475.1,1350.4,2475.1z M1036.3,2475.1c-21.7,0-39.3-17.5-39.3-39.3c0-21.7,17.5-39.3,39.3-39.3
				c21.7,0,39.3,17.6,39.3,39.3C1075.6,2457.6,1058,2475.1,1036.3,2475.1z M1023.2,2239.5c0-21.4,13.1-39.8,31.4-47.9h0.3
				c6.3-2.9,13.3-4.5,20.7-4.5h235.6c24.3,0,45,17,50.8,39.8c1,4,1.6,8.2,1.6,12.6v78.5h-340.3V2239.5z M1002.5,2071.5
				c16.8-7.3,35.1-12.3,54.2-14.1h0.3c6-0.8,12.3-1,18.6-1h235.6c51.3,0,97.6,21.2,130.9,55.2v-159.9c0-29-23.3-52.3-52.3-52.3H997
				c-29.1,0-52.3,23.3-52.3,52.3v159.9c14.9-15.5,32.7-28.3,52.3-37.4C998.9,2073.1,1000.7,2072.3,1002.5,2071.5z"/>
		</g>
	</g>
</g>
</svg>
