<?xml version="1.0" encoding="utf-8"?>
<!-- Generator: Adobe Illustrator 23.0.3, SVG Export Plug-In . SVG Version: 6.00 Build 0)  -->
<svg version="1.1" id="Layer_1" xmlns:serif="http://www.serif.com/"
	 xmlns="http://www.w3.org/2000/svg" xmlns:xlink="http://www.w3.org/1999/xlink" x="0px" y="0px" viewBox="0 0 1280 1024"
	 style="enable-background:new 0 0 1280 1024;" xml:space="preserve">
<style type="text/css">
	.st0{fill:#999999;}
</style>
<g transform="matrix(1,0,0,1,-3905.38,-8410.05)">
	<g transform="matrix(4.16667,0,0,4.16667,2925,0)">
		<g transform="matrix(0.24,0,0,0.24,-702,0)">
			<path class="st0" d="M5026.6,9301.6c-51.5,0-79.3,15.1-101.7,27.4c-18.4,10-30.5,16.6-59.6,16.6c-29.1,0-41.2-6.6-59.6-16.6
				c-22.4-12.2-50.2-27.4-101.8-27.4c-51.5,0-79.3,15.1-101.7,27.4c-18.4,10-30.5,16.6-59.5,16.6c-29.1,0-41.3-6.6-59.6-16.6
				c-22.3-12.2-50.1-27.4-101.7-27.4c-51.5,0-79.3,15.1-101.7,27.4c-18.3,10-30.5,16.6-59.5,16.6s-41.2-6.6-59.5-16.6
				c-22.3-12.2-50.1-27.4-101.7-27.4c-24.3,0-44,19.7-44,44c0,24.3,19.7,44,44,44c29.1,0,41.2,6.6,59.5,16.6
				c22.3,12.2,50.1,27.3,101.7,27.3s79.3-15.1,101.7-27.3c18.4-10,30.5-16.6,59.6-16.6c29.1,0,41.2,6.6,59.6,16.6
				c22.3,12.2,50.1,27.3,101.7,27.3c51.5,0,79.3-15.1,101.7-27.3c18.4-10,30.5-16.6,59.5-16.6c29.1,0,41.3,6.6,59.6,16.6
				c22.4,12.2,50.2,27.3,101.7,27.3c51.6,0,79.4-15.1,101.8-27.3c18.4-10,30.5-16.6,59.6-16.6c24.3,0,44-19.7,44-44
				C5070.6,9321.4,5050.8,9301.6,5026.6,9301.6z M5026.6,9125.7c-51.5,0-79.3,15.1-101.7,27.3c-18.4,10-30.5,16.6-59.6,16.6
				c-29.1,0-41.2-6.6-59.6-16.6c-22.4-12.2-50.2-27.3-101.8-27.3c-51.5,0-79.3,15.1-101.7,27.3c-18.4,10-30.5,16.6-59.5,16.6
				c-29.1,0-41.3-6.6-59.6-16.6c-22.3-12.2-50.1-27.3-101.7-27.3c-51.5,0-79.3,15.1-101.7,27.3c-18.3,10-30.5,16.6-59.5,16.6
				s-41.2-6.6-59.5-16.6c-22.3-12.2-50.1-27.3-101.7-27.3c-24.3,0-44,19.7-44,44s19.7,44,44,44c29.1,0,41.2,6.6,59.5,16.6
				c22.3,12.1,50.1,27.3,101.7,27.3s79.3-15.1,101.7-27.3c18.4-10,30.5-16.6,59.6-16.6c29.1,0,41.2,6.6,59.6,16.6
				c22.3,12.2,50.1,27.3,101.7,27.3c51.5,0,79.3-15.2,101.7-27.3c18.4-10,30.5-16.6,59.5-16.6c29.1,0,41.3,6.6,59.6,16.6
				c22.4,12.2,50.2,27.3,101.7,27.3c51.6,0,79.4-15.1,101.8-27.3c18.4-10,30.5-16.6,59.6-16.6c24.3,0,44-19.7,44-44
				S5050.8,9125.7,5026.6,9125.7z M4190.9,8937.9V8740c0-97.2-78.8-176-175.9-176v-153.9h1055.7V8564c-97.2,0-176,78.8-176,176
				v197.9h176.1v104.2c-12.4-2.6-26.8-4.4-44.2-4.4c-51.5,0-79.4,15.2-101.6,27.3c-18.5,10.1-30.6,16.7-59.8,16.7
				c-29,0-41.1-6.6-59.6-16.7c-22.2-12.1-50.1-27.3-101.6-27.3c-51.7,0-79.4,15.2-101.9,27.3c-18.2,10.1-30.3,16.7-59.3,16.7
				c-29.2,0-41.4-6.6-59.6-16.7c-22.4-12.1-50.4-27.3-101.9-27.3c-51.4,0-79.4,15.2-101.6,27.3c-18.5,10.1-30.6,16.7-59.6,16.7
				s-41.1-6.6-59.6-16.7c-22.2-12.1-50.1-27.3-101.6-27.3c-17.2,0-31.7,1.8-43.8,4.4v-104.2H4190.9z M4718.8,8740
				c0-97.2-78.8-176-175.9-176c-97.2,0-176,78.8-176,176v197.9h351.9V8740z"/>
		</g>
	</g>
</g>
</svg>
