
<svg xmlns="http://www.w3.org/2000/svg" viewBox="0 0 128 128"><style type="text/css">  
	.st0{fill:#dddddd;}
</style><path class="st0" d="M56 77.9c-14 0-25.4-11.8-25.4-26.3S42 25.3 56 25.3s25.4 11.8 25.4 26.3S70 77.9 56 77.9M87.6 0.2c-5.6-0.6-7.7 2.4-7.7 2.4L72 9.9l19.8 1.2L81.2 21c-6.8-6-15.6-9.6-25.2-9.6 -21.4 0-38.9 18.1-38.9 40.3C17.1 71.5 31 88 49.2 91.3v8.7H34.1v14.2h15.1v13.9h13.6v-13.9h15.1V100H62.8v-8.7C81.1 88 94.9 71.5 94.9 51.7c0-8.1-2.3-15.6-6.3-21.9l10.7-10 -1 20.6 7.8-7.3c0 0 3.1-1.9 3.1-7.7l1.4-24L87.6 0.2z"/></svg>