<svg xmlns="http://www.w3.org/2000/svg" viewBox="0 0 128 128"><style type="text/css">  
	.st0{fill:#dddddd;}
</style><path class="st0" d="M127.6 128H0.4v-16.5h127.2L127.6 128 127.6 128zM54.6 23.5l4.9-5c2.5-2.5 6.5-2.5 8.9 0l4.9 5 27 27.7H81.6L70.8 40.1 64 33.2l-6.5 6.5L46.3 51.2H27.5L54.6 23.5zM90.2 93.5H73.1V65h17.2V93.5zM37.7 65h17.2v28.6H37.7V65zM13.4 65h6.1v28.6h-9.5v14.1h107.8V93.5h-9.5V65h6.6c8.8 0 10.9-6.9 5.9-12L98.2 29.5l-25.1-26c-4.4-4.5-13.9-4.5-18.3 0l-25.1 26L7.1 52.9C2.2 58 4.6 65 13.4 65"/></svg>
