<svg xmlns="http://www.w3.org/2000/svg" viewBox="0 0 128 128"><style type="text/css">  
	.st0{fill:#dddddd;}
</style><path class="st0" d="M61.1 86.6V73.3c0-22.1-15.8-25.4-25.9-25.4H21.1v16.8c0 13.1 9.9 21.8 23.5 21.8L61.1 86.6 61.1 86.6zM68.9 49.9l6.7-6.5c9.7-9.3 10.3-22.2 0.7-31.5l-7.3-7.1L64 0 54 9.7c-7.2 6.9-15.9 20 0.2 35.6l9.7 9.4L68.9 49.9zM66.9 86.6h16.5c13.6 0 23.5-8.7 23.5-21.8V47.9H92.7c-10.1 0-25.9 3.3-25.9 25.4V86.6zM61.2 128v-13.3c0-22.1-17.7-25.4-29.1-25.4H16.3v16.8c0 13.1 11.1 21.8 26.4 21.8L61.2 128 61.2 128zM66.8 128v-13.3c0-22.1 17.7-25.4 29.1-25.4h15.8v16.8c0 13.1-11.1 21.8-26.4 21.8L66.8 128 66.8 128z"/></svg>