<svg xmlns="http://www.w3.org/2000/svg" viewBox="0 0 128 128"><style type="text/css">  
	.st0{fill:#dddddd;}
</style><path class="st0" d="M93.7 39.8C75.9 44.2 37.1 44.7 37 87.7l0 21 50.6-47.8c0 0-23.1 25.8-46.3 52l0 0 -13.1 14.7c0 0 5.3 1.8 9-2.1 0.7-0.7 2.7-3.2 10.4-12.5l13.5 0c41.2 0.1 41.9-40.5 46.1-59.1 2.1-9.1 5.1-17.3 6.4-20.6C110.3 34.6 102.5 37.7 93.7 39.8M69.5 40.5C52.1 44 21.7 46.7 16.8 78.6c-10-27.7 14.5-48.1 24.7-60.9 5.8-7.2 10.2-14.6 12-17.7 0.9 3.5 3.2 11.9 6.8 20.5C62.6 25.9 66.4 32.8 69.5 40.5"/></svg>