<svg xmlns="http://www.w3.org/2000/svg" viewBox="0 0 128 128"><style type="text/css">  
	.st0{fill:#dddddd;}
</style><path class="st0" d="M83 73.8c-1-0.5-2.2-0.4-3.1 0.3s-1.4 1.8-1.2 2.9c1.3 8.3-0.4 16.6-5 24.7 -0.7 1.2-0.5 2.7 0.5 3.6l17.3 17.3c0.6 0.6 1.3 0.9 2.1 0.9h0.1c0.8 0 1.6-0.4 2.2-1 6.1-7 8.5-15.6 6.7-24.5C100.6 87.9 93.3 78.9 83 73.8M44.5 54.5c0.4 0.2 0.9 0.3 1.3 0.3 0.6 0 1.3-0.2 1.8-0.6 0.9-0.7 1.4-1.8 1.2-2.9 -1.3-8.4 0.4-16.5 5-24.7 0.7-1.2 0.5-2.7-0.5-3.6L36 5.7c-0.6-0.6-1.4-1-2.2-0.9 -0.8 0-1.6 0.4-2.2 1 -6.1 7-8.5 15.6-6.7 24.4C26.9 40.5 34.2 49.5 44.5 54.5M12.3 67.7c5.3 3.5 11.8 5.4 18.5 5.4 4.2 0 8.4-0.7 12.5-2.1 1.1-0.4 1.8-1.3 2-2.4 0.2-1.1-0.3-2.2-1.2-2.9 -6.7-5-11.4-12.1-13.9-21 -0.3-1.3-1.5-2.2-2.9-2.2H2.8c-0.8 0-1.6 0.3-2.2 1 -0.6 0.6-0.9 1.4-0.8 2.2C0.4 54.9 4.8 62.8 12.3 67.7M115.2 60.6c-8.6-5.8-20.2-7-31-3.3 -1.1 0.4-1.8 1.3-2 2.4s0.3 2.2 1.2 2.9c6.7 5 11.4 12.1 13.9 21 0.3 1.3 1.5 2.2 2.9 2.2h24.5c0.8 0 1.6-0.3 2.2-1 0.6-0.6 0.9-1.4 0.8-2.3C127.1 73.5 122.6 65.6 115.2 60.6M54.1 83.5c0.5-1 0.4-2.2-0.3-3.1S52 79 50.9 79.2c-8.3 1.3-16.6-0.4-24.7-5 -1.2-0.7-2.7-0.5-3.6 0.5L5.3 91.9c-0.6 0.6-0.9 1.4-0.9 2.2 0 0.8 0.4 1.6 1 2.2 5.4 4.8 12 7.3 18.8 7.3 1.9 0 3.7-0.2 5.6-0.6C40 101.1 49.1 93.7 54.1 83.5M76.5 49.2c8.3-1.3 16.6 0.4 24.7 5 0.5 0.3 1 0.4 1.5 0.4 0.8 0 1.5-0.3 2.1-0.9l17.3-17.3c0.6-0.6 0.9-1.4 0.9-2.2 0-0.8-0.4-1.6-1-2.2 -6.9-6.1-15.6-8.5-24.4-6.7 -10.2 2-19.2 9.4-24.2 19.7 -0.5 1-0.4 2.2 0.3 3.1C74.3 48.9 75.4 49.4 76.5 49.2M68.1 82.6c-1.1-0.2-2.2 0.3-2.9 1.2 -5 6.7-12 11.4-21 13.9 -1.3 0.3-2.2 1.5-2.2 2.9v24.5c0 0.8 0.3 1.6 1 2.2 0.6 0.5 1.3 0.8 2.1 0.8 0.1 0 0.1 0 0.2 0 9.2-0.6 17.1-5 22-12.5 5.8-8.6 7-20.2 3.3-31C70.2 83.6 69.2 82.8 68.1 82.6M59.3 45.7c-1.1-0.2-2-0.9-2.4-2 -3.7-10.8-2.5-22.4 3.3-31 5-7.5 12.8-11.9 22-12.5C83 0.1 83.9 0.4 84.5 1c0.6 0.6 1 1.4 1 2.2v24.5c0 1.4-0.9 2.6-2.2 2.9 -9 2.5-16 7.1-21 13.9 -0.6 0.8-1.5 1.2-2.4 1.2C59.7 45.8 59.5 45.8 59.3 45.7"/></svg>