<svg xmlns="http://www.w3.org/2000/svg" viewBox="0 0 169.18 135"><defs><style>.cls-1{fill:#00b6c9;}</style></defs><title>1A FP type2</title><g id="Layer_2" data-name="Layer 2"><g id="source"><circle class="cls-1" cx="167.18" cy="87.65" r="2"/><circle class="cls-1" cx="7.01" cy="2" r="2"/><circle class="cls-1" cx="12.01" cy="2" r="2"/><circle class="cls-1" cx="17.02" cy="2" r="2"/><circle class="cls-1" cx="7.01" cy="7.04" r="2"/><circle class="cls-1" cx="12.01" cy="7.04" r="2"/><circle class="cls-1" cx="17.02" cy="7.04" r="2"/><circle class="cls-1" cx="7.01" cy="12.08" r="2"/><circle class="cls-1" cx="12.01" cy="12.08" r="2"/><circle class="cls-1" cx="17.02" cy="12.08" r="2"/><circle class="cls-1" cx="2" cy="17.12" r="2"/><circle class="cls-1" cx="7.01" cy="17.12" r="2"/><circle class="cls-1" cx="12.01" cy="17.12" r="2"/><circle class="cls-1" cx="17.02" cy="17.12" r="2"/><circle class="cls-1" cx="2" cy="22.15" r="2"/><circle class="cls-1" cx="7.01" cy="22.15" r="2"/><circle class="cls-1" cx="12.01" cy="22.15" r="2"/><circle class="cls-1" cx="17.02" cy="22.15" r="2"/><circle class="cls-1" cx="2" cy="27.19" r="2"/><circle class="cls-1" cx="7.01" cy="27.19" r="2"/><circle class="cls-1" cx="12.01" cy="27.19" r="2"/><circle class="cls-1" cx="17.02" cy="27.19" r="2"/><circle class="cls-1" cx="2" cy="32.23" r="2"/><circle class="cls-1" cx="7.01" cy="32.23" r="2"/><circle class="cls-1" cx="12.01" cy="32.23" r="2"/><circle class="cls-1" cx="17.02" cy="32.23" r="2"/><circle class="cls-1" cx="2" cy="37.27" r="2"/><circle class="cls-1" cx="7.01" cy="37.27" r="2"/><circle class="cls-1" cx="12.01" cy="37.27" r="2"/><circle class="cls-1" cx="17.02" cy="37.27" r="2"/><circle class="cls-1" cx="2" cy="42.31" r="2"/><circle class="cls-1" cx="7.01" cy="42.31" r="2"/><circle class="cls-1" cx="12.01" cy="42.31" r="2"/><circle class="cls-1" cx="17.02" cy="42.31" r="2"/><circle class="cls-1" cx="2" cy="47.35" r="2"/><circle class="cls-1" cx="7.01" cy="47.35" r="2"/><circle class="cls-1" cx="12.01" cy="47.35" r="2"/><circle class="cls-1" cx="17.02" cy="47.35" r="2"/><circle class="cls-1" cx="2" cy="52.38" r="2"/><circle class="cls-1" cx="7.01" cy="52.38" r="2"/><circle class="cls-1" cx="12.01" cy="52.38" r="2"/><circle class="cls-1" cx="17.02" cy="52.38" r="2"/><circle class="cls-1" cx="2" cy="57.42" r="2"/><circle class="cls-1" cx="7.01" cy="57.42" r="2"/><circle class="cls-1" cx="12.01" cy="57.42" r="2"/><circle class="cls-1" cx="17.02" cy="57.42" r="2"/><circle class="cls-1" cx="2" cy="62.46" r="2"/><circle class="cls-1" cx="7.01" cy="62.46" r="2"/><circle class="cls-1" cx="12.01" cy="62.46" r="2"/><circle class="cls-1" cx="17.02" cy="62.46" r="2"/><circle class="cls-1" cx="2" cy="67.5" r="2"/><circle class="cls-1" cx="7.01" cy="67.5" r="2"/><circle class="cls-1" cx="12.01" cy="67.5" r="2"/><circle class="cls-1" cx="17.02" cy="67.5" r="2"/><circle class="cls-1" cx="2" cy="72.54" r="2"/><circle class="cls-1" cx="7.01" cy="72.54" r="2"/><circle class="cls-1" cx="12.01" cy="72.54" r="2"/><circle class="cls-1" cx="17.02" cy="72.54" r="2"/><circle class="cls-1" cx="2" cy="77.58" r="2"/><circle class="cls-1" cx="7.01" cy="77.58" r="2"/><circle class="cls-1" cx="12.01" cy="77.58" r="2"/><circle class="cls-1" cx="17.02" cy="77.58" r="2"/><circle class="cls-1" cx="2" cy="82.62" r="2"/><circle class="cls-1" cx="7.01" cy="82.62" r="2"/><circle class="cls-1" cx="12.01" cy="82.62" r="2"/><circle class="cls-1" cx="17.02" cy="82.62" r="2"/><circle class="cls-1" cx="2" cy="87.65" r="2"/><circle class="cls-1" cx="7.01" cy="87.65" r="2"/><circle class="cls-1" cx="12.01" cy="87.65" r="2"/><circle class="cls-1" cx="17.02" cy="87.65" r="2"/><circle class="cls-1" cx="2" cy="92.69" r="2"/><circle class="cls-1" cx="7.01" cy="92.69" r="2"/><circle class="cls-1" cx="12.01" cy="92.69" r="2"/><circle class="cls-1" cx="17.02" cy="92.69" r="2"/><circle class="cls-1" cx="2" cy="97.73" r="2"/><circle class="cls-1" cx="7.01" cy="97.73" r="2"/><circle class="cls-1" cx="12.01" cy="97.73" r="2"/><circle class="cls-1" cx="17.02" cy="97.73" r="2"/><circle class="cls-1" cx="2" cy="102.77" r="2"/><circle class="cls-1" cx="7.01" cy="102.77" r="2"/><circle class="cls-1" cx="12.01" cy="102.77" r="2"/><circle class="cls-1" cx="17.02" cy="102.77" r="2"/><circle class="cls-1" cx="2" cy="107.81" r="2"/><circle class="cls-1" cx="7.01" cy="107.81" r="2"/><circle class="cls-1" cx="12.01" cy="107.81" r="2"/><circle class="cls-1" cx="17.02" cy="107.81" r="2"/><circle class="cls-1" cx="2" cy="112.85" r="2"/><circle class="cls-1" cx="7.01" cy="112.85" r="2"/><circle class="cls-1" cx="12.01" cy="112.85" r="2"/><circle class="cls-1" cx="17.02" cy="112.85" r="2"/><circle class="cls-1" cx="2" cy="117.88" r="2"/><circle class="cls-1" cx="7.01" cy="117.88" r="2"/><circle class="cls-1" cx="12.01" cy="117.88" r="2"/><circle class="cls-1" cx="17.02" cy="117.88" r="2"/><circle class="cls-1" cx="2" cy="122.92" r="2"/><circle class="cls-1" cx="7.01" cy="122.92" r="2"/><circle class="cls-1" cx="12.01" cy="122.92" r="2"/><circle class="cls-1" cx="17.02" cy="122.92" r="2"/><circle class="cls-1" cx="2" cy="127.96" r="2"/><circle class="cls-1" cx="7.01" cy="127.96" r="2"/><circle class="cls-1" cx="12.01" cy="127.96" r="2"/><circle class="cls-1" cx="2" cy="133" r="2"/><circle class="cls-1" cx="7.01" cy="133" r="2"/><circle class="cls-1" cx="12.01" cy="133" r="2"/><circle class="cls-1" cx="17.02" cy="127.96" r="2"/><circle class="cls-1" cx="22.02" cy="2" r="2"/><circle class="cls-1" cx="27.03" cy="2" r="2"/><circle class="cls-1" cx="32.03" cy="2" r="2"/><circle class="cls-1" cx="37.04" cy="2" r="2"/><circle class="cls-1" cx="42.04" cy="2" r="2"/><circle class="cls-1" cx="47.05" cy="2" r="2"/><circle class="cls-1" cx="52.06" cy="2" r="2"/><circle class="cls-1" cx="57.06" cy="2" r="2"/><circle class="cls-1" cx="62.07" cy="2" r="2"/><circle class="cls-1" cx="67.07" cy="2" r="2"/><circle class="cls-1" cx="72.08" cy="2" r="2"/><circle class="cls-1" cx="77.08" cy="2" r="2"/><circle class="cls-1" cx="82.09" cy="2" r="2"/><circle class="cls-1" cx="87.09" cy="2" r="2"/><circle class="cls-1" cx="92.1" cy="2" r="2"/><circle class="cls-1" cx="97.11" cy="2" r="2"/><circle class="cls-1" cx="102.11" cy="2" r="2"/><circle class="cls-1" cx="22.02" cy="7.04" r="2"/><circle class="cls-1" cx="27.03" cy="7.04" r="2"/><circle class="cls-1" cx="32.03" cy="7.04" r="2"/><circle class="cls-1" cx="37.04" cy="7.04" r="2"/><circle class="cls-1" cx="42.04" cy="7.04" r="2"/><circle class="cls-1" cx="47.05" cy="7.04" r="2"/><circle class="cls-1" cx="52.06" cy="7.04" r="2"/><circle class="cls-1" cx="57.06" cy="7.04" r="2"/><circle class="cls-1" cx="62.07" cy="7.04" r="2"/><circle class="cls-1" cx="67.07" cy="7.04" r="2"/><circle class="cls-1" cx="72.08" cy="7.04" r="2"/><circle class="cls-1" cx="77.08" cy="7.04" r="2"/><circle class="cls-1" cx="82.09" cy="7.04" r="2"/><circle class="cls-1" cx="87.09" cy="7.04" r="2"/><circle class="cls-1" cx="92.1" cy="7.04" r="2"/><circle class="cls-1" cx="97.11" cy="7.04" r="2"/><circle class="cls-1" cx="102.11" cy="7.04" r="2"/><circle class="cls-1" cx="22.02" cy="12.08" r="2"/><circle class="cls-1" cx="27.03" cy="12.08" r="2"/><circle class="cls-1" cx="32.03" cy="12.08" r="2"/><circle class="cls-1" cx="37.04" cy="12.08" r="2"/><circle class="cls-1" cx="42.04" cy="12.08" r="2"/><circle class="cls-1" cx="47.05" cy="12.08" r="2"/><circle class="cls-1" cx="52.06" cy="12.08" r="2"/><circle class="cls-1" cx="57.06" cy="12.08" r="2"/><circle class="cls-1" cx="62.07" cy="12.08" r="2"/><circle class="cls-1" cx="67.07" cy="12.08" r="2"/><circle class="cls-1" cx="72.08" cy="12.08" r="2"/><circle class="cls-1" cx="77.08" cy="12.08" r="2"/><circle class="cls-1" cx="82.09" cy="12.08" r="2"/><circle class="cls-1" cx="87.09" cy="12.08" r="2"/><circle class="cls-1" cx="92.1" cy="12.08" r="2"/><circle class="cls-1" cx="97.11" cy="12.08" r="2"/><circle class="cls-1" cx="102.11" cy="12.08" r="2"/><circle class="cls-1" cx="22.02" cy="17.12" r="2"/><circle class="cls-1" cx="27.03" cy="17.12" r="2"/><circle class="cls-1" cx="32.03" cy="17.12" r="2"/><circle class="cls-1" cx="37.04" cy="17.12" r="2"/><circle class="cls-1" cx="42.04" cy="17.12" r="2"/><circle class="cls-1" cx="47.05" cy="17.12" r="2"/><circle class="cls-1" cx="52.06" cy="17.12" r="2"/><circle class="cls-1" cx="57.06" cy="17.12" r="2"/><circle class="cls-1" cx="62.07" cy="17.12" r="2"/><circle class="cls-1" cx="67.07" cy="17.12" r="2"/><circle class="cls-1" cx="72.08" cy="17.12" r="2"/><circle class="cls-1" cx="77.08" cy="17.12" r="2"/><circle class="cls-1" cx="82.09" cy="17.12" r="2"/><circle class="cls-1" cx="87.09" cy="17.12" r="2"/><circle class="cls-1" cx="92.1" cy="17.12" r="2"/><circle class="cls-1" cx="97.11" cy="17.12" r="2"/><circle class="cls-1" cx="102.11" cy="17.12" r="2"/><circle class="cls-1" cx="22.02" cy="22.15" r="2"/><circle class="cls-1" cx="27.03" cy="22.15" r="2"/><circle class="cls-1" cx="32.03" cy="22.15" r="2"/><circle class="cls-1" cx="37.04" cy="22.15" r="2"/><circle class="cls-1" cx="42.04" cy="22.15" r="2"/><circle class="cls-1" cx="47.05" cy="22.15" r="2"/><circle class="cls-1" cx="52.06" cy="22.15" r="2"/><circle class="cls-1" cx="57.06" cy="22.15" r="2"/><circle class="cls-1" cx="62.07" cy="22.15" r="2"/><circle class="cls-1" cx="67.07" cy="22.15" r="2"/><circle class="cls-1" cx="72.08" cy="22.15" r="2"/><circle class="cls-1" cx="77.08" cy="22.15" r="2"/><circle class="cls-1" cx="82.09" cy="22.15" r="2"/><circle class="cls-1" cx="87.09" cy="22.15" r="2"/><circle class="cls-1" cx="92.1" cy="22.15" r="2"/><circle class="cls-1" cx="97.11" cy="22.15" r="2"/><circle class="cls-1" cx="102.11" cy="22.15" r="2"/><circle class="cls-1" cx="22.02" cy="27.19" r="2"/><circle class="cls-1" cx="27.03" cy="27.19" r="2"/><circle class="cls-1" cx="32.03" cy="27.19" r="2"/><circle class="cls-1" cx="37.04" cy="27.19" r="2"/><circle class="cls-1" cx="42.04" cy="27.19" r="2"/><circle class="cls-1" cx="47.05" cy="27.19" r="2"/><circle class="cls-1" cx="52.06" cy="27.19" r="2"/><circle class="cls-1" cx="57.06" cy="27.19" r="2"/><circle class="cls-1" cx="62.07" cy="27.19" r="2"/><circle class="cls-1" cx="67.07" cy="27.19" r="2"/><circle class="cls-1" cx="72.08" cy="27.19" r="2"/><circle class="cls-1" cx="77.08" cy="27.19" r="2"/><circle class="cls-1" cx="82.09" cy="27.19" r="2"/><circle class="cls-1" cx="87.09" cy="27.19" r="2"/><circle class="cls-1" cx="92.1" cy="27.19" r="2"/><circle class="cls-1" cx="97.11" cy="27.19" r="2"/><circle class="cls-1" cx="102.11" cy="27.19" r="2"/><circle class="cls-1" cx="22.02" cy="32.23" r="2"/><circle class="cls-1" cx="27.03" cy="32.23" r="2"/><circle class="cls-1" cx="32.03" cy="32.23" r="2"/><circle class="cls-1" cx="37.04" cy="32.23" r="2"/><circle class="cls-1" cx="42.04" cy="32.23" r="2"/><circle class="cls-1" cx="47.05" cy="32.23" r="2"/><circle class="cls-1" cx="52.06" cy="32.23" r="2"/><circle class="cls-1" cx="57.06" cy="32.23" r="2"/><circle class="cls-1" cx="62.07" cy="32.23" r="2"/><circle class="cls-1" cx="67.07" cy="32.23" r="2"/><circle class="cls-1" cx="72.08" cy="32.23" r="2"/><circle class="cls-1" cx="77.08" cy="32.23" r="2"/><circle class="cls-1" cx="82.09" cy="32.23" r="2"/><circle class="cls-1" cx="87.09" cy="32.23" r="2"/><circle class="cls-1" cx="92.1" cy="32.23" r="2"/><circle class="cls-1" cx="97.11" cy="32.23" r="2"/><circle class="cls-1" cx="102.11" cy="32.23" r="2"/><circle class="cls-1" cx="22.02" cy="37.27" r="2"/><circle class="cls-1" cx="27.03" cy="37.27" r="2"/><circle class="cls-1" cx="32.03" cy="37.27" r="2"/><circle class="cls-1" cx="37.04" cy="37.27" r="2"/><circle class="cls-1" cx="42.04" cy="37.27" r="2"/><circle class="cls-1" cx="47.05" cy="37.27" r="2"/><circle class="cls-1" cx="52.06" cy="37.27" r="2"/><circle class="cls-1" cx="57.06" cy="37.27" r="2"/><circle class="cls-1" cx="62.07" cy="37.27" r="2"/><circle class="cls-1" cx="67.07" cy="37.27" r="2"/><circle class="cls-1" cx="72.08" cy="37.27" r="2"/><circle class="cls-1" cx="77.08" cy="37.27" r="2"/><circle class="cls-1" cx="82.09" cy="37.27" r="2"/><circle class="cls-1" cx="87.09" cy="37.27" r="2"/><circle class="cls-1" cx="92.1" cy="37.27" r="2"/><circle class="cls-1" cx="97.11" cy="37.27" r="2"/><circle class="cls-1" cx="102.11" cy="37.27" r="2"/><circle class="cls-1" cx="22.02" cy="42.31" r="2"/><circle class="cls-1" cx="27.03" cy="42.31" r="2"/><circle class="cls-1" cx="32.03" cy="42.31" r="2"/><circle class="cls-1" cx="37.04" cy="42.31" r="2"/><circle class="cls-1" cx="42.04" cy="42.31" r="2"/><circle class="cls-1" cx="47.05" cy="42.31" r="2"/><circle class="cls-1" cx="52.06" cy="42.31" r="2"/><circle class="cls-1" cx="57.06" cy="42.31" r="2"/><circle class="cls-1" cx="62.07" cy="42.31" r="2"/><circle class="cls-1" cx="67.07" cy="42.31" r="2"/><circle class="cls-1" cx="72.08" cy="42.31" r="2"/><circle class="cls-1" cx="77.08" cy="42.31" r="2"/><circle class="cls-1" cx="82.09" cy="42.31" r="2"/><circle class="cls-1" cx="87.09" cy="42.31" r="2"/><circle class="cls-1" cx="92.1" cy="42.31" r="2"/><circle class="cls-1" cx="97.11" cy="42.31" r="2"/><circle class="cls-1" cx="22.02" cy="47.35" r="2"/><circle class="cls-1" cx="27.03" cy="47.35" r="2"/><circle class="cls-1" cx="32.03" cy="47.35" r="2"/><circle class="cls-1" cx="37.04" cy="47.35" r="2"/><circle class="cls-1" cx="42.04" cy="47.35" r="2"/><circle class="cls-1" cx="47.05" cy="47.35" r="2"/><circle class="cls-1" cx="52.06" cy="47.35" r="2"/><circle class="cls-1" cx="57.06" cy="47.35" r="2"/><circle class="cls-1" cx="62.07" cy="47.35" r="2"/><circle class="cls-1" cx="67.07" cy="47.35" r="2"/><circle class="cls-1" cx="72.08" cy="47.35" r="2"/><circle class="cls-1" cx="77.08" cy="47.35" r="2"/><circle class="cls-1" cx="82.09" cy="47.35" r="2"/><circle class="cls-1" cx="87.09" cy="47.35" r="2"/><circle class="cls-1" cx="92.1" cy="47.35" r="2"/><circle class="cls-1" cx="97.11" cy="47.35" r="2"/><circle class="cls-1" cx="22.02" cy="52.38" r="2"/><circle class="cls-1" cx="27.03" cy="52.38" r="2"/><circle class="cls-1" cx="32.03" cy="52.38" r="2"/><circle class="cls-1" cx="37.04" cy="52.38" r="2"/><circle class="cls-1" cx="42.04" cy="52.38" r="2"/><circle class="cls-1" cx="47.05" cy="52.38" r="2"/><circle class="cls-1" cx="52.06" cy="52.38" r="2"/><circle class="cls-1" cx="57.06" cy="52.38" r="2"/><circle class="cls-1" cx="62.07" cy="52.38" r="2"/><circle class="cls-1" cx="67.07" cy="52.38" r="2"/><circle class="cls-1" cx="72.08" cy="52.38" r="2"/><circle class="cls-1" cx="77.08" cy="52.38" r="2"/><circle class="cls-1" cx="82.09" cy="52.38" r="2"/><circle class="cls-1" cx="87.09" cy="52.38" r="2"/><circle class="cls-1" cx="92.1" cy="52.38" r="2"/><circle class="cls-1" cx="97.11" cy="52.38" r="2"/><circle class="cls-1" cx="22.02" cy="57.42" r="2"/><circle class="cls-1" cx="27.03" cy="57.42" r="2"/><circle class="cls-1" cx="32.03" cy="57.42" r="2"/><circle class="cls-1" cx="37.04" cy="57.42" r="2"/><circle class="cls-1" cx="42.04" cy="57.42" r="2"/><circle class="cls-1" cx="47.05" cy="57.42" r="2"/><circle class="cls-1" cx="52.06" cy="57.42" r="2"/><circle class="cls-1" cx="57.06" cy="57.42" r="2"/><circle class="cls-1" cx="62.07" cy="57.42" r="2"/><circle class="cls-1" cx="67.07" cy="57.42" r="2"/><circle class="cls-1" cx="72.08" cy="57.42" r="2"/><circle class="cls-1" cx="77.08" cy="57.42" r="2"/><circle class="cls-1" cx="82.09" cy="57.42" r="2"/><circle class="cls-1" cx="87.09" cy="57.42" r="2"/><circle class="cls-1" cx="92.1" cy="57.42" r="2"/><circle class="cls-1" cx="97.11" cy="57.42" r="2"/><circle class="cls-1" cx="22.02" cy="62.46" r="2"/><circle class="cls-1" cx="27.03" cy="62.46" r="2"/><circle class="cls-1" cx="32.03" cy="62.46" r="2"/><circle class="cls-1" cx="37.04" cy="62.46" r="2"/><circle class="cls-1" cx="42.04" cy="62.46" r="2"/><circle class="cls-1" cx="47.05" cy="62.46" r="2"/><circle class="cls-1" cx="52.06" cy="62.46" r="2"/><circle class="cls-1" cx="57.06" cy="62.46" r="2"/><circle class="cls-1" cx="62.07" cy="62.46" r="2"/><circle class="cls-1" cx="67.07" cy="62.46" r="2"/><circle class="cls-1" cx="72.08" cy="62.46" r="2"/><circle class="cls-1" cx="77.08" cy="62.46" r="2"/><circle class="cls-1" cx="82.09" cy="62.46" r="2"/><circle class="cls-1" cx="87.09" cy="62.46" r="2"/><circle class="cls-1" cx="92.1" cy="62.46" r="2"/><circle class="cls-1" cx="97.11" cy="62.46" r="2"/><circle class="cls-1" cx="22.02" cy="67.5" r="2"/><circle class="cls-1" cx="27.03" cy="67.5" r="2"/><circle class="cls-1" cx="32.03" cy="67.5" r="2"/><circle class="cls-1" cx="37.04" cy="67.5" r="2"/><circle class="cls-1" cx="42.04" cy="67.5" r="2"/><circle class="cls-1" cx="47.05" cy="67.5" r="2"/><circle class="cls-1" cx="52.06" cy="67.5" r="2"/><circle class="cls-1" cx="57.06" cy="67.5" r="2"/><circle class="cls-1" cx="62.07" cy="67.5" r="2"/><circle class="cls-1" cx="67.07" cy="67.5" r="2"/><circle class="cls-1" cx="72.08" cy="67.5" r="2"/><circle class="cls-1" cx="77.08" cy="67.5" r="2"/><circle class="cls-1" cx="82.09" cy="67.5" r="2"/><circle class="cls-1" cx="87.09" cy="67.5" r="2"/><circle class="cls-1" cx="92.1" cy="67.5" r="2"/><circle class="cls-1" cx="97.11" cy="67.5" r="2"/><circle class="cls-1" cx="22.02" cy="72.54" r="2"/><circle class="cls-1" cx="27.03" cy="72.54" r="2"/><circle class="cls-1" cx="32.03" cy="72.54" r="2"/><circle class="cls-1" cx="37.04" cy="72.54" r="2"/><circle class="cls-1" cx="42.04" cy="72.54" r="2"/><circle class="cls-1" cx="47.05" cy="72.54" r="2"/><circle class="cls-1" cx="52.06" cy="72.54" r="2"/><circle class="cls-1" cx="57.06" cy="72.54" r="2"/><circle class="cls-1" cx="62.07" cy="72.54" r="2"/><circle class="cls-1" cx="67.07" cy="72.54" r="2"/><circle class="cls-1" cx="72.08" cy="72.54" r="2"/><circle class="cls-1" cx="77.08" cy="72.54" r="2"/><circle class="cls-1" cx="82.09" cy="72.54" r="2"/><circle class="cls-1" cx="87.09" cy="72.54" r="2"/><circle class="cls-1" cx="92.1" cy="72.54" r="2"/><circle class="cls-1" cx="97.11" cy="72.54" r="2"/><circle class="cls-1" cx="22.02" cy="77.58" r="2"/><circle class="cls-1" cx="27.03" cy="77.58" r="2"/><circle class="cls-1" cx="32.03" cy="77.58" r="2"/><circle class="cls-1" cx="37.04" cy="77.58" r="2"/><circle class="cls-1" cx="42.04" cy="77.58" r="2"/><circle class="cls-1" cx="47.05" cy="77.58" r="2"/><circle class="cls-1" cx="52.06" cy="77.58" r="2"/><circle class="cls-1" cx="57.06" cy="77.58" r="2"/><circle class="cls-1" cx="62.07" cy="77.58" r="2"/><circle class="cls-1" cx="67.07" cy="77.58" r="2"/><circle class="cls-1" cx="72.08" cy="77.58" r="2"/><circle class="cls-1" cx="77.08" cy="77.58" r="2"/><circle class="cls-1" cx="82.09" cy="77.58" r="2"/><circle class="cls-1" cx="87.09" cy="77.58" r="2"/><circle class="cls-1" cx="92.1" cy="77.58" r="2"/><circle class="cls-1" cx="97.11" cy="77.58" r="2"/><circle class="cls-1" cx="22.02" cy="82.62" r="2"/><circle class="cls-1" cx="27.03" cy="82.62" r="2"/><circle class="cls-1" cx="32.03" cy="82.62" r="2"/><circle class="cls-1" cx="37.04" cy="82.62" r="2"/><circle class="cls-1" cx="42.04" cy="82.62" r="2"/><circle class="cls-1" cx="47.05" cy="82.62" r="2"/><circle class="cls-1" cx="52.06" cy="82.62" r="2"/><circle class="cls-1" cx="57.06" cy="82.62" r="2"/><circle class="cls-1" cx="62.07" cy="82.62" r="2"/><circle class="cls-1" cx="67.07" cy="82.62" r="2"/><circle class="cls-1" cx="72.08" cy="82.62" r="2"/><circle class="cls-1" cx="77.08" cy="82.62" r="2"/><circle class="cls-1" cx="82.09" cy="82.62" r="2"/><circle class="cls-1" cx="87.09" cy="82.62" r="2"/><circle class="cls-1" cx="92.1" cy="82.62" r="2"/><circle class="cls-1" cx="97.11" cy="82.62" r="2"/><circle class="cls-1" cx="22.02" cy="87.65" r="2"/><circle class="cls-1" cx="27.03" cy="87.65" r="2"/><circle class="cls-1" cx="32.03" cy="87.65" r="2"/><circle class="cls-1" cx="37.04" cy="87.65" r="2"/><circle class="cls-1" cx="42.04" cy="87.65" r="2"/><circle class="cls-1" cx="47.05" cy="87.65" r="2"/><circle class="cls-1" cx="52.06" cy="87.65" r="2"/><circle class="cls-1" cx="57.06" cy="87.65" r="2"/><circle class="cls-1" cx="62.07" cy="87.65" r="2"/><circle class="cls-1" cx="67.07" cy="87.65" r="2"/><circle class="cls-1" cx="72.08" cy="87.65" r="2"/><circle class="cls-1" cx="77.08" cy="87.65" r="2"/><circle class="cls-1" cx="82.09" cy="87.65" r="2"/><circle class="cls-1" cx="87.09" cy="87.65" r="2"/><circle class="cls-1" cx="92.1" cy="87.65" r="2"/><circle class="cls-1" cx="97.11" cy="87.65" r="2"/><circle class="cls-1" cx="22.02" cy="92.69" r="2"/><circle class="cls-1" cx="27.03" cy="92.69" r="2"/><circle class="cls-1" cx="32.03" cy="92.69" r="2"/><circle class="cls-1" cx="37.04" cy="92.69" r="2"/><circle class="cls-1" cx="42.04" cy="92.69" r="2"/><circle class="cls-1" cx="47.05" cy="92.69" r="2"/><circle class="cls-1" cx="52.06" cy="92.69" r="2"/><circle class="cls-1" cx="57.06" cy="92.69" r="2"/><circle class="cls-1" cx="62.07" cy="92.69" r="2"/><circle class="cls-1" cx="67.07" cy="92.69" r="2"/><circle class="cls-1" cx="72.08" cy="92.69" r="2"/><circle class="cls-1" cx="77.08" cy="92.69" r="2"/><circle class="cls-1" cx="82.09" cy="92.69" r="2"/><circle class="cls-1" cx="87.09" cy="92.69" r="2"/><circle class="cls-1" cx="92.1" cy="92.69" r="2"/><circle class="cls-1" cx="97.11" cy="92.69" r="2"/><circle class="cls-1" cx="22.02" cy="97.73" r="2"/><circle class="cls-1" cx="27.03" cy="97.73" r="2"/><circle class="cls-1" cx="32.03" cy="97.73" r="2"/><circle class="cls-1" cx="37.04" cy="97.73" r="2"/><circle class="cls-1" cx="42.04" cy="97.73" r="2"/><circle class="cls-1" cx="47.05" cy="97.73" r="2"/><circle class="cls-1" cx="52.06" cy="97.73" r="2"/><circle class="cls-1" cx="57.06" cy="97.73" r="2"/><circle class="cls-1" cx="62.07" cy="97.73" r="2"/><circle class="cls-1" cx="67.07" cy="97.73" r="2"/><circle class="cls-1" cx="72.08" cy="97.73" r="2"/><circle class="cls-1" cx="77.08" cy="97.73" r="2"/><circle class="cls-1" cx="82.09" cy="97.73" r="2"/><circle class="cls-1" cx="87.09" cy="97.73" r="2"/><circle class="cls-1" cx="92.1" cy="97.73" r="2"/><circle class="cls-1" cx="97.11" cy="97.73" r="2"/><circle class="cls-1" cx="22.02" cy="102.77" r="2"/><circle class="cls-1" cx="27.03" cy="102.77" r="2"/><circle class="cls-1" cx="32.03" cy="102.77" r="2"/><circle class="cls-1" cx="37.04" cy="102.77" r="2"/><circle class="cls-1" cx="42.04" cy="102.77" r="2"/><circle class="cls-1" cx="47.05" cy="102.77" r="2"/><circle class="cls-1" cx="52.06" cy="102.77" r="2"/><circle class="cls-1" cx="57.06" cy="102.77" r="2"/><circle class="cls-1" cx="62.07" cy="102.77" r="2"/><circle class="cls-1" cx="67.07" cy="102.77" r="2"/><circle class="cls-1" cx="72.08" cy="102.77" r="2"/><circle class="cls-1" cx="77.08" cy="102.77" r="2"/><circle class="cls-1" cx="82.09" cy="102.77" r="2"/><circle class="cls-1" cx="87.09" cy="102.77" r="2"/><circle class="cls-1" cx="92.1" cy="102.77" r="2"/><circle class="cls-1" cx="97.11" cy="102.77" r="2"/><circle class="cls-1" cx="22.02" cy="107.81" r="2"/><circle class="cls-1" cx="27.03" cy="107.81" r="2"/><circle class="cls-1" cx="32.03" cy="107.81" r="2"/><circle class="cls-1" cx="37.04" cy="107.81" r="2"/><circle class="cls-1" cx="42.04" cy="107.81" r="2"/><circle class="cls-1" cx="47.05" cy="107.81" r="2"/><circle class="cls-1" cx="52.06" cy="107.81" r="2"/><circle class="cls-1" cx="57.06" cy="107.81" r="2"/><circle class="cls-1" cx="62.07" cy="107.81" r="2"/><circle class="cls-1" cx="67.07" cy="107.81" r="2"/><circle class="cls-1" cx="72.08" cy="107.81" r="2"/><circle class="cls-1" cx="77.08" cy="107.81" r="2"/><circle class="cls-1" cx="82.09" cy="107.81" r="2"/><circle class="cls-1" cx="87.09" cy="107.81" r="2"/><circle class="cls-1" cx="92.1" cy="107.81" r="2"/><circle class="cls-1" cx="97.11" cy="107.81" r="2"/><circle class="cls-1" cx="22.02" cy="112.85" r="2"/><circle class="cls-1" cx="27.03" cy="112.85" r="2"/><circle class="cls-1" cx="32.03" cy="112.85" r="2"/><circle class="cls-1" cx="37.04" cy="112.85" r="2"/><circle class="cls-1" cx="42.04" cy="112.85" r="2"/><circle class="cls-1" cx="47.05" cy="112.85" r="2"/><circle class="cls-1" cx="52.06" cy="112.85" r="2"/><circle class="cls-1" cx="57.06" cy="112.85" r="2"/><circle class="cls-1" cx="62.07" cy="112.85" r="2"/><circle class="cls-1" cx="67.07" cy="112.85" r="2"/><circle class="cls-1" cx="72.08" cy="112.85" r="2"/><circle class="cls-1" cx="77.08" cy="112.85" r="2"/><circle class="cls-1" cx="82.09" cy="112.85" r="2"/><circle class="cls-1" cx="87.09" cy="112.85" r="2"/><circle class="cls-1" cx="92.1" cy="112.85" r="2"/><circle class="cls-1" cx="97.11" cy="112.85" r="2"/><circle class="cls-1" cx="22.02" cy="117.88" r="2"/><circle class="cls-1" cx="27.03" cy="117.88" r="2"/><circle class="cls-1" cx="32.03" cy="117.88" r="2"/><circle class="cls-1" cx="37.04" cy="117.88" r="2"/><circle class="cls-1" cx="42.04" cy="117.88" r="2"/><circle class="cls-1" cx="47.05" cy="117.88" r="2"/><circle class="cls-1" cx="52.06" cy="117.88" r="2"/><circle class="cls-1" cx="57.06" cy="117.88" r="2"/><circle class="cls-1" cx="62.07" cy="117.88" r="2"/><circle class="cls-1" cx="67.07" cy="117.88" r="2"/><circle class="cls-1" cx="72.08" cy="117.88" r="2"/><circle class="cls-1" cx="77.08" cy="117.88" r="2"/><circle class="cls-1" cx="82.09" cy="117.88" r="2"/><circle class="cls-1" cx="87.09" cy="117.88" r="2"/><circle class="cls-1" cx="92.1" cy="117.88" r="2"/><circle class="cls-1" cx="97.11" cy="117.88" r="2"/><circle class="cls-1" cx="22.02" cy="122.92" r="2"/><circle class="cls-1" cx="27.03" cy="122.92" r="2"/><circle class="cls-1" cx="32.03" cy="122.92" r="2"/><circle class="cls-1" cx="37.04" cy="122.92" r="2"/><circle class="cls-1" cx="42.04" cy="122.92" r="2"/><circle class="cls-1" cx="47.05" cy="122.92" r="2"/><circle class="cls-1" cx="52.06" cy="122.92" r="2"/><circle class="cls-1" cx="57.06" cy="122.92" r="2"/><circle class="cls-1" cx="62.07" cy="122.92" r="2"/><circle class="cls-1" cx="67.07" cy="122.92" r="2"/><circle class="cls-1" cx="72.08" cy="122.92" r="2"/><circle class="cls-1" cx="77.08" cy="122.92" r="2"/><circle class="cls-1" cx="82.09" cy="122.92" r="2"/><circle class="cls-1" cx="87.09" cy="122.92" r="2"/><circle class="cls-1" cx="92.1" cy="122.92" r="2"/><circle class="cls-1" cx="97.11" cy="122.92" r="2"/><circle class="cls-1" cx="22.02" cy="127.96" r="2"/><circle class="cls-1" cx="27.03" cy="127.96" r="2"/><circle class="cls-1" cx="32.03" cy="127.96" r="2"/><circle class="cls-1" cx="37.04" cy="127.96" r="2"/><circle class="cls-1" cx="42.04" cy="127.96" r="2"/><circle class="cls-1" cx="47.05" cy="127.96" r="2"/><circle class="cls-1" cx="52.06" cy="127.96" r="2"/><circle class="cls-1" cx="57.06" cy="127.96" r="2"/><circle class="cls-1" cx="62.07" cy="127.96" r="2"/><circle class="cls-1" cx="67.07" cy="127.96" r="2"/><circle class="cls-1" cx="72.08" cy="127.96" r="2"/><circle class="cls-1" cx="77.08" cy="127.96" r="2"/><circle class="cls-1" cx="82.09" cy="127.96" r="2"/><circle class="cls-1" cx="87.09" cy="127.96" r="2"/><circle class="cls-1" cx="92.1" cy="127.96" r="2"/><circle class="cls-1" cx="97.11" cy="127.96" r="2"/><circle class="cls-1" cx="17.02" cy="133" r="2"/><circle class="cls-1" cx="22.02" cy="133" r="2"/><circle class="cls-1" cx="27.03" cy="133" r="2"/><circle class="cls-1" cx="32.03" cy="133" r="2"/><circle class="cls-1" cx="37.04" cy="133" r="2"/><circle class="cls-1" cx="42.04" cy="133" r="2"/><circle class="cls-1" cx="47.05" cy="133" r="2"/><circle class="cls-1" cx="52.06" cy="133" r="2"/><circle class="cls-1" cx="57.06" cy="133" r="2"/><circle class="cls-1" cx="62.07" cy="133" r="2"/><circle class="cls-1" cx="67.07" cy="133" r="2"/><circle class="cls-1" cx="72.08" cy="133" r="2"/><circle class="cls-1" cx="77.08" cy="133" r="2"/><circle class="cls-1" cx="82.09" cy="133" r="2"/><circle class="cls-1" cx="87.09" cy="133" r="2"/><circle class="cls-1" cx="92.1" cy="133" r="2"/><circle class="cls-1" cx="97.11" cy="133" r="2"/><circle class="cls-1" cx="102.11" cy="42.31" r="2"/><circle class="cls-1" cx="107.12" cy="2" r="2"/><circle class="cls-1" cx="112.12" cy="2" r="2"/><circle class="cls-1" cx="117.13" cy="2" r="2"/><circle class="cls-1" cx="122.13" cy="2" r="2"/><circle class="cls-1" cx="127.14" cy="2" r="2"/><circle class="cls-1" cx="132.14" cy="2" r="2"/><circle class="cls-1" cx="137.15" cy="2" r="2"/><circle class="cls-1" cx="142.16" cy="2" r="2"/><circle class="cls-1" cx="147.16" cy="2" r="2"/><circle class="cls-1" cx="152.17" cy="2" r="2"/><circle class="cls-1" cx="157.17" cy="2" r="2"/><circle class="cls-1" cx="107.12" cy="7.04" r="2"/><circle class="cls-1" cx="112.12" cy="7.04" r="2"/><circle class="cls-1" cx="117.13" cy="7.04" r="2"/><circle class="cls-1" cx="122.13" cy="7.04" r="2"/><circle class="cls-1" cx="127.14" cy="7.04" r="2"/><circle class="cls-1" cx="132.14" cy="7.04" r="2"/><circle class="cls-1" cx="137.15" cy="7.04" r="2"/><circle class="cls-1" cx="142.16" cy="7.04" r="2"/><circle class="cls-1" cx="147.16" cy="7.04" r="2"/><circle class="cls-1" cx="152.17" cy="7.04" r="2"/><circle class="cls-1" cx="157.17" cy="7.04" r="2"/><circle class="cls-1" cx="107.12" cy="12.08" r="2"/><circle class="cls-1" cx="112.12" cy="12.08" r="2"/><circle class="cls-1" cx="117.13" cy="12.08" r="2"/><circle class="cls-1" cx="122.13" cy="12.08" r="2"/><circle class="cls-1" cx="127.14" cy="12.08" r="2"/><circle class="cls-1" cx="132.14" cy="12.08" r="2"/><circle class="cls-1" cx="137.15" cy="12.08" r="2"/><circle class="cls-1" cx="142.16" cy="12.08" r="2"/><circle class="cls-1" cx="147.16" cy="12.08" r="2"/><circle class="cls-1" cx="152.17" cy="12.08" r="2"/><circle class="cls-1" cx="157.17" cy="12.08" r="2"/><circle class="cls-1" cx="107.12" cy="17.12" r="2"/><circle class="cls-1" cx="112.12" cy="17.12" r="2"/><circle class="cls-1" cx="117.13" cy="17.12" r="2"/><circle class="cls-1" cx="122.13" cy="17.12" r="2"/><circle class="cls-1" cx="127.14" cy="17.12" r="2"/><circle class="cls-1" cx="132.14" cy="17.12" r="2"/><circle class="cls-1" cx="137.15" cy="17.12" r="2"/><circle class="cls-1" cx="142.16" cy="17.12" r="2"/><circle class="cls-1" cx="147.16" cy="17.12" r="2"/><circle class="cls-1" cx="152.17" cy="17.12" r="2"/><circle class="cls-1" cx="157.17" cy="17.12" r="2"/><circle class="cls-1" cx="107.12" cy="22.15" r="2"/><circle class="cls-1" cx="112.12" cy="22.15" r="2"/><circle class="cls-1" cx="117.13" cy="22.15" r="2"/><circle class="cls-1" cx="122.13" cy="22.15" r="2"/><circle class="cls-1" cx="127.14" cy="22.15" r="2"/><circle class="cls-1" cx="132.14" cy="22.15" r="2"/><circle class="cls-1" cx="137.15" cy="22.15" r="2"/><circle class="cls-1" cx="142.16" cy="22.15" r="2"/><circle class="cls-1" cx="147.16" cy="22.15" r="2"/><circle class="cls-1" cx="152.17" cy="22.15" r="2"/><circle class="cls-1" cx="157.17" cy="22.15" r="2"/><circle class="cls-1" cx="107.12" cy="27.19" r="2"/><circle class="cls-1" cx="112.12" cy="27.19" r="2"/><circle class="cls-1" cx="117.13" cy="27.19" r="2"/><circle class="cls-1" cx="122.13" cy="27.19" r="2"/><circle class="cls-1" cx="127.14" cy="27.19" r="2"/><circle class="cls-1" cx="132.14" cy="27.19" r="2"/><circle class="cls-1" cx="137.15" cy="27.19" r="2"/><circle class="cls-1" cx="142.16" cy="27.19" r="2"/><circle class="cls-1" cx="147.16" cy="27.19" r="2"/><circle class="cls-1" cx="152.17" cy="27.19" r="2"/><circle class="cls-1" cx="157.17" cy="27.19" r="2"/><circle class="cls-1" cx="107.12" cy="32.23" r="2"/><circle class="cls-1" cx="112.12" cy="32.23" r="2"/><circle class="cls-1" cx="117.13" cy="32.23" r="2"/><circle class="cls-1" cx="122.13" cy="32.23" r="2"/><circle class="cls-1" cx="127.14" cy="32.23" r="2"/><circle class="cls-1" cx="132.14" cy="32.23" r="2"/><circle class="cls-1" cx="137.15" cy="32.23" r="2"/><circle class="cls-1" cx="142.16" cy="32.23" r="2"/><circle class="cls-1" cx="147.16" cy="32.23" r="2"/><circle class="cls-1" cx="152.17" cy="32.23" r="2"/><circle class="cls-1" cx="157.17" cy="32.23" r="2"/><circle class="cls-1" cx="107.12" cy="37.27" r="2"/><circle class="cls-1" cx="112.12" cy="37.27" r="2"/><circle class="cls-1" cx="117.13" cy="37.27" r="2"/><circle class="cls-1" cx="122.13" cy="37.27" r="2"/><circle class="cls-1" cx="127.14" cy="37.27" r="2"/><circle class="cls-1" cx="132.14" cy="37.27" r="2"/><circle class="cls-1" cx="137.15" cy="37.27" r="2"/><circle class="cls-1" cx="142.16" cy="37.27" r="2"/><circle class="cls-1" cx="147.16" cy="37.27" r="2"/><circle class="cls-1" cx="152.17" cy="37.27" r="2"/><circle class="cls-1" cx="107.12" cy="42.31" r="2"/><circle class="cls-1" cx="112.12" cy="42.31" r="2"/><circle class="cls-1" cx="117.13" cy="42.31" r="2"/><circle class="cls-1" cx="122.13" cy="42.31" r="2"/><circle class="cls-1" cx="127.14" cy="42.31" r="2"/><circle class="cls-1" cx="132.14" cy="42.31" r="2"/><circle class="cls-1" cx="137.15" cy="42.31" r="2"/><circle class="cls-1" cx="142.16" cy="42.31" r="2"/><circle class="cls-1" cx="147.16" cy="42.31" r="2"/><circle class="cls-1" cx="152.17" cy="42.31" r="2"/><circle class="cls-1" cx="102.11" cy="47.35" r="2"/><circle class="cls-1" cx="107.12" cy="47.35" r="2"/><circle class="cls-1" cx="112.12" cy="47.35" r="2"/><circle class="cls-1" cx="117.13" cy="47.35" r="2"/><circle class="cls-1" cx="122.13" cy="47.35" r="2"/><circle class="cls-1" cx="127.14" cy="47.35" r="2"/><circle class="cls-1" cx="132.14" cy="47.35" r="2"/><circle class="cls-1" cx="137.15" cy="47.35" r="2"/><circle class="cls-1" cx="142.16" cy="47.35" r="2"/><circle class="cls-1" cx="147.16" cy="47.35" r="2"/><circle class="cls-1" cx="152.17" cy="47.35" r="2"/><circle class="cls-1" cx="102.11" cy="52.38" r="2"/><circle class="cls-1" cx="107.12" cy="52.38" r="2"/><circle class="cls-1" cx="112.12" cy="52.38" r="2"/><circle class="cls-1" cx="117.13" cy="52.38" r="2"/><circle class="cls-1" cx="122.13" cy="52.38" r="2"/><circle class="cls-1" cx="127.14" cy="52.38" r="2"/><circle class="cls-1" cx="132.14" cy="52.38" r="2"/><circle class="cls-1" cx="137.15" cy="52.38" r="2"/><circle class="cls-1" cx="142.16" cy="52.38" r="2"/><circle class="cls-1" cx="147.16" cy="52.38" r="2"/><circle class="cls-1" cx="152.17" cy="52.38" r="2"/><circle class="cls-1" cx="102.11" cy="57.42" r="2"/><circle class="cls-1" cx="107.12" cy="57.42" r="2"/><circle class="cls-1" cx="112.12" cy="57.42" r="2"/><circle class="cls-1" cx="117.13" cy="57.42" r="2"/><circle class="cls-1" cx="122.13" cy="57.42" r="2"/><circle class="cls-1" cx="127.14" cy="57.42" r="2"/><circle class="cls-1" cx="132.14" cy="57.42" r="2"/><circle class="cls-1" cx="137.15" cy="57.42" r="2"/><circle class="cls-1" cx="142.16" cy="57.42" r="2"/><circle class="cls-1" cx="147.16" cy="57.42" r="2"/><circle class="cls-1" cx="152.17" cy="57.42" r="2"/><circle class="cls-1" cx="102.11" cy="62.46" r="2"/><circle class="cls-1" cx="107.12" cy="62.46" r="2"/><circle class="cls-1" cx="112.12" cy="62.46" r="2"/><circle class="cls-1" cx="117.13" cy="62.46" r="2"/><circle class="cls-1" cx="122.13" cy="62.46" r="2"/><circle class="cls-1" cx="127.14" cy="62.46" r="2"/><circle class="cls-1" cx="132.14" cy="62.46" r="2"/><circle class="cls-1" cx="137.15" cy="62.46" r="2"/><circle class="cls-1" cx="142.16" cy="62.46" r="2"/><circle class="cls-1" cx="147.16" cy="62.46" r="2"/><circle class="cls-1" cx="152.17" cy="62.46" r="2"/><circle class="cls-1" cx="102.11" cy="67.5" r="2"/><circle class="cls-1" cx="107.12" cy="67.5" r="2"/><circle class="cls-1" cx="112.12" cy="67.5" r="2"/><circle class="cls-1" cx="117.13" cy="67.5" r="2"/><circle class="cls-1" cx="122.13" cy="67.5" r="2"/><circle class="cls-1" cx="127.14" cy="67.5" r="2"/><circle class="cls-1" cx="132.14" cy="67.5" r="2"/><circle class="cls-1" cx="137.15" cy="67.5" r="2"/><circle class="cls-1" cx="142.16" cy="67.5" r="2"/><circle class="cls-1" cx="147.16" cy="67.5" r="2"/><circle class="cls-1" cx="152.17" cy="67.5" r="2"/><circle class="cls-1" cx="102.11" cy="72.54" r="2"/><circle class="cls-1" cx="107.12" cy="72.54" r="2"/><circle class="cls-1" cx="112.12" cy="72.54" r="2"/><circle class="cls-1" cx="117.13" cy="72.54" r="2"/><circle class="cls-1" cx="122.13" cy="72.54" r="2"/><circle class="cls-1" cx="127.14" cy="72.54" r="2"/><circle class="cls-1" cx="132.14" cy="72.54" r="2"/><circle class="cls-1" cx="137.15" cy="72.54" r="2"/><circle class="cls-1" cx="142.16" cy="72.54" r="2"/><circle class="cls-1" cx="147.16" cy="72.54" r="2"/><circle class="cls-1" cx="152.17" cy="72.54" r="2"/><circle class="cls-1" cx="102.11" cy="77.58" r="2"/><circle class="cls-1" cx="107.12" cy="77.58" r="2"/><circle class="cls-1" cx="112.12" cy="77.58" r="2"/><circle class="cls-1" cx="117.13" cy="77.58" r="2"/><circle class="cls-1" cx="122.13" cy="77.58" r="2"/><circle class="cls-1" cx="127.14" cy="77.58" r="2"/><circle class="cls-1" cx="132.14" cy="77.58" r="2"/><circle class="cls-1" cx="137.15" cy="77.58" r="2"/><circle class="cls-1" cx="142.16" cy="77.58" r="2"/><circle class="cls-1" cx="147.16" cy="77.58" r="2"/><circle class="cls-1" cx="152.17" cy="77.58" r="2"/><circle class="cls-1" cx="102.11" cy="82.62" r="2"/><circle class="cls-1" cx="107.12" cy="82.62" r="2"/><circle class="cls-1" cx="112.12" cy="82.62" r="2"/><circle class="cls-1" cx="117.13" cy="82.62" r="2"/><circle class="cls-1" cx="122.13" cy="82.62" r="2"/><circle class="cls-1" cx="127.14" cy="82.62" r="2"/><circle class="cls-1" cx="132.14" cy="82.62" r="2"/><circle class="cls-1" cx="137.15" cy="82.62" r="2"/><circle class="cls-1" cx="142.16" cy="82.62" r="2"/><circle class="cls-1" cx="147.16" cy="82.62" r="2"/><circle class="cls-1" cx="152.17" cy="82.62" r="2"/><circle class="cls-1" cx="102.11" cy="87.65" r="2"/><circle class="cls-1" cx="107.12" cy="87.65" r="2"/><circle class="cls-1" cx="112.12" cy="87.65" r="2"/><circle class="cls-1" cx="117.13" cy="87.65" r="2"/><circle class="cls-1" cx="122.13" cy="87.65" r="2"/><circle class="cls-1" cx="127.14" cy="87.65" r="2"/><circle class="cls-1" cx="132.14" cy="87.65" r="2"/><circle class="cls-1" cx="137.15" cy="87.65" r="2"/><circle class="cls-1" cx="142.16" cy="87.65" r="2"/><circle class="cls-1" cx="147.16" cy="87.65" r="2"/><circle class="cls-1" cx="152.17" cy="87.65" r="2"/><circle class="cls-1" cx="102.11" cy="92.69" r="2"/><circle class="cls-1" cx="107.12" cy="92.69" r="2"/><circle class="cls-1" cx="112.12" cy="92.69" r="2"/><circle class="cls-1" cx="117.13" cy="92.69" r="2"/><circle class="cls-1" cx="122.13" cy="92.69" r="2"/><circle class="cls-1" cx="127.14" cy="92.69" r="2"/><circle class="cls-1" cx="132.14" cy="92.69" r="2"/><circle class="cls-1" cx="137.15" cy="92.69" r="2"/><circle class="cls-1" cx="142.16" cy="92.69" r="2"/><circle class="cls-1" cx="147.16" cy="92.69" r="2"/><circle class="cls-1" cx="152.17" cy="92.69" r="2"/><circle class="cls-1" cx="102.11" cy="97.73" r="2"/><circle class="cls-1" cx="107.12" cy="97.73" r="2"/><circle class="cls-1" cx="112.12" cy="97.73" r="2"/><circle class="cls-1" cx="117.13" cy="97.73" r="2"/><circle class="cls-1" cx="122.13" cy="97.73" r="2"/><circle class="cls-1" cx="127.14" cy="97.73" r="2"/><circle class="cls-1" cx="132.14" cy="97.73" r="2"/><circle class="cls-1" cx="137.15" cy="97.73" r="2"/><circle class="cls-1" cx="142.16" cy="97.73" r="2"/><circle class="cls-1" cx="147.16" cy="97.73" r="2"/><circle class="cls-1" cx="152.17" cy="97.73" r="2"/><circle class="cls-1" cx="102.11" cy="102.77" r="2"/><circle class="cls-1" cx="107.12" cy="102.77" r="2"/><circle class="cls-1" cx="112.12" cy="102.77" r="2"/><circle class="cls-1" cx="117.13" cy="102.77" r="2"/><circle class="cls-1" cx="122.13" cy="102.77" r="2"/><circle class="cls-1" cx="127.14" cy="102.77" r="2"/><circle class="cls-1" cx="132.14" cy="102.77" r="2"/><circle class="cls-1" cx="137.15" cy="102.77" r="2"/><circle class="cls-1" cx="142.16" cy="102.77" r="2"/><circle class="cls-1" cx="147.16" cy="102.77" r="2"/><circle class="cls-1" cx="152.17" cy="102.77" r="2"/><circle class="cls-1" cx="102.11" cy="107.81" r="2"/><circle class="cls-1" cx="107.12" cy="107.81" r="2"/><circle class="cls-1" cx="112.12" cy="107.81" r="2"/><circle class="cls-1" cx="117.13" cy="107.81" r="2"/><circle class="cls-1" cx="122.13" cy="107.81" r="2"/><circle class="cls-1" cx="127.14" cy="107.81" r="2"/><circle class="cls-1" cx="132.14" cy="107.81" r="2"/><circle class="cls-1" cx="137.15" cy="107.81" r="2"/><circle class="cls-1" cx="142.16" cy="107.81" r="2"/><circle class="cls-1" cx="147.16" cy="107.81" r="2"/><circle class="cls-1" cx="152.17" cy="107.81" r="2"/><circle class="cls-1" cx="102.11" cy="112.85" r="2"/><circle class="cls-1" cx="107.12" cy="112.85" r="2"/><circle class="cls-1" cx="112.12" cy="112.85" r="2"/><circle class="cls-1" cx="117.13" cy="112.85" r="2"/><circle class="cls-1" cx="122.13" cy="112.85" r="2"/><circle class="cls-1" cx="127.14" cy="112.85" r="2"/><circle class="cls-1" cx="132.14" cy="112.85" r="2"/><circle class="cls-1" cx="137.15" cy="112.85" r="2"/><circle class="cls-1" cx="142.16" cy="112.85" r="2"/><circle class="cls-1" cx="147.16" cy="112.85" r="2"/><circle class="cls-1" cx="152.17" cy="112.85" r="2"/><circle class="cls-1" cx="102.11" cy="117.88" r="2"/><circle class="cls-1" cx="107.12" cy="117.88" r="2"/><circle class="cls-1" cx="112.12" cy="117.88" r="2"/><circle class="cls-1" cx="117.13" cy="117.88" r="2"/><circle class="cls-1" cx="122.13" cy="117.88" r="2"/><circle class="cls-1" cx="127.14" cy="117.88" r="2"/><circle class="cls-1" cx="132.14" cy="117.88" r="2"/><circle class="cls-1" cx="137.15" cy="117.88" r="2"/><circle class="cls-1" cx="142.16" cy="117.88" r="2"/><circle class="cls-1" cx="147.16" cy="117.88" r="2"/><circle class="cls-1" cx="152.17" cy="117.88" r="2"/><circle class="cls-1" cx="102.11" cy="122.92" r="2"/><circle class="cls-1" cx="107.12" cy="122.92" r="2"/><circle class="cls-1" cx="112.12" cy="122.92" r="2"/><circle class="cls-1" cx="117.13" cy="122.92" r="2"/><circle class="cls-1" cx="122.13" cy="122.92" r="2"/><circle class="cls-1" cx="127.14" cy="122.92" r="2"/><circle class="cls-1" cx="132.14" cy="122.92" r="2"/><circle class="cls-1" cx="137.15" cy="122.92" r="2"/><circle class="cls-1" cx="142.16" cy="122.92" r="2"/><circle class="cls-1" cx="147.16" cy="122.92" r="2"/><circle class="cls-1" cx="152.17" cy="122.92" r="2"/><circle class="cls-1" cx="102.11" cy="127.96" r="2"/><circle class="cls-1" cx="107.12" cy="127.96" r="2"/><circle class="cls-1" cx="112.12" cy="127.96" r="2"/><circle class="cls-1" cx="117.13" cy="127.96" r="2"/><circle class="cls-1" cx="122.13" cy="127.96" r="2"/><circle class="cls-1" cx="127.14" cy="127.96" r="2"/><circle class="cls-1" cx="132.14" cy="127.96" r="2"/><circle class="cls-1" cx="137.15" cy="127.96" r="2"/><circle class="cls-1" cx="142.16" cy="127.96" r="2"/><circle class="cls-1" cx="147.16" cy="127.96" r="2"/><circle class="cls-1" cx="152.17" cy="127.96" r="2"/><circle class="cls-1" cx="102.11" cy="133" r="2"/><circle class="cls-1" cx="107.12" cy="133" r="2"/><circle class="cls-1" cx="112.12" cy="133" r="2"/><circle class="cls-1" cx="117.13" cy="133" r="2"/><circle class="cls-1" cx="122.13" cy="133" r="2"/><circle class="cls-1" cx="127.14" cy="133" r="2"/><circle class="cls-1" cx="132.14" cy="133" r="2"/><circle class="cls-1" cx="137.15" cy="133" r="2"/><circle class="cls-1" cx="142.16" cy="133" r="2"/><circle class="cls-1" cx="147.16" cy="133" r="2"/><circle class="cls-1" cx="152.17" cy="133" r="2"/><circle class="cls-1" cx="162.18" cy="2" r="2"/><circle class="cls-1" cx="167.18" cy="2" r="2"/><circle class="cls-1" cx="162.18" cy="7.04" r="2"/><circle class="cls-1" cx="167.18" cy="7.04" r="2"/><circle class="cls-1" cx="162.18" cy="12.08" r="2"/><circle class="cls-1" cx="167.18" cy="12.08" r="2"/><circle class="cls-1" cx="162.18" cy="17.12" r="2"/><circle class="cls-1" cx="167.18" cy="17.12" r="2"/><circle class="cls-1" cx="162.18" cy="22.15" r="2"/><circle class="cls-1" cx="167.18" cy="22.15" r="2"/><circle class="cls-1" cx="162.18" cy="27.19" r="2"/><circle class="cls-1" cx="167.18" cy="27.19" r="2"/><circle class="cls-1" cx="162.18" cy="32.23" r="2"/><circle class="cls-1" cx="167.18" cy="32.23" r="2"/><circle class="cls-1" cx="162.18" cy="37.27" r="2"/><circle class="cls-1" cx="167.18" cy="37.27" r="2"/><circle class="cls-1" cx="162.18" cy="42.31" r="2"/><circle class="cls-1" cx="167.18" cy="42.31" r="2"/><circle class="cls-1" cx="162.18" cy="47.35" r="2"/><circle class="cls-1" cx="167.18" cy="47.35" r="2"/><circle class="cls-1" cx="157.17" cy="52.38" r="2"/><circle class="cls-1" cx="162.18" cy="52.38" r="2"/><circle class="cls-1" cx="167.18" cy="52.38" r="2"/><circle class="cls-1" cx="157.17" cy="57.42" r="2"/><circle class="cls-1" cx="162.18" cy="57.42" r="2"/><circle class="cls-1" cx="167.18" cy="57.42" r="2"/><circle class="cls-1" cx="157.17" cy="62.46" r="2"/><circle class="cls-1" cx="162.18" cy="62.46" r="2"/><circle class="cls-1" cx="167.18" cy="62.46" r="2"/><circle class="cls-1" cx="157.17" cy="67.5" r="2"/><circle class="cls-1" cx="162.18" cy="67.5" r="2"/><circle class="cls-1" cx="167.18" cy="67.5" r="2"/><circle class="cls-1" cx="157.17" cy="72.54" r="2"/><circle class="cls-1" cx="162.18" cy="72.54" r="2"/><circle class="cls-1" cx="167.18" cy="72.54" r="2"/><circle class="cls-1" cx="157.17" cy="77.58" r="2"/><circle class="cls-1" cx="162.18" cy="77.58" r="2"/><circle class="cls-1" cx="167.18" cy="77.58" r="2"/><circle class="cls-1" cx="157.17" cy="82.62" r="2"/><circle class="cls-1" cx="162.18" cy="82.62" r="2"/><circle class="cls-1" cx="167.18" cy="82.62" r="2"/><circle class="cls-1" cx="157.17" cy="87.65" r="2"/><circle class="cls-1" cx="162.18" cy="87.65" r="2"/><circle class="cls-1" cx="157.17" cy="92.69" r="2"/><circle class="cls-1" cx="162.18" cy="92.69" r="2"/><circle class="cls-1" cx="157.17" cy="97.73" r="2"/><circle class="cls-1" cx="162.18" cy="97.73" r="2"/><circle class="cls-1" cx="157.17" cy="102.77" r="2"/><circle class="cls-1" cx="162.18" cy="102.77" r="2"/><circle class="cls-1" cx="157.17" cy="107.81" r="2"/><circle class="cls-1" cx="162.18" cy="107.81" r="2"/><circle class="cls-1" cx="157.17" cy="112.85" r="2"/><circle class="cls-1" cx="162.18" cy="112.85" r="2"/><circle class="cls-1" cx="157.17" cy="117.88" r="2"/><circle class="cls-1" cx="162.18" cy="117.88" r="2"/><circle class="cls-1" cx="157.17" cy="122.92" r="2"/><circle class="cls-1" cx="162.18" cy="122.92" r="2"/><circle class="cls-1" cx="157.17" cy="127.96" r="2"/><circle class="cls-1" cx="162.18" cy="127.96" r="2"/><circle class="cls-1" cx="157.17" cy="133" r="2"/><circle class="cls-1" cx="162.18" cy="133" r="2"/><circle class="cls-1" cx="157.17" cy="37.27" r="2"/><circle class="cls-1" cx="157.17" cy="42.31" r="2"/><circle class="cls-1" cx="157.17" cy="47.35" r="2"/></g></g></svg>