<svg xmlns="http://www.w3.org/2000/svg" viewBox="0 0 44.04 135"><defs><style>.cls-1{fill:#00b6c9;}</style></defs><title>1A FP type3</title><g id="Layer_2" data-name="Layer 2"><g id="source"><circle class="cls-1" cx="42.04" cy="42.31" r="2"/><circle class="cls-1" cx="32.03" cy="2" r="2"/><circle class="cls-1" cx="37.04" cy="2" r="2"/><circle class="cls-1" cx="42.04" cy="2" r="2"/><circle class="cls-1" cx="32.03" cy="7.04" r="2"/><circle class="cls-1" cx="37.04" cy="7.04" r="2"/><circle class="cls-1" cx="42.04" cy="7.04" r="2"/><circle class="cls-1" cx="32.03" cy="12.08" r="2"/><circle class="cls-1" cx="37.04" cy="12.08" r="2"/><circle class="cls-1" cx="42.04" cy="12.08" r="2"/><circle class="cls-1" cx="32.03" cy="17.12" r="2"/><circle class="cls-1" cx="37.04" cy="17.12" r="2"/><circle class="cls-1" cx="42.04" cy="17.12" r="2"/><circle class="cls-1" cx="32.03" cy="22.15" r="2"/><circle class="cls-1" cx="37.04" cy="22.15" r="2"/><circle class="cls-1" cx="42.04" cy="22.15" r="2"/><circle class="cls-1" cx="32.03" cy="27.19" r="2"/><circle class="cls-1" cx="37.04" cy="27.19" r="2"/><circle class="cls-1" cx="42.04" cy="27.19" r="2"/><circle class="cls-1" cx="32.03" cy="32.23" r="2"/><circle class="cls-1" cx="37.04" cy="32.23" r="2"/><circle class="cls-1" cx="42.04" cy="32.23" r="2"/><circle class="cls-1" cx="32.03" cy="37.27" r="2"/><circle class="cls-1" cx="37.04" cy="37.27" r="2"/><circle class="cls-1" cx="42.04" cy="37.27" r="2"/><circle class="cls-1" cx="27.03" cy="42.31" r="2"/><circle class="cls-1" cx="32.03" cy="42.31" r="2"/><circle class="cls-1" cx="37.04" cy="42.31" r="2"/><circle class="cls-1" cx="27.03" cy="47.35" r="2"/><circle class="cls-1" cx="32.03" cy="47.35" r="2"/><circle class="cls-1" cx="37.04" cy="47.35" r="2"/><circle class="cls-1" cx="27.03" cy="52.38" r="2"/><circle class="cls-1" cx="32.03" cy="52.38" r="2"/><circle class="cls-1" cx="37.04" cy="52.38" r="2"/><circle class="cls-1" cx="27.03" cy="57.42" r="2"/><circle class="cls-1" cx="32.03" cy="57.42" r="2"/><circle class="cls-1" cx="37.04" cy="57.42" r="2"/><circle class="cls-1" cx="27.03" cy="62.46" r="2"/><circle class="cls-1" cx="32.03" cy="62.46" r="2"/><circle class="cls-1" cx="37.04" cy="62.46" r="2"/><circle class="cls-1" cx="27.03" cy="67.5" r="2"/><circle class="cls-1" cx="32.03" cy="67.5" r="2"/><circle class="cls-1" cx="37.04" cy="67.5" r="2"/><circle class="cls-1" cx="27.03" cy="72.54" r="2"/><circle class="cls-1" cx="32.03" cy="72.54" r="2"/><circle class="cls-1" cx="37.04" cy="72.54" r="2"/><circle class="cls-1" cx="27.03" cy="77.58" r="2"/><circle class="cls-1" cx="32.03" cy="77.58" r="2"/><circle class="cls-1" cx="37.04" cy="77.58" r="2"/><circle class="cls-1" cx="27.03" cy="82.62" r="2"/><circle class="cls-1" cx="32.03" cy="82.62" r="2"/><circle class="cls-1" cx="37.04" cy="82.62" r="2"/><circle class="cls-1" cx="27.03" cy="87.65" r="2"/><circle class="cls-1" cx="32.03" cy="87.65" r="2"/><circle class="cls-1" cx="37.04" cy="87.65" r="2"/><circle class="cls-1" cx="27.03" cy="92.69" r="2"/><circle class="cls-1" cx="32.03" cy="92.69" r="2"/><circle class="cls-1" cx="37.04" cy="92.69" r="2"/><circle class="cls-1" cx="27.03" cy="97.73" r="2"/><circle class="cls-1" cx="32.03" cy="97.73" r="2"/><circle class="cls-1" cx="37.04" cy="97.73" r="2"/><circle class="cls-1" cx="27.03" cy="102.77" r="2"/><circle class="cls-1" cx="32.03" cy="102.77" r="2"/><circle class="cls-1" cx="37.04" cy="102.77" r="2"/><circle class="cls-1" cx="27.03" cy="107.81" r="2"/><circle class="cls-1" cx="32.03" cy="107.81" r="2"/><circle class="cls-1" cx="37.04" cy="107.81" r="2"/><circle class="cls-1" cx="27.03" cy="112.85" r="2"/><circle class="cls-1" cx="32.03" cy="112.85" r="2"/><circle class="cls-1" cx="37.04" cy="112.85" r="2"/><circle class="cls-1" cx="27.03" cy="117.88" r="2"/><circle class="cls-1" cx="32.03" cy="117.88" r="2"/><circle class="cls-1" cx="37.04" cy="117.88" r="2"/><circle class="cls-1" cx="27.03" cy="122.92" r="2"/><circle class="cls-1" cx="32.03" cy="122.92" r="2"/><circle class="cls-1" cx="37.04" cy="122.92" r="2"/><circle class="cls-1" cx="27.03" cy="127.96" r="2"/><circle class="cls-1" cx="32.03" cy="127.96" r="2"/><circle class="cls-1" cx="37.04" cy="127.96" r="2"/><circle class="cls-1" cx="27.03" cy="133" r="2"/><circle class="cls-1" cx="32.03" cy="133" r="2"/><circle class="cls-1" cx="37.04" cy="133" r="2"/><circle class="cls-1" cx="27.03" cy="2" r="2"/><circle class="cls-1" cx="22.02" cy="2" r="2"/><circle class="cls-1" cx="27.03" cy="7.04" r="2"/><circle class="cls-1" cx="22.02" cy="7.04" r="2"/><circle class="cls-1" cx="27.03" cy="12.08" r="2"/><circle class="cls-1" cx="22.02" cy="12.08" r="2"/><circle class="cls-1" cx="22.02" cy="17.12" r="2"/><circle class="cls-1" cx="27.03" cy="17.12" r="2"/><circle class="cls-1" cx="22.02" cy="22.15" r="2"/><circle class="cls-1" cx="27.03" cy="22.15" r="2"/><circle class="cls-1" cx="22.02" cy="27.19" r="2"/><circle class="cls-1" cx="27.03" cy="27.19" r="2"/><circle class="cls-1" cx="22.02" cy="32.23" r="2"/><circle class="cls-1" cx="27.03" cy="32.23" r="2"/><circle class="cls-1" cx="22.02" cy="37.27" r="2"/><circle class="cls-1" cx="27.03" cy="37.27" r="2"/><circle class="cls-1" cx="22.02" cy="42.31" r="2"/><circle class="cls-1" cx="22.02" cy="47.35" r="2"/><circle class="cls-1" cx="22.02" cy="52.38" r="2"/><circle class="cls-1" cx="22.02" cy="57.42" r="2"/><circle class="cls-1" cx="22.02" cy="62.46" r="2"/><circle class="cls-1" cx="22.02" cy="67.5" r="2"/><circle class="cls-1" cx="22.02" cy="72.54" r="2"/><circle class="cls-1" cx="22.02" cy="77.58" r="2"/><circle class="cls-1" cx="22.02" cy="82.62" r="2"/><circle class="cls-1" cx="22.02" cy="87.65" r="2"/><circle class="cls-1" cx="22.02" cy="92.69" r="2"/><circle class="cls-1" cx="22.02" cy="97.73" r="2"/><circle class="cls-1" cx="22.02" cy="102.77" r="2"/><circle class="cls-1" cx="22.02" cy="107.81" r="2"/><circle class="cls-1" cx="22.02" cy="112.85" r="2"/><circle class="cls-1" cx="22.02" cy="117.88" r="2"/><circle class="cls-1" cx="22.02" cy="122.92" r="2"/><circle class="cls-1" cx="22.02" cy="127.96" r="2"/><circle class="cls-1" cx="22.02" cy="133" r="2"/><circle class="cls-1" cx="17.02" cy="122.92" r="2"/><circle class="cls-1" cx="17.02" cy="127.96" r="2"/><circle class="cls-1" cx="17.02" cy="133" r="2"/><circle class="cls-1" cx="12.01" cy="2" r="2"/><circle class="cls-1" cx="17.02" cy="2" r="2"/><circle class="cls-1" cx="12.01" cy="7.04" r="2"/><circle class="cls-1" cx="17.02" cy="7.04" r="2"/><circle class="cls-1" cx="12.01" cy="12.08" r="2"/><circle class="cls-1" cx="17.02" cy="12.08" r="2"/><circle class="cls-1" cx="12.01" cy="17.12" r="2"/><circle class="cls-1" cx="17.02" cy="17.12" r="2"/><circle class="cls-1" cx="12.01" cy="22.15" r="2"/><circle class="cls-1" cx="17.02" cy="22.15" r="2"/><circle class="cls-1" cx="12.01" cy="27.19" r="2"/><circle class="cls-1" cx="17.02" cy="27.19" r="2"/><circle class="cls-1" cx="12.01" cy="32.23" r="2"/><circle class="cls-1" cx="17.02" cy="32.23" r="2"/><circle class="cls-1" cx="7.01" cy="37.27" r="2"/><circle class="cls-1" cx="12.01" cy="37.27" r="2"/><circle class="cls-1" cx="17.02" cy="37.27" r="2"/><circle class="cls-1" cx="7.01" cy="42.31" r="2"/><circle class="cls-1" cx="12.01" cy="42.31" r="2"/><circle class="cls-1" cx="17.02" cy="42.31" r="2"/><circle class="cls-1" cx="7.01" cy="47.35" r="2"/><circle class="cls-1" cx="12.01" cy="47.35" r="2"/><circle class="cls-1" cx="17.02" cy="47.35" r="2"/><circle class="cls-1" cx="7.01" cy="52.38" r="2"/><circle class="cls-1" cx="12.01" cy="52.38" r="2"/><circle class="cls-1" cx="17.02" cy="52.38" r="2"/><circle class="cls-1" cx="7.01" cy="57.42" r="2"/><circle class="cls-1" cx="12.01" cy="57.42" r="2"/><circle class="cls-1" cx="17.02" cy="57.42" r="2"/><circle class="cls-1" cx="7.01" cy="62.46" r="2"/><circle class="cls-1" cx="12.01" cy="62.46" r="2"/><circle class="cls-1" cx="17.02" cy="62.46" r="2"/><circle class="cls-1" cx="7.01" cy="67.5" r="2"/><circle class="cls-1" cx="12.01" cy="67.5" r="2"/><circle class="cls-1" cx="17.02" cy="67.5" r="2"/><circle class="cls-1" cx="7.01" cy="72.54" r="2"/><circle class="cls-1" cx="12.01" cy="72.54" r="2"/><circle class="cls-1" cx="17.02" cy="72.54" r="2"/><circle class="cls-1" cx="7.01" cy="77.58" r="2"/><circle class="cls-1" cx="12.01" cy="77.58" r="2"/><circle class="cls-1" cx="17.02" cy="77.58" r="2"/><circle class="cls-1" cx="7.01" cy="82.62" r="2"/><circle class="cls-1" cx="12.01" cy="82.62" r="2"/><circle class="cls-1" cx="17.02" cy="82.62" r="2"/><circle class="cls-1" cx="7.01" cy="87.65" r="2"/><circle class="cls-1" cx="12.01" cy="87.65" r="2"/><circle class="cls-1" cx="17.02" cy="87.65" r="2"/><circle class="cls-1" cx="7.01" cy="92.69" r="2"/><circle class="cls-1" cx="12.01" cy="92.69" r="2"/><circle class="cls-1" cx="17.02" cy="92.69" r="2"/><circle class="cls-1" cx="7.01" cy="97.73" r="2"/><circle class="cls-1" cx="12.01" cy="97.73" r="2"/><circle class="cls-1" cx="17.02" cy="97.73" r="2"/><circle class="cls-1" cx="7.01" cy="102.77" r="2"/><circle class="cls-1" cx="12.01" cy="102.77" r="2"/><circle class="cls-1" cx="17.02" cy="102.77" r="2"/><circle class="cls-1" cx="7.01" cy="107.81" r="2"/><circle class="cls-1" cx="12.01" cy="107.81" r="2"/><circle class="cls-1" cx="17.02" cy="107.81" r="2"/><circle class="cls-1" cx="7.01" cy="112.85" r="2"/><circle class="cls-1" cx="12.01" cy="112.85" r="2"/><circle class="cls-1" cx="17.02" cy="112.85" r="2"/><circle class="cls-1" cx="7.01" cy="117.88" r="2"/><circle class="cls-1" cx="12.01" cy="117.88" r="2"/><circle class="cls-1" cx="17.02" cy="117.88" r="2"/><circle class="cls-1" cx="7.01" cy="122.92" r="2"/><circle class="cls-1" cx="12.01" cy="122.92" r="2"/><circle class="cls-1" cx="7.01" cy="127.96" r="2"/><circle class="cls-1" cx="12.01" cy="127.96" r="2"/><circle class="cls-1" cx="7.01" cy="133" r="2"/><circle class="cls-1" cx="12.01" cy="133" r="2"/><circle class="cls-1" cx="7.01" cy="32.23" r="2"/><circle class="cls-1" cx="7.01" cy="2" r="2"/><circle class="cls-1" cx="7.01" cy="7.04" r="2"/><circle class="cls-1" cx="7.01" cy="12.08" r="2"/><circle class="cls-1" cx="7.01" cy="17.12" r="2"/><circle class="cls-1" cx="7.01" cy="22.15" r="2"/><circle class="cls-1" cx="7.01" cy="27.19" r="2"/><circle class="cls-1" cx="2" cy="92.69" r="2"/><circle class="cls-1" cx="2" cy="97.73" r="2"/><circle class="cls-1" cx="2" cy="102.77" r="2"/><circle class="cls-1" cx="2" cy="107.81" r="2"/><circle class="cls-1" cx="2" cy="112.85" r="2"/><circle class="cls-1" cx="2" cy="117.88" r="2"/><circle class="cls-1" cx="2" cy="122.92" r="2"/><circle class="cls-1" cx="2" cy="127.96" r="2"/><circle class="cls-1" cx="2" cy="133" r="2"/></g></g></svg>