<svg xmlns="http://www.w3.org/2000/svg" viewBox="0 0 1366 469.24"><defs><style>.a,.f{fill:none;}.b{fill:#ea522b;}.b,.c,.d{fill-rule:evenodd;}.c{fill:#f57f29;}.d,.e{fill:#fdb515;}.f{stroke:#b3b3b3;stroke-miterlimit:1.5;stroke-width:0.49px;}</style></defs><rect class="a" x="-567.76" y="-2891.87" width="3003.11" height="12095.86"/><path class="b" d="M11,305.53A10.43,10.43,0,1,1,.54,316,10.43,10.43,0,0,1,11,305.53Zm31.28,0A10.43,10.43,0,1,1,31.82,316,10.43,10.43,0,0,1,42.25,305.53Zm31.28,0A10.43,10.43,0,1,1,63.11,316,10.43,10.43,0,0,1,73.53,305.53Zm31.29,0A10.43,10.43,0,1,1,94.39,316,10.43,10.43,0,0,1,104.82,305.53Zm31.28,0A10.43,10.43,0,1,1,125.67,316,10.43,10.43,0,0,1,136.1,305.53Zm31.28,0A10.43,10.43,0,1,1,157,316,10.43,10.43,0,0,1,167.38,305.53ZM11,274.24A10.43,10.43,0,1,1,.54,284.67,10.44,10.44,0,0,1,11,274.24Zm31.28,0a10.43,10.43,0,1,1-10.43,10.43A10.44,10.44,0,0,1,42.25,274.24Zm31.28,0a10.43,10.43,0,1,1-10.42,10.43A10.44,10.44,0,0,1,73.53,274.24Zm31.29,0a10.43,10.43,0,1,1-10.43,10.43A10.43,10.43,0,0,1,104.82,274.24Zm31.28,0a10.43,10.43,0,1,1-10.43,10.43A10.44,10.44,0,0,1,136.1,274.24Zm31.28,0A10.43,10.43,0,1,1,157,284.67,10.44,10.44,0,0,1,167.38,274.24ZM11,243A10.43,10.43,0,1,1,.54,253.39,10.43,10.43,0,0,1,11,243Zm31.28,0a10.43,10.43,0,1,1-10.43,10.43A10.43,10.43,0,0,1,42.25,243Zm31.28,0a10.43,10.43,0,1,1-10.42,10.43A10.43,10.43,0,0,1,73.53,243Zm31.29,0a10.43,10.43,0,1,1-10.43,10.43A10.43,10.43,0,0,1,104.82,243Zm31.28,0a10.43,10.43,0,1,1-10.43,10.43A10.43,10.43,0,0,1,136.1,243Z"/><path class="c" d="M302.94,305.53A10.43,10.43,0,1,1,292.51,316,10.43,10.43,0,0,1,302.94,305.53Zm31.28,0A10.43,10.43,0,1,1,323.79,316,10.43,10.43,0,0,1,334.22,305.53Zm31.28,0A10.43,10.43,0,1,1,355.08,316,10.43,10.43,0,0,1,365.5,305.53Zm31.29,0A10.43,10.43,0,1,1,386.36,316,10.43,10.43,0,0,1,396.79,305.53Zm-156.42,0A10.43,10.43,0,1,1,230,316,10.43,10.43,0,0,1,240.37,305.53Zm31.29,0A10.43,10.43,0,1,1,261.23,316,10.43,10.43,0,0,1,271.66,305.53Zm31.28-31.29a10.43,10.43,0,1,1-10.43,10.43A10.44,10.44,0,0,1,302.94,274.24Zm31.28,0a10.43,10.43,0,1,1-10.43,10.43A10.44,10.44,0,0,1,334.22,274.24Zm31.28,0a10.43,10.43,0,1,1-10.42,10.43A10.44,10.44,0,0,1,365.5,274.24Zm31.29,0a10.43,10.43,0,1,1-10.43,10.43A10.43,10.43,0,0,1,396.79,274.24Zm-125.13,0a10.43,10.43,0,1,1-10.43,10.43A10.43,10.43,0,0,1,271.66,274.24Z"/><path class="d" d="M438.5,305.53A10.43,10.43,0,1,1,428.07,316,10.43,10.43,0,0,1,438.5,305.53Zm31.28,0A10.43,10.43,0,1,1,459.35,316,10.43,10.43,0,0,1,469.78,305.53Zm31.28,0A10.43,10.43,0,1,1,490.63,316,10.43,10.43,0,0,1,501.06,305.53Zm31.28,0A10.43,10.43,0,1,1,521.92,316,10.43,10.43,0,0,1,532.34,305.53Zm62.57,0A10.43,10.43,0,1,1,584.48,316,10.43,10.43,0,0,1,594.91,305.53Zm-31.28,0A10.43,10.43,0,1,1,553.2,316,10.43,10.43,0,0,1,563.63,305.53ZM438.5,274.24a10.43,10.43,0,1,1-10.43,10.43A10.43,10.43,0,0,1,438.5,274.24Zm31.28,0a10.43,10.43,0,1,1-10.43,10.43A10.44,10.44,0,0,1,469.78,274.24Zm31.28,0a10.43,10.43,0,1,1-10.43,10.43A10.44,10.44,0,0,1,501.06,274.24Zm31.28,0a10.43,10.43,0,1,1-10.42,10.43A10.44,10.44,0,0,1,532.34,274.24Zm31.29,0a10.43,10.43,0,1,1-10.43,10.43A10.43,10.43,0,0,1,563.63,274.24Zm31.28,0a10.43,10.43,0,1,1-10.43,10.43A10.44,10.44,0,0,1,594.91,274.24ZM438.5,243a10.43,10.43,0,1,1-10.43,10.43A10.43,10.43,0,0,1,438.5,243Zm31.28,0a10.43,10.43,0,1,1-10.43,10.43A10.44,10.44,0,0,1,469.78,243Zm31.28,0a10.43,10.43,0,1,1-10.43,10.43A10.43,10.43,0,0,1,501.06,243Zm31.28,0a10.43,10.43,0,1,1-10.42,10.43A10.43,10.43,0,0,1,532.34,243Zm62.57,0a10.43,10.43,0,1,1-10.43,10.43A10.44,10.44,0,0,1,594.91,243Zm-31.28,0a10.43,10.43,0,1,1-10.43,10.43A10.43,10.43,0,0,1,563.63,243ZM438.5,211.68a10.43,10.43,0,1,1-10.43,10.43A10.43,10.43,0,0,1,438.5,211.68Zm31.28,0a10.43,10.43,0,1,1-10.43,10.43A10.44,10.44,0,0,1,469.78,211.68Zm31.28,0a10.43,10.43,0,1,1-10.43,10.43A10.43,10.43,0,0,1,501.06,211.68Zm62.57,0a10.43,10.43,0,1,1-10.43,10.43A10.43,10.43,0,0,1,563.63,211.68Zm-31.29,0a10.43,10.43,0,1,1-10.42,10.43A10.43,10.43,0,0,1,532.34,211.68Zm62.57,0a10.43,10.43,0,1,1-10.43,10.43A10.44,10.44,0,0,1,594.91,211.68ZM501.06,180.4a10.43,10.43,0,1,1-10.43,10.43A10.43,10.43,0,0,1,501.06,180.4Zm62.57,0a10.43,10.43,0,1,1-10.43,10.43A10.43,10.43,0,0,1,563.63,180.4Zm-31.29,0a10.43,10.43,0,1,1-10.42,10.43A10.43,10.43,0,0,1,532.34,180.4Zm62.57,0a10.43,10.43,0,1,1-10.43,10.43A10.44,10.44,0,0,1,594.91,180.4Z"/><path d="M179.69,396.64a4,4,0,0,0-1.38-2.9,1.67,1.67,0,0,1,2.09-1.21l.12-1.52a2.59,2.59,0,0,0-3.17,2.09,5,5,0,0,0-2-.44A4.44,4.44,0,0,0,170.7,397a3.9,3.9,0,0,0,1.73,3.23c-1,.58-1.65,1.21-1.65,2.06s.61,1.32,1.48,1.65c-1.67.82-2.6,1.73-2.6,3,0,1.6,1.66,2.87,4.75,2.87,3.48,0,6.19-1.85,6.19-4.06,0-1.88-1.56-2.76-4.61-2.8l-1.08,0c-2,0-2.56-.38-2.56-1,0-.4.35-.79,1.12-1.21a4.78,4.78,0,0,0,1.52.21A4.4,4.4,0,0,0,179.69,396.64Zm327.29,0a4,4,0,0,0-1.37-2.9,1.67,1.67,0,0,1,2.08-1.21l.13-1.52a2.57,2.57,0,0,0-3.17,2.09,5.16,5.16,0,0,0-2-.44A4.46,4.46,0,0,0,498,397a3.91,3.91,0,0,0,1.76,3.23c-1.05.58-1.65,1.21-1.65,2.06s.6,1.3,1.48,1.65c-1.69.82-2.61,1.73-2.61,3,0,1.6,1.67,2.87,4.76,2.87,3.48,0,6.17-1.85,6.17-4.06,0-1.88-1.54-2.76-4.59-2.8l-1.08,0c-2,0-2.59-.38-2.59-1,0-.4.38-.79,1.13-1.21a5,5,0,0,0,1.54.21A4.39,4.39,0,0,0,507,396.64ZM175.06,404.4l.93,0c2,0,3,.56,3,1.57,0,1.29-1.86,2.46-4.44,2.46-2.13,0-3.26-.8-3.26-1.76,0-.79.75-1.64,2.5-2.37Zm327.29,0,.94,0c2,0,3,.56,3,1.57,0,1.29-1.83,2.46-4.42,2.46-2.12,0-3.25-.8-3.25-1.76,0-.79.75-1.64,2.5-2.37ZM70.8,400.75a7.94,7.94,0,0,1-5.65,2.36c-4.07,0-6.92-3.05-6.92-7.61,0-4.22,2.94-7.53,7.15-7.53a7.68,7.68,0,0,1,4.67,1.52l.57-1.69a9.24,9.24,0,0,0-5.11-1.52c-5.36,0-9.16,4.25-9.16,9.61A8.62,8.62,0,0,0,65,404.76a9.13,9.13,0,0,0,5.65-1.92Zm327.3,0a8,8,0,0,1-5.65,2.36c-4.07,0-6.95-3.05-6.95-7.61,0-4.22,3-7.55,7.18-7.55a7.7,7.7,0,0,1,4.67,1.54l.54-1.69a9.08,9.08,0,0,0-5.09-1.52c-5.36,0-9.15,4.25-9.15,9.61a8.62,8.62,0,0,0,8.67,8.87,9.18,9.18,0,0,0,5.66-1.92Zm-65,2.23v-2.25c0-1.5,0-4.69.12-5.69-1.33.08-2.13.1-3.75.1-1.13,0-2,0-3.44-.06a7.91,7.91,0,0,1,0,1.69c1.44,0,2.19,0,3.44,0,1,0,.75,0,1.77,0,0,.48,0,1.19,0,1.6v3.76a7.8,7.8,0,0,1-4,1,7.56,7.56,0,0,1,0-15.12,8.68,8.68,0,0,1,5,1.58l.57-1.69a10.37,10.37,0,0,0-5.43-1.56,9.26,9.26,0,0,0-9.4,9.47,8.88,8.88,0,0,0,9.07,9A10.28,10.28,0,0,0,333.12,403ZM84.34,398.37a5.47,5.47,0,0,0-5.53-5.75c-3.52,0-5.8,2.77-5.8,6.32a5.43,5.43,0,0,0,5.49,5.75C82,404.69,84.34,401.92,84.34,398.37Zm64.52-4.63a6.47,6.47,0,0,0-3.67-1.12,6,6,0,0,0-6,6.3,5.61,5.61,0,0,0,5.79,5.77,6.19,6.19,0,0,0,3.82-1.17l.1-1.81a5.23,5.23,0,0,1-3.73,1.46,4.51,4.51,0,0,1-.06-9,5.32,5.32,0,0,1,3.27,1.13ZM23,398.37a5.47,5.47,0,0,0-5.52-5.75c-3.55,0-5.82,2.77-5.82,6.32a5.44,5.44,0,0,0,5.48,5.75C20.69,404.69,23,401.92,23,398.37Zm453.18-4.63a6.51,6.51,0,0,0-3.69-1.12,6,6,0,0,0-6,6.3,5.61,5.61,0,0,0,5.8,5.77,6.21,6.21,0,0,0,3.84-1.17l.1-1.81a5.25,5.25,0,0,1-3.73,1.46,4.51,4.51,0,0,1-.09-9,5.36,5.36,0,0,1,3.3,1.13Zm-64.52,4.63a5.47,5.47,0,0,0-5.53-5.75c-3.53,0-5.8,2.77-5.8,6.32a5.42,5.42,0,0,0,5.47,5.75C409.34,404.69,411.64,401.92,411.64,398.37Zm-35.48,4.13a3.54,3.54,0,0,1-1.83.57c-1,0-1.48-.42-1.48-1.67v-7h3.08a14.54,14.54,0,0,1,.06-1.5h-3.14V390l-1.53.4-.16,2.5h-1.57l-.46,1.5h2v7.22c0,1.93.86,3.06,2.82,3.06a3.78,3.78,0,0,0,2.13-.62ZM117,404.61a4.15,4.15,0,0,0,3.78-2.29c0,1.66.85,2.23,1.75,2.23a2.89,2.89,0,0,0,1.34-.36L124,403a2.46,2.46,0,0,1-1,.23c-.54,0-.79-.29-.77-1.21l.15-5c.08-2.78-1.4-4.4-4.11-4.4a7.53,7.53,0,0,0-3.9,1.1l.39,1.53a6,6,0,0,1,3.26-1.11c1.85,0,2.73,1,2.67,3.07l0,.45c-.44,0-.9-.06-1.36-.06-4.07,0-5.86,1.63-5.86,3.76A3.18,3.18,0,0,0,117,404.61Zm-88.32,0a4.13,4.13,0,0,0,3.78-2.29c0,1.66.85,2.23,1.75,2.23a2.82,2.82,0,0,0,1.34-.36l.16-1.23a2.43,2.43,0,0,1-1,.23c-.54,0-.79-.29-.77-1.21l.15-5c.08-2.78-1.4-4.4-4.09-4.4a7.55,7.55,0,0,0-3.92,1.1l.41,1.53a5.85,5.85,0,0,1,3.26-1.11c1.85,0,2.71,1,2.65,3.07l0,.45c-.44,0-.88-.06-1.36-.06-4.07,0-5.86,1.63-5.86,3.76A3.18,3.18,0,0,0,28.63,404.61Zm415.62,0a4.16,4.16,0,0,0,3.78-2.27c0,1.66.85,2.23,1.75,2.23a2.81,2.81,0,0,0,1.33-.36l.17-1.23a2.58,2.58,0,0,1-1,.23c-.54,0-.81-.29-.77-1.21l.14-5c.09-2.78-1.39-4.4-4.1-4.4a7.53,7.53,0,0,0-3.9,1.1l.39,1.53a6,6,0,0,1,3.26-1.11c1.85,0,2.73,1,2.64,3.07l0,.45c-.41,0-.87-.06-1.35-.06-4.05,0-5.84,1.63-5.84,3.76C440.73,403.25,442,404.59,444.25,404.59Zm-96.72,0a4.13,4.13,0,0,0,3.77-2.27c0,1.66.86,2.23,1.75,2.23a2.7,2.7,0,0,0,1.32-.36l.19-1.23a2.55,2.55,0,0,1-1,.23c-.54,0-.79-.29-.77-1.21l.15-5c.08-2.78-1.4-4.4-4.11-4.4a7.48,7.48,0,0,0-3.9,1.1l.4,1.53a5.9,5.9,0,0,1,3.25-1.11c1.86,0,2.73,1,2.67,3.07l0,.45c-.42,0-.88-.06-1.36-.06-4,0-5.84,1.63-5.84,3.76C344,403.25,345.3,404.59,347.53,404.59ZM10.18,402.67c-1.63,0-3.36.06-5.3.06l-2.84,0c-.06-.58-.06-1.46-.06-2V390.28c0-1,0-2.94.06-3.67-.6.06-1.33.11-2,.11.1,1.18.17,4.42.17,6v5.53c0,1.63-.07,4.9-.17,6.11,1.46-.08,3.3-.1,5-.1s3.53,0,5,.1A10.11,10.11,0,0,1,10.18,402.67ZM93,386.4a3.43,3.43,0,0,0-1.18-.18c-2.47,0-3.8,2-3.8,5.21v1.44H86.42l-.5,1.5h2.13v5.8c0,1.46,0,3.06-.13,4.13h1.92c0-.63-.06-1.61-.06-2.49v-7.44h3.15a7.84,7.84,0,0,1,.1-1.5H89.78v-1.61c0-2.23.75-3.42,2.29-3.42a3.27,3.27,0,0,1,1.11.21Zm17.56,17.9c0-.65-.06-1.69-.06-2.57v-5.11c0-2.65-1.37-4-3.63-4a5.64,5.64,0,0,0-4.4,2.69l-.1-2.46c-.59,0-1.07.08-1.71.08.08,1.09.12,2.82.12,4.26V400c0,1.46,0,3.19-.12,4.26h1.92c0-.73-.07-1.69-.07-2.57v-4.19c0-1.38,2-3.4,3.88-3.4,1.61,0,2.38,1,2.38,2.88v3c0,1.46,0,3.19-.15,4.26Zm56.83,0c0-.65-.06-1.69-.06-2.57v-5.11c0-2.65-1.38-4-3.63-4a5.61,5.61,0,0,0-4.38,2.69l-.12-2.46c-.59,0-1.07.08-1.71.08.08,1.09.12,2.82.12,4.26V400c0,1.46,0,3.19-.12,4.26h1.94c-.07-.73-.09-1.69-.09-2.57v-4.19c0-1.38,2-3.4,3.88-3.4,1.61,0,2.38,1,2.38,2.88v3c0,1.46,0,3.19-.15,4.26Zm-13.64,0c0-.65-.06-1.61-.06-2.49v-6.15c0-.58,0-2.4.06-2.85a14.63,14.63,0,0,1-1.93.1c.1,1.08.14,2.86.14,4.32v2.92c0,1.48,0,3.08-.12,4.15Zm-105.9,0c0-.65-.08-1.69-.08-2.57v-5.11c0-2.65-1.38-4-3.63-4a5.64,5.64,0,0,0-4.38,2.69l-.12-2.46c-.57,0-1.05.08-1.69.08.08,1.09.12,2.82.12,4.26V400c0,1.46,0,3.19-.12,4.26H39.9c0-.73-.07-1.69-.07-2.57v-4.19c0-1.38,2-3.4,3.88-3.4,1.61,0,2.38,1,2.38,2.88v3c0,1.46-.06,3.19-.17,4.26Zm49.05,0c0-.65-.08-1.61-.08-2.49v-6.15c0-.6,0-2.4.08-2.85a15,15,0,0,1-2,.1c.11,1.08.17,2.86.17,4.32v2.92c0,1.48,0,3.08-.12,4.15Zm39.27,0c0-.65-.08-1.69-.08-2.57v-5.11c0-2.65-1.38-4-3.63-4a5.64,5.64,0,0,0-4.38,2.69l-.12-2.46c-.57,0-1,.08-1.69.08.06,1.09.12,2.82.12,4.26V400c0,1.46-.06,3.19-.12,4.26h1.92c-.05-.73-.09-1.69-.09-2.57v-4.19c0-1.38,2-3.4,3.88-3.4,1.61,0,2.38,1,2.38,2.88v3c0,1.46,0,3.19-.15,4.26Zm288,0c-.06-.65-.08-1.61-.08-2.49v-6.15c0-.6,0-2.4.08-2.85a15,15,0,0,1-2,.1c.11,1.08.17,2.86.17,4.32v2.92c0,1.48,0,3.08-.13,4.15Zm-81.42-11.68a4.82,4.82,0,0,0-4,2.75l-.21-2.59a9.81,9.81,0,0,1-1.71.26,28.12,28.12,0,0,1,.21,3.81V400c0,1.46,0,3.19-.13,4.26h1.92c0-.73-.06-1.69-.06-2.57v-4.07a3.38,3.38,0,0,1,3.79-3ZM463.5,404.3c0-.65-.08-1.71-.08-2.59v-5.09c0-2.65-1.38-4-3.63-4a5.62,5.62,0,0,0-4.38,2.69l-.13-2.46c-.58,0-1,.08-1.68.08.06,1.09.12,2.82.12,4.26V400c0,1.46-.06,3.19-.12,4.26h1.91c-.06-.73-.08-1.69-.08-2.57v-4.19c0-1.38,2-3.4,3.88-3.4,1.61,0,2.38,1,2.38,2.88v3c0,1.46,0,3.19-.15,4.26Zm31.22,0c0-.65-.06-1.71-.06-2.59v-5.09c0-2.65-1.38-4-3.63-4a5.56,5.56,0,0,0-4.38,2.69l-.12-2.46c-.59,0-1.07.08-1.71.08.08,1.09.12,2.82.12,4.26V400c0,1.46,0,3.19-.12,4.26h1.91c0-.73-.06-1.69-.06-2.57v-4.19c0-1.38,2-3.4,3.88-3.4,1.61,0,2.38,1,2.38,2.88v3c0,1.46,0,3.19-.15,4.26Zm-13.64,0c0-.65-.06-1.61-.06-2.49v-6.15c0-.58,0-2.4.06-2.85a14.69,14.69,0,0,1-1.94.1c.09,1.08.15,2.86.15,4.32v2.92c0,1.48,0,3.08-.13,4.15Zm-43.19,0c0-.65-.08-1.71-.08-2.59v-5.09c0-2.65-1.38-4-3.63-4a5.62,5.62,0,0,0-4.38,2.69l-.13-2.46c-.56,0-1,.08-1.68.08.06,1.09.12,2.82.12,4.26V400c0,1.46-.06,3.19-.12,4.26h1.91c0-.73-.06-1.69-.06-2.57v-4.19c0-1.38,2-3.4,3.88-3.4,1.59,0,2.38,1,2.38,2.88v3c0,1.46-.06,3.19-.15,4.26Zm-17.56-17.9a3.45,3.45,0,0,0-1.19-.18c-2.48,0-3.79,2-3.79,5.21v1.44h-1.63l-.5,1.5h2.13v5.8c0,1.46,0,3.06-.13,4.13h1.92c0-.63-.08-1.61-.08-2.49v-7.44h3.17a7.84,7.84,0,0,1,.1-1.5h-3.27v-1.61c0-2.23.77-3.42,2.31-3.42a3.32,3.32,0,0,1,1.11.21Zm-53.55,17.9c0-.65-.09-1.71-.09-2.59v-5.09c0-2.65-1.37-4-3.63-4a5.64,5.64,0,0,0-4.38,2.69l-.12-2.46c-.58,0-1,.08-1.69.08.06,1.09.1,2.82.1,4.26V400c0,1.46,0,3.19-.1,4.26h1.92c-.06-.73-.08-1.69-.08-2.57v-4.19c0-1.38,2-3.4,3.87-3.4,1.61,0,2.38,1,2.38,2.88v3c0,1.46,0,3.19-.14,4.26Zm-249.47-1.11c-1.56,0-2.21-.87-2.21-1.94,0-1.31,1-2.48,4.13-2.48a10.19,10.19,0,0,1,1.37.08l0,1.09A3.24,3.24,0,0,1,117.31,403.19Zm-88.32,0c-1.57,0-2.21-.87-2.21-1.94,0-1.31,1-2.48,4.13-2.48a10.19,10.19,0,0,1,1.37.08l0,1.09A3.24,3.24,0,0,1,29,403.19Zm318.89,0c-1.56,0-2.21-.87-2.21-1.94,0-1.31,1-2.48,4.13-2.48a10.64,10.64,0,0,1,1.38.08l0,1.09A3.27,3.27,0,0,1,347.88,403.19Zm96.73,0c-1.57,0-2.21-.87-2.21-1.94,0-1.31,1-2.48,4.13-2.48a10.39,10.39,0,0,1,1.37.08l0,1.09A3.25,3.25,0,0,1,444.61,403.19Zm-362-4.57c0,2.53-1.55,4.55-4,4.55s-3.92-1.58-3.92-4.5c0-2.51,1.61-4.53,4-4.53C80.92,394.14,82.63,395.75,82.63,398.62Zm-61.38,0c0,2.53-1.52,4.55-4,4.55-2.32,0-3.9-1.58-3.9-4.5,0-2.51,1.6-4.53,4-4.53C19.56,394.14,21.25,395.75,21.25,398.62Zm388.68,0c0,2.53-1.55,4.55-4,4.55-2.31,0-3.9-1.58-3.9-4.5,0-2.51,1.61-4.53,4-4.53C408.22,394.14,409.93,395.75,409.93,398.62Zm-231.85-1.81a2.8,2.8,0,0,1-2.94,2.77,2.59,2.59,0,0,1-2.79-2.77,2.85,2.85,0,0,1,2.89-2.79A2.69,2.69,0,0,1,178.08,396.81Zm327.28,0a2.78,2.78,0,0,1-2.92,2.77,2.62,2.62,0,0,1-2.82-2.77,2.87,2.87,0,0,1,2.92-2.79A2.67,2.67,0,0,1,505.36,396.81Zm-408.07-8a1.2,1.2,0,0,0-1.21-1.19,1.26,1.26,0,0,0-1.25,1.3A1.19,1.19,0,0,0,96,390.09,1.24,1.24,0,0,0,97.29,388.8Zm56.85,0a1.19,1.19,0,0,0-1.19-1.19,1.26,1.26,0,0,0-1.25,1.3,1.17,1.17,0,0,0,1.19,1.18A1.24,1.24,0,0,0,154.14,388.8Zm270.45,0a1.2,1.2,0,0,0-1.21-1.19,1.26,1.26,0,0,0-1.25,1.3,1.16,1.16,0,0,0,1.2,1.16A1.22,1.22,0,0,0,424.59,388.8Zm56.85,0a1.2,1.2,0,0,0-1.21-1.19,1.26,1.26,0,0,0-1.25,1.3,1.17,1.17,0,0,0,1.21,1.16A1.22,1.22,0,0,0,481.44,388.8Zm-65.86-15.95.64,2.31c9.39-1.79,14.33-8.63,14.33-17.18,0-6.24-3.29-10.05-8.4-10.05a8.52,8.52,0,0,0-8.6,8.88,7.7,7.7,0,0,0,7.7,8,7.9,7.9,0,0,0,6.61-3.51C426.69,367.05,422.67,371.45,415.58,372.85Zm-21.23,1a18.32,18.32,0,0,0,6.11,1c5.4,0,9.19-3.05,9.19-7.43,0-3.27-2.33-5.67-7.21-6.65,3.79-1.12,6.67-3.23,6.67-6.86,0-3.23-3-5.9-7.53-5.9a13.27,13.27,0,0,0-7.09,2.29l1,2.3a10,10,0,0,1,5.91-2.15c3.23,0,5,1.77,5,3.75,0,2.82-3.25,5.19-9.2,6.24l.38,1.92c6.17.1,9.32,2.14,9.32,5.36,0,2.85-2.63,4.65-6.69,4.65a18.19,18.19,0,0,1-6.26-1.19ZM88.13,348.53c0,.67-.14,1.94-.23,2.65,2.21,0,4.74,0,7.43,0,1.92,0,3.79,0,5.63,0l-8,16.45c-1,2.11-2.52,5-3.38,6.49l3,.41c.29-.85,1.54-3.42,2.29-5L102.42,354c.69-1.37,1.54-3.29,2.11-4.23l-.76-1.23c-2.58.06-4.94.1-8,.1S90.72,348.59,88.13,348.53ZM81.71,348l-2.38.75c-1.37.46-3.77,1.25-5.84,1.87l.59,2.3,5.29-1.65v15.91c0,1.92,0,5.72-.14,7.14h2.86C82,373.41,82,371.12,82,370v-17.5c0-.89,0-3.65.09-4.31Zm334.56,8.71c0-3.56,2.31-6.38,5.69-6.38a5.76,5.76,0,0,1,5.8,6.05,5.94,5.94,0,0,1-5.8,6.11A5.48,5.48,0,0,1,416.27,356.66Zm-68.72-109,.58-.92a10.14,10.14,0,0,1,0-17.94l-.56-1a11.5,11.5,0,0,0-6.2,10A11.35,11.35,0,0,0,347.55,247.7Zm16.37,0a11,11,0,0,0,0-19.82l-.58.94a10.11,10.11,0,0,1,0,17.92Zm-66-14.31a13,13,0,0,1-1.58.08c.08.9.12,2.38.12,3.59l0,7.15c0,1.4-.46,1.86-1.33,1.88a4.3,4.3,0,0,1-.69-.08l.19,1.29a3.7,3.7,0,0,0,.83.13c1.27,0,2.42-.84,2.42-3.28v-8.38C297.85,235.27,297.87,233.77,297.91,233.39Zm21,.77a5.35,5.35,0,0,0-3.06-.94,5,5,0,0,0-5,5.26,4.68,4.68,0,0,0,4.82,4.82,5.21,5.21,0,0,0,3.19-1l.09-1.53a4.37,4.37,0,0,1-3.11,1.23,3.5,3.5,0,0,1-3.59-3.77,3.53,3.53,0,0,1,3.53-3.73,4.43,4.43,0,0,1,2.73.93Zm-9.86,3.65c0-2.56-1.21-4.59-3.9-4.59-2.88,0-4.73,2.34-4.73,5.3,0,2.63,1.58,4.78,4.61,4.78a5.9,5.9,0,0,0,3.56-1.17l0-1.5a5.15,5.15,0,0,1-3.44,1.39c-2,0-3.29-1.21-3.36-3.46l6.28-.16Zm-15.24.21a4.55,4.55,0,0,0-4.59-4.8c-3,0-4.84,2.32-4.84,5.28a4.52,4.52,0,0,0,4.57,4.8C291.93,243.3,293.83,241,293.83,238Zm37.6-4.8c-1.94,0-3.3,1.21-3.3,2.76,0,3,5,2.44,5,4.52,0,1-1,1.5-2.15,1.5a5.37,5.37,0,0,1-3.07-1l-.08,1.52a6.23,6.23,0,0,0,3.11.8c1.92,0,3.58-1.13,3.58-3,0-2.92-5-2.52-5-4.36,0-1,.85-1.39,1.86-1.39a4,4,0,0,1,2.33.73l.48-1.28A5.48,5.48,0,0,0,331.43,233.22Zm-5.2,8.24a2.88,2.88,0,0,1-1.52.48c-.79,0-1.23-.35-1.23-1.4v-5.86h2.57a10.4,10.4,0,0,1,.06-1.25h-2.63V231l-1.27.34-.13,2.08h-1.29l-.39,1.25h1.66v6c0,1.63.71,2.56,2.34,2.56a3,3,0,0,0,1.77-.52Zm-43-8.24a4.08,4.08,0,0,0-3.38,2.3l-.14-2.15a8.93,8.93,0,0,1-1.44.21,23.87,23.87,0,0,1,.19,3.17v2.67c0,1.21,0,2.65-.11,3.54H280c0-.6-.06-1.42-.06-2.15v-3.37a2.82,2.82,0,0,1,3.17-2.55Zm69.78-4.88-1.29.42c-.77.25-2.11.69-3.25,1l.33,1.28,2.94-.92V239c0,1.06,0,3.17-.08,4h1.56c0-.48,0-1.75,0-2.37v-9.72c0-.5,0-2,0-2.4Zm7.7,0-1.29.42c-.78.25-2.11.69-3.26,1l.34,1.28,2.94-.92V239c0,1.06,0,3.17-.09,4H361c0-.48,0-1.75,0-2.37v-9.72c0-.5,0-2,0-2.4Zm-91.51,8.78c.37,0,.79,0,1.14,0,4.3,0,6-2.08,6-4.73,0-2.36-1.75-4.21-5.25-4.21-1.26,0-2.82.08-3.55.08.08,1,.13,3.71.13,5.05v4.61c0,1.35-.05,4-.13,5h1.67c0-.58,0-2.21,0-3Zm23.17,1.11c0,2.1-1.27,3.79-3.34,3.79s-3.27-1.33-3.27-3.75a3.48,3.48,0,0,1,3.35-3.77C291,234.5,292.41,235.83,292.41,238.23Zm9.49-.77a3.26,3.26,0,0,1,3.15-3c1.64,0,2.5,1,2.69,2.86Zm-27-4.8c0,1.94-1.48,3.23-4.42,3.23-.36,0-.82,0-1.19-.06v-6.24c.6,0,1.1,0,1.67,0C273.55,229.55,274.85,230.64,274.85,232.66Zm23.36-2.61a1,1,0,0,0-1-1,1,1,0,0,0-1,1.09,1,1,0,0,0,1,1A1,1,0,0,0,298.21,230.05ZM305.67,217c0-2.57-1.23-4.59-3.92-4.59-2.86,0-4.73,2.33-4.73,5.3a4.43,4.43,0,0,0,4.61,4.77,5.9,5.9,0,0,0,3.56-1.17l.06-1.5a5.21,5.21,0,0,1-3.46,1.4c-2,0-3.27-1.21-3.33-3.46l6.25-.17Zm5.3-4.59c-1.92,0-3.3,1.21-3.3,2.75,0,3,5,2.44,5,4.53,0,1-1,1.5-2.13,1.5a5.54,5.54,0,0,1-3.09-1l-.08,1.52a6.39,6.39,0,0,0,3.13.79c1.9,0,3.59-1.12,3.59-3,0-2.92-5-2.53-5-4.36,0-1,.86-1.4,1.86-1.4a4,4,0,0,1,2.31.73l.5-1.27A5.49,5.49,0,0,0,311,212.37ZM348.8,217c0-2.57-1.23-4.59-3.92-4.59-2.86,0-4.74,2.33-4.74,5.3a4.43,4.43,0,0,0,4.61,4.77,5.94,5.94,0,0,0,3.57-1.17l.06-1.5a5.23,5.23,0,0,1-3.46,1.4c-2,0-3.27-1.21-3.34-3.46l6.26-.17ZM291,222.4l.94-.1,4-9.76c-.46,0-1,.06-1.58.06-.38,1.1-1.23,3.17-1.57,4.06l-1.33,3.45-3.09-7.64-1.56.23c.46.9.94,2.09,1.46,3.3l1.44,3.31C290.18,220.4,290.7,221.61,291,222.4Zm76.29-1.79a3,3,0,0,1-1.53.48c-.79,0-1.23-.36-1.23-1.4v-5.86h2.57a10.28,10.28,0,0,1,.06-1.25H364.5v-2.42l-1.27.33-.14,2.09h-1.3l-.39,1.25h1.66v6c0,1.63.73,2.57,2.36,2.57a3.07,3.07,0,0,0,1.77-.52Zm-45.95,0a2.91,2.91,0,0,1-1.52.48c-.79,0-1.23-.36-1.23-1.4v-5.86h2.56a10,10,0,0,1,.07-1.25h-2.63v-2.42l-1.27.33-.15,2.09h-1.29l-.4,1.25h1.67v6c0,1.63.73,2.57,2.36,2.57a3.12,3.12,0,0,0,1.77-.52Zm38.13,1.5c0-.54-.07-1.42-.07-2.15v-4.25c0-2.22-1.14-3.34-3-3.34a4.69,4.69,0,0,0-3.65,2.25l-.11-2.06c-.47,0-.87.08-1.41.08.06.9.1,2.34.1,3.54v2.38c0,1.21,0,2.65-.1,3.55h1.6c0-.61-.06-1.42-.06-2.15v-3.48c0-1.15,1.67-2.84,3.23-2.84,1.34,0,2,.86,2,2.4v2.52c0,1.21,0,2.65-.12,3.55Zm-74.35,0c0-.54-.07-1.42-.07-2.15v-4.25c0-2.22-1.14-3.34-3-3.34a4.69,4.69,0,0,0-3.65,2.25l-.1-2.06c-.48,0-.88.08-1.42.08.06.9.1,2.34.1,3.54v2.38c0,1.21,0,2.65-.1,3.55h1.6c0-.61-.06-1.42-.06-2.15v-3.48c0-1.15,1.67-2.84,3.23-2.84,1.34,0,2,.86,2,2.4v2.52c0,1.21,0,2.65-.13,3.55Zm52.59,0c0-.54-.06-1.42-.06-2.15v-4.25c0-2.22-1.08-3.34-2.92-3.34a4.19,4.19,0,0,0-3.48,2.13,2.57,2.57,0,0,0-2.75-2.13,4.53,4.53,0,0,0-3.4,2.06l-.11-1.87c-.48,0-.85.08-1.42.08.09.9.13,2.34.13,3.54v2.38c0,1.21,0,2.65-.11,3.55h1.61c0-.61-.06-1.42-.06-2.15v-3.67a3.16,3.16,0,0,1,3-2.65c1.27,0,1.81.86,1.81,2.4v2.52c0,1.21,0,2.65-.1,3.55h1.61c-.05-.54-.07-1.42-.07-2.15v-3.67a3.16,3.16,0,0,1,3-2.65c1.27,0,1.85.86,1.85,2.4v2.52c0,1.21,0,2.65-.12,3.55Zm-64.5,0c0-.59-.06-2.21-.06-3v-8.67c0-.81,0-2.46.06-3.07a13,13,0,0,1-1.71.09c.08,1,.12,3.69.12,5v4.61c0,1.36,0,4-.12,5Zm68.45-5.51a3.25,3.25,0,0,1,3.14-3c1.65,0,2.49,1,2.67,2.86Zm-43.13,0a3.26,3.26,0,0,1,3.15-3c1.64,0,2.48,1,2.67,2.86Zm249.69-52.32a11,11,0,0,0,0-19.82l-.58.94a10.11,10.11,0,0,1,0,17.92Zm-24,0,.58-.92a10.14,10.14,0,0,1,0-17.94l-.56-1a11.52,11.52,0,0,0-6.22,10A11.37,11.37,0,0,0,524.19,164.28Zm13-8.18c0,2.13,1.9,3.82,4.65,3.82s4.76-1.77,4.76-4c0-1.69-1.21-3-3.23-3.81,1.79-.78,2.94-1.82,2.94-3.51,0-2-1.73-3.67-4.24-3.67s-4.38,1.73-4.38,3.82c0,1.69,1.3,2.81,2.9,3.46C538.52,152.85,537.18,154.16,537.18,156.1Zm-29.13-6.3c-1.92,0-3.3,1.21-3.3,2.76,0,3,5,2.44,5,4.52,0,1-1,1.5-2.13,1.5a5.44,5.44,0,0,1-3.09-1l-.08,1.52a6.36,6.36,0,0,0,3.13.8c1.9,0,3.59-1.13,3.59-3,0-2.92-5-2.52-5-4.36,0-1,.86-1.39,1.86-1.39a4,4,0,0,1,2.31.73l.5-1.28A5.59,5.59,0,0,0,508.05,149.8Zm-18.69,9.74h1.71c.34-.83,1-2.52,1.59-3.92l.33-.77h6.47l2.16,4.84,1.67-.15c-.41-.83-1.21-2.5-1.85-4l-5-11.05-.42.12c-.43,1.15-1,2.36-1.87,4.34Zm38.42-1.33c1.21-1.15,2.52-2.53,3.44-3.55,1.92-2.17,3.17-3.81,3.17-5.88,0-2.33-1.69-3.84-4.22-3.84a7,7,0,0,0-4.12,1.57l.56,1.27a5.47,5.47,0,0,1,3.46-1.46,2.57,2.57,0,0,1,2.82,2.65c0,2.38-2.26,4.59-7.37,9.61l.23,1c1.4-.07,2.86-.09,4.55-.09s3,0,4.4.09a13.21,13.21,0,0,1,.13-1.46C532.72,158.21,530.05,158.21,527.78,158.21Zm-37.92-13.43c-1.83,0-3.88.08-6,.08s-4.07,0-5.86-.08a9,9,0,0,1-.09,1.42c1.5,0,3.26,0,5.15,0,.05,1.11,0,2.78,0,3.82v4.55c0,1.35,0,4-.1,5h1.69c0-.58,0-2.21,0-3v-8.63c0-.5,0-1.26,0-1.76,1.9,0,3.48,0,5.07,0A7.86,7.86,0,0,1,489.86,144.78Zm55.23,11.16a2.84,2.84,0,0,1-3.13,2.71c-1.84,0-3.28-1.07-3.28-2.65s1.23-2.63,3.22-3.28C544,153.45,545.09,154.45,545.09,155.94Zm-48.87-8.47,2.67,6.11h-5.34Zm43,1.17a2.82,2.82,0,0,1,5.61,0c0,1.27-1,2.31-2.69,2.85C540.33,150.87,539.18,150,539.18,148.64Z"/><path d="M386.76,77.46c0-3.65-2.22-6.78-5.93-6.78a5.8,5.8,0,0,0-4.29,2.06L376.39,71a32.12,32.12,0,0,1-3.42.23,48,48,0,0,1,.21,4.92V86.22c0,1.69-.06,3.65-.17,4.9.17,0,3.59-.36,3.78-.36a24.2,24.2,0,0,1-.11-2.71V84.32a5.75,5.75,0,0,0,3.36,1C383.31,85.3,386.76,82.25,386.76,77.46ZM359.18,91a37.43,37.43,0,0,1,3.78-.14c.46-1.46,1.44-3.73,1.83-4.82l6.3-15.1c-1.06.09-2.31.13-3.63.13-.5,1.42-1.12,3.17-1.79,4.9l-1.4,3.79-3.37-8.88c-.19,0-3.55.35-3.78.35.67,1.26,1.63,3.42,2.4,5.16l1.67,3.75c.52,1.19.87,2.17,1.31,3.27ZM215,91a37.43,37.43,0,0,1,3.78-.14c.46-1.46,1.42-3.73,1.83-4.82l6.3-15.1c-1.08.09-2.33.13-3.65.13-.48,1.42-1.1,3.17-1.77,4.9l-1.4,3.79-3.4-8.88c-.16,0-3.52.35-3.75.35.67,1.26,1.63,3.42,2.4,5.16L217,80.17c.54,1.19.87,2.17,1.31,3.27Zm69.7-20.35c-4,0-6.94,3.42-6.94,7.82,0,3.71,2.33,6.8,6.19,6.8a5.16,5.16,0,0,0,4.05-2l.21,1.46h3.29a47.3,47.3,0,0,1-.21-4.84V66.8c0-1,0-2.42.13-3.19-.88.19-2.76.35-3.8.44a46,46,0,0,1,.15,4.75l0,2.82A5.25,5.25,0,0,0,284.71,70.68Zm-9,7a6.68,6.68,0,0,0-6.8-7c-4.29,0-7.11,3.34-7.11,7.67a6.64,6.64,0,0,0,6.74,7C272.87,85.3,275.68,82,275.68,77.67Zm126.17-.21c0-3.74-1.79-6.78-5.92-6.78-4.29,0-7.13,3.3-7.13,7.61,0,3.78,2.27,7,7,7a9.54,9.54,0,0,0,5.34-1.63l.08-3a8.23,8.23,0,0,1-5.05,1.83c-2.44,0-3.75-1.25-4-3.71l8-.23ZM308,84.78a47,47,0,0,1-.21-4.84V74.16A23.49,23.49,0,0,1,308,71a36.15,36.15,0,0,1-3.86.19c.12,1.27.19,3.21.19,4.9v3.36a3.42,3.42,0,0,1-3.2,3c-1.85,0-2.46-1.08-2.46-3.15V74.16a30.37,30.37,0,0,1,.15-3.19,34.48,34.48,0,0,1-3.82.19c.11,1.27.17,3.21.17,4.9v4c0,3.55,1.61,5.28,4.67,5.28a5.7,5.7,0,0,0,4.57-2.75l.37,2.23ZM322.67,72a8,8,0,0,0-4.4-1.31,7.35,7.35,0,0,0-7.45,7.67,6.87,6.87,0,0,0,7.18,7,7.71,7.71,0,0,0,4.46-1.25l.12-3.3a5.43,5.43,0,0,1-4,1.67,4.2,4.2,0,0,1-4.3-4.52,4.09,4.09,0,0,1,4.09-4.32,5.45,5.45,0,0,1,3.51,1.25ZM211.89,77.46c0-3.92-2.38-6.78-5.86-6.78a6.3,6.3,0,0,0-4.17,1.67V67.09c0-.79,0-2.75.1-3.5-.88.15-2.77.37-3.82.44a44.34,44.34,0,0,1,.21,4.75V79.94c0,1.69-.06,3.5-.21,5.07l.65.21,2.36-1a6.34,6.34,0,0,0,3.5,1C208.74,85.3,211.89,81.8,211.89,77.46ZM333.7,81.67a4.15,4.15,0,0,1-2.13.67c-1,0-1.5-.4-1.5-1.8V73.72h3.53c0-1.06,0-2.08.08-2.73h-3.61V67.16l-3.19,1L326.61,71h-1.75l-.69,2.73h2.42v7.12c0,3,1.33,4.38,4.09,4.38a5.74,5.74,0,0,0,2.94-.8Zm25.19-17.58c-2.73.08-5.44.15-8.71.15s-5.84-.07-8.53-.15c0,1.11,0,2.34-.11,3.29,2.15,0,4.17-.06,6.7-.06.06,1.59.06,3.49.06,4.67v5.76c0,1.9-.06,5.63-.19,7h4.05c-.09-.82-.13-3.09-.13-4.19V69.2c0-.5,0-1.27,0-1.88,2.55,0,4.42,0,6.59.06C358.71,66.13,358.75,65.13,358.89,64.09Zm-98.24,6.59a5.75,5.75,0,0,0-4.84,3.13l-.27-2.92a25.29,25.29,0,0,1-3.47.44,30.29,30.29,0,0,1,.28,4.29v4.19c0,1.69,0,3.72-.19,5H256c-.08-.75-.12-2-.12-3v-4.6c0-2.26,2.4-3.13,4.46-2.8Zm-20.84,6.88c.44,0,.9,0,1.34,0,6.17,0,8.76-3.21,8.76-7.21,0-3.48-2.7-6.28-8-6.28-1.9,0-5.05.15-6.09.15.12,1.39.19,5.17.19,7v6.44c0,1.9-.07,5.63-.19,7h4c-.06-.82-.08-3.09-.08-4.19Zm143.44.25c0,2.53-1.4,4.76-3.59,4.76a3.75,3.75,0,0,1-3-1.17V75.18a3.86,3.86,0,0,1,3.05-1.73C381.65,73.45,383.25,74.75,383.25,77.81Zm-98.16-4.36a3.73,3.73,0,0,1,2.71,1v6.32a3.32,3.32,0,0,1-2.94,1.73c-2,0-3.59-1.46-3.59-4.42C281.27,75.56,282.67,73.45,285.09,73.45Zm-76.67,4.36c0,2.51-1.6,4.74-3.87,4.74a4.48,4.48,0,0,1-2.69-.75V74.91a4.26,4.26,0,0,1,3.06-1.46C207.17,73.45,208.42,75.12,208.42,77.81Zm63.82.23c0,2.63-1.33,4.46-3.59,4.46-2.06,0-3.48-1.48-3.48-4.6,0-2.57,1.44-4.43,3.61-4.43C270.72,73.47,272.24,75,272.24,78Zm120-1.35a3.56,3.56,0,0,1,3.51-3.36c1.81,0,2.64,1.12,2.87,3.17Zm-146.07-5.8c0,2.46-1.87,3.86-5,3.86a11.93,11.93,0,0,1-1.44-.11v-7.4c.79-.06,1.23-.06,2-.06C244.8,67.18,246.21,68.49,246.21,70.89ZM356.35,44.11c-.59.06-1.27.08-1.94.08.1,1.09.17,2.86.17,4.32l-.05,8.57c0,1.69-.54,2.23-1.58,2.25a6.12,6.12,0,0,1-.83-.08l.22,1.54a4.43,4.43,0,0,0,1,.15c1.54,0,2.92-1,2.92-3.92V47C356.27,46.34,356.29,44.55,356.35,44.11ZM200.29,55.58h2c0-.69-.08-2.63-.08-3.61V41.55l12,14.47.52-.13c-.06-.71-.06-2.83,0-3.81l.13-10.51c0-1,0-2.94.12-3.67a16.49,16.49,0,0,1-2,.1c.08,1.19.14,4.42.14,6V52.2L201,37.56l-.52.13c.1,1.21.1,4.42.1,6l-.06,5.86C200.48,51.18,200.42,54.39,200.29,55.58Zm28.59,0c-.1-1.13-.14-2.77-.14-4.23V46.86c0-.91,0-2.08.06-2.75a18.7,18.7,0,0,1-1.94.08c.1,1.15.15,2.78.15,4.18v3c0,1.35-2.11,3.12-3.69,3.12-1.74,0-2.57-1-2.57-3.14V46.86c0-.91,0-2.08.08-2.75-.58.06-1.25.08-1.94.08.09,1.15.13,2.78.13,4.18V51.7c0,3,1.48,4.32,3.84,4.32a5.55,5.55,0,0,0,4.21-2.59l.21,2.15Zm74.46-5.92a5.48,5.48,0,0,0-5.53-5.76c-3.53,0-5.8,2.78-5.8,6.34A5.42,5.42,0,0,0,297.47,56C301,56,303.34,53.2,303.34,49.66Zm-26.89-.25c0-3.09-1.46-5.51-4.69-5.51-3.44,0-5.67,2.8-5.67,6.36,0,3.15,1.92,5.72,5.53,5.72a7.06,7.06,0,0,0,4.27-1.4l.06-1.79a6.28,6.28,0,0,1-4.15,1.66c-2.44,0-3.92-1.43-4-4.15l7.51-.2ZM396.54,43.9c-2.3,0-4,1.44-4,3.3,0,3.61,6,2.94,6,5.44,0,1.17-1.17,1.79-2.56,1.79a6.43,6.43,0,0,1-3.7-1.23l-.1,1.84A7.79,7.79,0,0,0,396,56c2.28,0,4.3-1.34,4.3-3.61,0-3.53-6-3-6-5.24,0-1.16,1-1.68,2.24-1.68a4.88,4.88,0,0,1,2.77.87l.6-1.52A6.61,6.61,0,0,0,396.54,43.9Zm-26.8,5.51c0-3.09-1.48-5.51-4.72-5.51-3.42,0-5.67,2.8-5.67,6.36,0,3.15,1.92,5.72,5.53,5.72a7,7,0,0,0,4.27-1.4l.09-1.79a6.34,6.34,0,0,1-4.15,1.66c-2.46,0-3.94-1.43-4-4.15l7.51-.2ZM381.56,45a6.35,6.35,0,0,0-3.67-1.13,6,6,0,0,0-6,6.3,5.61,5.61,0,0,0,5.8,5.78,6.32,6.32,0,0,0,3.84-1.17l.1-1.82a5.22,5.22,0,0,1-3.73,1.46,4.2,4.2,0,0,1-4.32-4.52,4.24,4.24,0,0,1,4.24-4.48,5.31,5.31,0,0,1,3.27,1.12Zm-30.11,4.63a5.49,5.49,0,0,0-5.55-5.76c-3.52,0-5.8,2.78-5.8,6.34A5.43,5.43,0,0,0,345.59,56C349.13,56,351.45,53.2,351.45,49.66Zm-87.59-.13c0-3.35-2.05-5.63-4.92-5.63a5.85,5.85,0,0,0-3.9,1.63V40.44c0-1,0-2.44.08-2.88-.59.09-1.27.19-1.94.23.1,1.15.12,2.53.12,4.21v9.66c0,1.38,0,2.77-.14,4.15l.42.13,1.16-.92a4.82,4.82,0,0,0,3,1A6.21,6.21,0,0,0,263.86,49.53Zm126.46,4.26a3.53,3.53,0,0,1-1.81.58c-1,0-1.48-.44-1.48-1.69v-7h3.08a11.92,11.92,0,0,1,.07-1.5H387v-2.9l-1.53.4-.16,2.5h-1.57l-.48,1.5h2v7.22c0,1.94.87,3.07,2.83,3.07a3.71,3.71,0,0,0,2.13-.63ZM338.77,43.9a4.87,4.87,0,0,0-4,2.76l-.21-2.59a9.66,9.66,0,0,1-1.71.25,28,28,0,0,1,.23,3.82v3.19c0,1.46,0,3.19-.12,4.25h1.92c-.07-.73-.09-1.69-.09-2.56V49a3.41,3.41,0,0,1,3.82-3.05ZM249.51,55.58c0-.65-.08-1.69-.08-2.56V47.91c0-2.65-1.3-4-3.51-4a5.07,5.07,0,0,0-4.17,2.55,3.08,3.08,0,0,0-3.29-2.55,5.42,5.42,0,0,0-4.09,2.48l-.13-2.25c-.58,0-1,.11-1.71.11.11,1.06.17,2.79.17,4.23v2.86c0,1.46-.06,3.19-.13,4.25h1.92c0-.73-.08-1.69-.08-2.56v-4.4a3.79,3.79,0,0,1,3.59-3.2c1.52,0,2.19,1,2.19,2.88v3c0,1.46-.07,3.19-.13,4.25H242c-.06-.65-.08-1.69-.08-2.56V48.59a3.79,3.79,0,0,1,3.58-3.17c1.53,0,2.24,1,2.24,2.88v3c0,1.46-.07,3.19-.15,4.25ZM285.19,43.9a4.85,4.85,0,0,0-4,2.76l-.21-2.59a9.93,9.93,0,0,1-1.71.25,30,30,0,0,1,.21,3.82v3.19c0,1.46,0,3.19-.13,4.25h1.94c-.06-.73-.08-1.69-.08-2.56V49A3.39,3.39,0,0,1,285,45.9Zm36.75,4.67c.44,0,.94,0,1.37,0,5.13,0,7.24-2.48,7.24-5.67,0-2.83-2.13-5-6.32-5-1.52,0-3.4.1-4.27.1.1,1.19.14,4.44.14,6.05v5.52c0,1.63,0,4.84-.14,6h2c0-.69,0-2.65,0-3.61ZM312,37.69a3.27,3.27,0,0,0-1.19-.19c-2.48,0-3.79,2-3.79,5.21v1.44h-1.63l-.5,1.5h2.13v5.8c0,1.46,0,3.07-.13,4.13h1.92c0-.62-.06-1.6-.06-2.48V45.65h3.15a7.9,7.9,0,0,1,.1-1.5h-3.25v-1.6c0-2.23.75-3.42,2.29-3.42a3.09,3.09,0,0,1,1.11.21Zm-49.9,12.07a4.43,4.43,0,0,1-4.26,4.69,4.36,4.36,0,0,1-2.83-.89V47.13a4.89,4.89,0,0,1,3.48-1.71C260.79,45.42,262.13,47.13,262.13,49.76Zm39.5.15c0,2.52-1.55,4.54-4,4.54-2.31,0-3.9-1.58-3.9-4.5,0-2.5,1.61-4.53,4-4.53C299.92,45.42,301.63,47,301.63,49.91Zm48.09,0c0,2.52-1.53,4.54-4,4.54-2.33,0-3.9-1.58-3.9-4.5,0-2.5,1.59-4.53,4-4.53C348,45.42,349.72,47,349.72,49.91ZM267.86,49a3.89,3.89,0,0,1,3.78-3.59c2,0,3,1.21,3.21,3.42Zm93.26,0a3.91,3.91,0,0,1,3.78-3.59c2,0,3,1.21,3.21,3.42Zm-32.47-5.76c0,2.34-1.79,3.9-5.29,3.9-.42,0-1,0-1.42-.08V39.54c.69,0,1.29,0,2,0C327.11,39.5,328.65,40.79,328.65,43.21Zm28.05-3.12a1.19,1.19,0,0,0-1.21-1.19,1.25,1.25,0,0,0-1.25,1.29,1.2,1.2,0,0,0,1.21,1.19A1.24,1.24,0,0,0,356.7,40.09Z"/><path class="b" d="M892.1,305.53A10.43,10.43,0,1,1,881.67,316,10.43,10.43,0,0,1,892.1,305.53Zm125.12,0A10.43,10.43,0,1,1,1006.8,316,10.43,10.43,0,0,1,1017.22,305.53Zm-93.84,0A10.43,10.43,0,1,1,913,316,10.43,10.43,0,0,1,923.38,305.53Zm31.28,0A10.43,10.43,0,1,1,944.23,316,10.43,10.43,0,0,1,954.66,305.53Zm31.28,0A10.43,10.43,0,1,1,975.51,316,10.43,10.43,0,0,1,985.94,305.53Zm-154.32,0A10.43,10.43,0,1,1,821.19,316,10.43,10.43,0,0,1,831.62,305.53Zm31.28,0A10.43,10.43,0,1,1,852.47,316,10.43,10.43,0,0,1,862.9,305.53Zm185.61,0A10.43,10.43,0,1,1,1038.08,316,10.43,10.43,0,0,1,1048.51,305.53Zm0-31.29a10.43,10.43,0,1,1-10.43,10.43A10.43,10.43,0,0,1,1048.51,274.24Zm-31.29,0a10.43,10.43,0,1,1-10.42,10.43A10.44,10.44,0,0,1,1017.22,274.24Zm-154.32,0a10.43,10.43,0,1,1-10.43,10.43A10.44,10.44,0,0,1,862.9,274.24Zm29.2,0a10.43,10.43,0,1,1-10.43,10.43A10.43,10.43,0,0,1,892.1,274.24Zm31.28,0A10.43,10.43,0,1,1,913,284.67,10.44,10.44,0,0,1,923.38,274.24Zm31.28,0a10.43,10.43,0,1,1-10.43,10.43A10.44,10.44,0,0,1,954.66,274.24Zm-123,0a10.43,10.43,0,1,1-10.43,10.43A10.43,10.43,0,0,1,831.62,274.24Zm154.32,0a10.43,10.43,0,1,1-10.43,10.43A10.44,10.44,0,0,1,985.94,274.24ZM862.9,243a10.43,10.43,0,1,1-10.43,10.43A10.44,10.44,0,0,1,862.9,243Zm29.2,0a10.43,10.43,0,1,1-10.43,10.43A10.43,10.43,0,0,1,892.1,243Zm31.28,0A10.43,10.43,0,1,1,913,253.39,10.44,10.44,0,0,1,923.38,243Zm31.28,0a10.43,10.43,0,1,1-10.43,10.43A10.43,10.43,0,0,1,954.66,243Zm31.28,0a10.43,10.43,0,1,1-10.43,10.43A10.43,10.43,0,0,1,985.94,243Zm62.57,0a10.43,10.43,0,1,1-10.43,10.43A10.43,10.43,0,0,1,1048.51,243Zm-216.89,0a10.43,10.43,0,1,1-10.43,10.43A10.43,10.43,0,0,1,831.62,243Zm185.6,0a10.43,10.43,0,1,1-10.42,10.43A10.43,10.43,0,0,1,1017.22,243Zm-62.56-31.28a10.43,10.43,0,1,1-10.43,10.43A10.43,10.43,0,0,1,954.66,211.68Zm-31.28,0A10.43,10.43,0,1,1,913,222.11,10.44,10.44,0,0,1,923.38,211.68Zm-91.76,0a10.43,10.43,0,1,1-10.43,10.43A10.43,10.43,0,0,1,831.62,211.68Zm60.48,0a10.43,10.43,0,1,1-10.43,10.43A10.43,10.43,0,0,1,892.1,211.68Zm125.12,0a10.43,10.43,0,1,1-10.42,10.43A10.43,10.43,0,0,1,1017.22,211.68Zm-31.28,0a10.43,10.43,0,1,1-10.43,10.43A10.43,10.43,0,0,1,985.94,211.68Zm62.57,0a10.43,10.43,0,1,1-10.43,10.43A10.43,10.43,0,0,1,1048.51,211.68Zm-185.61,0a10.43,10.43,0,1,1-10.43,10.43A10.44,10.44,0,0,1,862.9,211.68Zm154.32-31.28a10.43,10.43,0,1,1-10.42,10.43A10.43,10.43,0,0,1,1017.22,180.4Zm31.29,0a10.43,10.43,0,1,1-10.43,10.43A10.43,10.43,0,0,1,1048.51,180.4Zm-62.57,0a10.43,10.43,0,1,1-10.43,10.43A10.43,10.43,0,0,1,985.94,180.4Zm-31.28,0a10.43,10.43,0,1,1-10.43,10.43A10.43,10.43,0,0,1,954.66,180.4Z"/><path class="c" d="M1173.64,305.53A10.43,10.43,0,1,1,1163.21,316,10.43,10.43,0,0,1,1173.64,305.53Zm31.28,0A10.43,10.43,0,1,1,1194.49,316,10.43,10.43,0,0,1,1204.92,305.53Zm31.28,0A10.43,10.43,0,1,1,1225.77,316,10.43,10.43,0,0,1,1236.2,305.53Zm31.28,0A10.43,10.43,0,1,1,1257.06,316,10.43,10.43,0,0,1,1267.48,305.53Zm-156.41,0A10.43,10.43,0,1,1,1100.64,316,10.43,10.43,0,0,1,1111.07,305.53Zm31.28,0A10.43,10.43,0,1,1,1131.93,316,10.43,10.43,0,0,1,1142.35,305.53Zm31.29-31.29a10.43,10.43,0,1,1-10.43,10.43A10.43,10.43,0,0,1,1173.64,274.24Zm31.28,0a10.43,10.43,0,1,1-10.43,10.43A10.44,10.44,0,0,1,1204.92,274.24Zm31.28,0a10.43,10.43,0,1,1-10.43,10.43A10.44,10.44,0,0,1,1236.2,274.24Zm31.28,0a10.43,10.43,0,1,1-10.42,10.43A10.44,10.44,0,0,1,1267.48,274.24Zm-156.41,0a10.43,10.43,0,1,1-10.43,10.43A10.44,10.44,0,0,1,1111.07,274.24Zm31.28,0a10.43,10.43,0,1,1-10.42,10.43A10.44,10.44,0,0,1,1142.35,274.24ZM1173.64,243a10.43,10.43,0,1,1-10.43,10.43A10.43,10.43,0,0,1,1173.64,243Zm31.28,0a10.43,10.43,0,1,1-10.43,10.43A10.43,10.43,0,0,1,1204.92,243Zm31.28,0a10.43,10.43,0,1,1-10.43,10.43A10.43,10.43,0,0,1,1236.2,243Zm31.28,0a10.43,10.43,0,1,1-10.42,10.43A10.43,10.43,0,0,1,1267.48,243Zm-156.41,0a10.43,10.43,0,1,1-10.43,10.43A10.43,10.43,0,0,1,1111.07,243Zm31.28,0a10.43,10.43,0,1,1-10.42,10.43A10.43,10.43,0,0,1,1142.35,243Zm31.29-31.28a10.43,10.43,0,1,1-10.43,10.43A10.43,10.43,0,0,1,1173.64,211.68Zm31.28,0a10.43,10.43,0,1,1-10.43,10.43A10.43,10.43,0,0,1,1204.92,211.68Zm31.28,0a10.43,10.43,0,1,1-10.43,10.43A10.43,10.43,0,0,1,1236.2,211.68Zm31.28,0a10.43,10.43,0,1,1-10.42,10.43A10.43,10.43,0,0,1,1267.48,211.68Z"/><circle class="e" cx="1330.04" cy="315.96" r="10.43"/><path d="M1307.9,429.61c0-5-8-5-8-8.59,0-1.75,1.36-3.06,3.51-3.06a6.1,6.1,0,0,1,3.48,1.21l.58-1.63a7.06,7.06,0,0,0-4-1.23c-3.26,0-5.4,2.21-5.4,4.94,0,4.69,8,4.78,8,8.61,0,1.92-1.44,3.28-3.78,3.28a8.37,8.37,0,0,1-4.84-1.75l-.12,2a9.8,9.8,0,0,0,4.88,1.44C1305.8,434.79,1307.9,432.41,1307.9,429.61Zm12.81-1.46c0-3.08-1.46-5.5-4.7-5.5-3.44,0-5.67,2.79-5.67,6.36,0,3.15,1.92,5.71,5.53,5.71a7.1,7.1,0,0,0,4.27-1.39l.07-1.8a6.26,6.26,0,0,1-4.15,1.67c-2.44,0-3.93-1.44-4-4.15l7.51-.21Zm33.86.25a5.47,5.47,0,0,0-5.52-5.75c-3.55,0-5.8,2.77-5.8,6.32a5.42,5.42,0,0,0,5.46,5.75C1352.28,434.72,1354.57,432,1354.57,428.4Zm-22-4.62a6.42,6.42,0,0,0-3.69-1.13,6,6,0,0,0-6,6.3,5.61,5.61,0,0,0,5.8,5.77,6.21,6.21,0,0,0,3.82-1.16l.1-1.82a5.23,5.23,0,0,1-3.73,1.46,4.51,4.51,0,0,1-.06-9,5.32,5.32,0,0,1,3.27,1.13Zm8.76,8.75a3.52,3.52,0,0,1-1.83.59c-.94,0-1.46-.44-1.46-1.69v-7h3.06a8.61,8.61,0,0,1,.09-1.5H1338V420l-1.53.4-.18,2.5h-1.55l-.48,1.5h2v7.22c0,1.94.88,3.06,2.82,3.06a3.68,3.68,0,0,0,2.13-.62Zm22.13-9.88a4.83,4.83,0,0,0-4.07,2.75l-.19-2.58a9.88,9.88,0,0,1-1.73.25,27.81,27.81,0,0,1,.23,3.81v3.19c0,1.46,0,3.19-.12,4.26h1.92c0-.73-.07-1.69-.07-2.57V427.7a3.39,3.39,0,0,1,3.8-3.05Zm-10.6,6c0,2.53-1.52,4.55-4,4.55-2.32,0-3.9-1.58-3.9-4.5,0-2.51,1.61-4.53,4-4.53C1351.15,424.17,1352.84,425.78,1352.84,428.65Zm-40.75-.91a3.92,3.92,0,0,1,3.8-3.61c2,0,3,1.21,3.19,3.42ZM1163.36,404.3c-.09-1.13-.15-2.78-.15-4.24v-4.48c0-.92,0-2.09.08-2.77a14.64,14.64,0,0,1-2,.1c.11,1.17.17,2.77.17,4.15v3c0,1.36-2.11,3.13-3.71,3.13s-2.57-1-2.57-3.15v-4.44c0-.92,0-2.09.09-2.77a14.76,14.76,0,0,1-1.92.1c.06,1.17.12,2.77.12,4.15v3.36c0,3,1.46,4.31,3.82,4.31a5.49,5.49,0,0,0,4.21-2.58l.23,2.15ZM1365,398.12c0-3.08-1.46-5.5-4.69-5.5-3.44,0-5.69,2.79-5.69,6.36,0,3.15,1.92,5.71,5.52,5.71a7.13,7.13,0,0,0,4.3-1.39l.06-1.8a6.28,6.28,0,0,1-4.15,1.67c-2.46,0-3.94-1.44-4-4.15l7.51-.21Zm-142.54,0c0-3.08-1.48-5.5-4.71-5.5-3.42,0-5.68,2.79-5.68,6.36,0,3.15,1.92,5.71,5.53,5.71a7.09,7.09,0,0,0,4.28-1.39l.08-1.8a6.3,6.3,0,0,1-4.15,1.67c-2.46,0-3.94-1.44-4-4.15l7.5-.21ZM1327,404.65l1.13-.12,4.86-11.72a18.65,18.65,0,0,1-1.9.08c-.46,1.33-1.48,3.79-1.88,4.88l-1.6,4.13-3.71-9.16L1322,393c.56,1.09,1.13,2.51,1.75,4l1.73,4C1326,402.25,1326.65,403.69,1327,404.65Zm-196-.35h1.9c0-.82.27-2.53.39-3.57l1.23-9.28,5.8,13.2.52-.12c.23-.67,4.7-10.64,5.8-13.12l1.21,9.2c.21,1.33.4,3,.46,3.83l2-.14c-.25-1.3-.75-4.38-1-6l-.86-6.3c-.14-1.08-.62-4.75-.73-5.71h-.48c-.35,1-1.16,2.73-1.66,3.86l-5,11.15-5-11.2c-.52-1.21-1.13-2.48-1.65-3.81l-.52.12c-.12,1.36-.46,4.07-.71,5.84l-.85,6.18C1131.7,400.17,1131.3,402.8,1131,404.3Zm221.73-1.8a3.55,3.55,0,0,1-1.84.57c-.93,0-1.48-.42-1.48-1.67v-7h3.09a14.54,14.54,0,0,1,.06-1.5h-3.15V390l-1.52.4-.17,2.5h-1.54l-.48,1.5h2v7.22c0,1.93.88,3.06,2.82,3.06a3.78,3.78,0,0,0,2.13-.62Zm-142.54,0a3.55,3.55,0,0,1-1.84.57c-1,0-1.48-.42-1.48-1.67v-7H1210a14.54,14.54,0,0,1,.06-1.5h-3.15V390l-1.52.4-.17,2.5h-1.56l-.46,1.5h2v7.22c0,1.93.85,3.06,2.82,3.06a3.75,3.75,0,0,0,2.12-.62Zm-31.75,0a3.48,3.48,0,0,1-1.83.57c-.94,0-1.48-.42-1.48-1.67v-7h3.09a10,10,0,0,1,.08-1.5h-3.17V390l-1.52.4-.17,2.5h-1.54l-.48,1.5h2v7.22c0,1.93.87,3.06,2.81,3.06a3.66,3.66,0,0,0,2.13-.62Zm159.25,2.11a4.17,4.17,0,0,0,3.78-2.29c0,1.66.85,2.23,1.75,2.23a2.73,2.73,0,0,0,1.31-.36l.19-1.23a2.58,2.58,0,0,1-1,.23c-.56,0-.81-.29-.79-1.21l.16-5c.07-2.78-1.39-4.4-4.1-4.4a7.45,7.45,0,0,0-3.9,1.1l.39,1.53a6,6,0,0,1,3.26-1.11c1.85,0,2.73,1,2.64,3.07l0,.45c-.41,0-.87-.06-1.35-.06-4,0-5.86,1.63-5.86,3.76C1334.16,403.25,1335.47,404.61,1337.7,404.61Zm-142.56,0a4.15,4.15,0,0,0,3.79-2.29c0,1.66.84,2.23,1.76,2.23a2.73,2.73,0,0,0,1.31-.36l.17-1.23a2.46,2.46,0,0,1-1,.23c-.55,0-.8-.29-.78-1.21l.17-5c.06-2.78-1.42-4.4-4.11-4.4a7.43,7.43,0,0,0-3.9,1.1l.4,1.53a5.79,5.79,0,0,1,3.25-1.11c1.86,0,2.73,1,2.65,3.07l0,.45c-.42,0-.88-.06-1.36-.06-4,0-5.86,1.63-5.86,3.76A3.19,3.19,0,0,0,1195.14,404.61Zm40.79,0a4.18,4.18,0,0,0,3.8-2.29c0,1.66.83,2.23,1.75,2.23a2.73,2.73,0,0,0,1.31-.36L1243,403a2.43,2.43,0,0,1-1,.23c-.54,0-.79-.29-.77-1.21l.16-5c.07-2.78-1.41-4.4-4.11-4.4a7.45,7.45,0,0,0-3.9,1.1l.4,1.53a5.85,5.85,0,0,1,3.25-1.11c1.86,0,2.74,1,2.65,3.07l0,.45c-.44,0-.87-.06-1.35-.06-4,0-5.86,1.63-5.86,3.76A3.19,3.19,0,0,0,1235.93,404.61Zm-281.06-6.67c0-3.09-1.48-5.51-4.71-5.51-3.43,0-5.68,2.82-5.68,6.36,0,3.15,1.92,5.74,5.53,5.74a7.05,7.05,0,0,0,4.27-1.42l.09-1.8A6.37,6.37,0,0,1,950.2,403c-2.44,0-3.92-1.46-4-4.17l7.51-.19Zm-12.33,4.38a3.41,3.41,0,0,1-1.81.58c-1,0-1.48-.44-1.48-1.69v-7h3.06a13.85,13.85,0,0,1,.09-1.5h-3.15v-2.9l-1.52.4-.19,2.5H936l-.47,1.5h2v7.22c0,1.94.87,3.06,2.83,3.06a3.76,3.76,0,0,0,2.13-.62Zm25.76,2.1a4.14,4.14,0,0,0,3.77-2.27c0,1.65.86,2.21,1.76,2.21a3.21,3.21,0,0,0,1.33-.33l.17-1.26a2.58,2.58,0,0,1-1,.25c-.55,0-.8-.31-.78-1.23l.15-5c.08-2.77-1.4-4.4-4.11-4.4a7.54,7.54,0,0,0-3.9,1.11l.4,1.52a5.9,5.9,0,0,1,3.25-1.11c1.86,0,2.73,1,2.67,3.07l0,.48a9.41,9.41,0,0,0-1.34-.09c-4.06,0-5.86,1.63-5.86,3.76C964.77,403.07,966.07,404.42,968.3,404.42Zm-40.79,0a4.14,4.14,0,0,0,3.77-2.27c0,1.65.86,2.21,1.75,2.21a3.3,3.3,0,0,0,1.34-.33l.17-1.26a2.59,2.59,0,0,1-1,.25c-.54,0-.79-.31-.77-1.23l.15-5c.08-2.77-1.4-4.4-4.11-4.4a7.54,7.54,0,0,0-3.9,1.11l.4,1.52a5.9,5.9,0,0,1,3.25-1.11c1.86,0,2.73,1,2.67,3.07l0,.48a9.41,9.41,0,0,0-1.34-.09c-4.06,0-5.86,1.63-5.86,3.76C924,403.07,925.28,404.42,927.51,404.42Zm388-11.8a4.82,4.82,0,0,0-4,2.75l-.21-2.59a9.89,9.89,0,0,1-1.73.26,26.3,26.3,0,0,1,.23,3.81V400c0,1.46,0,3.19-.13,4.26h1.92c0-.73-.06-1.69-.06-2.57v-4.07a3.38,3.38,0,0,1,3.79-3Zm4.28,11.68c0-.65-.07-1.61-.07-2.49v-6.15c0-.58,0-2.4.07-2.85a14.88,14.88,0,0,1-1.94.1c.1,1.08.14,2.86.14,4.32v2.92c0,1.48,0,3.08-.12,4.15Zm-21.13-7c.46,0,1,0,1.38,0,5.13,0,7.23-2.5,7.23-5.67,0-2.84-2.12-5.05-6.29-5.05-1.55,0-3.4.08-4.28.08.08,1.21.15,4.47.15,6.07v5.53c0,1.63-.07,4.84-.15,6h2c0-.69-.06-2.65-.06-3.61Zm-109.88,7c0-.65-.09-1.61-.09-2.49V389.16c0-1,0-2.42.09-2.88a14.15,14.15,0,0,1-1.92.25c.1,1.15.12,2.5.12,4.21v9.41c0,1.48,0,3.08-.12,4.15Zm58.45,0c0-.65-.06-1.61-.06-2.49V389.16c0-1,0-2.42.06-2.88a13.74,13.74,0,0,1-1.92.25c.11,1.15.13,2.5.13,4.21v9.41c0,1.48,0,3.08-.13,4.15Zm-78.22,0c0-.65-.09-1.61-.09-2.49V389.16c0-1,0-2.42.09-2.88a14.15,14.15,0,0,1-1.92.25c.1,1.15.12,2.5.12,4.21v9.41c0,1.48,0,3.08-.12,4.15Zm62.27-11.68a4.86,4.86,0,0,0-4.07,2.75l-.19-2.59a9.89,9.89,0,0,1-1.73.26,27.81,27.81,0,0,1,.23,3.81V400c0,1.46,0,3.19-.12,4.26h1.92c0-.73-.09-1.69-.09-2.57v-4.07a3.4,3.4,0,0,1,3.82-3Zm-48.16,11.68c0-.65-.08-1.61-.08-2.49v-6.15c0-.58,0-2.4.08-2.85a14.82,14.82,0,0,1-1.93.1c.08,1.08.14,2.86.14,4.32v2.92c0,1.48,0,3.08-.12,4.15Zm-262-.19c-.06-.65-.08-1.59-.08-2.46V389c0-1,0-2.44.08-2.88a12.79,12.79,0,0,1-1.91.23c.08,1.17.12,2.52.12,4.21V400c0,1.48,0,3.08-.12,4.15Zm58.46,0c-.06-.65-.08-1.59-.08-2.46V389c0-1,0-2.44.08-2.88a12.77,12.77,0,0,1-1.92.23c.11,1.17.13,2.52.13,4.21V400c0,1.48,0,3.08-.13,4.15Zm-64.11,0c-.06-.65-.08-1.59-.08-2.46V395.5c0-.61,0-2.42.08-2.86-.58.06-1.29.1-2,.1.11,1.07.15,2.84.15,4.3V400c0,1.48,0,3.08-.13,4.15Zm48.14-11.68a4.86,4.86,0,0,0-4.05,2.75l-.21-2.56a9.77,9.77,0,0,1-1.71.23,27.81,27.81,0,0,1,.23,3.81v3.19c0,1.46,0,3.19-.12,4.26h1.91c-.06-.71-.08-1.69-.08-2.57v-4a3.41,3.41,0,0,1,3.82-3.07Zm-59.52,11.68c4.06,0,6.4-2.17,6.4-5,0-2.06-1.27-3.69-3.9-4.36a4,4,0,0,0,3.06-3.92c0-2.17-1.66-4.38-6-4.38-1.13,0-3.59.11-4.36.11.1,1.19.12,4.42.12,6v5.53c0,1.63,0,4.84-.12,6Zm434-.92c-1.55,0-2.19-.87-2.19-1.94,0-1.31,1-2.48,4.13-2.48a10.8,10.8,0,0,1,1.37.08l0,1.09A3.26,3.26,0,0,1,1338,403.19Zm-101.75,0c-1.55,0-2.19-.87-2.19-1.94,0-1.31,1-2.48,4.12-2.48a10.85,10.85,0,0,1,1.38.08l0,1.09A3.26,3.26,0,0,1,1236.29,403.19Zm-40.8,0c-1.54,0-2.19-.87-2.19-1.94,0-1.31,1-2.48,4.13-2.48a10.85,10.85,0,0,1,1.38.08l0,1.09A3.24,3.24,0,0,1,1195.49,403.19ZM927.86,403c-1.56,0-2.21-.87-2.21-2,0-1.29,1-2.48,4.13-2.48a9,9,0,0,1,1.38.09l0,1.1A3.28,3.28,0,0,1,927.86,403Zm40.79,0c-1.56,0-2.21-.87-2.21-2,0-1.29,1-2.48,4.13-2.48a9,9,0,0,1,1.38.09l0,1.1A3.27,3.27,0,0,1,968.65,403Zm-67.46-.62c0-.59,0-1.29,0-1.88v-4.8c.66,0,1.37,0,2.23,0,3.61,0,5.21,1.4,5.21,3.38,0,2.32-1.81,3.44-4.63,3.44C903.11,402.5,902.11,402.46,901.19,402.4Zm455.24-4.69a3.91,3.91,0,0,1,3.8-3.61c2,0,3,1.21,3.19,3.42Zm-142.54,0a3.91,3.91,0,0,1,3.77-3.61c2,0,3,1.21,3.21,3.42Zm-267.63-.19a3.9,3.9,0,0,1,3.77-3.61c2,0,3,1.23,3.21,3.42Zm359.08-5.59c0,2.34-1.78,3.88-5.28,3.88-.44,0-1,0-1.44-.06v-7.49c.71,0,1.31,0,2,0C1303.81,388.22,1305.34,389.51,1305.34,391.93Zm-404.15,2.21c0-.23,0-1.25,0-1.61v-2.77c0-.25,0-1.38,0-1.67.52,0,1.25-.06,2.25-.06,3,0,4.32,1.13,4.32,3s-1.48,3.17-4.42,3.17C902.88,394.18,901.54,394.16,901.19,394.14Zm418.91-5.34a1.2,1.2,0,0,0-1.21-1.19,1.26,1.26,0,0,0-1.25,1.3,1.19,1.19,0,0,0,1.21,1.18A1.24,1.24,0,0,0,1320.1,388.8Zm-136.66,0a1.2,1.2,0,0,0-1.21-1.19,1.26,1.26,0,0,0-1.25,1.3,1.19,1.19,0,0,0,1.21,1.18A1.24,1.24,0,0,0,1183.44,388.8Zm-267.65-.17a1.18,1.18,0,0,0-1.19-1.21,1.26,1.26,0,0,0-1.25,1.3,1.19,1.19,0,0,0,1.19,1.19A1.24,1.24,0,0,0,915.79,388.63Zm39.52-36.28-.59-2.34c-9.4,1.77-14.39,8.63-14.39,17.19,0,6.23,3.3,10.07,8.45,10.07s8.59-3.94,8.59-8.91a7.75,7.75,0,0,0-7.74-8A7.87,7.87,0,0,0,943,364C944.13,358.17,948.17,353.7,955.31,352.35Zm-34.37,23.79a18.36,18.36,0,0,0,6.11,1c5.4,0,9.19-3,9.19-7.42,0-3.25-2.33-5.67-7.21-6.63,3.79-1.13,6.67-3.24,6.67-6.89,0-3.23-3-5.88-7.53-5.88a13.29,13.29,0,0,0-7.09,2.28l1,2.29a10.06,10.06,0,0,1,5.91-2.15c3.23,0,5,1.78,5,3.76,0,2.81-3.25,5.19-9.2,6.23l.38,1.92c6.17.13,9.32,2.15,9.32,5.38,0,2.84-2.63,4.65-6.69,4.65a18.26,18.26,0,0,1-6.26-1.21Zm33.74-7.65c0,3.59-2.34,6.42-5.76,6.42a5.75,5.75,0,0,1-5.73-6.05,5.94,5.94,0,0,1,5.73-6.17A5.56,5.56,0,0,1,954.68,368.49Zm219.73,3.38c2.19-2.07,4.55-4.55,6.19-6.38,3.46-3.9,5.72-6.87,5.72-10.6,0-4.19-3-6.9-7.59-6.9a12.58,12.58,0,0,0-7.43,2.81l1,2.3a9.81,9.81,0,0,1,6.22-2.63c3.17,0,5.07,1.94,5.07,4.78,0,4.27-4,8.25-13.25,17.31l.42,1.83c2.5-.12,5.13-.17,8.18-.17s5.44,0,7.92.17c0-.94.1-1.77.21-2.63C1183.31,371.87,1178.52,371.87,1174.41,371.87Zm20.42,0c2.19-2.07,4.54-4.55,6.21-6.38,3.44-3.9,5.69-6.87,5.69-10.6,0-4.19-3-6.9-7.57-6.9a12.63,12.63,0,0,0-7.44,2.81l1,2.3a9.81,9.81,0,0,1,6.21-2.63c3.17,0,5.09,1.94,5.09,4.78,0,4.27-4.06,8.25-13.26,17.31l.42,1.83c2.52-.12,5.15-.17,8.17-.17s5.45,0,7.93.17a24.05,24.05,0,0,1,.23-2.63C1203.73,371.87,1198.93,371.87,1194.83,371.87ZM1332.18,348l-2.38.75c-1.38.46-3.78,1.25-5.84,1.87l.58,2.3,5.3-1.65v15.91c0,1.92,0,5.72-.15,7.14h2.86c-.08-.86-.08-3.15-.08-4.28v-17.5c0-.89,0-3.65.08-4.31Z"/><path d="M1176,77.46c0-3.65-2.21-6.78-5.92-6.78a5.8,5.8,0,0,0-4.3,2.06l-.14-1.79a32.12,32.12,0,0,1-3.42.23c.14,1.27.2,3.23.2,4.92V86.22c0,1.69-.06,3.65-.16,4.9.16,0,3.58-.36,3.77-.36-.08-.73-.1-1.71-.1-2.71V84.32a5.74,5.74,0,0,0,3.35,1C1172.55,85.3,1176,82.25,1176,77.46ZM1148.42,91a37.11,37.11,0,0,1,3.77-.14c.46-1.46,1.44-3.73,1.84-4.82l6.3-15.1c-1.06.09-2.34.13-3.63.13-.5,1.42-1.13,3.17-1.79,4.9l-1.4,3.79-3.4-8.88c-.17,0-3.52.35-3.75.35.66,1.26,1.62,3.42,2.39,5.16l1.67,3.75c.52,1.19.86,2.17,1.3,3.27Zm-130.36,0a37.11,37.11,0,0,1,3.77-.14c.46-1.46,1.42-3.73,1.84-4.82L1030,71c-1.06.09-2.33.13-3.62.13-.51,1.42-1.13,3.17-1.8,4.9l-1.4,3.79-3.37-8.88c-.19,0-3.55.35-3.78.35.67,1.26,1.63,3.42,2.4,5.16l1.67,3.75c.52,1.19.87,2.17,1.31,3.27Zm104.79-13.57c0-3.74-1.77-6.78-5.92-6.78-4.3,0-7.13,3.3-7.13,7.61,0,3.78,2.27,7,7,7a9.49,9.49,0,0,0,5.34-1.63l.09-3a8.23,8.23,0,0,1-5,1.83c-2.44,0-3.75-1.25-4-3.71l8-.23Zm-40.06,7.32a47,47,0,0,1-.21-4.84V74.16a23.49,23.49,0,0,1,.19-3.19,36.15,36.15,0,0,1-3.86.19c.13,1.27.17,3.21.17,4.9v3.36a3.4,3.4,0,0,1-3.17,3c-1.86,0-2.46-1.08-2.46-3.15V74.16a25.91,25.91,0,0,1,.14-3.19,34.29,34.29,0,0,1-3.81.19c.1,1.27.16,3.21.16,4.9v4c0,3.55,1.61,5.28,4.67,5.28a5.67,5.67,0,0,0,4.57-2.75l.38,2.23Zm25-12.79a7.87,7.87,0,0,0-4.4-1.31,7.36,7.36,0,0,0-7.44,7.67,6.87,6.87,0,0,0,7.17,7,7.79,7.79,0,0,0,4.49-1.25l.1-3.3a5.41,5.41,0,0,1-4,1.67,4.19,4.19,0,0,1-4.28-4.52,4.08,4.08,0,0,1,4.09-4.32,5.41,5.41,0,0,1,3.5,1.25Zm-92.84,5.47c0-3.92-2.38-6.78-5.86-6.78a6.3,6.3,0,0,0-4.17,1.67V67.09c0-.79,0-2.75.1-3.5-.88.15-2.75.37-3.82.44a44.34,44.34,0,0,1,.21,4.75V79.94c0,1.69-.06,3.5-.21,5.07l.65.21,2.36-1a6.34,6.34,0,0,0,3.5,1C1011.78,85.3,1014.93,81.8,1014.93,77.46Zm176.16,0c0-3.74-1.79-6.78-5.92-6.78-4.3,0-7.14,3.3-7.14,7.61,0,3.78,2.28,7,7,7a9.49,9.49,0,0,0,5.34-1.63l.08-3a8.25,8.25,0,0,1-5,1.83c-2.46,0-3.78-1.25-4-3.71l8-.23Zm-140.4,1.48c0-5.84-8.76-6-8.76-9.43,0-1.54,1.24-2.6,3.09-2.6a8,8,0,0,1,4.17,1.43l.92-3.06a9.25,9.25,0,0,0-5.13-1.52c-3.92,0-6.67,2.52-6.67,6.06,0,5.51,8.78,5.89,8.78,9.47,0,1.88-1.32,2.86-3.28,2.86a10.46,10.46,0,0,1-6-2.21l-.16,3.65a12.67,12.67,0,0,0,6.07,1.71C1048,85.3,1050.69,82.65,1050.69,78.94ZM1067,77.67a6.68,6.68,0,0,0-6.8-7c-4.29,0-7.13,3.34-7.13,7.67a6.64,6.64,0,0,0,6.74,7C1064.17,85.3,1067,82,1067,77.67Zm27.82-7a5.78,5.78,0,0,0-4.86,3.13l-.25-2.92a25.64,25.64,0,0,1-3.48.44,27.71,27.71,0,0,1,.27,4.29v4.19c0,1.69,0,3.72-.17,5h3.78c-.08-.75-.1-2-.1-3v-4.6c0-2.26,2.39-3.13,4.46-2.8Zm53.31-6.59c-2.73.08-5.47.15-8.72.15s-5.84-.07-8.53-.15c0,1.11,0,2.34-.12,3.29,2.16,0,4.19-.06,6.71-.06.06,1.59.06,3.49.06,4.67v5.76c0,1.9-.06,5.63-.2,7h4.06c-.08-.82-.12-3.09-.12-4.19V69.2c0-.5,0-1.27,0-1.88,2.52,0,4.42,0,6.59.06A25.1,25.1,0,0,1,1148.13,64.09Zm24.36,13.72c0,2.53-1.4,4.76-3.59,4.76a3.72,3.72,0,0,1-3-1.17V75.18a3.84,3.84,0,0,1,3-1.73C1170.88,73.45,1172.49,74.75,1172.49,77.81Zm-161,0c0,2.51-1.61,4.74-3.88,4.74a4.55,4.55,0,0,1-2.69-.75V74.91a4.27,4.27,0,0,1,3.06-1.46C1010.21,73.45,1011.47,75.12,1011.47,77.81Zm52.09.23c0,2.63-1.35,4.46-3.61,4.46-2.06,0-3.46-1.48-3.46-4.6,0-2.57,1.42-4.43,3.59-4.43C1062,73.47,1063.56,75,1063.56,78Zm49.72-1.35a3.56,3.56,0,0,1,3.5-3.36c1.82,0,2.65,1.12,2.88,3.17Zm68.22,0a3.58,3.58,0,0,1,3.5-3.36c1.81,0,2.67,1.12,2.9,3.17Zm-29-32.58c-.59.06-1.28.08-1.94.08.1,1.09.16,2.86.16,4.32l0,8.57c0,1.69-.54,2.23-1.58,2.25a6.42,6.42,0,0,1-.84-.08l.23,1.54a4.42,4.42,0,0,0,1,.15c1.55,0,2.92-1,2.92-3.92V47C1152.4,46.34,1152.42,44.55,1152.49,44.11ZM996.43,55.58h2c0-.69-.08-2.63-.08-3.61V41.55l12,14.47.52-.13c-.06-.71-.06-2.83,0-3.81l.13-10.51c0-1,0-2.94.12-3.67a16.59,16.59,0,0,1-2,.1c.08,1.19.14,4.42.14,6V52.2L997.14,37.56l-.52.13c.1,1.21.1,4.42.1,6l-.06,5.86C996.62,51.18,996.55,54.39,996.43,55.58Zm28.59,0c-.1-1.13-.14-2.77-.14-4.23V46.86c0-.91,0-2.08.06-2.75a18.7,18.7,0,0,1-1.94.08c.1,1.15.14,2.78.14,4.18v3c0,1.35-2.1,3.12-3.69,3.12s-2.56-1-2.56-3.14V46.86c0-.91,0-2.08.08-2.75-.58.06-1.25.08-1.94.08.09,1.15.13,2.78.13,4.18V51.7c0,3,1.48,4.32,3.83,4.32a5.55,5.55,0,0,0,4.22-2.59l.21,2.15Zm140.86-6.17c0-3.09-1.48-5.51-4.72-5.51-3.42,0-5.67,2.8-5.67,6.36,0,3.15,1.92,5.72,5.53,5.72a7.06,7.06,0,0,0,4.27-1.4l.09-1.79a6.34,6.34,0,0,1-4.15,1.66c-2.47,0-4-1.43-4-4.15l7.51-.2ZM1060,49.53c0-3.35-2-5.63-4.93-5.63a5.89,5.89,0,0,0-3.9,1.63V40.44c0-1,0-2.44.09-2.88-.59.09-1.28.19-1.94.23.1,1.15.12,2.53.12,4.21v9.66c0,1.38,0,2.77-.14,4.15l.41.13,1.17-.92a4.81,4.81,0,0,0,3,1A6.21,6.21,0,0,0,1060,49.53Zm39.47.13A5.48,5.48,0,0,0,1094,43.9c-3.53,0-5.8,2.78-5.8,6.34a5.42,5.42,0,0,0,5.46,5.74C1097.18,56,1099.47,53.2,1099.47,49.66Zm93.2-5.76c-2.29,0-3.94,1.44-3.94,3.3,0,3.61,6,2.94,6,5.44,0,1.17-1.17,1.79-2.57,1.79a6.42,6.42,0,0,1-3.69-1.23l-.1,1.84a7.76,7.76,0,0,0,3.75.94c2.28,0,4.3-1.34,4.3-3.61,0-3.53-6-3-6-5.24,0-1.16,1-1.68,2.23-1.68a4.88,4.88,0,0,1,2.78.87l.6-1.52A6.62,6.62,0,0,0,1192.67,43.9Zm-120.08,5.51c0-3.09-1.46-5.51-4.69-5.51-3.44,0-5.67,2.8-5.67,6.36,0,3.15,1.92,5.72,5.52,5.72a7.07,7.07,0,0,0,4.28-1.4l.06-1.79a6.28,6.28,0,0,1-4.15,1.66c-2.44,0-3.92-1.43-4-4.15l7.5-.2ZM1177.7,45A6.37,6.37,0,0,0,1174,43.9a6,6,0,0,0-6,6.3,5.61,5.61,0,0,0,5.8,5.78,6.32,6.32,0,0,0,3.84-1.17l.1-1.82a5.24,5.24,0,0,1-3.73,1.46,4.2,4.2,0,0,1-4.32-4.52,4.24,4.24,0,0,1,4.24-4.48,5.31,5.31,0,0,1,3.27,1.12Zm-30.11,4.63A5.49,5.49,0,0,0,1142,43.9c-3.53,0-5.8,2.78-5.8,6.34a5.43,5.43,0,0,0,5.49,5.74C1145.27,56,1147.59,53.2,1147.59,49.66Zm38.87,4.13a3.56,3.56,0,0,1-1.81.58c-1,0-1.49-.44-1.49-1.69v-7h3.09a14.68,14.68,0,0,1,.06-1.5h-3.15v-2.9l-1.52.4-.16,2.5h-1.57l-.48,1.5h2v7.22c0,1.94.88,3.07,2.84,3.07a3.71,3.71,0,0,0,2.13-.63Zm-140.81,1.79c0-.65-.09-1.69-.09-2.56V47.91c0-2.65-1.29-4-3.5-4a5.07,5.07,0,0,0-4.17,2.55,3.08,3.08,0,0,0-3.3-2.55,5.4,5.4,0,0,0-4.08,2.48l-.13-2.25c-.58,0-1,.11-1.71.11.11,1.06.17,2.79.17,4.23v2.86c0,1.46-.06,3.19-.13,4.25h1.92c0-.73-.08-1.69-.08-2.56v-4.4a3.79,3.79,0,0,1,3.59-3.2c1.52,0,2.18,1,2.18,2.88v3c0,1.46-.06,3.19-.12,4.25h1.92c-.06-.65-.09-1.69-.09-2.56V48.59a3.8,3.8,0,0,1,3.59-3.17c1.52,0,2.23,1,2.23,2.88v3c0,1.46-.06,3.19-.14,4.25Zm62.52-17.89a3.31,3.31,0,0,0-1.19-.19c-2.48,0-3.79,2-3.79,5.21v1.44h-1.63l-.5,1.5h2.13v5.8c0,1.46,0,3.07-.13,4.13H1105c0-.62-.06-1.6-.06-2.48V45.65h3.15a7.9,7.9,0,0,1,.1-1.5h-3.25v-1.6c0-2.23.75-3.42,2.29-3.42a3.09,3.09,0,0,1,1.11.21Zm26.74,6.21a4.85,4.85,0,0,0-4.05,2.76l-.21-2.59a9.79,9.79,0,0,1-1.71.25,28,28,0,0,1,.23,3.82v3.19c0,1.46,0,3.19-.12,4.25H1131c-.06-.73-.08-1.69-.08-2.56V49a3.41,3.41,0,0,1,3.82-3.05Zm-53.58,0a4.88,4.88,0,0,0-4,2.76l-.2-2.59a9.93,9.93,0,0,1-1.71.25,30.2,30.2,0,0,1,.2,3.82v3.19c0,1.46,0,3.19-.12,4.25h1.94c-.06-.73-.09-1.69-.09-2.56V49a3.4,3.4,0,0,1,3.8-3.05Zm36.75,4.67c.43,0,.93,0,1.37,0,5.13,0,7.24-2.48,7.24-5.67,0-2.83-2.13-5-6.32-5-1.52,0-3.4.1-4.28.1.11,1.19.15,4.44.15,6.05v5.52c0,1.63,0,4.84-.15,6h2c0-.69,0-2.65,0-3.61Zm-20.32,1.34c0,2.52-1.54,4.54-4,4.54-2.32,0-3.9-1.58-3.9-4.5,0-2.5,1.6-4.53,4-4.53C1096.05,45.42,1097.76,47,1097.76,49.91Zm48.09,0c0,2.52-1.52,4.54-4,4.54s-3.9-1.58-3.9-4.5c0-2.5,1.59-4.53,4-4.53C1144.15,45.42,1145.85,47,1145.85,49.91Zm-87.59-.15a4.43,4.43,0,0,1-7.09,3.8V47.13a4.93,4.93,0,0,1,3.49-1.71C1056.93,45.42,1058.26,47.13,1058.26,49.76Zm99-.79a3.91,3.91,0,0,1,3.78-3.59c2,0,3,1.21,3.21,3.42ZM1064,49a3.88,3.88,0,0,1,3.77-3.59c2,0,3,1.21,3.22,3.42Zm60.79-5.76c0,2.34-1.79,3.9-5.3,3.9-.41,0-1,0-1.41-.08V39.54c.68,0,1.29,0,2,0C1123.25,39.5,1124.79,40.79,1124.79,43.21Zm28-3.12a1.19,1.19,0,0,0-1.21-1.19,1.25,1.25,0,0,0-1.25,1.29,1.2,1.2,0,0,0,1.21,1.19A1.24,1.24,0,0,0,1152.84,40.09Z"/><path class="f" d="M713.26,0V469.24"/></svg>